<svg xmlns="http://www.w3.org/2000/svg" width="136" height="48" viewBox="0 0 136 48">
    <g fill="#C00" fill-rule="evenodd">
        <path d="M118.225 41.907V48h11.33c2.322 0 6.306-1.65 6.445-6.26v-2.357c0-3.938-3.326-6.261-6.445-6.261h-5.648v-2.827H135.1v-6.127h-10.741c-2.772 0-6.48 2.222-6.48 6.362v2.12c0 4.141 3.673 6.262 6.48 6.262 7.796.033-1.871 0 5.336 0v2.962l-11.47.033zm-60.707-1.48s6.064-.506 6.064-8.113c0-7.607-7.346-8.314-7.346-8.314H43v24h6.653v-5.79L55.405 48h9.84l-7.727-7.574zm-2.564-4.915h-5.301v-5.487h5.336s1.49.539 1.49 2.727c0 2.188-1.525 2.76-1.525 2.76zm25.052-11.344h-6.757c-4.816 0-6.445 4.242-6.445 6.261V48h6.757v-4.208h6.341V48h6.549V30.43c0-5.117-4.782-6.262-6.445-6.262zm-.104 12.825h-6.376V31.17s0-1.313 2.114-1.313h2.322c1.87 0 1.905 1.313 1.905 1.313v5.823h.035zM90 24h8v24h-8zM106.804 41.797V24H100v24h16v-6.203z"/>
        <path d="M3 48h27.316s-5.221-23.473 12.067-32.978c3.769-1.806 15.767-8.551 35.407 5.757.622-.51 1.21-.92 1.21-.92S61.02 2.18 41 4.155c-10.062.886-22.44 9.914-29.702 21.838C4.038 37.916 3 48 3 48z"/>
        <path d="M3 48h27.316s-5.221-23.473 12.067-32.978c3.769-1.806 15.767-8.551 35.407 5.757.622-.51 1.21-.92 1.21-.92S61.02 2.18 41 4.155c-10.062.886-22.44 9.914-29.702 21.838C4.038 37.916 3 48 3 48z"/>
        <path d="M3 48h27.316s-5.221-23.776 12.067-33.404c3.769-1.83 15.767-8.662 35.407 5.832.622-.518 1.21-.932 1.21-.932S61.02 1.586 41 3.587c-10.096.898-22.475 10.042-29.736 22.12C4.003 37.785 3 48 3 48zM59.914 5.52l.138-2.312C59.74 3.035 58.876 2.62 56.698 2l-.138 2.278c1.14.38 2.247.793 3.354 1.242z"/>
        <path d="M55.604 12.881l-.137 2.176c1.132.034 2.264.172 3.396.414L59 13.33a24.137 24.137 0 0 0-3.396-.449zM42.912 2.107h.343L42.57 0c-1.063 0-2.16.07-3.293.207l.652 2.038c.995-.104 1.99-.138 2.984-.138zm1.647 12.708l.789 2.383c.994-.484 1.99-.898 2.984-1.209l-.755-2.28a24.78 24.78 0 0 0-3.018 1.106zM28.985 5.733L27.442 3.35a54.45 54.45 0 0 0-2.676 1.485l1.578 2.417c.892-.553 1.75-1.07 2.641-1.52zm7.032 15.54l1.647 2.486c.583-.863 1.27-1.658 2.024-2.452l-1.544-2.348c-.789.725-1.51 1.52-2.127 2.314zm-4.973 11.12l2.778 2.21c.137-1.347.377-2.694.72-4.04l-2.47-1.97c-.445 1.278-.754 2.556-1.028 3.8zM16.019 15.988l-2.435-2.141a59.648 59.648 0 0 0-2.539 2.59l2.642 2.28a34.91 34.91 0 0 1 2.332-2.729zM5.66 31.425l-3.944-1.45C1.063 31.46.343 33.187 0 34.119l3.945 1.45c.446-1.174 1.166-2.866 1.715-4.144zm24.87 9.739c.069 1.83.24 3.315.412 4.351L35.057 47a45.92 45.92 0 0 1-.823-4.49l-3.705-1.346z"/>
    </g>
</svg>
