<svg xmlns="http://www.w3.org/2000/svg" width="130" height="81" viewBox="0 0 130 81">
    <g fill="none" fill-rule="evenodd">
        <path fill="#7CBE35" fill-rule="nonzero" d="M90.25 27H77l26.5-27L130 27h-13.25v16.875h-26.5V27zm0 23.625v6.75h26.5v-6.75h-26.5zm0 13.547v6.703h26.5v-6.703h-26.5zm0 13.453V81h26.5v-3.375h-26.5z"/>
        <g fill="#C00">
            <path d="M87.812 65.43V70h8.406c1.723 0 4.68-1.237 4.782-4.696v-1.767c0-2.954-2.468-4.695-4.782-4.695h-4.19V56.72h8.304v-4.595h-7.97c-2.056 0-4.807 1.666-4.807 4.772v1.59c0 3.105 2.725 4.696 4.807 4.696 5.784.025-1.388 0 3.96 0v2.221l-8.51.026zm-45.04-1.11s4.498-.379 4.498-6.084c0-5.706-5.45-6.236-5.45-6.236H32v18h4.936v-4.342L41.203 70h7.301l-5.732-5.68zm-1.903-3.686h-3.933v-4.115h3.959S42 56.923 42 58.564c0 1.64-1.13 2.07-1.13 2.07zm18.587-8.508h-5.013c-3.573 0-4.782 3.181-4.782 4.696V70h5.013v-3.156h4.705V70h4.859V56.822c0-3.837-3.548-4.696-4.782-4.696zm-.077 9.619h-4.73v-4.368s0-.984 1.568-.984h1.722c1.388 0 1.414.984 1.414.984v4.368h.026zM67 52h6v18h-6zM79.103 65.347V52H74v18h12v-4.653z"/>
            <path d="M2 70h20.127S18.28 52.395 31.02 45.266c2.777-1.354 11.618-6.413 26.09 4.319.458-.384.891-.69.891-.69s-13.248-13.261-28-11.78c-7.414.665-16.535 7.436-21.885 16.379C2.765 62.437 2 70 2 70z"/>
            <path d="M2 70h20.127S18.28 52.395 31.02 45.266c2.777-1.354 11.618-6.413 26.09 4.319.458-.384.891-.69.891-.69s-13.248-13.261-28-11.78c-7.414.665-16.535 7.436-21.885 16.379C2.765 62.437 2 70 2 70z"/>
            <path d="M2 70h20.127S18.28 51.91 31.02 44.584c2.777-1.392 11.618-6.59 26.09 4.437.458-.394.891-.709.891-.709S44.752 34.685 30 36.208c-7.44.682-16.56 7.64-21.91 16.83C2.738 62.228 2 70 2 70zm41.936-32.322l.102-1.759c-.23-.131-.866-.446-2.471-.919l-.102 1.733c.84.289 1.656.604 2.471.945z"/>
            <path d="M41.467 43.592l-.102 1.62c.844.026 1.688.129 2.533.309L44 43.927c-.87-.18-1.714-.283-2.533-.335zm-9.465-8.023h.256L31.747 34c-.794 0-1.612.051-2.456.154l.486 1.518a21.484 21.484 0 0 1 2.225-.103zm1.228 9.463l.589 1.775c.741-.36 1.483-.669 2.225-.9l-.563-1.698c-.87.258-1.611.54-2.25.823zM21.616 38.27l-1.15-1.775c-.64.335-1.306.695-1.996 1.106l1.177 1.8c.665-.411 1.304-.797 1.97-1.131zM26.86 49.84l1.228 1.852c.435-.643.947-1.235 1.51-1.826l-1.151-1.749a14.199 14.199 0 0 0-1.587 1.723zm-3.709 8.281l2.072 1.646c.103-1.003.282-2.006.537-3.009l-1.841-1.466c-.333.952-.563 1.903-.768 2.829zM11.947 45.907l-1.817-1.595a44.45 44.45 0 0 0-1.893 1.929l1.97 1.697a26.007 26.007 0 0 1 1.74-2.031zM4.22 57.402l-2.942-1.08C.793 57.428.256 58.713 0 59.408l2.942 1.08c.332-.874.87-2.135 1.279-3.086zm18.546 7.252a26.26 26.26 0 0 0 .307 3.24L26.144 69a34.151 34.151 0 0 1-.614-3.343l-2.763-1.003z"/>
        </g>
    </g>
</svg>
