<svg xmlns="http://www.w3.org/2000/svg" width="100" height="100" viewBox="0 0 100 100">
    <g fill="none" fill-rule="evenodd">
        <path fill="#F2F2F2" d="M100 50c0 27.614-22.386 50-50 50-16.855 0-31.763-8.34-40.82-21.12h-.002A49.867 49.867 0 0 1 3.47 68.337a49.473 49.473 0 0 1-1.9-5.861v-.002A50.07 50.07 0 0 1 0 50C0 22.386 22.386 0 50 0c15.465 0 29.29 7.02 38.46 18.049a49.89 49.89 0 0 1 7.97 13.363A49.881 49.881 0 0 1 100 50z"/>
        <path fill="#9B0A0E" d="M96.988 31.613l-.013.12c-.276 2.462-1.057 5.112-2.304 7.861l-.002.002L73.1 94.175 15.33 80.7a28.192 28.192 0 0 1-2.064-.482 24.353 24.353 0 0 1-3.7-1.31h-.001a49.481 49.481 0 0 1-7.623-16.345c.172-.713.447-1.815.811-3.17 1.403-5.224 4.129-14.177 7.405-18.885l.319 10.892 21.584 1.431L61.321 39l12.63-18.444-5.595-8.905c9.333 2.252 15.246 4.285 18.97 5.89.617.264 1.174.518 1.675.758 3.74 1.795 4.457 2.887 4.457 2.887 1.233 1.033 2.158 2.245 2.72 3.632.818 2.013 1.073 4.31.81 6.796z"/>
        <ellipse cx="40.531" cy="31.153" fill="#EF0E13" rx="14.482" ry="32.672" transform="rotate(-116.916 40.531 31.153)"/>
        <g fill="#F5655E">
            <path d="M58.873 72.793L72.748 95.01l-36.55-14.303c7.216-1.485 14.964-4.11 22.675-7.914zM9.427 40.884l.321 10.985-7.77 8.061C3.39 54.662 6.13 45.632 9.427 40.884z"/>
        </g>
        <g fill="#950C10">
            <path d="M10.487 51.042L3.853 67.939a48.56 48.56 0 0 1-1.904-5.804v-.002c.173-.709.448-1.804.812-3.148l7.726-7.943zM73.989 20.39L97.02 31.498c-.276 2.447-1.057 5.08-2.306 7.813l-.002.001c-.934 2.048-2.132 4.153-3.575 6.276L73.988 20.39z"/>
        </g>
        <g fill="#EF0E13">
            <path d="M94.15 38.72L72.874 94.038l5.45-35.085c5.1-4.46 9.256-9.191 12.301-13.832 1.423-2.166 2.604-4.313 3.525-6.401z"/>
            <path d="M73.715 19.42l16.91 25.7-29.37-7.006z"/>
        </g>
        <path fill="#F5655E" d="M86.408 17.429l-13.005 2.96-5.442-8.739c9.075 2.211 14.826 4.205 18.447 5.779z"/>
        <path fill="#950C10" d="M61.146 38.835L77.67 59.309c-4.97 4.411-10.866 8.552-17.528 12.059-.307.162-.612.32-.919.477l1.923-33.01z"/>
        <path fill="#EF0E13" d="M61.165 38.835l-2.004 33.01L32.04 52.61z"/>
        <path fill="#950C10" d="M32.039 53.398L59.223 72.73c-7.647 3.775-15.332 6.38-22.488 7.854l-4.696-27.185z"/>
        <path fill="#F5655E" d="M32.039 52.903l-18.6 27.68-2.76-29.127z"/>
    </g>
</svg>
