<svg xmlns="http://www.w3.org/2000/svg" width="98" height="100" viewBox="0 0 98 100">
    <g fill="none" fill-rule="evenodd">
        <path fill="#7CBE35" d="M13 1h63v30H13z"/>
        <path fill="#7CBE35" d="M18 5h63v30H18z"/>
        <path fill="#579E2E" d="M23 11h63v30H23z"/>
        <path fill="#7CBE35" d="M86 18v23H35v-3.082C35 26.918 43.742 18 54.527 18H86z"/>
        <path fill="#D8D8D8" d="M67 25c0 6.627-5.373 12-12.001 12-1.492 0-2.921-.273-4.239-.772C46.225 34.516 43 30.134 43 24.999 43 18.373 48.373 13 55 13c3.8 0 7.189 1.766 9.385 4.523A11.934 11.934 0 0 1 67 25z"/>
        <path fill="#FBCB99" d="M97 59.869l-22.347 22.69H37.541l-2.911 2.956 2.292 2.33-.336.343L25.937 99 2 74.694l10.65-10.812.335-.343 2.328 2.363 14.784-15.013h35.058l.011.471c.016.572-.019 1.157-.103 1.74l-.074.518-.338 2.37 6.413-6.512C72.614 47.9 74.694 47 76.767 47c1.445 0 2.796.436 3.892 1.247l-.696.71 1.912.257a8.702 8.702 0 0 1 4.832 2.318l.298.281.407-.023a8.698 8.698 0 0 1 6.745 2.604l.336.343-2.205 2.239 1.358.54a8.734 8.734 0 0 1 3.017 2.008l.337.345z"/>
        <path fill="#213847" d="M37 87.99l-.337.339-5.143 5.141L25.99 99 8.68 81.69 2 75.01l10.673-10.671.337-.339 2.332 2.332 19.36 19.358z"/>
        <circle cx="13.5" cy="75.5" r="2.5" fill="#563939"/>
        <path fill="#324A5E" d="M32 92.47L26.432 98 12.189 83.857 9 80.691l.688-.683c2.693-2.677 7.063-2.677 9.757-.002L32 92.47z"/>
        <path fill="#42647A" d="M29 94.848L25.949 98 12 83.593c2.478-1.13 5.478-.645 7.506 1.45L29 94.848z"/>
        <g fill="#EAA96E">
            <path d="M65.26 53.211l-.074.51-.39.818h-29.87c-1.919 0-3.82.363-5.605 1.07l-5.497 2.176 6.699-6.757H65.35l.011.465c.015.565-.019 1.142-.102 1.718zM96.987 59.889l-22.2 22.389h-36.87l-2.892 2.917 2.278 2.3-.334.338-23.78-23.984.334-.339 2.312 2.332 4.294-4.33 10.565 10.655a17.67 17.67 0 0 0 12.549 5.242h23.046c4.504 0 8.84-1.727 12.128-4.831l15.692-14.814a8.676 8.676 0 0 1 2.542 1.786l.336.339z"/>
            <path d="M94.496 54.826l-2.19 2.209s-4.858-.241-10.616 5.18c-5.756 5.423-8.146 9.314-8.146 9.314s-15.262.712-18.9-.658c-3.64-1.37-11.351-10.244-11.351-10.244l17.032-.329 4.525-4.239 6.371-6.425c1.54-1.553 3.606-2.443 5.665-2.443 1.436 0 2.779.43 3.868 1.23l-.693.7 1.9.255a8.67 8.67 0 0 1 4.801 2.288l.296.277.404-.023a8.67 8.67 0 0 1 6.7 2.569l.334.339z"/>
        </g>
        <g fill="#FBCB99">
            <path d="M86.681 51.227s-5.38-.278-8.024 1.51c-3.11 2.103-11.61 9.273-11.61 9.273s10.587-12.586 11.838-12.96c1.25-.375 7.796 2.178 7.796 2.178zM92.857 55.51s-2.97-1.333-5.905-.395c-2.936.937-15.022 11.848-15.022 11.848s9.564-13.544 14.512-14.482c4.947-.938 7.502 1.213 7.502 1.213l-1.087 1.817z"/>
        </g>
        <path fill="#3F2B3B" fill-rule="nonzero" d="M96.984 58.73a9.78 9.78 0 0 0-3.353-2.212l1.855-1.866-1.015-1.022a9.753 9.753 0 0 0-7.497-2.867 9.731 9.731 0 0 0-5.373-2.553l.06-.06c-3.065-3.084-8.317-2.818-11.708.593l-4.395 4.42c.09-.619.13-1.25.114-1.891l-.037-1.407H29.141l-14.433 14.52-2.334-2.349L0 74.484 25.364 100l12.374-12.448-2.3-2.314 1.963-1.975h37.227L98 59.75l-1.016-1.021zm-26.088 8.748L82.63 55.674a6.918 6.918 0 0 1 8.689-.915l-1.08 1.085c-.063-.001-.127-.005-.191-.005a9.716 9.716 0 0 0-6.936 2.89L72.219 69.688H57.56a10.52 10.52 0 0 1-7.51-3.13l-3.997-4.02h8.711c.187 0 .372-.004.557-.013h10.65l9.418-9.474a6.916 6.916 0 0 1 7.923-1.347 9.762 9.762 0 0 0-2.713 1.928L69.707 64.588h-6.282v2.89h7.471zm-6.96-9.401l.707.096 7.342-7.387c1.292-1.3 2.96-1.945 4.515-1.9a9.749 9.749 0 0 0-3.143 2.12l-8.576 8.628h-2.624a11.216 11.216 0 0 0 1.423-1.604c.222.028.354.046.357.047zm-30.26 29.475l-8.312 8.361L4.062 74.484l8.312-8.36.302.304-.007.008 20.73 20.853.007-.007.27.27zm39.762-7.179H36.211l-2.805 2.822L16.74 66.428l13.592-13.673h32.387a8.036 8.036 0 0 1-2.195 4.449 7.948 7.948 0 0 1-5.3 2.43h-9.797v.014h-6.307l8.9 8.953a13.365 13.365 0 0 0 9.542 3.976h15.848l11.734-11.804a6.87 6.87 0 0 1 4.905-2.044c1.365 0 2.669.394 3.785 1.128L73.438 80.373z"/>
        <path fill="#272727" fill-rule="nonzero" d="M14.81 64.35L12.46 62 0 74.46 25.54 100 38 87.54 14.81 64.35zm19.1 23.19l-8.37 8.37L4.09 74.46l8.37-8.37.305.306-.008.008L33.63 87.277l.007-.008.271.272z"/>
        <path fill="#3F2B3B" fill-rule="nonzero" d="M12.001 70a3.976 3.976 0 0 0-2.83 1.172A3.973 3.973 0 0 0 8 74c0 1.068.416 2.073 1.172 2.828A3.976 3.976 0 0 0 12 78a3.976 3.976 0 0 0 2.83-1.172 4.004 4.004 0 0 0 0-5.656A3.974 3.974 0 0 0 12 70zm.785 4.785c-.21.21-.489.325-.785.325-.297 0-.575-.116-.785-.325a1.103 1.103 0 0 1-.325-.785c0-.297.115-.575.325-.785.21-.21.489-.325.785-.325a1.112 1.112 0 0 1 .785 1.895zM55 39c7.168 0 13-5.832 13-13s-5.832-13-13-13-13 5.832-13 13 5.832 13 13 13zm0-23.125c5.583 0 10.125 4.542 10.125 10.125S60.583 36.125 55 36.125 44.875 31.583 44.875 26 49.417 15.875 55 15.875z"/>
        <path fill="#3F2B3B" d="M53.716 32.937c0 .042.02.063.063.063h1.831c.057 0 .085-.028.085-.084v-1.963c1.193-.395 2.067-.94 2.624-1.638.454-.57.681-1.132.681-1.684 0-1.075-.505-1.855-1.516-2.34a6.139 6.139 0 0 0-1.4-.47 48.418 48.418 0 0 1-1.4-.314A4.04 4.04 0 0 1 53.6 24.1c-.288-.167-.432-.432-.432-.794 0-.362.144-.606.432-.731.287-.125.634-.188 1.042-.188 1.386 0 2.53.432 3.432 1.295V21.28c-.337-.37-1.158-.641-2.464-.815v-2.402c0-.042-.028-.063-.084-.063h-1.832c-.056 0-.084.028-.084.084v2.36a5.79 5.79 0 0 0-1.316.705c-.442.31-.758.65-.947 1.019-.19.369-.284.828-.284 1.379 0 .55.144 1.02.431 1.41.51.69 1.341 1.164 2.495 1.42l1.41.314c.433.096.794.218 1.083.364.29.148.434.367.434.66 0 .521-.334.884-1.003 1.086-.276.084-.7.126-1.27.126-.8 0-1.524-.189-2.17-.565A3.705 3.705 0 0 1 51 26.796v2.82c.87.525 1.769.922 2.695 1.19l.02 2.131z"/>
        <path fill="#608637" fill-rule="nonzero" d="M17.691 37.2h5.03V42H88V9.34h-5.03V4.539h-5.69V0H12v32.66h5.691v4.54zm67.45 1.927H25.58V12.212h59.56v26.915zM80.11 9.34h-57.39v24.986h-2.17V7.411h59.56V9.34zM14.86 29.788V2.873h59.56v1.666H17.691v25.249H14.86z"/>
    </g>
</svg>
