<svg xmlns="http://www.w3.org/2000/svg" width="677" height="294" viewBox="0 0 677 294">
    <g fill="none" fill-rule="evenodd">
        <path fill="#BAE789" fill-rule="nonzero" stroke="#FFF" stroke-width="3" d="M195.376 98.121l95.46 95.46-95.46 95.46-95.46-95.46z"/>
        <path fill="#7CBE35" fill-rule="nonzero" stroke="#FFF" stroke-width="3" d="M99.376 3.121l95.46 95.46-95.46 95.46-95.46-95.46z"/>
        <path fill="#BAE789" fill-rule="nonzero" stroke="#FFF" stroke-width="3" d="M386.376 98.121l95.46 95.46-95.46 95.46-95.46-95.46z"/>
        <path fill="#7CBE35" fill-rule="nonzero" stroke="#FFF" stroke-width="3" d="M290.376 2.121l95.46 95.46-95.46 95.46-95.46-95.46z"/>
        <path fill="#BAE789" fill-rule="nonzero" stroke="#FFF" stroke-width="3" d="M578.376 98.121l95.46 95.46-95.46 95.46-95.46-95.46z"/>
        <path fill="#7CBE35" fill-rule="nonzero" stroke="#FFF" stroke-width="3" d="M482.376 3.121l95.46 95.46-95.46 95.46-95.46-95.46zM99 195.122l48.083 48.083L99 291.288l-48.084-48.083zM626 50.122l48.083 48.083L626 146.288l-48.084-48.083zM482 194.122l48.083 48.083L482 290.288l-48.084-48.083zM291 194.122l48.083 48.083L291 290.288l-48.084-48.083zM51 146.122l48.083 48.083L51 242.288 2.916 194.205z"/>
        <path fill="#272727" d="M184.043 147.764h2.885c-.009.255-.018.437-.027.547-.073 1.768-.16 3.03-.26 3.787-.1.756-.25 1.248-.451 1.476-.21.274-.529.433-.957.479-.465.045-1.03.05-1.695.013a2.95 2.95 0 0 0-.397-1.271c.438.045.943.068 1.518.068.228 0 .396-.059.506-.177.237-.247.41-1.504.52-3.774h-1.765l-.082.643-1.148-.178c.21-1.322.36-2.775.451-4.361h2.543v-1.873h-2.775v-1.163h4.006v4.211h-2.721l-.082.8c-.037.351-.06.609-.069.773zm4.827 1.394h1.75v-1.654h-1.75v1.654zm4.757-1.654h-1.763v1.654h1.763v-1.654zm2.065 6.18l-1.135.52c-.11-.302-.246-.62-.41-.958-.638.055-2.93.246-6.877.574l-.15-1.271a168.1 168.1 0 0 0 3.5-.219v-2.078h-2.94v-3.842h2.94v-1.299l-3.159.22-.164-1.231 1.19-.055a16.02 16.02 0 0 0 1.394-2.83l1.395.342c-.51.948-.98 1.759-1.408 2.433.61-.036 1.718-.1 3.322-.191-.3-.41-.588-.757-.861-1.04l1.066-.491c1.04 1.075 1.764 2.037 2.174 2.884l-1.162.547a8.546 8.546 0 0 0-.465-.82l-2.078.137v1.394h3.008v3.842h-3.008v1.996l1.613-.137c-.118-.191-.392-.565-.82-1.12l1.052-.48c.994 1.195 1.655 2.252 1.983 3.173zm2.789-9.147v-1.422h4.539c-.01.51-.025 1.085-.048 1.723a24.004 24.004 0 0 1-.198 2.215c.51.173 1.07.392 1.682.656.1-.656.157-1.192.17-1.606.014-.415.021-.732.021-.95h1.45c0 .355-.021.776-.062 1.264-.041.488-.126 1.11-.253 1.866.337.219.656.42.957.602v1.722a42.116 42.116 0 0 1-1.23-.806 19.903 19.903 0 0 1-1.135 3.554H202.8c.684-1.658 1.135-3.035 1.354-4.128-.62-.338-1.167-.57-1.64-.698-.238 1.194-.484 2.06-.74 2.598-.254.538-.546.952-.874 1.244-.328.292-.775.424-1.34.397-.629-.046-1.126-.335-1.49-.869-.365-.533-.47-1.296-.315-2.29.137-.71.358-1.276.663-1.695.306-.42.716-.722 1.23-.91.516-.186 1.097-.252 1.744-.197.091-.848.141-1.605.15-2.27h-3.062zm1.176 6.768c.383-.01.697-.315.943-.916.246-.602.442-1.313.588-2.133-.583-.055-1.02.032-1.313.26-.291.227-.473.444-.546.649a8.465 8.465 0 0 0-.192.608c-.082.438-.073.803.028 1.094.1.292.264.438.492.438z"/>
        <path fill="#FFF" d="M80.544 53.158v-3.062H79.15v-1.504h1.394v-1.914h1.409v1.914h3.267v-1.969h1.436v1.969h1.435v1.504h-1.435v2.27c-.018.892-.21 1.638-.574 2.235a4.446 4.446 0 0 1-1.395 1.442 7.605 7.605 0 0 1-1.675.827c-.551.187-1.082.33-1.593.43v-1.558a8.539 8.539 0 0 0 1.149-.266c.41-.123.804-.308 1.182-.554a3.751 3.751 0 0 0 1.012-.998c.296-.42.45-.939.458-1.559v-2.27h-3.267v3.063h-1.409zm10.2-.56v-1.49h6.015v1.49h-6.015zm14.164-4.73v-1.97h.943v1.97h-.943zm1.476 0v-1.97h.944v1.97h-.944zm-6.37-.985h1.462v1.804h5.852v1.49h-5.852v3.884c.027.428.173.777.438 1.045.264.27.72.417 1.367.445.82.009 1.55-.01 2.187-.055a19.955 19.955 0 0 0 1.86-.219v1.518c-.62.064-1.267.116-1.942.157a27.22 27.22 0 0 1-2.242.034c-.93-.045-1.672-.278-2.228-.697-.556-.42-.857-1.103-.903-2.05v-7.356zm10.8 1.681v-1.462h7.137c-.137.774-.4 1.604-.786 2.488a18.625 18.625 0 0 1-1.347 2.53c.474.665.916 1.225 1.326 1.68.41.457.884.917 1.422 1.382v1.859a24.75 24.75 0 0 1-.8-.636 15.26 15.26 0 0 1-1.278-1.19c-.456-.469-.975-1.104-1.559-1.906-.702.865-1.335 1.547-1.9 2.044-.565.496-1.09.895-1.572 1.196-.484.3-.866.515-1.149.642v-1.64c.702-.41 1.379-.916 2.03-1.518.652-.601 1.308-1.349 1.97-2.242.66-.893 1.218-1.969 1.674-3.227h-5.168z"/>
        <path fill="#272727" d="M376.043 147.764h2.885c-.009.255-.018.437-.027.547-.073 1.768-.16 3.03-.26 3.787-.1.756-.25 1.248-.451 1.476-.21.274-.529.433-.957.479-.465.045-1.03.05-1.695.013a2.95 2.95 0 0 0-.397-1.271c.438.045.943.068 1.518.068.228 0 .396-.059.506-.177.237-.247.41-1.504.52-3.774h-1.765l-.082.643-1.148-.178c.21-1.322.36-2.775.451-4.361h2.543v-1.873h-2.775v-1.163h4.006v4.211h-2.721l-.082.8c-.037.351-.06.609-.069.773zm4.827 1.394h1.75v-1.654h-1.75v1.654zm4.757-1.654h-1.763v1.654h1.763v-1.654zm2.065 6.18l-1.135.52c-.11-.302-.246-.62-.41-.958-.638.055-2.93.246-6.877.574l-.15-1.271a168.1 168.1 0 0 0 3.5-.219v-2.078h-2.94v-3.842h2.94v-1.299l-3.159.22-.164-1.231 1.19-.055a16.02 16.02 0 0 0 1.394-2.83l1.395.342c-.51.948-.98 1.759-1.408 2.433.61-.036 1.718-.1 3.322-.191-.3-.41-.588-.757-.861-1.04l1.066-.491c1.04 1.075 1.764 2.037 2.174 2.884l-1.162.547a8.546 8.546 0 0 0-.465-.82l-2.078.137v1.394h3.008v3.842h-3.008v1.996l1.613-.137c-.118-.191-.392-.565-.82-1.12l1.052-.48c.994 1.195 1.655 2.252 1.983 3.173zm2.789-9.147v-1.422h4.539c-.01.51-.025 1.085-.048 1.723a24.004 24.004 0 0 1-.198 2.215c.51.173 1.07.392 1.682.656.1-.656.157-1.192.17-1.606.014-.415.021-.732.021-.95h1.45c0 .355-.021.776-.062 1.264-.041.488-.126 1.11-.253 1.866.337.219.656.42.957.602v1.722a42.116 42.116 0 0 1-1.23-.806 19.903 19.903 0 0 1-1.135 3.554H394.8c.684-1.658 1.135-3.035 1.354-4.128-.62-.338-1.167-.57-1.64-.698-.238 1.194-.484 2.06-.74 2.598-.254.538-.546.952-.874 1.244-.328.292-.775.424-1.34.397-.629-.046-1.126-.335-1.49-.869-.365-.533-.47-1.296-.315-2.29.137-.71.358-1.276.663-1.695.306-.42.716-.722 1.23-.91.516-.186 1.097-.252 1.744-.197.091-.848.141-1.605.15-2.27h-3.062zm1.176 6.768c.383-.01.697-.315.943-.916.246-.602.442-1.313.588-2.133-.583-.055-1.02.032-1.313.26-.291.227-.473.444-.546.649a8.465 8.465 0 0 0-.192.608c-.082.438-.073.803.028 1.094.1.292.264.438.492.438z"/>
        <path fill="#FFF" d="M272.544 53.158v-3.062h-1.394v-1.504h1.394v-1.914h1.409v1.914h3.267v-1.969h1.436v1.969h1.435v1.504h-1.435v2.27c-.018.892-.21 1.638-.574 2.235a4.446 4.446 0 0 1-1.395 1.442 7.605 7.605 0 0 1-1.675.827c-.551.187-1.082.33-1.593.43v-1.558a8.539 8.539 0 0 0 1.149-.266c.41-.123.804-.308 1.182-.554a3.751 3.751 0 0 0 1.012-.998c.296-.42.45-.939.458-1.559v-2.27h-3.267v3.063h-1.409zm10.2-.56v-1.49h6.015v1.49h-6.015zm14.164-4.73v-1.97h.943v1.97h-.943zm1.476 0v-1.97h.944v1.97h-.944zm-6.37-.985h1.462v1.804h5.852v1.49h-5.852v3.884c.027.428.173.777.438 1.045.264.27.72.417 1.367.445.82.009 1.55-.01 2.187-.055a19.955 19.955 0 0 0 1.86-.219v1.518c-.62.064-1.267.116-1.942.157a27.22 27.22 0 0 1-2.242.034c-.93-.045-1.672-.278-2.228-.697-.556-.42-.857-1.103-.903-2.05v-7.356zm10.8 1.681v-1.462h7.137c-.137.774-.4 1.604-.786 2.488a18.625 18.625 0 0 1-1.347 2.53c.474.665.916 1.225 1.326 1.68.41.457.884.917 1.422 1.382v1.859a24.75 24.75 0 0 1-.8-.636 15.26 15.26 0 0 1-1.278-1.19c-.456-.469-.975-1.104-1.559-1.906-.702.865-1.335 1.547-1.9 2.044-.565.496-1.09.895-1.572 1.196-.484.3-.866.515-1.149.642v-1.64c.702-.41 1.379-.916 2.03-1.518.652-.601 1.308-1.349 1.97-2.242.66-.893 1.218-1.969 1.674-3.227h-5.168z"/>
        <path fill="#272727" d="M568.043 147.764h2.885c-.009.255-.018.437-.027.547-.073 1.768-.16 3.03-.26 3.787-.1.756-.25 1.248-.451 1.476-.21.274-.529.433-.957.479-.465.045-1.03.05-1.695.013a2.95 2.95 0 0 0-.397-1.271c.438.045.943.068 1.518.068.228 0 .396-.059.506-.177.237-.247.41-1.504.52-3.774h-1.765l-.082.643-1.148-.178c.21-1.322.36-2.775.451-4.361h2.543v-1.873h-2.775v-1.163h4.006v4.211h-2.721l-.082.8c-.037.351-.06.609-.069.773zm4.827 1.394h1.75v-1.654h-1.75v1.654zm4.757-1.654h-1.763v1.654h1.763v-1.654zm2.065 6.18l-1.135.52c-.11-.302-.246-.62-.41-.958-.638.055-2.93.246-6.877.574l-.15-1.271a168.1 168.1 0 0 0 3.5-.219v-2.078h-2.94v-3.842h2.94v-1.299l-3.159.22-.164-1.231 1.19-.055a16.02 16.02 0 0 0 1.394-2.83l1.395.342c-.51.948-.98 1.759-1.408 2.433.61-.036 1.718-.1 3.322-.191-.3-.41-.588-.757-.861-1.04l1.066-.491c1.04 1.075 1.764 2.037 2.174 2.884l-1.162.547a8.546 8.546 0 0 0-.465-.82l-2.078.137v1.394h3.008v3.842h-3.008v1.996l1.613-.137c-.118-.191-.392-.565-.82-1.12l1.052-.48c.994 1.195 1.655 2.252 1.983 3.173zm2.789-9.147v-1.422h4.539c-.01.51-.025 1.085-.048 1.723a24.004 24.004 0 0 1-.198 2.215c.51.173 1.07.392 1.682.656.1-.656.157-1.192.17-1.606.014-.415.021-.732.021-.95h1.45c0 .355-.021.776-.062 1.264-.041.488-.126 1.11-.253 1.866.337.219.656.42.957.602v1.722a42.116 42.116 0 0 1-1.23-.806 19.903 19.903 0 0 1-1.135 3.554H586.8c.684-1.658 1.135-3.035 1.354-4.128-.62-.338-1.167-.57-1.64-.698-.238 1.194-.484 2.06-.74 2.598-.254.538-.546.952-.874 1.244-.328.292-.775.424-1.34.397-.629-.046-1.126-.335-1.49-.869-.365-.533-.47-1.296-.315-2.29.137-.71.358-1.276.663-1.695.306-.42.716-.722 1.23-.91.516-.186 1.097-.252 1.744-.197.091-.848.141-1.605.15-2.27h-3.062zm1.176 6.768c.383-.01.697-.315.943-.916.246-.602.442-1.313.588-2.133-.583-.055-1.02.032-1.313.26-.291.227-.473.444-.546.649a8.465 8.465 0 0 0-.192.608c-.082.438-.073.803.028 1.094.1.292.264.438.492.438z"/>
        <path fill="#FFF" d="M464.544 53.158v-3.062h-1.394v-1.504h1.394v-1.914h1.409v1.914h3.267v-1.969h1.436v1.969h1.435v1.504h-1.435v2.27c-.018.892-.21 1.638-.574 2.235a4.446 4.446 0 0 1-1.395 1.442 7.605 7.605 0 0 1-1.675.827c-.551.187-1.082.33-1.593.43v-1.558a8.539 8.539 0 0 0 1.149-.266c.41-.123.804-.308 1.182-.554a3.751 3.751 0 0 0 1.012-.998c.296-.42.45-.939.458-1.559v-2.27h-3.267v3.063h-1.409zm10.2-.56v-1.49h6.015v1.49h-6.015zm14.164-4.73v-1.97h.943v1.97h-.943zm1.476 0v-1.97h.944v1.97h-.944zm-6.37-.985h1.462v1.804h5.852v1.49h-5.852v3.884c.027.428.173.777.438 1.045.264.27.72.417 1.367.445.82.009 1.55-.01 2.187-.055a19.955 19.955 0 0 0 1.86-.219v1.518c-.62.064-1.267.116-1.942.157a27.22 27.22 0 0 1-2.242.034c-.93-.045-1.672-.278-2.228-.697-.556-.42-.857-1.103-.903-2.05v-7.356zm10.8 1.681v-1.462h7.137c-.137.774-.4 1.604-.786 2.488a18.625 18.625 0 0 1-1.347 2.53c.474.665.916 1.225 1.326 1.68.41.457.884.917 1.422 1.382v1.859a24.75 24.75 0 0 1-.8-.636 15.26 15.26 0 0 1-1.278-1.19c-.456-.469-.975-1.104-1.559-1.906-.702.865-1.335 1.547-1.9 2.044-.565.496-1.09.895-1.572 1.196-.484.3-.866.515-1.149.642v-1.64c.702-.41 1.379-.916 2.03-1.518.652-.601 1.308-1.349 1.97-2.242.66-.893 1.218-1.969 1.674-3.227h-5.168zM81.319 231.432v-6.659h1.558v6.727c0 .82.171 1.417.513 1.791.342.374.873.56 1.593.56s1.25-.186 1.593-.56c.341-.374.512-.97.512-1.791v-6.727h1.504v6.659c0 2.47-1.212 3.705-3.636 3.705-2.425 0-3.637-1.235-3.637-3.705zM91.108 235v-10.227h1.668V235h-1.668zm9.926-10.227l-4.84 10.788H94.73l4.826-10.788h1.477zm1.668 6.659v-6.659h1.558v6.727c0 .82.171 1.417.513 1.791.342.374.873.56 1.593.56s1.25-.186 1.593-.56c.341-.374.512-.97.512-1.791v-6.727h1.504v6.659c0 2.47-1.212 3.705-3.637 3.705-2.424 0-3.636-1.235-3.636-3.705zm10.855-6.659l2.092 3.993h.027l2.092-3.993h1.723l-2.871 5.045 2.94 5.182h-1.806l-2.132-4.129h-.028L113.461 235h-1.75l2.94-5.182-2.871-5.045h1.777zM86.521 245.18v-2.133h.875v2.133h-.875zm1.367 0v-2.133h.875v2.133h-.875zm-7.752 2.83v-1.408h8.258v1.408H85.55c-.11 1.12-.341 1.98-.697 2.577-.355.597-.777 1.073-1.265 1.429a5.786 5.786 0 0 1-1.524.806 6.56 6.56 0 0 1-1.545.342v-1.463a4.382 4.382 0 0 0 1.524-.403 3.628 3.628 0 0 0 1.327-1.06c.378-.474.603-1.217.676-2.228h-3.91zm.383-3.528v-1.435h5.482v1.435H80.52zm18.143-.587v-1.97h.943v1.97h-.943zm1.476 0v-1.97h.944v1.97h-.944zm-8.326 5.263v-3.062h-1.395v-1.504h1.395v-1.914h1.408v1.914h3.268v-1.969h1.435v1.969h1.436v1.504h-1.436v2.27c-.018.892-.21 1.638-.574 2.235a4.446 4.446 0 0 1-1.394 1.442 7.605 7.605 0 0 1-1.675.827c-.552.187-1.083.33-1.593.43v-1.558a8.539 8.539 0 0 0 1.148-.266c.41-.123.805-.308 1.183-.554a3.751 3.751 0 0 0 1.012-.998c.296-.42.449-.939.458-1.559v-2.27H93.22v3.063h-1.408zm18.375-6.316c-.219.456-.6 1.062-1.142 1.818-.542.757-1.068 1.367-1.579 1.832v6.96h-1.476v-5.688c-1.067.847-2.461 1.627-4.184 2.338v-1.545c.802-.347 1.566-.74 2.29-1.183.725-.442 1.479-1.048 2.263-1.818a12.688 12.688 0 0 0 2.078-2.714h1.75zm1.969 1.832v-1.477h3.61v1.477h-3.61zm8.34.82c-.356 1.35-.907 2.536-1.655 3.562-.747 1.025-1.522 1.809-2.324 2.351-.802.543-1.558.928-2.27 1.155-.71.228-1.408.379-2.091.452v-1.545a7.737 7.737 0 0 0 1.736-.328c.602-.183 1.23-.518 1.887-1.005a8.97 8.97 0 0 0 1.818-1.846c.556-.743 1.016-1.675 1.381-2.796h1.518zM614.866 85.494c-.374 1.35-.932 2.534-1.675 3.555-.743 1.02-1.513 1.805-2.31 2.351-.798.547-1.552.935-2.263 1.162-.711.228-1.409.379-2.092.452v-1.49a11.864 11.864 0 0 0 1.736-.37c.602-.173 1.23-.508 1.887-1.005a9.287 9.287 0 0 0 1.818-1.859c.556-.743 1.017-1.675 1.381-2.796h1.518zm-8.34-.998v-1.463h3.35v1.463h-3.35zm0 3.322v-1.463h3.35v1.463h-3.35zm10.705-3.254v-1.462h7.137c-.137.774-.4 1.604-.786 2.488a18.625 18.625 0 0 1-1.347 2.53c.474.665.916 1.225 1.326 1.68.41.457.884.917 1.422 1.382v1.859c-.137-.1-.403-.312-.8-.636a15.26 15.26 0 0 1-1.278-1.19c-.456-.469-.975-1.104-1.559-1.906-.702.865-1.335 1.547-1.9 2.044-.565.496-1.09.895-1.572 1.196-.484.3-.866.515-1.149.642v-1.64c.702-.41 1.379-.916 2.03-1.518.652-.601 1.308-1.349 1.97-2.242.66-.893 1.218-1.969 1.674-3.227h-5.168zm9.762 3.446v-1.408h8.257v1.408h-2.843c-.11 1.12-.342 1.98-.698 2.577-.355.597-.777 1.073-1.264 1.429a5.786 5.786 0 0 1-1.525.806 6.56 6.56 0 0 1-1.545.342v-1.463a4.382 4.382 0 0 0 1.525-.403 3.628 3.628 0 0 0 1.326-1.06c.378-.474.604-1.217.677-2.228h-3.91zm.382-3.528v-1.435h7.506v1.435h-7.506zm14.096-1.544a56.728 56.728 0 0 1-.868 3.664 50.546 50.546 0 0 1-.875 2.919c-.26.76-.485 1.383-.677 1.866h5.237a24.491 24.491 0 0 0-.643-2.523 23.86 23.86 0 0 0-.725-2.016h1.532c.382.948.736 1.98 1.06 3.096.323 1.117.548 2.094.676 2.933h-8.805v-1.64c.356-.912.677-1.771.964-2.578.287-.806.577-1.722.868-2.748.292-1.025.534-2.016.725-2.974h1.531zm-38.021 23.51v-5.757h1.463v5.756h-1.463zm1.968 3.39a5.217 5.217 0 0 0 1.053-.37 3.653 3.653 0 0 0 1.06-.765c.332-.337.624-.78.875-1.326.25-.547.38-1.217.39-2.01v-4.676h1.462v4.676c-.009 1.094-.182 2.017-.52 2.769-.336.752-.78 1.36-1.332 1.825-.552.465-1.076.8-1.572 1.005a8.75 8.75 0 0 1-1.416.458v-1.586zm7.698-7.192v-1.503h6.617c-.018-.1-.027-.21-.027-.329 0-.419.145-.779.437-1.08a1.451 1.451 0 0 1 1.066-.437c.42 0 .777.148 1.074.444.296.296.444.654.444 1.073 0 .42-.148.775-.444 1.067a1.474 1.474 0 0 1-1.074.437c-.127 0-.25-.013-.369-.04v.546c-.018 1.294-.22 2.406-.608 3.336-.387.93-.845 1.693-1.374 2.29-.529.597-1.092 1.062-1.689 1.395a9.62 9.62 0 0 1-1.695.759c-.533.173-1.023.3-1.47.382v-1.49c.566-.11 1.13-.28 1.696-.513.565-.232 1.119-.59 1.66-1.073.543-.483 1.006-1.116 1.389-1.9.382-.784.601-1.905.656-3.364h-6.29zm8.777-1.832c0-.2-.066-.364-.198-.492a.672.672 0 0 0-.486-.191.65.65 0 0 0-.478.191.666.666 0 0 0-.191.492c0 .192.063.351.191.479a.65.65 0 0 0 .478.191.672.672 0 0 0 .486-.191.638.638 0 0 0 .198-.479zm9.98 3.856a12.312 12.312 0 0 1-1.77 3.035c-.715.893-1.438 1.58-2.167 2.058-.73.478-1.399.813-2.01 1.005-.61.191-1.24.305-1.886.341v-10.171h1.517v8.298a4.645 4.645 0 0 0 1.873-.902 9.61 9.61 0 0 0 1.552-1.552c.47-.588.91-1.292 1.32-2.112h1.572zm1.874 1.928v-1.49h6.015v1.49h-6.015zm8.326-4.034v-1.462h7.136c-.136.774-.398 1.604-.786 2.488a18.625 18.625 0 0 1-1.346 2.53c.474.665.916 1.225 1.326 1.68.41.457.884.917 1.422 1.382v1.859a24.75 24.75 0 0 1-.8-.636 15.26 15.26 0 0 1-1.278-1.19c-.456-.469-.976-1.104-1.559-1.906-.702.865-1.335 1.547-1.9 2.044-.566.496-1.09.895-1.573 1.196-.483.3-.866.515-1.148.642v-1.64c.702-.41 1.378-.916 2.03-1.518.652-.601 1.308-1.349 1.969-2.242.66-.893 1.219-1.969 1.675-3.227h-5.168zM467.539 220.527l-.076.342c-.05.228-.139.588-.266 1.08h4.594v1.75c-.1 1.14-.351 2.144-.752 3.015-.401.87-.885 1.586-1.45 2.146a8.556 8.556 0 0 1-1.736 1.354 12.71 12.71 0 0 1-1.668.82c-.52.205-.98.358-1.38.458v-1.531c.564-.173 1.116-.39 1.654-.65.537-.26 1.096-.642 1.674-1.148a6.792 6.792 0 0 0 1.463-1.825c.397-.711.636-1.695.718-2.953h-3.705c-.583.939-1.114 1.643-1.593 2.112-.478.47-.886.814-1.224 1.032v-1.886c.31-.283.618-.634.923-1.053.306-.42.575-.889.807-1.408.232-.52.403-1.071.513-1.655h1.504zm6.521 5.223v-1.436h8.203c0 .976-.16 1.878-.478 2.707-.32.83-.773 1.509-1.36 2.038a7.391 7.391 0 0 1-1.805 1.223c-.616.287-1.201.495-1.757.622-.556.128-1.071.228-1.545.301v-1.545a8.216 8.216 0 0 0 2.782-.813c.515-.251 1.016-.632 1.504-1.142.488-.51.813-1.162.978-1.955h-6.522zm.383-3.295v-1.408h7.219v1.408h-7.22zm10.226 5.154v-5.25h3.24v-1.777h1.45v1.777h3.35v1.86c-.019 1.14-.183 2.142-.493 3.008-.31.865-.713 1.54-1.21 2.023a6.987 6.987 0 0 1-1.613 1.183 9.336 9.336 0 0 1-1.606.683 8.73 8.73 0 0 1-1.327.308v-1.436a7.542 7.542 0 0 0 1.566-.45c.515-.21 1.037-.53 1.565-.958.529-.428.935-1 1.217-1.716.283-.715.428-1.61.438-2.686v-.397h-5.127v3.828h-1.45zm13.973-5.03v-1.97h.943v1.97h-.943zm1.477 0v-1.97h.943v1.97h-.943zm-4.635 8.804v-10.801h1.531v3.719h5.715v1.49h-5.715v5.592h-1.531zm-36.203 8.097v-1.449h3.199v-1.504h1.477v1.504h3.35c-.056.192-.245.577-.568 1.156a9.196 9.196 0 0 1-1.094 1.565c-.406.465-.84.93-1.306 1.394.857.657 1.905 1.304 3.145 1.942v1.64c-1.395-.683-2.589-1.412-3.582-2.187v3.842h-1.395v-3.61c-.93.648-1.677 1.103-2.242 1.368-.565.264-1.066.469-1.504.615v-1.49c1.522-.666 2.741-1.386 3.657-2.16a13.797 13.797 0 0 0 2.4-2.626h-5.537zm18.525-2.638c-.219.456-.6 1.062-1.141 1.818-.543.757-1.07 1.367-1.58 1.832v6.96h-1.476v-5.688c-1.067.847-2.461 1.627-4.184 2.338v-1.545c.802-.347 1.566-.74 2.29-1.183.725-.442 1.48-1.048 2.263-1.818a12.688 12.688 0 0 0 2.078-2.714h1.75zm1.955 5.168v-1.408h8.258v1.408h-2.844c-.11 1.12-.341 1.98-.697 2.577-.355.597-.777 1.073-1.265 1.429a5.786 5.786 0 0 1-1.524.806 6.56 6.56 0 0 1-1.545.342v-1.463a4.382 4.382 0 0 0 1.524-.403 3.628 3.628 0 0 0 1.327-1.06c.378-.474.603-1.217.676-2.228h-3.91zm.383-3.528v-1.435h7.506v1.435h-7.506zm16.967.028c-.182.392-.506.909-.97 1.552-.466.642-.912 1.16-1.34 1.551v5.92h-1.259v-4.84c-.902.72-2.087 1.386-3.554 1.996v-1.326a15.35 15.35 0 0 0 1.948-.998c.615-.373 1.256-.888 1.92-1.545a10.817 10.817 0 0 0 1.765-2.31h1.49zm11.02-.533v-1.97h.943v1.97h-.944zm-9.065.67v-1.504h7.588v-1.135h.943v1.969h-.806v.847c-.019 1.294-.221 2.406-.609 3.336-.387.93-.845 1.693-1.374 2.29-.529.597-1.091 1.062-1.688 1.395a9.62 9.62 0 0 1-1.696.759c-.533.173-1.023.3-1.47.382v-1.49c.566-.11 1.13-.28 1.696-.513.565-.232 1.119-.59 1.661-1.073s1.005-1.116 1.388-1.9c.383-.784.601-1.905.656-3.364h-6.29zm-24.548 14.126h-2.693v.944h2.693v-.944zm-2.693 2.858h2.693v-1.012h-2.693v1.012zm3.91.957h-3.91v7.52h-1.285v-12.292h5.195v4.772zm-.342 3.172h1.668v-1.326h-1.668v1.326zm4.566 1.08h-1.736v3.008h-1.162v-3.008h-1.695a5.287 5.287 0 0 1-.533 1.764 3.705 3.705 0 0 1-1.3 1.462 3.594 3.594 0 0 0-.833-.765c.856-.52 1.367-1.34 1.531-2.461h-1.586v-1.08h1.64v-1.326h-1.394v-1.04h6.795v1.04h-1.463v1.326h1.736v1.08zm-1.9-5.182h2.775v-1.039h-2.775v1.04zm2.775-2.885h-2.775v.944h2.775v-.944zm1.286-.957v10.692c0 .364-.044.647-.13.847a.92.92 0 0 1-.472.465c-.392.183-1.126.265-2.201.246a3.494 3.494 0 0 0-.424-1.285c.474.01 1.025.014 1.654.014.192-.01.287-.11.287-.3v-5.88h-4.019v-4.799h5.305zm9.173 7.342v-1.846h-2.132v1.846h2.132zm2.803-1.846h-1.463v1.846h3.159v1.203h-3.159v1.928c0 .237.03.387.09.451.058.064.202.096.43.096h1.353c.2 0 .333-.103.397-.308.064-.205.11-.658.137-1.36.382.264.77.433 1.162.506-.055.902-.194 1.515-.417 1.839-.224.323-.609.485-1.156.485h-1.695c-.647 0-1.082-.118-1.306-.355-.223-.237-.335-.689-.335-1.354v-1.928h-2.228a4.361 4.361 0 0 1-1.08 2.202c-.574.638-1.481 1.17-2.72 1.6a3.182 3.182 0 0 0-.37-.54 3.803 3.803 0 0 0-.451-.486c1.832-.602 2.926-1.527 3.281-2.776h-2.98v-1.203h3.13v-1.846h-1.353v-.505c-.61.455-1.276.847-1.996 1.175-.164-.337-.424-.66-.78-.97.912-.383 1.778-.935 2.598-1.655-.328-.346-.838-.793-1.531-1.34l.807-.697c.601.41 1.116.82 1.545 1.23a9.524 9.524 0 0 0 1.12-1.599h-3.199v-1.135h3.829l.232-.04.848.396c-.51 1.476-1.377 2.78-2.598 3.91h5.865c-1.221-1.203-2.17-2.693-2.844-4.47l1.149-.329c.21.565.483 1.117.82 1.655.61-.538 1.108-1.04 1.49-1.504l.985.683a20.577 20.577 0 0 1-1.914 1.64c.11.165.364.475.765.93a13.553 13.553 0 0 0 1.805-1.667l.97.67c-.546.528-1.23 1.089-2.05 1.681a9.032 9.032 0 0 0 2.42 1.463c-.337.273-.634.647-.889 1.121a9.072 9.072 0 0 1-1.873-1.148v.505zM278.8 222.018h-1.122v3.582h.834c1.04 0 1.794-.162 2.263-.486.47-.323.704-.813.704-1.47 0-.555-.207-.966-.622-1.23-.415-.264-1.1-.396-2.058-.396zm-1.122 4.785V231h-1.545v-10.227h2.516c1.522 0 2.627.228 3.315.684.689.456 1.033 1.14 1.033 2.05 0 .694-.18 1.281-.54 1.764-.36.484-.86.825-1.498 1.026v.027c.402.246.775.802 1.122 1.668L283.27 231h-1.6l-1.162-3.008c-.191-.501-.405-.825-.642-.97-.237-.146-.688-.22-1.354-.22h-.834zm9.776-3.227c1.175 0 1.982.21 2.42.63.437.418.656 1.189.656 2.31V231h-1.367l-.028-1.053h-.027c-.538.793-1.344 1.19-2.42 1.19-.638 0-1.16-.205-1.565-.616-.406-.41-.609-.952-.609-1.626 0-.82.312-1.457.937-1.908.624-.45 1.574-.676 2.85-.676h.766v-.288c0-.492-.116-.836-.349-1.032-.232-.196-.654-.294-1.264-.294-.73 0-1.568.178-2.516.533V224a8.092 8.092 0 0 1 2.516-.424zm1.613 3.76h-.766c-.765 0-1.342.128-1.73.383-.387.255-.58.601-.58 1.039 0 .346.102.631.307.854a.96.96 0 0 0 .732.335c.62 0 1.114-.193 1.483-.58.37-.388.554-.92.554-1.594v-.437zm3.91 3.664v-7.273h1.531V231h-1.53zm0-8.955V220.5h1.531v1.545h-1.53zm4.54 8.955v-10.5h1.53V231h-1.53zm6.767-6.303c-.976 0-1.463.283-1.463.848 0 .273.093.499.28.677.187.177.513.326.978.444 1.075.246 1.8.545 2.173.896.374.35.561.868.561 1.551 0 .63-.246 1.124-.738 1.484-.492.36-1.203.54-2.133.54-.857 0-1.65-.137-2.379-.41v-1.204c.73.329 1.477.493 2.242.493 1.021 0 1.531-.301 1.531-.903a.907.907 0 0 0-.307-.71c-.205-.183-.568-.342-1.087-.48-.957-.236-1.63-.535-2.017-.895a1.763 1.763 0 0 1-.58-1.346c0-.657.236-1.172.71-1.545.474-.374 1.171-.56 2.092-.56.802 0 1.595.118 2.379.355v1.19c-.775-.283-1.522-.425-2.242-.425zM277.357 238.4v-1.435h8.586v1.722c-.21.958-.538 1.776-.984 2.455-.447.679-.89 1.169-1.327 1.47-.437.3-.77.496-.998.587v-1.75c.374-.191.764-.595 1.17-1.21.405-.615.617-1.228.635-1.839h-7.082zm0 7.397a4.334 4.334 0 0 0 1.265-.697c.378-.301.713-.752 1.004-1.354.292-.601.443-1.413.452-2.434v-.93h1.435v1.013c-.018 1.066-.175 1.977-.471 2.734-.297.756-.684 1.349-1.163 1.777a7.469 7.469 0 0 1-1.367.998 5.416 5.416 0 0 1-1.155.492v-1.6zm11.443-7.178l.739 4.143h-1.122l-.697-4.143h1.08zm-.177 8.6v-1.285a4.71 4.71 0 0 0 2.276-1.087 5.832 5.832 0 0 0 1.504-1.949c.342-.729.6-1.433.772-2.112.173-.679.301-1.392.383-2.14h1.217c-.046.602-.13 1.215-.253 1.84a13.195 13.195 0 0 1-.588 2.023 8.207 8.207 0 0 1-1.162 2.092 7.34 7.34 0 0 1-1.839 1.715c-.72.474-1.49.775-2.31.903zm2.447-8.6l.752 4.143h-1.135l-.697-4.143h1.08zm5.892.027v-1.503h6.618c-.019-.1-.028-.21-.028-.329 0-.419.146-.779.438-1.08a1.451 1.451 0 0 1 1.066-.437c.42 0 .777.148 1.073.444.297.296.445.654.445 1.073 0 .42-.148.775-.445 1.067a1.474 1.474 0 0 1-1.073.437c-.127 0-.25-.013-.369-.04v.546c-.018 1.294-.221 2.406-.608 3.336-.388.93-.846 1.693-1.374 2.29-.529.597-1.092 1.062-1.689 1.395a9.62 9.62 0 0 1-1.695.759c-.533.173-1.023.3-1.47.382v-1.49c.565-.11 1.13-.28 1.695-.513.566-.232 1.12-.59 1.662-1.073.542-.483 1.004-1.116 1.387-1.9.383-.784.602-1.905.656-3.364h-6.289zm8.778-1.832c0-.2-.066-.364-.198-.492a.672.672 0 0 0-.486-.191.65.65 0 0 0-.478.191.666.666 0 0 0-.192.492c0 .192.064.351.192.479a.65.65 0 0 0 .478.191.672.672 0 0 0 .486-.191.638.638 0 0 0 .198-.479zm-27.043 16.452v-1.97h.943v1.97h-.943zm1.476 0v-1.97h.944v1.97h-.944zm-3.295-.739l-.075.342c-.05.228-.139.588-.266 1.08h4.593v1.75c-.1 1.14-.35 2.144-.752 3.015-.4.87-.884 1.586-1.449 2.146a8.556 8.556 0 0 1-1.736 1.354 12.71 12.71 0 0 1-1.668.82c-.52.205-.98.358-1.38.458v-1.531c.564-.173 1.116-.39 1.653-.65.538-.26 1.096-.642 1.675-1.148a6.792 6.792 0 0 0 1.463-1.825c.397-.711.636-1.695.718-2.953h-3.705c-.584.939-1.115 1.643-1.593 2.112-.479.47-.886.814-1.224 1.032v-1.886c.31-.283.618-.634.923-1.053.306-.42.574-.889.807-1.408.232-.52.403-1.071.513-1.655h1.503zm14.985 4.143a12.312 12.312 0 0 1-1.77 3.035c-.716.893-1.439 1.58-2.168 2.058-.729.478-1.399.813-2.01 1.005-.61.191-1.239.305-1.886.341v-10.171h1.517v8.298a4.645 4.645 0 0 0 1.873-.902 9.61 9.61 0 0 0 1.552-1.552c.47-.588.91-1.292 1.32-2.112h1.572zm1.873 1.928v-1.49h6.015v1.49h-6.015zm11.566-4.02v-1.969h.944v1.97h-.944zm1.477 0v-1.969h.943v1.97h-.943zm-4.635 8.805v-10.801h1.531v3.719h5.715v1.49h-5.715v5.592h-1.53zM25.205 184.797v-1.463h7.724v9.352h-7.724v-1.463h6.234v-6.426h-6.234zm10.09 3.8v-1.49h6.015v1.49h-6.016zm11.566-4.019v-1.969h.943v1.97h-.943zm1.476 0v-1.969h.944v1.97h-.944zm-4.634 8.805v-10.801h1.53v3.719h5.716v1.49h-5.715v5.592h-1.531zm15.75-8.586v-1.969h.943v1.969h-.943zm1.476 0v-1.969h.944v1.969h-.944zm-8.039 2.611c.41-.61 1.199-1.86 2.365-3.746.146-.219.292-.374.438-.465.146-.09.323-.15.533-.177.2.018.367.061.5.13.131.068.257.184.375.348.11.164.326.492.65.984.323.493.697 1.058 1.12 1.696.424.638.835 1.26 1.231 1.866.397.606.85 1.292 1.36 2.058v2.748l-5.195-7.875c-.036-.055-.068-.078-.096-.069-.027.01-.054.046-.082.11l-3.199 5.1v-2.708zm10.514 1.19v-1.49h6.015v1.49h-6.015zm8.326-4.034v-1.462h7.137c-.137.774-.4 1.604-.786 2.488a18.625 18.625 0 0 1-1.347 2.53c.474.665.916 1.225 1.326 1.68.41.457.884.917 1.422 1.382v1.859a24.75 24.75 0 0 1-.8-.636 15.26 15.26 0 0 1-1.278-1.19c-.456-.469-.975-1.104-1.559-1.906-.702.865-1.335 1.547-1.9 2.044-.565.496-1.09.895-1.572 1.196-.484.3-.866.515-1.149.642v-1.64c.702-.41 1.379-.916 2.03-1.518.652-.601 1.308-1.349 1.97-2.242.66-.893 1.218-1.969 1.674-3.227H71.73zm-22.415 18.424h-2.707c.337 1.65.807 3.05 1.408 4.198.602-1.094 1.035-2.493 1.299-4.198zm2.434 0H50.64c-.374 2.279-.989 4.097-1.846 5.455.82 1.149 1.86 1.983 3.118 2.502-.42.392-.711.77-.875 1.135a7.995 7.995 0 0 1-3.077-2.516c-.93 1.076-2.192 1.942-3.787 2.598a4.246 4.246 0 0 0-.793-1.162c1.632-.592 2.908-1.454 3.828-2.584-.574-1.02-1.057-2.274-1.449-3.76-.218.41-.496.811-.834 1.203a5.575 5.575 0 0 0-.765-.574v.479h-1.258v-.506H40.55v3.185c0 .22.037.358.11.417.073.06.246.09.52.09h1.722c.237 0 .392-.092.465-.274.073-.183.123-.606.15-1.272.255.2.643.37 1.162.506-.073.903-.223 1.509-.451 1.819-.228.31-.633.464-1.217.464H41.03c-.675 0-1.133-.118-1.374-.355-.242-.237-.363-.697-.363-1.381v-4.375h3.61v-2.46h-3.61v-1.218h4.868v4.17c.975-1.294 1.681-3.067 2.119-5.318l1.353.246c-.146.693-.35 1.44-.615 2.242h4.73v1.244zm10.623 6.29h-6.125v1.34h6.125v-1.34zm-7.41 2.816v-3.828h8.75v3.787h-1.34v-.397h-6.125v.438H54.96zm3.636-6.905h-2.242c.337.465.565.875.684 1.23l-.465.124h2.023v-1.354zm3.596 0h-2.27v1.354h2.106l-.533-.096c.31-.492.542-.911.697-1.258zm.601 1.354h2.762v1.039h-12.51v-1.039h2.68a5.055 5.055 0 0 0-.643-1.176l.766-.178h-2.365v-.97h5.113v-.78h-3.855v-.957h3.855v-.752h-4.73v-.97h2.515c-.136-.347-.36-.743-.67-1.19l1.176-.314c.374.428.656.907.848 1.435l-.219.069h3.336l-.068-.014c.41-.71.67-1.217.779-1.517l1.353.26c-.21.391-.473.815-.793 1.27h2.612v.971h-4.813v.752h3.951v.957h-3.95v.78h5.236v.97h-2.407l.807.15c-.182.31-.437.712-.766 1.204z"/>
        <path fill="#272727" d="M146.195 202.313l2.141.64a32 32 0 0 1-1.203 3.11V217.5h-2.203v-7.484c-.198.27-.422.557-.672.859-.094-.302-.255-.73-.484-1.281a10.94 10.94 0 0 0-.61-1.281c.615-.72 1.19-1.615 1.727-2.688a19.978 19.978 0 0 0 1.304-3.313zm8.282 11.875h-2.547c.416.26.844.468 1.281.625.438-.167.86-.375 1.266-.625zm-4.672-3.875l1.047.562v-.578h1.64l-.156-.14h-2.578v.234l.047-.078zm1.453-1.797v.39h3.937v-.39h-3.937zm3.937-2.485h-3.937v.36h3.937v-.36zm0 1.61v-.391h-3.937v.39h3.937zm-1.609 3.765h.625c.135 0 .23-.028.281-.086.052-.057.094-.18.125-.367.23.125.563.245 1 .36a8.678 8.678 0 0 0-.36-.375l1.313-.657v-.125h-2.125c.24.282.38.464.422.547l-1.281.703zm-.937-.937v.562c0 .177.026.284.078.32.052.037.177.055.375.055h.343c-.145-.24-.411-.552-.796-.937zm3.593 2.39l1.375.75c-.437.677-1.062 1.287-1.875 1.828.927.136 1.959.23 3.094.282a6.956 6.956 0 0 0-1.203 1.812c-1.781-.146-3.292-.442-4.531-.89-1.157.406-2.615.724-4.375.953-.22-.532-.578-1.078-1.078-1.64a29.115 29.115 0 0 0 3.171-.47 6.766 6.766 0 0 1-.765-.609c-.48.208-.896.375-1.25.5a5.082 5.082 0 0 0-.578-.766 3.9 3.9 0 0 0-.672-.625c1.635-.427 2.875-.994 3.719-1.703-.198-.146-.329-.39-.391-.734-.438.562-.885 1.015-1.344 1.36l-1.36-1.079c.272-.156.527-.344.766-.562h-1.14v-2.36h1.39v-3.953h2.579l.093-.406h-3.453v-1.625h9.813v1.625h-3.985l-.187.406h3.297v3.953h1.28v2.36h-.983c.28.312.479.578.593.797l-1.468.765c-.115-.198-.38-.568-.797-1.11-.104.334-.271.563-.5.688-.23.125-.573.188-1.032.188h-1.015a4.085 4.085 0 0 1-.36.344h2.797l.375-.079zm11.99-2.656h-2.312v-1.969a12.316 12.316 0 0 1-2.812 2.328h6.844c-.146.76-.245 1.271-.297 1.532h3.797c-.032.385-.063.672-.094.86-.208 2.114-.542 3.4-1 3.858-.386.386-.943.61-1.672.672-.615.052-1.417.063-2.406.032a4.046 4.046 0 0 0-.735-2.125c.709.052 1.443.078 2.204.078.322 0 .552-.047.687-.14.188-.157.344-.59.469-1.298h-1.672c-.083.313-.14.537-.172.672l-2.11-.297c.147-.562.298-1.198.454-1.906h-1.188c-.27 1.208-.773 2.227-1.508 3.055-.734.828-1.893 1.502-3.476 2.023-.115-.312-.307-.67-.578-1.07a5.34 5.34 0 0 0-.781-.946c1.218-.322 2.114-.736 2.687-1.242a3.94 3.94 0 0 0 1.188-1.82h-1.75v-1.344c-.282.136-.646.287-1.094.453a8.55 8.55 0 0 0-1.5-1.843c1.594-.48 2.953-1.162 4.078-2.047h-3.469v-2.063h5.906v-.765a92.618 92.618 0 0 1-4.656.187c-.052-.573-.224-1.198-.515-1.875 4.322-.094 7.776-.39 10.359-.89l1.64 1.796c-1.5.271-3.005.474-4.515.61v.937h5.984v2.063h-3.578c1.167.833 2.552 1.463 4.156 1.89-.562.51-1.072 1.162-1.53 1.953-1.928-.656-3.605-1.744-5.032-3.265v1.906zm7.835-2.437v-2.36h1.969a21.758 21.758 0 0 0 .234-1.625h2.188a26.364 26.364 0 0 0-.266 1.625h1.985v2.36h-2.36c-.74 3.24-1.185 5.109-1.336 5.609l-.226.75h-2.266c.906-3.23 1.448-5.349 1.625-6.36h-1.547zm6.75-2.422a15.723 15.723 0 0 1 1.82-.078c.579.01 1.055.026 1.43.047.375.02.568.036.578.046v2.407a30.542 30.542 0 0 0-1.781-.078v3.109c.469.167.89.346 1.266.539.375.193.573.3.594.32v2.547l-.29-.203a13.264 13.264 0 0 0-.726-.469 5.308 5.308 0 0 0-.844-.422v1.016c0 .792-.133 1.388-.398 1.79-.266.4-.586.67-.961.812-.375.14-.755.21-1.14.21-.5.021-.993-.057-1.477-.234-.485-.177-.896-.495-1.235-.953-.338-.458-.508-1.104-.508-1.938.01-1.072.342-1.914.993-2.523.65-.61 1.55-.878 2.695-.805l-.016-5.14zm-.453 9.39a.41.41 0 0 0 .352-.234c.078-.146.117-.339.117-.578v-1.328c-.563-.084-.99-.016-1.281.203-.292.219-.453.52-.485.906-.01.386.102.662.336.828.235.167.555.235.961.203zm6.538-7.703v-2.453h9.672v2.453h-3.516v6.531h3.844v2.454H188.62v-2.453h3.891v-6.532h-3.61zm11.678-.172v-2.437h4.875v2.437h-4.875zm10.39.188c-.52 1.906-1.218 3.458-2.093 4.656-.875 1.198-1.784 2.123-2.727 2.774-.943.65-1.836 1.112-2.68 1.382-.843.271-1.533.43-2.07.477-.536.047-.81.065-.82.055v-2.547c.01.01.224.002.64-.024.417-.026.95-.132 1.602-.32.651-.188 1.336-.547 2.055-1.078.718-.531 1.382-1.206 1.992-2.024.61-.817 1.148-1.934 1.617-3.351h2.484zm9.538-.61v-2.25h1.078v2.25h-1.078zm1.687 0v-2.25h1.079v2.25h-1.079zm.938.61c-.52 1.906-1.219 3.458-2.094 4.656-.875 1.198-1.784 2.123-2.726 2.774-.943.65-1.836 1.112-2.68 1.382-.844.271-1.534.43-2.07.477-.537.047-.81.065-.82.055v-2.547c.01.01.223.002.64-.024.417-.026.95-.132 1.601-.32.652-.188 1.336-.547 2.055-1.078.719-.531 1.383-1.206 1.992-2.024.61-.817 1.149-1.934 1.618-3.351h2.484zm-10.39-.36v-2.453h4.577v2.453h-4.578zm0 3.797v-2.453h4.577v2.453h-4.578zm12.318-3.453v-2.453h9.281v2.453h-9.281zm-.297 6.531h9.906v2.454h-9.906v-2.453zm11.553-7.015v-2.39h10.563v2.39c-.25 1.156-.646 2.143-1.188 2.96-.541.819-1.073 1.41-1.593 1.774-.521.365-.94.63-1.258.797-.318.167-.482.245-.492.234v-2.687c.01.01.143-.068.398-.234.255-.167.542-.472.86-.914.317-.443.56-1.086.726-1.93h-8.016zm0 7.703c.01.01.18-.029.508-.117.328-.089.688-.287 1.078-.594.39-.307.74-.781 1.047-1.422.307-.64.466-1.513.477-2.617v-1.438h2.359v1.532c-.02 1.27-.23 2.346-.625 3.226-.396.88-.857 1.594-1.383 2.14-.526.548-1.052.964-1.578 1.25-.526.287-1.154.535-1.883.743v-2.703z"/>
        <path fill="#FFF" d="M58.413 118.172v-7.328h2.421v7.328h-2.421zm2.25 3.203a7.301 7.301 0 0 0 1.406-.46c.396-.183.768-.451 1.117-.806.349-.354.656-.82.922-1.398s.404-1.294.414-2.148v-5.72h2.422v5.72c-.01 1.302-.219 2.408-.625 3.32-.406.911-.943 1.648-1.61 2.21-.666.563-1.299.967-1.898 1.212-.599.244-1.102.414-1.508.507-.406.094-.62.141-.64.141v-2.578zm10.14-7.516v-2.5h9.485v2.5h-4.844l-.016 2h5.453v2.438h-5.453v.234c0 .146-.002.313-.008.5a17.41 17.41 0 0 0-.007.469c.02.438.096.77.226 1 .13.23.42.349.867.36.448.01.964.005 1.547-.016a858.307 858.307 0 0 0 2.14-.078v2.53l-.624.009c-.406.005-.925.01-1.555.015-.63.006-1.221.003-1.773-.007a4.182 4.182 0 0 1-1.602-.352c-.515-.224-.893-.607-1.133-1.148-.24-.542-.38-1.23-.422-2.063 0-.156-.002-.346-.007-.57a98.826 98.826 0 0 0-.024-.883h-2.719v-2.438h2.704v-2h-2.235zm12.64 4.485v-2.453h7.22v2.453h-7.22zm10.36 5.469v-13.094h2.469v4.219h6.562v2.453h-6.562v6.421h-2.469zm11.656-5.907v-2.437h4.188v-1.766h-3.75v-2.437h9.36v2.437h-3.126v1.766h3.578v2.437h-3.593c-.094 1.021-.386 1.88-.875 2.578-.49.698-1.029 1.266-1.617 1.704a7.726 7.726 0 0 1-1.75 1 10.61 10.61 0 0 1-2.024.609v-2.594c.02.01.208-.026.563-.11.354-.083.765-.239 1.234-.468.469-.23.885-.562 1.25-1 .365-.438.599-1.01.703-1.719h-4.14zm12.75.438v-2.453h7.22v2.453h-7.22zm15.297-7.219a75.812 75.812 0 0 1-1.086 4.68c-.37 1.37-.7 2.487-.992 3.351-.291.865-.484 1.406-.578 1.625h4.969a22.98 22.98 0 0 0-.64-2.398c-.282-.88-.626-1.81-1.032-2.79h2.562c.51 1.25.951 2.522 1.32 3.813a31.87 31.87 0 0 1 .852 3.828h-10.875v-2.328a79.91 79.91 0 0 0 1.125-2.984c.323-.917.651-1.958.985-3.125.333-1.167.625-2.39.875-3.672h2.515z"/>
        <path fill="#272727" d="M337.967 206.39h-1v3.298h.89c.75 0 1.324-.157 1.72-.47.396-.312.593-.744.593-1.296 0-.531-.169-.92-.507-1.164-.339-.245-.904-.367-1.696-.367zm-1 5.298V216h-2.672v-11.688h3.516c1.781 0 3.073.277 3.875.829.802.552 1.203 1.385 1.203 2.5 0 .708-.21 1.351-.633 1.93a3.307 3.307 0 0 1-1.648 1.21v.031c.562.313 1.016.948 1.36 1.907l1.234 3.281h-2.797l-1.11-3.172c-.145-.448-.325-.75-.539-.906-.213-.156-.544-.234-.992-.234h-.797zm7.782-4h2.515v4.828c0 .614.086 1.036.258 1.265.172.23.46.344.867.344.375 0 .716-.151 1.024-.453.307-.302.46-.63.46-.984v-5h2.594V216H350l-.032-1.063h-.031c-.687.813-1.526 1.22-2.516 1.22-.937 0-1.617-.261-2.039-.782-.422-.52-.632-1.417-.632-2.688v-5zm12.5-3.688v4.516h.03c.72-.667 1.516-1 2.391-1 .99 0 1.78.375 2.368 1.125.588.75.882 1.817.882 3.203 0 1.354-.304 2.411-.914 3.172-.609.76-1.388 1.14-2.336 1.14-1 0-1.849-.406-2.546-1.219h-.032l-.031 1.063h-2.39v-12h2.578zm3.14 7.844c0-1.604-.531-2.406-1.594-2.406-.427 0-.802.143-1.125.43-.322.286-.484.611-.484.976v1.984c0 .365.162.69.484.977.323.286.698.43 1.125.43.49 0 .878-.196 1.164-.587.287-.39.43-.992.43-1.804zm4.125 7.844v-1.954c.844 0 1.453-.12 1.828-.359.375-.24.672-.698.89-1.375L364 207.687h2.843l1.547 5.86h.031l1.72-5.86h2.718l-3.125 8.422c-.48 1.323-1.112 2.25-1.899 2.782-.786.53-1.893.797-3.32.797zm15.016-11.032c.74-.76 1.77-1.14 3.094-1.14 1.322 0 2.351.38 3.085 1.14.735.76 1.102 1.823 1.102 3.188 0 1.364-.367 2.424-1.102 3.18-.734.755-1.763 1.132-3.085 1.132-1.323 0-2.352-.377-3.086-1.133-.735-.755-1.102-1.815-1.102-3.18 0-1.364.365-2.426 1.094-3.187zm1.906 5.11c.26.395.656.593 1.188.593.53 0 .927-.198 1.187-.593.26-.396.39-1.037.39-1.922 0-.886-.13-1.526-.39-1.922-.26-.396-.656-.594-1.187-.594-.532 0-.928.198-1.188.594-.26.396-.39 1.036-.39 1.922 0 .885.13 1.526.39 1.922zm6.938-6.078h2.453l.03 1.046h.032c.698-.812 1.537-1.218 2.516-1.218.969 0 1.666.276 2.094.828.427.552.64 1.49.64 2.812V216h-2.515v-4.766c0-.645-.084-1.088-.25-1.328-.167-.24-.474-.36-.922-.36-.375 0-.722.155-1.04.462-.317.307-.476.633-.476.976V216h-2.562v-8.313zm18.296-1.297h-1v3.297h.891c.75 0 1.323-.157 1.719-.47.396-.312.594-.744.594-1.296 0-.531-.17-.92-.508-1.164-.339-.245-.904-.367-1.696-.367zm-1 5.297V216H403v-11.688h3.515c1.781 0 3.073.277 3.875.829.802.552 1.203 1.385 1.203 2.5 0 .708-.21 1.351-.633 1.93a3.307 3.307 0 0 1-1.648 1.21v.031c.563.313 1.016.948 1.36 1.907l1.234 3.281h-2.797l-1.11-3.172c-.145-.448-.325-.75-.539-.906-.213-.156-.544-.234-.992-.234h-.797zm11.266-4.172c1.396 0 2.383.252 2.961.757.578.506.867 1.336.867 2.493V216h-2.406l-.031-1.11h-.032c-.666.844-1.541 1.266-2.625 1.266-.74 0-1.346-.237-1.82-.71-.474-.475-.71-1.092-.71-1.852 0-1.938 1.437-2.906 4.312-2.906h.734v-.204c0-.406-.104-.7-.312-.882-.209-.183-.558-.274-1.047-.274-.917 0-1.985.177-3.203.531V208a11.86 11.86 0 0 1 3.312-.484zm1.25 4.672h-.734c-1.292 0-1.938.4-1.938 1.203 0 .291.084.518.25.68.167.16.396.242.688.242.51 0 .927-.162 1.25-.485.323-.323.484-.755.484-1.297v-.344zm5.016 3.812v-8.313h2.718V216h-2.718zm0-9.922V204h2.718v2.078h-2.718zm5.625 9.922v-12h2.718v12h-2.718zm11.593-6.234a9.123 9.123 0 0 0-2.78-.438c-.438 0-.746.052-.923.156a.523.523 0 0 0-.265.485c0 .406.323.672.968.797 1.209.208 2.058.53 2.547.968.49.438.735 1.068.735 1.891 0 .802-.3 1.424-.899 1.867-.599.443-1.471.664-2.617.664s-2.23-.156-3.25-.469v-1.953a7.875 7.875 0 0 0 2.938.547c.791 0 1.187-.229 1.187-.687a.603.603 0 0 0-.219-.492c-.146-.12-.416-.222-.812-.305-1.156-.208-1.982-.537-2.477-.984-.495-.448-.742-1.042-.742-1.782 0-.791.297-1.409.89-1.851.594-.443 1.49-.664 2.688-.664 1 0 2.01.12 3.031.359v1.89z"/>
        <path fill="#FFF" d="M262.702 116.063l.265 2.124a287.636 287.636 0 0 1-1.594.406v3.438c0 .542-.054.959-.164 1.25-.109.292-.315.526-.617.703-.479.282-1.343.422-2.593.422-.084-.635-.297-1.338-.641-2.11.375.011.849.016 1.422.016.114 0 .193-.02.234-.062.042-.042.063-.12.063-.234v-2.86l-1.36.328-.562-2.234a40.52 40.52 0 0 0 1.922-.375v-2.469h-1.72v-2.14h1.72v-2.954h2.297v2.954h1.468v2.14h-1.468v1.953l1.328-.296zm6.437 1.296h-3.297a9.48 9.48 0 0 0 1.594 2.344 8.347 8.347 0 0 0 1.703-2.344zm1.438-2.187l1.5.594c-.563 2.187-1.51 3.979-2.844 5.375a11.065 11.065 0 0 0 3.469 1.39c-.24.219-.503.529-.79.93a9.929 9.929 0 0 0-.68 1.07c-1.478-.427-2.765-1.041-3.858-1.844-1.125.74-2.464 1.334-4.016 1.782-.323-.823-.74-1.521-1.25-2.094 1.302-.281 2.48-.73 3.531-1.344-.781-.916-1.469-2.073-2.062-3.469l.734-.203h-1.016v-2.109h3v-1.64h-3.265v-2.126h3.265v-2.171h2.313v2.171h3.453v2.125h-3.453v1.641h1.578l.39-.078zm18.562-5.031v2.03h-3.828v-2.03h3.828zm-12.437-.829l2.078.782a15.7 15.7 0 0 1-1.625 2.172 13.619 13.619 0 0 1-1.89 1.796c-.365-.666-.761-1.25-1.188-1.75.5-.364.994-.83 1.484-1.398s.87-1.101 1.14-1.602zm8 5.485h-1.844v9.469h-2.172v-9.47h-1.969v-.546c-.146.302-.385.745-.718 1.328v5.547c.375-.98.614-2.651.718-5.016l1.828.266c-.166 2.667-.53 4.656-1.093 5.969a8.302 8.302 0 0 0-1.453-1.063v3.235h-2.125V118.5a9.41 9.41 0 0 1-.72.734 9.1 9.1 0 0 0-.546-1.101c-.26-.464-.484-.82-.672-1.07a11.234 11.234 0 0 0 1.734-1.922c.553-.76 1-1.542 1.344-2.344l1.703.578v-.719h1.969v-3.078h2.172v.766l1.422-.578c.458.854.77 1.578.937 2.171l-1.578.688c-.114-.48-.375-1.172-.781-2.078v2.11h1.844v2.14zm-1.813 1.672l1.656-.313c.323 1.75.526 3.339.61 4.766l-1.766.344c-.031-1.24-.198-2.839-.5-4.797zm6.5-1.735v2.063h-1.125v5.297c0 .552-.052.982-.156 1.289-.104.307-.307.55-.61.726-.447.26-1.27.391-2.468.391-.052-.667-.255-1.417-.61-2.25.365.02.823.031 1.375.031.167 0 .25-.078.25-.234v-5.25h-1.125v-2.063h4.47zm9.547-4.828v1.89h-7.36v-1.89h7.36zm5.063 5.063v-.656h-2.375v.656h2.375zm0 2.265v-.671h-2.375v.671h2.375zm0 2.266v-.672h-2.375v.672h2.375zm-8.344 2.36v.437h.719v-.438h-.72zm-1.813-5.704v.469c0 .48-.005.854-.015 1.125a8.59 8.59 0 0 0 .703-1.594h-.688zm3.063-2.172h-3.063v.625h3.063v-.625zm-1.063 3.235h.688c.166-.573.265-.927.297-1.063h-1.125l.468.11c-.104.354-.213.671-.328.953zm.532 1.844v-.454h-.72v.454h.72zm0 1.624v-.437h-.72v.438h.72zm9.578.516h-4.875l1.75 1.094c-.334.406-.756.82-1.266 1.242-.51.422-.995.758-1.453 1.008-.344-.365-.64-.651-.89-.86v.047h-3.563v.61h-1.578v-4.672a3.55 3.55 0 0 0-.164-.149 3.62 3.62 0 0 1-.18-.164c-.177 2.177-.547 3.844-1.11 5a7.012 7.012 0 0 0-.789-.648 5.734 5.734 0 0 0-.851-.54c.625-1.374.937-3.556.937-6.546v-4.188h7.032v3.72h-1.282l.922.234c-.208.375-.36.65-.453.828h.89v1.39h-1.218v.454h1.14v1.187h-1.14v.438h1.14v1.171h-1.14v.438h1.406v.578a7.177 7.177 0 0 0 1.813-1.672h-1.281v-8.61h1.89c.042-.322.068-.577.078-.765h-2.25v-1.937h6.703v1.937h-2.156l-.25.766h2.188v8.61zm-3 1.094l1.64-1.047c.938.875 1.61 1.583 2.016 2.125l-1.75 1.156c-.313-.479-.948-1.224-1.906-2.234zm10.203-10.656h-1.89v.578h1.89v-.578zm-1.89 2.703h1.89v-.594h-1.89v.594zm4.062 1.75h-4.063v8.422h-2.297V109.89h6.36v6.203zm3.093-1.719h1.97v-.625h-1.97v.625zm1.97-2.75h-1.97v.594h1.97v-.594zm-3.641 8.734v-1.468h-2.032v1.468h2.032zm5.984-10.468v11.937c0 .625-.07 1.112-.211 1.461-.14.349-.393.617-.758.805-.344.177-.76.291-1.25.344-.49.052-1.177.078-2.062.078-.084-.709-.328-1.464-.735-2.266h-3v.875h-2.14V117h6.359v5.203h1.031c.282 0 .422-.135.422-.406v-5.688h-4.172v-6.218h6.516z"/>
        <path fill="#272727" d="M554.522 202.39l2.203.688a29.554 29.554 0 0 1-1.469 3.203V217.5h-2.203v-7.766c-.146.177-.406.48-.781.907a11.392 11.392 0 0 0-.547-1.243 11.42 11.42 0 0 0-.672-1.21c.688-.698 1.341-1.566 1.961-2.602a17.644 17.644 0 0 0 1.508-3.195zm4.484 5.22h2.125a62.229 62.229 0 0 1-.093-1.97c-.094.011-.391.053-.891.126-.5.073-.88.125-1.14.156v1.687zm7.547 2.093h-2.969c.146 1.438.331 2.64.555 3.61.224.968.44 1.453.649 1.453.187 0 .296-.714.328-2.141.541.552 1.14.964 1.797 1.234-.136 1.26-.38 2.107-.735 2.54-.354.432-.9.648-1.64.648-.792 0-1.454-.583-1.985-1.75v1.969h-6.203v-2.032h6.172c-.563-1.25-.974-3.093-1.234-5.53h-2.282v2.577c.271-.041.68-.096 1.227-.164l1.195-.148.11 2.078c-2.313.333-4.105.583-5.375.75l-.438-2.14c.615-.063.953-.1 1.016-.11v-8.938l1.484.485c2.49-.334 4.51-.776 6.063-1.328l1.703 1.765c-.76.24-1.63.469-2.61.688-.01.531.006 1.328.047 2.39h3.125v2.094zm2.235-2.672v-2.453h9.609v11.438h-9.61v-2.453h7.063v-6.532h-7.062zm13.25-.203v-2.516h8.984a14.935 14.935 0 0 1-1.008 3.36 19.57 19.57 0 0 1-1.492 2.797c.469.614.935 1.177 1.398 1.687.464.51.865.904 1.204 1.18.338.276.513.42.523.43v2.984a26.394 26.394 0 0 1-1.531-1.188 18.52 18.52 0 0 1-1.469-1.398 19.648 19.648 0 0 1-1.516-1.805 16.654 16.654 0 0 1-1.945 2.04 14.97 14.97 0 0 1-1.836 1.398 13.5 13.5 0 0 1-1.36.773c-.343.162-.52.243-.53.243v-2.797a10.75 10.75 0 0 0 2.445-1.688 16.835 16.835 0 0 0 2.039-2.266c.635-.843 1.219-1.921 1.75-3.234h-5.656zm12.703 9.984V203.72h2.468v4.219h6.563v2.453h-6.563v6.422h-2.468z"/>
        <path fill="#FFF" d="M458.42 118.938h-3.625c.542.52 1.198.973 1.97 1.359a7.507 7.507 0 0 0 1.655-1.36zm-2.921-6.75l1.125-.266a142.26 142.26 0 0 1-3.204.203c.375.677.61 1.203.704 1.578l-.672.188h2.562c-.083-.448-.255-1.016-.515-1.704zm6.25 5.343l.234.125a9.397 9.397 0 0 1-2.766 3.578c1.47.417 3.13.698 4.985.844-.532.573-1.006 1.302-1.422 2.188-2.344-.271-4.344-.787-6-1.547-1.688.76-3.724 1.291-6.11 1.594-.114-.292-.31-.652-.586-1.079-.276-.427-.533-.76-.773-1 2.02-.166 3.719-.474 5.094-.921a11.46 11.46 0 0 1-2.125-2.079l.75-.296h-.797v-2.126h7.766l.39-.078 1.25.735v-1.578h-9.75v1.64h-2.187v-3.64h2.172a11.541 11.541 0 0 0-.579-1.375l1.297-.344c-.468.02-1.213.042-2.234.062-.031-.562-.198-1.218-.5-1.968 5-.125 9.036-.48 12.11-1.063l1.546 1.89a64.334 64.334 0 0 1-5.906.75c.323.667.526 1.272.61 1.813l-.985.235h2.344c.364-.875.625-1.61.78-2.204l2.5.547c0 .01-.317.563-.952 1.657h2.015v3.64h-2.171zm10.546-7.75v1.735h-5.203v-1.735h5.203zm.61 2.188v1.812h-6.703v-1.812h6.703zm-2.719 8.562h-1.25v1.36h1.25v-1.36zm2.031-1.797v4.97h-3.281v.577h-2v-5.547h5.281zm-5.218-.53v-1.735h5.265v1.734H467zm0-2.22v-1.718h5.265v1.718H467zm11.109 6.172h.875c.187 0 .312-.146.375-.437.062-.292.11-.906.14-1.844.25.198.584.39 1 .578.417.188.787.318 1.11.39-.115 1.303-.346 2.214-.695 2.735-.35.521-.914.781-1.696.781h-1.531c-.917 0-1.536-.218-1.86-.656-.322-.437-.484-1.255-.484-2.453v-3.031l-2.375.375-.39-2.25 2.765-.438v-2.937c-.354.073-.984.177-1.89.312-.094-.531-.339-1.187-.735-1.969 2.709-.479 4.828-1.088 6.36-1.828l1.906 1.891c-.927.385-2.02.74-3.281 1.063v3.109l3.343-.516.375 2.188-3.718.61v3.421c0 .406.02.659.062.758.042.099.156.148.344.148zm10.078-10.64h-1.953v.546h1.953v-.546zm-1.953 2.609h1.953v-.594h-1.953v.594zm4.125 1.625h-4.125v8.766h-2.266V109.89h6.39v5.859zm-.156 3.438h1.062v-.907h-1.062v.906zm4.64 1.874h-1.547v3.172h-2.03v-3.171h-1.126a6.518 6.518 0 0 1-.64 1.937 4.062 4.062 0 0 1-1.36 1.547 5.613 5.613 0 0 0-1.469-1.313c.75-.468 1.24-1.192 1.47-2.171h-1.376v-1.876h1.469v-.906h-1.266v-1.812h7.657v1.812h-1.329v.906h1.547v1.876zm-1.437-6.89h2.015v-.64h-2.015v.64zm2.015-2.656h-2.015v.546h2.015v-.546zm2.282-1.625v12.015c0 .584-.058 1.037-.172 1.36a1.436 1.436 0 0 1-.64.765c-.5.302-1.412.443-2.735.422a6.513 6.513 0 0 0-.25-1.156 6.997 6.997 0 0 0-.422-1.125c.406.02.943.031 1.61.031.218 0 .327-.11.327-.328v-6.078h-4.218v-5.906h6.5zm10.797 8.39v-1.484h-1.532v1.484h1.532zm3.656-1.484h-1.219v1.484h3.203v2.125h-3.203v1.25c0 .323.02.524.063.602.041.078.161.117.359.117h.89c.188 0 .31-.104.368-.313.057-.208.101-.666.133-1.374.541.406 1.24.703 2.093.89-.104 1.073-.33 1.815-.68 2.227-.348.411-.908.617-1.68.617h-1.562c-.958 0-1.601-.195-1.93-.586-.327-.39-.491-1.112-.491-2.164v-1.266h-1.735c-.469 1.99-1.922 3.38-4.36 4.172a6.93 6.93 0 0 0-.663-.969 6.612 6.612 0 0 0-.805-.875c1.698-.51 2.807-1.286 3.328-2.328h-2.89v-2.125h3.28v-1.484H503.5v-.484a11.96 11.96 0 0 1-1.985 1.203 6.52 6.52 0 0 0-.64-.907 8.07 8.07 0 0 0-.782-.843 9.448 9.448 0 0 0 2.344-1.422c-.281-.271-.74-.667-1.375-1.188l1.453-1.203c.459.313.89.64 1.297.984.313-.406.557-.76.734-1.062h-2.843v-1.984h3.984l.39-.079 1.563.704a11.624 11.624 0 0 1-2.281 4.078h4.984c-1.052-1.25-1.922-2.813-2.61-4.688l2.095-.594c.187.521.416 1.032.687 1.532.51-.49.886-.896 1.125-1.219l1.735 1.219a26.914 26.914 0 0 1-1.86 1.515c.209.271.38.474.516.61a16.273 16.273 0 0 0 1.531-1.516l1.688 1.172a22.584 22.584 0 0 1-1.907 1.547 9.858 9.858 0 0 0 2.219 1.25c-.26.229-.55.542-.867.937-.318.396-.57.756-.758 1.079a9.546 9.546 0 0 1-1.781-1.094v.453z"/>
        <path fill="#272727" d="M193.89 162.781h7.07V192h-7.07v-21.719h-.04l-7.695 5.586v-7.46z"/>
        <path fill="#FFF" d="M97.89 66.781h7.07V96h-7.07V74.281h-.04l-7.695 5.586v-7.46z"/>
        <path fill="#272727" d="M386.358 186.453v.078h11.055V192h-20v-5.469c5.26-4.036 8.724-7.044 10.39-9.023 1.667-1.98 2.5-3.906 2.5-5.781 0-2.448-1.367-3.672-4.101-3.672-2.188 0-4.922.742-8.203 2.226v-6.21c2.89-1.12 5.963-1.68 9.218-1.68 3.23 0 5.716.768 7.461 2.304 1.745 1.537 2.617 3.66 2.617 6.368 0 2.37-.742 4.622-2.226 6.757-1.485 2.136-4.388 5.013-8.711 8.633z"/>
        <path fill="#FFF" d="M290.358 90.453v.078h11.055V96h-20v-5.469c5.26-4.036 8.724-7.044 10.39-9.023 1.667-1.98 2.5-3.906 2.5-5.781 0-2.448-1.367-3.672-4.101-3.672-2.188 0-4.922.742-8.203 2.226v-6.21c2.89-1.12 5.963-1.68 9.218-1.68 3.23 0 5.716.768 7.461 2.304 1.745 1.537 2.617 3.66 2.617 6.368 0 2.37-.742 4.622-2.226 6.757-1.485 2.136-4.388 5.013-8.711 8.633z"/>
        <path fill="#272727" d="M578.514 192.39c-3.229 0-6.172-.507-8.828-1.523v-5.898c3.02 1.302 5.86 1.953 8.516 1.953 1.614 0 2.838-.32 3.672-.957.833-.638 1.25-1.53 1.25-2.676 0-1.25-.56-2.155-1.68-2.715-1.12-.56-3.177-.84-6.172-.84h-1.719v-5.351h1.719c2.708 0 4.642-.306 5.8-.918 1.16-.612 1.739-1.543 1.739-2.793 0-1.85-1.588-2.774-4.766-2.774-2.526 0-5.22.651-8.086 1.954v-5.938c2.735-1.016 5.769-1.523 9.102-1.523 3.203 0 5.716.657 7.54 1.972 1.822 1.315 2.733 3.015 2.733 5.098 0 1.927-.449 3.45-1.347 4.57-.899 1.12-2.39 1.992-4.473 2.617v.079c2.031.26 3.587.976 4.668 2.148 1.08 1.172 1.621 2.747 1.621 4.727 0 2.734-.99 4.882-2.969 6.445-1.979 1.562-4.752 2.344-8.32 2.344z"/>
        <path fill="#FFF" d="M482.514 96.39c-3.229 0-6.172-.507-8.828-1.523V88.97c3.02 1.302 5.86 1.953 8.516 1.953 1.614 0 2.838-.32 3.672-.957.833-.638 1.25-1.53 1.25-2.676 0-1.25-.56-2.155-1.68-2.715-1.12-.56-3.177-.84-6.172-.84h-1.719v-5.351h1.719c2.708 0 4.642-.306 5.8-.918 1.16-.612 1.739-1.543 1.739-2.793 0-1.85-1.588-2.774-4.766-2.774-2.526 0-5.22.651-8.086 1.954v-5.938c2.735-1.016 5.769-1.523 9.102-1.523 3.203 0 5.716.657 7.54 1.972 1.822 1.315 2.733 3.015 2.733 5.098 0 1.927-.449 3.45-1.347 4.57-.899 1.12-2.39 1.992-4.473 2.617v.079c2.031.26 3.587.976 4.668 2.148 1.08 1.172 1.621 2.747 1.621 4.727 0 2.734-.99 4.882-2.969 6.445-1.979 1.562-4.752 2.344-8.32 2.344z"/>
    </g>
</svg>
