<svg xmlns="http://www.w3.org/2000/svg" width="131" height="121" viewBox="0 0 131 121">
    <defs>
        <linearGradient id="a" x1="10.856%" x2="89.147%" y1="101.732%" y2="-1.736%">
            <stop offset="0%" stop-color="gray" stop-opacity=".25"/>
            <stop offset="54%" stop-color="gray" stop-opacity=".12"/>
            <stop offset="100%" stop-color="gray" stop-opacity=".1"/>
        </linearGradient>
        <linearGradient id="b" x1="49.997%" x2="49.997%" y1="100.025%" y2=".023%">
            <stop offset="0%" stop-color="gray" stop-opacity=".25"/>
            <stop offset="54%" stop-color="gray" stop-opacity=".12"/>
            <stop offset="100%" stop-color="gray" stop-opacity=".1"/>
        </linearGradient>
        <linearGradient id="c" x1="49.997%" x2="49.997%" y1="99.985%" y2=".023%">
            <stop offset="0%" stop-color="gray" stop-opacity=".25"/>
            <stop offset="54%" stop-color="gray" stop-opacity=".12"/>
            <stop offset="100%" stop-color="gray" stop-opacity=".1"/>
        </linearGradient>
        <linearGradient id="d" x1="50%" x2="50%" y1="100%" y2="0%">
            <stop offset="0%" stop-color="gray" stop-opacity=".25"/>
            <stop offset="54%" stop-color="gray" stop-opacity=".12"/>
            <stop offset="100%" stop-color="gray" stop-opacity=".1"/>
        </linearGradient>
    </defs>
    <g fill="none" fill-rule="evenodd">
        <path fill="url(#a)" d="M57.46.164L2.348.298a2.265 2.265 0 0 0-2.26 2.27L.34 105.58a2.262 2.262 0 0 0 2.271 2.258l55.111-.135a2.265 2.265 0 0 0 2.26-2.27L59.73 2.42A2.262 2.262 0 0 0 57.46.164z" opacity=".5" transform="translate(34 7)"/>
        <path fill="#FFF" d="M48.482 8.79l30.703-.075c7.533-.019 13.655 6.073 13.674 13.606l.188 77.325c.019 7.533-6.073 13.655-13.606 13.673l-30.703.075c-7.533.018-13.655-6.073-13.673-13.607l-.19-77.324C34.858 14.93 40.95 8.808 48.483 8.79z"/>
        <path fill="#7CBE35" d="M77.853 11.025c-.34 2.304-2.29 4.015-4.596 4.028l-19.914.048c-2.304-.004-4.26-1.704-4.61-4.004l-10.548.026a2.179 2.179 0 0 0-1.547.652c-.41.416-.64.98-.638 1.566l.229 95.451c.001.587.233 1.15.645 1.564.412.414.97.646 1.552.644l50.389-.123a2.179 2.179 0 0 0 1.547-.652c.41-.416.64-.98.638-1.566l-.229-95.451a2.225 2.225 0 0 0-.645-1.563 2.179 2.179 0 0 0-1.55-.645l-10.723.025z" opacity=".4"/>
        <path fill="#DBDBDB" d="M57.257 12.725l12.112-.182a.404.404 0 1 1 .012.808l-12.111.182a.404.404 0 1 1-.012-.808z"/>
        <circle cx="72.522" cy="12.817" r="1" fill="#DBDBDB" transform="rotate(-.86 72.522 12.817)"/>
        <path fill="url(#b)" d="M32.846 16.439C32.849 8.663 27.334 1.966 19.67.44 12.007-1.086 4.327 2.983 1.322 10.161c-3.005 7.179-.5 15.47 5.986 19.808l.01.073c.535.51 1.167.91 1.859 1.176l.022-.073c.767.66 4 1.705 7.712 1.695h.082c2.351 0 4.905-.413 7.15-1.622 0 0 .02-.043.05-.124a5.84 5.84 0 0 0 1.545-1.052l.027-.185a16.269 16.269 0 0 0 7.08-13.418z" opacity=".5" transform="translate(38 67)"/>
        <circle cx="55" cy="84" r="16" fill="#F5F5F5"/>
        <path fill="#FDA57D" d="M47.881 90s-3.694.297-2.716 6.9a5.32 5.32 0 0 0 1.757 1.1L49 91.1 47.881 90zM60.119 90s3.694.297 2.716 6.9a5.32 5.32 0 0 1-1.757 1.1L59 91.098 60.119 90z"/>
        <path fill="#333" d="M48.806 79.005S46.991 84.003 46 83.529c0 0 9.559 7.81 18 0 0 0-1.487-2.499-3.633-4.529l-11.56.005z"/>
        <circle cx="55" cy="79" r="7" fill="#333"/>
        <path fill="#000" d="M60.451 90H48.378l-1.127 4.947s-.661 2.29.163 3.298c.824 1.007 8.514 3.297 14.17.166a6.598 6.598 0 0 0 .162-4.121c-.651-2.309-.163-.167-.163-.167L60.451 90z" opacity=".1"/>
        <path fill="#000" d="M60.453 90H48.378l-1.127 4.947s-.661 2.29.163 3.298c.824 1.007 8.514 3.297 14.17.166a6.598 6.598 0 0 0 .162-4.121c-.651-2.309-.163-.167-.163-.167L60.453 90z" opacity=".1"/>
        <path fill="#7CBE35" d="M60.453 90H48.378l-1.127 4.947s-.661 2.29.163 3.298c.824 1.007 8.514 3.297 14.17.166a6.598 6.598 0 0 0 .162-4.121c-.651-2.309-.163-.167-.163-.167L60.453 90z"/>
        <path fill="#000" d="M52.003 86H57v4.467c0 .407-.175.796-.486 1.084a1.73 1.73 0 0 1-1.172.449h-1.684C52.742 92 52 91.314 52 90.467V86h.003z" opacity=".1"/>
        <path fill="#FDA57D" d="M52.003 86H57v4.467c0 .407-.175.796-.486 1.084a1.73 1.73 0 0 1-1.172.449h-1.684C52.742 92 52 91.314 52 90.467V86h.003z"/>
        <path fill="#000" d="M52 86.569a7.568 7.568 0 0 0 5 .013V86h-5v.569z" opacity=".1"/>
        <circle cx="55" cy="79" r="7" fill="#FDA57D"/>
        <path fill="#333" d="M48 77h13s-1.11-5.324-6.024-4.984C50.062 72.356 48 77 48 77z"/>
        <ellipse cx="47.5" cy="79.5" fill="#FDA57D" rx="1" ry="1.5"/>
        <ellipse cx="61.5" cy="79.5" fill="#FDA57D" rx="1" ry="1.5"/>
        <path fill="#000" d="M48 78h13s-1.11-5.324-6.024-4.984C50.062 73.356 48 78 48 78z" opacity=".1"/>
        <path fill="url(#c)" d="M.156 16.475C.153 8.7 5.668 2.002 13.33.476 20.994-1.05 28.675 3.02 31.68 10.198c3.005 7.178.5 15.469-5.986 19.807l-.01.073a5.615 5.615 0 0 1-1.86 1.19l-.02-.073c-.769.66-4 1.704-7.714 1.694h-.08c-2.352 0-4.906-.412-7.151-1.622 0 0-.02-.042-.05-.123a5.84 5.84 0 0 1-1.546-1.053 37.157 37.157 0 0 0-.026-.185 16.269 16.269 0 0 1-7.081-13.43z" opacity=".5" transform="translate(57 24)"/>
        <circle cx="74" cy="41" r="16" fill="#F5F5F5"/>
        <path fill="#BE7C5E" d="M66.881 47s-3.694.297-2.716 6.902A5.32 5.32 0 0 0 65.922 55L68 48.098 66.881 47zM79.119 47s3.694.297 2.716 6.902A5.32 5.32 0 0 1 80.078 55L78 48.098 79.119 47z"/>
        <path fill="#333" d="M68.006 35.008s-.285.838-.687 1.8c-.88 2.128.124 10.265 2.228 11.13 2.36.983 5.465 1.598 8.691.408 2.802-1.034 3.667-10.311 1.685-12.562a17.311 17.311 0 0 0-.73-.784l-11.187.008z"/>
        <circle cx="74" cy="34" r="7" fill="#333"/>
        <path fill="#000" d="M79.453 47H67.378l-1.127 4.947s-.661 2.29.163 3.298c.824 1.007 8.514 3.297 14.17.166a6.598 6.598 0 0 0 .162-4.121c-.651-2.309-.163-.167-.163-.167L79.453 47z" opacity=".1"/>
        <path fill="#000" d="M80.453 47H68.378l-1.127 4.947s-.661 2.29.163 3.298c.824 1.007 8.514 3.297 14.17.166a6.598 6.598 0 0 0 .162-4.121c-.651-2.309-.163-.167-.163-.167L80.453 47z" opacity=".1"/>
        <path fill="#F55F44" d="M79.451 47H67.378l-1.127 4.947s-.661 2.29.163 3.298c.824 1.007 8.514 3.297 14.17.166a6.598 6.598 0 0 0 .162-4.121c-.651-2.309-.163-.167-.163-.167L79.451 47z"/>
        <path fill="#000" d="M71.007 42H76v4.467c0 .847-.742 1.533-1.658 1.533h-1.684C71.742 48 71 47.314 71 46.467V42h.007z" opacity=".1"/>
        <path fill="#BE7C5E" d="M71.007 42H76v4.467c0 .847-.742 1.533-1.658 1.533h-1.684a1.73 1.73 0 0 1-1.172-.449A1.477 1.477 0 0 1 71 46.467V42h.007z"/>
        <path fill="#000" d="M71 42.569a7.568 7.568 0 0 0 5 .013V42h-5v.569z" opacity=".1"/>
        <circle cx="74" cy="36" r="7" fill="#BE7C5E"/>
        <path fill="#333" d="M67 33h13s-1.11-5.324-6.024-4.984C69.062 28.356 67 33 67 33z"/>
        <ellipse cx="67.5" cy="35.5" fill="#BE7C5E" rx="1" ry="1.5"/>
        <ellipse cx="80.5" cy="35.5" fill="#BE7C5E" rx="1" ry="1.5"/>
        <path fill="#000" d="M67 33h13s-1.11-5.324-6.024-4.984C69.062 28.356 67 33 67 33z" opacity=".1"/>
        <path fill="url(#d)" d="M0 .018v23.916h37.139s2.742 5.474 7.456 7.066c0 0-1.505-3.878.066-7.066H55V.018H0z" opacity=".5" transform="translate(1 26)"/>
        <path fill="#FFF" d="M3 28v22.105h37.143s0 4.421 4.457 5.895c0 0-1.486-2.947 0-5.895H55V28H3z"/>
        <path fill="#7CBE35" d="M7 32h30v3H7zM7 36h40v3H7zM7 40h36v3H7z"/>
        <path fill="url(#d)" d="M55 .018v23.916H17.863S15.12 29.408 10.405 31c0 0 1.505-3.878-.066-7.066H0V.018h55z" opacity=".5" transform="translate(72 71)"/>
        <path fill="#FFF" d="M126 73v22.105H88.857s0 4.421-4.457 5.895c0 0 1.486-2.947 0-5.895H74V73h52z"/>
        <path fill="#7CBE35" d="M80 77h30v3H80zM80 81h40v3H80zM80 85h36v3H80z"/>
        <g fill="#47E6B1" opacity=".5">
            <path d="M14.235 118h1v3h-1z"/>
            <path d="M16 119.235v.53h-3v-.53z"/>
        </g>
        <g fill="#47E6B1" opacity=".5">
            <path d="M105.235 32h1v3h-1z"/>
            <path d="M107 33.235v.53h-3v-.53z"/>
        </g>
        <g fill="#47E6B1" opacity=".5">
            <path d="M115.235 101h1v3h-1z"/>
            <path d="M117 102.235v.53h-3v-.53z"/>
        </g>
        <g fill="#47E6B1" opacity=".5">
            <path d="M83.235 0h1v3h-1z"/>
            <path d="M85 1.235v.53h-3v-.53z"/>
        </g>
        <path fill="#4D8AF0" d="M42.753 117.021c-.381-.114-.574-.4-.45-.666a.19.19 0 0 0 .018-.061c.012-.122-.098-.235-.27-.277-.172-.042-.365-.004-.475.094a.26.26 0 0 0-.045.054c-.17.254-.6.383-.998.3a.578.578 0 0 0-.092-.012c-.183-.008-.352.065-.415.18-.064.114-.007.243.14.316a.483.483 0 0 0 .081.03c.381.114.574.4.45.666a.19.19 0 0 0-.018.061c-.012.122.098.235.27.277.172.042.365.004.475-.094a.26.26 0 0 0 .045-.054c.17-.254.6-.383.998-.3.03.007.061.01.092.012.183.008.352-.065.415-.18.064-.114.007-.243-.14-.316a.483.483 0 0 0-.081-.03zM9.75 65.523a.82.82 0 0 1-.449-.993.412.412 0 0 0-.252-.504.415.415 0 0 0-.474.14.395.395 0 0 0-.045.08.826.826 0 0 1-.998.447.414.414 0 0 0-.507.25.41.41 0 0 0 .222.518.82.82 0 0 1 .45.993.394.394 0 0 0-.019.092.415.415 0 1 0 .791.204.826.826 0 0 1 .999-.448.414.414 0 0 0 .507-.25.41.41 0 0 0-.141-.473.398.398 0 0 0-.083-.056zM27.75 79.523a.82.82 0 0 1-.449-.993.412.412 0 0 0-.252-.504.415.415 0 0 0-.474.14.395.395 0 0 0-.045.08.826.826 0 0 1-.998.447.414.414 0 0 0-.507.25.41.41 0 0 0 .222.518.82.82 0 0 1 .45.993.394.394 0 0 0-.019.092.415.415 0 1 0 .791.204.826.826 0 0 1 .999-.448.414.414 0 0 0 .507-.25.41.41 0 0 0-.141-.473.398.398 0 0 0-.083-.056zM130.75 118.523a.82.82 0 0 1-.449-.993.412.412 0 0 0-.252-.504.415.415 0 0 0-.474.14.395.395 0 0 0-.045.08.826.826 0 0 1-.998.447.414.414 0 0 0-.507.25.41.41 0 0 0 .222.518.82.82 0 0 1 .45.993.394.394 0 0 0-.019.092.415.415 0 1 0 .791.204.826.826 0 0 1 .999-.448.414.414 0 0 0 .507-.25.41.41 0 0 0-.141-.473.398.398 0 0 0-.083-.056z" opacity=".5"/>
        <circle cx="1" cy="110" r="1" fill="#F55F44" opacity=".5"/>
        <circle cx="113" cy="11" r="1" fill="#4D8AF0" opacity=".5"/>
        <circle cx="18" cy="12" r="1" fill="#47E6B1" opacity=".5"/>
        <circle cx="114" cy="57" r="1" fill="#F55F44" opacity=".5"/>
    </g>
</svg>
