<?xml version="1.0" encoding="UTF-8"?>
<svg width="160px" height="115px" viewBox="0 0 160 115" version="1.1" xmlns="http://www.w3.org/2000/svg" xmlns:xlink="http://www.w3.org/1999/xlink">
    <!-- Generator: Sketch 52.3 (67297) - http://www.bohemiancoding.com/sketch -->
    <title>-g-undraw_savings_hjfl</title>
    <desc>Created with Sketch.</desc>
    <defs>
        <linearGradient x1="49.9959763%" y1="100.000857%" x2="49.9959763%" y2="0.0159995781%" id="linearGradient-1">
            <stop stop-color="#808080" stop-opacity="0.25" offset="0%"></stop>
            <stop stop-color="#808080" stop-opacity="0.12" offset="54%"></stop>
            <stop stop-color="#808080" stop-opacity="0.1" offset="100%"></stop>
        </linearGradient>
    </defs>
    <g id="Page-1" stroke="none" stroke-width="1" fill="none" fill-rule="evenodd">
        <g id="service" transform="translate(-1034.000000, -1540.000000)">
            <g id="strength" transform="translate(334.000000, 1333.000000)">
                <g id="-g-undraw_savings_hjfl" transform="translate(700.000000, 207.000000)">
                    <ellipse id="Oval" fill="#7CBE35" opacity="0.1" cx="80" cy="105.5" rx="80" ry="9.5"></ellipse>
                    <path d="M137,110 C137,110 140.943757,104.775035 140.624468,99.5909125 C140.47755,97.4174841 141.011601,95.2530613 142.146502,93.4223556 C142.692843,92.5583313 143.313208,91.7475703 144,91" id="Path" stroke="#535461" stroke-width="2"></path>
                    <path d="M144.099877,87.8390111 C143.791365,88.5227193 144.296067,91 144.296067,91 C144.296067,91 146.585945,89.511773 146.89296,88.8267372 C147.091999,88.3844507 147.00974,87.8816315 146.677168,87.5076865 C146.344597,87.1337416 145.812238,86.945482 145.280627,87.0138235 C144.749016,87.0821649 144.298916,87.3967247 144.099877,87.8390111 Z" id="Path" fill="#7CBE35"></path>
                    <path d="M140.034916,90.5348588 C140.195271,91.2307782 142.133015,93 142.133015,93 C142.133015,93 143.1431,90.7331446 142.982745,90.0359459 C142.821348,89.3396726 142.029274,88.8869169 141.213598,89.0246879 C140.397922,89.1624589 139.867525,89.8385854 140.028922,90.5348588 L140.034916,90.5348588 Z" id="Path" fill="#7CBE35"></path>
                    <path d="M137.310172,97.5448032 C137.762989,98.17869 140,99 140,99 C140,99 139.61486,96.1505571 139.162044,95.5166703 C138.709787,94.8834018 137.928604,94.8240492 137.417224,95.3841027 C136.905844,95.9441561 136.857915,96.9115347 137.310172,97.5448032 Z" id="Path" fill="#7CBE35"></path>
                    <path d="M137.210659,103.156082 C137.619534,103.819948 139.99997,105 139.99997,105 C139.99997,105 140.011172,102.327654 139.602297,101.669413 C139.193587,101.006037 138.326875,100.801066 137.666443,101.211598 C137.00601,101.622131 136.801949,102.492705 137.210659,103.156082 Z" id="Path" fill="#7CBE35"></path>
                    <path d="M145.172411,94.8900393 C144.489471,95.2061354 142,94.7402307 142,94.7402307 C142,94.7402307 143.464395,92.430182 144.15266,92.1140859 C144.83533,91.7972031 145.617022,92.1630787 145.898618,92.9312918 C146.180215,93.6995049 145.855081,94.5791489 145.172411,94.8960316 L145.172411,94.8900393 Z" id="Path" fill="#7CBE35"></path>
                    <path d="M144.549287,100.996985 C143.675421,101.070232 141,99.7846663 141,99.7846663 C141,99.7846663 143.396797,98.0790493 144.272246,98.0058019 C145.146562,97.9335638 145.917353,98.5442676 145.993856,99.3698471 C146.070358,100.195427 145.423603,100.923252 144.549287,100.99549 L144.549287,100.996985 Z" id="Path" fill="#7CBE35"></path>
                    <path d="M142.032336,107.965935 C141.338825,108.177543 139,107.334113 139,107.334113 C139,107.334113 140.678891,105.261557 141.372402,105.049949 C142.065326,104.838178 142.774782,105.319269 142.957017,106.124497 C143.139253,106.929724 142.725259,107.754164 142.032336,107.965935 Z" id="Path" fill="#7CBE35"></path>
                    <path d="M144.099877,87.8390111 C143.791365,88.5227193 144.296067,91 144.296067,91 C144.296067,91 146.585945,89.511773 146.89296,88.8267372 C147.091999,88.3844507 147.00974,87.8816315 146.677168,87.5076865 C146.344597,87.1337416 145.812238,86.945482 145.280627,87.0138235 C144.749016,87.0821649 144.298916,87.3967247 144.099877,87.8390111 Z" id="Path" fill="#000000" opacity="0.25"></path>
                    <path d="M140.034916,90.5348588 C140.195271,91.2307782 142.133015,93 142.133015,93 C142.133015,93 143.1431,90.7331446 142.982745,90.0359459 C142.821348,89.3396726 142.029274,88.8869169 141.213598,89.0246879 C140.397922,89.1624589 139.867525,89.8385854 140.028922,90.5348588 L140.034916,90.5348588 Z" id="Path" fill="#000000" opacity="0.25"></path>
                    <path d="M137.310172,97.5448032 C137.762989,98.17869 140,99 140,99 C140,99 139.61486,96.1505571 139.162044,95.5166703 C138.709787,94.8834018 137.928604,94.8240492 137.417224,95.3841027 C136.905844,95.9441561 136.857915,96.9115347 137.310172,97.5448032 Z" id="Path" fill="#000000" opacity="0.25"></path>
                    <path d="M137.210659,103.156082 C137.619534,103.819948 139.99997,105 139.99997,105 C139.99997,105 140.011172,102.327654 139.602297,101.669413 C139.193587,101.006037 138.326875,100.801066 137.666443,101.211598 C137.00601,101.622131 136.801949,102.492705 137.210659,103.156082 Z" id="Path" fill="#000000" opacity="0.25"></path>
                    <path d="M145.172411,94.8900393 C144.489471,95.2061354 142,94.7402307 142,94.7402307 C142,94.7402307 143.464395,92.430182 144.15266,92.1140859 C144.83533,91.7972031 145.617022,92.1630787 145.898618,92.9312918 C146.180215,93.6995049 145.855081,94.5791489 145.172411,94.8960316 L145.172411,94.8900393 Z" id="Path" fill="#000000" opacity="0.25"></path>
                    <path d="M144.549287,100.996985 C143.675421,101.070232 141,99.7846663 141,99.7846663 C141,99.7846663 143.396797,98.0790493 144.272246,98.0058019 C145.146562,97.9335638 145.917353,98.5442676 145.993856,99.3698471 C146.070358,100.195427 145.423603,100.923252 144.549287,100.99549 L144.549287,100.996985 Z" id="Path" fill="#000000" opacity="0.25"></path>
                    <path d="M142.032336,107.965935 C141.338825,108.177543 139,107.334113 139,107.334113 C139,107.334113 140.678891,105.261557 141.372402,105.049949 C142.065326,104.838178 142.774782,105.319269 142.957017,106.124497 C143.139253,106.929724 142.725259,107.754164 142.032336,107.965935 Z" id="Path" fill="#000000" opacity="0.25"></path>
                    <path d="M137,110 C137,110 143.133889,106.76143 145.01128,101.69109 C145.784031,99.5595853 147.229442,97.7348647 149.130947,96.4903283 C150.039617,95.9073652 150.999978,95.408506 152,95" id="Path" stroke="#535461" stroke-width="2"></path>
                    <path d="M152.324379,91.4527702 C151.697454,92.0699563 151,95 151,95 C151,95 153.902662,94.3541815 154.524885,93.738586 C154.927207,93.3407778 155.089858,92.7553509 154.951569,92.2028299 C154.813281,91.6503088 154.395061,91.2146348 153.854451,91.059922 C153.31384,90.9052091 152.73297,91.054962 152.330648,91.4527702 L152.324379,91.4527702 Z" id="Path" fill="#7CBE35"></path>
                    <path d="M148.023824,93.0054102 C147.840532,93.7001242 148.775023,96 148.775023,96 C148.775023,96 150.779221,94.2689936 150.962514,93.5742796 C151.146304,92.8796132 150.636438,92.1891291 149.823697,92.0320402 C149.010955,91.8749512 148.203107,92.3107439 148.019317,93.0054102 L148.023824,93.0054102 Z" id="Path" fill="#7CBE35"></path>
                    <path d="M142.076477,98.7058816 C142.327058,99.3958126 144.493752,101 144.493752,101 C144.493752,101 145.200479,98.6041527 144.943897,97.9142217 C144.7812,97.4680726 144.357025,97.1312586 143.831157,97.0306543 C143.305288,96.93005 142.757617,97.0809395 142.394446,97.4264843 C142.031275,97.772029 141.907778,98.2597326 142.070476,98.7058816 L142.076477,98.7058816 Z" id="Path" fill="#7CBE35"></path>
                    <path d="M139.01258,103.81324 C139.126323,104.686978 140.944715,107 140.944715,107 C140.944715,107 142.104595,104.250109 141.992349,103.377959 C141.919096,102.81324 141.56758,102.3329 141.070213,102.117878 C140.572847,101.902857 140.005191,101.98582 139.581077,102.335518 C139.156963,102.685216 138.940824,103.24852 139.014076,103.81324 L139.01258,103.81324 Z" id="Path" fill="#7CBE35"></path>
                    <path d="M150.37349,98.9994872 C149.497361,98.978576 147,97.4162119 147,97.4162119 C147,97.4162119 149.581027,95.9793149 150.455577,96.000226 C151.330907,96.0216741 152.022126,96.7104686 151.999458,97.5386917 C151.97679,98.3669148 151.248819,99.0209352 150.37349,98.9994872 Z" id="Path" fill="#7CBE35"></path>
                    <path d="M147.257563,104.918817 C146.569282,104.650062 145,102.44147 145,102.44147 C145,102.44147 147.42144,101.795859 148.109721,102.066115 C148.554682,102.240447 148.884632,102.673397 148.975283,103.201878 C149.065934,103.730358 148.903514,104.27408 148.549204,104.628229 C148.194894,104.982377 147.702524,105.093149 147.257563,104.918817 Z" id="Path" fill="#7CBE35"></path>
                    <path d="M142.140427,109.980566 C141.270648,109.848783 139,107.97986 139,107.97986 C139,107.97986 141.779476,106.879172 142.657206,107.010955 C143.527923,107.143285 144.119874,107.915331 143.979365,108.735366 C143.838856,109.555402 143.019095,110.112897 142.148377,109.980566 L142.140427,109.980566 Z" id="Path" fill="#7CBE35"></path>
                    <path d="M91.4702846,13.6785615 C83.5845361,13.4021857 76.0742314,10.8356337 68.903682,8.02725293 C61.7331326,5.21887213 54.6282502,2.10676589 46.9309374,0.627004 C41.9816452,-0.330234968 36.3200089,-0.465543935 32.3314533,2.21040681 C28.4956447,4.77839826 27.2536822,9.22344177 26.5870195,13.3489258 C26.0845243,16.4523953 25.7890229,19.7185235 27.1580368,22.6233479 C28.1130632,24.6385878 29.8075569,26.3371472 30.9795699,28.2688986 C35.0566332,34.9911632 32.1744235,43.2809967 27.7561774,49.8463605 C25.6833847,52.9253592 23.279402,55.8618517 21.6791261,59.1409349 C20.0788502,62.4200182 19.3408103,66.1741223 20.7398026,69.5179811 C22.1273746,72.8287324 25.4321371,75.3218721 29.0124154,77.072252 C36.2843203,80.6291504 44.8581447,81.6468466 53.2106998,82.2226295 C71.7088044,83.4994279 90.3054094,82.942358 108.85205,82.3924854 C115.717106,82.1880825 122.610712,81.9808007 129.362991,80.911284 C133.113147,80.3167883 136.984644,79.3725044 139.705541,77.0952833 C143.161623,74.2048534 144.018149,69.3092598 141.704102,65.6847069 C137.819757,59.6044401 127.080349,58.0944496 124.365162,51.5693906 C122.871952,47.9779452 124.406561,43.9776939 126.577854,40.6467902 C131.235927,33.4998857 139.044589,27.23105 139.457149,19.0635705 C139.742657,13.4496878 135.985364,7.83580513 130.178118,5.18144625 C124.093929,2.40041514 115.657149,2.75020322 111.168953,7.35502646 C106.555133,12.0980376 98.4324127,13.9218297 91.4702846,13.6785615 Z" id="Path" fill="#7CBE35" opacity="0.1"></path>
                    <path d="M85,45 L81,45 C81.0026212,44.7461584 81.0219498,44.4926198 81.0579011,44.2404979 C81.1833534,43.3433856 81.5693607,41.8878937 82.7659831,41.2051357 C83.8837957,40.5673656 85.3393647,41.5293134 84.7683957,42.5468346 L84.7539204,42.5746212 C84.540008,42.9424637 84.5335746,43.4002821 84.6043426,43.8197284 C84.6794212,44.2245714 84.8122226,44.6207265 85,45 Z" id="Path" fill="#7CBE35"></path>
                    <path d="M85,45 L81,45 C81.0026212,44.7880979 81.0219498,44.5764488 81.0579011,44.3659823 C82.1867911,44.0753179 83.3937673,43.9555037 84.5963008,44.0147321 C84.6739671,44.3529167 84.8094704,44.683626 85,45 Z" id="Path" fill="#000000" opacity="0.1"></path>
                    <path d="M86.8669118,49.3083054 C85.9638393,50.1187303 84.7009379,50.1310796 83.4086342,49.7837547 C80.7624217,49.0705808 78,46.8384391 78,46.8384391 C78.1880766,46.6084443 78.3901617,46.3928599 78.6048486,46.1931865 C79.694136,45.1620173 82.1905364,43.3389472 85.5326047,44.2450794 C86.3499403,44.4520173 87.0698951,44.9826635 87.5557671,45.7362612 C88.1088115,46.6285004 88.3972346,47.9359859 86.8669118,49.3083054 Z" id="Path" fill="#7CBE35"></path>
                    <path d="M86,47.5253947 C86,47.5253947 83.8970459,46.0719158 81,48" id="Path" fill="#000000" opacity="0.1"></path>
                    <path d="M28,62.3519698 C28,62.3519698 21.3760495,57.3843576 21.0429937,61.8880846 C20.709938,66.3918116 22.3766463,70.6183218 23.8060702,70.9888728 C25.2354941,71.3594238 28,62.3519698 28,62.3519698 Z" id="Path" fill="#7CBE35"></path>
                    <path d="M28,62.3519698 C28,62.3519698 21.3760495,57.3843576 21.0429937,61.8880846 C20.709938,66.3918116 22.3766463,70.6183218 23.8060702,70.9888728 C25.2354941,71.3594238 28,62.3519698 28,62.3519698 Z" id="Path" fill="#000000" opacity="0.2"></path>
                    <path d="M24,64 C24,64 24.1617932,68.664148 25.5348091,67.9194521 C26.9078251,67.1747562 24.8906049,64.2085149 24,64 Z" id="Path" fill="#000000" opacity="0.1"></path>
                    <path d="M44.8474437,98.4692679 C44.6881059,99.1159012 44.4423942,99.7397986 44.1164823,100.325284 C44.0331527,100.477717 43.9425135,100.634385 43.8431028,100.793875 C42.248145,103.354189 38.5611757,104.416987 38.5611757,103.85242 C38.5611757,103.287852 38.1971569,101.828445 37.2702978,102.251871 C36.3434388,102.675296 34.9312213,102.582143 34.9312213,102.582143 C32.380166,102.394424 32.8114333,99.9667834 33.6564247,97.9103459 C33.9374563,97.2343759 34.2586381,96.5746181 34.6183699,95.9343594 C34.937069,95.3697918 35.1753625,95 35.1753625,95 L44.9220018,96.5059841 C44.9220018,96.5059841 45.1398283,97.2483904 44.8474437,98.4692679 Z" id="Path" fill="#7CBE35"></path>
                    <path d="M84,49 C81.0644577,48.4041273 78,46.539123 78,46.539123 C78.2086404,46.3469572 78.4328209,46.1668316 78.6709811,46 C79.1183018,46.1960447 79.5676935,46.4045572 80.0191561,46.6255374 C81.4344117,47.3095953 82.7674546,48.1047183 84,49 Z" id="Path" fill="#000000" opacity="0.1"></path>
                    <path d="M44.8545738,99 C42.3078704,98.7358337 38.6194442,98.0101916 35,96.0794945 C35.3068996,95.427232 35.5363704,95 35.5363704,95 L44.9221481,96.7399103 C44.9221481,96.7399103 45.1361331,97.5894823 44.8545738,99 Z" id="Path" fill="#000000" opacity="0.1"></path>
                    <path d="M84.3688037,86.2785402 C84.3688037,86.2785402 84.1969271,89.3411725 82.4695675,92.8022193 C81.1394885,95.5242287 79.0878162,97.8284477 76.5383931,99.4634804 C76.5383931,99.4634804 75.0115561,100.706018 74.9155917,97.2664681 C74.9155917,97.2664681 74.2467053,96.5498952 69.6633298,99.6813185 C69.6633298,99.6813185 66.8975492,101.37243 67.658103,94.3170543 C67.658103,94.3170543 67.658103,94.3084554 67.658103,94.304156 C67.658103,94.2998565 67.5893524,94.3485835 67.4633096,94.4245402 L67.4547158,94.4245402 C67.1281503,94.6251806 66.4349147,95.0364934 65.6099071,95.4506725 C64.0988255,96.2102397 62.1408648,96.9827052 61.1697621,96.4954357 C60.9467454,98.2811675 60.3961029,100.010345 59.5455284,101.596001 C58.5830195,103.348738 57.0647764,105.062781 54.6871503,105.836679 C53.4647537,106.228867 52.1258083,105.902238 51.2209726,104.991123 L50.9488347,104.718826 C50.9488347,104.718826 48.8476435,106.151971 47.797764,105.673301 C46.7478846,105.19463 45.8870694,103.858938 47.3193742,101.373864 C47.3193742,101.373864 47.3952864,101.167491 47.4883862,100.865097 C47.7218519,100.098364 48.0613081,98.7153783 47.5113031,98.5075722 C47.5113031,98.5075722 25.2618795,99.6540888 22.3027377,79.8766785 C19.3435959,60.0992683 38.917474,52.8389523 44.4547645,53.6028189 C44.4547645,53.6028189 59.1602384,35.067946 79.4989672,47.0103489 C99.8376961,58.9527517 84.3688037,86.2785402 84.3688037,86.2785402 Z" id="Path" fill="#7CBE35"></path>
                    <path d="M45,54 C45,54 69.6050713,53.9064377 67.9169441,85" id="Path" stroke="#000000" opacity="0.1"></path>
                    <path d="M44,100.379384 C43.9175436,100.529573 43.8278541,100.683934 43.729485,100.841077 C42.1512397,103.363697 38.5029038,104.410848 38.5029038,103.854593 C38.5029038,103.298337 38.1426993,101.860415 37.2255522,102.277607 C36.3084051,102.694799 34.9109853,102.603017 34.9109853,102.603017 C32.3866609,102.418062 32.8134091,100.026162 33.6495464,98 C36.016191,99.1417151 40.2966931,100.842467 44,100.379384 Z" id="Path" fill="#000000" opacity="0.2"></path>
                    <path d="M60,101.711702 C59.0360881,103.418392 57.5156319,105.087403 55.1345401,105.84097 C53.9103616,106.222854 52.5694645,105.904806 51.6633098,105.017628 L51.3907752,104.752484 C51.3907752,104.752484 49.2865212,106.147979 48.2351114,105.681884 C47.1837015,105.215788 46.3216315,103.915188 47.7560242,101.4954 C47.7560242,101.4954 47.832047,101.294449 47.9252825,101 C49.8000338,101.643323 54.7659012,103.012303 60,101.711702 Z" id="Path" fill="#000000" opacity="0.2"></path>
                    <path d="M68,94 C76.5368615,89.5505059 78,86 78,86" id="Path" fill="#000000" opacity="0.1"></path>
                    <path d="M83,93 C81.6649194,95.7001491 79.6055319,97.9858631 77.046522,99.6077649 C77.046522,99.6077649 75.5139435,100.840323 75.4176183,97.4283966 C75.4176183,97.4283966 74.7462166,96.7175786 70.1456058,99.8238536 C70.1456058,99.8238536 67.3694247,101.501384 68.1328385,94.5026694 L70.4331439,93.2416781 C75.3903021,95.9669547 80.3704634,94.305062 83,93 Z" id="Path" fill="#000000" opacity="0.2"></path>
                    <path d="M47,56.7901101 C47,56.7901101 51.8592154,49.0389273 55.5264938,51.4730969 C59.1937722,53.9072664 54.8604954,63 54.8604954,63 C54.8604954,63 47.6659983,62.8509388 47,56.7901101 Z" id="Path" fill="#7CBE35"></path>
                    <path d="M47,56.7901101 C47,56.7901101 51.8592154,49.0389273 55.5264938,51.4730969 C59.1937722,53.9072664 54.8604954,63 54.8604954,63 C54.8604954,63 47.6659983,62.8509388 47,56.7901101 Z" id="Path" fill="#000000" opacity="0.2"></path>
                    <path d="M55,54 C55,54 48.3528285,56.967875 50.3870088,58.70313 C52.4211891,60.438385 55,54 55,54 Z" id="Path" fill="#000000" opacity="0.1"></path>
                    <path d="M72,45.3486808 C70.3229292,45.49685 68.6624399,45.8085773 67.0397683,46.2798758 L66.9942077,46.2938438 C64.6955996,46.9689602 62.0854154,48.1050181 60.2909138,50 C60.2909138,50 56.1272586,48.1376099 55,48.4480083 C55,48.4480083 58.380306,44.1101914 67.4703899,44 L67.4924354,44 C67.4924354,44 69.8439526,44.2110709 72,45.3486808 Z" id="Path"></path>
                    <ellipse id="Oval" fill="#000000" opacity="0.1" transform="translate(38.236536, 77.363914) rotate(-13.000000) translate(-38.236536, -77.363914) " cx="38.2365355" cy="77.3639144" rx="8.92911793" ry="7.39955121"></ellipse>
                    <ellipse id="Oval" fill="#7CBE35" transform="translate(38.236550, 77.077669) rotate(-13.000000) translate(-38.236550, -77.077669) " cx="38.2365495" cy="77.0776689" rx="8.92911793" ry="7.39955121"></ellipse>
                    <ellipse id="Oval" fill="#000000" opacity="0.2" transform="translate(38.236550, 77.077669) rotate(-13.000000) translate(-38.236550, -77.077669) " cx="38.2365495" cy="77.0776689" rx="8.92911793" ry="7.39955121"></ellipse>
                    <path d="M35,77 C35,77 35.0767289,79.6281381 35.7260611,78.8589947 C36.3753933,78.0898513 35.7638529,76.9972872 35,77 Z" id="Path" fill="#000000" opacity="0.1"></path>
                    <path d="M39,75.0000451 C39,75.0000451 39.0756681,77.6281255 39.7257254,76.8589975 C40.3757828,76.0898696 39.7635594,74.9918918 39,75.0000451 Z" id="Path" fill="#000000" opacity="0.1"></path>
                    <path d="M47,90.5283339 C47,90.5283339 48.8021978,91.8833665 51,90" id="Path" fill="#000000" opacity="0.1"></path>
                    <path d="M56,48.4480083 C57.0844821,48.1376099 61.0901379,50 61.0901379,50 C62.8165429,48.1050181 65.3319194,46.9689602 67.5390597,46.2938438 L68,44 C59.2463768,44.1101914 56,48.4480083 56,48.4480083 Z" id="Path" fill="#000000" opacity="0.15"></path>
                    <path d="M67.4562963,45 L67,47 C68.6356812,46.5865577 70.3094834,46.3130979 72,46.1831178 C69.8266667,45.1810756 67.4562963,45 67.4562963,45 Z" id="Path" fill="#000000" opacity="0.3"></path>
                    <polygon id="Path" fill="#000000" opacity="0.15" points="68.2211091 45 67.757424 47 67.8017889 46.9878214 68.242576 45"></polygon>
                    <g id="Group" opacity="0.1" transform="translate(22.000000, 54.000000)" fill="#FFFFFF">
                        <path d="M26.2348813,48.4554521 C26.2348813,48.4554521 26.3103958,48.2503014 26.4030079,47.9496986 C26.6352507,47.1875068 26.9729288,45.8127123 26.4258047,45.606137 C26.4258047,45.606137 26.17219,45.6189589 25.7134037,45.6175342 C25.6634435,46.1196242 25.5597905,46.6149113 25.4042216,47.0949041 C25.3116095,47.3955068 25.236095,47.6006575 25.236095,47.6006575 C23.8112929,50.0710137 24.6661741,51.4002192 25.7119789,51.8746301 L25.7675462,51.8945753 C25.3472296,51.1751233 25.3130343,50.0539178 26.2348813,48.4554521 Z" id="Path"></path>
                        <path d="M1.3492876,27.085589 C-1.59577836,7.42531507 18.503905,-0.564164384 24.01219,0.200876712 L22.3879156,0.118246575 C16.8796306,-0.64109589 -2.59313984,6.57621918 0.351926121,26.2364932 C1.27804749,32.4180822 4.10200528,36.5424658 7.53720317,39.2934795 C4.55936675,36.558137 2.18422164,32.6574247 1.3492876,27.085589 Z" id="Path"></path>
                        <path d="M46.4656464,41.4404384 C46.4656464,41.4404384 46.4656464,41.4318904 46.4656464,41.4276164 C46.4656464,41.4233425 46.3972559,41.4717808 46.2718734,41.5472877 L46.2633245,41.5472877 C46.0709763,41.6641096 45.7503958,41.8564384 45.3514512,42.0786849 C45.208971,45.3197808 46.0481794,46.022137 46.7078628,46.0833973 C46.3730343,45.3269041 46.1977836,43.937863 46.4656464,41.4404384 Z" id="Path"></path>
                        <path d="M53.6865435,44.3723836 C53.6865435,44.3723836 53.5155673,44.1914521 52.7604222,44.4151233 C52.9570449,45.8283836 53.5013193,45.9822466 53.8888654,45.8981918 C53.7560122,45.4004192 53.6880091,44.8875746 53.6865435,44.3723836 Z" id="Path"></path>
                    </g>
                    <path d="M48,99 C48,99 60.7282073,98.2385714 62,97" id="Path" fill="#000000" opacity="0.1"></path>
                    <circle id="Oval" fill="#FBD56F" cx="77.5" cy="95.5" r="5.5"></circle>
                    <circle id="Oval" fill="#000000" opacity="0.1" cx="77.5" cy="95.5" r="5.5"></circle>
                    <circle id="Oval" fill="#FBD56F" cx="78.5" cy="95.5" r="5.5"></circle>
                    <path d="M80.7424671,100.424294 L80.190642,100.123569 C80.190642,100.123569 79.932371,101.179571 80.01705,101.933463 C80.0334181,102.088631 80.1457687,102.217707 80.2993135,102.257747 C81.5694989,102.566787 87.612759,103.884712 91.7704994,102.027699 C91.8931843,101.973103 91.9770434,101.85856 91.9906648,101.726974 C92.0428836,101.264107 91.862235,100.30927 91.7902578,100.123569 C91.6392469,99.723064 80.7424671,100.424294 80.7424671,100.424294 Z" id="Path" fill="#FBD56F"></path>
                    <path d="M80.7424671,100.424294 L80.190642,100.123569 C80.190642,100.123569 79.932371,101.179571 80.01705,101.933463 C80.0334181,102.088631 80.1457687,102.217707 80.2993135,102.257747 C81.5694989,102.566787 87.612759,103.884712 91.7704994,102.027699 C91.8931843,101.973103 91.9770434,101.85856 91.9906648,101.726974 C92.0428836,101.264107 91.862235,100.30927 91.7902578,100.123569 C91.6392469,99.723064 80.7424671,100.424294 80.7424671,100.424294 Z" id="Path" fill="#000000" opacity="0.1"></path>
                    <ellipse id="Oval" fill="#FBD56F" cx="86" cy="100.5" rx="6" ry="1.5"></ellipse>
                    <path d="M82.7410839,98.4243061 L82.1906493,98.1235724 C82.1906493,98.1235724 81.9323684,99.1796051 82.0170507,99.9335182 C82.0331908,100.088494 82.1457663,100.217275 82.2993248,100.256426 C83.5695585,100.566861 89.613048,101.884823 93.7709462,100.027757 C93.8932596,99.9727097 93.976944,99.8584058 93.9911201,99.7270236 C94.0419294,99.2641431 93.8612739,98.309279 93.789294,98.1235724 C93.6326319,97.7230561 82.7410839,98.4243061 82.7410839,98.4243061 Z" id="Path" fill="#FBD56F"></path>
                    <path d="M82.7410839,98.4243061 L82.1906493,98.1235724 C82.1906493,98.1235724 81.9323684,99.1796051 82.0170507,99.9335182 C82.0331908,100.088494 82.1457663,100.217275 82.2993248,100.256426 C83.5695585,100.566861 89.613048,101.884823 93.7709462,100.027757 C93.8932596,99.9727097 93.976944,99.8584058 93.9911201,99.7270236 C94.0419294,99.2641431 93.8612739,98.309279 93.789294,98.1235724 C93.6326319,97.7230561 82.7410839,98.4243061 82.7410839,98.4243061 Z" id="Path" fill="#000000" opacity="0.1"></path>
                    <ellipse id="Oval" fill="#FBD56F" cx="88" cy="98.5" rx="6" ry="1.5"></ellipse>
                    <path d="M84.7424079,95.424294 L84.1906269,95.1235689 C84.1906269,95.1235689 83.9323764,96.1795714 84.0170487,96.9334629 C84.0334155,97.0886307 84.1457571,97.217707 84.2992896,97.2577471 C85.5693739,97.5667872 91.6135639,98.8847116 95.769562,97.0276993 C95.8922224,96.9728069 95.9763974,96.8585551 95.9911211,96.7269742 C96.0419245,96.264107 95.8612903,95.3092701 95.7893188,95.1235689 C95.6383199,94.723064 84.7424079,95.424294 84.7424079,95.424294 Z" id="Path" fill="#FBD56F"></path>
                    <path d="M84.7424079,95.424294 L84.1906269,95.1235689 C84.1906269,95.1235689 83.9323764,96.1795714 84.0170487,96.9334629 C84.0334155,97.0886307 84.1457571,97.217707 84.2992896,97.2577471 C85.5693739,97.5667872 91.6135639,98.8847116 95.769562,97.0276993 C95.8922224,96.9728069 95.9763974,96.8585551 95.9911211,96.7269742 C96.0419245,96.264107 95.8612903,95.3092701 95.7893188,95.1235689 C95.6383199,94.723064 84.7424079,95.424294 84.7424079,95.424294 Z" id="Path" fill="#000000" opacity="0.1"></path>
                    <ellipse id="Oval" fill="#FBD56F" cx="90" cy="95.5" rx="6" ry="1.5"></ellipse>
                    <path d="M82.7420836,93.4259659 L82.1902175,93.1239244 C82.1902175,93.1239244 81.9333386,94.1810695 82.0166125,94.9334021 C82.0333692,95.0883709 82.1455655,95.2172307 82.298897,95.2576117 C83.5691771,95.5665807 89.6128876,96.8842019 93.7695264,95.0290024 C93.8923919,94.9743458 93.976668,94.8600006 93.9911197,94.7283464 C94.0419309,94.2655857 93.8612689,93.3109685 93.7892863,93.1239244 C93.6396756,92.7221262 82.7420836,93.4259659 82.7420836,93.4259659 Z" id="Path" fill="#FBD56F"></path>
                    <path d="M82.7420836,93.4259659 L82.1902175,93.1239244 C82.1902175,93.1239244 81.9333386,94.1810695 82.0166125,94.9334021 C82.0333692,95.0883709 82.1455655,95.2172307 82.298897,95.2576117 C83.5691771,95.5665807 89.6128876,96.8842019 93.7695264,95.0290024 C93.8923919,94.9743458 93.976668,94.8600006 93.9911197,94.7283464 C94.0419309,94.2655857 93.8612689,93.3109685 93.7892863,93.1239244 C93.6396756,92.7221262 82.7420836,93.4259659 82.7420836,93.4259659 Z" id="Path" fill="#000000" opacity="0.1"></path>
                    <ellipse id="Oval" fill="#FBD56F" cx="88" cy="92.5" rx="6" ry="1.5"></ellipse>
                    <path d="M87.7410839,91.4264452 L87.1906493,91.12446 C87.1906493,91.12446 86.9323684,92.1814082 87.0170507,92.9336007 C87.0330279,93.0888685 87.1455476,93.2180805 87.2993248,93.25775 C88.5695585,93.5666614 94.613048,94.8840373 98.7695349,93.0291832 C98.8920252,92.9740925 98.9761231,92.8600064 98.9911201,92.7285832 C99.0419294,92.2659086 98.8612739,91.3100839 98.789294,91.12446 C98.6382774,90.7213513 87.7410839,91.4264452 87.7410839,91.4264452 Z" id="Path" fill="#FBD56F"></path>
                    <path d="M87.7410839,91.4264452 L87.1906493,91.12446 C87.1906493,91.12446 86.9323684,92.1814082 87.0170507,92.9336007 C87.0330279,93.0888685 87.1455476,93.2180805 87.2993248,93.25775 C88.5695585,93.5666614 94.613048,94.8840373 98.7695349,93.0291832 C98.8920252,92.9740925 98.9761231,92.8600064 98.9911201,92.7285832 C99.0419294,92.2659086 98.8612739,91.3100839 98.789294,91.12446 C98.6382774,90.7213513 87.7410839,91.4264452 87.7410839,91.4264452 Z" id="Path" fill="#000000" opacity="0.1"></path>
                    <ellipse id="Oval" fill="#FBD56F" cx="93" cy="90.5" rx="6" ry="1.5"></ellipse>
                    <path d="M84.7420836,89.4254866 L84.1902175,89.123389 C84.1902175,89.123389 83.9333386,90.1807309 84.0166125,90.9332035 C84.0333692,91.0882011 84.1455655,91.2170849 84.298897,91.2574735 C85.5691771,91.5665 91.6128876,92.8843665 95.7695264,91.0288216 C95.8923919,90.9741549 95.976668,90.8597884 95.9911197,90.7281097 C96.0419309,90.2652628 95.8612689,89.309082 95.7892863,89.123389 C95.6396756,88.7229017 84.7420836,89.4254866 84.7420836,89.4254866 Z" id="Path" fill="#FBD56F"></path>
                    <path d="M84.7420836,89.4254866 L84.1902175,89.123389 C84.1902175,89.123389 83.9333386,90.1807309 84.0166125,90.9332035 C84.0333692,91.0882011 84.1455655,91.2170849 84.298897,91.2574735 C85.5691771,91.5665 91.6128876,92.8843665 95.7695264,91.0288216 C95.8923919,90.9741549 95.976668,90.8597884 95.9911197,90.7281097 C96.0419309,90.2652628 95.8612689,89.309082 95.7892863,89.123389 C95.6396756,88.7229017 84.7420836,89.4254866 84.7420836,89.4254866 Z" id="Path" fill="#000000" opacity="0.1"></path>
                    <ellipse id="Oval" fill="#FBD56F" cx="90" cy="89.5" rx="6" ry="1.5"></ellipse>
                    <path d="M86.7410839,86.4254866 L86.1906493,86.123389 C86.1906493,86.123389 85.9323684,87.1807309 86.0170507,87.9332035 C86.0330279,88.0885291 86.1455476,88.2177892 86.2993248,88.2574735 C87.5695585,88.5665 93.613048,89.8843665 97.7709462,88.0288216 C97.8934469,87.9740017 97.9772196,87.8595855 97.9911201,87.7281097 C98.0419294,87.2652628 97.8612739,86.3104678 97.789294,86.123389 C97.6396887,85.7229017 86.7410839,86.4254866 86.7410839,86.4254866 Z" id="Path" fill="#FBD56F"></path>
                    <path d="M86.7410839,86.4254866 L86.1906493,86.123389 C86.1906493,86.123389 85.9323684,87.1807309 86.0170507,87.9332035 C86.0330279,88.0885291 86.1455476,88.2177892 86.2993248,88.2574735 C87.5695585,88.5665 93.613048,89.8843665 97.7709462,88.0288216 C97.8934469,87.9740017 97.9772196,87.8595855 97.9911201,87.7281097 C98.0419294,87.2652628 97.8612739,86.3104678 97.789294,86.123389 C97.6396887,85.7229017 86.7410839,86.4254866 86.7410839,86.4254866 Z" id="Path" fill="#000000" opacity="0.1"></path>
                    <ellipse id="Oval" fill="#FBD56F" cx="92" cy="86.5" rx="6" ry="1.5"></ellipse>
                    <path d="M87.7420836,83.4254866 L87.1902175,83.123389 C87.1902175,83.123389 86.9333386,84.1807309 87.0166125,84.9332035 C87.0333692,85.0882011 87.1455655,85.2170849 87.298897,85.2574735 C88.5691771,85.5665 94.6128876,86.8843665 98.7695264,85.0288216 C98.8923919,84.9741549 98.976668,84.8597884 98.9911197,84.7281097 C99.0419309,84.2652628 98.8612689,83.3104678 98.7892863,83.123389 C98.6382641,82.7229017 87.7420836,83.4254866 87.7420836,83.4254866 Z" id="Path" fill="#FBD56F"></path>
                    <path d="M87.7420836,83.4254866 L87.1902175,83.123389 C87.1902175,83.123389 86.9333386,84.1807309 87.0166125,84.9332035 C87.0333692,85.0882011 87.1455655,85.2170849 87.298897,85.2574735 C88.5691771,85.5665 94.6128876,86.8843665 98.7695264,85.0288216 C98.8923919,84.9741549 98.976668,84.8597884 98.9911197,84.7281097 C99.0419309,84.2652628 98.8612689,83.3104678 98.7892863,83.123389 C98.6382641,82.7229017 87.7420836,83.4254866 87.7420836,83.4254866 Z" id="Path" fill="#000000" opacity="0.1"></path>
                    <ellipse id="Oval" fill="#FBD56F" cx="93" cy="83.5" rx="6" ry="1.5"></ellipse>
                    <path d="M97.7424671,101.425487 L97.190642,101.123389 C97.190642,101.123389 96.932371,102.180731 97.01705,102.933204 C97.0334181,103.088365 97.1457687,103.217435 97.2993135,103.257474 C98.5694989,103.5665 104.612759,104.884367 108.770499,103.028822 C108.893024,102.973309 108.976689,102.858508 108.990665,102.726724 C109.042884,102.263877 108.862235,101.309082 108.790258,101.123389 C108.639247,100.722902 97.7424671,101.425487 97.7424671,101.425487 Z" id="Path" fill="#FBD56F"></path>
                    <path d="M97.7424671,101.425487 L97.190642,101.123389 C97.190642,101.123389 96.932371,102.180731 97.01705,102.933204 C97.0334181,103.088365 97.1457687,103.217435 97.2993135,103.257474 C98.5694989,103.5665 104.612759,104.884367 108.770499,103.028822 C108.893024,102.973309 108.976689,102.858508 108.990665,102.726724 C109.042884,102.263877 108.862235,101.309082 108.790258,101.123389 C108.639247,100.722902 97.7424671,101.425487 97.7424671,101.425487 Z" id="Path" fill="#000000" opacity="0.1"></path>
                    <ellipse id="Oval" fill="#FBD56F" cx="103" cy="100.5" rx="6" ry="1.5"></ellipse>
                    <path d="M99.7420836,98.4254866 L99.1902175,98.123389 C99.1902175,98.123389 98.9333386,99.1807309 99.0166125,99.9332035 C99.0333692,100.088201 99.1455655,100.217085 99.298897,100.257474 C100.569177,100.5665 106.612888,101.884367 110.769526,100.028822 C110.892392,99.9741549 110.976668,99.8597884 110.99112,99.7281097 C111.041931,99.2652628 110.861269,98.309082 110.789286,98.123389 C110.639676,97.7229017 99.7420836,98.4254866 99.7420836,98.4254866 Z" id="Path" fill="#FBD56F"></path>
                    <path d="M99.7420836,98.4254866 L99.1902175,98.123389 C99.1902175,98.123389 98.9333386,99.1807309 99.0166125,99.9332035 C99.0333692,100.088201 99.1455655,100.217085 99.298897,100.257474 C100.569177,100.5665 106.612888,101.884367 110.769526,100.028822 C110.892392,99.9741549 110.976668,99.8597884 110.99112,99.7281097 C111.041931,99.2652628 110.861269,98.309082 110.789286,98.123389 C110.639676,97.7229017 99.7420836,98.4254866 99.7420836,98.4254866 Z" id="Path" fill="#000000" opacity="0.1"></path>
                    <ellipse id="Oval" fill="#FBD56F" cx="105" cy="98.5" rx="6" ry="1.5"></ellipse>
                    <path d="M97.7410839,95.4214286 L97.1906493,95.1203589 C97.1906493,95.1203589 96.9323684,96.1775713 97.0170507,96.9323267 C97.0331908,97.0874755 97.1457663,97.2164001 97.2993248,97.2555951 C98.5695585,97.5663767 104.613048,98.8858111 108.770946,97.0266711 C108.893636,96.9720123 108.977498,96.8573376 108.99112,96.7256014 C109.041929,96.2622038 108.861274,95.3062729 108.789294,95.1203589 C108.639689,94.7277196 97.7410839,95.4214286 97.7410839,95.4214286 Z" id="Path" fill="#FBD56F"></path>
                    <path d="M97.7410839,95.4214286 L97.1906493,95.1203589 C97.1906493,95.1203589 96.9323684,96.1775713 97.0170507,96.9323267 C97.0331908,97.0874755 97.1457663,97.2164001 97.2993248,97.2555951 C98.5695585,97.5663767 104.613048,98.8858111 108.770946,97.0266711 C108.893636,96.9720123 108.977498,96.8573376 108.99112,96.7256014 C109.041929,96.2622038 108.861274,95.3062729 108.789294,95.1203589 C108.639689,94.7277196 97.7410839,95.4214286 97.7410839,95.4214286 Z" id="Path" fill="#000000" opacity="0.1"></path>
                    <ellipse id="Oval" fill="#FBD56F" cx="103" cy="95.5" rx="6" ry="1.5"></ellipse>
                    <path d="M102.742492,93.425333 L102.190648,93.1238377 C102.190648,93.1238377 101.932369,94.1825446 102.017051,94.9300305 C102.033028,95.0857608 102.145547,95.2153576 102.299323,95.2551452 C103.569551,95.5663661 109.613012,96.8862763 113.77089,95.0258977 C113.89358,94.9711616 113.977441,94.8563248 113.991063,94.7244024 C114.041872,94.2603498 113.862629,93.3030676 113.79065,93.1168908 C113.639634,92.7306434 102.742492,93.425333 102.742492,93.425333 Z" id="Path" fill="#FBD56F"></path>
                    <path d="M102.742492,93.425333 L102.190648,93.1238377 C102.190648,93.1238377 101.932369,94.1825446 102.017051,94.9300305 C102.033028,95.0857608 102.145547,95.2153576 102.299323,95.2551452 C103.569551,95.5663661 109.613012,96.8862763 113.77089,95.0258977 C113.89358,94.9711616 113.977441,94.8563248 113.991063,94.7244024 C114.041872,94.2603498 113.862629,93.3030676 113.79065,93.1168908 C113.639634,92.7306434 102.742492,93.425333 102.742492,93.425333 Z" id="Path" fill="#000000" opacity="0.1"></path>
                    <ellipse id="Oval" fill="#FBD56F" cx="108" cy="93.5" rx="6" ry="1.5"></ellipse>
                    <path d="M98.7410839,92.4243911 L98.1906493,92.1235972 C98.1906493,92.1235972 97.9323684,93.1798414 98.0170507,93.9339055 C98.0335834,94.0887463 98.1459927,94.2173628 98.2993248,94.2568778 C99.5695585,94.5673748 105.613048,95.8842147 109.770946,94.0281635 C109.893636,93.9735548 109.977498,93.8589851 109.99112,93.7273696 C110.041929,93.2643964 109.861274,92.3093409 109.789294,92.1235972 C109.639689,91.7230006 98.7410839,92.4243911 98.7410839,92.4243911 Z" id="Path" fill="#FBD56F"></path>
                    <path d="M98.7410839,92.4243911 L98.1906493,92.1235972 C98.1906493,92.1235972 97.9323684,93.1798414 98.0170507,93.9339055 C98.0335834,94.0887463 98.1459927,94.2173628 98.2993248,94.2568778 C99.5695585,94.5673748 105.613048,95.8842147 109.770946,94.0281635 C109.893636,93.9735548 109.977498,93.8589851 109.99112,93.7273696 C110.041929,93.2643964 109.861274,92.3093409 109.789294,92.1235972 C109.639689,91.7230006 98.7410839,92.4243911 98.7410839,92.4243911 Z" id="Path" fill="#000000" opacity="0.1"></path>
                    <ellipse id="Oval" fill="#FBD56F" cx="104" cy="91.5" rx="6" ry="1.5"></ellipse>
                    <path d="M101.742495,89.424294 L101.190649,89.1235689 C101.190649,89.1235689 100.932368,90.1795714 101.017051,90.9334629 C101.033419,91.0886307 101.145774,91.217707 101.299325,91.2577471 C102.569558,91.5667872 108.613048,92.8847116 112.769535,91.0276993 C112.89221,90.9728069 112.976395,90.8585551 112.99112,90.7269742 C113.041929,90.264107 112.861274,89.3092701 112.789294,89.1235689 C112.639689,88.723064 101.742495,89.424294 101.742495,89.424294 Z" id="Path" fill="#FBD56F"></path>
                    <path d="M101.742495,89.424294 L101.190649,89.1235689 C101.190649,89.1235689 100.932368,90.1795714 101.017051,90.9334629 C101.033419,91.0886307 101.145774,91.217707 101.299325,91.2577471 C102.569558,91.5667872 108.613048,92.8847116 112.769535,91.0276993 C112.89221,90.9728069 112.976395,90.8585551 112.99112,90.7269742 C113.041929,90.264107 112.861274,89.3092701 112.789294,89.1235689 C112.639689,88.723064 101.742495,89.424294 101.742495,89.424294 Z" id="Path" fill="#000000" opacity="0.1"></path>
                    <ellipse id="Oval" fill="#FBD56F" cx="107" cy="89.5" rx="6" ry="1.5"></ellipse>
                    <path d="M102.741084,86.424294 L102.190649,86.1235689 C102.190649,86.1235689 101.932368,87.1795714 102.017051,87.9334629 C102.033419,88.0886307 102.145774,88.217707 102.299325,88.2577471 C103.569558,88.5667872 109.613048,89.8847116 113.770946,88.0276993 C113.893636,87.9731031 113.977498,87.8585596 113.99112,87.7269742 C114.041929,87.264107 113.861274,86.3092701 113.789294,86.1235689 C113.639689,85.723064 102.741084,86.424294 102.741084,86.424294 Z" id="Path" fill="#FBD56F"></path>
                    <path d="M102.741084,86.424294 L102.190649,86.1235689 C102.190649,86.1235689 101.932368,87.1795714 102.017051,87.9334629 C102.033419,88.0886307 102.145774,88.217707 102.299325,88.2577471 C103.569558,88.5667872 109.613048,89.8847116 113.770946,88.0276993 C113.893636,87.9731031 113.977498,87.8585596 113.99112,87.7269742 C114.041929,87.264107 113.861274,86.3092701 113.789294,86.1235689 C113.639689,85.723064 102.741084,86.424294 102.741084,86.424294 Z" id="Path" fill="#000000" opacity="0.1"></path>
                    <ellipse id="Oval" fill="#FBD56F" cx="108" cy="85.5" rx="6" ry="1.5"></ellipse>
                    <path d="M58.9052085,44.8538433 C58.9052085,41.7647138 61.2534424,39.2555138 64.1520655,39.2555138 C64.4361926,39.2558152 64.7198073,39.2803019 65,39.3287227 C64.4392743,39.1111549 63.8448273,38.9997821 63.24546,39.0000003 C60.3482339,39.0000003 58,41.5623127 58,44.7232156 C58,47.0974815 59.3256835,49.1329767 61.2129316,50 C61.3037318,49.9181783 61.4168829,49.8205664 61.5509878,49.7129062 C59.8972234,48.6856738 58.8919916,46.8395318 58.9052085,44.8538433 Z" id="Path" fill="#FBD56F"></path>
                    <path d="M58.9052085,44.8538433 C58.9052085,41.7647138 61.2534424,39.2555138 64.1520655,39.2555138 C64.4361926,39.2558152 64.7198073,39.2803019 65,39.3287227 C64.4392743,39.1111549 63.8448273,38.9997821 63.24546,39.0000003 C60.3482339,39.0000003 58,41.5623127 58,44.7232156 C58,47.0974815 59.3256835,49.1329767 61.2129316,50 C61.3037318,49.9181783 61.4168829,49.8205664 61.5509878,49.7129062 C59.8972234,48.6856738 58.8919916,46.8395318 58.9052085,44.8538433 Z" id="Path" fill="#000000" opacity="0.1"></path>
                    <path d="M67.9707751,45.2215391 C67.970351,45.8251248 67.8631987,46.425027 67.6531131,47 C68.0152478,46.9236414 68.3932656,46.8611662 68.7824015,46.7889726 C68.9268367,46.3161756 68.9999885,45.8289108 69,45.3395478 C69,42.6489488 66.8351334,40.4192781 64,40 C66.3141677,40.7663626 67.9707751,42.8127727 67.9707751,45.2215391 Z" id="Path" fill="#FBD56F"></path>
                    <path d="M58.0001382,45.350817 C57.9861462,47.250941 59.0351608,49.0175166 60.760881,50 C61.7908784,49.22834 64.0621174,47.8099684 67.7086287,46.9888782 C67.901327,46.4202322 67.999611,45.8269315 68,45.2299876 C68,42.8477276 66.4804989,40.8238363 64.3578592,40.0700261 C64.0656459,40.0237104 63.7698639,40.0002883 63.4735474,40 C60.4491137,40.0041192 58.0001382,42.4001098 58.0001382,45.350817 Z" id="Path" fill="#FBD56F"></path>
                    <path d="M138.102467,108.942751 C137.278242,108.914186 137.247982,108.597117 136.188882,108.0501 C135.589446,107.7416 134.681646,106.844664 134.004398,106.123402 L133.845894,105.953441 L134.134084,105.953441 C134.134084,105.953441 133.868949,103.649687 134.105265,103.096958 C134.341581,102.544228 134.164344,99.2949782 134.164344,99.2949782 C134.164344,99.2949782 134.308439,96.8169788 134.046186,96.2413973 C133.783933,95.6658159 134.134084,91.979524 134.134084,91.979524 C134.134084,91.979524 134.3704,89.7900294 134.422275,85.3253457 C134.474149,80.860662 131.82856,80.7178378 131.82856,80.7178378 C131.82856,80.7178378 131.475527,80.6907012 130.939492,80.6392845 L130.778106,80.6235738 C131.125375,79.9094529 131.328549,79.3638646 131.328549,79.3638646 C131.328549,79.3638646 130.886177,75.1876857 130.768019,74.4678519 C130.649861,73.748018 129.945235,70.775847 129.945235,70.775847 C129.945235,70.775847 129.445225,69.5089965 129.149829,68.6163454 C128.854434,67.7236943 127.972571,66.6867908 127.972571,66.6867908 C127.972571,66.6867908 126.387523,63.5760803 125.940828,63.1161865 C125.736213,62.9033784 125.448022,62.6334408 125.198737,62.4020656 L125.069052,62.2849498 C125.13653,61.9606241 125.172239,61.6305956 125.175682,61.299463 C125.175682,61.299463 123.525792,59.6855498 123.407633,59.2827856 C123.289475,58.8800214 121.730365,57.3817958 121.730365,57.3817958 C121.730365,57.3817958 120.84562,55.7693109 119.845599,55.7407461 C119.37217,55.7136628 118.897261,55.7275215 118.426261,55.7821651 C118.632317,55.0280534 118.875838,54.2382358 119.093422,53.5598209 C119.117918,53.4841241 119.142414,53.4169967 119.165469,53.3384435 C119.96564,52.8016946 120.593743,52.0487709 120.975306,51.1689442 C120.995479,51.1218123 121.014211,51.0746803 121.032944,51.0261201 L121.064645,51.0261201 C121.106172,51.0252137 121.147583,51.0213955 121.188567,51.0146941 C121.518545,50.9589927 121.798089,50.5862216 121.645348,50.3005733 C121.66558,50.3341364 121.702458,50.3543223 121.741892,50.3534182 C121.851405,50.3534182 121.985413,50.1920269 122.01135,50.0534874 C122.01135,50.0292073 122.018555,50.0049272 122.021437,49.9806471 C122.024319,49.956367 122.031524,49.9206609 122.035847,49.8906679 C122.040169,49.8606748 122.035847,49.8335382 122.035847,49.8049734 C122.035847,49.7764085 122.035847,49.7464155 122.035847,49.7178506 C122.035847,49.6892858 122.035847,49.6621492 122.035847,49.6350126 C122.035847,49.607876 122.035847,49.5707417 122.035847,49.5393204 C122.035847,49.5078991 122.035847,49.4893319 122.035847,49.4636236 C122.035847,49.4379152 122.035847,49.3864985 122.027201,49.347936 C122.027201,49.3322253 122.027201,49.3165147 122.027201,49.300804 C122.009978,49.1435068 121.978142,48.9881213 121.932098,48.8366255 C121.770711,48.3010348 121.429206,47.7697289 121.560332,47.226997 L121.560332,47.2098581 C121.669845,46.7813856 122.038729,46.4814548 122.263517,46.104399 C122.285131,46.068693 122.303864,46.0315587 122.322596,45.9944244 C122.322596,45.9872832 122.329801,45.980142 122.332683,45.974429 C122.347092,45.9458642 122.35862,45.9172993 122.370148,45.8887345 L122.393203,45.8330331 C122.40329,45.808753 122.410494,45.7830446 122.41914,45.7573363 C122.427786,45.7316279 122.43499,45.7116325 122.440754,45.6873524 C122.446518,45.6630723 122.452282,45.6416487 122.458046,45.6187968 C122.46381,45.5959449 122.471014,45.5645236 122.476778,45.5359588 C122.482542,45.5073939 122.476778,45.495968 122.486865,45.4759726 C122.496951,45.4559772 122.49551,45.41313 122.498392,45.3817087 C122.501274,45.3502874 122.498392,45.3474309 122.498392,45.330292 C122.498392,45.3131531 122.498392,45.2603081 122.498392,45.2246021 L122.498392,45.1817548 C122.498392,45.1431923 122.498392,45.1032015 122.498392,45.064639 C122.498392,45.0532131 122.498392,45.0417871 122.498392,45.0303612 C122.498392,44.9889422 122.498392,44.9475232 122.486865,44.9061042 C122.486865,44.9061042 122.486865,44.8946782 122.486865,44.8889653 C122.437003,44.5269497 122.291335,44.1844712 122.064666,43.8963373 C121.542117,43.2791065 120.756702,42.9419916 119.945024,42.9865473 C119.724015,43.0115091 119.501127,43.0158127 119.279304,42.9994014 C118.90898,42.9451282 118.596293,42.7137531 118.302339,42.4880909 L115.835428,40.60424 C115.559993,40.3679916 115.244295,40.1822746 114.903132,40.0557952 C114.554421,39.9501053 114.136545,39.9858113 113.878614,40.2386101 C113.416069,40.6899345 113.710023,41.466898 113.525581,42.0796137 C113.364194,42.6109197 112.846892,42.9708366 112.312299,43.1493668 C111.777706,43.327897 111.204206,43.3678878 110.653763,43.4978578 C110.490537,43.523745 110.337561,43.5933843 110.21139,43.6992399 C110.069369,43.8709691 110.000144,44.090635 110.018303,44.3119556 C110.014572,44.8547298 110.146241,45.3900043 110.401596,45.8701673 C110.505344,46.0644082 110.630707,46.2629338 110.741661,46.4628877 L110.769039,46.5128761 L110.805063,46.5814317 C110.823795,46.6199943 110.842527,46.6571286 110.859819,46.6942628 L110.881433,46.7428231 L110.914575,46.8242328 C110.914575,46.8413717 110.927544,46.8585106 110.933307,46.8742213 C110.939071,46.889932 110.953481,46.9384922 110.963567,46.9699135 C111.021535,47.1553137 111.027017,47.3529326 110.979418,47.5412102 C110.894402,47.8511387 110.650881,48.089655 110.434738,48.3310279 C110.259756,48.5206158 110.134986,48.7502878 110.071618,48.999445 C110.061045,49.0580139 110.061045,49.1179781 110.071618,49.176547 C110.071618,49.1836882 110.071618,49.1908294 110.071618,49.1979706 C110.074796,49.2110108 110.078643,49.2238818 110.083145,49.2365332 C110.086372,49.2458237 110.090223,49.2548896 110.094673,49.2636697 C110.098885,49.273936 110.103696,49.2839507 110.109083,49.2936628 C110.120002,49.3092224 110.132561,49.3235857 110.146547,49.3365101 L110.168162,49.3522207 C110.179906,49.3609761 110.192448,49.3686265 110.205626,49.3750726 L110.230123,49.3864985 L110.290643,49.4022092 L110.307934,49.4022092 C110.339595,49.4044371 110.371376,49.4044371 110.403037,49.4022092 L110.431856,49.4022092 C110.461847,49.4002513 110.491685,49.3964352 110.521195,49.3907833 L110.554337,49.3907833 C110.603038,49.3817145 110.651155,49.3697916 110.698432,49.3550772 C110.863965,49.3058862 111.024973,49.2428158 111.17971,49.1665493 C111.17971,49.1836882 111.17971,49.2022553 111.17971,49.2193943 C111.17971,49.2365332 111.17971,49.2808086 111.17971,49.3108017 C111.187877,49.8758139 111.29565,50.4350597 111.498161,50.9632774 C111.813849,51.7862628 112.34324,52.5120042 113.032775,53.0670775 C113.024129,53.1156377 113.015484,53.1656262 113.005397,53.2170429 C112.861302,53.9068837 112.565907,54.5995809 112.382906,54.546736 C112.203697,54.5065868 112.020514,54.4864659 111.836785,54.4867498 L111.676839,54.4867498 C111.510225,54.4679827 111.342002,54.4679827 111.175387,54.4867498 C111.101061,54.492204 111.026413,54.4819817 110.956363,54.4567567 C110.480567,54.3079745 109.974697,54.2799821 109.48515,54.375347 C108.467838,54.582442 106.918814,54.9609261 106.493733,55.4136787 C105.845304,56.1049477 104.908685,56.7676519 103.843821,59.6469873 C103.843821,59.6469873 103.31355,61.4037246 102.901438,61.6350998 C102.992208,61.5881225 103.085532,61.5461632 103.180983,61.5094145 C103.126162,61.6044719 103.05089,61.6863941 102.960517,61.7493591 C103.109524,61.6739116 103.264161,61.6099284 103.423063,61.5579747 C103.10173,63.4346844 103.578686,68.8020169 103.578686,68.8020169 C103.578686,68.8020169 103.195392,69.7275175 103.695403,70.2759624 C103.99368,70.6001732 104.155067,71.107199 104.238642,71.467116 L104.165153,71.5785188 C103.900018,71.9855677 103.545544,72.5168737 103.31355,72.8096632 C102.901438,73.328115 103.018155,74.970593 103.018155,74.970593 C103.018155,74.970593 102.930257,75.7475565 102.636303,76.0360613 C102.342348,76.3245662 102.399986,77.3900345 102.399986,77.3900345 L101.646368,80.2022425 C101.646368,80.2022425 100.938861,80.8349536 100.938861,81.1234584 C100.938861,81.4119633 100.379771,82.2174916 100.379771,82.2174916 C100.379771,82.2174916 99.5252862,83.6000296 100.379771,83.3986475 C100.691861,83.3091484 100.984852,83.1639453 101.244343,82.970175 L101.244343,82.9915986 C101.244343,83.0415871 101.244343,83.0930038 101.244343,83.1458487 C101.219846,84.6512156 101.388438,86.7707263 102.506617,86.7707263 C104.23576,86.7707263 108.720004,88.8145402 108.720004,88.8145402 C109.632127,89.5058093 110.868465,89.2758623 110.868465,89.2758623 C110.868465,89.2758623 108.679658,91.4310791 108.74306,92.3251585 C108.806461,93.2192378 107.506722,94.6860421 107.506722,94.6860421 L103.500874,102.434254 C103.523244,102.974223 103.62021,103.508602 103.789065,104.022458 L103.731427,104.071019 C102.192489,105.464983 102.058481,108.222917 102.058481,108.222917 L101.705447,109.63402 L107.06435,111.967767 C107.06435,111.967767 114.014064,112.110591 115.221582,111.79495 C116.4291,111.479309 116.163965,110.152472 114.573153,109.89396 C112.982342,109.635448 112.600489,108.942751 112.070219,108.62711 C111.712863,108.412874 110.443384,107.031764 109.655182,106.156252 C109.643655,106.141969 109.632127,106.130543 109.6206,106.117689 L109.803601,105.11792 C110.156634,104.945103 110.686904,103.21693 110.686904,103.21693 C110.686904,103.21693 110.686904,102.525661 111.039938,102.324279 C111.392971,102.122897 112.129298,100.04909 112.129298,100.04909 C112.129298,100.04909 113.714346,97.4282662 113.632211,97.0826317 C113.550077,96.7369972 114.784973,94.9802599 114.784973,94.9802599 C114.784973,94.9802599 116.875796,92.9635825 116.786457,92.6036656 C116.697117,92.2437487 118.465166,90.3998886 118.465166,90.3998886 C119.103669,89.9172452 119.635734,89.3101594 120.0286,88.6160146 L120.538697,88.5331766 C122.851426,88.157549 126.693005,87.4791342 127.122409,87.2891781 C127.711759,87.0306663 127.593601,88.1832574 127.358725,89.161603 C127.12385,90.1399486 126.946613,94.8360075 127.21463,95.4458667 C127.482647,96.0557259 127.358725,97.031215 127.358725,97.031215 L127.005692,102.301427 L127.240567,103.425453 C127.240567,103.425453 126.445161,104.058164 126.769376,104.432364 C127.09359,104.806563 126.799636,106.420476 126.799636,106.420476 C126.827014,106.410479 126.860156,106.400481 126.896179,106.390483 C126.868801,106.453326 126.841423,106.519025 126.816927,106.586152 C126.360145,107.87157 126.622399,109.991081 126.622399,109.991081 L126.622399,111.662124 C126.622399,111.662124 134.779631,111.804948 136.575058,111.804948 C138.370484,111.804948 140.846041,110.940861 140.993018,110.249592 C141.139995,109.558323 138.926692,108.972744 138.102467,108.942751 Z M114.903132,78.9596722 L114.369979,79.0039477 C114.54609,78.9780347 114.723686,78.9632463 114.901691,78.9596722 L114.903132,78.9596722 Z M118.161125,56.8519182 C118.236055,56.5177096 118.326835,56.1606491 118.427701,55.7921628 L118.161125,56.8519182 Z M119.169792,79.7666288 C118.660506,79.965576 118.094031,79.965576 117.584744,79.7666288 C117.584744,79.7666288 117.613563,77.7513797 117.84988,76.9101453 C118.086196,76.0689109 118.408969,74.5478334 118.408969,74.5478334 C118.408969,74.5478334 118.674104,72.4454616 118.93924,71.4942526 C119.204375,70.5430436 120.236097,65.2442667 120.764926,64.8986322 C121.293756,64.5529977 121.589151,65.1585722 121.589151,65.1585722 C121.589151,65.1585722 121.668404,65.1585722 121.800971,65.1428615 C121.826908,65.1971347 121.854287,65.2571208 121.885988,65.3185352 C122.514243,66.5768162 124.357221,69.1619338 124.357221,69.1619338 C124.904209,69.4963032 125.367372,69.9495202 125.711717,70.4873421 C126.213168,71.3214353 126.360145,73.280983 126.360145,73.280983 C126.360145,73.280983 127.479765,77.6299791 128.008595,78.2341254 C128.27373,78.5369126 128.15269,78.7168711 127.972571,78.8211327 C127.596293,79.0265562 127.277033,79.3209225 127.043157,79.6780778 C126.968227,79.7966218 126.887534,79.9265918 126.80684,80.0665595 C126.603666,80.0194276 126.423547,79.9708673 126.272247,79.9237354 C124.818326,79.4395614 119.962316,79.4209943 119.168351,79.77377 L119.169792,79.7666288 Z" id="Shape" fill="url(#linearGradient-1)" fill-rule="nonzero"></path>
                    <path d="M126.072548,110.099302 L126.072548,111.849151 C126.072548,111.849151 133.973612,112 135.713872,112 C137.454131,112 139.850554,111.094906 139.993199,110.37083 C140.135843,109.646755 137.996179,109.043358 137.197372,109.013189 C136.398564,108.983019 136.370035,108.651151 135.342997,108.077924 C134.763861,107.755107 133.883746,106.815318 133.227583,106.059564 C132.721196,105.475778 132.347468,105.00362 132.347468,105.00362 C132.347468,105.00362 128.098096,104.913111 126.871356,105.637186 C126.586067,105.80312 126.393498,106.130463 126.260838,106.542281 C125.818641,107.884838 126.072548,110.099302 126.072548,110.099302 Z" id="Path" fill="#434175"></path>
                    <path d="M126,106 C126.895782,105.786501 132.137183,105.704841 133,105.691067 C132.491196,105.310311 132.115684,105.002361 132.115684,105.002361 C132.115684,105.002361 127.846028,104.943329 126.613432,105.415584 C126.329648,105.519874 126.133292,105.733373 126,106 Z" id="Path" fill="#000000" opacity="0.1"></path>
                    <path d="M104,80.1178434 L104.456287,80.399416 L104.627217,80.50219 L105.291164,80.9020232 C108.84257,83.033528 118.526298,88.8142142 119.057455,88.7677547 C119.19872,88.7564918 119.614039,88.693138 120.187576,88.600219 L120.677766,88.5199708 C122.895629,88.1525185 126.581238,87.489415 126.993732,87.303577 C127.558793,87.0501616 127.445781,88.1764522 127.219756,89.1337991 C126.993732,90.0911461 126.824214,94.6807801 127.078491,95.2720826 C127.332769,95.8633851 127.219756,96.8207321 127.219756,96.8207321 L126.88072,101.973511 L127.106744,103.071645 C127.106744,103.071645 126.343912,103.691104 126.654696,104.057149 C126.965479,104.423193 126.682949,106 126.682949,106 C127.587046,105.662113 133.716542,105.549484 133.716542,105.549484 C133.716542,105.549484 133.462264,103.296903 133.688289,102.761915 C133.914313,102.226927 133.744795,99.0451559 133.744795,99.0451559 C133.744795,99.0451559 133.88606,96.6236312 133.631783,96.060486 C133.377505,95.4973407 133.716542,91.8946188 133.716542,91.8946188 C133.716542,91.8946188 133.942566,89.7546668 133.999072,85.3916988 C134.055578,81.0287308 131.512805,80.8865367 131.512805,80.8865367 C131.512805,80.8865367 131.173769,80.8597873 130.665214,80.810512 C129.657993,80.7147773 127.981176,80.5289394 126.85953,80.2867869 C126.629797,80.2401603 126.40293,80.1804631 126.180045,80.1079883 C124.795646,79.637762 120.133895,79.6194598 119.372476,79.957347 C118.88367,80.1520979 118.338444,80.1520979 117.849637,79.957347 L117.256324,79 L111.590178,79.4814892 L110.989801,79.5321723 L105.411239,80.0066222 L105.026998,80.039003 L104,80.1178434 Z" id="Path" fill="#565387"></path>
                    <path d="M126.878961,83.8703959 C128.593608,84.614602 130.230249,81.9758148 131,80.4874026 C129.950607,80.3983075 128.203581,80.2253582 127.034972,80 C126.259334,81.1477545 125.234961,83.1563249 126.878961,83.8703959 Z" id="Path" fill="#000000" opacity="0.1"></path>
                    <path d="M122.000198,64.7808698 C122.034268,64.9761114 122.099648,65.164092 122.193639,65.3370437 C122.779449,66.5756658 124.497094,69.1224318 124.497094,69.1224318 C125.007983,69.4530546 125.439566,69.8993884 125.759262,70.427738 C126.225715,71.2506485 126.362907,73.1802316 126.362907,73.1802316 C126.362907,73.1802316 127.405567,77.4636223 127.899458,78.059523 C128.146404,78.3574733 128.036651,78.5348247 127.86516,78.6383979 C127.514712,78.8399679 127.217456,79.1274086 126.999478,79.4754965 C126.27922,80.6729731 125.130922,83.0452253 126.747045,83.8596229 C128.942118,84.9662955 131,79.1661957 131,79.1661957 C131,79.1661957 130.588424,75.0516435 130.47867,74.3422379 C130.368916,73.6328323 129.711766,70.7100814 129.711766,70.7100814 C129.711766,70.7100814 129.245313,69.4615277 128.970929,68.5818648 C128.696545,67.7022019 127.873392,66.6806579 127.873392,66.6806579 C127.873392,66.6806579 126.391717,63.6174447 125.980141,63.1634251 C125.789444,62.9520223 125.521919,62.6867046 125.29418,62.4625324 C125.019796,62.20289 124.805777,62 124.805777,62 C124.805777,62 121.97276,64.1012593 122.000198,64.7808698 Z" id="Path" fill="#EE8E9E"></path>
                    <path d="M102,109.560152 L107.258806,111.96632 C107.258806,111.96632 114.076472,112.114849 115.261148,111.788085 C116.445824,111.461322 116.185773,110.094856 114.625468,109.827504 C113.065163,109.560152 112.689534,108.847213 112.169432,108.52045 C111.818364,108.300627 110.573009,106.876235 109.80008,105.97318 C109.427341,105.53799 109.1644,105.230535 109.1644,105.230535 C109.1644,105.230535 108.153092,102.467898 105.351766,103.091719 C104.839717,103.206566 104.368046,103.463406 103.987944,103.834364 C102.478205,105.270638 102.346734,108.114966 102.346734,108.114966 L102,109.560152 Z" id="Path" fill="#434175"></path>
                    <path d="M104,80.6402785 L104.672028,81.0446527 C108.266666,83.2003658 118.068273,89.0467056 118.605896,88.9997184 C118.74888,88.9883276 119.169256,88.9242542 119.749774,88.8302799 L120.245931,88.7491203 L120.264519,88.7163717 C120.553529,88.215893 120.773784,87.6790556 120.919389,87.1202327 C121.521355,84.843492 118.554421,83.1006961 118.554421,83.1006961 L117.925288,82.6137385 C117.210364,81.4148544 112.062912,80.2814675 112.062912,80.2814675 L111.399463,79.8372255 L111.04629,79.6008659 L110.95192,79.5382164 L110.146916,79 L106.116175,79.2847706 L104.917962,80.0508034 L104.792136,80.131963 L104.347453,80.4167336 L104,80.6402785 Z" id="Path" fill="#000000" opacity="0.1"></path>
                    <path d="M104,103.897461 C105.14094,108.179701 109.910515,106.781947 109.910515,106.781947 L110,106.238376 C109.615213,105.764369 109.343773,105.42949 109.343773,105.42949 C109.343773,105.42949 108.299776,102.420436 105.407905,103.0999 C104.880415,103.221761 104.39361,103.49753 104,103.897461 Z" id="Path" fill="#000000" opacity="0.1"></path>
                    <path d="M103.225007,87.034674 C104.913877,87.034674 109.263434,89.0929884 109.263434,89.0929884 C110.150807,89.7887567 111.353053,89.5568339 111.353053,89.5568339 C111.353053,89.5568339 109.234809,91.7311097 109.292059,92.6298104 C109.349309,93.5285111 108.091244,95.0070187 108.091244,95.0070187 L104.198254,102.803972 C104.484504,108.339678 110.093557,106.804639 110.093557,106.804639 L110.322556,105.500074 C110.666055,105.326132 111.181304,103.586711 111.181304,103.586711 C111.181304,103.586711 111.181304,102.890943 111.524803,102.68801 C111.868302,102.485078 112.583925,100.397773 112.583925,100.397773 C112.583925,100.397773 114.129671,97.7596519 114.043796,97.4117677 C113.957921,97.0638836 115.160168,95.2969221 115.160168,95.2969221 C115.160168,95.2969221 117.192537,93.267598 117.106662,92.9052187 C117.020788,92.5428394 118.738283,90.6874573 118.738283,90.6874573 C119.359638,90.199457 119.876326,89.5883833 120.256835,88.8915055 C120.548966,88.3810231 120.77186,87.8330086 120.919502,87.2622482 C121.404694,85.39527 119.568406,83.884873 118.834176,83.3688449 C118.656702,83.2427369 118.547927,83.1760591 118.547927,83.1760591 L117.918179,82.6803242 C117.593286,82.1251591 116.343808,81.5830397 115.090037,81.1583311 C114.182627,80.852483 113.266629,80.6060651 112.68125,80.4582143 C112.283363,80.3654452 112.045776,80.3045655 112.045776,80.3045655 L111.381678,79.8523161 L111.148385,79.6943187 L110.93513,79.549367 L110.122182,79 L108.327399,79.129007 L106.087499,79.2899034 L104.889546,80.0755418 L104.317048,80.4495172 L102.08001,81.8990344 C102.08001,81.8990344 102.021329,82.4570986 102.002723,83.2035999 C102.002723,83.2615806 102.002723,83.3195613 102.002723,83.380441 C101.975529,84.9024341 102.135829,87.034674 103.225007,87.034674 Z" id="Path" fill="#565387"></path>
                    <path d="M111,54.8430028 L111.594164,57.0386356 C111.594164,57.0386356 112.641026,60.815124 112.7542,61.0785999 C112.867374,61.3420758 115.611848,64.0061102 115.725022,64.0646604 C115.838196,64.1232106 117.332095,65 117.332095,65 C117.332095,65 117.450928,60.1696079 117.332095,58.7658667 C117.322158,58.4570561 117.346843,58.1480942 117.405659,57.8451647 C117.585323,56.7444208 118.042263,55.1298988 118.421397,53.8857069 C118.738285,52.844977 119,52.0633318 119,52.0633318 C119,52.0633318 112.380725,51.7705807 112.607073,52.4439081 C112.691954,52.6986015 112.665075,53.1230905 112.581609,53.550507 C112.440141,54.2516457 112.157206,54.9571757 111.984615,54.901553 C111.812326,54.8616763 111.636317,54.8415504 111.45977,54.8415391 C111.222104,54.8342203 111,54.8430028 111,54.8430028 Z" id="Path" fill="#EE8E9E"></path>
                    <path d="M113,53.7055626 C114.552882,55.2836327 116.772398,55.4335439 118.459114,54.0742836 C118.755345,52.9294774 119,52.0696651 119,52.0696651 C119,52.0696651 112.812211,51.7476381 113.023804,52.4883003 C113.103152,52.7684639 113.078025,53.2354031 113,53.7055626 Z" id="Path" fill="#000000" opacity="0.1"></path>
                    <path d="M120.996384,50.042026 C120.99667,50.5679176 120.912274,51.0904798 120.746384,51.58997 C120.704653,51.7188951 120.656423,51.8456611 120.601876,51.9697896 C119.805429,53.8407274 117.939344,55.0409427 115.89219,54.9989316 C113.845037,54.9569205 112.030603,53.6811746 111.312864,51.7791632 C111.114334,51.2530362 111.008741,50.6969003 111.000726,50.1351893 C111.000726,50.1050904 111.000726,50.0735582 111.000726,50.0434592 C110.970014,48.2518872 111.916096,46.5832159 113.475503,45.6785211 C115.034911,44.7738263 116.965089,44.7738263 118.524497,45.6785211 C120.083904,46.5832159 121.029986,48.2518872 120.999274,50.0434592 L120.996384,50.042026 Z" id="Path" fill="#EE8E9E"></path>
                    <path d="M112,55.0038415 L112.556537,57.1647059 C112.556537,57.1647059 113.537102,60.8813926 113.64311,61.1406963 C113.749117,61.4 116.319788,64.0218487 116.425795,64.0794718 C116.531802,64.1370948 117.931095,65 117.931095,65 C117.931095,65 118.042403,60.2460984 117.931095,58.8645858 C117.921787,58.5606653 117.944909,58.256596 118,57.9584634 L117.639576,59.5560624 L117.666078,62.7541417 L117.878092,62.9270108 L117.40106,63.704922 L117.40106,63.1286915 C117.40106,63.1286915 115.704947,61.342377 115.439929,60.5932773 C115.174912,59.8441777 114.220848,58.4871549 114.220848,58.4871549 C114.220848,58.4871549 113.134276,56.5020408 113.107774,56.1563025 C113.087898,55.8869148 112.630742,55.2631453 112.430654,55.0038415 C112.208039,54.9951981 112,55.0038415 112,55.0038415 Z" id="Path" fill="#000000" opacity="0.1"></path>
                    <path d="M122.000181,64.4997873 C122.031273,64.6753841 122.090939,64.8444503 122.176715,65 C122.725096,64.9425776 124.58934,64.587835 125,62.4159932 C124.749598,62.1824755 124.554284,62 124.554284,62 C124.554284,62 121.975141,63.8885581 122.000181,64.4997873 Z" id="Path" fill="#000000" opacity="0.1"></path>
                    <path d="M102,83 C102.576525,82.6220681 103.135754,82.1080278 103.465814,81.9653122 C103.95586,81.7538817 104.705342,81.0667327 104.705342,81.0667327 C104.705342,81.0667327 104.895595,80.9478031 105.18674,80.7918731 C105.721467,80.5037991 106.599225,80.0875454 107.270876,80.0360093 C107.871903,79.9897588 109.865237,79.8721506 111.45068,79.7822927 L113.503108,79.6660059 C113.503108,79.6660059 115.376813,79.0581434 116.183947,79.4545755 C116.762012,79.7200759 117.37133,79.9240248 118,80.0624381 C118,80.0624381 118,80.0042947 118,79.9051867 L117.394649,79.0066072 L111.000991,79.5061117 L110.180885,79 L106.117827,79.2642881 L104.911449,79.9805088 L103.870822,80.0624381 L104.336366,80.3267261 L102.083596,81.6481665 C102.083596,81.6481665 102.012972,82.2388503 102,83 Z" id="Path" fill="#000000" opacity="0.1"></path>
                    <path d="M101.366252,83.9788365 C101.663844,83.8878254 101.942619,83.7417681 102.188759,83.5479029 C102.750198,83.138516 103.290582,82.5797387 103.612006,82.4260391 C104.089228,82.1962078 104.819098,81.4492562 104.819098,81.4492562 C104.819098,81.4492562 106.30691,80.4150155 107.317499,80.3288288 C107.598218,80.3058457 108.168078,80.2641888 108.861454,80.2182225 C109.554831,80.1722563 110.40541,80.1162349 111.152123,80.074578 L112.342372,79.9984464 L113.37963,79.9323699 C113.37963,79.9323699 115.204304,79.271605 115.990318,79.7025386 C116.553256,79.9911456 117.14663,80.2128441 117.758849,80.3633035 C117.758849,80.3633035 117.786921,78.35228 118.011496,77.5191417 C118.236071,76.6860033 118.544862,75.1648077 118.544862,75.1648077 C118.544862,75.1648077 118.79751,73.0675975 119.050157,72.1195435 C119.302804,71.1714896 120.283918,65.8853706 120.789212,65.5406237 C121.294507,65.1958768 121.575226,65.7991839 121.575226,65.7991839 C121.575226,65.7991839 124.943856,65.7417261 125,61.9509467 C125,61.9509467 123.427973,60.3421279 123.315685,59.9399232 C123.203397,59.5377185 121.715586,58.0438153 121.715586,58.0438153 C121.715586,58.0438153 120.873428,56.4349965 119.918983,56.4062676 C119.46807,56.3796913 119.015742,56.3941123 118.56732,56.4493609 L117.758849,59.8250076 L117.786921,63.0139163 L118.011496,63.1862897 L117.506201,63.9619702 L117.506201,63.3873921 C117.506201,63.3873921 115.709599,61.6061998 115.42888,60.8592482 C115.14816,60.1122966 114.137571,58.7591651 114.137571,58.7591651 C114.137571,58.7591651 112.986623,56.7797434 112.958551,56.4349965 C112.930479,56.0902496 112.144465,55.1666152 112.144465,55.1666152 C111.985925,55.1477508 111.825783,55.1477508 111.667243,55.1666152 C111.596222,55.1720594 111.52489,55.1617706 111.458107,55.1364499 C111.004571,54.9877365 110.521435,54.9600477 110.054511,55.0560089 C109.084626,55.2614206 107.608043,55.6392058 107.203808,56.0902496 C106.586225,56.7797434 105.687924,57.4405082 104.677335,60.313399 L110.121883,62.3244225 L109.647468,63.232256 L105.314567,71.6613174 C105.314567,71.6613174 105.174208,71.9012038 104.976301,72.2143489 C104.723654,72.6208629 104.385387,73.1509113 104.163619,73.4425097 C103.770612,73.95963 103.8829,75.5971778 103.8829,75.5971778 C103.8829,75.5971778 103.798684,76.3728583 103.517965,76.6601473 C103.237245,76.9474364 103.293389,78.010406 103.293389,78.010406 L102.563519,80.79711 C102.563519,80.79711 101.889793,81.429146 101.889793,81.716435 C101.889793,82.0037241 101.356427,82.8081335 101.356427,82.8081335 C101.356427,82.8081335 100.547956,84.1856846 101.366252,83.9788365 Z" id="Path" fill="#434175"></path>
                    <path d="M130,85 C130,85 128.464813,85.7271992 128.049008,86.7685347 C127.633203,87.8098701 130,85 130,85 Z" id="Path" fill="#000000" opacity="0.1"></path>
                    <path d="M129,84 C128.950763,84.0817086 126.875425,86.3845303 127.005903,86.940149 C127.136381,87.4957677 129,84 129,84 Z" id="Path" fill="#000000" opacity="0.1"></path>
                    <path d="M116,85 C116,85 113.252917,86.327185 113.012767,86.9113861 C112.772617,87.4955872 116,85 116,85 Z" id="Path" fill="#000000" opacity="0.1"></path>
                    <path d="M116,87 C116,87 113.377741,87.7824074 113.02605,87.9780093 C112.674358,88.1736111 116,87 116,87 Z" id="Path" fill="#000000" opacity="0.1"></path>
                    <path d="M115,89.2802145 C115,89.2802145 113.784228,90.6766351 113.112396,89.5794475 C112.440565,88.4822599 115,89.2802145 115,89.2802145 Z" id="Path" fill="#000000" opacity="0.1"></path>
                    <path d="M119,68 C118.938949,68.0854378 115.123232,74.4932713 114.115882,74.9774188 C113.108533,75.4615662 119,68 119,68 Z" id="Path" fill="#000000" opacity="0.1"></path>
                    <path d="M118,71 C118,71.1487129 114.604282,78.9100394 114.047606,78.9992672 C113.490931,79.0884949 118,71 118,71 Z" id="Path" fill="#000000" opacity="0.1"></path>
                    <path d="M105,76 C105,76 103.619277,79.7774484 103.077771,79.9920591 C102.536265,80.2066698 105,76 105,76 Z" id="Path" fill="#000000" opacity="0.1"></path>
                    <path d="M105,74 C105,74 104.41659,75 104.061658,75 C103.706726,75 105,74 105,74 Z" id="Path" fill="#000000" opacity="0.1"></path>
                    <path d="M120.996384,50.0642786 C120.99667,50.592341 120.912274,51.1170604 120.746384,51.6186125 C120.704653,51.7480697 120.656423,51.8753591 120.601876,52 C120.34618,51.9607818 120.105411,51.8550365 119.903899,51.6934508 C119.689344,51.5486905 119.510095,51.3578773 119.379333,51.1350419 C119.280749,50.8976339 119.19536,50.6550019 119.123553,50.4082469 C118.888723,49.8411197 118.363916,49.4451258 117.752167,49.3734635 C117.918351,49.6613031 117.653901,50.0426906 117.328756,50.0930625 C117.003612,50.1434344 116.687138,49.9491427 116.461705,49.7087966 C116.236272,49.4684505 116.075867,49.1762933 115.853324,48.9359472 C115.630781,48.6956012 115.312862,48.5041878 114.986272,48.5516813 C114.697255,48.5948573 114.476157,48.8136154 114.234828,48.9762448 C113.993498,49.1388742 113.656793,49.2482532 113.42558,49.0741103 C113.295522,48.977684 113.231938,48.8136154 113.107661,48.7085539 C112.788297,48.4423023 112.291187,48.7171891 112.055638,49.0611575 C111.692922,49.5936608 111.477604,49.9160411 111.000726,50.1563872 C111.000726,50.1261641 111.000726,50.0945017 111.000726,50.0642786 C110.970014,48.265311 111.916096,46.5897514 113.475503,45.681322 C115.034911,44.7728927 116.965089,44.7728927 118.524497,45.681322 C120.083904,46.5897514 121.029986,48.265311 120.999274,50.0642786 L120.996384,50.0642786 Z" id="Path" fill="#000000" opacity="0.1"></path>
                    <path d="M112.148647,48.0632055 C112.379057,47.7183435 112.865321,47.4438908 113.177717,47.7111588 C113.299283,47.8146174 113.36148,47.9784269 113.4887,48.0761378 C113.71487,48.2500058 114.045642,48.1407994 114.280293,47.9784269 C114.514944,47.8160544 114.734045,47.5976418 115.015344,47.554534 C115.333394,47.5042416 115.642964,47.6982265 115.863479,47.938193 C116.083994,48.1781595 116.239485,48.4698553 116.458587,48.7098218 C116.677688,48.9497883 116.987258,49.1408993 117.306722,49.0920439 C117.626186,49.0431884 117.883454,48.6609663 117.720895,48.3735813 C118.319004,48.4450333 118.831978,48.8405243 119.060948,49.4067305 C119.131826,49.6528881 119.21534,49.8951024 119.311148,50.1323776 C119.439632,50.3544925 119.615452,50.5445125 119.825683,50.6884677 C120.084365,50.8824526 120.399588,51.0448251 120.716225,50.988785 C121.032862,50.9327449 121.301439,50.5577075 121.154428,50.2703225 C121.254791,50.4269473 121.472479,50.2085347 121.504991,50.0246083 C121.576925,49.6207476 121.554653,49.2053648 121.439967,48.8118435 C121.284476,48.2773073 120.95653,47.7485189 121.082337,47.2053612 C121.1827,46.7742837 121.543157,46.4682186 121.762259,46.0874335 C122.150987,45.4120787 122.04497,44.5068158 121.575669,43.8860642 C121.07768,43.2718854 120.321909,42.9352363 119.540145,42.9793645 C119.327976,43.0032704 119.114084,43.0071187 118.901216,42.9908599 C118.546413,42.9376936 118.245325,42.7034748 117.962613,42.4807514 L115.592075,40.6041273 C115.328893,40.3677007 115.025732,40.1817259 114.697293,40.0552219 C114.363693,39.9503263 113.962242,39.9862495 113.707802,40.2377114 C113.263944,40.6889058 113.545243,41.4648454 113.367134,42.0755386 C113.213056,42.604327 112.716897,42.9635583 112.203775,43.141737 C111.690654,43.3199157 111.140779,43.3601496 110.612109,43.4894729 C110.455343,43.5159371 110.30869,43.5855062 110.188041,43.6906424 C110.051289,43.862949 109.984985,44.0821288 110.002865,44.3027725 C109.999197,44.8432325 110.125356,45.3764347 110.37039,45.8560885 C110.64462,46.3920616 111.077169,46.9424039 110.925919,47.5272324 C110.843932,47.8361713 110.609281,48.073264 110.402902,48.3146674 C109.956217,48.8377081 109.804967,49.6079 110.647447,49.3406319 C111.463071,49.0819854 111.690654,48.7471818 112.148647,48.0632055 Z" id="Path" fill="#434175"></path>
                    <g id="Group" opacity="0.1" transform="translate(110.000000, 44.000000)" fill="#000000">
                        <path d="M11.4237209,5.43714286 C11.3902326,5.62 11.1767442,5.83714286 11.0762791,5.68142857 C11.215814,5.96714286 10.9562791,6.33714286 10.6437209,6.39571429 C10.3311628,6.45428571 10.0213953,6.28857143 9.76465116,6.09714286 C9.5574803,5.95345139 9.3844009,5.76404716 9.25813953,5.54285714 C9.14093023,5.31857143 9.10325581,5.05857143 9.01116279,4.82142857 C8.78392766,4.25887361 8.27744153,3.86600313 7.68697674,3.79428571 C7.84883721,4.08 7.59209302,4.46 7.27813953,4.50857143 C6.96418605,4.55714286 6.65860465,4.36571429 6.44093023,4.12714286 C6.22325581,3.88857143 6.06837209,3.6 5.85348837,3.36 C5.63860465,3.12 5.33162791,2.93142857 5.01627907,2.97857143 C4.7372093,3.02285714 4.52372093,3.23857143 4.29069767,3.4 C4.05767442,3.56142857 3.73255814,3.67142857 3.50930233,3.49857143 C3.38372093,3.40142857 3.32372093,3.23857143 3.20372093,3.13571429 C2.89395349,2.87 2.41395349,3.14285714 2.18651163,3.48428571 C1.73581395,4.16428571 1.51116279,4.5 0.710232558,4.75857143 C0.447906977,4.84285714 0.283255814,4.82428571 0.193953488,4.74285714 C0.0195348837,5.15571429 0.0990697674,5.51857143 0.710232558,5.32142857 C1.51116279,5.06285714 1.73581395,4.72857143 2.18651163,4.04857143 C2.41395349,3.70571429 2.89395349,3.43285714 3.20372093,3.69857143 C3.32372093,3.80142857 3.38372093,3.96428571 3.50930233,4.06142857 C3.73395349,4.23428571 4.05906977,4.12571429 4.29069767,3.96428571 C4.52232558,3.80285714 4.73860465,3.58571429 5.01627907,3.54285714 C5.33023256,3.49285714 5.63581395,3.68571429 5.85348837,3.92428571 C6.07116279,4.16285714 6.22465116,4.45285714 6.44093023,4.69142857 C6.6572093,4.93 6.9627907,5.12 7.27813953,5.07142857 C7.59348837,5.02285714 7.84883721,4.64285714 7.68697674,4.35714286 C8.27790203,4.42768916 8.78490422,4.82095994 9.01116279,5.38428571 C9.08049835,5.62921876 9.16294862,5.87005918 9.25813953,6.10571429 C9.38456796,6.32638604 9.55763543,6.51528907 9.76465116,6.65857143 C10.0213953,6.85142857 10.3311628,7.01285714 10.6437209,6.95714286 C10.9562791,6.90142857 11.2213953,6.52857143 11.0762791,6.24285714 C11.1767442,6.39857143 11.3902326,6.18142857 11.4237209,5.99857143 C11.4669335,5.75203334 11.4753916,5.50042498 11.4488372,5.25142857 C11.444186,5.31333333 11.435814,5.3752381 11.4237209,5.43714286 Z" id="Path"></path>
                        <path d="M0.976744186,2.97428571 C0.976744186,2.96571429 0.976744186,2.96 0.98372093,2.95142857 C1.13581395,2.37142857 0.704651163,1.82428571 0.435348837,1.29142857 C0.245651874,0.915410027 0.128179783,0.505622354 0.0893023256,0.0842857143 C0.078869809,0.159063953 0.0732762223,0.234466389 0.0725581395,0.31 C0.0696095926,0.84723856 0.194105429,1.37717812 0.435348837,1.85428571 C0.625116279,2.21857143 0.883255814,2.59 0.976744186,2.97428571 Z" id="Path"></path>
                        <path d="M11.6762791,1.52285714 C11.46,1.90142857 11.104186,2.20714286 11.0051163,2.63428571 C10.9653245,2.81439165 10.9653245,3.00132264 11.0051163,3.18142857 C11.1083721,2.76285714 11.4572093,2.46 11.6706977,2.08571429 C11.8735283,1.72028457 11.9492837,1.29522043 11.8855814,0.88 C11.8579242,1.10632477 11.7867901,1.32480789 11.6762791,1.52285714 Z" id="Path"></path>
                    </g>
                    <path d="M104,72.1287324 C104.037707,72.2900204 104.066898,72.4532502 104.087446,72.6177195 C104.087446,72.6177195 106.352447,78.0184726 106.639156,78.3381388 C106.726602,78.4373959 107.059185,78.922004 107.47778,79.5481995 L107.958018,80.269273 C108.818145,81.5829697 109.791522,83.067447 109.791522,83.067447 L111.918902,84.9591702 C111.918902,84.9591702 116.533484,85.3343036 118,83.8104154 C117.82224,83.6834248 117.713291,83.6162803 117.713291,83.6162803 L117.082531,83.1170755 C116.757117,82.5580246 115.505632,82.0121106 114.249846,81.5844294 C113.088675,81.5931873 112.138235,81.6895251 112.138235,81.6895251 L111.83719,80.8794121 L111.52181,80.0342672 L109.911939,75.7399387 C109.911939,75.7399387 108.87692,70.311452 108.532869,70.047253 C108.188818,69.783054 108.276265,68.9671024 108.276265,68.9671024 C108.276265,68.9671024 108.905591,66.6608348 108.676224,66.339709 C108.446856,66.0185831 109.048945,63.6553887 109.048945,63.6553887 C108.989916,63.4241353 108.897136,63.2032119 108.773705,63 L104.348351,71.5653025 C104.348351,71.5653025 104.197829,71.8105259 104,72.1287324 Z" id="Path" fill="#000000" opacity="0.1"></path>
                    <path d="M109.817521,63.3915019 C109.817521,63.3915019 109.227463,65.6725537 109.452247,65.9825176 C109.677031,66.2924814 109.058875,68.5185851 109.058875,68.5185851 C109.058875,68.5185851 108.975985,69.3075839 109.311757,69.5611907 C109.647528,69.8147974 110.66327,75.0560037 110.66327,75.0560037 L112.83946,80.8044235 C112.83946,80.8044235 119.650415,80.1281388 118.94937,82.2697069 C118.248325,84.4112751 112.62732,83.9604186 112.62732,83.9604186 L110.548069,82.1288143 C110.548069,82.1288143 107.738269,77.8738565 107.457289,77.5638927 C107.176309,77.2539289 104.956567,72.0423101 104.956567,72.0423101 C104.956567,72.0423101 104.844175,70.9997045 104.366509,70.4643125 C103.888843,69.9289204 104.254117,69.0229808 104.254117,69.0229808 C104.254117,69.0229808 103.664059,62.2094126 104.282215,61.3922353 C104.900371,60.575058 109.171267,60.9399699 109.817521,63.3915019 Z" id="Path" fill="#EE8E9E"></path>
                    <path d="M105.649073,59.3903348 L103.892319,60.4672092 C103.892319,60.4672092 103.39039,62.1958759 103,62.4225863 C103,62.4225863 106.513508,60.4388704 109.161186,65 C109.161186,65 109.077531,64.4063022 109.440036,64.1229142 C109.802541,63.8395262 109.718886,62.6209579 109.718886,62.6209579 C109.815342,62.4284177 109.899179,62.2296134 109.969851,62.0258431 C110.220816,61.4023895 108.915799,57.8317009 105.649073,59.3903348 Z" id="Path" fill="#000000" opacity="0.1"></path>
                    <path d="M105.648681,59.3903348 L103.892187,60.4672092 C103.892187,60.4672092 103.390332,62.1958759 103,62.4225863 C103,62.4225863 106.512987,60.4388704 109.160274,65 C109.160274,65 109.076631,64.4063022 109.439082,64.1229142 C109.801533,63.8395262 109.717891,62.6209579 109.717891,62.6209579 C109.814332,62.4284177 109.898157,62.2296134 109.968818,62.0258431 C110.225322,61.4023895 108.909346,57.8317009 105.648681,59.3903348 Z" id="Path" fill="#434175"></path>
                    <circle id="Oval" fill="#FBD56F" cx="89.5" cy="103.5" r="5.5"></circle>
                    <circle id="Oval" fill="#000000" opacity="0.1" cx="89.5" cy="103.5" r="5.5"></circle>
                    <circle id="Oval" fill="#FBD56F" cx="90.5" cy="103.5" r="5.5"></circle>
                    <ellipse id="Oval" fill="#7CBE35" cx="12.5" cy="105" rx="6.5" ry="1"></ellipse>
                    <path d="M15.3240936,102.985049 C15.6193584,102.726775 15.8924782,102.426617 15.978105,102.052468 C16.0637318,101.678318 15.8954309,101.239949 15.521921,101.104529 C15.102645,100.952356 14.6538426,101.227384 14.3142882,101.505204 C13.9747337,101.783024 13.5864606,102.098538 13.1420871,102.039903 C13.6070931,101.641513 13.8167303,101.041484 13.6942322,100.45954 C13.6766858,100.341837 13.6256582,100.230853 13.5465998,100.138441 C13.314817,99.9038998 12.8925884,99.9988332 12.6135632,100.190096 C11.727769,100.779242 11.4812229,101.917048 11.4767939,102.940375 C11.3867382,102.570414 11.4620307,102.186491 11.4605544,101.806758 C11.459078,101.427024 11.3483538,101.008199 11.0176572,100.804372 C10.8068591,100.697694 10.5701381,100.645221 10.3311667,100.652199 C9.93255928,100.638238 9.48966216,100.675932 9.21801859,100.95096 C8.87994045,101.294396 8.96704355,101.868185 9.26083198,102.245127 C9.5546204,102.622069 9.99899385,102.85661 10.4138408,103.117677 C10.7436815,103.30392 11.0251789,103.557714 11.2376295,103.860392 C11.2629479,103.904783 11.2832369,103.951578 11.2981587,104 L13.7946222,104 C14.3505043,103.72844 14.8649916,103.387028 15.3240936,102.985049 Z" id="Path" fill="#7CBE35"></path>
                    <path d="M61,42.579519 L66.1635745,40 L68.0699574,41.7418542 L68.5234043,42.9868115 L69,45.0789372 L68.5805957,45.9953452 L65.2784681,46.5954228 C65.2784681,46.5954228 63.5191489,46.4935997 63.2468085,46.6293638 C62.9744681,46.765128 61.8633191,47 61.8633191,47 L61,44.8807215 L61,42.579519 Z" id="Path" fill="#FBD56F"></path>
                </g>
            </g>
        </g>
    </g>
</svg>