<svg xmlns="http://www.w3.org/2000/svg" width="121" height="110" viewBox="0 0 121 110">
    <defs>
        <linearGradient id="a" x1="50%" x2="50%" y1="100%" y2=".007%">
            <stop offset="0%" stop-color="gray" stop-opacity=".25"/>
            <stop offset="54%" stop-color="gray" stop-opacity=".12"/>
            <stop offset="100%" stop-color="gray" stop-opacity=".1"/>
        </linearGradient>
        <linearGradient id="b" x1="50%" x2="50%" y1="99.993%" y2="0%">
            <stop offset="0%" stop-color="gray" stop-opacity=".25"/>
            <stop offset="54%" stop-color="gray" stop-opacity=".12"/>
            <stop offset="100%" stop-color="gray" stop-opacity=".1"/>
        </linearGradient>
        <linearGradient id="c" x1="50%" x2="50%" y1="100%" y2="0%">
            <stop offset="0%" stop-color="gray" stop-opacity=".25"/>
            <stop offset="54%" stop-color="gray" stop-opacity=".12"/>
            <stop offset="100%" stop-color="gray" stop-opacity=".1"/>
        </linearGradient>
        <linearGradient id="d" x1="49.953%" x2="49.953%" y1="100.011%" y2=".001%">
            <stop offset="0%" stop-color="gray" stop-opacity=".25"/>
            <stop offset="54%" stop-color="gray" stop-opacity=".12"/>
            <stop offset="100%" stop-color="gray" stop-opacity=".1"/>
        </linearGradient>
        <linearGradient id="e" x1="50.001%" x2="50.001%" y1="100%" y2="-.003%">
            <stop offset="0%" stop-color="gray" stop-opacity=".25"/>
            <stop offset="54%" stop-color="gray" stop-opacity=".12"/>
            <stop offset="100%" stop-color="gray" stop-opacity=".1"/>
        </linearGradient>
    </defs>
    <g fill="none" fill-rule="evenodd">
        <circle cx="11.009" cy="11.027" r="10.932" fill="url(#a)" opacity=".5" transform="translate(47 5)"/>
        <circle cx="58" cy="16" r="11" fill="#F5F5F5"/>
        <path fill="#333" d="M64 16.578C64 20.211 61.448 22 58.134 22 54.821 22 52 20.212 52 16.578 52 12.944 54.687 10 58 10s6 2.944 6 6.578z"/>
        <path fill="#7CBE35" d="M58.131 26A10.69 10.69 0 0 0 64 24.258C63.606 22.126 62.11 22 62.11 22h-8.256s-1.412.115-1.854 2.077A10.688 10.688 0 0 0 58.131 26z"/>
        <path fill="#000" d="M56 20h3v2.547c0 .387-.15.758-.418 1.03-.268.273-.63.425-1.008.423h-.168c-.778-.006-1.406-.655-1.406-1.453V20z" opacity=".1"/>
        <path fill="#FDA57D" d="M56.263 20h2.466c.15 0 .271.124.271.277v2.273c0 .385-.15.754-.416 1.025A1.406 1.406 0 0 1 57.58 24h-.169c-.78-.005-1.411-.653-1.411-1.45v-2.27a.274.274 0 0 1 .263-.28z"/>
        <path fill="#000" d="M56 20.57c.967.57 2.031.574 3 .012V20h-3v.57z" opacity=".1"/>
        <circle cx="58" cy="16" r="5" fill="#FDA57D"/>
        <path fill="#000" d="M52 17s3.027-.391 5.32-3.53c0 0 3.027 3.562 5.136 3.17 0 0 1.224-1.372 0-2.745-1.223-1.372-2.171-3.103-3.79-2.875-1.62.229-3.61.327-4.465 1.145C53.345 12.982 52 17 52 17z" opacity=".1"/>
        <path fill="#333" d="M52 17s3.027-.391 5.32-3.53c0 0 3.027 3.562 5.136 3.17 0 0 1.224-1.372 0-2.745-1.223-1.372-2.171-3.103-3.79-2.875-1.62.229-3.61.327-4.465 1.145C53.345 12.982 52 17 52 17z"/>
        <ellipse cx="52.5" cy="16" fill="#FDA57D" rx="1" ry="1"/>
        <ellipse cx="62.5" cy="16" fill="#FDA57D" rx="1" ry="1"/>
        <circle cx="10.987" cy="10.939" r="10.932" fill="url(#b)" opacity=".5" transform="translate(94 5)"/>
        <circle cx="105" cy="16" r="11" fill="#F5F5F5"/>
        <path fill="#7CBE35" d="M105.134 27A10.675 10.675 0 0 0 111 25.257c-.393-2.135-1.89-2.257-1.89-2.257h-8.257s-1.411.115-1.853 2.079A10.673 10.673 0 0 0 105.134 27z"/>
        <ellipse cx="104.5" cy="16" fill="#72351C" rx="5.5" ry="5"/>
        <path fill="#000" d="M103.001 21H106v2.546c0 .386-.149.755-.414 1.028a1.398 1.398 0 0 1-1.002.426h-.168c-.782 0-1.416-.65-1.416-1.453V21h.001z" opacity=".1"/>
        <path fill="#FDA57D" d="M103.271 20h2.459c.15 0 .27.124.27.277v2.27c0 .385-.15.755-.415 1.027a1.398 1.398 0 0 1-1.001.426h-.168c-.375 0-.736-.153-1.001-.426a1.473 1.473 0 0 1-.415-1.027v-2.27c0-.153.12-.277.27-.277h.001z"/>
        <path fill="#000" d="M103 21.57c.967.57 2.031.574 3 .012V21h-3v.57z" opacity=".1"/>
        <circle cx="105" cy="17" r="5" fill="#FDA57D"/>
        <path fill="#000" d="M101 12.315s2.093 4.47 8 1.876l-1.375-2.27-2.437-.921L101 12.315z" opacity=".1"/>
        <path fill="#72351C" d="M101 12.31s2.093 4.477 8 1.88l-1.375-2.268-2.437-.922L101 12.31z"/>
        <path fill="#72351C" d="M101.1 12.34c.134-.426.368-.812.68-1.127.937-.94 2.469-1.139 3.259-2.213a.635.635 0 0 1 .053.506.622.622 0 0 1-.335.38c.754 0 1.628-.073 2.055-.703a1.45 1.45 0 0 1-.239 1.514c.668.03 1.383.491 1.425 1.17.029.452-.25.885-.616 1.14-.38.239-.802.4-1.243.474-1.272.285-5.869 1.479-5.04-1.142z"/>
        <path fill="#72351C" fill-rule="nonzero" d="M110 17h-.133l-2.578 2.287c-2.486-1.164-4.31 0-4.31 0l-2.706-2.192-.273.033A4.998 4.998 0 0 0 105.063 22a4.998 4.998 0 0 0 4.935-5H110zm-5.008 3.174c-.973 0-1.76-.197-1.76-.44 0-.245.788-.441 1.76-.441s1.761.196 1.761.44-.789.44-1.76.44z"/>
        <ellipse cx="100.5" cy="17" fill="#FDA57D" rx="1" ry="1"/>
        <ellipse cx="109.5" cy="17" fill="#FDA57D" rx="1" ry="1"/>
        <ellipse cx="11" cy="10.999" fill="url(#b)" opacity=".5" rx="10.932" ry="10.861" transform="translate(70 24)"/>
        <circle cx="81" cy="34" r="11" fill="#F5F5F5"/>
        <path fill="#333" d="M76.878 35s-1.21 5.907-1.878 5.578c0 0 6.373 5.45 12 0 0 0-.99-4.162-2.422-5.578h-7.7z"/>
        <path fill="#7CBE35" d="M81.13 45A10.684 10.684 0 0 0 87 43.257C86.607 41.122 85.11 41 85.11 41h-8.256s-1.412.115-1.854 2.079A10.682 10.682 0 0 0 81.13 45z"/>
        <circle cx="81" cy="34" r="5" fill="#333"/>
        <path fill="#000" d="M80.001 39H83v2.547c0 .801-.632 1.452-1.413 1.453h-.17C80.633 43 80 42.35 80 41.547V39h.001z" opacity=".1"/>
        <path fill="#BE7C5E" d="M80.275 39h2.455c.15 0 .27.124.27.278v2.273c-.004.802-.637 1.45-1.416 1.449h-.17c-.78 0-1.414-.652-1.414-1.456v-2.266c0-.154.12-.278.27-.278h.005z"/>
        <path fill="#000" d="M80 39.57c.967.57 2.031.574 3 .012V39h-3v.57z" opacity=".1"/>
        <circle cx="81" cy="35" r="5" fill="#BE7C5E"/>
        <path fill="#333" d="M77 33h9s-.769-3.194-4.176-2.99C78.417 30.212 77 33 77 33z"/>
        <ellipse cx="76.5" cy="35" fill="#BE7C5E" rx="1" ry="1"/>
        <ellipse cx="86.5" cy="35" fill="#BE7C5E" rx="1" ry="1"/>
        <path fill="#000" d="M77 33h9s-.769-3.194-4.176-2.99C78.417 30.212 77 33 77 33z" opacity=".1"/>
        <path fill="#CCC" fill-rule="nonzero" d="M81.5 24.476c5.536 0 10.024 4.488 10.024 10.024 0 5.536-4.488 10.024-10.024 10.024-5.536 0-10.024-4.488-10.024-10.024 0-5.536 4.488-10.024 10.024-10.024zm0-2.476C74.596 22 69 27.596 69 34.5S74.596 47 81.5 47 94 41.404 94 34.5c-.008-6.9-5.6-12.492-12.5-12.5z"/>
        <path fill="#CCC" d="M80 19h3v3h-3zM86.19 22.928l1.612-2.663 2.548 1.52-1.612 2.663zM91.397 26.858l2.737-1.506 1.44 2.58-2.736 1.506zM91.441 41.993l1.576-2.503 2.653 1.647-1.575 2.502zM67.234 27.933l1.441-2.58 2.737 1.505-1.441 2.581zM67.141 41.137l2.654-1.646 1.575 2.503-2.654 1.646zM72.459 21.784l2.548-1.52 1.612 2.663-2.548 1.52zM80 47h3v3h-3zM86.19 46.15l2.548-1.52 1.612 2.663-2.548 1.52zM73.122 47.287l1.628-2.672 2.556 1.535-1.627 2.671zM65 33h4v3h-4zM98 36h-4v-3h4z"/>
        <path fill="#CCC" fill-rule="nonzero" d="M105.5 6.476c5.536 0 10.024 4.488 10.024 10.024 0 5.536-4.488 10.024-10.024 10.024-5.536 0-10.024-4.488-10.024-10.024 0-5.536 4.488-10.024 10.024-10.024zm0-2.476C98.596 4 93 9.596 93 16.5S98.596 29 105.5 29 118 23.404 118 16.5c-.008-6.9-5.6-12.492-12.5-12.5z"/>
        <path fill="#CCC" d="M103 1h3v3h-3zM109.816 4.754l1.611-2.663 2.548 1.52-1.611 2.662zM115.024 8.685l2.737-1.506 1.44 2.58-2.736 1.507zM115.066 23.82l1.576-2.502 2.653 1.646-1.575 2.503zM90.862 9.76l1.441-2.582 2.737 1.506-1.441 2.581zM90.766 22.964l2.654-1.647 1.575 2.503-2.654 1.646zM96.086 3.61l2.548-1.52 1.611 2.663-2.548 1.52zM103 29h3v3h-3zM109.817 27.977l2.548-1.52 1.611 2.663-2.548 1.52zM96.814 28.956l1.627-2.672 2.556 1.535-1.627 2.671zM89 15h4v3h-4zM121 18h-4v-3h4z"/>
        <path fill="#CCC" fill-rule="nonzero" d="M57.513 5.476h.354c5.473.186 9.785 4.72 9.692 10.19-.094 5.468-4.559 9.853-10.034 9.853h-.354c-5.473-.187-9.785-4.721-9.692-10.19.094-5.47 4.559-9.854 10.034-9.853zm0-2.476c-6.827 0-12.395 5.467-12.511 12.287-.117 6.82 5.26 12.473 12.084 12.706.146 0 .292.007.437.007 6.813-.02 12.358-5.48 12.475-12.285.117-6.805-5.237-12.453-12.045-12.706-.145 0-.291-.008-.437-.008L57.513 3z"/>
        <path fill="#CCC" d="M56.339 3.105L56.448 0l2.97.103-.108 3.104zM62.969 4.15l1.703-2.605 2.494 1.606-1.704 2.606zM68.034 8.26l2.788-1.411 1.35 2.63-2.788 1.41zM67.55 23.387l1.662-2.447 2.594 1.737-1.661 2.447zM43.848 8.5l1.53-2.53 2.683 1.6-1.53 2.53zM43.578 21.834l2.723-1.553 1.486 2.567-2.722 1.553zM49.286 2.537l2.6-1.431 1.517 2.716-2.6 1.431zM55.362 31.048l.108-3.104 2.971.102-.108 3.105zM62.156 27.36l2.6-1.43 1.517 2.716-2.6 1.431zM48.394 28.027l1.704-2.605 2.493 1.607-1.704 2.605zM41.87 13.798l3.597.124-.093 2.638-3.597-.124zM73.68 17.53l-3.597-.123.092-2.639 3.597.124z"/>
        <ellipse cx="9.958" cy="9.978" fill="url(#c)" opacity=".5" rx="9.958" ry="9.884" transform="translate(0 45)"/>
        <circle cx="9.5" cy="54.5" r="9.5" fill="#E6E6E6"/>
        <path fill="#CCC" d="M9.62 64c1.913.004 3.784-.603 5.38-1.744C14.639 60.122 13.266 60 13.266 60H5.7S4.405 60.115 4 62.08c1.646 1.253 3.609 1.924 5.62 1.92z"/>
        <circle cx="9.5" cy="54.5" r="4.5" fill="#CCC"/>
        <path fill="#000" d="M8 58h3v2.547C11 61.349 10.366 62 9.583 62h-.16a1.399 1.399 0 0 1-1.006-.423A1.472 1.472 0 0 1 8 60.547V58z" opacity=".1"/>
        <path fill="#CCC" d="M8.096 58h2.815c.05 0 .089.04.089.091v2.456C11 61.349 10.367 62 9.587 62h-.168a1.394 1.394 0 0 1-1.003-.423A1.474 1.474 0 0 1 8 60.547V58.09c0-.05.04-.091.089-.091h.007z"/>
        <path fill="#000" d="M8 59.569c.967.57 2.031.575 3 .014V59H8v.569z" opacity=".1"/>
        <ellipse cx="9.5" cy="55" fill="#CCC" rx="4.5" ry="4"/>
        <path fill="#000" d="M7 50.987s1.832 3.352 7 1.405l-1.201-1.702-2.134-.69L7 50.987z" opacity=".1"/>
        <path fill="#CCC" d="M7 50.987s1.832 3.352 7 1.405l-1.201-1.702-2.134-.69L7 50.987z"/>
        <path fill="#CCC" d="M7.084 50.671c.116-.34.317-.65.585-.9.803-.754 2.113-.913 2.793-1.771.074.123.09.27.044.405a.512.512 0 0 1-.287.302c.646 0 1.397-.057 1.762-.563.184.408.104.88-.205 1.212.574.024 1.186.393 1.222.936.026.362-.214.704-.528.912a3.033 3.033 0 0 1-1.066.38c-1.086.23-5.025 1.184-4.32-.913z"/>
        <circle cx="5.5" cy="55.5" r="1" fill="#CCC"/>
        <circle cx="14.5" cy="55.5" r="1" fill="#CCC"/>
        <ellipse cx="9.972" cy="10" fill="url(#c)" opacity=".5" rx="9.884" ry="9.958" transform="translate(1 44)"/>
        <circle cx="11.5" cy="53.5" r="9.5" fill="#F5F5F5"/>
        <path fill="#CCC" d="M11.62 63c1.913.004 3.784-.603 5.38-1.744C16.639 59.122 15.266 59 15.266 59H7.7S6.405 59.115 6 61.08c1.646 1.253 3.609 1.924 5.62 1.92z"/>
        <circle cx="11.5" cy="53.5" r="4.5" fill="#CCC"/>
        <path fill="#000" d="M10 57h3v2.547c0 .802-.634 1.453-1.417 1.453h-.166C10.634 61 10 60.35 10 59.547V57z" opacity=".1"/>
        <path fill="#CCC" d="M10.09 57h2.82c.05 0 .09.04.09.091v2.452a1.47 1.47 0 0 1-.413 1.03 1.4 1.4 0 0 1-1.003.427h-.168C10.634 61 10 60.35 10 59.55v-2.457c0-.025.009-.049.026-.066a.088.088 0 0 1 .065-.027z"/>
        <path fill="#000" d="M10 58.568c.967.571 2.031.576 3 .014V58h-3v.568z" opacity=".1"/>
        <ellipse cx="11.5" cy="54" fill="#CCC" rx="4.5" ry="4"/>
        <path fill="#000" d="M8 50.987s1.832 3.352 7 1.405l-1.201-1.702-2.134-.69L8 50.987z" opacity=".1"/>
        <path fill="#CCC" d="M8 49.987s1.832 3.352 7 1.405l-1.201-1.702-2.134-.69L8 49.987z"/>
        <path fill="#CCC" d="M8.085 49.671c.116-.34.317-.65.585-.9.803-.754 2.113-.913 2.792-1.771.075.123.09.27.045.405a.512.512 0 0 1-.287.302c.645 0 1.396-.057 1.761-.563.184.408.105.88-.204 1.212.573.024 1.185.393 1.221.936.026.362-.214.704-.528.912a3.031 3.031 0 0 1-1.065.38c-1.09.23-5.031 1.184-4.32-.913z"/>
        <circle cx="7.5" cy="54.5" r="1" fill="#CCC"/>
        <circle cx="15.5" cy="54.5" r="1" fill="#CCC"/>
        <path fill="url(#d)" d="M48.536 20.594v.46l-1.34-.115v2.878l-3.504 4.965-.216-.123-.476.576L47.528 32v-1.037l-.254-.144c.317-1.144 1.615-5.705 2.356-6.307 0 0 1.34-.923 2.062-2.19.724-1.267.36-5.645-3.156-1.728z"/>
        <path fill="url(#e)" fill-rule="nonzero" d="M40.911 31.585s-4.872-1.008-7.545-2.069a11.64 11.64 0 0 0-3.922-.823l-2.923-.094-1.456-.855.448-1.15c.045-.02.09-.04.135-.065l.042-.247c.233-.057.463-.125.69-.205a1.749 1.749 0 0 0 .576 1.512c.34.37.824.579 1.33.576a1.81 1.81 0 0 0 1.324-.564c.34-.362.51-.847.469-1.337l-.21-2.582-.105.054-.014-.172-.038.02a6.706 6.706 0 0 0 .118-7.698l.113-.102V12.94a2.62 2.62 0 0 0-.12-.104v-.013c-2.41-2.193-5.722-2.02-8.118-1.462-1.82.422-3.169 1.924-3.363 3.745-3.198.853-2.13 2.495-2.18 3.13-.249 3.092.768 4.911 1.874 5.964.459.463.996.846 1.587 1.131l-.7 1.37-.205-.007-.56 1.635h-.027l-6.937 4.6-4.793 5.175a1.493 1.493 0 0 0-.243 1.686c.278.558.876.893 1.508.847l4.903-.363s3.468 6.644 2.39 13.288c-.361 2.232-.21 3.598.15 4.43-.1.9-.353 1.777-.747 2.595-1.316 2.693-1.316 5.503.358 8.781l.478 16.978s.597 7.963 0 9.602c-.597 1.639.239 9.484.239 9.484h-.117v4.334l8.961.234s2.091-.97 2.466-1.705l4.504 1.356s4.956-.837 2.057-1.992c-2.164-.862-2.702-2.092-2.838-2.662l7.084-19.939s-1.316-16.978-6.1-22.833l-.485-3.452h.067l1.017-20.16.084.012-.024.007c3.38.5 6.095.236 7.895-.12a12.505 12.505 0 0 0 2.286-.627l.134-.053h.029a6.964 6.964 0 0 0 1.556-.868L47 32.49l-4.545-3.07-1.544 2.164zm-18.777 68.572l2.273-15.573v-7.956l4.066 8.313-4.375 18.016-.23-.063-1.01 3.549a2.331 2.331 0 0 1-.724-1.01v-5.276z"/>
        <path fill="#535461" d="M12.806 34S5.93 35.544 7.144 45c0 0 2.488-.84 3.357-.935.824-.092 3.317.164 3.317.164L15 39.954 12.806 34z"/>
        <path fill="#FDA57D" d="M46.4 21.928v2.862L43 29.783 46.4 32s1.512-5.838 2.325-6.525c0 0 1.28-.916 1.978-2.175.697-1.258.35-5.608-3.024-1.716v.458l-1.279-.114zM19.05 28.927l1.262-2.44a.47.47 0 0 1 .396-.25l4.8-.236a.474.474 0 0 1 .403.186.44.44 0 0 1 .057.43l-1.237 3.094a.47.47 0 0 1-.478.287l-4.825-.415a.47.47 0 0 1-.369-.23.44.44 0 0 1-.008-.426z"/>
        <path fill="#EDEEF9" d="M19.876 28L19 31l9-.376-3.457-2.422zM42 30.517l.421-.517L46 32.069V33z"/>
        <path fill="#4D8AF0" d="M16.495 55s.65 2.543-.596 5.111c-1.248 2.57-1.253 5.249.34 8.376l.457 16.192s.57 7.594 0 9.157c-.57 1.562.228 9.045.228 9.045h6.38v-5.023l2.166-14.852v-7.594l3.874 7.928-4.448 18.315L30.707 104 38 83.453s-1.253-16.193-5.811-21.776l-.851-6.093L16.495 55z"/>
        <path fill="#333" d="M16 107.796V104h6.525s.458 1.539 3.434 1.846c2.976.307-1.374 2.154-1.374 2.154L16 107.796z"/>
        <path fill="#333" d="M23 104.709L24.131 101l6.259 1.59s-.02 1.615 2.743 2.641-1.96 1.769-1.96 1.769L23 104.709z"/>
        <path fill="#000" d="M30.614 56.61L16 56c.18.906.218 1.837.11 2.756.67 1.637 2.103 1.188 2.103 1.188L31 59.534l-.386-2.923z" opacity=".1"/>
        <path fill="#535461" d="M18.584 29L12 33.459l1.305 7.133s3.293 6.449 2.27 12.897c-1.023 6.449 2.27 5.456 2.27 5.456l12.994-.397.965-19.565s7.838 1.113 11.357-1.613L46 33.03l-4.314-2.972-1.476 2.108s-4.62-.987-7.162-2.013a10.838 10.838 0 0 0-3.721-.798L18.584 29z"/>
        <path fill="#000" d="M19.056 61S18.22 64.763 23 71M32 39.743S37.535 38 39.957 38c2.422 0 2.018.989 2.018.989s-3.863 1.626-9.975.754zM26.738 26l-2.541.274c-.08.01-.153.103-.197.247.559.926 1.258 1.479 2.017 1.479.271-.003.537-.07.771-.197l.195-1.08c.065-.358-.064-.743-.245-.722z" opacity=".1"/>
        <circle cx="24.5" cy="21.5" r="6.5" fill="#FDA57D"/>
        <path fill="#000" d="M29.866 14.713v2.67l-.328.296a1.098 1.098 0 0 0 .328 1.841s-.542 4.272-1.22 5.875l1.153-.601.196 2.423c.037.46-.123.913-.44 1.252a1.69 1.69 0 0 1-1.232.531c-.585 0-1.127-.3-1.432-.791a1.63 1.63 0 0 1-.061-1.616c.276-.529.764-1.085 1.004-1.868.875-2.874-.876-2.337-1.289-1.802-.413.534.067 1.936.067 1.936s1.289 2.336-5.49 1.802c0 0-4.474-.935-4-6.877.049-.595-.948-2.136 2.034-2.937.182-1.709 1.44-3.118 3.137-3.513 2.239-.516 5.33-.682 7.573 1.38z" opacity=".1"/>
        <path fill="#72351C" d="M29.87 14.714v2.67l-.332.296a1.098 1.098 0 0 0 .328 1.84s-.542 4.273-1.22 5.875l1.153-.6.196 2.422c.037.46-.123.913-.44 1.252a1.69 1.69 0 0 1-1.232.531c-.585 0-1.127-.3-1.432-.791a1.63 1.63 0 0 1-.061-1.616c.276-.529.764-1.085 1.004-1.868.875-2.874-.876-2.336-1.289-1.802-.413.535.067 1.936.067 1.936s1.289 2.336-5.49 1.802c0 0-4.474-.934-4-6.876.049-.595-.948-2.137 2.034-2.937.182-1.709 1.44-3.118 3.137-3.513 2.237-.518 5.328-.683 7.576 1.38z"/>
    </g>
</svg>
