<svg xmlns="http://www.w3.org/2000/svg" width="159" height="124" viewBox="0 0 159 124">
    <defs>
        <linearGradient id="a" x1="49.99%" x2="49.99%" y1="100%" y2=".004%">
            <stop offset="0%" stop-color="gray" stop-opacity=".25"/>
            <stop offset="54%" stop-color="gray" stop-opacity=".12"/>
            <stop offset="100%" stop-color="gray" stop-opacity=".1"/>
        </linearGradient>
    </defs>
    <g fill="none" fill-rule="evenodd">
        <ellipse cx="83" cy="108.5" fill="#7CBE35" opacity=".1" rx="20" ry="2.5"/>
        <ellipse cx="64.5" cy="119.5" fill="#7CBE35" opacity=".1" rx="5.5" ry="1"/>
        <ellipse cx="115.5" cy="123.5" fill="#7CBE35" opacity=".1" rx="5.5" ry="1"/>
        <ellipse cx="148.5" cy="110.5" fill="#7CBE35" opacity=".1" rx="5.5" ry="1"/>
        <ellipse cx="22" cy="116.5" fill="#7CBE35" opacity=".1" rx="20" ry="4.5"/>
        <path fill="#7CBE35" d="M9.28 46H23v19.051H10.282c-.033.196-.066.392-.101.589H23V81a43.716 43.716 0 0 1-1.142-.488l-.231-.108a21.27 21.27 0 0 1-1.454-.76 22.573 22.573 0 0 1-5.398-4.282c-.047-.046-.09-.094-.133-.14a24.747 24.747 0 0 1-.642-.737l-.231-.281a20.878 20.878 0 0 1-.714-.941c-.034-.047-.067-.096-.101-.142a20.412 20.412 0 0 1-2.38-4.422A18.495 18.495 0 0 1 9.9 66.6c-.02-.062-.035-.126-.051-.187C9.087 63.363 9 60.192 9 57.037v-1.102c0-1.276.012-2.555.036-3.838l.02-.996a130.881 130.881 0 0 1 .113-3.239c0-.135.012-.27.02-.404.029-.487.057-.972.09-1.458zM23 25h-8a59.942 59.942 0 0 1 4.256-5.794A71.857 71.857 0 0 1 23 15v10zM23 26.006V46H10c0-.058.009-.118.014-.176l.036-.472c.012-.183.03-.368.045-.555.016-.187.034-.4.054-.6.02-.198.038-.4.06-.606.02-.206.04-.4.063-.596.023-.198.044-.4.068-.597a58.82 58.82 0 0 1 .155-1.19c0-.035.01-.07.014-.104a50.36 50.36 0 0 1 .957-5.018c.422-1.735.96-3.435 1.612-5.087A39.087 39.087 0 0 1 15.503 26l7.497.006z" opacity=".1"/>
        <path fill="#7CBE35" fill-rule="nonzero" d="M26.003 46.847V66.01H55.86V46.847H26.003zm0 19.755v16.464c.17.035.34.07.508.1.228.044.456.084.686.119.044 0 .09.014.135.018a14.273 14.273 0 0 0 .967.12l.328.028.267.02c.144.011.287.02.43.025.088 0 .176 0 .266.01h.976c.119 0 .237 0 .354-.01.083 0 .165 0 .247-.01a.537.537 0 0 0 .07 0c.068 0 .137 0 .203-.01h.048l.456-.037c.152-.014.304-.03.456-.047l.313-.038a27.29 27.29 0 0 0 3.782-.81c2.785-.78 5.504-1.874 8.294-2.673 3.62-1.042 7.598-1.545 11.071-.292V66.602H26.003zM55.86 25.513V.003a38.144 38.144 0 0 0-9.7 1.143C38.597 3.056 31.807 7.199 26 12.491v13.022h1.498v.592H26v20.15h29.86v-20.15h-22.2v-.592h22.2zm38.361-8.617c-1.87-.067-3.73-.662-5.413-1.582-3.216-1.759-5.79-4.476-8.656-6.768C74.19 3.771 66.79.89 59.205.176v25.337h42.622l.105-.113-7.71-8.504zm3.884-.699l4.117 4.545v-5.734c-1.382.171-2.59.584-4.114 1.19h-.003zm4.117 70.945v-20.54h-8.776a6.331 6.331 0 0 0-.075-.265c.026.09.049.178.073.265H59.205v14.856c.326.243.646.498.964.756.344.282.683.57 1.023.857l.343.284c.164.138.33.272.495.408.332.27.666.536 1.002.798.168.134.338.263.507.393a69.168 69.168 0 0 0 8.49 5.584 70.55 70.55 0 0 0 3.368 1.766c.683.336 1.372.66 2.065.974a75.564 75.564 0 0 0 20.117 5.891c1.541.229 3.09.409 4.643.54V87.142h.137-.137zM59.205 26.105v20.15h43.02v-20.15h-43.02zm0 20.742V66.01h43.02V46.847h-43.02zm46.36-31.867v6.41l5.254-5.8a56.368 56.368 0 0 0-5.255-.61zm0 31.867V66.01h41.843V46.847h-41.844zm41.695 41.818l.152-22.063h-41.848v33.332c2.695.113 5.395.08 8.086-.098h.048c1.283-.082 2.563-.2 3.839-.355h.029a70.361 70.361 0 0 0 19.726-5.293l9.968-5.523zm8.218-38.656a45.33 45.33 0 0 0-.488-1.11 45.477 45.477 0 0 0-.979-2.038h-3.264v19.15H159c-.006-5.421-1.372-10.97-3.52-16.015l-.002.013zm-4.731 16.607V85.58c2.324-2.24 4.289-4.804 5.703-7.735 1.702-3.53 2.477-7.351 2.544-11.244l-8.247.014zm0-25.339v4.993h2.959a54.183 54.183 0 0 0-2.958-5.006l-.001.013zM122.37 18.74a59.223 59.223 0 0 0-7.723-2.39l-8.042 8.868-.152.17.103.113h28.616a61.082 61.082 0 0 0-12.802-6.76zm13.645 7.365H106.15l-.587.541v19.61h41.841v-9.503a59.702 59.702 0 0 0-11.39-10.648z" opacity=".1"/>
        <path fill="#7CBE35" d="M23 37.006V47H10c0-.058.009-.12.014-.178l.036-.475c.012-.186.03-.372.045-.56.016-.189.034-.404.054-.605.02-.2.038-.404.06-.612.02-.208.04-.402.063-.601.023-.2.044-.403.068-.602a59.819 59.819 0 0 1 .155-1.201c0-.035.01-.07.014-.104.234-1.705.554-3.395.957-5.062L23 37.006z" opacity=".1"/>
        <path fill="#7CBE35" d="M9.28 46H23v19.051H10.282c-.033.196-.066.392-.101.589H23V81a43.716 43.716 0 0 1-1.142-.488l-.231-.108a21.27 21.27 0 0 1-1.454-.76 22.573 22.573 0 0 1-5.398-4.282c-.047-.046-.09-.094-.133-.14a24.747 24.747 0 0 1-.642-.737l-.231-.281a20.878 20.878 0 0 1-.714-.941c-.034-.047-.067-.096-.101-.142a20.412 20.412 0 0 1-2.38-4.422A18.495 18.495 0 0 1 9.9 66.6c-.02-.062-.035-.126-.051-.187C9.087 63.363 9 60.192 9 57.037v-1.102c0-1.276.012-2.555.036-3.838l.02-.996a130.881 130.881 0 0 1 .113-3.239c0-.135.012-.27.02-.404.029-.487.057-.972.09-1.458zM37 28.817V46H26V28.817h1.567V23h6.44v5.817zM26 47h11v19H26zM26 67h11v15.09a30.869 30.869 0 0 1-4.285.801c-.16.016-.318.032-.477.045l-.478.035h-.05c-.07 0-.14.007-.212.009a.62.62 0 0 1-.074 0c-.087 0-.173.008-.259.01-.122 0-.245.007-.37.01h-1.022c-.073 0-.185 0-.279-.01-.15 0-.299-.013-.45-.023l-.277-.02-.345-.027c-.242-.02-.478-.046-.724-.075-.094-.012-.193-.023-.288-.038-.048 0-.096-.011-.14-.017a20.5 20.5 0 0 1-.718-.113c-.178-.027-.355-.06-.533-.094L26 67zM93 27h9v19h-9zM102 47v19H59v-8.194h22.903v4.833h11.433V47zM103 87.574h-.136V100a74.945 74.945 0 0 1-4.627-.534 75.689 75.689 0 0 1-20.046-5.831 73.036 73.036 0 0 1-5.413-2.709 69.08 69.08 0 0 1-10.454-7.1c-.455-.374-.91-.755-1.364-1.13a39.842 39.842 0 0 0-.96-.756V67.261h34.114c-.025-.086-.047-.173-.072-.261.026.088.05.175.073.261h8.749v20.304l.136.009zM125 25h-6v-1.766h2.689V18c.233.08.465.165.696.248v4.986H125V25zM139 46h-27.834.01H106V26.84h1.464v14.163h6.685V32.62h5.523V26h5.667v6.621h5.522v8.382H139z" opacity=".1"/>
        <path fill="#7CBE35" fill-rule="nonzero" d="M106 47v19.108h32.214V47H106zm40.955 41.603L147 73.48h-8.79v-6.781H106v33.236c2.64.113 5.286.08 7.923-.097h.046c1.258-.083 2.512-.2 3.762-.354h.029a68.003 68.003 0 0 0 19.328-5.278l9.867-5.602z" opacity=".1"/>
        <path fill="#7CBE35" d="M150.63 66H159c-.073 3.897-.92 7.722-2.778 11.256-1.541 2.935-3.687 5.502-6.222 7.744V72.8h.63V66zM159 66h-8V50h4.329c2.24 5.041 3.663 10.585 3.671 16zM97 33h5v6h-5zM97 46h5v1h-5z" opacity=".1"/>
        <path fill="#7CBE35" d="M97 46h5v4h-5zM97 57h5v6h-5zM97 70h5v6h-5zM101.857 86.6l.143.008h-.143V88H97v-6h4.857zM102 95v5a80.9 80.9 0 0 1-5-.577v-4.416l5-.007zM60 65.778h20v1H60zM60 67h20v2H60zM60 74h20v3H60zM80 82v3H64.382a71.249 71.249 0 0 1-2.009-1.751c-.458-.414-.915-.837-1.373-1.249h19zM79 90v3h-1.625A69.517 69.517 0 0 1 72 90h7zM114 48h4v4h-4zM29 30h4v4h-4zM29 40h4v4h-4zM29 48h4v4h-4zM29 58h4v4h-4zM29 67h4v4h-4zM29 76h4v4h-4zM129 48h4v4h-4zM114 58h4v4h-4zM129 58h4v4h-4zM114 68h4v4h-4zM129 68h4v4h-4zM114 77h4v4h-4zM129 77h4v4h-4zM114 87h4v4h-4zM129 87h4v4h-4zM114 100v-3h4v2.574z" opacity=".1"/>
        <path fill="#7CBE35" fill-rule="nonzero" d="M10 42v2h13v-2H10zm1.295 1.875h-1.066v-1.74h1.066v1.74zm1.294 0h-1.066v-1.74h1.066v1.74zm1.292 0h-1.066v-1.74h1.066v1.74zm1.294 0H14.11v-1.74h1.066v1.74zm1.293 0h-1.066v-1.74h1.066v1.74zm1.295 0h-1.066v-1.74h1.066v1.74zm1.294 0h-1.066v-1.74h1.066v1.74zm1.293 0h-1.066v-1.74h1.066v1.74zm1.294 0h-1.066v-1.74h1.066v1.74zm1.293 0h-1.07v-1.74h1.067l.003 1.74zM10 48v2h13v-2H10zm1.295 1.874h-1.066v-1.748h1.066v1.748zm1.294 0h-1.066v-1.748h1.066v1.748zm1.292 0h-1.066v-1.748h1.066v1.748zm1.294 0H14.11v-1.748h1.066v1.748zm1.293 0h-1.066v-1.748h1.066v1.748zm1.295 0h-1.066v-1.748h1.066v1.748zm1.294 0h-1.066v-1.748h1.066v1.748zm1.293 0h-1.066v-1.748h1.066v1.748zm1.294 0h-1.066v-1.748h1.066v1.748zm1.293 0h-1.07v-1.748h1.067l.003 1.748zM10 54v2h13v-2H10zm1.295 1.874h-1.066v-1.75h1.066v1.75zm1.294 0h-1.066v-1.75h1.066v1.75zm1.292 0h-1.066v-1.75h1.066v1.75zm1.294 0H14.11v-1.75h1.066v1.75zm1.293 0h-1.066v-1.75h1.066v1.75zm1.295 0h-1.066v-1.75h1.066v1.75zm1.294 0h-1.066v-1.75h1.066v1.75zm1.293 0h-1.066v-1.75h1.066v1.75zm1.294 0h-1.066v-1.75h1.066v1.75zm1.293 0h-1.07v-1.75h1.067l.003 1.75zM10 61v2h13v-2H10zm1.295 1.875h-1.066v-1.75h1.066v1.75zm1.294 0h-1.066v-1.75h1.066v1.75zm1.292 0h-1.066v-1.75h1.066v1.75zm1.294 0H14.11v-1.75h1.066v1.75zm1.293 0h-1.066v-1.75h1.066v1.75zm1.295 0h-1.066v-1.75h1.066v1.75zm1.294 0h-1.066v-1.75h1.066v1.75zm1.293 0h-1.066v-1.75h1.066v1.75zm1.294 0h-1.066v-1.75h1.066v1.75zm1.293 0h-1.07v-1.75h1.067l.003 1.75zM10 68c.052.189.111.376.173.562v-.436h1.07v1.75h-.57c.016.04.033.083.051.124H23v-2H10zm2.544 1.875h-1.07v-1.749h1.07v1.75zm1.297 0h-1.07v-1.749h1.07v1.75zm1.3 0h-1.07v-1.749h1.07v1.75zm1.299 0h-1.07v-1.749h1.07v1.75zm1.3 0h-1.07v-1.749h1.07v1.75zm1.3 0h-1.07v-1.749h1.07v1.75zm1.299 0h-1.07v-1.749h1.07v1.75zm1.299 0h-1.071v-1.749h1.07v1.75zm1.298 0h-1.073v-1.749h1.07l.003 1.75zM12 75c.038.04.074.083.111.125h.783v.838l.253.25V75.13h1.181v1.745h-.478c.047.041.093.084.145.125H23v-2H12zm3.758 1.87h-1.181v-1.745h1.181v1.745zm1.435 0H16.01v-1.745h1.182v1.745zm1.434 0h-1.18v-1.745h1.18v1.745zm1.433 0h-1.18v-1.745h1.18v1.745zm1.433 0h-1.18v-1.745h1.18v1.745zm1.433 0h-1.18v-1.745h1.18v1.745z" opacity=".1"/>
        <path fill="#7CBE35" d="M20 80c.131.053.264.104.399.154v-.05h1.145v.457l.243.08v-.538h1.145v.88A.643.643 0 0 0 23 81v-1h-3z" opacity=".1"/>
        <path fill="#7CBE35" fill-rule="nonzero" d="M101.865 87H102h-.135zm-8.752-20.583l.072.262c-.027-.094-.045-.182-.072-.27v.008zM28 26v.586h6.089V26H28zm73.865 60.992H102h-.135zM93.113 66.41l.072.262c-.027-.086-.045-.174-.072-.262zM101.865 87H102h-.135zm-8.752-20.583l.072.262c-.027-.094-.045-.182-.072-.27v.008z" opacity=".1"/>
        <path fill="#EEC5CD" d="M1.038 60.795L0 60.847l1.038 6.401L3.569 74l.747-1.768L102 65.045l-.018-2.868L87.267 57z"/>
        <path fill="#D48A9B" d="M89 79l-1.158-.486-5.762-2.423L82 75l5.482 2.235 1.12.456zM15 81.223L14.707 83l-.772-1.15-1.137-1.693-.798-1.19.439-.967.656.826.374.47.643.81.077.098z"/>
        <path fill="#D48A9B" d="M85.975 95.444c-.12.72-.48.626-.806.358a1.996 1.996 0 0 1-.689-1.287l-2.82-21.08-.103-.765-.121-.91-.103-.755-.204-1.53-.129-.962L82.451 68l.18 1.377.444 3.367.098.75.106.801.02.153.102.765.03.236 2.546 19.325c.031.222.03.448-.002.67z"/>
        <path fill="#000" d="M89 79l-.763-.551-.196-1.2L88 77l.738.517z" opacity=".1"/>
        <path fill="#D48A9B" d="M96.99 102.357c-.077.63-.438.706-.806.607a1.491 1.491 0 0 1-1.038-1.047l-6.568-24.034-.354-1.287-1.972-7.227-.252-.91L87.319 67l.626 2.27 8.988 32.448c.06.208.08.425.058.64z"/>
        <path fill="#000" d="M83 76l-.548-.632-.254-.296-.97-1.124-.103-.888L81 72l1.224 1.387.544.618.107.932.02.174z" opacity=".1"/>
        <path fill="#D48A9B" d="M87 77h-1.589l-.052-.053-1.788-1.837-.26-.269-1.552-1.595-3.118-3.2-.641-.66L79.057 69l.946.953 1.52 1.532 1.815 1.826 2.81 2.828zM16 73l-.349 1.368-1.29 5.04-.293 1.138-5.441 21.261c-.075.31-.224.6-.434.845-.524.6-.852.316-1.038-.048a1.501 1.501 0 0 1-.102-1.061l6.984-27.076.377-1.467H16zM23 73l-.975 1.052-3.873 4.18-.269.29-.538.58-1.496 1.613-.265.287-.532.572-.112.123-.282.303-.658-.783.297-.306 1.03-1.073.528-.548.264-.272 1.507-1.57.533-.555.267-.277 2.382-2.478L21.903 73z"/>
        <path fill="#000" d="M18 76l-.055.27-.264 1.307-.313.283L15 80l.263-1.39.051-.266 2.376-2.074zM14.239 80L15 81.094 14.725 83 14 81.766l.172-1.269z" opacity=".1"/>
        <path fill="#000" d="M17 76l-.211 1.041-.116.563-1.744 1.563-.31.278L14 80l.108-.555.213-1.128.615-.531.307-.264z" opacity=".1"/>
        <path fill="#D48A9B" d="M19 73l-.322 1.648-.466 2.432-.292 1.525-6.428 33.405c-.588 1.372-1.017 1.067-1.271.574a2.054 2.054 0 0 1-.184-1.312L15 83.639l.278-1.557.208-1.158.289-1.601.806-4.544.16-.9L19 73z"/>
        <path fill="#EEC5CD" d="M0 60.286L3.643 68 102 61.766 87.283 56z"/>
        <path fill="#D48A9B" d="M.154 61L0 67.031 3.923 75 4 68.372z"/>
        <path fill="#000" d="M13.386 73H15l-.355 1.86L13 75zM16.135 72.988L18 72l-.264 1.856L16 74zM21.999 73H23l-.89.924L21 74zM79.056 69l.944.912-1.36.088-.64-.63zM82.778 68L83 69.863 81.158 70 81 68.693zM88 68.912L86.259 69 86 68.229 87.355 67z" opacity=".1"/>
        <path fill="#D48A9B" d="M101.855 62l.145 6.153L4 75l.072-6.847z"/>
        <path fill="#000" d="M5 69.03L27.926 68 28 72.044 5.147 73z" opacity=".1"/>
        <path fill="#FFF" d="M5 69.03L27.926 68 28 72.043 5.147 73z"/>
        <path fill="#000" d="M29.145 67.959L80 65l-.072 3.753L29 72z" opacity=".1"/>
        <path fill="#FFF" d="M29.145 67.959L80 65l-.072 3.753L29 72z"/>
        <path fill="#000" d="M82 65.232L100.86 64l.14 3.696L82.211 69z" opacity=".1"/>
        <path fill="#FFF" d="M81 64.232L99.86 63l.14 3.696L81.211 68z"/>
        <path fill="#000" d="M15.203 70.678l2.766-.073.005.219-2.765.073z" opacity=".1"/>
        <path fill="#D48A9B" d="M15.204 70.459l2.765-.074.006.22-2.765.073z"/>
        <path fill="#000" d="M68.756 67.533l2.765-.073.006.22-2.765.073z" opacity=".1"/>
        <path fill="#D48A9B" d="M68.755 67.314l2.765-.073.006.219-2.765.073z"/>
        <path fill="#000" d="M38.706 69.288l2.765-.073.006.22-2.766.073z" opacity=".1"/>
        <path fill="#D48A9B" d="M38.706 69.069l2.765-.073.006.219-2.765.073z"/>
        <path fill="#000" d="M90.22 66.071l2.765-.073.006.22-2.765.072z" opacity=".1"/>
        <path fill="#D48A9B" d="M90.22 65.852l2.766-.073.005.219-2.765.073zM125 94l-2.77-.144-.185-7.547-.045-1.8 2.922-.509.017 2.316z"/>
        <path fill="#D48A9B" d="M123.388 92.436l-13.72 8.356-.297 2.543 1.483.072v-1.816l8.974-4.94L109 109.802v2.034h1.78l-.149-2.252 12.534-13.952 1.557.145 13.202 14.679.296 2.47L140 113l-.297-2.543-10.457-12.79 6.972 4.723.148 2.035 1.41.072-.149-2.47L124.352 92z"/>
        <path fill="#7CBE35" d="M105.892 77.547a24.183 24.183 0 0 0 3.182-5.196c.926-2.061 1.942-4.442 2.019-5.146.152-1.318 3.855-3.953 7.929-4.1 2.656-.095 6.795-2.181 9.356-3.622a18.965 18.965 0 0 1 7.85-2.44c2.995-.227 5.812.364 4.394 3.862l-19.06 23.21s-16.244 2.88-17.241-1.75a3.747 3.747 0 0 0-.232-.681c-.196-.438-.246-1.58 1.803-4.137z"/>
        <path fill="#FFF" d="M107.757 77.887a25.048 25.048 0 0 0 3.256-5.287c.88-1.942 1.811-4.12 1.885-4.779.142-1.268 3.75-3.805 7.716-3.946 2.582-.093 6.609-2.1 9.1-3.487a18.578 18.578 0 0 1 7.64-2.347c2.915-.218 5.656.352 4.28 3.719l-15.365 22.437s-18.954 2.681-19.956-1.755a4.543 4.543 0 0 0-.237-.689c-.176-.435-.2-1.512 1.681-3.866z" opacity=".2"/>
        <path fill="#000" d="M125 86c-.945 0-1.94 0-2.956-.008L122 84.441l2.98-.441.02 2z" opacity=".1"/>
        <g fill="#000" opacity=".1">
            <path d="M136.194 101.834l-6.96-4.72.798.978 6.162 4.178.148 2.033 1.406.072-.026-.437-1.38-.071zM110.872 101.035v.436l8.304-4.576.655-.797zM109.022 111.274v.436h1.776l-.027-.436zM110.872 102.85l-1.43-.07-.05.433 1.48.073zM138.192 112.363l-.296-2.468-13.179-14.668-1.554-.145-12.513 13.941.028.406 12.485-13.912 1.554.146 13.18 14.667.295 2.469 1.777.072-.05-.438z"/>
        </g>
        <path fill="url(#a)" d="M75.69 97c2.383 1.937 3.875.143 3.875.143s4.019-2.919 4.108-3.329c.053-.248.13-.49.23-.723 0 0 .661.116.661-.202s.689-.433 1.09-.694c.4-.26 2.93-2.515 2.93-2.515s.085-.49 1.244-.866c.816-.264 2.552-1.915 3.51-2.873.06-.387.255-1.565.47-1.926a.516.516 0 0 1 .377-.168l.095-.358c.282-1.09.488-2.199.619-3.318.257-2.313 2.182-3.035 2.669-3.035.487 0 4.364-1.676 4.364-1.676l6.287-2.6s3.875-1.242 3.731-2.083a.77.77 0 0 1 .01-.268c.078-.395.415-.854.756-1.233.236-.267.49-.518.756-.753l2.088-1.318.16-.102c-.704-1.147-2.248-2.655-2.248-2.655s.454-.867.976-.867c.345 0 2.27-.617 3.514-1.027-.129-1.403-.383-5.679 1.195-6.545l1.89-1.041-.165.385.28-.154s-.033.073-.085.196c.056-.01.115-.015.176-.02.17-.617.274-1.113.224-1.274-.126-.402-.152-3.151.986-4.567l-.908-2.688a.536.536 0 0 1 .028-.404.52.52 0 0 1 .3-.265l2.352-.805a.5.5 0 0 1 .227-.023.526.526 0 0 1 .566.353l.667 1.979c.281-.068.566-.119.852-.155.198-.363.437-.715.401-1.12a1.974 1.974 0 0 0-.24-.662 7.68 7.68 0 0 1-.64-1.914.856.856 0 0 1-.007-.405c.099-.326.516-.438.695-.728.151-.237.101-.544.029-.813-.115-.428-.29-.838-.386-1.272-.096-.433-.103-.905.106-1.295.186-.304.446-.553.756-.723.08-.383.351-.743.265-1.123-.051-.228-.228-.416-.262-.647-.057-.418.353-.736.713-.952l3.188-1.92c.284-.17.58-.345.884-.488.575-.309 1.184-.528 1.815-.447.81.103 1.479.692 1.978 1.341.5.65.891 1.388 1.451 1.983 1.023 1.093 2.513 1.62 3.632 2.621.313.26.56.592.721.97.466 1.26-.682 2.56-.675 3.905 0 1.178.893 2.158 1.816 2.885.392.308.832.649.908 1.144.06.382-.113.755-.22 1.125a3.767 3.767 0 0 0 .11 2.327 68.02 68.02 0 0 0 1.242.817s2.985 2.545 4.651 3.123a.323.323 0 0 1 .17.103c.454.285 1.72 1.092 1.955 1.514.287.521 2.239 2.486.975 3.18a6.951 6.951 0 0 1-2.354.81s-2.928.924-4.076 1.503c-.698.324-1.424.582-2.169.77a4.52 4.52 0 0 0 .872 2.252h.032c.143.194.305.373.483.535l-.318.05.02.02c-.831.137-1.688.27-2.508.08-.82-.192-1.605-.793-1.755-1.627-.16-.9.39-1.977-.209-2.66a1.296 1.296 0 0 0-.756-.393c-.398.535-3.322 4.326-5.974 3.495.605 1.644 1.681 4.51 1.885 4.592.288.116-2.928 1.157-2.928 1.157s-.632-.105-1.538-.193c0 .11.012.227.02.348.061 1.135.102 2.66-.09 3.084a2.195 2.195 0 0 0-.115.327 5.711 5.711 0 0 1-1.731 2.837l-.28.24c-.38.338-.688.75-.908 1.213a4.674 4.674 0 0 1-2.723 2.4 5.915 5.915 0 0 1-2.833.172s-6.455.637-10.014.925c-3.559.288-7.435 1.966-7.435 1.966s-1.792 1.29-3.061 2.959c-.095.126-.186.254-.275.382l.552.993s-2.625 1.951-4.388 3.41v.262c.086 1.937-2.44 4.653-2.44 4.653s-.776 1.098-1.178 1.649c-.403.55.69.896.69.896s-1.816.52-1.091 2.456c.725 1.937.2 3.209.2 3.209L93.125 110h-2.22l.43-3.583c-.774-.06-2.841 3.177-2.841 3.177s-5.397-.837-6.373-1.127c-.976-.29-.804-2.138 1.059-1.733a3.17 3.17 0 0 0 2.985-.896s1.321-1.562 2.067-5.55c.25-1.173.57-2.328.961-3.46-1.024 1.586-1.592 3.911-1.816 4.037-.316.173-4.276 4.74-4.276 4.74l-1.561-1.562 2.68-3.178s-2.44.028-3.444.722c-1.005.694-2.33.347-2.33.347s-3.043-2.456-3.783-3.381c-.74-.926-1.356-3.496 1.027-1.553z"/>
        <path fill="#575989" d="M120 55.12s1.353-.412 1.295.292c-.058.705.705 1.353.705 1.353L120.764 60 118 59l.875-2.763 1.126-1.117z"/>
        <path fill="#FFD7E3" d="M120 55.12s1.353-.412 1.295.292c-.058.705.705 1.353.705 1.353L120.764 60 118 59l.875-2.763 1.126-1.117z"/>
        <path fill="#3F2B3B" d="M126.66 39.251c-.444.231-.913.482-1.155.892-.227.383-.218.85-.116 1.273.101.424.295.83.42 1.25.078.263.127.564-.032.798-.193.286-.647.395-.756.716a.769.769 0 0 0 .01.398 7.09 7.09 0 0 0 .693 1.88c.13.2.22.421.262.651.063.635-.643 1.14-.703 1.773-.033.342.127.674.284.985.167.346.36.708.703.924.423.266 1 .246 1.49.118.488-.127.957-.35 1.456-.456.46-.104.956-.118 1.375-.32.713-.343 1.01-1.115 1.218-1.823.14-.476.269-.979.134-1.456a4.574 4.574 0 0 0-.43-.868c-.188-.358-.321-.746-.576-1.063-.256-.318-.6-.558-.703-.924-.12-.424.137-.848.35-1.238.188-.344.35-.7.484-1.064.13-.29.18-.607.142-.919-.123-.641-.85-1.03-1.54-1.202-.5-.124-1.041-.18-1.537-.348-.222-.074-.418-.214-.655-.226-.292-.02-.573.121-.818.249z"/>
        <path fill="#C77486" d="M95 84.255l5.247.745h.017s5.235-6.605 5.32-6.634l5.915-2.211 3.963-1.227.538-2.719-5.264-.209-1.726.269-6.199 2.691s-3.82 1.734-4.302 1.734c-.482 0-2.378.747-2.632 3.137a26.284 26.284 0 0 1-.606 3.43c-.156.618-.271.994-.271.994z"/>
        <path fill="#000" d="M95 84.255l5.247.745h.017s5.235-6.605 5.32-6.634l5.915-2.211 3.963-1.227.538-2.719-5.264-.209-1.726.269-6.199 2.691s-3.82 1.734-4.302 1.734c-.482 0-2.378.747-2.632 3.137a26.284 26.284 0 0 1-.606 3.43c-.156.618-.271.994-.271.994z" opacity=".05"/>
        <path fill="#000" d="M110.238 73l-.238.483s1.693 1.095 1.551 1.517L114 73.81l-3.762-.81zM94 83.326l5.379.674c.348-1.158.621-2 .621-2l-3.713.596s-1.284-.233-2.018-.17c-.151.56-.269.9-.269.9z" opacity=".1"/>
        <path fill="#D4DFEC" d="M96.408 83.62s-2.161-.422-2.413 0c-.253.424-.478 2.005-.478 2.005s-4.24 9.993-4.966 13.889c-.727 3.895-2.022 5.42-2.022 5.42a3.106 3.106 0 0 1-2.92.876c-1.822-.396-1.99 1.41-1.037 1.693.954.282 6.231 1.101 6.231 1.101s2.02-3.161 2.778-3.106l-.42 3.502h2.16l1.038-5.054s.505-1.242-.196-3.133c-.702-1.892 1.066-2.4 1.066-2.4s-1.066-.339-.673-.875c.394-.536 1.15-1.609 1.15-1.609s2.47-2.648 2.387-4.545C98.009 89.486 100 83 100 83l-3.592.62z"/>
        <path fill="#000" d="M96.408 83.62s-2.161-.422-2.413 0c-.253.424-.478 2.005-.478 2.005s-4.24 9.993-4.966 13.889c-.727 3.895-2.022 5.42-2.022 5.42a3.106 3.106 0 0 1-2.92.876c-1.822-.396-1.99 1.41-1.037 1.693.954.282 6.231 1.101 6.231 1.101s2.02-3.161 2.778-3.106l-.42 3.502h2.16l1.038-5.054s.505-1.242-.196-3.133c-.702-1.892 1.066-2.4 1.066-2.4s-1.066-.339-.673-.875c.394-.536 1.15-1.609 1.15-1.609s2.47-2.648 2.387-4.545C98.009 89.486 100 83 100 83l-3.592.62z" opacity=".1"/>
        <path fill="#000" d="M93 99s-.768 5.58-1.78 5.982C90.21 105.382 93 99 93 99zM95 95c-.097.08-2.78 2.974-3.848 3-1.068.026 3.848-3 3.848-3z" opacity=".1"/>
        <path fill="#C77486" d="M98 82.795s2.533 6.931 3.675 4.797c.186-.342.394-.67.623-.983 1.23-1.689 2.969-2.995 2.969-2.995s3.759-1.695 7.21-1.988c3.452-.293 9.71-.934 9.71-.934l.812-.733c.084-4.737-9.02-6.959-9.02-6.959s-6.96 3.013-9.578 3.889c-2.617.876-3.061 2.19-3.061 2.19l-2.612 2.904-.728.812z"/>
        <path fill="#000" d="M97 82.814s2.946 6.906 4.276 4.78c.216-.342.458-.669.724-.98l-.485-.78a13.251 13.251 0 0 0-2.6-3.054 6.31 6.31 0 0 0-1.06-.78l-.855.814z" opacity=".1"/>
        <path fill="#D4DFEC" d="M100.385 84.572s-2.378-2.853-3.03-2.55c-.65.305-3.622 2.467-3.622 2.467s-2.98 3.049-4.122 3.41c-1.142.362-1.228.833-1.228.833s-2.485 2.159-2.888 2.41c-.402.25-1.077.36-1.077.664 0 .304-.65.194-.65.194a3.702 3.702 0 0 0-.227.693c-.084.388-4.047 3.186-4.047 3.186s-1.472 1.72-3.822-.132c-2.349-1.85-1.755.61-1.019 1.497.736.886 3.737 3.243 3.737 3.243s1.301.332 2.293-.334c.992-.666 3.398-.698 3.398-.698l-2.644 3.049 1.54 1.496s3.904-4.38 4.216-4.545c.313-.166 1.247-4.3 3.116-5.127 0 0 5.322-1.996 7.048-3.41 1.727-1.415 4.643-3.521 4.643-3.521l-1.615-2.825z"/>
        <path fill="#000" d="M84 95.007c.156-.078 3.632.547 2.898.924-.733.378-2.898-.924-2.898-.924zM88 93c.194.092 2.491.48 1.904.914C89.317 94.348 88 93 88 93z" opacity=".1"/>
        <path fill="#FFF" d="M108 72.4s1.374.031 5.793.989c4.418.957 8.528 7.512 8.528 7.512a5.693 5.693 0 0 0 2.816-.18c1.186-.411 2.163-1.307 2.71-2.484.218-.478.523-.905.9-1.257l.278-.247a5.953 5.953 0 0 0 1.72-2.944c.029-.116.067-.23.114-.34.191-.435.153-2.013.087-3.189-.038-.763-.087-1.356-.087-1.356L116.132 66l-.836.548-2.076 1.365c-.268.243-.52.503-.756.78-.336.39-.67.868-.75 1.28a.792.792 0 0 0-.007.281c.145.861-3.707 2.147-3.707 2.147z"/>
        <path fill="#C77486" d="M130.588 44.932s1.48 2.06-.355 5.82c-1.835 3.76 7.767-2.175 7.767-2.175s-3.614-5.41-3.081-6.408c.532-1-4.33 2.763-4.33 2.763z"/>
        <circle cx="131.5" cy="42.5" r="4.5" fill="#000" opacity=".1"/>
        <circle cx="131.5" cy="42.5" r="4.5" fill="#C77486"/>
        <path fill="#000" d="M130.644 47s-1.457 2.356 3 1.045c4.458-1.31-3.504 8.955-3.504 8.955L127 53.692l1.233-5.818 2.411-.874z" opacity=".1"/>
        <path fill="#DCE6F2" d="M130.644 48s-1.457 2.358 3 1.045C138.102 47.733 130.14 58 130.14 58L127 54.693l1.233-5.819 2.411-.874z"/>
        <path fill="#000" d="M116 66.592c.138.233.26.479.363.735.492 1.3 1.695.975 1.695.975 1.97 1.428 7.17 1.043 7.17 1.043s-1.148 2.272 1.04 1.492c1.344-.478 3.365-.368 4.732-.214a57.37 57.37 0 0 0-.083-1.471L116.805 66l-.805.592z" opacity=".1"/>
        <path fill="#FFD7E3" d="M114 64.823s1.94 1.86 2.456 2.989c.515 1.129 1.77.845 1.77.845 2.057 1.242 7.488.905 7.488.905s-1.2 1.974 1.085 1.296c2.285-.677 6.454 0 6.454 0s3.2-1.015 2.914-1.127c-.286-.111-2.292-5.583-2.292-5.583a2.291 2.291 0 0 1-.153-.937c.012-.436.174-.855.458-1.189.292-.33.659-.589 1.07-.754 2.227-.958 6.168-3.383 6.168-3.383s10.054-1.467 8.398-2.03c-1.657-.565-4.628-3.046-4.628-3.046s-4.684-2.933-5.598-4.173c-.914-1.24-2.798-1.636-2.798-1.636l-2.615 1.918-4.754 4.173-.23-2.532s-.514-1.693-1.199-2.144c-.685-.45-3.235.442-3.417.504h-.01s-2.628 7.5-2.513 8.854c.029.356-.132.862-.382 1.413-.162.353-.362.724-.573 1.088-.48.81-1 1.597-1.56 2.356 0 0-4.055 1.358-4.569 1.358-.513 0-.97.835-.97.835z"/>
        <path fill="#000" d="M128 52.656l.566 2.344L134 52.212 133.48 48l-5.228 4.39v-.002z" opacity=".1"/>
        <path fill="#FFD7E3" d="M128 52.657l.565 2.343L134 52.213 133.48 48l-5.23 4.39v-.003z"/>
        <path fill="#000" d="M120 59.62c1.861.442 10.179 2.433 12.544 3.38.013-.503.173-.986.456-1.37-2.347-1.233-9.594-4.768-12.43-3.264-.161.407-.36.836-.57 1.255z" opacity=".1"/>
        <path fill="#000" d="M120 59.621c1.861.441 10.179 2.432 12.544 3.379.013-.503.173-.985.456-1.37-2.347-1.232-9.594-4.77-12.43-3.263-.161.405-.36.836-.57 1.254z" opacity=".1"/>
        <path fill="#FFD7E3" d="M120 59.62c1.861.443 10.179 2.442 12.544 3.38.013-.502.173-.985.456-1.37-2.353-1.233-9.594-4.77-12.43-3.263-.161.407-.36.84-.57 1.253z"/>
        <circle cx="122.5" cy="60.5" r="1" fill="#FEFFFF"/>
        <circle cx="120.5" cy="64.5" r="1" fill="#FEFFFF"/>
        <circle cx="126.5" cy="61.5" r="1" fill="#FEFFFF"/>
        <circle cx="124.5" cy="66.5" r="1" fill="#FEFFFF"/>
        <circle cx="123.5" cy="56.5" r="1" fill="#FEFFFF"/>
        <path fill="#000" d="M131 62s2.5 6.11 1.91 6.938C132.321 69.766 131 62 131 62zM128.959 63.003c.326-.085-1.382 1.604-1.576 3.15C127.19 67.7 126 69 126 69l1.183-3.036s1.39-2.86 1.776-2.96zM121 62c-.185.229-2.725.635-3 3l3-3zM137 57c-.297.312-3.659 2.947-4.845 3-1.187.051 4.845-3 4.845-3zM132 59s-.454 1-.907 1c-.454 0 .907-1 .907-1zM112 69.901c2.064.051 8.992.202 9.999-.013.096-.02-6.123-.234-7.58-.445A7.085 7.085 0 0 1 112.75 69c-.336.276-.67.614-.75.901zM123 72s2.97 2.965 1.672 3c-1.298.034-1.672-3-1.672-3z" opacity=".1"/>
        <path fill="#3F2B3B" d="M131 46.43c-.148.38-.026.44-.112.78a2.574 2.574 0 0 0-.07.96c.044.456-.242.997-.014 1.385.035.056.066.116.09.177a.525.525 0 0 1-.227.533c-.152.12-.336.212-.43.394-.223.432.204 1.046 0 1.494a.867.867 0 0 1-.307.334c-.3.216-.627.388-.974.513-.23-.36.026-.886-.174-1.266a1.7 1.7 0 0 0-.41-.417c-.326-.31-.5-.787-.585-1.253-.085-.467-.096-.946-.189-1.41-.15-.764-.51-1.48-.59-2.251a.325.325 0 0 1 .024-.208.256.256 0 0 1 .207-.091c.707-.06 1.48.128 2.158 0 .637-.114 1.053-.26 1.603.327z"/>
        <path fill="#000" d="M124 47.678c.203.982.88 3.712 2.329 4.929 1.78 1.499 3.127 5.383 3.127 5.383l-.408 1.01a2.86 2.86 0 0 0 .876-.429c.41-.306-.965-6.362-.965-6.362l-.233-2.753s-.526-1.835-1.228-2.325c-.678-.473-3.312.478-3.498.547z" opacity=".1"/>
        <path fill="#FFD7E3" d="M124 47.68c.203.982.88 3.712 2.328 4.927 1.783 1.5 3.128 5.385 3.128 5.385l-.41 1.008c.313-.09.61-.234.878-.427.41-.306-.965-6.362-.965-6.362l-.233-2.747s-.528-1.837-1.228-2.326c-.701-.49-3.312.475-3.498.542z"/>
        <path fill="#464A5F" d="M123.035 45.873l.083-.029a1.7 1.7 0 0 1 2.16 1.064l1.281 3.79a1.7 1.7 0 0 1-1.06 2.153l-.084.028a1.7 1.7 0 0 1-2.16-1.064l-1.281-3.789a1.7 1.7 0 0 1 1.06-2.153z"/>
        <path fill="#D4DFEC" d="M122.908 45.874l.083-.029a1.7 1.7 0 0 1 2.16 1.064l1.282 3.79a1.7 1.7 0 0 1-1.061 2.153l-.084.028a1.7 1.7 0 0 1-2.16-1.064l-1.28-3.789a1.7 1.7 0 0 1 1.06-2.153z"/>
        <circle cx="123.5" cy="47.5" r="1" fill="#939498"/>
        <path fill="#C77486" d="M120 58.79V59l2.062-1.15.212-1.13.37-1.965s4.184-6.666 1.401-6.754c-2.783-.088-2.799 5.02-2.64 5.588.118.407-.652 2.898-1.099 4.282-.18.547-.306.92-.306.92z"/>
        <path fill="#000" d="M117.153 63s-.788-5.929 1.213-6.965l2-1.035s-1.636 3.482-.973 3.611c.664.13 2.607-1.481 2.607-1.481v3.74L117.153 63z" opacity=".1"/>
        <path fill="#000" d="M120 58.816V59l1.813-1.01L122 57c-.494.421-1.345 1.098-1.711 1.018a.105.105 0 0 1-.022-.009c-.156.48-.267.807-.267.807z" opacity=".1"/>
        <path fill="#FFD7E3" d="M117.153 63s-.788-5.927 1.213-6.964l2-1.036s-1.636 3.483-.973 3.613c.664.13 2.607-1.483 2.607-1.483v3.742L117.153 63z"/>
        <circle cx="128.5" cy="57.5" r="1" fill="#FEFFFF"/>
        <path fill="#7CBE35" d="M109 84.726s5.618-.43 7.72-4.45c0 0 4.278-8.396 7.757-9.329 3.48-.933 9.93-3.014 12.612-6.242 2.682-3.23 3.807-5.705 3.807-5.705s.69 2.62-1.485 5.705-2.974 7.82-4.496 12.845c-1.522 5.024-2.102 7.026-4.857 7.325-2.076.217-13.054.108-18.304 0-1.715-.04-2.754-.15-2.754-.15z"/>
        <path fill="#FFF" d="M109 84.726s5.618-.43 7.72-4.45c0 0 4.278-8.396 7.757-9.329 3.48-.933 9.93-3.014 12.612-6.242 2.682-3.23 3.807-5.705 3.807-5.705s.69 2.62-1.485 5.705-2.974 7.82-4.496 12.845c-1.522 5.024-2.102 7.026-4.857 7.325-2.076.217-13.054.108-18.304 0-1.715-.04-2.754-.15-2.754-.15z" opacity=".2"/>
        <path fill="#7CBE35" d="M111 84.748s5.443-.414 7.48-4.28c0 0 4.143-8.077 7.513-8.974 3.37-.897 9.62-2.9 12.22-6.006C140.81 62.382 141.9 60 141.9 60s.667 2.525-1.44 5.488c-2.108 2.963-2.88 7.524-4.355 12.351-1.475 4.827-2.035 6.765-4.705 7.041-2.01.208-12.646.103-17.732 0-1.662-.028-2.668-.132-2.668-.132z"/>
        <path fill="#C77486" d="M142.126 59s-2.696.169-3.515.479c-.436.164-1.545.3-2.488.401a5.109 5.109 0 0 0-3.448 1.788c-.768.934-1.155 2.088.367 2.96 3.046 1.744 6.738-3.205 6.738-3.205l3.22-.452-.874-1.971z"/>
        <path fill="#FFD7E3" d="M140 57.896c1.026-.078 2.168 5.104 2.168 5.104s1.882-.435 3.024-1.056c1.141-.621 4.051-1.612 4.051-1.612a6.562 6.562 0 0 0 2.339-.87c1.254-.744-.686-2.855-.97-3.413-.284-.558-2.11-1.738-2.11-1.738L147.073 54l-6.447 1.242 4.165 1.054-.52.175-1.396.465-2.876.96z"/>
        <path fill="#FFD7E3" d="M144 57.49l1.398 3.719c2.816 2.19 2.598-.862 2.598-.862L145.594 57l-1.594.49z"/>
        <path fill="#000" d="M144 57.49l1.398 3.719c2.816 2.19 2.598-.862 2.598-.862L145.594 57l-1.594.49z" opacity=".1"/>
        <circle cx="145.5" cy="60.5" r="1" fill="#FEFFFF"/>
        <path fill="#000" d="M127.652 39.442a.81.81 0 0 1-.652-.788c0-.45.378-.865.279-1.305-.05-.227-.223-.416-.256-.647-.058-.417.346-.734.698-.95l3.124-1.917c.745-.464 1.562-.927 2.422-.82.793.104 1.448.691 1.939 1.34.49.649.872 1.39 1.421 1.98 1.003 1.091 2.463 1.618 3.553 2.617.308.26.55.593.707.969.452 1.257-.668 2.556-.66 3.9 0 1.177.874 2.154 1.776 2.881.384.31.814.649.891 1.143.06.382-.11.754-.215 1.125-.539 1.887.635 3.886 2.142 5.097.452.363.96.725 1.123 1.286.244.821-.36 1.626-.873 2.306-.903 1.19-1.656 2.544-1.873 4.033-.216 1.49.175 3.13 1.27 4.135-.817.135-1.657.27-2.46.078-.804-.192-1.574-.791-1.72-1.624-.158-.897.383-1.974-.206-2.658-.452-.52-1.24-.422-1.91-.513-1.433-.234-2.52-1.45-2.624-2.935-.044-1.018.397-1.98.739-2.935.342-.955.59-2.044.178-2.97-.666-1.493-2.832-2.115-2.925-3.753-.056-.962.688-1.943.3-2.822-.257-.592-.916-.854-1.408-1.257-.776-.634-1.15-1.635-1.656-2.506a11.87 11.87 0 0 0-1.464-1.926c-.176-.195-.51-.705-.775-.773-.31-.063-.55.261-.885.209z" opacity=".1"/>
        <path fill="#3F2B3B" d="M127.653 39.442a.811.811 0 0 1-.653-.787c0-.452.378-.866.28-1.306-.051-.228-.224-.416-.256-.648-.057-.417.345-.733.697-.95l3.125-1.917c.744-.455 1.561-.926 2.42-.818.796.103 1.449.69 1.94 1.339.49.649.873 1.39 1.42 1.982 1.003 1.09 2.465 1.615 3.553 2.615.309.26.552.592.708.968.451 1.26-.669 2.558-.661 3.9.007 1.178.876 2.154 1.776 2.882.384.309.816.648.893 1.143.059.381-.112.753-.217 1.124-.539 1.89.637 3.887 2.142 5.098.452.363.96.724 1.125 1.285.242.823-.36 1.626-.873 2.306-.904 1.19-1.656 2.544-1.875 4.033-.218 1.49.177 3.131 1.27 4.135-.815.135-1.656.27-2.459.08-.802-.192-1.573-.793-1.72-1.626-.15-.897.383-1.974-.205-2.657-.452-.52-1.24-.423-1.91-.514-1.434-.233-2.521-1.45-2.624-2.935-.044-1.018.396-1.98.739-2.935.343-.955.589-2.036.176-2.963-.664-1.492-2.83-2.113-2.925-3.752-.054-.96.69-1.943.301-2.822-.257-.591-.916-.854-1.41-1.257-.775-.634-1.15-1.634-1.656-2.506a11.79 11.79 0 0 0-1.463-1.924c-.176-.197-.51-.706-.777-.773-.307-.07-.545.254-.88.2z"/>
        <path fill="#000" d="M127.271 37.626c-.05-.226-.218-.411-.249-.64-.056-.415.336-.727.68-.942l.07-.044a.584.584 0 0 0-.038.306c.03.23.2.416.25.64.094.437-.269.847-.273 1.294a.8.8 0 0 0 .636.78c.326.052.558-.27.857-.2.26.062.586.567.756.766a11.737 11.737 0 0 1 1.424 1.907c.498.863.862 1.855 1.612 2.482.48.399 1.122.66 1.373 1.245.373.87-.35 1.836-.293 2.795.09 1.621 2.198 2.238 2.845 3.716.402.918.161 1.988-.171 2.941-.333.954-.762 1.9-.72 2.907.1 1.471 1.16 2.676 2.554 2.907.652.09 1.425 0 1.86.509.573.676.047 1.742.2 2.631.146.825.891 1.418 1.674 1.608.4.09.812.118 1.22.081.138.186.293.358.462.513-.793.134-1.612.267-2.393.078-.78-.19-1.531-.784-1.673-1.61-.147-.888.372-1.955-.2-2.63-.44-.516-1.208-.419-1.86-.509-1.395-.231-2.453-1.436-2.554-2.906-.043-1.008.385-1.963.72-2.907.333-.944.574-2.024.17-2.942-.646-1.477-2.754-2.092-2.845-3.714-.054-.953.67-1.924.293-2.796-.25-.585-.892-.845-1.373-1.244-.754-.629-1.118-1.62-1.612-2.483a11.725 11.725 0 0 0-1.424-1.906c-.171-.193-.497-.698-.754-.765-.293-.07-.532.25-.86.199a.801.801 0 0 1-.635-.78c.003-.44.366-.85.271-1.287zM106 83.205s3.105 1.29 4.868.583C112.63 83.081 117 81 117 81s-7.359.5-11 2.205z" opacity=".1"/>
        <path fill="#7CBE35" d="M81.075 51s-.785 3.575 2.71 4l.215-.398s-2.712-2.49-2.925-3.602z"/>
        <path fill="#7CBE35" d="M85 54.835l-.803.15-.081.015S81.973 53.453 82 50c.284.508.624.99 1.015 1.44.859 1 1.824 2.334 1.985 3.395z"/>
        <path fill="#7CBE35" d="M84.79 54.92c-.12.081-.268.102-.404.056-1.933-.466-1.28-6.976-1.28-6.976.108.052.225.88.669 1.949.773 1.878 1.63 4.502 1.015 4.972zM89 51s.113 3.575-2.818 4L86 54.602s2.82-2.49 3-3.602z"/>
        <path fill="#7CBE35" d="M88 50c.02 3.459-2.272 5-2.272 5l-.066-.015-.662-.15c.13-1.06.928-2.394 1.627-3.394A7.478 7.478 0 0 1 88 50z"/>
        <path fill="#7CBE35" d="M85.965 54.582a1.02 1.02 0 0 1-.345.34.558.558 0 0 1-.127.057c-.38.114-.513-.241-.49-.842.035-1.073.556-2.933 1.026-4.325.337-1.003.887-1.761.971-1.812-.001 0-.024 5.07-1.035 6.582z"/>
        <path fill="#7CBE35" d="M85.17 46s-2.394 7.733-.333 8.9c2.06 1.167.863-8.215.334-8.9z"/>
        <path fill="#000" d="M81.075 51s-.785 3.575 2.71 4l.215-.398s-2.712-2.49-2.925-3.602z" opacity=".1"/>
        <path fill="#000" d="M85 54.835l-.803.15-.081.015S81.973 53.453 82 50c.284.508.624.99 1.015 1.44.859 1 1.824 2.334 1.985 3.395z" opacity=".1"/>
        <path fill="#000" d="M84.79 54.92c-.12.081-.268.102-.404.056-1.933-.466-1.28-6.976-1.28-6.976.108.052.225.88.669 1.949.773 1.878 1.63 4.502 1.015 4.972zM89 51s.113 3.575-2.818 4L86 54.602s2.82-2.49 3-3.602z" opacity=".1"/>
        <path fill="#000" d="M88 50c.02 3.459-2.272 5-2.272 5l-.066-.015-.662-.15c.13-1.06.928-2.394 1.627-3.394A7.478 7.478 0 0 1 88 50z" opacity=".1"/>
        <path fill="#000" d="M85.965 54.582a1.02 1.02 0 0 1-.345.34.558.558 0 0 1-.127.057c-.38.114-.513-.241-.49-.842.035-1.073.556-2.933 1.026-4.325.337-1.003.887-1.761.971-1.812-.001 0-.024 5.07-1.035 6.582z" opacity=".1"/>
        <path fill="#000" d="M85.17 46s-2.394 7.733-.333 8.9c2.06 1.167.863-8.215.334-8.9z" opacity=".1"/>
        <path fill="#7CBE35" d="M81.018 51s-.422 3.575 2.784 4l.198-.398s-2.787-2.49-2.982-3.602z"/>
        <path fill="#7CBE35" d="M85 54.835l-.726.15-.073.015s-2.225-1.547-2.2-5c0 0 .569.602 1.221 1.44.76 1 1.633 2.334 1.778 3.395z"/>
        <path fill="#000" d="M85 54.83l-.813.17c-.771-.679-1.076-2.42-1.187-4 .86 1.13 1.837 2.634 2 3.83z" opacity=".1"/>
        <path fill="#7CBE35" d="M85.808 54.92a.38.38 0 0 1-.363.056C83.71 54.51 84.022 48 84.022 48c.097.052.473.88.871 1.949.703 1.878 1.473 4.502.915 4.972z"/>
        <path fill="#7CBE35" d="M88.982 51s.422 3.575-2.784 4L86 54.602s2.785-2.49 2.982-3.602z"/>
        <path fill="#7CBE35" d="M88 50c.023 3.459-2.201 5-2.201 5l-.073-.015-.726-.15c.144-1.06 1.017-2.394 1.784-3.394C87.43 50.6 88 50 88 50z"/>
        <path fill="#000" d="M87 51c-.104 1.472-.377 3.092-1.036 3.849a1.263 1.263 0 0 1-.15.151L85 54.83c.161-1.202 1.14-2.707 2-3.83z" opacity=".1"/>
        <path fill="#7CBE35" d="M86.086 54.582a1.095 1.095 0 0 1-.388.34.67.67 0 0 1-.143.057c-.428.114-.578-.241-.552-.842.04-1.073.626-2.933 1.154-4.325.38-1.003.729-1.761.822-1.812-.002 0 .244 5.07-.893 6.582z"/>
        <path fill="#000" d="M84.841 55a.328.328 0 0 1-.226-.1c-.677-.59-.691-2.8-.53-4.9.58 1.889 1.219 4.527.756 5z" opacity=".1"/>
        <path fill="#000" d="M85.828 54.665c-.072.23-.17.35-.297.333a.339.339 0 0 1-.178-.097 1.443 1.443 0 0 1-.353-.672c.03-1.049.479-2.867.882-4.229.142 1.889.19 3.891-.054 4.665z" opacity=".1"/>
        <path fill="#7CBE35" d="M84.934 46s-2.102 7.733 0 8.9c2.102 1.167.54-8.215 0-8.9z"/>
        <path fill="#4B4770" d="M89 55h-8v1.308h1.222l.03.154L82.74 59h4.65l.49-2.538.03-.154H89z"/>
        <path fill="#000" d="M89 55h-8v1.308h1.222l.03.154L82.74 59h4.65l.49-2.538.03-.154H89z" opacity=".1"/>
        <path fill="#4B4770" d="M88 56l-.135.643-.5 2.357h-4.73l-.498-2.357L82 56z"/>
        <path fill="#000" d="M88 55l-.135 1h-5.728L82 55z" opacity=".1"/>
        <path fill="#4B4770" d="M81 55h8v1h-8z"/>
        <path fill="#7CBE35" d="M24.42 101.182a2.72 2.72 0 0 0-.343.68c-.023.059-.042.127-.063.192a.681.681 0 0 0-.12-.045 1.634 1.634 0 0 0-.54-.047c0-.075.008-.159.011-.233.021-.836-.072-2-.831-1.507-.73.476-.21 1.269.26 1.776l.12.126c-.427.317-.509 1.067-.581 1.845-.073.78-.702 1.629-1.116 2.116l-.118.133a1.482 1.482 0 0 0-1.21-.328l-.055-.214c-.339-1.283-1.042-3.505-1.938-3.992.038-.049.077-.1.118-.158.38-.522.809-1.3.175-1.497-.633-.199-.689.674-.654 1.325 0 .083.006.16.018.234a.914.914 0 0 0-.664.339l-.096-.122c-.514-.635-1.458-1.645-1.742-.882-.266.71.564 1.633 1.147 2.168l.037.033c-.393 1.667 1.318 3.026 2.238 3.62l.118.077c-1.27 1.57-2.052 4.513-2.052 4.513l3.555.666s2.357-2.135 2.056-4.139a.13.13 0 0 0 .024 0c2.355-.495 2.892-3.13 2.524-4.694l.043-.019a2.691 2.691 0 0 0 1.09-.866c.65-.966-.734-2.044-1.41-1.1z"/>
        <path fill="#000" d="M24.42 101.182a2.72 2.72 0 0 0-.343.68c-.023.059-.042.127-.063.192a.681.681 0 0 0-.12-.045 1.634 1.634 0 0 0-.54-.047c0-.075.008-.159.011-.233.021-.836-.072-2-.831-1.507-.73.476-.21 1.269.26 1.776l.12.126c-.427.317-.509 1.067-.581 1.845-.073.78-.702 1.629-1.116 2.116l-.118.133a1.482 1.482 0 0 0-1.21-.328l-.055-.214c-.339-1.283-1.042-3.505-1.938-3.992.038-.049.077-.1.118-.158.38-.522.809-1.3.175-1.497-.633-.199-.689.674-.654 1.325 0 .083.006.16.018.234a.914.914 0 0 0-.664.339l-.096-.122c-.514-.635-1.458-1.645-1.742-.882-.266.71.564 1.633 1.147 2.168l.037.033c-.393 1.667 1.318 3.026 2.238 3.62l.118.077c-1.27 1.57-2.052 4.513-2.052 4.513l3.555.666s2.357-2.135 2.056-4.139a.13.13 0 0 0 .024 0c2.355-.495 2.892-3.13 2.524-4.694l.043-.019a2.691 2.691 0 0 0 1.09-.866c.65-.966-.734-2.044-1.41-1.1z" opacity=".1"/>
        <path fill="#7CBE35" d="M18 102.668L17.61 104s-.214-.178-.488-.459c-.546-.556-1.323-1.517-1.074-2.256.266-.794 1.15.254 1.63.918.195.26.322.465.322.465zM18.496 101.505a5.941 5.941 0 0 1-.413.495 6.2 6.2 0 0 1-.075-.664c-.036-.643.03-1.501.667-1.308.636.192.21.956-.18 1.477zM23.998 101.364c-.012.353-.044.636-.044.636a4.468 4.468 0 0 1-.433-.41c-.393-.428-.828-1.093-.218-1.492.634-.413.713.564.695 1.266zM26.836 102.185a2.51 2.51 0 0 1-1.027.702 2.959 2.959 0 0 1-.345.113l-.464-.585c.048-.193.112-.383.19-.568.079-.197.187-.383.324-.552.641-.765 1.944.11 1.322.89z"/>
        <path fill="#000" d="M17.634 102c.22.293.366.52.366.52l-.444 1.48s-.245-.198-.556-.51c.069-.472.24-.918.498-1.296.046-.073.092-.135.136-.194zM18.24 101.255a9.16 9.16 0 0 1-.406.745 14.14 14.14 0 0 1-.074-1c.173.006.34.095.48.255z" opacity=".1"/>
        <path fill="#7CBE35" d="M21 106.566l-1.065.434a6.592 6.592 0 0 1-.566-.298c-1.12-.638-3.37-2.247-1.868-4.143s2.766 1.504 3.269 3.168c.15.498.23.84.23.84z"/>
        <path fill="#000" d="M23 102.356a1.7 1.7 0 0 1 1-.356c-.024.556-.093 1-.093 1a8.825 8.825 0 0 1-.907-.644zM26 102.902a4.83 4.83 0 0 1-.426.098l-.574-.507c.06-.168.139-.333.236-.493.371.136.644.475.764.902z" opacity=".1"/>
        <path fill="#7CBE35" d="M23.207 107.87a3.463 3.463 0 0 1-.184.033c-3.68.548-1.214-1.401-1.214-1.401s.16-.158.39-.395c.443-.482 1.113-1.324 1.188-2.102.116-1.171.25-2.27 1.658-1.948 1.382.318 1.645 5.129-1.838 5.813z"/>
        <path fill="#D4DFEC" d="M16 116h7v2h-7zM15 110h9v6h-9z"/>
        <path fill="#000" d="M16 116h7v2h-7zM15 110h9v6h-9z" opacity=".1"/>
        <path fill="#D4DFEC" d="M16 116h7v2h-7z"/>
        <path fill="#000" d="M20.718 106c.19.39.282.66.282.66l-1.305.34c-.238-.071-.47-.15-.695-.234.511-.385 1.088-.676 1.718-.766zM23 107.862c-.055.014-.11.025-.167.035-3.335.58-1.1-1.48-1.1-1.48s.146-.167.354-.417c.622.57.88 1.213.913 1.862z" opacity=".1"/>
        <path fill="#7CBE35" d="M17 111.35s2.065-7.129 4.96-4.928c2.896 2.2-1.177 5.578-1.177 5.578L17 111.35z"/>
        <ellipse cx="18" cy="103" fill="#000" opacity=".1" rx="1" ry="1"/>
        <ellipse cx="18" cy="105" fill="#000" opacity=".1" rx="1" ry="1"/>
        <ellipse cx="25" cy="104" fill="#000" opacity=".1" rx="1" ry="1"/>
        <ellipse cx="19" cy="109" fill="#000" opacity=".1" rx="1" ry="1"/>
        <ellipse cx="24" cy="105" fill="#000" opacity=".1" rx="1" ry="1"/>
        <ellipse cx="22" cy="108" fill="#000" opacity=".1" rx="1" ry="1"/>
        <ellipse cx="19" cy="104" fill="#000" opacity=".1" rx="1" ry="1"/>
        <ellipse cx="24" cy="104" fill="#000" opacity=".1" rx="1" ry="1"/>
        <ellipse cx="23" cy="106" fill="#000" opacity=".1" rx="1" ry="1"/>
        <ellipse cx="21" cy="109" fill="#000" opacity=".1" rx="1" ry="1"/>
        <ellipse cx="20" cy="108" fill="#000" opacity=".1" rx="1" ry="1"/>
        <ellipse cx="19" cy="105" fill="#000" opacity=".1" rx="1" ry="1"/>
        <path fill="#000" d="M16 116h7v1h-7z" opacity=".1"/>
        <path fill="#D4DFEC" d="M15 110h9v6h-9z"/>
        <ellipse cx="21" cy="109" fill="#000" opacity=".1" rx="1" ry="1"/>
        <ellipse cx="20" cy="109" fill="#000" opacity=".1" rx="1" ry="1"/>
        <path fill="#E8EAF2" d="M96 60.8c0 .55-1.567 1.2-3.5 1.2-1.935 0-3.5-.65-3.5-1.2 0-.552 1.567-.8 3.5-.8 1.932 0 3.5.247 3.5.8z"/>
        <path fill="#000" d="M96 60.8c0 .55-1.567 1.2-3.5 1.2-1.935 0-3.5-.65-3.5-1.2 0-.552 1.567-.8 3.5-.8 1.932 0 3.5.247 3.5.8z" opacity=".1"/>
        <ellipse cx="92.5" cy="61" fill="#E8EAF2" rx="3.5" ry="1"/>
        <ellipse cx="93" cy="60.5" fill="#000" opacity=".1" rx="2" ry="1"/>
        <path fill="#FFD7E3" d="M94.844 59.03c-.33.709-.844.916-1.245.961a1.602 1.602 0 0 1-.599-.05l.238-.423c.15.037.309.037.459 0 .21-.055.442-.2.602-.55.253-.537-.063-.615-.282-.613-.045.001-.09.005-.134.011l.188-.333c.062-.013.125-.022.188-.028.357-.029 1.052.028.585 1.026z"/>
        <path fill="#F1CEC8" d="M94 60.556c-1.514 1-3 0-3 0l.022-.277.015-.208L93.963 60l.022.331.015.225z"/>
        <path fill="#000" d="M94 59c-.027.331-.073.66-.14.982-.29.043-.584.008-.86-.105l.341-.871A.977.977 0 0 0 94 59zM94.173 57.8a.517.517 0 0 1-.067.132l-.018.026c-.05.075-.096.152-.138.23a.792.792 0 0 0-.123.012l.173-.37c.057-.014.115-.025.173-.03zM94 61.011c-.35.227-1.663.293-2-.033l.01-.134 1.975-.046.015.213z" opacity=".1"/>
        <path fill="#FFD7E3" d="M94.908 58.156l-.018.028c-.232.371-.37.803-.398 1.25-.074 1.106-.225 1.216-.241 1.263-.122.336-2.231.467-2.548 0-.262-.386-.516-1.223-.399-1.693.063-.253-.07-.532-.205-.736a.607.607 0 0 1-.09-.438.572.572 0 0 1 .23-.373c.603-.417 1.658-.44 1.658-.44.903-.076 1.482.114 1.835.327l.045.03c.113.085.19.216.215.364a.604.604 0 0 1-.086.423l.002-.005z"/>
        <ellipse cx="92.5" cy="57.5" fill="#000" opacity=".1" rx="1.5" ry="1"/>
        <ellipse cx="92.5" cy="57.5" fill="#42312E" rx="1.5" ry="1"/>
        <path fill="#FFF" d="M93 57.771s-1.029.039-1 .458c.302-.23.642-.386 1-.458z" opacity=".2"/>
        <path fill="#FFF" d="M93 57.827s-1.165 0-.98.346c0 0 .271-.026.233-.114-.039-.089.747-.183.747-.183v-.049z" opacity=".2"/>
        <path fill="#F6E2DF" d="M91 58s-.05 1.056 1.968.998c2.018-.059 2.008-.759 2.032-.998h-.11s-.025.862-1.887.84c-1.86-.023-1.911-.84-1.911-.84H91z"/>
        <path fill="#000" d="M94 57.333l-.86.654c-.035.026-.078.013-.102-.03l-.015-.026a.2.2 0 0 1-.022-.119.166.166 0 0 1 .047-.103l.788-.709c.081.08.14.198.164.333z" opacity=".1"/>
        <path fill="#E8EAF2" d="M93.069 57.755l3.336-1.69a.59.59 0 0 1 .25-.065c.168 0 .406.021.33.237a.439.439 0 0 1-.251.245l-3.524 1.506a.143.143 0 0 1-.152-.024l-.021-.021a.111.111 0 0 1-.036-.1.128.128 0 0 1 .068-.088z"/>
        <path fill="#000" d="M93.069 57.755l3.336-1.69a.59.59 0 0 1 .25-.065c.168 0 .406.021.33.237a.439.439 0 0 1-.251.245l-3.524 1.506a.143.143 0 0 1-.152-.024l-.021-.021a.111.111 0 0 1-.036-.1.128.128 0 0 1 .068-.088z" opacity=".1"/>
        <path fill="#E8EAF2" d="M93.069 57.756l3.336-1.692a.59.59 0 0 1 .25-.064c.168 0 .406.021.33.237a.439.439 0 0 1-.251.245l-3.524 1.507a.145.145 0 0 1-.152-.025l-.021-.021a.111.111 0 0 1-.036-.1.128.128 0 0 1 .068-.087z"/>
        <path fill="#000" d="M92.805 57.892s.303-.065.262.016c-.041.08.13.18.13.18s-.312.076-.359.03c-.047-.046-.033-.226-.033-.226z" opacity=".1"/>
        <path fill="#42312E" d="M92.805 57.891s.303-.064.262.016c-.041.079.13.182.13.182s-.312.075-.359.03c-.047-.046-.033-.228-.033-.228z"/>
        <path fill="#F2DCDC" d="M92.5 54.531c-.233.14-.397.311-.476.497a.927.927 0 0 0 .03.518c.022.117.058.233.106.347.03.066.108.138.164.093 0-.162-.062-.32-.048-.482a.82.82 0 0 1 .268-.476c.145-.132.267-.272.364-.417.04-.07.196-.705-.019-.599-.043.022-.094.23-.134.283a1.168 1.168 0 0 1-.254.236zM92.873 56.203c.009.06.059.103.082.159a.378.378 0 0 1 .02.11.795.795 0 0 1-.081.528.368.368 0 0 0 .203-.272.921.921 0 0 0 .027-.183 1.698 1.698 0 0 0 0-.176c0-.088.028-.318-.083-.361-.11-.044-.168.11-.168.195z"/>
        <path fill="#000" d="M91.05 58.876c.239.151.586.237.95.235 0 0-.67.055-1-.064l.05-.17z" opacity=".1"/>
        <path fill="#464A5F" d="M60 52v7.768L52 60v-7.768z"/>
        <path fill="#000" d="M59.958 59L60 60h-7.986L52 59.386z" opacity=".1"/>
        <path fill="#464A5F" d="M61.995 59.45L50 60c0-.801.526-1.45 1.175-1.45l9.65-.55c.649 0 1.175.65 1.175 1.45h-.005zM76.271 51.683L34.73 53a.723.723 0 0 1-.516-.215.738.738 0 0 1-.213-.52V27.052c0-.195.077-.382.213-.52a.723.723 0 0 1 .516-.214L76.27 25c.193 0 .379.077.515.215a.738.738 0 0 1 .214.52V50.94a.738.738 0 0 1-.21.525.723.723 0 0 1-.519.217z"/>
        <path fill="#7CBE35" d="M76 49.69L35 51V29.312L76 28z"/>
        <circle cx="55.5" cy="27.5" r="1" fill="#FFF"/>
        <path fill="#000" d="M60 52.962l-8 .22v-.144l8-.22z" opacity=".1"/>
        <path fill="#000" d="M76 28.728L35 30v-.728L76 28z" opacity=".2"/>
        <path fill="#464A5F" d="M13 59.192l.388.808L26 56.915 25.501 56z"/>
        <path fill="#464A5F" d="M10.965 60l-1.96-11.93a.388.388 0 0 1 .07-.293.369.369 0 0 1 .256-.149l14.871-1.626c.2-.022.38.124.407.328L26 56.778 10.965 60z"/>
        <path fill="#000" d="M10.965 60l-1.96-11.93a.388.388 0 0 1 .07-.293.369.369 0 0 1 .256-.149l14.871-1.626c.2-.022.38.124.407.328L26 56.778 10.965 60z" opacity=".1"/>
        <path fill="#464A5F" d="M10.967 60L9.005 48.07a.39.39 0 0 1 .07-.293.37.37 0 0 1 .257-.149l14.87-1.626c.2-.022.38.124.407.328L26 56.778 10.967 60z"/>
        <path fill="#7CBE35" d="M10 47.73L11.604 58 25 55.127 23.755 46z"/>
        <path fill="#9C9CA1" d="M12.915 59.139l-.097-.201-1.818.42 4.633 7.36c.144.23.415.334.667.257l16.267-4.916a.614.614 0 0 0 .423-.485.635.635 0 0 0-.228-.61L26.458 56l-1.315.32.057.14-12.285 2.679z"/>
        <path fill="#000" d="M12.915 59.139l-.097-.201-1.818.42 4.633 7.36c.144.23.415.334.667.257l16.267-4.916a.614.614 0 0 0 .423-.485.635.635 0 0 0-.228-.61L26.458 56l-1.315.32.057.14-12.285 2.679z" opacity=".1"/>
        <path fill="#9C9CA1" d="M12.915 59.139l-.097-.201-1.818.42 4.631 7.36c.145.23.416.334.67.257l16.266-4.916a.614.614 0 0 0 .423-.485.635.635 0 0 0-.228-.61L26.458 56l-1.315.32.058.14-12.286 2.679z"/>
        <path fill="#000" d="M20.077 62.381l5.395-1.378a.11.11 0 0 1 .097.023l2.397 2.139a.102.102 0 0 1-.041.174l-5.703 1.657a.107.107 0 0 1-.11-.033l-2.088-2.415a.103.103 0 0 1-.02-.097.105.105 0 0 1 .073-.07z" opacity=".1"/>
        <path fill="#939498" d="M20.084 62.388l5.391-1.385c.035-.008.07 0 .097.024l2.394 2.137a.102.102 0 0 1-.041.175l-5.697 1.657a.107.107 0 0 1-.109-.033l-2.087-2.402a.1.1 0 0 1-.028-.102.102.102 0 0 1 .08-.07z"/>
        <g fill="#000" opacity=".1">
            <path d="M13.365 60.218l.229.37c.01.015.028.023.046.02l.772-.173a.045.045 0 0 0 .027-.069l-.256-.357a.045.045 0 0 0-.045-.018l-.748.16a.043.043 0 0 0-.025.067zM14.373 60.005l.228.37c.01.016.03.024.048.02l.772-.173a.045.045 0 0 0 .025-.069l-.255-.357a.043.043 0 0 0-.045-.018l-.748.16a.045.045 0 0 0-.025.066zM15.354 59.793l.228.369c.01.016.029.024.047.02l.771-.173a.045.045 0 0 0 .027-.069l-.255-.35a.048.048 0 0 0-.045-.017l-.748.16a.045.045 0 0 0-.025.06zM16.317 59.59l.225.365c.01.017.03.025.05.021l.765-.171a.048.048 0 0 0 .029-.073l-.251-.353a.048.048 0 0 0-.05-.018l-.738.159a.048.048 0 0 0-.03.07zM16.239 60.147l.229.369c.01.016.029.024.048.02l.771-.173a.043.043 0 0 0 .026-.067l-.256-.359a.042.042 0 0 0-.045-.016l-.748.16a.045.045 0 0 0-.025.066zM15.24 60.36l.229.369c.01.016.028.024.046.02l.773-.173a.045.045 0 0 0 .026-.069l-.256-.357a.043.043 0 0 0-.045-.016l-.748.16a.043.043 0 0 0-.025.066zM15.89 60.813l.23.37c.01.016.028.024.046.02l.771-.173a.045.045 0 0 0 .026-.069l-.256-.356a.043.043 0 0 0-.045-.018l-.748.16a.043.043 0 0 0-.024.066zM16.81 61.21l.229.37c.01.015.028.024.046.02l.772-.172a.045.045 0 0 0 .027-.069l-.256-.357a.042.042 0 0 0-.045-.018l-.747.16a.043.043 0 0 0-.026.067zM16.969 61.852l.369.466c.011.013.03.02.046.014l.778-.202a.043.043 0 0 0 .022-.07l-.381-.469a.043.043 0 0 0-.045-.015l-.765.207a.043.043 0 0 0-.024.07zM17.984 61.597l.378.479c.012.013.03.02.047.015l1.015-.282a.043.043 0 0 0 .02-.07l-.38-.47a.045.045 0 0 0-.047-.015l-1.01.273a.045.045 0 0 0-.023.07zM15.974 62.099l.37.465c.01.013.029.019.046.015l.777-.203a.043.043 0 0 0 .023-.07l-.381-.465a.042.042 0 0 0-.045-.014l-.766.207a.043.043 0 0 0-.024.064zM14.924 62.373l.37.463c.01.014.028.02.045.016l.777-.203a.045.045 0 0 0 .024-.07l-.383-.468a.043.043 0 0 0-.044-.015l-.766.207a.043.043 0 0 0-.023.07zM17.283 59.356l.225.365c.01.017.03.025.05.021l.765-.171a.048.048 0 0 0 .029-.073l-.251-.357a.046.046 0 0 0-.048-.018l-.748.159a.046.046 0 0 0-.022.075zM17.221 59.923l.226.365c.01.017.03.025.05.021l.765-.171a.048.048 0 0 0 .028-.073l-.25-.353a.046.046 0 0 0-.049-.018l-.747.159a.046.046 0 0 0-.023.07zM18.22 59.14l.226.365c.01.017.031.025.05.021l.766-.171a.048.048 0 0 0 .027-.073l-.25-.353a.046.046 0 0 0-.049-.018l-.74.159a.046.046 0 0 0-.03.07zM20.963 58.54l.318.34c.01.009.023.013.036.01l.683-.159a.037.037 0 0 0 .018-.065l-.359-.338a.036.036 0 0 0-.034-.01l-.643.16a.039.039 0 0 0-.02.062zM21.84 58.34l.317.338c.01.01.023.015.036.011l.684-.157a.037.037 0 0 0 .018-.065l-.36-.34a.04.04 0 0 0-.034-.01l-.643.16a.037.037 0 0 0-.018.063zM20.982 59.091l.319.339c.008.01.022.015.035.012l.685-.151a.037.037 0 0 0 .017-.065l-.358-.339a.039.039 0 0 0-.036-.01l-.643.16a.037.037 0 0 0-.019.054zM20.077 59.301l.3.324a.046.046 0 0 0 .044.014l.661-.15a.048.048 0 0 0 .023-.081l-.343-.325a.046.046 0 0 0-.043-.01l-.624.15a.048.048 0 0 0-.018.078zM20.767 60.322l.299.324a.05.05 0 0 0 .045.014l.66-.15a.046.046 0 0 0 .023-.08l-.342-.323a.05.05 0 0 0-.044-.012l-.623.15a.048.048 0 0 0-.018.078zM19.83 60.535l.298.325a.048.048 0 0 0 .045.013l.661-.15a.046.046 0 0 0 .022-.08l-.33-.328a.048.048 0 0 0-.043-.012l-.624.15a.046.046 0 0 0-.03.083zM18.881 60.771l.3.324a.046.046 0 0 0 .044.014l.662-.15a.048.048 0 0 0 .021-.081l-.342-.324a.045.045 0 0 0-.043-.011l-.624.15a.046.046 0 0 0-.018.078zM17.87 60.972l.308.329c.012.01.027.014.042.011l.669-.15a.043.043 0 0 0 .019-.074l-.347-.329a.043.043 0 0 0-.04-.01l-.63.15a.043.043 0 0 0-.02.073zM19.819 59.944l.299.324a.046.046 0 0 0 .043.014l.663-.15a.046.046 0 0 0 .02-.08l-.34-.323a.05.05 0 0 0-.044-.012l-.623.15a.048.048 0 0 0-.018.078zM18.905 60.157l.3.323a.046.046 0 0 0 .044.015l.66-.15a.046.046 0 0 0 .023-.08l-.342-.323a.043.043 0 0 0-.043-.012l-.624.15a.048.048 0 0 0-.018.078zM17.926 60.364l.299.325c.01.012.027.017.043.013l.662-.15a.048.048 0 0 0 .021-.081l-.34-.324a.046.046 0 0 0-.044-.01l-.623.15a.045.045 0 0 0-.018.078zM16.922 60.599l.308.328c.012.01.027.015.042.012l.669-.15a.043.043 0 0 0 .02-.075l-.346-.328a.048.048 0 0 0-.042-.011l-.63.15a.045.045 0 0 0-.02.074zM20.762 59.722l.3.324a.048.048 0 0 0 .044.014l.661-.15a.046.046 0 0 0 .023-.08l-.343-.323a.048.048 0 0 0-.043-.012l-.624.15a.046.046 0 0 0-.018.077zM19.164 59.538l.299.324a.05.05 0 0 0 .045.013l.662-.15a.046.046 0 0 0 .021-.079l-.342-.324a.045.045 0 0 0-.044-.012l-.622.15a.046.046 0 0 0-.02.078zM22.687 58.125l.332.354c.007.007.017.01.027.009l.707-.165a.028.028 0 0 0 .012-.048l-.375-.354a.024.024 0 0 0-.026-.008l-.664.166a.027.027 0 0 0-.013.046zM23.54 57.94l.333.355a.028.028 0 0 0 .026.008l.706-.164a.028.028 0 0 0 .014-.049l-.376-.355a.027.027 0 0 0-.025 0l-.665.165a.027.027 0 0 0-.014.04zM24.414 57.733l.299.329a.025.025 0 0 0 .027.009l.66-.18a.03.03 0 0 0 .01-.05l-.341-.286a.027.027 0 0 0-.024 0l-.622.138a.028.028 0 0 0-.01.04zM25.335 58.04l.299.33a.03.03 0 0 0 .028.008l.658-.18a.028.028 0 0 0 .01-.049l-.339-.286a.024.024 0 0 0-.024 0l-.622.138a.027.027 0 0 0-.01.039zM25.224 58.64l.289.311c.009.011.024.016.037.011l.634-.173a.039.039 0 0 0 .015-.066l-.323-.271a.031.031 0 0 0-.031-.009l-.598.133a.037.037 0 0 0-.023.063zM24.475 59.4l.289.313c.01.01.024.015.037.011l.634-.174a.037.037 0 0 0 .015-.065l-.323-.273a.034.034 0 0 0-.031-.007l-.598.132a.037.037 0 0 0-.023.063zM23.575 59.637l.289.312c.009.01.024.015.037.01l.634-.172a.039.039 0 0 0 .015-.066l-.323-.271a.031.031 0 0 0-.031-.01l-.599.134a.037.037 0 0 0-.022.063zM25.323 59.178l.289.313c.01.01.024.014.037.011l.634-.174a.037.037 0 0 0 .015-.066l-.322-.272a.043.043 0 0 0-.032-.009l-.599.134a.039.039 0 0 0-.022.063zM25.176 59.853l.436.393c.01.008.023.01.035.007l.63-.178a.037.037 0 0 0 .015-.065l-.47-.412a.037.037 0 0 0-.037-.007l-.598.199a.036.036 0 0 0-.01.063zM23.653 58.465l.299.33c.007.008.018.011.028.008l.658-.18a.027.027 0 0 0 .01-.048l-.339-.288a.036.036 0 0 0-.024 0l-.622.138a.027.027 0 0 0-.01.04zM22.802 58.677l.288.312c.01.01.024.015.038.012l.634-.174a.039.039 0 0 0 .015-.066l-.322-.271a.043.043 0 0 0-.033-.01l-.598.134a.039.039 0 0 0-.022.063zM22.627 59.282l.292.309c.009.01.023.014.037.01l.635-.174a.037.037 0 0 0 .014-.065l-.322-.273a.037.037 0 0 0-.033-.007l-.598.132a.039.039 0 0 0-.025.067zM21.731 59.499l.289.313c.01.011.025.015.039.011l.634-.174a.037.037 0 0 0 .013-.065l-.321-.273a.037.037 0 0 0-.033-.007l-.598.132a.039.039 0 0 0-.023.063zM21.893 58.88l.288.313c.01.01.024.015.038.01l.634-.174a.037.037 0 0 0 .015-.064l-.323-.275a.034.034 0 0 0-.032-.007l-.598.133a.036.036 0 0 0-.022.063zM22.642 59.84l.288.313c.01.01.024.014.038.01l.634-.173a.037.037 0 0 0 .015-.065l-.323-.273a.034.034 0 0 0-.032-.008l-.598.133a.037.037 0 0 0-.022.063zM21.761 60.078l.275.3c.012.014.03.019.047.014l.611-.167a.048.048 0 0 0 .018-.082l-.299-.258a.048.048 0 0 0-.04-.01l-.58.128a.048.048 0 0 0-.032.075zM24.52 58.248l.3.33c.006.008.017.01.027.007l.658-.18a.027.027 0 0 0 .01-.047l-.339-.288a.036.036 0 0 0-.023 0l-.624.138a.028.028 0 0 0-.009.04zM24.399 58.84l.288.314c.01.01.024.014.038.01l.635-.174a.037.037 0 0 0 .014-.064l-.322-.273a.037.037 0 0 0-.033-.008l-.598.132a.039.039 0 0 0-.022.063zM23.538 59.079l.287.312c.01.01.024.015.039.012l.634-.174a.039.039 0 0 0 .015-.066l-.323-.271a.043.043 0 0 0-.033-.01l-.598.134a.037.037 0 0 0-.021.063zM20.068 58.737l.317.339a.04.04 0 0 0 .036.01l.684-.158a.037.037 0 0 0 .018-.065l-.36-.339a.036.036 0 0 0-.034-.009l-.643.159a.037.037 0 0 0-.018.063zM19.155 58.96l.299.325a.046.046 0 0 0 .045.013l.66-.15a.048.048 0 0 0 .023-.081l-.342-.324a.046.046 0 0 0-.044-.01l-.623.15a.046.046 0 0 0-.018.077zM18.178 59.721l.226.363c.01.017.03.026.05.021l.765-.171a.046.046 0 0 0 .028-.073l-.252-.351a.048.048 0 0 0-.048-.02l-.739.159a.048.048 0 0 0-.03.072zM13.167 59.856l.756-.175a.046.046 0 0 1 .044.016l.134.175a.044.044 0 0 1-.026.07l-.782.182a.043.043 0 0 1-.048-.02l-.106-.184a.044.044 0 0 1 .028-.064zM14.207 59.63l.747-.176a.042.042 0 0 1 .045.016l.133.175a.045.045 0 0 1-.025.07l-.782.183a.045.045 0 0 1-.048-.021l-.106-.183a.044.044 0 0 1 .036-.065zM15.21 59.412l.755-.174a.043.043 0 0 1 .045.015l.133.175a.044.044 0 0 1-.025.07l-.782.182a.042.042 0 0 1-.048-.019l-.106-.183a.045.045 0 0 1 .028-.066zM16.19 59.19l.756-.175a.042.042 0 0 1 .045.016l.132.174a.045.045 0 0 1-.024.07l-.784.182a.045.045 0 0 1-.048-.02l-.106-.183a.045.045 0 0 1 .029-.064zM17.182 58.968l.748-.174a.05.05 0 0 1 .048.018l.129.17a.048.048 0 0 1-.027.075l-.776.181a.046.046 0 0 1-.051-.022l-.103-.178a.048.048 0 0 1 .032-.07zM18.147 58.767l.748-.174a.046.046 0 0 1 .047.016l.129.172a.047.047 0 0 1-.027.073l-.776.181a.048.048 0 0 1-.05-.022l-.104-.177a.048.048 0 0 1 .033-.069zM19.092 58.569l.692-.168a.046.046 0 0 1 .045.014l.135.14a.048.048 0 0 1-.023.079l-.685.172a.045.045 0 0 1-.044-.012l-.15-.15a.048.048 0 0 1 .03-.075zM20.009 58.358l.713-.174a.039.039 0 0 1 .037.01l.15.157a.036.036 0 0 1-.018.062l-.704.179a.039.039 0 0 1-.036-.011l-.159-.16a.038.038 0 0 1 .017-.063zM20.925 58.142l.714-.175a.033.033 0 0 1 .035.011l.15.15a.038.038 0 0 1-.018.063l-.704.178a.039.039 0 0 1-.036-.01l-.15-.16a.038.038 0 0 1 .01-.057zM21.84 57.953l.714-.175a.04.04 0 0 1 .036.011l.15.157a.04.04 0 0 1-.02.064l-.699.177a.039.039 0 0 1-.036-.01l-.157-.16a.04.04 0 0 1 .012-.065zM22.708 57.744l.734-.178c.01-.004.02 0 .027.007l.164.173a.027.027 0 0 1-.013.046l-.725.183c-.01.003-.02 0-.027-.007l-.174-.178a.029.029 0 0 1 .014-.046zM23.584 57.556l.736-.18c.01-.001.019.002.025.01l.165.172a.027.027 0 0 1-.014.047l-.725.186c-.01.003-.02 0-.027-.008l-.174-.177a.029.029 0 0 1 .014-.05zM24.457 57.355l.68-.15a.03.03 0 0 1 .029.011l.132.162a.027.027 0 0 1-.015.044l-.639.169c-.01.003-.02 0-.027-.007l-.173-.176a.029.029 0 0 1 .013-.053zM25.292 57.163l.68-.15c.01-.003.022.001.028.01l.13.161a.029.029 0 0 1-.013.045l-.638.17a.037.037 0 0 1-.029-.008l-.172-.177a.029.029 0 0 1 .014-.05zM13.697 60.759l.251.358c.01.015.028.023.045.019l1.308-.308a.043.043 0 0 0 .026-.069l-.278-.367a.043.043 0 0 0-.045-.015l-1.282.313a.045.045 0 0 0-.025.069zM14.096 61.24l.25.4c.01.015.03.023.048.019l1.58-.377a.043.043 0 0 0 .024-.07l-.312-.389a.043.043 0 0 0-.045-.015l-1.518.366a.043.043 0 0 0-.027.066zM14.45 61.769l.3.433c.01.015.028.022.046.018l2.093-.519a.045.045 0 0 0 .024-.07l-.336-.434a.046.046 0 0 0-.045-.016l-2.07.52a.043.043 0 0 0-.012.068zM19.243 61.294l.383.464c.011.014.03.02.046.015l4.607-1.154a.046.046 0 0 0 .021-.078l-.47-.469a.05.05 0 0 0-.044-.012l-4.52 1.16a.046.046 0 0 0-.023.074zM23.998 60.099l.449.45c.01.01.024.014.037.01l.944-.253a.037.037 0 0 0 .016-.063l-.468-.46a.039.039 0 0 0-.036-.01l-.925.267a.039.039 0 0 0-.017.059zM26.277 59.814l.206.217c.007.008.018.011.027.008l.699-.189a.027.027 0 0 0 .012-.047l-.249-.235a.03.03 0 0 0-.027 0l-.656.205a.028.028 0 0 0-.012.041zM26.872 59.346l.245.258c.008.008.02.011.03.008l.642-.224a.027.027 0 0 0 .01-.046l-.245-.218a.025.025 0 0 0-.025 0l-.648.181a.028.028 0 0 0-.009.041z"/>
            <path d="M27.346 59.793l-.176-.15a.029.029 0 0 1 0-.048l.64-.222a.025.025 0 0 1 .028 0l.2.193a.029.029 0 0 1-.013.048l-.662.173a.027.027 0 0 1-.017.006zM28.003 59.397c.055.053.15.159.188.195.008.007.018.01.028.007l.666-.181a.028.028 0 0 0 .012-.048l-.236-.213a.028.028 0 0 0-.029 0l-.617.2a.027.027 0 0 0-.012.04zM26.133 58.974l.356.345c.007.007.018.01.027.007l1.717-.45a.028.028 0 0 0 .012-.048l-.417-.346a.025.025 0 0 0-.026 0l-1.657.45a.027.027 0 0 0-.012.042zM26.017 58.443l.368.329a.03.03 0 0 0 .025 0l1.292-.3a.028.028 0 0 0 .01-.05l-.423-.355a.024.024 0 0 0-.024 0l-1.236.323a.028.028 0 0 0-.012.053zM26.135 57.877l.348.312a.027.027 0 0 0 .026 0l.662-.15a.028.028 0 0 0 .012-.049l-.413-.35a.025.025 0 0 0-.025 0l-.598.193a.028.028 0 0 0-.012.045zM25.227 57.567l.337.308a.031.031 0 0 0 .025 0l1.047-.251a.027.027 0 0 0 .01-.048l-.4-.338a.033.033 0 0 0-.026 0l-.988.281a.029.029 0 0 0-.005.048z"/>
        </g>
        <path fill="#464A5F" d="M13.009 60.374l.21.593c.009.025.026.038.042.031l.707-.277c.013-.005.024-.022.03-.044a.12.12 0 0 0-.005-.067l-.234-.58c-.01-.022-.026-.033-.042-.03l-.685.259c-.014.005-.025.023-.03.046a.118.118 0 0 0 .007.07z"/>
        <path fill="#464A5F" d="M13.005 60.366l.212.6c.009.027.027.04.044.032l.713-.28c.012-.01.02-.026.024-.047a.123.123 0 0 0-.005-.061l-.236-.581c-.01-.023-.026-.034-.041-.027l-.691.261a.073.073 0 0 0-.023.044.124.124 0 0 0 .003.059zM14.007 60.369l.21.597c.008.026.026.04.042.032l.71-.28c.012-.004.023-.02.028-.042a.118.118 0 0 0-.004-.067l-.235-.58c-.01-.023-.026-.034-.041-.027l-.687.26c-.013.006-.023.021-.027.043a.119.119 0 0 0 .004.064zM15.007 59.375l.208.589c.009.028.027.042.045.034l.705-.277c.015-.005.027-.023.032-.047a.125.125 0 0 0-.005-.072l-.232-.57c-.01-.024-.028-.036-.045-.031l-.68.258c-.015.005-.026.023-.032.046a.131.131 0 0 0 .004.07zM15.006 60.368l.21.6c.01.024.027.036.044.03l.71-.278c.012-.006.023-.023.027-.045a.122.122 0 0 0-.004-.067l-.235-.577c-.01-.024-.026-.035-.042-.03l-.687.26c-.012.007-.022.023-.026.044a.123.123 0 0 0 .003.063z"/>
        <path fill="#464A5F" d="M14.005 60.365l.21.6c.01.026.026.04.043.034l.711-.28c.013-.007.024-.024.028-.046a.123.123 0 0 0-.004-.067l-.235-.575c-.01-.024-.026-.035-.042-.03l-.688.261c-.011.007-.02.022-.025.042a.12.12 0 0 0 .002.06zM15.007 61.369l.21.597c.008.026.026.04.042.032l.71-.28c.013-.006.024-.022.028-.045a.122.122 0 0 0-.004-.066l-.235-.578c-.01-.023-.026-.034-.041-.027l-.687.26c-.013.006-.023.021-.027.043a.119.119 0 0 0 .004.064zM16.007 61.368l.21.599c.009.025.026.038.042.031l.71-.279c.012-.005.023-.022.028-.044a.122.122 0 0 0-.004-.067l-.235-.578c-.01-.023-.025-.034-.041-.029l-.687.26c-.013.006-.023.021-.027.043a.118.118 0 0 0 .004.064zM16.007 62.367l.3.611c.008.018.023.026.037.02l.63-.267c.011-.005.02-.02.024-.038a.087.087 0 0 0-.006-.055l-.31-.616c-.008-.018-.022-.026-.035-.02l-.62.273c-.012.005-.021.02-.025.038a.091.091 0 0 0 .005.054zM17.013 61.41l.51.57c.016.016.04.023.063.018l1.371-.336a.056.056 0 0 0 .04-.035.048.048 0 0 0-.011-.05l-.515-.557a.065.065 0 0 0-.063-.018l-1.365.325a.056.056 0 0 0-.04.034.047.047 0 0 0 .01.049zM15.007 62.368l.3.61c.009.018.023.026.037.02l.63-.267c.011-.004.02-.019.024-.038a.087.087 0 0 0-.006-.055l-.31-.616c-.008-.018-.022-.026-.035-.02l-.62.273c-.012.005-.021.02-.025.038a.091.091 0 0 0 .005.055zM14.008 62.366l.299.612c.009.018.023.026.036.02l.63-.267c.012-.005.021-.02.025-.038a.091.091 0 0 0-.005-.055l-.31-.616c-.01-.018-.023-.026-.037-.02l-.62.273c-.012.005-.02.019-.024.037a.087.087 0 0 0 .006.054zM16.007 59.374l.208.59c.01.027.028.041.046.034l.705-.277c.014-.006.026-.024.031-.047a.13.13 0 0 0-.005-.072l-.231-.57c-.01-.025-.028-.037-.044-.03l-.69.257c-.012.01-.02.027-.025.049a.13.13 0 0 0 .005.066zM16.007 60.373l.208.591c.01.027.028.041.045.034l.705-.277c.015-.005.027-.023.032-.047a.125.125 0 0 0-.005-.072l-.232-.57c-.01-.024-.027-.036-.044-.03l-.688.257c-.013.009-.022.027-.026.049a.13.13 0 0 0 .005.065zM17.006 59.373l.208.591c.01.028.029.041.047.034l.706-.277c.014-.007.025-.025.03-.048a.13.13 0 0 0-.005-.071l-.232-.57c-.01-.024-.027-.036-.044-.03l-.683.257c-.013.006-.024.023-.03.045a.132.132 0 0 0 .003.07zM20.009 58.389l.296.59c.008.018.021.025.033.019l.635-.277c.012-.006.022-.023.026-.046a.109.109 0 0 0-.01-.064l-.333-.593c-.008-.016-.02-.022-.032-.016l-.597.277c-.012.006-.022.023-.025.046a.117.117 0 0 0 .007.064zM21.01 58.39l.294.588c.009.017.021.025.034.02l.634-.277c.013-.004.023-.022.027-.046a.107.107 0 0 0-.01-.066l-.333-.591c-.009-.016-.021-.022-.032-.016l-.597.277c-.012.006-.022.023-.026.046a.11.11 0 0 0 .01.064zM20.009 59.39l.296.59c.009.017.021.023.033.018l.635-.277c.013-.005.023-.024.026-.047a.106.106 0 0 0-.01-.065l-.333-.591c-.009-.016-.021-.022-.033-.016l-.597.277c-.012.007-.021.024-.025.047a.116.116 0 0 0 .008.063zM19.013 59.406l.284.567c.01.023.027.032.042.024l.626-.264c.016-.006.029-.028.033-.057a.133.133 0 0 0-.012-.082l-.324-.57c-.01-.02-.026-.029-.041-.021l-.59.264c-.015.01-.026.032-.03.06a.138.138 0 0 0 .012.08zM20.014 60.404l.283.57c.01.022.027.03.042.024l.626-.264c.016-.007.029-.03.033-.06a.139.139 0 0 0-.012-.083l-.324-.57c-.011-.019-.026-.025-.04-.018l-.591.264c-.015.008-.026.031-.03.06a.133.133 0 0 0 .013.077zM19.014 60.407l.283.567c.011.022.027.03.043.023l.625-.262c.016-.007.029-.03.033-.06a.138.138 0 0 0-.012-.082l-.312-.572c-.011-.019-.027-.025-.041-.018l-.59.262c-.018.001-.034.022-.04.053a.133.133 0 0 0 .011.089z"/>
        <path fill="#464A5F" d="M18.012 61.404l.284.57c.01.021.027.03.042.024l.628-.264c.016-.007.028-.03.033-.059.004-.03-.001-.06-.013-.081l-.325-.57c-.01-.02-.026-.028-.04-.022l-.592.264c-.014.01-.024.033-.028.06a.14.14 0 0 0 .011.078zM17.018 61.403l.287.574c.01.02.025.027.04.02l.623-.261c.015-.007.027-.028.03-.056a.123.123 0 0 0-.012-.076l-.323-.581c-.01-.019-.024-.027-.038-.021l-.588.262c-.017.002-.031.025-.036.056-.004.031.003.065.017.083zM19.012 60.404l.284.57c.01.022.026.03.041.024l.63-.264c.015-.008.027-.031.032-.06.004-.03-.001-.062-.013-.083l-.324-.57c-.01-.019-.026-.025-.04-.018l-.592.264c-.015.01-.025.032-.029.06a.14.14 0 0 0 .011.077zM18.012 60.403l.284.571c.011.021.027.03.042.024l.627-.264c.016-.006.029-.029.033-.058a.134.134 0 0 0-.012-.082l-.324-.571c-.012-.019-.027-.027-.042-.021l-.59.264c-.015.01-.025.033-.029.06a.14.14 0 0 0 .011.077zM17.014 60.404l.283.57c.01.021.026.03.041.024l.628-.264c.016-.007.028-.03.033-.059.004-.03-.001-.06-.013-.081l-.323-.57c-.011-.02-.027-.028-.041-.022l-.591.264c-.015.009-.026.032-.03.06a.133.133 0 0 0 .013.078zM16.012 60.398l.289.578c.01.02.025.029.04.021l.626-.264c.015-.005.027-.027.031-.055a.125.125 0 0 0-.011-.077l-.326-.578c-.01-.019-.025-.027-.039-.021l-.59.264c-.015.007-.026.028-.03.055a.133.133 0 0 0 .01.077zM20.014 59.403l.283.571c.01.021.027.03.042.024l.626-.264c.016-.006.029-.029.033-.058a.134.134 0 0 0-.012-.082l-.324-.571c-.011-.019-.026-.027-.041-.021l-.59.264c-.015.009-.026.031-.03.06a.133.133 0 0 0 .013.077zM18.012 59.404l.284.57c.01.022.027.03.042.024l.628-.264c.016-.008.028-.031.033-.06.004-.03-.001-.061-.013-.083l-.325-.57c-.01-.019-.026-.026-.04-.018l-.59.264c-.015.01-.026.032-.03.06a.14.14 0 0 0 .011.077zM22.007 58.368l.303.617c.006.013.016.018.025.013l.646-.284c.009-.004.016-.018.018-.035a.082.082 0 0 0-.007-.048l-.343-.617c-.006-.011-.015-.016-.023-.013l-.607.286c-.009.005-.015.018-.018.034a.085.085 0 0 0 .006.047zM23.008 58.368l.304.618c.006.012.016.017.025.013l.643-.284c.01-.004.016-.018.019-.035a.083.083 0 0 0-.007-.049l-.342-.617c-.006-.012-.015-.017-.023-.013l-.607.287c-.009.003-.016.016-.019.033a.078.078 0 0 0 .007.047zM24.005 57.349l.296.635c.007.014.017.02.027.014l.653-.346c.01-.006.016-.022.018-.04a.092.092 0 0 0-.008-.053l-.338-.554c-.007-.007-.016-.007-.023 0l-.616.266a.067.067 0 0 0-.013.035.1.1 0 0 0 .004.043zM25.004 58.348l.296.635c.007.015.018.02.028.015l.651-.347c.01-.004.018-.02.02-.04a.083.083 0 0 0-.01-.052l-.335-.554c-.008-.007-.017-.007-.024 0l-.615.266a.063.063 0 0 0-.014.034.1.1 0 0 0 .003.043z"/>
        <path fill="#464A5F" d="M25.005 58.37l.29.607c.01.02.025.028.038.02l.639-.336c.013-.007.024-.028.027-.054a.119.119 0 0 0-.012-.071l-.325-.529c-.01-.01-.022-.01-.032 0l-.603.256c-.01.007-.02.023-.024.043a.14.14 0 0 0 .002.064zM24.01 59.376l.29.6c.009.021.024.03.037.02l.635-.33c.014-.008.024-.029.027-.055a.123.123 0 0 0-.012-.071l-.323-.523c-.009-.015-.02-.02-.032-.015l-.599.256c-.014.002-.026.02-.03.045a.118.118 0 0 0 .008.073zM23.009 59.376l.29.602c.01.018.024.026.037.02l.636-.334c.014-.008.024-.029.027-.055a.123.123 0 0 0-.012-.071l-.324-.521c-.008-.015-.02-.02-.031-.015l-.6.253c-.014.006-.025.024-.03.049a.132.132 0 0 0 .007.072zM25.01 59.376l.289.6c.009.021.024.03.037.02l.636-.333c.014-.007.024-.027.027-.053a.117.117 0 0 0-.012-.07l-.322-.523c-.01-.015-.022-.02-.033-.015l-.6.256c-.014.004-.025.022-.03.046a.126.126 0 0 0 .007.072zM25.012 60.399l.381.587c.009.013.02.018.032.01l.55-.267c.012-.005.021-.021.024-.041a.084.084 0 0 0-.01-.055l-.411-.619c-.01-.013-.022-.018-.033-.01l-.524.298c-.01.007-.019.024-.02.044a.08.08 0 0 0 .011.053zM23.004 58.346l.296.635c.007.015.018.022.028.018l.651-.347c.01-.005.018-.021.02-.041a.09.09 0 0 0-.01-.054l-.335-.551c-.008-.008-.016-.008-.024 0l-.615.265a.058.058 0 0 0-.014.033c-.002.015 0 .03.003.042zM22.005 58.37l.29.607c.01.02.025.028.038.02l.639-.336c.013-.007.024-.028.027-.054a.119.119 0 0 0-.012-.071l-.324-.529c-.01-.01-.023-.01-.033 0l-.603.256c-.01.007-.02.023-.024.043a.14.14 0 0 0 .002.064zM22.01 59.379l.29.598c.009.02.023.028.037.02l.637-.33c.013-.01.022-.03.025-.057a.122.122 0 0 0-.012-.07l-.322-.52c-.009-.017-.021-.024-.033-.018l-.6.256c-.013.003-.025.022-.03.047a.124.124 0 0 0 .008.074zM21.009 59.379l.29.598c.01.02.024.028.038.02l.637-.33c.013-.01.022-.03.025-.056a.122.122 0 0 0-.012-.071l-.323-.523c-.009-.015-.021-.02-.033-.015l-.6.256c-.013.005-.024.023-.029.048a.132.132 0 0 0 .007.073z"/>
        <path fill="#464A5F" d="M21.01 59.377l.29.598c.009.02.023.03.037.023l.635-.333c.014-.008.024-.029.027-.055a.123.123 0 0 0-.012-.072l-.323-.52c-.01-.014-.02-.02-.032-.017l-.6.256c-.013.003-.025.021-.03.047a.124.124 0 0 0 .008.073zM22.005 60.37l.291.606c.01.021.024.03.038.02l.638-.333c.014-.008.024-.03.027-.056a.125.125 0 0 0-.012-.072l-.325-.528c-.01-.01-.022-.01-.032 0l-.602.259c-.011.005-.02.02-.025.04a.128.128 0 0 0 .002.064zM21.009 60.395l.282.576c.012.025.03.035.047.026l.626-.323c.018-.008.031-.034.035-.067a.141.141 0 0 0-.016-.089l-.307-.495c-.01-.02-.026-.027-.04-.02l-.595.247c-.017.006-.03.026-.037.056a.164.164 0 0 0 .005.089zM24.006 58.35l.295.631c.007.015.018.022.028.018l.65-.347c.01-.005.018-.021.02-.041a.09.09 0 0 0-.01-.054l-.335-.551c-.007-.008-.016-.008-.023 0l-.617.265a.06.06 0 0 0-.013.035c-.002.015 0 .031.005.043zM24.01 59.376l.289.6c.009.021.024.029.037.02l.638-.33c.013-.008.022-.03.025-.056a.122.122 0 0 0-.012-.07l-.322-.523c-.01-.015-.022-.02-.033-.015l-.6.256c-.014.004-.025.022-.03.046a.126.126 0 0 0 .007.072zM23.01 59.376l.288.602c.01.019.025.026.039.02l.635-.334c.014-.007.024-.027.027-.053a.118.118 0 0 0-.012-.07l-.323-.524c-.01-.015-.022-.02-.033-.015l-.6.253c-.013.005-.025.023-.03.049a.124.124 0 0 0 .01.072zM19.01 58.388l.295.59c.008.017.02.025.033.02l.634-.276c.013-.005.023-.023.027-.047a.107.107 0 0 0-.01-.065l-.333-.59c-.009-.016-.02-.023-.032-.019l-.597.28c-.012.004-.022.021-.026.044a.104.104 0 0 0 .01.063zM18.012 59.404l.284.568c.01.022.027.032.042.026l.627-.264c.016-.006.029-.028.033-.058a.134.134 0 0 0-.012-.082l-.324-.57c-.011-.02-.027-.029-.042-.021l-.59.264c-.015.01-.025.032-.029.06a.14.14 0 0 0 .011.077zM17.007 59.374l.208.59c.01.027.028.041.045.034l.706-.277c.014-.006.026-.023.031-.047a.13.13 0 0 0-.005-.072l-.233-.57c-.01-.026-.027-.037-.044-.03l-.68.258c-.015.005-.026.021-.032.044a.127.127 0 0 0 .004.07zM13.035 59.952l.774-.178a.048.048 0 0 1 .046.017l.136.178a.044.044 0 0 1-.026.07l-.801.186a.043.043 0 0 1-.05-.021l-.108-.184a.045.045 0 0 1 .03-.068z"/>
        <path fill="#464A5F" d="M13.042 59.953l.766-.179a.048.048 0 0 1 .046.017l.137.178a.044.044 0 0 1-.026.07l-.802.186a.045.045 0 0 1-.049-.021l-.108-.186a.044.044 0 0 1 .036-.065z"/>
        <path fill="#464A5F" d="M14.035 59.953l.774-.178a.045.045 0 0 1 .046.016l.136.177a.045.045 0 0 1-.026.072l-.801.185a.045.045 0 0 1-.05-.02l-.108-.187a.044.044 0 0 1 .03-.065zM15.043 58.953l.767-.179a.048.048 0 0 1 .046.017l.135.178a.044.044 0 0 1-.025.07l-.803.186a.046.046 0 0 1-.05-.02l-.108-.187a.045.045 0 0 1 .001-.043.046.046 0 0 1 .037-.022z"/>
        <path fill="#464A5F" d="M16.04 58.952l.769-.177a.051.051 0 0 1 .05.017l.131.174a.047.047 0 0 1-.027.074l-.798.185a.048.048 0 0 1-.053-.023l-.106-.18a.047.047 0 0 1-.001-.044.048.048 0 0 1 .035-.026z"/>
        <path fill="#464A5F" d="M17.04 58.952l.769-.177a.048.048 0 0 1 .049.019l.132.172a.047.047 0 0 1-.027.074l-.799.185a.05.05 0 0 1-.052-.023l-.107-.18a.048.048 0 0 1 0-.043.05.05 0 0 1 .034-.027z"/>
        <path fill="#464A5F" d="M18.041 58.967l.751-.172a.056.056 0 0 1 .049.013l.146.153c.012.012.016.03.011.046a.05.05 0 0 1-.035.033l-.743.164a.05.05 0 0 1-.049-.012l-.162-.152a.045.045 0 0 1-.005-.045.05.05 0 0 1 .037-.028zM19.03 57.97l.76-.177a.048.048 0 0 1 .04.01l.158.16c.01.01.014.024.01.038a.04.04 0 0 1-.029.026l-.75.18a.04.04 0 0 1-.038-.01l-.169-.164a.037.037 0 0 1-.01-.037.039.039 0 0 1 .027-.027z"/>
        <path fill="#464A5F" d="M20.024 57.97l.765-.177a.045.045 0 0 1 .039.01l.16.16c.01.01.014.024.01.038a.04.04 0 0 1-.029.026l-.756.18a.04.04 0 0 1-.038-.01l-.16-.164a.037.037 0 0 1 .009-.064zM21.026 57.97l.765-.177a.04.04 0 0 1 .038.01l.16.16c.01.01.013.025.01.038a.04.04 0 0 1-.03.025l-.749.181a.045.045 0 0 1-.038-.01l-.169-.163a.037.037 0 0 1-.012-.036.039.039 0 0 1 .025-.028zM22.022 57.974l.77-.182c.01-.003.02 0 .028.007l.172.177c.007.007.01.018.007.027a.03.03 0 0 1-.02.02l-.761.186a.035.035 0 0 1-.028-.008l-.182-.18a.028.028 0 0 1-.007-.027.03.03 0 0 1 .02-.02z"/>
        <path fill="#464A5F" d="M23.023 57.973l.77-.181c.01-.003.02 0 .026.008l.172.175c.008.007.01.018.008.028a.03.03 0 0 1-.022.02l-.759.185a.027.027 0 0 1-.028-.008l-.181-.178a.028.028 0 0 1-.008-.028.03.03 0 0 1 .022-.02zM24.028 56.957l.781-.152a.033.033 0 0 1 .033.009l.151.164a.026.026 0 0 1 .005.027.031.031 0 0 1-.022.019l-.733.172a.041.041 0 0 1-.03-.008l-.2-.18a.027.027 0 0 1-.012-.03.032.032 0 0 1 .027-.021z"/>
        <path fill="#464A5F" d="M25.03 56.956l.78-.152a.037.037 0 0 1 .032.01l.15.164c.007.007.01.017.007.027a.03.03 0 0 1-.023.018l-.731.173a.035.035 0 0 1-.033-.008l-.197-.178c-.012-.007-.017-.02-.014-.032a.032.032 0 0 1 .03-.022zM12.01 60.504l.305.47a.05.05 0 0 0 .054.024l1.59-.403a.054.054 0 0 0 .038-.037.061.061 0 0 0-.008-.054l-.338-.48a.05.05 0 0 0-.054-.022l-1.556.413a.054.054 0 0 0-.038.036.061.061 0 0 0 .007.053zM13.007 61.507l.26.469c.011.018.031.027.05.023l1.647-.443a.048.048 0 0 0 .034-.033.056.056 0 0 0-.009-.05l-.325-.454a.045.045 0 0 0-.047-.018l-1.582.429a.047.047 0 0 0-.032.03.057.057 0 0 0 .004.047z"/>
        <path fill="#464A5F" d="M13.013 61.566l.362.417a.06.06 0 0 0 .056.016l2.529-.499a.05.05 0 0 0 .037-.027.035.035 0 0 0-.008-.04l-.407-.417a.06.06 0 0 0-.054-.015l-2.5.499a.045.045 0 0 0-.027.03.037.037 0 0 0 .012.036zM19.01 61.442l.377.539c.011.016.03.023.046.017l4.533-1.343a.053.053 0 0 0 .032-.04.064.064 0 0 0-.011-.053l-.462-.546a.04.04 0 0 0-.044-.014l-4.447 1.35a.052.052 0 0 0-.032.038.064.064 0 0 0 .009.052z"/>
        <path fill="#464A5F" d="M23.021 60.416l.61.57a.055.055 0 0 0 .05.012l1.281-.321a.05.05 0 0 0 .036-.034.046.046 0 0 0-.013-.046l-.636-.582a.05.05 0 0 0-.049-.013l-1.26.327a.05.05 0 0 0-.039.038.048.048 0 0 0 .02.05zM26.008 59.528l.215.454c.007.016.018.022.028.015l.727-.39c.01-.007.019-.023.021-.044a.104.104 0 0 0-.008-.057l-.259-.488c-.007-.016-.018-.022-.028-.016l-.684.429c-.01.006-.017.022-.02.042-.002.02.001.04.008.055z"/>
        <path fill="#464A5F" d="M26.005 59.463l.26.528c.01.012.023.012.033 0l.681-.455c.01-.006.018-.023.02-.043a.097.097 0 0 0-.009-.055l-.26-.43c-.008-.01-.02-.01-.027 0l-.688.372a.07.07 0 0 0-.014.037.105.105 0 0 0 .004.046zM27.214 60.212l-.198-.145a.029.029 0 0 1-.016-.025c0-.01.006-.02.016-.025l.719-.226a.035.035 0 0 1 .032 0l.225.198c.007.008.01.018.007.028a.03.03 0 0 1-.022.02l-.744.175a.033.033 0 0 1-.019 0z"/>
        <path fill="#464A5F" d="M28.005 60.02c.06.055.164.162.207.198.008.008.02.01.032.008l.733-.183a.03.03 0 0 0 .022-.02c.003-.01 0-.022-.009-.029l-.26-.218a.037.037 0 0 0-.031 0l-.681.203a.03.03 0 0 0-.017.018.027.027 0 0 0 .004.023zM26.01 58.59l.333.406a.023.023 0 0 0 .026 0l1.61-.529c.01-.003.018-.012.02-.025a.039.039 0 0 0-.008-.033l-.392-.406a.024.024 0 0 0-.024 0l-1.554.53c-.01.002-.018.012-.02.024a.039.039 0 0 0 .008.034z"/>
        <path fill="#464A5F" d="M25.006 58.533l.43.462c.009.007.02.007.03 0l1.51-.422c.011-.003.02-.015.023-.03a.042.042 0 0 0-.012-.038l-.494-.5a.024.024 0 0 0-.028 0l-1.445.468A.039.039 0 0 0 25 58.5a.047.047 0 0 0 .005.034zM26.01 57.437l.326.558c.007.007.016.007.023 0l.62-.267c.01-.003.018-.017.02-.036a.076.076 0 0 0-.009-.05l-.386-.635c-.007-.01-.016-.01-.024 0l-.559.345c-.01.003-.018.017-.02.035a.076.076 0 0 0 .009.05z"/>
        <path fill="#464A5F" d="M25.017 57.516l.467.479a.034.034 0 0 0 .035 0l1.452-.388a.043.043 0 0 0 .028-.033.048.048 0 0 0-.013-.044l-.556-.525a.034.034 0 0 0-.036 0l-1.37.434a.044.044 0 0 0-.024.037.047.047 0 0 0 .017.04z"/>
    </g>
</svg>
