<svg xmlns="http://www.w3.org/2000/svg" width="136" height="113" viewBox="0 0 136 113">
    <g fill="none" fill-rule="evenodd">
        <ellipse cx="12" cy="97" fill="#7CBE35" opacity=".1" rx="6" ry="1"/>
        <ellipse cx="97" cy="98" fill="#7CBE35" opacity=".1" rx="6" ry="1"/>
        <ellipse cx="81" cy="105" fill="#7CBE35" opacity=".1" rx="6" ry="1"/>
        <ellipse cx="32" cy="89" fill="#7CBE35" opacity=".1" rx="6" ry="1"/>
        <ellipse cx="33" cy="106" fill="#7CBE35" opacity=".1" rx="33" ry="7"/>
        <path fill="#7CBE35" d="M131.76 77.543c-.897 2.106-2.072 4.125-3.717 5.674-2.005 1.886-4.494 2.915-7.16 3.407-.786.143-1.58.243-2.376.3-2.107.158-4.264.053-6.333-.166a76.521 76.521 0 0 1-17.291-3.904 73.703 73.703 0 0 1-3.532-1.337c-4.753-1.937-9.667-4.407-14.723-3.64-2.45.371-4.752 1.498-7.208 1.834-1.724.22-3.476.1-5.15-.357a18.004 18.004 0 0 1-2.376-.8 27.233 27.233 0 0 1-4.937-2.727c-3.705-2.524-7.029-5.654-10.929-7.84-4.3-2.411-9.06-3.558-13.908-4.412-.79-.14-1.582-.272-2.377-.398-2.243-.361-4.492-.695-6.71-1.09-2.135-.385-4.309-.855-6.168-2.011-1.327-.825-2.442-1.967-3.465-3.17a37.735 37.735 0 0 1-5.031-7.664c-2.054-4.108-3.435-8.587-4.282-13.221a41.78 41.78 0 0 1-.072-.41c-.797-4.542-1.088-9.24-1-13.903l.009-.409a94.84 94.84 0 0 1 .419-6.854c.156-1.59.366-3.239 1.21-4.575.845-1.336 2.22-2.193 3.59-2.907 6.058-3.145 11.86-4.02 18.372-2.496 1.046.244 2.087.507 3.128.78.793.207 1.586.42 2.377.636 5.47 1.487 10.925 3.07 16.58 3.544.546.047 1.092.082 1.64.107 1.081.049 2.163.06 3.245.032a57.463 57.463 0 0 0 8.309-.834 66.567 66.567 0 0 0 2.376-.444c3.41-.694 6.79-1.62 10.116-2.643.68-.21 1.358-.422 2.036-.638 1.526-.487 3.052-.983 4.582-1.465C85.569 2.098 90.157.78 94.883.248A49.8 49.8 0 0 1 96.096.13c.387-.033.776-.059 1.163-.078 7.332-.382 14.748 1.343 21.248 4.872a39.767 39.767 0 0 1 5.511 3.604c2.075 1.615 4.016 3.454 5.495 5.663 1.441 2.152 2.376 4.57 2.915 7.11.029.136.057.272.082.409.79 4.101.544 8.5-.342 12.61a61.548 61.548 0 0 1-.396 1.702c-.956 3.886-2.178 7.761-1.86 11.735.041.5.106.996.19 1.487.023.136.047.272.074.409.623 3.24 2.04 6.316 2.89 9.526a28.667 28.667 0 0 1-1.307 18.364z" opacity=".1"/>
        <path fill="#7CBE35" fill-rule="nonzero" d="M119.506 21.69H131a14.297 14.297 0 0 0-.082-.41h-11.412V6.277a40.18 40.18 0 0 0-2.349-1.398V21.28H96.156V0c-.383.02-.767.045-1.15.078-.382.033-.8.074-1.199.119V21.28H63.825l-.072-.077 16.335-17.71c-1.511.484-3.02.98-4.529 1.468L63.55 17.982V8.247c-.782.162-1.565.31-2.35.445v9.74l-8.212-8.905c-1.07.025-2.139.015-3.208-.033l10.799 11.709-.072.077H31.768V5.84c-.782-.216-1.566-.43-2.35-.638V21.28H3.009L3 21.69h26.422v13.924H3.988l.072.41h25.362v13.24H8.292c.066.137.134.274.203.41h20.927v13.55c.784.128 1.567.26 2.348.399V49.674H61.2v28.94c.763.322 1.547.59 2.349.802V49.674h30.258v33.25c.78.278 1.562.543 2.349.793V49.674h21.001V87a21.56 21.56 0 0 0 2.349-.3V49.674h9.185c-.026-.136-.05-.273-.073-.41h-9.119v-13.24h10.763c.033-.137.067-.274.098-.41h-10.854V21.69zm-2.349 0v13.924H96.156V21.69h21.001zm-23.35 13.924H63.549V21.69h30.258v13.924zM31.77 21.69h29.015l.415.373v13.55H31.77V21.69zm0 27.575V36.023H61.2v13.242H31.77zm31.779 0V36.023h30.258v13.242H63.549zm53.608 0H96.156V36.023h21.001v13.242z" opacity=".1"/>
        <path fill="#7CBE35" d="M108.113 11.898h-.209a.452.452 0 0 0 .254-.37c0-.29-.4-.528-.887-.528h-6.221c-.488 0-.89.238-.89.528 0 .292.402.53.89.53h.208a.453.453 0 0 0-.254.37c0 .247.29.457.679.514h-1.794c-.49 0-.889.238-.889.528 0 .29.4.53.889.53h6.223c.49 0 .889-.238.889-.53 0-.248-.29-.456-.68-.513h1.792c.488 0 .887-.238.887-.53 0-.291-.4-.53-.887-.53zM49.113 16.899h-.209a.459.459 0 0 0 .254-.37c0-.29-.4-.529-.889-.529h-6.223c-.49 0-.889.238-.889.53 0 .29.4.528.89.528h.206a.457.457 0 0 0-.252.37c0 .249.29.457.679.514h-1.791c-.49 0-.889.238-.889.53 0 .291.4.528.889.528h6.223c.49 0 .889-.238.889-.528 0-.25-.292-.458-.68-.515h1.792c.488 0 .887-.238.887-.53 0-.291-.4-.528-.887-.528zM117.113 37.898h-.209a.46.46 0 0 0 .254-.37c0-.29-.4-.528-.889-.528h-6.223c-.49 0-.889.238-.889.529 0 .29.4.528.89.528h.206a.456.456 0 0 0-.252.37c0 .248.29.458.679.514h-1.793c-.488 0-.887.239-.887.529 0 .29.4.53.887.53h6.225c.488 0 .889-.238.889-.53 0-.248-.292-.457-.68-.513h1.792c.488 0 .887-.238.887-.53 0-.292-.4-.529-.887-.529z" opacity=".1"/>
        <path fill="#EAECF0" d="M32.162 82L96 89.79V92l-64-8.055zM31 89h-1V60l.72.255.008.87z"/>
        <path fill="#D3DAE1" d="M32 88.528l-.611.472-.378-28.123L31 60h.722l.01.93zM14 89.362L31 82v.696L14 90z"/>
        <path fill="#EAECF0" d="M14.304 91L14 89.504 31 83v1.29zM96 58v40h-.95l-.049-37.107L95 59.707z"/>
        <path fill="#D3DAE1" d="M97 58v39.66L96 98V58.194zM82 97.05L95.076 89l.924.591L82 98z"/>
        <path fill="#EAECF0" d="M82.41 99L82 97.238 96 89v1.71zM80 63.48l.036 41.52H81l-.143-42z"/>
        <path fill="#D3DAE1" d="M82 63v41.667l-.765.333L81 63.38l.094-.035z"/>
        <path fill="#EAECF0" d="M13 97h-1.484l-.509-37.356L11 59h1.42l.01.735z"/>
        <path fill="#D3DAE1" d="M13 96.71l-.64.29-.353-37.265L12 59h.68l.006.806z"/>
        <path fill="#000" d="M81 64.372L82 64v1.744l-.974.256zM97 58v2.464l-.823.222-1.175.314L95 59.847l1.177-1.657z" opacity=".1"/>
        <path fill="#D48A9B" d="M97 54v6.387L82.096 65 82 58.17z"/>
        <path fill="#EFC6CD" d="M12 52.285L31.87 48 97 52.834 81.784 58z"/>
        <path fill="#000" d="M12.993 59L13 60l-.867-.089-1.127-.113L11 59zM32 61l-.833-.044L30 60.894V60l1.154.217h.835z" opacity=".1"/>
        <path fill="#D48A9B" d="M11 53v6.233L81 65l-.097-7.163z"/>
        <path fill="#D48A9B" d="M67 60H57v-3l10 .582z"/>
        <path fill="#000" d="M67 60H57v-3l10 .582z" opacity=".1"/>
        <path fill="#000" d="M45 56v5.963L80 65v-6.35l-13.651-.884-1.356 1.381-5.567-.442-1.984-1.657z" opacity=".1"/>
        <path fill="#FFF" d="M45 56v5.964L80 65v-6.349l-13.651-.884-1.355 1.381-5.568-.442-1.984-1.657z"/>
        <path fill="#D48A9B" d="M23.921 55l9.079.543L32.894 58h-5.928L23 56.673z"/>
        <path fill="#000" d="M23.921 55l9.079.543L32.894 58h-5.928L23 56.673z" opacity=".1"/>
        <path fill="#000" d="M12 54v5.209L44 62v-5.53l-12.342-.805-1.316 1.073-4.976-.321-2.049-1.396z" opacity=".1"/>
        <path fill="#FFF" d="M12 54v5.209L44 62v-5.53l-12.342-.805-1.316 1.074-4.976-.322-2.049-1.396z"/>
        <path fill="#000" d="M12.787 88.094l.425-.094L13 89.951l-.212.049zM80.202 54l4.798.234L77.05 56 73 55.782z" opacity=".1"/>
        <path fill="#FFF" d="M80.202 54l4.798.234L77.05 56 73 55.783z"/>
        <path fill="#D3DAE1" d="M79 53.825c.231-.117.477.104.728.16.14.033.286 0 .426.033.287.045.573.275.846.158"/>
        <path fill="#D3DAE1" d="M79 53.826c.23-.119.477.102.728.159.14.032.286 0 .428.032.287.046.571.276.844.159M79 54.825c.231-.117.479.104.728.16.14.033.286 0 .428.033.287.045.571.275.844.158"/>
        <circle cx="8" cy="101" r="1" fill="#535461"/>
        <circle cx="10" cy="105" r="1" fill="#535461"/>
        <circle cx="33" cy="107" r="1" fill="#535461"/>
        <circle cx="38" cy="100" r="1" fill="#535461"/>
        <path fill="#535461" d="M21 78h2v10h-2z"/>
        <path fill="#000" d="M21 86h2v2h-2z" opacity=".1"/>
        <path fill="#3A3768" d="M22 88h2v11h-2z"/>
        <path fill="#3A3768" d="M37.649 98.509L23 98v2h17c-.346-.861-1.28-1.454-2.351-1.491zM8.351 98.509L23 98v2H6c.346-.861 1.28-1.454 2.351-1.491z"/>
        <path fill="#3A3768" d="M22.36 98.24l-11.71 5.77A2.968 2.968 0 0 0 9 106.67v.176l13.676-5.962 1.925-.144L35.973 108a2.965 2.965 0 0 0-1.224-2.817L24.6 98l-2.24.24z"/>
        <path fill="#000" d="M23 79v.984c-.35.01-.707.016-1.071.016-.315 0-.625 0-.929-.012V79h2z" opacity=".1"/>
        <ellipse cx="22" cy="76.5" fill="#3A3768" rx="6" ry="1.5"/>
        <path fill="#000" d="M28 76.501a.588.588 0 0 1-.256.434c-.741.618-3.032 1.065-5.743 1.065-2.65 0-4.898-.43-5.693-1.026a.635.635 0 0 1-.308-.473C16 75.673 18.687 75 22.001 75c3.315 0 5.999.672 5.999 1.501z" opacity=".1"/>
        <path fill="#000" d="M28 76.518a.597.597 0 0 1-.256.44c-.763-.165-1.291-.302-1.291-.302s-5.29.257-10.145.344a.644.644 0 0 1-.308-.48c0-.838 2.687-1.52 6.001-1.52 3.315 0 5.999.678 5.999 1.518z" opacity=".1"/>
        <path fill="#3A3768" d="M7.057 54.787s2.047 5.454 1.947 8.716c-.1 3.263-1.697 9.398-1.697 9.398s-1.597 4.967 2.496 5.405c4.092.439 17.466-.292 17.466-.292s4.992 1.46 6.587.827c.62-.245 1.158-.785 1.583-1.354a2.78 2.78 0 0 0 .514-2.18 2.83 2.83 0 0 0-1.267-1.864 8.761 8.761 0 0 0-2.406-1.007 1.978 1.978 0 0 0-.55-.066l-17.437.336s-1.946-.292-1.596-2.19c.35-1.9.947-7.743.947-7.743s.1-7.11-3.393-9.105c-3.494-1.996-3.194 1.119-3.194 1.119z"/>
        <path fill="#000" d="M7.057 54.788s2.047 5.452 1.947 8.714c-.1 3.262-1.697 9.397-1.697 9.397s-1.597 4.965 2.496 5.404c4.092.438 17.466-.294 17.466-.294s4.992 1.461 6.587.835c.62-.246 1.158-.786 1.583-1.354a2.78 2.78 0 0 0 .514-2.18 2.83 2.83 0 0 0-1.267-1.864 8.849 8.849 0 0 0-2.406-1.007 1.926 1.926 0 0 0-.55-.064l-17.437.33s-1.946-.293-1.596-2.192c.35-1.9.947-7.74.947-7.74s.1-7.108-3.393-9.105c-3.494-1.997-3.194 1.12-3.194 1.12z" opacity=".1"/>
        <path fill="#3A3768" d="M8.057 54.786s2.047 5.454 1.947 8.715c-.1 3.262-1.697 9.396-1.697 9.396S6.71 77.863 10.8 78.302c4.091.438 17.467-.292 17.467-.292s4.992 1.46 6.588.834c.62-.246 1.158-.786 1.583-1.355.47-.627.657-1.415.514-2.179a2.83 2.83 0 0 0-1.267-1.863 8.76 8.76 0 0 0-2.406-1.015 1.979 1.979 0 0 0-.55-.065l-17.437.335s-1.945-.292-1.596-2.19c.35-1.898.947-7.741.947-7.741s.1-7.108-3.393-9.103c-3.494-1.996-3.194 1.118-3.194 1.118z"/>
        <path fill="#434175" d="M42.072 99.83v1.998s7.902.172 9.643.172c1.74 0 4.136-1.033 4.278-1.861.143-.828-1.997-1.517-2.795-1.55-.8-.033-.827-.414-1.855-1.07-.579-.37-1.459-1.442-2.115-2.306-.506-.667-.879-1.209-.879-1.209s-4.251-.103-5.478.724c-.282.19-.477.564-.61 1.027-.442 1.543-.189 4.074-.189 4.074z"/>
        <path fill="#000" d="M42 97c1.024-.427 7.015-.592 8-.618-.581-.76-1.009-1.377-1.009-1.377s-4.881-.117-6.29.824c-.324.218-.548.642-.701 1.171z" opacity=".1"/>
        <path fill="#565387" d="M17 70.16l.486.286.182.107.709.412c3.787 2.213 14.116 8.209 14.683 8.166.147-.012.592-.077 1.207-.174l.522-.083c2.366-.382 6.298-1.071 6.737-1.261.602-.268.482.905.24 1.898-.242.993-.421 5.756-.15 6.366.27.61.15 1.607.15 1.607l-.36 5.344.241 1.135s-.813.642-.482 1.021c.332.379.03 2.016.03 2.016.968-.35 7.503-.467 7.503-.467s-.276-2.337-.03-2.892c.245-.554.06-3.855.06-3.855s.15-2.511-.12-3.095c-.27-.583.09-4.322.09-4.322s.242-2.22.301-6.747c.06-4.527-2.652-4.672-2.652-4.672s-.36-.028-.91-.079c-1.073-.1-2.863-.29-4.059-.535a7.174 7.174 0 0 1-.725-.187c-1.476-.488-6.447-.506-7.26-.156-.784.338-1.567.026-1.625 0L31.136 69l-6.044.5-.64.053-5.95.491-.414.035L17 70.16z"/>
        <path fill="#000" d="M41.88 73.838c1.718.932 3.357-2.373 4.12-4.236-1.05-.113-2.8-.327-3.97-.602-.77 1.43-1.796 3.946-.15 4.838z" opacity=".1"/>
        <path fill="#EE8E9E" d="M37 52.038c.037.212.11.417.216.604.657 1.351 2.56 4.132 2.56 4.132.565.36 1.043.845 1.397 1.419.519.898.671 3.002.671 3.002s1.16 4.674 1.707 5.325c.28.325.153.518-.038.63-.39.22-.72.535-.961.915-.8 1.304-2.076 3.894-.28 4.782 2.44 1.207 4.728-5.12 4.728-5.12s-.459-4.489-.58-5.262c-.122-.773-.854-3.963-.854-3.963s-.519-1.362-.824-2.321c-.305-.96-1.219-2.075-1.219-2.075s-1.648-3.342-2.105-3.838c-.213-.23-.51-.519-.768-.763-.297-.284-.543-.505-.543-.505S36.969 51.297 37 52.038z"/>
        <path fill="#434175" d="M16 99.291l5.255 2.672s6.811.164 8.003-.198c1.191-.363.926-1.88-.636-2.177-1.562-.298-1.934-1.087-2.454-1.45-.35-.245-1.597-1.828-2.368-2.83-.372-.482-.636-.831-.636-.831s-1.011-3.068-3.812-2.375a2.78 2.78 0 0 0-1.365.824c-1.51 1.596-1.641 4.754-1.641 4.754L16 99.291z"/>
        <path fill="#000" d="M19 70.637l.712.402c3.805 2.157 14.182 8.003 14.751 7.96.149-.011.596-.074 1.213-.169.164-.025.34-.05.525-.08l.02-.033c.306-.501.54-1.038.694-1.597.636-2.277-2.513-4.014-2.513-4.014l-.666-.487c-.756-1.198-6.205-2.33-6.205-2.33l-.702-.451-.376-.238-.099-.061-.852-.539-4.268.285-1.268.766-.139.08-.463.286-.364.22zM19 94.902c1.141 4.277 5.91 2.88 5.91 2.88l.09-.542c-.384-.472-.656-.814-.656-.814s-1.045-3.004-3.937-2.326a2.903 2.903 0 0 0-1.407.802z" opacity=".1"/>
        <path fill="#565387" d="M16.224 77.03c1.689 0 6.037 2.06 6.037 2.06.887.696 2.089.463 2.089.463s-2.114 2.174-2.055 3.074c.059.9-1.204 2.378-1.204 2.378l-3.893 7.798c.287 5.538 5.897 4.001 5.897 4.001l.23-1.305c.344-.174.86-1.913.86-1.913s0-.695.342-.899c.343-.203 1.06-2.29 1.06-2.29s1.545-2.639 1.459-2.986c-.087-.347 1.116-2.115 1.116-2.115s2.033-2.03 1.947-2.392c-.087-.363 1.635-2.22 1.635-2.22a5.815 5.815 0 0 0 1.52-1.797 6.71 6.71 0 0 0 .656-1.624c.484-1.868-1.353-3.38-2.087-3.896-.177-.125-.29-.191-.29-.191l-.63-.496c-.325-.556-1.568-1.098-2.828-1.522a32.86 32.86 0 0 0-3.04-.853l-.665-.452-.233-.16-.214-.144-.807-.549-1.796.133-2.241.16-1.199.782-.572.372-2.237 1.462s-.06.557-.078 1.306v.177c-.03 1.506.132 3.639 1.22 3.639z"/>
        <path fill="#EE8E9E" d="M27 42.841l.67 2.195s1.179 3.777 1.306 4.04c.127.263 3.208 2.927 3.34 2.985.133.058 1.807.939 1.807.939s.133-4.83 0-6.233c-.01-.309.017-.618.083-.92.203-1.102.716-2.716 1.142-3.96.356-1.042.652-1.823.652-1.823s-7.444-.294-7.189.38c.096.254.064.68-.028 1.106-.154.703-.474 1.406-.672 1.353a2.834 2.834 0 0 0-.59-.06c-.272-.011-.521-.002-.521-.002z"/>
        <path fill="#000" d="M28 41.706c2.07 1.577 5.028 1.727 7.277.37.395-1.147.723-2.006.723-2.006s-8.256-.323-7.973.418c.11.28.075.749-.027 1.218z" opacity=".1"/>
        <path fill="#EE8E9E" d="M26 37.999c0 2.022 1.34 3.846 3.394 4.62 2.055.774 4.421.347 5.994-1.083 1.574-1.43 2.045-3.58 1.193-5.45C35.731 34.219 33.725 33 31.5 33c-1.46-.006-2.863.518-3.896 1.457-1.033.939-1.61 2.214-1.604 3.542z"/>
        <path fill="#000" d="M26 43.004l.745 2.16s1.308 3.716 1.448 3.975c.141.258 3.562 2.88 3.71 2.937a160.7 160.7 0 0 1 2.005.924s.147-4.753 0-6.133A3.239 3.239 0 0 1 34 45.96l-.486 1.596.036 3.197.282.173-.635.778v-.577s-2.266-1.785-2.614-2.535c-.348-.75-1.619-2.104-1.619-2.104s-1.457-1.98-1.483-2.33c-.027-.264-.636-.893-.903-1.154-.301-.01-.578-.001-.578-.001zM36 53.502c.04.175.12.343.236.498.73-.056 3.213-.412 3.764-2.583a29.993 29.993 0 0 0-.595-.417S35.967 52.89 36 53.502zM15 73c.618-.472 1.206-1.116 1.558-1.293.52-.265 1.317-1.123 1.317-1.123s.202-.151.513-.345c.568-.359 1.501-.88 2.215-.943.639-.058 2.765-.205 4.436-.317l2.182-.151s1.991-.757 2.85-.265c.614.33 1.261.585 1.929.757v-.197L31.357 68l-6.797.625-.863-.625-4.32.33-1.283.89-1.107.102.495.322-2.395 1.665S15.014 72.048 15 73z" opacity=".1"/>
        <path fill="#DFE5EE" d="M14.39 71.98c.321-.09.623-.236.89-.43.612-.409 1.195-.967 1.542-1.121.517-.23 1.307-.977 1.307-.977s1.613-1.035 2.708-1.121c.298-.024.922-.065 1.672-.11l2.483-.15 1.288-.077 1.125-.065s1.977-.658 2.829-.23c.61.287 1.252.508 1.915.658 0 0 .03-2.01.279-2.844.248-.834.577-2.356.577-2.356s.279-2.097.548-3.045 1.338-6.234 1.886-6.584c.548-.35.85.263.85.263s3.65-.058 3.711-3.849c0 0-1.703-1.61-1.825-2.01-.121-.403-1.733-1.897-1.733-1.897s-.913-1.61-1.951-1.638a8.665 8.665 0 0 0-1.464.043l-.878 3.375.03 3.19.245.172-.548.776v-.565s-1.952-1.782-2.25-2.528c-.299-.747-1.394-2.1-1.394-2.1s-1.246-1.976-1.277-2.325c-.03-.35-.883-1.268-.883-1.268a2.286 2.286 0 0 0-.517 0 .588.588 0 0 1-.226-.03 3.226 3.226 0 0 0-1.519-.082c-1.051.206-2.649.583-3.09 1.035-.668.69-1.641 1.35-2.737 4.223l5.9 2.01-.505.908-4.695 8.428s-.156.24-.367.552c-.279.406-.64.936-.88 1.227-.426.518-.305 2.155-.305 2.155s-.09.775-.394 1.064c-.304.288-.246 1.348-.246 1.348l-.79 2.787s-.73.632-.73.922c0 .29-.578 1.091-.578 1.091s-.882 1.375-.004 1.175z"/>
        <path fill="#000" d="M18 59.542c.038.169.068.34.088.511 0 0 2.264 5.646 2.55 5.982.089.104.422.611.84 1.26l.48.753a889.82 889.82 0 0 1 1.84 2.925l2.12 1.984s4.616.393 6.082-1.202a4.687 4.687 0 0 0-.29-.201l-.631-.522c-.326-.585-1.57-1.155-2.832-1.602-1.162.009-2.112.11-2.112.11l-.302-.848-.315-.884-1.609-4.488s-1.034-5.676-1.378-5.952c-.344-.275-.263-1.129-.263-1.129s.63-2.41.4-2.746c-.23-.336.374-2.809.374-2.809a2.622 2.622 0 0 0-.276-.684l-4.426 8.953s-.142.254-.34.59z" opacity=".1"/>
        <path fill="#EE8E9E" d="M23.2 50.6s-.629 2.48-.389 2.818c.24.337-.42 2.756-.42 2.756s-.09.857.275 1.133c.364.275 1.44 5.972 1.44 5.972l2.323 6.248s7.266-.735 6.517 1.592c-.749 2.328-6.744 1.838-6.744 1.838l-2.217-1.99s-2.998-4.625-3.297-4.962c-.3-.337-2.668-6.003-2.668-6.003s-.12-1.133-.63-1.716c-.51-.582-.12-1.565-.12-1.565s-.628-7.408.031-8.295c.66-.888 5.212-.49 5.9 2.174z"/>
        <path fill="#000" d="M45 75s-1.54.73-1.952 1.77C42.636 77.808 45 75 45 75zM44 73c-.049.081-2.124 2.383-1.994 2.94C42.136 76.497 44 73 44 73zM31 74s-2.753 1.332-2.988 1.912C27.777 76.492 31 74 31 74zM31 76s-2.621.782-2.974.978C27.674 77.174 31 76 31 76zM30 78.908s-1.217.583-1.888.125c-.67-.457 1.888-.125 1.888-.125zM34 57c-.062.098-3.877 7.42-4.884 7.974C28.109 65.528 34 57 34 57zM34 59c0 .167-3.394 8.895-3.952 9-.559.103 3.952-9 3.952-9zM19 64s-1.384 3.77-1.923 3.992C16.538 68.212 19 64 19 64z" opacity=".1"/>
        <path fill="#000" d="M19 64s-.584 1-.938 1c-.355 0 .938-1 .938-1zM26 37.926c0 .709.118 1.41.348 2.074-.04-1.555.52-3.057 1.55-4.148 1.028-1.09 2.432-1.67 3.874-1.6.267.012.583.08.69.34.043.14.065.286.066.434.08.665.707 1.081 1.296 1.298.588.216 1.244.355 1.67.843.391.447.502 1.09.694 1.668.108.355.292.677.536.942.68-2.226.078-4.674-1.534-6.245-1.613-1.572-3.934-1.973-5.922-1.022-1.987.95-3.268 3.073-3.268 5.416z" opacity=".1"/>
        <path fill="#603556" d="M35.82 32.938c-.426-.566-1.18-.763-1.835-1.048A5.738 5.738 0 0 1 30.722 28a1.976 1.976 0 0 0 .2 2.5c-1.191-.08-2.507-.214-3.315-1.076-.184.621.366 1.328.066 1.904-.258.495-.96.538-1.414.874-.484.353-.645.992-.675 1.583-.03.59.033 1.196-.145 1.761-.137.43-.411.824-.439 1.272-.003.334.072.664.22.964A8.68 8.68 0 0 0 26.58 40a4.738 4.738 0 0 1 1.06-4.096 4.938 4.938 0 0 1 3.946-1.69c.251.01.549.07.65.293.04.12.061.245.062.372.076.569.665.925 1.22 1.111.553.186 1.17.306 1.572.723.368.383.472.934.653 1.43.18.497.53 1.016 1.064 1.077.122-.738.245-1.48.17-2.229-.082-.8-.63-1.254-.823-1.95-.208-.732.187-1.408-.334-2.103z"/>
        <path fill="#000" d="M20.028 47.39l-2.006 1.079s-.574 1.729-1.022 1.95c0 0 4.014-1.985 7.04 2.581 0 0-.096-.595.317-.879.414-.283.319-1.503.319-1.503.111-.193.209-.393.292-.597.277-.617-1.22-4.19-4.94-2.63z" opacity=".1"/>
        <path fill="#DFE5EE" d="M20.029 47.39l-2.007 1.077s-.574 1.728-1.022 1.955c0 0 4.012-1.984 7.037 2.578 0 0-.095-.595.32-.878.414-.283.318-1.502.318-1.502.112-.192.21-.391.292-.595.283-.623-1.22-4.193-4.938-2.635z"/>
        <g fill="#000" opacity=".1">
            <path d="M27.822 31.293c-.007-.455-.3-.956-.157-1.407l.025.025c.034.465.313.955.132 1.382zM25.691 33.694c-.029.512.02 1.023-.103 1.521.045-.39.02-.792.042-1.186a3.06 3.06 0 0 1 .079-.555 3.195 3.195 0 0 0-.018.22zM25.043 36.912c.008-.101.028-.202.06-.299.004.305.08.606.221.881a8.145 8.145 0 0 0 1.228 1.944c.016.168.043.335.08.5a8.186 8.186 0 0 1-1.369-2.109 1.947 1.947 0 0 1-.22-.917zM31.06 30.575a16.817 16.817 0 0 1-.351-.023 1.84 1.84 0 0 1-.2-1.442c-.051.539.15 1.072.552 1.465zM27.756 35.707c.992-1.066 2.453-1.657 3.97-1.606.253.011.553.066.656.279.04.114.06.233.062.353.076.54.668.881 1.226 1.056.559.176 1.177.29 1.581.688.371.365.476.888.658 1.359.182.47.532.964 1.068 1.023l-.058.335c-.537-.054-.889-.547-1.07-1.023-.183-.476-.288-.995-.657-1.36-.404-.396-1.025-.511-1.582-.687-.558-.175-1.15-.511-1.227-1.056 0-.12-.021-.24-.062-.353-.107-.212-.401-.269-.653-.279-2.423-.105-4.564 1.45-5.035 3.657.12-.879.51-1.707 1.123-2.386z"/>
        </g>
        <path fill="#3A3768" d="M59 46v5l-5-.383V46z"/>
        <path fill="#000" d="M59 51.484V52l-5-.484V51z" opacity=".1"/>
        <path fill="#3A3768" d="M62 52l-9-.345c0-.362.394-.655.88-.655l7.24.345c.486 0 .88.293.88.655zM72.14 47l-28.28-.787a.89.89 0 0 1-.608-.235.777.777 0 0 1-.252-.569V29.803c0-.213.09-.418.252-.568a.89.89 0 0 1 .609-.235l28.278.787c.475 0 .86.359.861.803v15.606c0 .444-.385.804-.86.804z"/>
        <path fill="#7CBE35" d="M72 46l-29-.795V31l29 .795z"/>
        <ellipse cx="57" cy="30" fill="#FFF" rx="1" ry="1"/>
        <path fill="#000" d="M59 46.995l-5-.082v.174h5zM50.38 53l7.62.353L56.377 55 48 54.368z" opacity=".1"/>
        <path fill="#3A3768" d="M50.38 53l7.62.353L56.377 55 48 54.368z"/>
        <path fill="#D5E1F4" d="M50.143 53l6.857.352L55.54 55 48 54.368z"/>
        <ellipse cx="123.5" cy="109" fill="#7CBE35" opacity=".1" rx="8.5" ry="1"/>
        <path fill="#7CBE35" d="M127.754 76s1 1.443-.463 3.623c-1.464 2.18-2.666 4.022-2.182 5.377 0 0 2.208-4.048 4.004-4.104 1.796-.056.622-2.466-1.36-4.896z"/>
        <path fill="#000" d="M127.728 76c.088.14.157.291.206.452 1.773 2.272 2.718 4.391 1.014 4.444-1.587.05-3.491 3.143-3.948 3.926.015.06.033.12.054.178 0 0 2.233-4.048 4.05-4.104 1.815-.056.628-2.466-1.376-4.896z" opacity=".1"/>
        <path fill="#FFD037" d="M130.213 79.261c0 .404-.096.739-.212.739-.116 0-.214-.329-.214-.739s.119-.214.237-.214c.119 0 .189-.19.189.214zM130.76 80.002c-.39.147-.73.235-.758.198-.028-.037.262-.187.65-.334.39-.146.237-.039.27 0 .034.04.227-.01-.163.136z"/>
        <path fill="#7CBE35" d="M123.247 76s-1.001 1.443.462 3.623c1.464 2.18 2.666 4.022 2.182 5.377 0 0-2.207-4.048-4.005-4.104-1.797-.056-.616-2.466 1.361-4.896z"/>
        <path fill="#000" d="M123.273 76a1.845 1.845 0 0 0-.207.452c-1.773 2.272-2.718 4.391-1.014 4.444 1.588.05 3.493 3.143 3.948 3.926-.015.06-.033.12-.054.178 0 0-2.232-4.048-4.05-4.104-1.817-.056-.623-2.466 1.377-4.896z" opacity=".1"/>
        <path fill="#FFD037" d="M121.787 79.261c0 .404.094.739.213.739.12 0 .213-.329.213-.739s-.12-.214-.236-.214c-.117 0-.19-.19-.19.214zM121.24 80.002c.39.147.728.235.758.198.03-.037-.27-.187-.651-.334-.382-.146-.235-.039-.27 0-.035.04-.225-.01.163.136z"/>
        <ellipse cx="125.5" cy="93.5" fill="#7CBE35" opacity=".1" rx="10.5" ry="1.5"/>
        <path fill="#65617D" d="M130.998 83.564l-.052.378-.071.532-.03.222-.072.532-.03.223-.072.532-.817 6.056c-.073.54-1.051.961-2.231.961h-4.247c-1.18 0-2.155-.42-2.228-.961l-.82-6.056-.07-.532-.03-.223-.074-.532-.03-.222-.072-.532-.05-.378c-.041-.305.487-.564 1.154-.564h8.688c.663 0 1.195.259 1.154.564z"/>
        <path fill="#9D9CB5" d="M131 84.792l-.072.416h-10.856l-.072-.416z"/>
        <path fill="#9D9CB5" d="M131 84.792l-.074.416h-10.85l-.076-.416z"/>
        <path fill="#9D9CB5" d="M131 84.792l-.075.416h-10.85l-.075-.416z"/>
    </g>
</svg>
