<svg xmlns="http://www.w3.org/2000/svg" width="216" height="157" viewBox="0 0 216 157">
    <defs>
        <linearGradient id="a" x1="49.999%" x2="49.999%" y1="100%" y2="0%">
            <stop offset="1%" stop-color="gray" stop-opacity=".25"/>
            <stop offset="54%" stop-color="gray" stop-opacity=".12"/>
            <stop offset="100%" stop-color="gray" stop-opacity=".1"/>
        </linearGradient>
        <linearGradient id="b" x1="49.996%" x2="49.996%" y1="100%" y2="0%">
            <stop offset="1%" stop-color="gray" stop-opacity=".25"/>
            <stop offset="54%" stop-color="gray" stop-opacity=".12"/>
            <stop offset="100%" stop-color="gray" stop-opacity=".1"/>
        </linearGradient>
    </defs>
    <g fill="none" fill-rule="evenodd" transform="translate(-443 -236)">
        <path fill="#608637" fill-rule="nonzero" d="M0 0h1600v640H0z"/>
        <rect width="459" height="345" x="320" y="76" fill="#FFF" fill-rule="nonzero" rx="4"/>
        <path fill="url(#a)" d="M207.049 39H100.034C89.522 39 81 47.59 81 58.185v66.405a8.97 8.97 0 0 0 2.604 6.363 9.001 9.001 0 0 0 6.347 2.66h67.96c2.262 7.815 7.937 18.586 22.234 23.387l-4.036-23.387h30.94a9.001 9.001 0 0 0 6.347-2.66A8.97 8.97 0 0 0 216 124.59V48.023a8.97 8.97 0 0 0-2.604-6.363A9.001 9.001 0 0 0 207.05 39z" transform="translate(443 236)"/>
        <path fill="#FAFAFA" d="M648.333 277h-103.86c-4.9 0-9.598 1.936-13.062 5.382A18.324 18.324 0 0 0 526 295.374v63.595c0 4.769 3.886 8.634 8.68 8.634h65.959c2.194 7.484 7.71 17.8 21.575 22.397l-3.926-22.39h30.032c4.794 0 8.68-3.865 8.68-8.633V285.64c.004-4.766-3.876-8.634-8.667-8.641z"/>
        <path fill="#E0E0E0" d="M567 294h54v7h-54zM601 306h20v7h-20zM581 318h40v7h-40zM571 331h49v7h-49zM594 343h26v7h-26z"/>
        <path fill="url(#b)" d="M8.873 0h116.242C130.023 0 134 4.039 134 9.022v76.569c0 4.983-3.977 9.022-8.885 9.022H57.657C55.41 102.427 49.77 113.208 35.585 118l4.007-23.387H8.885C3.977 94.613 0 90.573 0 85.59V9.017C-.012 4.04 3.965 0 8.873 0z" transform="translate(443 236)"/>
        <path fill="#FFF" d="M453.68 238h113.64c4.794 0 8.68 3.865 8.68 8.633v73.336c0 4.769-3.886 8.634-8.68 8.634h-65.945c-2.195 7.484-7.71 17.8-21.576 22.397l3.916-22.397H453.68c-4.794 0-8.68-3.865-8.68-8.634v-73.328a8.61 8.61 0 0 1 2.54-6.11 8.704 8.704 0 0 1 6.14-2.531z"/>
        <path fill="#7CBE35" d="M483 252h54v7h-54zM484 265h20v7h-20zM484 277h40v7h-40zM484 289h49v7h-49zM484 302h26v7h-26z"/>
    </g>
</svg>
