<svg xmlns="http://www.w3.org/2000/svg" width="173" height="118" viewBox="0 0 173 118">
    <defs>
        <linearGradient id="a" x1="99.989%" x2="0%" y1="50.002%" y2="50.002%">
            <stop offset="0%" stop-color="gray" stop-opacity=".25"/>
            <stop offset="54%" stop-color="gray" stop-opacity=".12"/>
            <stop offset="100%" stop-color="gray" stop-opacity=".1"/>
        </linearGradient>
    </defs>
    <g fill="none" fill-rule="evenodd">
        <path fill="#7CBE35" d="M172.812 49.81c-1.053 4.23-6.456 6.351-9.484 9.508-5.705 5.949-3.484 14.637.136 21.594 1.212 2.33 2.587 4.796 2.074 7.294-.626 3.056-3.95 5.29-7.441 6.474-6.362 2.157-13.98 1.643-19.828-1.34-5.052-2.578-8.672-6.764-13.81-9.232-8.602-4.117-19.55-2.556-28.89.275-6.606 2.006-13.83 4.617-20.396 2.522-4.62-1.476-7.814-5.068-9.554-8.868-.84-1.838-1.45-3.828-3.054-5.285-.954-.867-2.199-1.482-3.472-1.999-11.644-4.735-26.354-2.199-37.657-7.45-7.637-3.546-12.527-10.235-14.691-17.21-2.165-6.976-1.913-14.29-1.363-21.475.39-5.11 1.092-10.554 5.069-14.495 4.207-4.168 11.427-5.712 17.955-4.925 6.528.786 12.442 3.616 17.648 6.94 6.512 4.158 12.537 9.333 20.524 11.016 5.438 1.147 11.159.519 16.769.301 9.378-.362 18.76.451 28.084 1.329 4.544.431 9.103.884 13.607 1.539a122.286 122.286 0 0 1 4.544.74c.394.07.786.15 1.178.22.62.12 1.236.245 1.851.376 1.766.376 3.515.801 5.246 1.285 6.02 1.685 10.845 4.745 16.529 6.883 3.705 1.393 7.744 1.778 11.252 3.551 4.316 2.178 8.281 5.983 7.174 10.432z" opacity=".1"/>
        <circle cx="142.5" cy="56.5" r="15.5" fill="#7CBE35"/>
        <circle cx="125.5" cy="52.5" r="15.5" fill="#7CBE35"/>
        <circle cx="107.5" cy="52.5" r="15.5" fill="#7CBE35"/>
        <circle cx="101.5" cy="56.5" r="15.5" fill="#7CBE35"/>
        <circle cx="91.5" cy="58.5" r="15.5" fill="#7CBE35"/>
        <circle cx="87.5" cy="45.5" r="15.5" fill="#7CBE35"/>
        <circle cx="92.5" cy="31.5" r="15.5" fill="#7CBE35"/>
        <circle cx="100.5" cy="31.5" r="15.5" fill="#7CBE35"/>
        <circle cx="105.5" cy="25.5" r="15.5" fill="#7CBE35"/>
        <circle cx="118.5" cy="32.5" r="15.5" fill="#7CBE35"/>
        <circle cx="148.5" cy="45.5" r="15.5" fill="#7CBE35"/>
        <circle cx="139.5" cy="38.5" r="15.5" fill="#7CBE35"/>
        <circle cx="133.5" cy="30.5" r="15.5" fill="#7CBE35"/>
        <circle cx="122.5" cy="18.5" r="15.5" fill="#7CBE35"/>
        <circle cx="142.5" cy="31.5" r="15.5" fill="#7CBE35"/>
        <g fill="#000" opacity=".1" transform="translate(72 3)">
            <ellipse cx="70.399" cy="53.218" rx="15.546" ry="15.389"/>
            <ellipse cx="53.866" cy="49.014" rx="15.546" ry="15.389"/>
            <ellipse cx="35.667" cy="49.164" rx="15.546" ry="15.389"/>
            <ellipse cx="29.752" cy="53.218" rx="15.546" ry="15.389"/>
            <ellipse cx="19.741" cy="54.57" rx="15.546" ry="15.389"/>
            <ellipse cx="15.646" cy="42.408" rx="15.546" ry="15.389"/>
            <ellipse cx="20.196" cy="28.294" rx="15.546" ry="15.389"/>
            <ellipse cx="28.841" cy="28.294" rx="15.546" ry="15.389"/>
            <ellipse cx="33.847" cy="21.988" rx="15.546" ry="15.389"/>
            <ellipse cx="46.587" cy="28.894" rx="15.546" ry="15.389"/>
            <ellipse cx="76.314" cy="42.408" rx="15.546" ry="15.389"/>
            <ellipse cx="67.365" cy="34.75" rx="15.546" ry="15.389"/>
            <ellipse cx="61.602" cy="27.092" rx="15.546" ry="15.389"/>
            <ellipse cx="50.682" cy="15.531" rx="15.546" ry="15.389"/>
            <ellipse cx="71.006" cy="28.294" rx="15.546" ry="15.389"/>
        </g>
        <path fill="#67647E" d="M134.952 84s9.41-7.941 4.755-19.25L135.05 63 130 78.615 134.952 84z"/>
        <path fill="#000" d="M134.916 62l1.084.419-4.825 15.33 4.21 4.705c-.349.359-.566.546-.566.546L130 77.615 134.916 62z" opacity=".1"/>
        <ellipse cx="88" cy="104" fill="#7CBE35" opacity=".1" rx="84" ry="14"/>
        <path fill="#7CBE35" d="M152.568 82s-3.256 3.108-1.418 7.72C152.99 94.332 148 102 148 102l.16-.024c6.687-1.127 10.01-8.427 6.291-13.85-1.39-2.014-2.526-4.38-1.883-6.126z"/>
        <path stroke="#535461" d="M152.291 82s-1.727 3.81 0 6.917c1.727 3.108.3 11.83-4.291 13.083"/>
        <path fill="#7CBE35" d="M158 95.037s-3.65-.54-3.981 2.5C153.687 100.578 147 101 147 101l.126.078c5.52 3.363 10.795 2.145 10-2.327-.295-1.663-.271-3.333.874-3.713z"/>
        <path fill="#F5F5F5" d="M158 95.037s-3.65-.54-3.981 2.5C153.687 100.578 147 101 147 101l.126.078c5.52 3.363 10.795 2.145 10-2.327-.295-1.663-.271-3.333.874-3.713z" opacity=".2"/>
        <path stroke="#535461" d="M158 94s-2.832.603-2.6 3.064c.23 2.462-4.207 5.427-8.4 3.081"/>
        <path fill="#67647E" d="M92 67.534l1.22 4.928s8.62 1.134 14.366.422a7.426 7.426 0 0 0 2.865-1.044c.485-.29 1.252-.415 2.299.376 1.794 1.365 10.598 12.283 9.172 23.61a3.897 3.897 0 0 1-3.33 3.372 11.633 11.633 0 0 0-4.91 1.874L109.327 104l44.674-.986-4.638-5.666s-3.173-2.71-5.614-2.957c-.713-.071-1.3-.73-1.775-1.627-2.78-5.254-6.107-10.194-9.713-14.911-2.626-3.436-4.83-7.057-4.624-9.332.488-5.42 0-14.29 0-14.29L118.36 53s1.22 11.827-10.01 14.783C97.123 70.738 92 67.534 92 67.534z"/>
        <g fill="#000" opacity=".1">
            <path d="M99.656 69.782s5.166 3.196 16.482.245c11.317-2.951 10.086-14.754 10.086-14.754l1.78.232c-.034-.757-.06-1.211-.06-1.211l-9.347-1.229s1.23 11.804-10.086 14.754c-11.315 2.95-16.482-.245-16.482-.245l1.23 4.918s3.318.433 7.22.595l-.823-3.305zM121.505 103.252a11.79 11.79 0 0 1 4.946-1.87 3.902 3.902 0 0 0 3.355-3.352c1.445-11.305-7.432-22.22-9.235-23.577-1.968-1.475-2.952.245-2.952.245-.697.183-1.405.318-2.12.405 3.189 4.237 7.75 12.365 6.683 20.713a3.902 3.902 0 0 1-3.355 3.352c-1.769.24-3.46.88-4.946 1.87l-4.39 2.923 11.318-.247.696-.462z"/>
        </g>
        <path stroke="#535461" stroke-width="2" d="M99.354 91s-.898-3.132.167-5.438c.453-.965.59-2.054.389-3.104A8.495 8.495 0 0 0 99.476 81"/>
        <path fill="#7CBE35" d="M99.997 79.634c0 .35-.5 1.366-.5 1.366S99 79.984 99 79.634c0-.35.224-.634.5-.634s.5.284.5.634h-.003zM101.837 81.107C101.564 81.434 100 82 100 82s.03-1.333.303-1.66c.173-.22.487-.35.82-.34.333.011.633.161.781.391a.573.573 0 0 1-.067.717v-.001zM101.623 84.934c-.337.122-1.623.038-1.623.038s.67-.797 1.008-.92a.916.916 0 0 1 .683.029c.204.097.322.265.308.44-.014.177-.157.334-.376.414v-.001zM100.723 88.578C100.393 88.869 99 89 99 89s.513-1.557.843-1.847c.329-.267.775-.176 1.012.207.236.382.178.92-.132 1.218zM98.228 82.368c.313.31 1.772.632 1.772.632s-.356-1.478-.676-1.788a.78.78 0 0 0-1.1.032.818.818 0 0 0 0 1.124h.004zM97.377 85.934c.338.122 1.623.038 1.623.038s-.67-.797-1.008-.92c-.337-.122-.749-.024-.919.22-.17.243-.034.54.304.663v-.001zM97.277 89.578C97.607 89.869 99 90 99 90s-.513-1.557-.843-1.847c-.329-.267-.775-.176-1.012.207-.236.382-.178.92.132 1.218z"/>
        <path fill="#A8A8A8" d="M97 90.486s1.783-.302 2.258-.706c.474-.404 2.614-1.109 2.853-.605.239.504 3.21 2.218 1.188 2.52-2.022.303-4.755.4-5.342.201-.588-.198-.957-1.41-.957-1.41z"/>
        <path fill="#000" d="M103.3 92.353c-2.023.396-4.76.524-5.348.264-.453-.201-.768-1.168-.892-1.617l-.06.014s.357 1.585.952 1.849c.594.263 3.331.132 5.348-.264.584-.115.75-.382.688-.723-.05.217-.254.388-.688.477z" opacity=".2"/>
        <path fill="#A8A8A8" d="M126 100.948s5.093-1.008 6.452-2.35c1.36-1.344 7.47-3.695 8.148-2.015.68 1.68 9.171 7.388 3.402 8.396-5.768 1.008-13.58 1.343-15.279.671-1.698-.671-2.723-4.702-2.723-4.702z"/>
        <path fill="#000" d="M144.002 104.382c-5.77.991-13.585 1.32-15.284.66-1.293-.503-2.193-2.919-2.548-4.042l-.17.035s1.02 3.961 2.717 4.621c1.697.66 9.51.331 15.284-.66 1.667-.287 2.144-.957 1.963-1.806-.14.554-.722.98-1.962 1.192z" opacity=".2"/>
        <path fill="#7CBE35" d="M161 71.499a2.799 2.799 0 0 1-.496 1.501 2.8 2.8 0 0 1-.504-1.499c0-.828.22-1.5.496-1.501.277-.001.501.67.504 1.499zM118 71.5a2.8 2.8 0 0 1-.5 1.5 2.8 2.8 0 0 1-.5-1.5c0-.828.223-1.5.5-1.5s.5.672.5 1.5zM164.472 88.17c.326.542.508 1.176.528 1.83a3.125 3.125 0 0 1-1.381-1.13c-.528-.817-.763-1.637-.528-1.83.236-.192.855.314 1.381 1.13zM147 79.5a2.8 2.8 0 0 1-.5 1.5 2.8 2.8 0 0 1-.5-1.5c0-.828.223-1.5.5-1.5s.5.674.5 1.5zM136 73.5a2.8 2.8 0 0 1-.5 1.5 2.8 2.8 0 0 1-.5-1.5c0-.828.223-1.5.5-1.5s.5.672.5 1.5zM129.591 77.236c.31.541.449 1.153.4 1.764a3.44 3.44 0 0 1-1.454-1.21c-.51-.82-.687-1.61-.399-1.764.29-.153.945.389 1.453 1.21zM124.914 92.365c-.54.335-1.204.555-1.914.635.159-.495.512-.949 1.02-1.308.808-.537 1.667-.82 1.913-.635.247.185-.21.772-1.019 1.308z"/>
        <path fill="#000" d="M124.914 92.365c-.54.335-1.204.555-1.914.635.159-.495.512-.949 1.02-1.308.808-.537 1.667-.82 1.913-.635.247.185-.21.772-1.019 1.308z" opacity=".1"/>
        <path fill="#7CBE35" d="M134.914 91.365c-.54.335-1.204.555-1.914.635.159-.495.512-.949 1.02-1.308.808-.537 1.667-.82 1.913-.635.247.185-.21.77-1.019 1.308z"/>
        <path fill="#000" d="M134.914 91.365c-.54.335-1.204.555-1.914.635.159-.495.512-.949 1.02-1.308.808-.537 1.667-.82 1.913-.635.247.185-.21.77-1.019 1.308z" opacity=".1"/>
        <path fill="#7CBE35" d="M136.913 102.366c-.54.334-1.203.554-1.913.634.158-.496.512-.95 1.02-1.31.81-.535 1.667-.818 1.913-.633.247.185-.21.773-1.02 1.31z"/>
        <path fill="#000" d="M136.913 102.366c-.54.334-1.203.554-1.913.634.158-.496.512-.95 1.02-1.31.81-.535 1.667-.818 1.913-.633.247.185-.21.773-1.02 1.31z" opacity=".1"/>
        <path fill="#7CBE35" d="M13.35 85.293C15.612 88.723 14.89 101 14.89 101S3.52 97.134 1.258 93.706c-2.262-3.429-1.388-8.092 1.951-10.415 3.34-2.323 7.881-1.426 10.143 2.003l-.001-.001z"/>
        <path fill="#000" d="M13.35 85.293C15.612 88.723 14.89 101 14.89 101S3.52 97.134 1.258 93.706c-2.262-3.429-1.388-8.092 1.951-10.415 3.34-2.323 7.881-1.426 10.143 2.003l-.001-.001z" opacity=".1"/>
        <path stroke="#535461" d="M3 83s8.752 6.865 12 18"/>
        <path fill="#7CBE35" d="M17.37 92.03S11.306 91 15.447 101c0 0 4.213-1.6 4.542-5.578a3.177 3.177 0 0 0-2.537-3.376l-.082-.016z"/>
        <path stroke="#535461" d="M17.814 92s1.044 5.542-1.814 9"/>
        <path fill="#A8A8A8" d="M153 101.476s2.547-.505 3.226-1.176c.679-.672 3.736-1.848 4.075-1.009.34.84 4.585 3.696 1.699 4.198-2.886.503-6.792.672-7.64.337-.85-.335-1.36-2.35-1.36-2.35z"/>
        <path fill="#000" d="M162 103.028c-2.886.594-6.792.792-7.64.397-.647-.303-1.097-1.748-1.275-2.425l-.085.021s.51 2.376 1.36 2.773c.849.397 4.754.197 7.64-.397.834-.175 1.072-.574.982-1.084-.076.33-.366.587-.982.715z" opacity=".2"/>
        <circle cx="142.5" cy="53.5" r="15.5" fill="#7CBE35"/>
        <circle cx="125.5" cy="48.5" r="15.5" fill="#7CBE35"/>
        <circle cx="107.5" cy="49.5" r="15.5" fill="#7CBE35"/>
        <circle cx="101.5" cy="53.5" r="15.5" fill="#7CBE35"/>
        <circle cx="91.5" cy="54.5" r="15.5" fill="#7CBE35"/>
        <circle cx="87.5" cy="42.5" r="15.5" fill="#7CBE35"/>
        <circle cx="92.5" cy="28.5" r="15.5" fill="#7CBE35"/>
        <circle cx="100.5" cy="28.5" r="15.5" fill="#7CBE35"/>
        <circle cx="105.5" cy="21.5" r="15.5" fill="#7CBE35"/>
        <circle cx="118.5" cy="28.5" r="15.5" fill="#7CBE35"/>
        <circle cx="148.5" cy="42.5" r="15.5" fill="#7CBE35"/>
        <circle cx="139.5" cy="34.5" r="15.5" fill="#7CBE35"/>
        <circle cx="133.5" cy="27.5" r="15.5" fill="#7CBE35"/>
        <circle cx="122.5" cy="15.5" r="15.5" fill="#7CBE35"/>
        <circle cx="142.5" cy="28.5" r="15.5" fill="#7CBE35"/>
        <path fill="#000" d="M158 30.868S143.67 24.223 135 36M120 17.002S104.118 16.524 101 31M100 48.87S85.67 42.22 77 54" opacity=".1"/>
        <path fill="#7CBE35" d="M37.204 87s.8 1.123-.37 2.815S34.7 92.943 35.086 94c0 0 1.764-3.15 3.204-3.193 1.44-.044.492-1.913-1.086-3.807z"/>
        <path fill="#000" d="M37.18 87c.07.108.126.227.165.352 1.417 1.765 2.172 3.414.81 3.456-1.268.039-2.791 2.445-3.155 3.053.012.047.026.094.043.139 0 0 1.783-3.147 3.24-3.19 1.457-.044.493-1.918-1.103-3.81z" opacity=".1"/>
        <path fill="#FFD037" d="M38.095 88.263c0 .407-.042.737-.095.737s-.095-.322-.095-.737.053-.215.106-.215.084-.191.084.215z"/>
        <path fill="#FFD037" d="M38.762 88.505c-.39.352-.732.564-.76.474-.028-.09.264-.447.654-.8.39-.35.236-.095.266 0 .03.097.23-.014-.16.326z"/>
        <path fill="#7CBE35" d="M32.796 87s-.799 1.123.37 2.815c1.17 1.692 2.133 3.128 1.748 4.185 0 0-1.764-3.15-3.204-3.193-1.44-.044-.493-1.913 1.086-3.807z"/>
        <path fill="#000" d="M32.82 87c-.07.108-.126.227-.165.352-1.416 1.765-2.172 3.414-.81 3.456 1.268.039 2.791 2.445 3.155 3.053a1.362 1.362 0 0 1-.043.139s-1.783-3.147-3.24-3.19c-1.456-.044-.495-1.918 1.103-3.81z" opacity=".1"/>
        <path fill="#FFD037" d="M30.905 88.263c0 .407.042.737.095.737s.095-.322.095-.737-.053-.215-.106-.215-.084-.191-.084.215z"/>
        <path fill="#FFD037" d="M30.236 88.505c.392.352.734.564.762.474.028-.09-.265-.447-.656-.8-.392-.35-.237-.095-.267 0-.03.097-.224-.014.161.326z"/>
        <path fill="#A8A8A8" d="M31 93.144s2.419-.064 3.15-.52c.73-.454 3.72-.996 3.9-.268.18.728 3.634 3.624.904 3.643-2.73.02-6.345-.372-7.072-.76-.728-.39-.882-2.095-.882-2.095z"/>
        <path fill="#000" d="M39.003 96.736c-2.732.02-6.346-.391-7.074-.8-.554-.309-.775-1.422-.849-1.936H31s.157 1.793.88 2.2c.723.407 4.343.82 7.074.8.787 0 1.06-.264 1.045-.646-.108.233-.406.377-.996.382z" opacity=".2"/>
        <path fill="#7CBE35" d="M18.423 107.988c.267-.24.462-.566.558-.932.073-.371-.07-.815-.39-.95-.359-.152-.742.122-1.032.401-.29.28-.624.595-1.005.536.398-.4.577-1 .473-1.583a.697.697 0 0 0-.132-.323c-.2-.235-.56-.134-.798.052-.758.59-.97 1.73-.974 2.756-.076-.37-.012-.755-.015-1.13-.003-.374-.096-.807-.384-1.003a1.076 1.076 0 0 0-.584-.154c-.34-.014-.72.025-.953.3-.291.343-.214.919.038 1.291.252.373.634.613.987.875a2.3 2.3 0 0 1 .705.744.78.78 0 0 1 .053.132h2.135c.479-.27.922-.61 1.318-1.012zM155.423 110.988c.267-.24.462-.566.558-.932.073-.371-.07-.815-.39-.95-.359-.152-.742.122-1.032.401-.29.28-.624.595-1.005.536.398-.4.577-1 .473-1.583a.697.697 0 0 0-.132-.323c-.2-.235-.56-.134-.798.052-.758.59-.97 1.73-.974 2.756-.076-.37-.012-.755-.015-1.13-.003-.374-.096-.807-.384-1.003a1.076 1.076 0 0 0-.584-.154c-.34-.014-.72.025-.953.3-.291.343-.214.919.038 1.291.252.373.634.613.987.875a2.3 2.3 0 0 1 .705.744.78.78 0 0 1 .053.132h2.135c.479-.27.922-.61 1.318-1.012z"/>
        <path fill="#DC9BA3" d="M103.833 109.53s-.145 2.218.145 2.586c0 0-6.654 1.182-7.486.812-.832-.37-.454-.96 0-1.182.454-.222 2.723-1.035 3.024-2.585 0 0-.982-.443 2.193.141 3.175.585 2.124.228 2.124.228z"/>
        <path fill="#000" d="M103.833 109.53s-.145 2.218.145 2.586c0 0-6.654 1.182-7.486.812-.832-.37-.454-.96 0-1.182.454-.222 2.723-1.035 3.024-2.585 0 0-.982-.443 2.193.141 3.175.585 2.124.228 2.124.228z" opacity=".05"/>
        <path fill="#FFD2D9" d="M131 87s-.865 1.431-.315 4.216c.55 2.786-1.416 2.784-1.416 2.784h-3.932L124 90.494l1.888.152s1.258-.318.708-3.262L131 87zM119.286 83.552a783.37 783.37 0 0 0 1.795 5.559l.293.889 2.65-2.706s-.118-.268-.292-.644c-.387-.832-1.063-2.192-1.395-2.301 0 0 3.693-.24 4.817.636 1.125.875.803-2.389.803-2.389s-2.167-.152-2.97-.636c-.804-.484-5.14-.955-5.14-.955s-1.444-.24-.561 2.547zM96 106.29l.555 3.71 1.429-.14s.086-.075.232-.195c.385-.31 1.187-.92 1.953-1.254.26-.122.541-.199.831-.228L99.412 106c-.386.133-.782.24-1.185.322-.418.09-.847.137-1.276.14a2.516 2.516 0 0 1-.951-.172z"/>
        <path fill="#E9E9EF" d="M99.146 109.676c.725.622 4.027-.702 4.591 1.324l.52-1.921 1.597-5.911.219-.814 1.33-.055 15.27-.63.864-.036.463-.02-.605-.289-4.027-1.93s-1.45-.098-3.451-.364c-3.033-.402-7.33-1.194-9.756-2.596-4.027-2.338-5.557 5.53-5.557 5.53s-.617 1.996-1.08 3.964a22.273 22.273 0 0 0-.486 2.575c-.07.601-.048 1.037.108 1.173z"/>
        <path fill="#000" d="M100.143 109.676c.703.623 3.904-.701 4.452 1.324l.503-1.92 1.549-5.91.212-.814 1.33-.082 14.304-.878.883-.055.272-.016.352-.023-4.256-1.909s-1.407-.098-3.346-.364c-2.94-.401-7.107-1.194-9.46-2.595-3.904-2.337-5.387 5.53-5.387 5.53s-.598 1.995-1.047 3.962a22.891 22.891 0 0 0-.472 2.574c-.061.605-.04 1.04.11 1.176z" opacity=".05"/>
        <path fill="#000" d="M98 106.4l1.502 1.86.6.74a2.49 2.49 0 0 1 .898-.283L99.282 106c-.418.165-.846.3-1.282.4z" opacity=".1"/>
        <path fill="#E9E9EF" d="M98 106.95l1.552 1.865.747.896v.244c.912.215 3.768-.4 4.397-.541l.123-.028c1.823.08 8.565-3.971 8.565-3.971s7.375 1.297 10.941.972c1.993-.182 2.552-.918 2.657-1.534a1.63 1.63 0 0 0-.119-.898l-3.191-2.291-.423-.31-.674-.487s-1.174-.272-2.663-.607c-2.328-.525-5.43-1.207-6.057-1.255-1.03-.08-3.647.81-5.155 2.594-.259.278-.55.522-.87.725l-.04.028c-.424.287-.946.592-1.52.904-1.92 1.033-4.478 2.143-6.238 2.872-1.204.501-2.032.823-2.032.823z"/>
        <path fill="#000" d="M96 107l.501 4 1.289-.15s.078-.081.21-.21c-.286 0-.756-.083-.855-.731 0 0 .497-1.902-.287-2.721A1.946 1.946 0 0 1 96 107z" opacity=".1"/>
        <path fill="#DC9BA3" d="M96.806 109.962s.792-2.658-1.028-2.962l-3.008 1.14-3.49.228s-.91 1.425.548 3.024a4.556 4.556 0 0 0 3.177 1.44l3.801.168L98 110.65s-1.03.223-1.194-.688z"/>
        <path fill="#000" d="M116 99c.406.122 2.086.632 3.806 1.332.85.336 1.678.727 2.479 1.172.167.096.326.193.476.289.392.236.743.537 1.039.891.994 1.317 2.454 2.027 3.181 2.316.047-.31.005-.627-.12-.914l-3.242-2.331.463-.02-.605-.307.363-.024-4.391-2.021S118.001 99.28 116 99zM121 89.204l.298.796L124 87.577s-.12-.24-.297-.577c-.35.627-1.98 1.728-2.703 2.204z" opacity=".1"/>
        <path fill="#CEDAD5" d="M130.233 90.835a4.41 4.41 0 0 0 .206-.809l3.43 1.159s2.353 1.746 2.114 5.548c0 0-2.905-1.04-4.19.193l-.025.22a9.976 9.976 0 0 1-2.813 5.772c-.635.648-1.233 1.379-1.55 2.082 0 0-2.233-.62-3.59-2.329-1.355-1.709-7.815-3.487-7.815-3.487s3.43.077 3.91-1.087c.478-1.165 2.074-3.648 1.516-5.587-.558-1.94-.877-2.561-.877-2.561s3.271-2.25 3.031-2.949l2.075 2.329.957.31c-.075.181-.114.374-.113.569-.055 2.107 3.006 2.613 3.734.627z"/>
        <path fill="#000" d="M127.108 88.29a9.23 9.23 0 0 0-.108-.89l4-.4s-.274.268-.397 1.267c-.47.307-1.017.733-1.603.733a2.917 2.917 0 0 1-1.892-.71z" opacity=".1"/>
        <circle cx="129.5" cy="85.5" r="3.5" fill="#FFD2D9"/>
        <path fill="#844F6E" d="M131.352 86h-.477v-1.373l-.478-1.454s-2.391-1.132-3.512-.89l-.87.804s-.24-1.938 1.195-2.666c1.436-.728 3.984-.404 4.622.155.638.559 1.68 1.536.876 4.202l-.233.657s-.964-.324-1.123.565z"/>
        <g fill="#000" opacity=".05">
            <path d="M125.04 88.683l-.261-.084-1.203-1.34a.317.317 0 0 0 .007-.199l1.457 1.623zM126.716 91.168a1.74 1.74 0 0 1-1.095-1.697v-.13l.025.029.956.308c-.076.179-.114.37-.113.563-.01.323.068.643.227.927zM117.423 99.085c1.997.671 4.7 1.73 5.524 2.758l.06.073c-2.187-1.45-6.992-2.769-6.992-2.769.47.005.94-.016 1.408-.062zM126.531 104.153c.316-.695.916-1.42 1.547-2.065a9.873 9.873 0 0 0 2.809-5.728l.026-.217c1.275-1.232 4.183-.192 4.183-.192.153-2.393-.739-3.964-1.409-4.793l.176.059s2.35 1.732 2.111 5.504c0 0-2.9-1.032-4.183.192l-.026.217a9.873 9.873 0 0 1-2.81 5.728c-.633.643-1.23 1.367-1.546 2.065 0 0-1.942-.537-3.3-1.983a8.35 8.35 0 0 0 2.422 1.213z"/>
        </g>
        <path fill="#FFD2D9" d="M127.52 94.35s3.87 5.496 5.895 7.09c2.026 1.593 2.585-.718 2.585-.718v-5.097l-3.56-.399-.038.484-.044.553-3.312-3.511s-3.312-2.948-3.957-1.196c-.645 1.753 2.431 2.794 2.431 2.794z"/>
        <path fill="#000" d="M132 96.387c.54.222 1.112.402 1.706.537.85.185 1.824-.01 2.294-.13v-.476L132.036 96l-.036.387z" opacity=".1"/>
        <path fill="#CEDAD5" d="M135.809 95.793l.191.85s-1.163.579-2.13.262a8.236 8.236 0 0 1-1.852-.952c-.142-.08.595-.953.595-.953l3.196.793z"/>
        <path fill="#000" d="M113 105a5.437 5.437 0 0 0-1.532-1.044A5.198 5.198 0 0 1 110 103" opacity=".1"/>
        <path fill="#FFF" d="M89.284 108.01l.13-.01c-.19.494-.46 1.701.662 3.02.816.94 1.971 1.5 3.2 1.55l3.724.18-.12.25-3.844-.18a4.485 4.485 0 0 1-3.199-1.551c-1.473-1.725-.553-3.26-.553-3.26z" opacity=".2"/>
        <path fill="#0F0" d="M103.067 110.93a2.212 2.212 0 0 1-.038.14c-.077-.044-.188-.128.038-.14z" opacity=".05"/>
        <path fill="#FFF" d="M96.499 112.732c.777.315 6.622-.605 7.41-.732a.5.5 0 0 0 .091.188s-6.673 1.086-7.507.746c-.436-.174-.536-.403-.478-.61.048.145.185.29.484.408z" opacity=".2"/>
        <path fill="#000" d="M127.059 83.736a5.535 5.535 0 0 1-1.981-2.259.535.535 0 0 1-.073-.348c.055-.226.332-.266.532-.363.373-.181.53-.636.774-.99.426-.592 1.13-.88 1.82-.742.356.076.685.264 1.047.318.775.12 1.619-.379 2.315 0 .317.173.532.5.72.82.475.807 1.069 1.665.638 2.607-.247.54-.642.99-1.197 1.147-.555.157-1.197.025-1.762-.039-.464-.054-.951-.159-1.418-.114-.55.06-.893.297-1.415-.037z" opacity=".1"/>
        <path fill="#844F6E" d="M127.059 83.736a5.535 5.535 0 0 1-1.981-2.259.535.535 0 0 1-.073-.348c.055-.226.332-.266.532-.363.373-.181.53-.636.774-.99.426-.592 1.13-.88 1.82-.742.356.076.685.264 1.047.318.775.12 1.619-.379 2.315 0 .317.173.532.5.72.82.475.807 1.069 1.665.638 2.607-.247.54-.642.99-1.197 1.147-.555.157-1.197.025-1.762-.039-.464-.054-.951-.159-1.418-.114-.55.06-.893.299-1.415-.037z"/>
        <path fill="url(#a)" fill-rule="nonzero" d="M62 102.57c0 1.618.092 2.686.092 2.686s2.357.13 2.291 2.272c-.065 2.142 9.163 2.596 9.163 2.596v-.065-.485c.878.127 1.816.231 2.342.182-.035.166-.076.342-.116.499-.043.042-.893.883-.865 1.78-.016.45.193.913.868 1.298 1.948 1.116 8.014.495 8.014.495.92-.593 1.227-1.096 1.21-1.514.03-.616-.598-1.052-1.173-1.333a2.109 2.109 0 0 0-1.436-.15c-.65.14-1.316.188-1.98.142.026-.13.06-.257.103-.382.622.173 1.052.3 1.052.3s3.233-1.686 1.886-4.411a2.256 2.256 0 0 0-.92-.891c1.039-1.755 2.025-3.82 1.927-5.209-.165-2.318-4.86-1.813-6.62-1.54l-3.391-3.261c0-2.405.075-5.167-.154-5.765-.405-1.039-.27-.902-.538-1.362l-.01-.017c-.154-.243-.571-.63-.679-.577-.046-.478-.039-.959.02-1.435 1.712-.549 2.873-2.11 2.88-3.876.001-.644-.157-1.278-.46-1.85l.046-.02-.444-2.143a.35.35 0 0 1 .02-.278c.046-.06.124-.078.184-.12a.409.409 0 0 0 .072-.506.69.69 0 0 0-.167-.209c-.375-.416-1.17-.267-1.66-.329-.663-.082-1.357-.203-1.985.119a3.303 3.303 0 0 1-.421.216c-.2.054-.408.073-.614.058-.373 0-.746.032-1.114.097-.478-.17-1.04-.02-1.484.24a3.192 3.192 0 0 0-1.559 2.935c.04.364.11.723.214 1.075l.82 3.134c.053.262.157.511.307.734.036.047.077.09.123.129.159.188.407.28.653.243a.45.45 0 0 0 .09-.031c-.027.33-.093.655-.194.97-.939.269-2.3 1.204-3.936 3.91-2.098 3.466-2.448 8.577-2.457 11.65z"/>
        <path fill="#5F5D7E" d="M79 107h-9v-6h9z"/>
        <path fill="#5F5D7E" d="M76.212 99.345s6.594-1.38 6.782 1.38C83.182 103.485 79.1 109 79.1 109l-3.7-.752 1.067-4.265s-4.206-.94-4.458-1.003c-.251-.062 4.202-3.635 4.202-3.635z"/>
        <path fill="#000" d="M76.212 99.345s6.594-1.38 6.782 1.38C83.182 103.485 79.1 109 79.1 109l-3.7-.752 1.067-4.265s-4.206-.94-4.458-1.003c-.251-.062 4.202-3.635 4.202-3.635z" opacity=".1"/>
        <path fill="#5F5D7E" d="M80 109.79s-.64 1.449-.453 2.06c.187.61-4.547-.84-4.547-.84s.385-1.754.32-1.977c-.065-.223 4.68.757 4.68.757z"/>
        <path fill="#FDC2CC" d="M76 101.003l.481.394.308.253s1.572 2.308 3.6.889c2.027-1.42-1.575-2.482-2.295-2.537a.903.903 0 0 1-.679-.444 1.843 1.843 0 0 1-.237-.558L76 101.003z"/>
        <path fill="#000" d="M76 101.003l.481.394.308.253s1.572 2.308 3.6.889c2.027-1.42-1.575-2.482-2.295-2.537a.903.903 0 0 1-.679-.444 1.843 1.843 0 0 1-.237-.558L76 101.003z" opacity=".05"/>
        <path fill="#000" d="M80 109.79s-.64 1.449-.453 2.06c.187.61-4.547-.84-4.547-.84s.385-1.754.32-1.977c-.065-.223 4.68.757 4.68.757zM76 101.51l.34.49c0-.946.392-1.816.66-2.304a3.433 3.433 0 0 1-.167-.696L76 101.51z" opacity=".1"/>
        <path fill="#C4C8E2" d="M73 95l4 4.312s-1.392 1.312-1.101 2.688L73 98.5V95z"/>
        <path fill="#000" d="M73 95v3.5l.464.561 1.379 1.664L75.899 102c-.29-1.375 1.101-2.687 1.101-2.687L73 95z" opacity=".1"/>
        <path fill="#D39999" d="M72.684 88s0 1.333-1.115.953S71.321 104 71.321 104s3.22-2.476 2.6-4.253c-.62-1.777-.743-3.115-.685-4.89.059-1.774-.552-6.857-.552-6.857z"/>
        <path fill="#FDC2CC" d="M72.902 84.59s-.995 2.69 0 4.726C73.897 91.35 67 88.199 67 88.199s1.525-.722.995-4.199l4.907.59z"/>
        <path fill="#000" d="M73.114 96.491a12.892 12.892 0 0 0 0 1.942L75 100a11.324 11.324 0 0 0-.935-1.272c-.293-.337-.358-1.68-.373-3.215L73 95c.073.828.114 1.491.114 1.491z" opacity=".1"/>
        <path fill="#C4C8E2" d="M73.007 88.109c-.08-.33.545.167.745.455l.01.016c.288.443.144.313.577 1.316.433 1.004-.144 8.273.509 9.16.441.621.826 1.271 1.152 1.944l-1.152-.377s-.433-1.128-.72-1.38c-.286-.25-.144-2.57-.144-2.57s-.215-4.012-.432-4.89c-.172-.706-.375-2.981-.545-3.674z"/>
        <path fill="#000" d="M73.007 88.109c-.08-.33.545.167.745.455l.01.016c.288.443.144.313.577 1.316.433 1.004-.144 8.273.509 9.16.441.621.826 1.271 1.152 1.944l-1.152-.377s-.433-1.128-.72-1.38c-.286-.25-.144-2.57-.144-2.57s-.215-4.012-.432-4.89c-.172-.706-.375-2.981-.545-3.674z" opacity=".1"/>
        <path fill="#5F5D7E" d="M71 104.02s10.367-.403 11.68 2.416c1.313 2.819-1.837 4.564-1.837 4.564s-4.396-1.409-5.38-1.208c-.986.2-4.463-.537-4.463-.537v-5.235z"/>
        <path fill="#FDC2CC" d="M77 102.642s2.078-1.124 3.233-.397c1.155.727 1.04 2.697-.577 2.753-1.615.055-2.482-.9-2.482-.9L77 102.643z"/>
        <path fill="#C4C8E2" d="M69.405 87.176s-2.054-1.419-5.07 3.799c-3.018 5.218-2.247 14.186-2.247 14.186s2.246.129 2.183 2.256C64.207 109.544 73 110 73 110s-.129-21.15-1.027-21.728c-.898-.578-2.568-1.096-2.568-1.096z"/>
        <path fill="#000" d="M69.988 91.395a2.748 2.748 0 0 1 1.185 2.255c.01 1.895.058 5.979.256 6.751.261 1.013 4.169 2.341 6.189 2.278 0 0 .978 1.772-.195 2.152-1.173.38-8.338 0-8.338 0s-2.8-3.1-2.865-5.815c-.065-2.715-.46-5.758 0-6.328.376-.482 1.95-2.54 3.768-1.293z" opacity=".1"/>
        <path fill="#C4C8E2" d="M69.98 90.394a2.748 2.748 0 0 1 1.193 2.257c.01 1.895.058 5.979.256 6.75.261 1.013 4.169 2.341 6.189 2.279 0 0 .978 1.77-.195 2.151-1.173.38-8.338 0-8.338 0s-2.8-3.1-2.865-5.814c-.065-2.715-.46-5.758 0-6.327.368-.479 1.941-2.542 3.76-1.296z"/>
        <path fill="#4C4C56" d="M82.837 110.78c.957.489 2.067 1.497-.036 3.029 0 0-6.005.691-7.94-.555-1.936-1.246 0-3.254 0-3.254s4.429 1.222 6.554.625c.477-.13.982-.075 1.422.155z"/>
        <path fill="#000" d="M82.837 110.778c.957.494 2.067 1.497-.036 3.03 0 0-6.005.693-7.94-.554-1.936-1.247 0-3.254 0-3.254s4.429 1.221 6.554.626a1.952 1.952 0 0 1 1.422.152zM70 96s.263 4.091 2 5M73 85.572a5.48 5.48 0 0 0-.4 1.402c-.426.111-1.05-.168-1.526-.168-1.239 0-1.592-1.076-2.364-1.731 0-.292-.637.39-.71.026l5 .47z" opacity=".1"/>
        <path fill="#FDC2CC" d="M67 82.996c0 .33.04.66.12.98l.014.05A4 4 0 1 0 67 82.998v-.002z"/>
        <path fill="#000" d="M64.336 91.096c.419-.737.9-1.438 1.435-2.096a16.307 16.307 0 0 0-1.178 1.776c-3.018 5.192-2.246 14.099-2.246 14.099s2.246.128 2.182 2.242c-.057 1.898 7.02 2.454 8.471 2.548V110s-8.794-.453-8.73-2.567c.063-2.114-2.184-2.243-2.184-2.243s-.763-8.902 2.25-14.094zM67.56 77.82c.438-.258.993-.41 1.466-.24a6.164 6.164 0 0 1 1.097-.098c.201.015.404-.004.599-.056.144-.062.283-.134.417-.216.619-.32 1.305-.2 1.958-.118.532.068 1.43-.12 1.737.473a.412.412 0 0 1-.07.504c-.06.043-.137.06-.182.12a.354.354 0 0 0-.02.279L75 80.607c-.408.194-.88.215-1.305.058a3.72 3.72 0 0 1-.345-.153c-.328.208-.666.05-1.063.133a1.214 1.214 0 0 0-.598.382 3.368 3.368 0 0 0-.889 1.725c-.044.243-.102.543-.343.611a1.614 1.614 0 0 1-.278.028c-.435.055-.614.558-.894.89-.342.403-.955.665-.992 1.188-.01.134.02.283-.057.396a.343.343 0 0 1-.213.128.727.727 0 0 1-.699-.305 2.032 2.032 0 0 1-.296-.732l-.81-3.133a6.172 6.172 0 0 1-.212-1.07 3.202 3.202 0 0 1 1.553-2.933z" opacity=".1"/>
        <path fill="#865A61" d="M67.56 77.82c.438-.258.993-.41 1.466-.24a6.164 6.164 0 0 1 1.097-.098c.201.015.404-.004.599-.056.144-.062.283-.134.417-.216.619-.32 1.305-.2 1.958-.118.532.068 1.43-.12 1.737.473a.412.412 0 0 1-.07.504c-.06.043-.137.06-.182.12a.354.354 0 0 0-.02.279L75 80.607c-.408.194-.88.215-1.305.058a3.72 3.72 0 0 1-.345-.153c-.328.208-.666.05-1.063.133a1.214 1.214 0 0 0-.598.382 3.368 3.368 0 0 0-.889 1.725c-.044.243-.102.543-.343.611a1.614 1.614 0 0 1-.278.028c-.435.055-.614.558-.894.89-.342.403-.955.665-.992 1.188-.01.134.02.283-.057.396a.343.343 0 0 1-.213.128.727.727 0 0 1-.699-.305 2.032 2.032 0 0 1-.296-.732l-.81-3.133a6.172 6.172 0 0 1-.212-1.07 3.202 3.202 0 0 1 1.553-2.933z"/>
    </g>
</svg>
