<svg xmlns="http://www.w3.org/2000/svg" width="152" height="124" viewBox="0 0 152 124">
    <defs>
        <linearGradient id="a" x1="50%" x2="50%" y1="99.978%" y2="0%">
            <stop offset="0%" stop-color="gray" stop-opacity=".25"/>
            <stop offset="54%" stop-color="gray" stop-opacity=".12"/>
            <stop offset="100%" stop-color="gray" stop-opacity=".1"/>
        </linearGradient>
        <linearGradient id="b" x1="50%" x2="50%" y1="99.978%" y2="0%">
            <stop offset="0%" stop-color="gray" stop-opacity=".25"/>
            <stop offset="54%" stop-color="gray" stop-opacity=".12"/>
            <stop offset="100%" stop-color="gray" stop-opacity=".1"/>
        </linearGradient>
        <linearGradient id="c" x1="50%" x2="50%" y1="100%" y2=".022%">
            <stop offset="0%" stop-color="gray" stop-opacity=".25"/>
            <stop offset="54%" stop-color="gray" stop-opacity=".12"/>
            <stop offset="100%" stop-color="gray" stop-opacity=".1"/>
        </linearGradient>
        <linearGradient id="d" x1="50%" x2="50%" y1="100%" y2="0%">
            <stop offset="0%" stop-color="gray" stop-opacity=".25"/>
            <stop offset="54%" stop-color="gray" stop-opacity=".12"/>
            <stop offset="100%" stop-color="gray" stop-opacity=".1"/>
        </linearGradient>
        <linearGradient id="e" x1="50%" x2="50%" y1="100%" y2="0%">
            <stop offset="0%" stop-color="gray" stop-opacity=".25"/>
            <stop offset="54%" stop-color="gray" stop-opacity=".12"/>
            <stop offset="100%" stop-color="gray" stop-opacity=".1"/>
        </linearGradient>
        <linearGradient id="f" x1="53.631%" x2="47.985%" y1="99.503%" y2="-.189%">
            <stop offset="0%" stop-color="gray" stop-opacity=".25"/>
            <stop offset="54%" stop-color="gray" stop-opacity=".12"/>
            <stop offset="100%" stop-color="gray" stop-opacity=".1"/>
        </linearGradient>
        <linearGradient id="g" x1="49.918%" x2="49.918%" y1="99.993%" y2="-.029%">
            <stop offset="0%" stop-color="gray" stop-opacity=".25"/>
            <stop offset="54%" stop-color="gray" stop-opacity=".12"/>
            <stop offset="100%" stop-color="gray" stop-opacity=".1"/>
        </linearGradient>
        <linearGradient id="h" x1="49.981%" x2="49.981%" y1="100.015%" y2="-.004%">
            <stop offset="0%" stop-color="gray" stop-opacity=".25"/>
            <stop offset="54%" stop-color="gray" stop-opacity=".12"/>
            <stop offset="100%" stop-color="gray" stop-opacity=".1"/>
        </linearGradient>
    </defs>
    <g fill="none" fill-rule="evenodd">
        <path fill="#ECEFF1" d="M23 115V99.788l15.003-15.214 13.442-9.719 14.028-14.58 16.56-6.55h21.236l17.535-21.13L136 14v101z" opacity=".2"/>
        <g opacity=".2">
            <path fill="#7CBE35" d="M23.14 97.765v15.186"/>
            <path stroke="#00F" d="M23.14 97.765v1.044"/>
            <path stroke="#00F" stroke-dasharray="10.75" d="M23.14 100.68v10.291"/>
            <path stroke="#00F" d="M23.14 111.906v1.045"/>
            <path fill="#7CBE35" d="M39.583 82.576v30.375"/>
            <path stroke="#00F" d="M39.583 82.576v1.045"/>
            <path stroke="#00F" stroke-dasharray="12.5" d="M39.583 85.796v25.024"/>
            <path stroke="#00F" d="M39.583 111.906v1.045"/>
            <path fill="#7CBE35" d="M55.114 72.872v40.08"/>
            <path stroke="#00F" d="M55.114 72.872v1.044"/>
            <path stroke="#00F" stroke-dasharray="11.48" d="M55.114 75.917v34.99"/>
            <path stroke="#00F" d="M55.114 111.906v1.045"/>
            <path fill="#7CBE35" d="M71.287 58.317v54.634"/>
            <path stroke="#00F" d="M71.287 58.317v1.045"/>
            <path stroke="#00F" stroke-dasharray="12.07" d="M71.287 61.464v49.392"/>
            <path stroke="#00F" d="M71.287 111.906v1.045"/>
            <path fill="#7CBE35" d="M87.845 51.778v61.173"/>
            <path stroke="#00F" d="M87.845 51.778v1.045"/>
            <path stroke="#00F" stroke-dasharray="11.7" d="M87.845 54.86v56.028"/>
            <path stroke="#00F" d="M87.845 111.906v1.045"/>
            <path fill="#7CBE35" d="M103.556 51.778v61.173"/>
            <path stroke="#00F" d="M103.556 51.778v1.045"/>
            <path stroke="#00F" stroke-dasharray="11.7" d="M103.556 54.86v56.028"/>
            <path stroke="#00F" d="M103.556 111.906v1.045"/>
            <path fill="#7CBE35" d="M119.99 30.683v82.268"/>
            <path stroke="#00F" d="M119.99 30.683v1.045"/>
            <path stroke="#00F" stroke-dasharray="11.81" d="M119.99 33.785v77.094"/>
            <path stroke="#00F" d="M119.99 111.906v1.045"/>
            <path fill="#7CBE35" d="M135.85 12.12v100.831"/>
            <path stroke="#00F" d="M135.85 12.12v1.045"/>
            <path stroke="#00F" stroke-dasharray="12.06" d="M135.85 15.265v95.591"/>
            <path stroke="#00F" d="M135.85 111.906v1.045"/>
        </g>
        <circle cx="23" cy="97" r="4" fill="url(#a)"/>
        <circle cx="40" cy="82" r="4" fill="url(#b)"/>
        <circle cx="55" cy="72" r="4" fill="url(#c)"/>
        <circle cx="71" cy="58" r="4" fill="url(#d)"/>
        <circle cx="88" cy="51" r="4" fill="url(#a)"/>
        <circle cx="104" cy="51" r="4" fill="url(#a)"/>
        <circle cx="120" cy="30" r="4" fill="url(#e)"/>
        <circle cx="136" cy="12" r="4" fill="url(#e)"/>
        <circle cx="23" cy="97" r="3" fill="#7CBE35"/>
        <circle cx="40" cy="82" r="3" fill="#7CBE35"/>
        <circle cx="55" cy="72" r="3" fill="#7CBE35"/>
        <circle cx="71" cy="58" r="3" fill="#7CBE35"/>
        <circle cx="88" cy="51" r="3" fill="#7CBE35"/>
        <circle cx="104" cy="51" r="3" fill="#7CBE35"/>
        <circle cx="120" cy="30" r="3" fill="#7CBE35"/>
        <circle cx="136" cy="12" r="3" fill="#7CBE35"/>
        <path fill="url(#f)" d="M115.7 30.533c-.642-.397-3.717 1.21-4.754 1.462-.759.187-2.45-.497-3.3-.873l.016-.151s-.479-.444-1.056-.402c.479-.523.82-1.534.828-2.52l1.037-.175s-1.775-3.246-3.616-1.194a.869.869 0 0 0-.401-.422c-.335-.136-.691.101-.963.349-.271.248-.542.55-.904.553a.123.123 0 0 1-.076-.017.146.146 0 0 1-.041-.112 2.125 2.125 0 0 0-.273-.888c-.51.349-.628 1.047-.676 1.675a.227.227 0 0 0 .01.112.22.22 0 0 0 .107.093c.324.174.71.291 1.037.15.403-.175.597-.658.993-.843a.79.79 0 0 1 .69.022c-.882 1.524.09 2.362.756 2.728.03.11.07.217.12.32-.73-.26-1.902-.246-2.987 1.632l.332.07-3.153 5.224s-.601.658-.375 1.071c.226.414 1.253-.05 1.22-.895-.015-.375.692-1.49 1.468-2.618l-.37.78c.255.19.52.366.797.524-.519.794-.979 2.152.717 3.332l.451.827s.216-.106.53-.24l.108.153c.302.478.114.162.114.162l2.091 2.978s-2.71 2.34-2.56 4.014l-.496.021a.67.67 0 0 0-.52.284.684.684 0 0 0-.098.59s2.392 2.226 2.993 1.57c.602-.656-.46-1.039-.46-1.039l-.025-.633-.045-.028c.316-.773 2.19-4.125 2.473-4.617.389-.677-.187-1.764-.835-3.229l2.346-.085s.466 3.73 2.008 4.417l.028-.014-.284.473a.685.685 0 0 0-.039.595c.078.194.24.34.44.397 0 0 3.139-.86 2.907-1.725-.231-.864-1.114-.159-1.114-.159l-.545-.314-.072.037c-.318-.468-2.508-4.234-2.514-4.695-.005-.461-2.373-1.025-4.067-1.192l-.203-.985c.246-.019.49-.065.725-.138 0 0-1.128-2.066-.936-2.497.191-.432 1.68.143 1.185-1.746l1.037-.253v-.042l2.818 1.047c.693.26 1.469.158 2.074-.272l1.882-1.333c1.706.574 2.064-.92 1.42-1.316z"/>
        <path fill="#F6B9AD" d="M106 30.764c.065-.535.16-1.063.286-1.58.16-.567.714.354.714.354L106.91 31l-.91-.236z"/>
        <ellipse cx="106.328" cy="28.923" fill="#F6B9AD" rx="1.588" ry="1.577" transform="rotate(-24.42 106.328 28.923)"/>
        <path fill="#F6B9AD" d="M104.481 40.152l4.283-.146s.448 3.371 1.928 3.994l1.308-.59s-2.31-3.576-2.445-4.287c-.108-.564-4.924-1.474-5.234-.982-.198.312-.283 1.047-.32 1.542a.428.428 0 0 0 .13.336c.092.09.22.138.35.133zM107.12 31.809a.598.598 0 0 1 .731-.2c.803.363 2.493 1.066 3.254.879 1.004-.248 3.982-1.812 4.605-1.428.591.363.308 1.7-1.129 1.363a.585.585 0 0 0-.472.098l-1.387.989c-.714.51-1.629.63-2.447.322l-2.88-1.087a.612.612 0 0 1-.37-.4.625.625 0 0 1 .092-.542l.004.006zM103.1 31l-3.663 5.789s-.623.652-.381 1.06c.242.408 1.3-.051 1.264-.886-.036-.834 3.68-5.371 3.68-5.371l-.9-.592z"/>
        <path fill="#F6B9AD" d="M104 38.841l2.766 3.716s-2.713 2.208-2.449 3.726l1.233.717s2.21-3.862 2.424-4.298c.254-.52-1.41-4.724-2.005-4.702-.595.022-1.969.841-1.969.841z"/>
        <path fill="#E96857" d="M109 28.737s-1.824-3.445-3.592-.632c-1.34 2.137 1.05 2.895 1.05 2.895l.517-1.206-.406-.766.914-.627.023.587 1.494-.251z"/>
        <path fill="#E96857" d="M105.675 27.637a1.058 1.058 0 0 0-.51-.534c-.362-.131-.757.098-1.038.339-.282.24-.586.534-.975.534a.148.148 0 0 1-.081-.016.131.131 0 0 1-.044-.107 1.879 1.879 0 0 0-.296-.853c-.55.34-.679 1.01-.728 1.603a.196.196 0 0 0 .012.106c.026.04.067.07.115.088.35.162.766.28 1.127.144.435-.162.645-.63 1.07-.809a.948.948 0 0 1 .856.075c.182.12.35.317.575.287.544-.064.014-.678-.083-.857z"/>
        <path fill="#E96A59" d="M102.877 35s-2.063 2.289.138 4.146l.385.854s1.878-.92 2.6-.735l-.972-3.935-2.15-.33z"/>
        <path fill="#76B6D7" d="M105.727 31.108c-.694-.23-1.818-.23-2.869 1.428l.804.163L102 35.736s2.47 1.764 4.634 1.124c0 0-1.075-1.817-.893-2.195.182-.379 1.6.125 1.13-1.53l.987-.223.142-1.306s-.483-.415-1.05-.351a2.823 2.823 0 0 1-1.223-.147zM104.166 47l-.562.019a.67.67 0 0 0-.486.219.456.456 0 0 0-.092.454s2.236 1.724 2.8 1.214c.565-.51-.43-.803-.43-.803l-.024-.49-1.206-.613zM111.336 43.618l-.258.48a.642.642 0 0 0-.034.54c.069.177.212.31.387.362 0 0 2.762-.782 2.558-1.57-.204-.786-.98-.143-.98-.143l-.486-.287-1.187.618z"/>
        <path fill="#F6B9AD" d="M106.634 28.267c.269.245.422.547.347.676-.075.129-.35.032-.615-.212-.266-.244-.422-.544-.347-.673.075-.13.35-.035.615.21z"/>
        <path stroke="#47E6B1" stroke-width="2" d="M7 0v124M0 117h152"/>
        <path fill="url(#g)" d="M21.297 117.595l-.568-.859.625-4.68a10.385 10.385 0 0 0-1.123-1.417 10.312 10.312 0 0 1-.174-1.754 23.567 23.567 0 0 0-.78-3.298l.985.266 1.43-3.435v-.81l.613-.403s-.817-1.213-1.635 0c0 0 .205.81 0 1.213s-.818 1.82-.818 1.82h-.52l.11-.606h-1.07a2.857 2.857 0 0 0-.157-.203l.818-1.82-.388-.297 1.405-1.739.205-3.64c.813-.267.997-1.068 1.03-1.578a.342.342 0 0 0-.131-.28.35.35 0 0 0-.305-.064c-1.764.447-1.41 1.325-1.41 1.325l-.613 3.435-.839 1.304a1.822 1.822 0 0 0-1.041-1.35l.461-.57a3.75 3.75 0 0 0-2.034.097c-1.832.687-1.829 3.324 0 4.02.255.103.531.148.807.13v-.202h.076c-.031.189-.06.4-.076.61-.408 0-.408 2.232.205 2.627l-.205 2.233v1.213c.408 1.012 1.226 1.012 1.226 1.012l.613 2.83c.23.09.484.097.718.021l.1.787s-1.841 1.415-1.841 3.435l-.068.133-.137-.133-1.226 1.012 1.632 2.02h1.636c.408-1.012-1.226-1.213-1.226-1.213v-1.039l1.818-2.135c.091.275.217.537.373.782l.016.147-.188-.037-.482 1.504.93.313c.978.33 2.054.204 2.926-.344-.215-1.078-1.703-.383-1.703-.383z"/>
        <path fill="#F6B9AD" d="M17.258 103.286s-.58 1.5 0 1.714l1.742-.642L17.84 103l-.582.286zM23 102.52s-.763-1.17-1.518 0c0 0 .19.78 0 1.168-.191.388-.763 1.753-.763 1.753H19v.974l2.095.585 1.333-3.312v-.78l.572-.389z"/>
        <path fill="#5989A1" d="M20 105l-.4 2-1.6-.364V105z"/>
        <circle cx="17" cy="101" r="2" fill="#F6B9AD"/>
        <path fill="#FCCC63" d="M16.565 100.95L18 99.09a3.166 3.166 0 0 0-1.792.09c-1.612.632-1.609 3.06 0 3.697.225.095.468.137.71.12v-1.116h-.54l.187-.93z"/>
        <path fill="#F6B9AD" d="M20.935 96.788l-.21 3.35L19.05 102l-1.05-.559 1.47-2.048.63-3.164s-.371-.806 1.45-1.218a.393.393 0 0 1 .32.062c.09.065.138.165.129.267-.041.47-.23 1.2-1.064 1.448z"/>
        <path fill="#B98B82" d="M19 112.274l1.076 1.246s-.798 2.16.328 3.855l.048.447.867.178.681-4.952s-1.237-1.865-2.104-2.048L19 112.274z"/>
        <path fill="#3D203C" d="M21.65 117.22l.594.874s1.544-.702 1.756.37a3.667 3.667 0 0 1-3.035.36l-.965-.315.501-1.509 1.15.22z"/>
        <path fill="#F6B9AD" d="M19.895 112.55l.21 1.449s-1.894 1.272-1.894 3.09l-.211.365.632.546L22 114.545s0-2-.632-2.545l-1.473.55z"/>
        <path fill="#3D203C" d="M18.835 118.773v1.027s1.471.2 1.107 1.2H18.47L17 119l1.106-1 .73.773zM21 112.945s-1.636 1.379-2.364.984l-.546-2.758s-.728 0-1.09-.984V109l3.454 1.182s.002 2.167.546 2.763z"/>
        <path fill="#76B6D7" d="M20.014 103.142L18.45 102s-.785 2.285-1.175 2.285c-.391 0-.398 2.095.196 2.478l-.196 2.095L21 110s-.589-3.809-1.765-5.141l.779-1.717z"/>
        <path fill="url(#h)" d="M50.387 69.798s-.252.115-.425-.262l-.504.232-.26-.565.315-.145-1.177-4.177s.03-.925-.649-1.07c0 0-.368-.136-1.81.374-.604.214-1.086.4-1.446.543-.313-.283-1.003-1.021-1.017-2.072a1.586 1.586 0 0 0-.206-.735l.886-.265-.019-.043 2.595-.989c.115.25 1.306-.145 1.569-.569.12-.194-.077-.307-.323-.374a1.778 1.778 0 0 0-1.063.053l-3.125 1.123-.038-.08a.927.927 0 0 1-.404.156l-.177-.122 1.186-1.886c.244.13.957-.9.91-1.394-.022-.228-.247-.202-.485-.106a1.771 1.771 0 0 0-.812.676l-1.478 2.246-.285-.209-.211.565a4.212 4.212 0 0 0-.975-.408l-.422-.908a1.516 1.516 0 0 0 .133-2.376c.278-.112.567-.199.861-.258 0 0-2.481-2.056-3.68.626v.076c-.049.023-.095.046-.134.06l-1.02.387a1.47 1.47 0 0 0-.216.095 1.38 1.38 0 0 0-.287.242.762.762 0 0 0-.16.209.529.529 0 0 0 .091.53c.121.142.266.261.43.353l.43.277c.134.064.237.18.283.32.04-.316-.095-.625-.218-.92a.671.671 0 0 1-.07-.442.635.635 0 0 1 .354-.336c.176-.09.36-.167.548-.23.076.69.354 1.73 1.363 1.89l.319.69c-.192.293-.229.812.338 1.722l1.394 3.003.118.018c-.09.454-.202 1.705 1.174 2.15l-.633 5.263s-2.512 3.263-2.058 3.94h.149l-.161.513-.578-.122-.259 1.216 3.39.717s.336-.917-1.183-1.097c0 0-.271-.057-.177-.463l-.37-.078.215-.687s2.166-2.358 2.62-4.392c.355-1.554 1.09-4.43 1.418-5.697l1.934-.883s1.257 3.378 1.489 3.886l.064-.028.26.565-.377.177.523 1.129L52 69.987s-.285-.95-1.613-.19z"/>
        <path fill="#F6B9AD" d="M48.182 69.377l.733-.334.338.725-.733.335zM40.28 75.592l.771.238-.42 1.333-.771-.238z"/>
        <ellipse cx="39.689" cy="58.45" fill="#F6B9AD" rx="1.477" ry="1.467" transform="rotate(-24.75 39.689 58.45)"/>
        <path fill="#F6B9AD" d="M38.996 59.5l1.22-.557.957 2.055-1.22.557zM43 61.233l3.51-1.13a2.074 2.074 0 0 1 1.112-.05c.26.063.466.17.34.354-.275.403-1.529.776-1.653.538L43.233 62 43 61.233z"/>
        <path fill="#5F98BE" d="M41.087 65.415s-.608 2.03 1.387 2.482l3.953-1.92S47.66 69.48 47.887 70L49 69.46l-1.148-4.332s.029-.96-.635-1.111c0 0-.356-.14-1.78.39s-2.157.888-2.157.888l-2.193.12z"/>
        <path fill="#3D213C" d="M42 56.774s-2.692-2.112-3.997.642c0 0-.148 2.411 1.598 2.584.05-.498-.026-1-.22-1.466-.323-.642 1.397-1.543 2.619-1.76z"/>
        <path fill="#3D213C" d="M36.596 58.404c-.064.02-.126.046-.186.075a1.165 1.165 0 0 0-.246.19.607.607 0 0 0-.137.165.396.396 0 0 0 .078.412c.103.114.227.21.368.284l.37.219c.116.05.205.14.245.251.033-.248-.083-.491-.187-.723a.49.49 0 0 1-.062-.346.528.528 0 0 1 .302-.264c.153-.072.312-.133.475-.182.083-.02.163-.05.238-.088a.27.27 0 0 0 .145-.185.201.201 0 0 0-.143-.207c-.112-.028-.277.068-.383.105l-.877.294zM49.78 69.041l-1.78.783.57 1.176L52 69.495s-.306-.975-1.752-.188c-.006.005-.28.122-.468-.266z"/>
        <path fill="#76B6D7" d="M42 61.087s1.27.162 1.652-.087l.348.611-1.611.389-.389-.913z"/>
        <path fill="#76B6D7" d="M39.696 60.004s-1.388.195-.244 2.015l1.35 2.898s2.09.364 3.198-.435c0 0-1.116-.809-1.133-2.117-.018-1.308-2.027-2.444-3.17-2.36z"/>
        <path fill="#5F98BE" d="M42.64 67.056l-.643 5.268S39.623 75.359 40.052 76h.969s2.05-2.192 2.478-4.098C43.928 69.997 45 66 45 66l-2.36 1.056z"/>
        <path fill="#3D213C" d="M40.773 77.384L39.227 77 39 78.254l2.972.746s.296-.945-1.037-1.131c0-.008-.238-.068-.162-.485z"/>
        <path fill="#F6B9AD" d="M42 61.512l1.8-2.803c.18-.287.442-.511.75-.642.221-.091.428-.115.448.1.044.47-.617 1.449-.84 1.325L42.62 62l-.62-.488z"/>
        <path fill="#76B6D7" d="M42 61.093L42.372 60 44 61.223 42.602 62z"/>
    </g>
</svg>
