<svg xmlns="http://www.w3.org/2000/svg" width="175" height="123" viewBox="0 0 175 123">
    <g fill="none" fill-rule="evenodd">
        <path fill="#7CBE35" d="M74.45 4.727C67.336 2.009 59.82-.261 52.145.024 40.862.443 30.031 6.82 24.727 16.184c-4.5 7.934-5.055 17.233-6.994 26.038C15.347 53.068 10.77 63.379 5.882 73.46 3.257 78.875.487 84.408.056 90.344c-.597 8.242 3.595 16.455 10.17 21.937 6.574 5.482 15.305 8.375 24.068 9.006 4.664.336 9.537.024 13.679-2.016 4.382-2.158 7.577-6.057 11.977-8.185 4.077-1.972 8.847-2.247 13.425-1.991a63.449 63.449 0 0 1 17.526 3.502c6.399 2.257 12.349 5.528 18.725 7.818 6.375 2.29 13.516 3.567 20.04 1.657 6.135-1.795 10.977-6.154 15.343-10.568a187.1 187.1 0 0 0 19.567-23.25c3.94-5.547 7.608-11.399 9.35-17.864 3.331-12.36-1.253-26.305-11.42-34.747-8.425-6.993-19.73-10.028-30.797-11.87-10.092-1.68-21.76-1.784-31.05-6.162-8.859-4.18-16.92-9.333-26.21-12.884z" opacity=".1"/>
        <path fill="#AAABB0" d="M101 100.41V106h2l-.387-6zM77 99.41V105h2l-.387-6z"/>
        <rect width="2" height="11" x="104" y="89" fill="#AAABB0" rx="1"/>
        <rect width="2" height="13" x="76" y="87" fill="#AAABB0" rx="1"/>
        <path fill="#AAABB0" d="M109 26.397s2.182-.893 2.509 0c.327.892.491 8.603.491 8.603h-2.074L109 26.397zM85 26.397s-2.182-.893-2.51 0C82.165 27.289 82 35 82 35h2.073L85 26.397zM85.444 19.144L85 25h2v-6z"/>
        <path fill="#33323D" d="M85 36l.423-9.43s-.158-2.09 4.862-1.447c5.02.643 19.715 1.929 19.715 1.929V36H85zM105 85.433l-.807 14.538s-11.833 6.594-26.193.324L79.29 85l25.71.433z"/>
        <path fill="#444053" d="M94 28.164L94.269 38H111l-.971-13z"/>
        <path fill="#4C4981" d="M80 79h15v20H80z"/>
        <path fill="#FFB9B9" d="M90.007 87.485s2.515-1.969 2.934-1.373c.418.596-1.495 3.163-2.275 2.864-.78-.299-.66-1.49-.66-1.49z"/>
        <path fill="#504F60" d="M49 35h103v52H49z"/>
        <path fill="#33323D" d="M84.355 18.115s-.8-7.745 0-8.684c.8-.94 14.236-9.847 26.66.607 0 0 1.172.057.96 2.821a34.43 34.43 0 0 0 .025 5.256s-26.738 1.991-27.645 0z"/>
        <path fill="#000" d="M84.355 18.115s-.8-7.745 0-8.684c.8-.94 14.236-9.847 26.66.607 0 0 1.172.057.96 2.821a34.43 34.43 0 0 0 .025 5.256s-26.738 1.991-27.645 0z" opacity=".1"/>
        <path fill="#33323D" d="M84.355 19.115s-.8-7.745 0-8.684c.8-.94 14.236-9.847 26.66.607 0 0 1.172.057.96 2.821a34.43 34.43 0 0 0 .025 5.256s-26.738 1.991-27.645 0z"/>
        <path fill="#4C4981" d="M112.36 16s.855 3.23.589 3.767c-.266.538-.218 2.046-.218 2.046s.058.97-.37 1.076c-.428.106-.8.161-.455.484.346.323 0 .808 0 .808s-.187.754 0 1.238c.187.485-1.095.687-.987 1.292.11.606.468 2.314 0 2.37-.467.054.16 2.152-.26 2.152-.422 0-.721 3.767-.721 3.767s-2.963-2.529-4.938-1.83c0 0 .16-2.099.8-2.853.641-.754.448-2.69.448-2.69l3.177-9.636L112.361 16z"/>
        <path fill="#AE6E79" d="M96.648 60.9c-.629.805-1.308-3.497-1.308-3.497s-1.792 2.86-2.955.954c-.805-1.32-.17-5.06.291-7.231.206-.966.38-1.621.38-1.621L95.674 49s.009.66.067 1.46c.078 1.081.249 2.423.61 2.744.638.557.93 6.883.298 7.696z"/>
        <path fill="#000" d="M94.793 12.497s-4.867-.053-6.057 2.62c-1.19 2.673-1.242 3.584-1.708 4.01-.466.428 5.072 2.675 5.072 2.675L92.36 31s1.087-1.137 2.846-.622c1.76.515 3.987 0 3.987 0s-.104-.195 1.347 0c1.45.194 6.056-2.319 6.056-2.319s.077-4.024-.026-4.88c-.102-.857 3.286-7.152 3.286-7.152s2.64-2.62-.102-3.53c0 0-.97-1.511-3.468-1.497-2.497.015-11.493 1.497-11.493 1.497z" opacity=".1"/>
        <path fill="#4C4981" d="M95.112 12.497s-5.066-.053-6.305 2.62c-1.238 2.673-1.293 3.584-1.778 4.01-.485.428 5.28 2.675 5.28 2.675l.27 9.198s1.132-1.137 2.963-.622c1.832.515 4.15 0 4.15 0s-.108-.195 1.402 0c1.51.194 6.305-2.319 6.305-2.319s1.885-3.048 1.778-3.903c-.106-.855 3.772-7.327 3.772-7.327s.593-3.422-2.263-4.332c0 0-1.01-1.511-3.61-1.497-2.6.015-11.964 1.497-11.964 1.497z"/>
        <path fill="#000" d="M96 50.367c-1.304-.339-3.35.408-4 .633.27-.908.497-1.525.497-1.525L95.913 49s.005.62.087 1.367z" opacity=".1"/>
        <path fill="#4C4981" d="M88.63 18h-1.493s-.309 3.35 0 4.338c.31.988.464.845.36 1.576-.103.731.723 1.851.723 1.851s.102 2.76.618 3.788-.567 5.636-.567 5.636a6.697 6.697 0 0 0 1.287 2.141c.877.932 1.34 4.391 1.082 5.709-.258 1.317.722 1.811.722 1.811s.413 6.15.568 6.15c.154 0 3.142-1.647 4.07-.22l-.722-5.655.053-10.924s-.98-1.373-.464-2.58c.516-1.208-.413-4.064-.413-4.064l-1.34-6.367L88.63 18z"/>
        <path fill="#33323D" d="M78.402 104.224s-2.284-.503-2.338 0c-.054.502-2.72 5.644.599 7.153 3.319 1.509 12.182 4.75 26.597.558 0 0 .924.336.707-1.731-.217-2.068-.217-4.36-.217-4.36s-2.177-.615-3.809-.39c-1.631.225-15.828 3.185-21.539-1.23z"/>
        <path fill="#000" d="M78.402 104.224s-2.284-.503-2.338 0c-.054.502-2.72 5.644.599 7.153 3.319 1.509 12.182 4.75 26.597.558 0 0 .924.336.707-1.731-.217-2.068-.217-4.36-.217-4.36s-2.177-.615-3.809-.39c-1.631.225-15.828 3.185-21.539-1.23z" opacity=".1"/>
        <path fill="#33323D" d="M78.402 103.224s-2.284-.503-2.338 0c-.054.502-2.72 5.644.599 7.153 3.319 1.509 12.182 4.75 26.597.558 0 0 .924.336.707-1.731-.217-2.068-.217-4.36-.217-4.36s-2.177-.615-3.809-.39c-1.631.225-15.828 3.185-21.539-1.23z"/>
        <path fill="#444053" d="M92.497 20.338c-.136.828-.445 1.623-.492 2.461-.048.838.255 1.79.978 2.12.201.064.397.149.583.253.279.201.393.58.451.936.078.459.097.927.056 1.391-.04.467-.133.97.082 1.378.378.722 1.364.616 2.114.413l-.258 2.137c-.02.17-.034.36.082.476.11.083.247.115.38.088.651-.044 1.322-.14 1.88-.508.56-.367.975-1.051.87-1.74-.124-.799-.896-1.433-.792-2.235.08-.622.649-1.016 1.022-1.493.676-.873.712-2.2.182-3.189-.53-.988-1.553-1.6-2.607-1.712-.584-.063-1.191.013-1.74-.203A1.376 1.376 0 0 1 94.48 20"/>
        <path fill="#767D9F" d="M74 93.122l.548-1.092s2.956-2.522 3.636-2.7c.68-.176 3.452-.946 3.871-.946.42 0 8.057-.384 8.057-.384L91 89.917l-9.585 1.927L78.184 94 74 93.122z"/>
        <path fill="#FFB9B9" d="M97 60.26l-.523 3.914-.202 1.507-2.35.319s-.253-.53-.612-1.343c-1.09-2.468-3.143-7.558-1.953-8.437 1.582-1.17 1.967 2.71 1.967 2.71l1.804-.85L97 60.26z"/>
        <path fill="#FFF" d="M85 68h12v17H85z"/>
        <path fill="#000" d="M85 68h12v17H85z" opacity=".1"/>
        <path fill="#FFF" d="M90.519 66.12l11.547 1.715-2.58 17.527-11.547-1.716z"/>
        <path fill="#7CBE35" d="M91.606 67.791l5.943.883-1.327 9.02-5.944-.882zM89.64 79.379l7.202 1.07-.289 1.959-7.2-1.07z"/>
        <circle cx="100" cy="15" r="7" fill="#000" opacity=".1"/>
        <circle cx="100" cy="15" r="7" fill="#AE6E79"/>
        <path fill="#444053" d="M94.916 20.693a.758.758 0 0 1 .048-.523c.262-.535 1.008-.582 1.612-.555 1.421.065 2.98.073 4.092-.808.46-.363.976-1.273 1.646-1.1.596.153.845.948 1.466 1.124.45.128.915-.076 1.373-.162.659-.128 1.334-.02 2.002-.016.669.005 1.395-.12 1.85-.6.617-.647.516-1.658.462-2.545a13.463 13.463 0 0 1 .235-3.419c.224-1.12.568-2.371-.06-3.33-.6-.914-1.841-1.165-2.69-1.866-.793-.647-1.213-1.683-2.051-2.283-1.055-.756-2.49-.647-3.787-.516l-2.816.294c-.726.076-1.482.162-2.08.587-1.078.767-1.226 2.36-2.247 3.2-.454.372-1.035.556-1.554.834-.519.278-1.02.718-1.079 1.294-.049.486.218.934.348 1.401.308 1.116-.173 2.265-.48 3.389-.309 1.124-.368 2.49.526 3.235.181.152.392.268.568.427.604.542.687 1.456.547 2.245"/>
        <ellipse cx="101" cy="23.5" fill="#444053" rx="1" ry="1"/>
        <ellipse cx="101" cy="25.5" fill="#444053" rx="1" ry="1"/>
        <path fill="#AE6E79" d="M96.633 60.888c.18-.204.298-.728.367-1.42L95 57s.847 4.783 1.633 3.888z"/>
        <path fill="#000" d="M99.545 100.656s-3.146 4.822-12.975 4.305c-9.259-.478-13.778-4.995-13.563-6.59.216-1.594-.59-5.474 1.393-6.59 1.15-.646 2.664-.263 3.732.173.753.304 1.614.15 2.214-.393.976-.872 2.797-1.855 5.671-1.081.37.097.76.09 1.126-.021 1.197-.362 4.045-.99 6.112.405a2.106 2.106 0 0 0 2.239.084l.029-.017c.965-.585 5.468 4.942 5.468 4.942s.215 4.253-1.446 4.783z" opacity=".1"/>
        <path fill="#767D9F" d="M99.545 100.656s-3.146 4.822-12.975 4.305c-9.259-.478-13.778-4.995-13.563-6.59.216-1.594-.59-5.474 1.393-6.59 1.15-.646 2.664-.263 3.732.173.753.304 1.614.15 2.214-.393.976-.872 2.797-1.855 5.671-1.081.37.097.76.09 1.126-.021 1.197-.362 4.045-.99 6.112.405a2.106 2.106 0 0 0 2.239.084l.029-.017c.965-.585 5.468 4.942 5.468 4.942s.215 4.253-1.446 4.783z"/>
        <circle cx="86.5" cy="95.5" r="6.5" fill="#000" opacity=".1"/>
        <circle cx="86.5" cy="96.5" r="6.5" fill="#FFB9B9"/>
        <path fill="#B96B6B" d="M84.42 90.154c-.69.184-1.37.537-1.706 1.116-.203.35-.274.769-.567 1.06-.416.412-1.117.42-1.68.652-.562.232-.933 1.048-.382 1.306-.574.029-1 .553-1.07 1.073-.071.52.128 1.04.321 1.536.63 1.606 1.308 3.282 2.697 4.424 2.263 1.863 5.674 1.777 8.714 1.58.248.008.494-.049.714-.164.33-.215.37-.628.425-.99.23-1.547 1.077-2.952 1.632-4.43.554-1.476.781-3.21-.152-4.518-1.374-1.938-6.634-3.265-8.946-2.645z"/>
        <path fill="#000" d="M96 64.092l-.191 1.575L93.58 66s-.24-.553-.581-1.403L95.964 64l.036.092z" opacity=".1"/>
        <path fill="#767D9F" d="M99.708 98l1.29-1.578-.259-8.703c.127-.628.213-1.264.258-1.905.051-.925-.644-2.991-.644-2.991.108-.414.254-.815.437-1.198.31-.653-.436-2.121-.436-2.121s-1.11-3.808-.646-5.712c.464-1.905-.113-2.992-.113-2.992s-.452-2.121-.401-2.991c.05-.87-1.031-1.687-1.031-1.687L97.339 64l-3.297.653v7.344s.206 7.017 0 8.378c-.206 1.361.411 2.665.411 2.665s-.36 2.012-.05 2.774c.308.762.926 2.611.926 2.611-.114.661-.079 1.341.104 1.985.31.953 0 1.496 0 1.496L99.708 98z"/>
        <g fill="#000" opacity=".1">
            <path d="M109.605 10.81c-.184.92-.267 1.856-.247 2.793.014-.779.099-1.555.254-2.32.144-.697.327-1.449.288-2.145a12.56 12.56 0 0 1-.295 1.672zM92.294 17.297c-.175-.157-.385-.267-.565-.416-.478-.392-.68-.959-.72-1.572-.047.786.12 1.547.72 2.043.18.15.39.263.565.417.366.347.579.817.593 1.312.047-.66-.092-1.347-.593-1.784zM91.771 11.43a2.846 2.846 0 0 0-.088-.989c-.095-.336-.265-.665-.328-1.003 0 .037-.013.074-.018.114-.047.471.218.906.346 1.36.047.17.077.343.088.517zM108.912 16.604c-.453.472-1.176.588-1.84.583-.666-.005-1.339-.108-1.992.017-.456.088-.92.285-1.366.158-.618-.172-.865-.943-1.457-1.093-.673-.17-1.185.715-1.637 1.067-1.106.849-2.657.841-4.07.786-.602-.027-1.344.019-1.603.54a.702.702 0 0 0-.047.508l-2.002.302a3.58 3.58 0 0 1-.054.471l2.056-.314a.702.702 0 0 1 .047-.507c.26-.522 1.001-.568 1.602-.541 1.414.063 2.965.07 4.07-.786.46-.352.972-1.236 1.639-1.067.59.148.838.921 1.456 1.092.447.123.91-.073 1.366-.157.655-.125 1.326-.022 1.991-.017.665.005 1.388-.116 1.841-.583.454-.467.52-1.163.492-1.842-.02.527-.133 1.014-.492 1.383z"/>
        </g>
        <g fill="#000" opacity=".1">
            <path d="M93.379 25.422a3.246 3.246 0 0 0-.579-.227 1.47 1.47 0 0 1-.758-.745c.118.52.416.995.915 1.198.2.057.394.133.579.227.118.08.213.187.277.312-.062-.296-.177-.598-.434-.765zM96.058 29.094c-.723.177-1.667.269-2.064-.321.012.142.055.28.125.406.339.581 1.167.561 1.872.418l.067-.503zM98.988 29.508c.1.613-.313 1.224-.863 1.546-.549.321-1.218.41-1.865.452a.663.663 0 0 1-.304-.033.349.349 0 0 0 .066.388c.1.106.255.144.395.098.647-.039 1.312-.125 1.865-.453.554-.327.968-.937.862-1.551a1.668 1.668 0 0 0-.156-.447zM99.685 24.044c.194.743.02 1.532-.47 2.136-.371.431-.934.777-1.014 1.33-.027.256.028.512.157.736a.945.945 0 0 1 0-.282c.08-.554.643-.906 1.013-1.332.609-.707.693-1.75.314-2.588z"/>
        </g>
        <g fill="#000" opacity=".1">
            <path d="M80.61 93.422c.555-.229 1.248-.237 1.66-.649.29-.289.361-.705.562-1.05.326-.578 1.002-.927 1.684-1.11 2.282-.616 7.487.7 8.843 2.61a3.53 3.53 0 0 1 .623 1.958 3.647 3.647 0 0 0-.621-2.282c-1.357-1.908-6.556-3.225-8.844-2.609-.681.184-1.353.532-1.684 1.11-.2.345-.27.762-.56 1.05-.413.41-1.106.419-1.66.649-.423.173-.736.686-.622 1.03.092-.315.319-.574.62-.707zM79.176 95.778c.069-.52.49-1.038 1.058-1.067a.432.432 0 0 1-.25-.277 1.261 1.261 0 0 0-.814 1.02 1.705 1.705 0 0 0 0 .397c.006-.025.006-.049.006-.073z"/>
        </g>
        <path fill="#FFF" d="M99 37h15v19H99z"/>
        <path fill="#000" d="M99 37h15v19H99z" opacity=".1"/>
        <path fill="#FFF" d="M104.193 40.94l14.465-2.5 3.245 18.953-14.465 2.5z"/>
        <path fill="#7CBE35" d="M107.699 53.86l3.398-.587.762 4.452-3.398.588zM112.401 53.046l3.399-.587.762 4.453-3.398.587zM107.205 47.992l11.918-2.057.765 4.473-11.919 2.057zM106.211 42.653l11.919-2.056.17.998-11.918 2.056zM106.602 44.489l11.919-2.056.17.997-11.918 2.057z"/>
        <path fill="#AE6E79" d="M107.263 32s-6.672 6.965-3.322 8.735c3.35 1.769 5.53-5.888 5.53-5.888l.529-1.74L107.263 32z"/>
        <path fill="#000" d="M105.838 32.05L105 34.037s4.136.622 5 1.963l-.512-3.504-.609-1.496-3.04 1.05z" opacity=".1"/>
        <path fill="#4C4981" d="M105.838 31.05L105 33.037s4.136.622 5 1.963l-.512-3.504-.609-1.496-3.04 1.05z"/>
        <path fill="#464A5F" d="M130.953 65.942l-.088.061.122.055.132-.011.016-.092z"/>
        <path fill="#000" d="M130.953 65.942l-.088.061.122.055.132-.011.016-.092z" opacity=".1"/>
        <path fill="#9C9CA1" d="M131.08 66.028l-.09.058-.07-.088.043-.07.04-.014z"/>
        <path fill="#000" d="M131.08 66.028l-.09.058-.07-.088.043-.07.04-.014z" opacity=".1"/>
        <path fill="#9C9CA1" d="M147 54.88l-6.673-9.54a.8.8 0 0 0-1.105-.202l-14.876 10.106a.784.784 0 0 0-.207 1.096l6.655 9.66L147 54.88z"/>
        <path fill="#000" d="M147 54.88l-6.673-9.54a.8.8 0 0 0-1.105-.202l-14.876 10.106a.784.784 0 0 0-.207 1.096l6.655 9.66L147 54.88z" opacity=".1"/>
        <path fill="#9C9CA1" d="M147 54.875l-6.673-9.534a.802.802 0 0 0-1.107-.202l-14.873 10.106a.785.785 0 0 0-.21 1.095l6.656 9.66L147 54.875z"/>
        <path fill="#464A5F" d="M152.87 56.764L147.298 55 131 66.133l5.661 1.826c.257.082.538.04.759-.113l15.496-10.783a.16.16 0 0 0-.046-.3z"/>
        <path fill="#000" d="M152.87 56.764L147.298 55 131 66.133l5.661 1.826c.257.082.538.04.759-.113l15.496-10.783a.16.16 0 0 0-.046-.3z" opacity=".1"/>
        <path fill="#464A5F" d="M152.874 56.766L147.301 55 131 66.135l5.662 1.822a.861.861 0 0 0 .759-.111l15.5-10.785a.16.16 0 0 0-.047-.295z"/>
        <g fill="#000" opacity=".1">
            <path d="M144.864 53.327l-.402-.608a.155.155 0 0 0-.217-.042l-.597.42a.175.175 0 0 0-.043.228l.37.599a.155.155 0 0 0 .215.049l.63-.417a.174.174 0 0 0 .044-.23zM143.792 54.11l-.403-.606a.155.155 0 0 0-.218-.043l-.595.424a.174.174 0 0 0-.045.228l.37.598a.155.155 0 0 0 .216.05l.63-.416a.17.17 0 0 0 .07-.108.176.176 0 0 0-.025-.128zM142.666 54.93l-.404-.605a.155.155 0 0 0-.217-.042l-.597.423a.174.174 0 0 0-.043.23l.37.598a.155.155 0 0 0 .215.05l.63-.417a.169.169 0 0 0 .07-.108.176.176 0 0 0-.024-.128zM141.525 55.764l-.403-.607a.155.155 0 0 0-.216-.043l-.597.426a.175.175 0 0 0-.043.227l.37.599a.155.155 0 0 0 .214.05l.63-.418a.17.17 0 0 0 .069-.107.176.176 0 0 0-.024-.127zM140.386 56.595l-.404-.605a.155.155 0 0 0-.217-.042l-.595.423a.174.174 0 0 0-.045.228l.37.599a.155.155 0 0 0 .215.05l.63-.418a.17.17 0 0 0 .07-.108.176.176 0 0 0-.024-.127zM139.296 57.503l-.5-.752a.072.072 0 0 0-.047-.033.07.07 0 0 0-.055.012l-.732.522a.076.076 0 0 0-.032.048.08.08 0 0 0 .01.058l.46.744a.071.071 0 0 0 .1.023l.775-.506a.078.078 0 0 0 .036-.053.08.08 0 0 0-.015-.063zM138.157 58.334l-.504-.752a.073.073 0 0 0-.047-.032.07.07 0 0 0-.056.012l-.732.521a.08.08 0 0 0-.02.106l.46.744a.07.07 0 0 0 .045.035c.02.005.04 0 .055-.011l.773-.506a.075.075 0 0 0 .04-.052.08.08 0 0 0-.014-.065zM137.147 59.072l-.5-.746a.071.071 0 0 0-.101-.019l-.733.52a.082.082 0 0 0-.021.108l.46.744a.073.073 0 0 0 .1.023l.774-.506a.077.077 0 0 0 .041-.056.08.08 0 0 0-.02-.068zM136.018 59.895l-.501-.753a.071.071 0 0 0-.101-.018l-.733.52a.078.078 0 0 0-.032.049c-.003.02 0 .041.011.058l.46.744a.073.073 0 0 0 .1.024l.775-.506a.08.08 0 0 0 .036-.054.082.082 0 0 0-.015-.064zM134.923 60.687l-.5-.752a.072.072 0 0 0-.047-.032.07.07 0 0 0-.054.012l-.733.521a.076.076 0 0 0-.032.049.08.08 0 0 0 .011.057l.46.744a.071.071 0 0 0 .1.024l.774-.506a.078.078 0 0 0 .036-.053.08.08 0 0 0-.015-.064zM133.829 61.494l-.496-.754a.071.071 0 0 0-.101-.019l-.733.52a.078.078 0 0 0-.032.05c-.003.02 0 .04.011.058l.46.744a.073.073 0 0 0 .1.023l.775-.506a.08.08 0 0 0 .016-.116zM132.734 62.292l-.5-.753a.072.072 0 0 0-.047-.032.07.07 0 0 0-.054.012l-.733.518a.076.076 0 0 0-.032.048.08.08 0 0 0 .011.058l.46.744a.071.071 0 0 0 .1.024l.775-.506a.078.078 0 0 0 .034-.052.08.08 0 0 0-.014-.061zM144.144 52.228l-.403-.607a.155.155 0 0 0-.218-.042l-.59.425a.174.174 0 0 0-.045.228l.37.599a.155.155 0 0 0 .216.049l.63-.417a.175.175 0 0 0 .04-.235zM142.568 49.828l-.403-.61a.155.155 0 0 0-.216-.043l-.597.424a.174.174 0 0 0-.045.228l.37.598a.155.155 0 0 0 .216.05l.63-.416a.174.174 0 0 0 .045-.23zM143.07 53.011l-.403-.605a.155.155 0 0 0-.216-.043l-.597.424a.175.175 0 0 0-.043.227l.368.6a.155.155 0 0 0 .216.05l.63-.417a.17.17 0 0 0 .07-.108.176.176 0 0 0-.025-.128zM141.944 53.833l-.403-.606a.155.155 0 0 0-.218-.042l-.595.418a.174.174 0 0 0-.045.23l.37.598a.155.155 0 0 0 .216.05l.63-.417a.174.174 0 0 0 .045-.231zM140.803 54.666l-.401-.607a.155.155 0 0 0-.218-.043l-.597.43a.175.175 0 0 0-.043.228l.37.599a.155.155 0 0 0 .216.049l.628-.417a.17.17 0 0 0 .071-.11.176.176 0 0 0-.026-.13zM141.52 50.65l-.403-.606a.155.155 0 0 0-.216-.042l-.597.423a.174.174 0 0 0-.045.228l.37.599a.155.155 0 0 0 .216.05l.63-.416a.17.17 0 0 0 .07-.108.176.176 0 0 0-.025-.128zM140.394 51.473l-.404-.607a.155.155 0 0 0-.217-.043l-.595.419a.174.174 0 0 0-.045.227l.37.6a.155.155 0 0 0 .215.048l.63-.417a.174.174 0 0 0 .046-.227zM139.253 52.304l-.403-.605a.155.155 0 0 0-.216-.044l-.597.43a.175.175 0 0 0-.043.228l.37.599a.155.155 0 0 0 .215.05l.629-.418a.17.17 0 0 0 .071-.11.176.176 0 0 0-.026-.13zM139.664 55.497l-.403-.605a.155.155 0 0 0-.216-.044l-.592.425a.175.175 0 0 0-.043.228l.363.599a.155.155 0 0 0 .214.05l.63-.418a.17.17 0 0 0 .07-.107.176.176 0 0 0-.023-.128zM138.525 56.329l-.403-.606a.155.155 0 0 0-.218-.042l-.595.424a.174.174 0 0 0-.045.227l.37.6a.155.155 0 0 0 .216.05l.63-.417a.17.17 0 0 0 .07-.108.176.176 0 0 0-.025-.128zM137.435 57.236l-.5-.752a.072.072 0 0 0-.047-.032.07.07 0 0 0-.054.012l-.733.521a.076.076 0 0 0-.032.049.08.08 0 0 0 .011.057l.46.744a.069.069 0 0 0 .1.024l.774-.506a.078.078 0 0 0 .036-.053.08.08 0 0 0-.015-.064zM136.426 57.973l-.501-.753a.071.071 0 0 0-.101-.019l-.731.52a.082.082 0 0 0-.021.107l.46.744a.073.073 0 0 0 .1.024l.774-.506c.02-.01.034-.03.037-.053a.077.077 0 0 0-.017-.064zM135.296 58.797l-.5-.753a.071.071 0 0 0-.102-.018l-.732.52a.076.076 0 0 0-.032.048.08.08 0 0 0 .01.058l.46.745a.073.073 0 0 0 .1.024l.775-.506a.08.08 0 0 0 .036-.054.082.082 0 0 0-.015-.064zM134.202 59.596l-.501-.752a.072.072 0 0 0-.047-.033.07.07 0 0 0-.054.013l-.733.514a.076.076 0 0 0-.031.049.08.08 0 0 0 .01.057l.46.744a.071.071 0 0 0 .1.024l.775-.506a.078.078 0 0 0 .032-.05.081.081 0 0 0-.011-.06zM141.194 52.69l-.404-.605a.155.155 0 0 0-.216-.042l-.596.425a.175.175 0 0 0-.044.228l.37.598a.155.155 0 0 0 .214.05l.63-.417a.17.17 0 0 0 .07-.108.176.176 0 0 0-.024-.128zM140.053 53.524l-.403-.607a.155.155 0 0 0-.218-.043l-.595.426a.174.174 0 0 0-.045.227l.37.599a.155.155 0 0 0 .216.05l.63-.418a.17.17 0 0 0 .069-.107.176.176 0 0 0-.024-.127zM138.915 54.355l-.403-.605a.155.155 0 0 0-.218-.042l-.596.423a.175.175 0 0 0-.044.228l.37.599a.155.155 0 0 0 .216.05l.629-.418a.17.17 0 0 0 .07-.107.176.176 0 0 0-.024-.128zM137.774 55.187l-.403-.606a.155.155 0 0 0-.216-.042l-.597.424a.175.175 0 0 0-.043.227l.37.606a.155.155 0 0 0 .214.05l.63-.416a.169.169 0 0 0 .073-.111.176.176 0 0 0-.028-.132zM136.693 56.094l-.501-.752a.072.072 0 0 0-.046-.032.07.07 0 0 0-.055.012l-.733.521a.08.08 0 0 0-.02.106l.459.746c.01.017.027.03.046.033.019.004.039 0 .055-.011l.774-.506a.078.078 0 0 0 .036-.053.08.08 0 0 0-.015-.064zM135.677 56.832l-.501-.754a.073.073 0 0 0-.102-.019l-.732.52a.082.082 0 0 0-.02.108l.459.743a.071.071 0 0 0 .1.024l.775-.506a.078.078 0 0 0 .036-.053.08.08 0 0 0-.015-.063zM134.547 57.651l-.5-.754a.073.073 0 0 0-.103-.018l-.733.52a.084.084 0 0 0-.02.107l.46.744a.071.071 0 0 0 .101.024l.773-.506a.079.079 0 0 0 .022-.116zM133.453 58.454l-.501-.752a.073.073 0 0 0-.047-.033.07.07 0 0 0-.055.013l-.733.52a.08.08 0 0 0-.02.107l.46.744a.07.07 0 0 0 .045.035c.02.004.04 0 .056-.011l.772-.506c.02-.01.034-.03.038-.053a.079.079 0 0 0-.015-.064zM133.107 60.394l-.5-.752a.071.071 0 0 0-.101-.019l-.733.52a.076.076 0 0 0-.032.048.08.08 0 0 0 .011.058l.46.745a.073.073 0 0 0 .1.024l.774-.506a.08.08 0 0 0 .036-.054.082.082 0 0 0-.015-.064zM132.013 61.193l-.501-.752a.072.072 0 0 0-.046-.032.07.07 0 0 0-.055.012l-.733.521a.076.076 0 0 0-.031.049.08.08 0 0 0 .01.057l.46.744a.071.071 0 0 0 .1.024l.775-.506a.078.078 0 0 0 .036-.053.08.08 0 0 0-.015-.064zM133.731 56.413l-.48-.708a.096.096 0 0 0-.136-.025l-.691.49a.103.103 0 0 0-.042.066.107.107 0 0 0 .015.078l.432.7a.092.092 0 0 0 .134.032l.731-.484a.104.104 0 0 0 .05-.066.11.11 0 0 0-.013-.083zM132.637 57.213l-.472-.709a.097.097 0 0 0-.063-.043.094.094 0 0 0-.073.016l-.691.5a.101.101 0 0 0-.042.064.106.106 0 0 0 .014.077l.432.702c.03.047.09.061.135.032l.731-.484a.104.104 0 0 0 .048-.07.109.109 0 0 0-.02-.085zM131.542 58.012l-.472-.71a.096.096 0 0 0-.136-.025l-.69.49a.103.103 0 0 0-.043.066.107.107 0 0 0 .015.078l.432.7c.014.023.035.04.06.046a.092.092 0 0 0 .074-.014l.732-.484a.103.103 0 0 0 .044-.067.107.107 0 0 0-.016-.08zM130.462 58.832l-.5-.754a.071.071 0 0 0-.101-.018l-.733.519a.082.082 0 0 0-.02.108l.458.744a.073.073 0 0 0 .101.023l.775-.506c.02-.01.033-.03.037-.052a.077.077 0 0 0-.017-.064zM143.413 51.048l-.434-.65a.155.155 0 0 0-.217-.04l-1.693 1.25a.175.175 0 0 0-.042.226l.408.664a.16.16 0 0 0 .102.072c.042.008.085-.001.12-.026l1.719-1.267a.175.175 0 0 0 .037-.23zM132.355 59.228l-.531-.79a.072.072 0 0 0-.047-.033.07.07 0 0 0-.055.014l-1.828 1.35a.079.079 0 0 0-.019.104l.5.814c.01.018.027.03.047.035.02.004.04 0 .056-.013l1.858-1.37a.082.082 0 0 0 .02-.11zM138.168 53.178l-.49-.756a.071.071 0 0 0-.1-.02l-4.058 2.888a.08.08 0 0 0-.02.106l.5.81c.01.018.028.03.048.034.02.004.04 0 .056-.012l4.045-2.942a.081.081 0 0 0 .02-.108z"/>
        </g>
        <path fill="#464A5F" d="M143.98 54.5l-.308-.448a.12.12 0 0 0-.166-.032l-.453.314a.126.126 0 0 0-.035.168l.282.443a.12.12 0 0 0 .165.037l.48-.309a.127.127 0 0 0 .034-.173zM142.979 54.5l-.307-.449a.12.12 0 0 0-.165-.031l-.454.313a.127.127 0 0 0-.035.169l.282.442a.12.12 0 0 0 .164.038l.48-.308a.127.127 0 0 0 .034-.175zM141.979 55.5l-.307-.448a.12.12 0 0 0-.166-.031l-.453.314a.126.126 0 0 0-.035.168l.282.442a.12.12 0 0 0 .164.037l.48-.308a.127.127 0 0 0 .034-.175zM140.976 56.497l-.306-.446a.12.12 0 0 0-.164-.031l-.453.312a.126.126 0 0 0-.032.173l.281.44a.12.12 0 0 0 .164.037l.477-.307a.126.126 0 0 0 .033-.178zM139.98 56.5l-.308-.449a.12.12 0 0 0-.165-.031l-.455.313a.127.127 0 0 0-.033.169l.28.442a.12.12 0 0 0 .165.038l.481-.31a.127.127 0 0 0 .034-.173zM139.976 57.553l-.724-.53a.134.134 0 0 0-.067-.022.188.188 0 0 0-.078.008l-1.06.367c-.023.008-.04.02-.045.035-.006.014 0 .028.016.04l.663.524c.032.025.097.033.146.017l1.12-.357c.026-.008.045-.021.051-.037.006-.016-.002-.032-.022-.045zM137.977 58.553l-.724-.53a.139.139 0 0 0-.068-.022.192.192 0 0 0-.08.009l-1.057.366c-.024.008-.04.02-.046.034-.006.014 0 .03.016.041l.664.524c.015.013.039.021.066.024.028.003.056 0 .08-.008l1.12-.356c.026-.008.044-.022.05-.038.006-.015-.002-.031-.02-.044z"/>
        <path fill="#464A5F" d="M136.98 58.556l-.725-.533c-.034-.024-.098-.03-.146-.014l-1.062.363c-.048.018-.061.051-.03.077l.666.526c.032.025.096.032.146.017l1.122-.358c.024-.008.041-.021.047-.036.006-.014 0-.03-.017-.042zM135.97 59.549l-.72-.527c-.035-.023-.099-.03-.146-.013l-1.056.366c-.024.008-.04.02-.046.035-.006.014 0 .03.016.041l.662.524c.032.025.096.032.145.017l1.116-.356c.03-.008.051-.023.057-.04.006-.017-.004-.035-.027-.047zM134.976 60.553l-.724-.53a.134.134 0 0 0-.067-.022.188.188 0 0 0-.078.008l-1.06.367c-.023.008-.04.02-.045.034-.006.015 0 .03.016.041l.663.524a.128.128 0 0 0 .066.024.19.19 0 0 0 .08-.008l1.12-.356c.026-.008.045-.022.051-.037.006-.016-.002-.032-.022-.045zM133.976 61.554l-.724-.532c-.034-.023-.098-.03-.146-.013l-1.059.366c-.048.017-.061.051-.03.076l.664.524c.032.025.096.032.146.017l1.12-.356c.026-.008.045-.022.051-.038.006-.016-.002-.032-.022-.044zM131.976 62.553l-.724-.53a.134.134 0 0 0-.067-.022.188.188 0 0 0-.078.008l-1.06.367c-.023.008-.04.02-.045.034-.006.015 0 .03.016.041l.663.524a.128.128 0 0 0 .066.024.19.19 0 0 0 .08-.008l1.12-.356c.026-.008.045-.022.051-.037.006-.016-.002-.032-.022-.045zM143.98 52.5l-.308-.449a.12.12 0 0 0-.165-.031l-.455.314a.126.126 0 0 0-.033.168l.28.443a.12.12 0 0 0 .165.037l.481-.31a.127.127 0 0 0 .034-.173zM141.979 50.5l-.308-.449a.12.12 0 0 0-.164-.031l-.455.313a.127.127 0 0 0-.033.169l.282.443a.12.12 0 0 0 .163.037l.48-.308a.127.127 0 0 0 .034-.175zM141.98 53.502l-.308-.45a.12.12 0 0 0-.165-.032l-.455.313a.127.127 0 0 0-.033.169l.282.443a.12.12 0 0 0 .164.037l.48-.308a.127.127 0 0 0 .035-.172zM140.977 54.499l-.303-.448a.12.12 0 0 0-.165-.031l-.457.313a.126.126 0 0 0-.033.17l.282.442a.12.12 0 0 0 .165.037l.482-.308a.127.127 0 0 0 .03-.175zM140.98 55.5l-.308-.448a.12.12 0 0 0-.166-.032l-.453.314a.126.126 0 0 0-.035.168l.282.443a.12.12 0 0 0 .165.037l.48-.309a.127.127 0 0 0 .034-.173zM140.98 51.502l-.308-.45a.12.12 0 0 0-.165-.032l-.455.313a.127.127 0 0 0-.033.169l.282.443a.12.12 0 0 0 .164.037l.48-.308a.127.127 0 0 0 .035-.172zM139.98 52.5l-.308-.449a.12.12 0 0 0-.165-.031l-.454.314a.126.126 0 0 0-.035.168l.282.443a.12.12 0 0 0 .165.037l.48-.31a.127.127 0 0 0 .034-.173zM138.98 52.499l-.308-.447a.12.12 0 0 0-.166-.032l-.453.313a.126.126 0 0 0-.035.168l.282.444a.12.12 0 0 0 .165.037l.479-.309a.127.127 0 0 0 .035-.174zM139.98 56.5l-.307-.449a.12.12 0 0 0-.165-.031l-.456.312a.127.127 0 0 0-.033.169l.282.444a.12.12 0 0 0 .164.037l.481-.31a.127.127 0 0 0 .034-.171zM137.976 56.496l-.306-.445a.12.12 0 0 0-.164-.031l-.454.317a.126.126 0 0 0-.034.168l.281.44a.12.12 0 0 0 .164.037l.479-.306a.126.126 0 0 0 .034-.18zM137.974 57.553l-.726-.53a.135.135 0 0 0-.068-.022.189.189 0 0 0-.078.008l-1.054.367c-.024.008-.04.02-.046.034-.006.015 0 .03.016.041l.666.524a.13.13 0 0 0 .066.024c.028.003.056 0 .08-.008l1.123-.356c.025-.009.042-.023.046-.038.004-.016-.005-.032-.025-.044zM135.976 57.553l-.724-.53c-.034-.024-.1-.03-.147-.013l-1.059.365c-.047.018-.06.05-.03.076l.666.524c.031.025.096.033.145.017l1.116-.357c.029-.007.049-.02.055-.037.006-.016-.002-.032-.022-.045zM134.974 58.554l-.723-.532c-.034-.023-.099-.03-.146-.013l-1.058.366c-.048.017-.061.051-.03.076l.663.524c.032.025.096.032.146.017l1.118-.356c.028-.008.048-.021.054-.038.006-.016-.003-.032-.024-.044zM133.973 59.553l-.719-.53a.135.135 0 0 0-.067-.022.188.188 0 0 0-.079.008l-1.061.367c-.048.017-.061.05-.03.075l.665.524c.032.025.097.033.146.017l1.121-.357c.027-.008.045-.022.05-.038.004-.016-.005-.032-.026-.044zM140.98 53.5l-.307-.448a.12.12 0 0 0-.166-.031l-.455.314a.126.126 0 0 0-.033.168l.282.442a.12.12 0 0 0 .165.037l.48-.308a.127.127 0 0 0 .034-.173zM139.98 54.5l-.308-.448a.12.12 0 0 0-.165-.032l-.455.314a.126.126 0 0 0-.033.168l.282.443a.12.12 0 0 0 .163.037l.481-.309a.127.127 0 0 0 .034-.173zM138.977 55.499l-.312-.447a.12.12 0 0 0-.167-.031l-.445.312a.126.126 0 0 0-.035.168l.283.443a.12.12 0 0 0 .165.038l.483-.308a.127.127 0 0 0 .028-.175zM136.979 55.5l-.308-.449a.12.12 0 0 0-.164-.031l-.455.313a.127.127 0 0 0-.033.169l.282.443a.12.12 0 0 0 .163.037l.48-.308a.127.127 0 0 0 .034-.175zM136.977 56.553l-.724-.53a.139.139 0 0 0-.068-.022.192.192 0 0 0-.08.009l-1.058.366c-.048.017-.061.05-.03.075l.663.524c.016.013.04.021.068.024.028.003.057 0 .08-.008l1.117-.356c.027-.008.047-.021.053-.037.006-.016-.002-.032-.021-.045z"/>
        <path fill="#464A5F" d="M135.974 56.554l-.726-.53a.135.135 0 0 0-.067-.023.188.188 0 0 0-.079.008l-1.055.366c-.048.017-.061.051-.03.076l.665.524c.033.025.097.032.147.017l1.122-.356c.026-.009.043-.023.048-.039.004-.015-.005-.031-.025-.043zM133.976 57.553l-.724-.53c-.034-.024-.1-.03-.148-.013l-1.057.365c-.048.017-.061.051-.03.076l.664.524c.031.025.096.033.146.017l1.12-.357c.026-.008.045-.021.051-.037.006-.016-.002-.032-.022-.045zM132.977 58.553l-.724-.53a.139.139 0 0 0-.068-.022.192.192 0 0 0-.08.009l-1.057.366c-.024.008-.04.02-.046.034-.006.014 0 .03.016.041l.664.524c.015.013.039.021.066.024.028.003.056 0 .08-.008l1.12-.356c.026-.008.044-.022.05-.038.006-.015-.002-.031-.02-.044zM132.976 60.554l-.723-.531c-.035-.024-.1-.03-.148-.013l-1.058.365c-.048.018-.061.051-.03.077l.663.523c.032.025.096.032.145.017l1.118-.356c.029-.008.049-.021.055-.037.006-.016-.002-.033-.022-.045zM131.976 61.553l-.723-.53a.138.138 0 0 0-.068-.022.192.192 0 0 0-.08.009l-1.058.366c-.048.017-.061.05-.03.075l.663.524c.015.012.04.02.067.024.028.003.057 0 .08-.008l1.116-.356c.029-.007.049-.02.055-.037.006-.016-.002-.032-.022-.045zM132.976 56.538l-.692-.507c-.046-.033-.135-.04-.2-.018l-1.02.35c-.066.023-.084.069-.04.103l.633.5c.044.035.133.044.2.022l1.07-.345c.035-.01.06-.027.069-.047.01-.02.002-.041-.02-.058zM131.974 57.538l-.694-.506a.187.187 0 0 0-.092-.03.26.26 0 0 0-.108.01l-1.017.352c-.065.023-.083.068-.04.101l.636.501c.044.034.132.044.2.023l1.075-.345c.033-.012.056-.03.063-.05.008-.019 0-.04-.023-.056z"/>
        <path fill="#464A5F" d="M131.977 57.538l-.703-.507c-.045-.033-.132-.04-.197-.018l-1.014.35c-.065.023-.083.069-.04.103l.633.5c.044.035.132.044.199.022l1.07-.345c.035-.01.06-.027.07-.047.01-.02.004-.041-.018-.058zM130.976 58.553l-.724-.53c-.034-.024-.1-.03-.147-.013l-1.06.365c-.047.018-.06.051-.027.076l.663.524c.032.025.097.033.146.017l1.12-.357c.026-.008.045-.021.051-.037.006-.016-.002-.032-.022-.045zM142.968 51.642l-.525-.58c-.062-.065-.18-.081-.268-.037l-2.094 1.115c-.084.046-.106.134-.051.201l.504.593c.03.033.074.056.126.063.051.008.104 0 .147-.023l2.112-1.13c.085-.046.106-.135.05-.202zM132.984 59.711l-.636-.682a.092.092 0 0 0-.057-.028.108.108 0 0 0-.066.012l-2.187 1.163c-.04.021-.05.062-.023.092l.6.701a.092.092 0 0 0 .056.03c.024.003.048 0 .068-.011l2.224-1.182c.04-.022.049-.064.02-.095zM137.983 53.816l-.512-.78a.079.079 0 0 0-.11-.023l-4.326 2.998a.08.08 0 0 0-.022.11l.533.842a.077.077 0 0 0 .11.023l4.315-3.058a.082.082 0 0 0 .012-.112z"/>
        <path fill="#000" d="M137.928 50.302l-2.18-3.128a.408.408 0 0 0-.56-.106l-6.01 3.981a.4.4 0 0 0-.108.558l2.224 3.217a.405.405 0 0 0 .564.106l5.967-4.074a.397.397 0 0 0 .103-.554z" opacity=".1"/>
        <path fill="#939498" d="M137.927 50.302l-2.182-3.129a.41.41 0 0 0-.56-.105l-6.004 3.984a.399.399 0 0 0-.11.557l2.218 3.215a.405.405 0 0 0 .565.106l5.973-4.074a.397.397 0 0 0 .1-.554z"/>
        <path fill="#7CBE35" d="M150.876 56.563L146.152 55 131 65.442l4.69 1.516a.865.865 0 0 0 .758-.111l14.47-9.984a.163.163 0 0 0-.042-.3z"/>
    </g>
</svg>
