<svg xmlns="http://www.w3.org/2000/svg" width="160" height="115" viewBox="0 0 160 115">
    <defs>
        <linearGradient id="a" x1="49.996%" x2="49.996%" y1="100.001%" y2=".016%">
            <stop offset="0%" stop-color="gray" stop-opacity=".25"/>
            <stop offset="54%" stop-color="gray" stop-opacity=".12"/>
            <stop offset="100%" stop-color="gray" stop-opacity=".1"/>
        </linearGradient>
    </defs>
    <g fill="none" fill-rule="evenodd">
        <ellipse cx="80" cy="105.5" fill="#7CBE35" opacity=".1" rx="80" ry="9.5"/>
        <path stroke="#535461" stroke-width="2" d="M137 110s3.944-5.225 3.624-10.41a10.392 10.392 0 0 1 1.523-6.168A17.044 17.044 0 0 1 144 91"/>
        <path fill="#7CBE35" d="M144.1 87.839c-.309.684.196 3.161.196 3.161s2.29-1.488 2.597-2.173a1.212 1.212 0 0 0-.216-1.32c-.332-.373-.865-.562-1.396-.493-.532.068-.982.383-1.181.825zM140.035 90.535c.16.696 2.098 2.465 2.098 2.465s1.01-2.267.85-2.964c-.162-.696-.954-1.15-1.77-1.011-.815.137-1.345.814-1.184 1.51h.006zM137.31 97.545C137.763 98.179 140 99 140 99s-.385-2.85-.838-3.483c-.452-.634-1.233-.693-1.745-.133-.511.56-.56 1.528-.107 2.16zM137.21 103.156c.41.664 2.79 1.844 2.79 1.844s.011-2.672-.398-3.33a1.403 1.403 0 0 0-1.936-.458 1.416 1.416 0 0 0-.455 1.944zM145.172 94.89c-.683.316-3.172-.15-3.172-.15s1.464-2.31 2.153-2.626c.682-.317 1.464.05 1.746.817.281.769-.044 1.648-.727 1.965v-.006zM144.55 100.997c-.875.073-3.55-1.212-3.55-1.212s2.397-1.706 3.272-1.78c.875-.071 1.645.54 1.722 1.365.076.825-.57 1.553-1.445 1.625v.002zM142.032 107.966c-.693.212-3.032-.632-3.032-.632s1.679-2.072 2.372-2.284c.693-.212 1.403.27 1.585 1.074.182.806-.232 1.63-.925 1.842z"/>
        <path fill="#000" d="M144.1 87.839c-.309.684.196 3.161.196 3.161s2.29-1.488 2.597-2.173a1.212 1.212 0 0 0-.216-1.32c-.332-.373-.865-.562-1.396-.493-.532.068-.982.383-1.181.825zM140.035 90.535c.16.696 2.098 2.465 2.098 2.465s1.01-2.267.85-2.964c-.162-.696-.954-1.15-1.77-1.011-.815.137-1.345.814-1.184 1.51h.006zM137.31 97.545C137.763 98.179 140 99 140 99s-.385-2.85-.838-3.483c-.452-.634-1.233-.693-1.745-.133-.511.56-.56 1.528-.107 2.16zM137.21 103.156c.41.664 2.79 1.844 2.79 1.844s.011-2.672-.398-3.33a1.403 1.403 0 0 0-1.936-.458 1.416 1.416 0 0 0-.455 1.944zM145.172 94.89c-.683.316-3.172-.15-3.172-.15s1.464-2.31 2.153-2.626c.682-.317 1.464.05 1.746.817.281.769-.044 1.648-.727 1.965v-.006zM144.55 100.997c-.875.073-3.55-1.212-3.55-1.212s2.397-1.706 3.272-1.78c.875-.071 1.645.54 1.722 1.365.076.825-.57 1.553-1.445 1.625v.002zM142.032 107.966c-.693.212-3.032-.632-3.032-.632s1.679-2.072 2.372-2.284c.693-.212 1.403.27 1.585 1.074.182.806-.232 1.63-.925 1.842z" opacity=".25"/>
        <path stroke="#535461" stroke-width="2" d="M137 110s6.134-3.239 8.011-8.309a10.49 10.49 0 0 1 4.12-5.2A17.73 17.73 0 0 1 152 95"/>
        <path fill="#7CBE35" d="M152.324 91.453C151.697 92.07 151 95 151 95s2.903-.646 3.525-1.261c.402-.398.565-.984.427-1.536a1.585 1.585 0 0 0-1.098-1.143 1.556 1.556 0 0 0-1.523.393h-.007zM148.024 93.005c-.183.695.751 2.995.751 2.995s2.004-1.731 2.188-2.426c.183-.694-.327-1.385-1.14-1.542-.812-.157-1.62.279-1.804.973h.005zM142.076 98.706c.251.69 2.418 2.294 2.418 2.294s.706-2.396.45-3.086c-.163-.446-.587-.783-1.113-.883-.526-.101-1.073.05-1.437.395-.363.346-.486.834-.324 1.28h.006zM139.013 103.813c.113.874 1.932 3.187 1.932 3.187s1.16-2.75 1.047-3.622a1.584 1.584 0 0 0-.922-1.26 1.433 1.433 0 0 0-1.489.218c-.424.35-.64.913-.567 1.477h-.001zM150.373 99c-.876-.021-3.373-1.584-3.373-1.584s2.581-1.437 3.456-1.416c.875.022 1.566.71 1.543 1.539-.022.828-.75 1.482-1.626 1.46zM147.258 104.919c-.689-.269-2.258-2.478-2.258-2.478s2.421-.645 3.11-.375c.445.174.775.607.865 1.136.09.528-.071 1.072-.426 1.426-.354.354-.846.465-1.291.29zM142.14 109.98c-.87-.131-3.14-2-3.14-2s2.78-1.1 3.657-.969c.87.132 1.463.904 1.322 1.724-.14.82-.96 1.378-1.83 1.246h-.009z"/>
        <path fill="#7CBE35" d="M91.47 13.679c-7.885-.277-15.396-2.843-22.566-5.652-7.17-2.808-14.276-5.92-21.973-7.4C41.98-.33 36.32-.466 32.33 2.21c-3.835 2.568-5.077 7.013-5.744 11.139-.502 3.103-.798 6.37.571 9.274.955 2.016 2.65 3.714 3.822 5.646 4.077 6.722 1.194 15.012-3.224 21.577-2.073 3.08-4.477 6.016-6.077 9.295-1.6 3.279-2.338 7.033-.94 10.377 1.388 3.31 4.693 5.804 8.273 7.554 7.272 3.557 15.846 4.575 24.199 5.15 18.498 1.277 37.094.72 55.641.17 6.865-.204 13.759-.411 20.511-1.48 3.75-.595 7.622-1.54 10.343-3.817 3.456-2.89 4.312-7.786 1.998-11.41-3.884-6.08-14.624-7.59-17.339-14.116-1.493-3.591.042-7.591 2.213-10.922 4.658-7.147 12.467-13.416 12.88-21.583.285-5.614-3.473-11.228-9.28-13.883-6.084-2.78-14.52-2.43-19.009 2.174-4.614 4.743-12.737 6.567-19.699 6.324z" opacity=".1"/>
        <path fill="#7CBE35" d="M85 45h-4c.003-.254.022-.507.058-.76.125-.897.511-2.352 1.708-3.035 1.118-.638 2.573.324 2.002 1.342l-.014.028c-.214.367-.22.825-.15 1.245.075.405.208.8.396 1.18z"/>
        <path fill="#000" d="M85 45h-4a4.06 4.06 0 0 1 .058-.634c1.129-.29 2.336-.41 3.538-.351.078.338.213.669.404.985z" opacity=".1"/>
        <path fill="#7CBE35" d="M86.867 49.308c-.903.81-2.166.823-3.458.476C80.762 49.07 78 46.838 78 46.838c.188-.23.39-.445.605-.645 1.09-1.031 3.586-2.854 6.928-1.948.817.207 1.537.738 2.023 1.491.553.893.841 2.2-.69 3.572z"/>
        <path fill="#000" d="M86 47.525s-2.103-1.453-5 .475" opacity=".1"/>
        <path fill="#7CBE35" d="M28 62.352s-6.624-4.968-6.957-.464c-.333 4.504 1.334 8.73 2.763 9.1 1.43.371 4.194-8.636 4.194-8.636z"/>
        <path fill="#000" d="M28 62.352s-6.624-4.968-6.957-.464c-.333 4.504 1.334 8.73 2.763 9.1 1.43.371 4.194-8.636 4.194-8.636z" opacity=".2"/>
        <path fill="#000" d="M24 64s.162 4.664 1.535 3.92c1.373-.745-.644-3.711-1.535-3.92z" opacity=".1"/>
        <path fill="#7CBE35" d="M44.847 98.47a7.51 7.51 0 0 1-.73 1.855c-.084.153-.174.31-.274.469-1.595 2.56-5.282 3.623-5.282 3.058 0-.564-.364-2.024-1.29-1.6-.928.423-2.34.33-2.34.33-2.55-.188-2.12-2.615-1.275-4.672.281-.676.603-1.335.962-1.976.32-.564.557-.934.557-.934l9.747 1.506s.218.742-.075 1.963z"/>
        <path fill="#000" d="M84 49c-2.936-.596-6-2.46-6-2.46.209-.193.433-.373.671-.54.447.196.897.405 1.348.626A26.093 26.093 0 0 1 84 49zM44.855 99c-2.547-.264-6.236-.99-9.855-2.92.307-.653.536-1.08.536-1.08l9.386 1.74s.214.85-.067 2.26z" opacity=".1"/>
        <path fill="#7CBE35" d="M84.369 86.279s-.172 3.062-1.9 6.523a16.54 16.54 0 0 1-5.93 6.661s-1.527 1.243-1.623-2.197c0 0-.67-.716-5.253 2.415 0 0-2.765 1.691-2.005-5.364v-.013c0-.004-.069.045-.195.12h-.008c-.327.201-1.02.612-1.845 1.027-1.511.76-3.47 1.532-4.44 1.044a14.624 14.624 0 0 1-1.624 5.101c-.963 1.753-2.481 3.467-4.859 4.24a3.415 3.415 0 0 1-3.466-.845l-.272-.272s-2.101 1.433-3.151.954c-1.05-.478-1.91-1.814-.479-4.3 0 0 .076-.206.17-.508.233-.767.572-2.15.022-2.357 0 0-22.25 1.146-25.208-18.631-2.96-19.778 16.614-27.038 22.152-26.274 0 0 14.705-18.535 35.044-6.593 20.339 11.943 4.87 39.269 4.87 39.269z"/>
        <path stroke="#000" d="M45 54s24.605-.094 22.917 31" opacity=".1"/>
        <path fill="#000" d="M44 100.38c-.082.15-.172.304-.27.461-1.579 2.523-5.227 3.57-5.227 3.014 0-.557-.36-1.995-1.277-1.577-.918.417-2.315.325-2.315.325-2.524-.185-2.098-2.577-1.261-4.603 2.366 1.142 6.647 2.842 10.35 2.38zM60 101.712c-.964 1.706-2.484 3.375-4.865 4.129a3.488 3.488 0 0 1-3.472-.823l-.272-.266s-2.104 1.396-3.156.93c-1.051-.466-1.913-1.767-.479-4.187 0 0 .076-.2.17-.495 1.874.643 6.84 2.012 12.074.712z" opacity=".2"/>
        <path fill="#000" d="M68 94c8.537-4.45 10-8 10-8" opacity=".1"/>
        <path fill="#000" d="M83 93a16.473 16.473 0 0 1-5.953 6.608s-1.533 1.232-1.63-2.18c0 0-.67-.71-5.271 2.396 0 0-2.777 1.677-2.013-5.321l2.3-1.261C75.39 95.967 80.37 94.305 83 93z" opacity=".2"/>
        <path fill="#7CBE35" d="M47 56.79s4.86-7.751 8.526-5.317C59.194 53.907 54.86 63 54.86 63s-7.194-.15-7.86-6.21z"/>
        <path fill="#000" d="M47 56.79s4.86-7.751 8.526-5.317C59.194 53.907 54.86 63 54.86 63s-7.194-.15-7.86-6.21z" opacity=".2"/>
        <path fill="#000" d="M55 54s-6.647 2.968-4.613 4.703C52.421 60.438 55 54 55 54z" opacity=".1"/>
        <path d="M72 45.349c-1.677.148-3.338.46-4.96.93l-.046.015c-2.298.675-4.909 1.811-6.703 3.706 0 0-4.164-1.862-5.291-1.552 0 0 3.38-4.338 12.47-4.448h.022s2.352.211 4.508 1.349z"/>
        <ellipse cx="38.237" cy="77.364" fill="#000" opacity=".1" rx="8.929" ry="7.4" transform="rotate(-13 38.237 77.364)"/>
        <ellipse cx="38.237" cy="77.078" fill="#7CBE35" rx="8.929" ry="7.4" transform="rotate(-13 38.237 77.078)"/>
        <ellipse cx="38.237" cy="77.078" fill="#000" opacity=".2" rx="8.929" ry="7.4" transform="rotate(-13 38.237 77.078)"/>
        <path fill="#000" d="M35 77s.077 2.628.726 1.859c.65-.77.038-1.862-.726-1.859zM39 75s.076 2.628.726 1.859c.65-.77.038-1.867-.726-1.859zM47 90.528s1.802 1.355 4-.528" opacity=".1"/>
        <path fill="#000" d="M56 48.448c1.084-.31 5.09 1.552 5.09 1.552 1.727-1.895 4.242-3.031 6.45-3.706L68 44c-8.754.11-12 4.448-12 4.448z" opacity=".15"/>
        <path fill="#000" d="M67.456 45L67 47a29.7 29.7 0 0 1 5-.817C69.827 45.181 67.456 45 67.456 45z" opacity=".3"/>
        <path fill="#000" d="M68.221 45l-.464 2 .045-.012.44-1.988z" opacity=".15"/>
        <g fill="#FFF" opacity=".1">
            <path d="M48.235 102.455s.075-.205.168-.505c.232-.762.57-2.137.023-2.344 0 0-.254.013-.713.012-.05.502-.153.997-.309 1.477-.092.3-.168.506-.168.506-1.425 2.47-.57 3.8.476 4.274l.056.02c-.42-.72-.455-1.841.467-3.44zM23.35 81.086c-2.946-19.66 17.154-27.65 22.662-26.885l-1.624-.083c-5.508-.76-24.981 6.458-22.036 26.118.926 6.182 3.75 10.306 7.185 13.057-2.978-2.735-5.353-6.636-6.188-12.207zM68.466 95.44v-.012c0-.005-.069.044-.194.12h-.009c-.192.116-.513.308-.912.53-.142 3.242.697 3.944 1.357 4.005-.335-.756-.51-2.145-.242-4.643zM75.687 98.372s-.171-.18-.927.043c.197 1.413.741 1.567 1.129 1.483a5.983 5.983 0 0 1-.202-1.526z"/>
        </g>
        <path fill="#000" d="M48 99s12.728-.761 14-2" opacity=".1"/>
        <circle cx="77.5" cy="95.5" r="5.5" fill="#FBD56F"/>
        <circle cx="77.5" cy="95.5" r="5.5" fill="#000" opacity=".1"/>
        <circle cx="78.5" cy="95.5" r="5.5" fill="#FBD56F"/>
        <path fill="#FBD56F" d="M80.742 100.424l-.551-.3s-.259 1.056-.174 1.81a.378.378 0 0 0 .282.324c1.27.309 7.314 1.627 11.471-.23a.372.372 0 0 0 .22-.301c.053-.463-.128-1.418-.2-1.603-.15-.4-11.048.3-11.048.3z"/>
        <path fill="#000" d="M80.742 100.424l-.551-.3s-.259 1.056-.174 1.81a.378.378 0 0 0 .282.324c1.27.309 7.314 1.627 11.471-.23a.372.372 0 0 0 .22-.301c.053-.463-.128-1.418-.2-1.603-.15-.4-11.048.3-11.048.3z" opacity=".1"/>
        <ellipse cx="86" cy="100.5" fill="#FBD56F" rx="6" ry="1.5"/>
        <path fill="#FBD56F" d="M82.741 98.424l-.55-.3s-.259 1.056-.174 1.81a.375.375 0 0 0 .282.322c1.27.31 7.314 1.629 11.472-.228a.375.375 0 0 0 .22-.301c.05-.463-.13-1.418-.202-1.603-.156-.4-11.048.3-11.048.3z"/>
        <path fill="#000" d="M82.741 98.424l-.55-.3s-.259 1.056-.174 1.81a.375.375 0 0 0 .282.322c1.27.31 7.314 1.629 11.472-.228a.375.375 0 0 0 .22-.301c.05-.463-.13-1.418-.202-1.603-.156-.4-11.048.3-11.048.3z" opacity=".1"/>
        <ellipse cx="88" cy="98.5" fill="#FBD56F" rx="6" ry="1.5"/>
        <path fill="#FBD56F" d="M84.742 95.424l-.551-.3s-.259 1.056-.174 1.81a.378.378 0 0 0 .282.324c1.27.309 7.315 1.627 11.47-.23a.376.376 0 0 0 .222-.301c.05-.463-.13-1.418-.202-1.603-.15-.4-11.047.3-11.047.3z"/>
        <path fill="#000" d="M84.742 95.424l-.551-.3s-.259 1.056-.174 1.81a.378.378 0 0 0 .282.324c1.27.309 7.315 1.627 11.47-.23a.376.376 0 0 0 .222-.301c.05-.463-.13-1.418-.202-1.603-.15-.4-11.047.3-11.047.3z" opacity=".1"/>
        <ellipse cx="90" cy="95.5" fill="#FBD56F" rx="6" ry="1.5"/>
        <path fill="#FBD56F" d="M82.742 93.426l-.552-.302s-.257 1.057-.173 1.81a.379.379 0 0 0 .282.324c1.27.309 7.314 1.626 11.47-.229a.375.375 0 0 0 .222-.3c.05-.463-.13-1.418-.202-1.605-.15-.402-11.047.302-11.047.302z"/>
        <path fill="#000" d="M82.742 93.426l-.552-.302s-.257 1.057-.173 1.81a.379.379 0 0 0 .282.324c1.27.309 7.314 1.626 11.47-.229a.375.375 0 0 0 .222-.3c.05-.463-.13-1.418-.202-1.605-.15-.402-11.047.302-11.047.302z" opacity=".1"/>
        <ellipse cx="88" cy="92.5" fill="#FBD56F" rx="6" ry="1.5"/>
        <path fill="#FBD56F" d="M87.741 91.426l-.55-.302s-.259 1.057-.174 1.81a.376.376 0 0 0 .282.324c1.27.309 7.314 1.626 11.47-.229a.377.377 0 0 0 .222-.3c.05-.463-.13-1.419-.202-1.605-.15-.403-11.048.302-11.048.302z"/>
        <path fill="#000" d="M87.741 91.426l-.55-.302s-.259 1.057-.174 1.81a.376.376 0 0 0 .282.324c1.27.309 7.314 1.626 11.47-.229a.377.377 0 0 0 .222-.3c.05-.463-.13-1.419-.202-1.605-.15-.403-11.048.302-11.048.302z" opacity=".1"/>
        <ellipse cx="93" cy="90.5" fill="#FBD56F" rx="6" ry="1.5"/>
        <path fill="#FBD56F" d="M84.742 89.425l-.552-.302s-.257 1.058-.173 1.81a.379.379 0 0 0 .282.324c1.27.31 7.314 1.627 11.47-.228a.375.375 0 0 0 .222-.3c.05-.464-.13-1.42-.202-1.606-.15-.4-11.047.302-11.047.302z"/>
        <path fill="#000" d="M84.742 89.425l-.552-.302s-.257 1.058-.173 1.81a.379.379 0 0 0 .282.324c1.27.31 7.314 1.627 11.47-.228a.375.375 0 0 0 .222-.3c.05-.464-.13-1.42-.202-1.606-.15-.4-11.047.302-11.047.302z" opacity=".1"/>
        <ellipse cx="90" cy="89.5" fill="#FBD56F" rx="6" ry="1.5"/>
        <path fill="#FBD56F" d="M86.741 86.425l-.55-.302s-.259 1.058-.174 1.81a.376.376 0 0 0 .282.324c1.27.31 7.314 1.627 11.472-.228a.373.373 0 0 0 .22-.3c.05-.464-.13-1.419-.202-1.606-.15-.4-11.048.302-11.048.302z"/>
        <path fill="#000" d="M86.741 86.425l-.55-.302s-.259 1.058-.174 1.81a.376.376 0 0 0 .282.324c1.27.31 7.314 1.627 11.472-.228a.373.373 0 0 0 .22-.3c.05-.464-.13-1.419-.202-1.606-.15-.4-11.048.302-11.048.302z" opacity=".1"/>
        <ellipse cx="92" cy="86.5" fill="#FBD56F" rx="6" ry="1.5"/>
        <path fill="#FBD56F" d="M87.742 83.425l-.552-.302s-.257 1.058-.173 1.81a.379.379 0 0 0 .282.324c1.27.31 7.314 1.627 11.47-.228a.375.375 0 0 0 .222-.3c.05-.464-.13-1.419-.202-1.606-.15-.4-11.047.302-11.047.302z"/>
        <path fill="#000" d="M87.742 83.425l-.552-.302s-.257 1.058-.173 1.81a.379.379 0 0 0 .282.324c1.27.31 7.314 1.627 11.47-.228a.375.375 0 0 0 .222-.3c.05-.464-.13-1.419-.202-1.606-.15-.4-11.047.302-11.047.302z" opacity=".1"/>
        <ellipse cx="93" cy="83.5" fill="#FBD56F" rx="6" ry="1.5"/>
        <path fill="#FBD56F" d="M97.742 101.425l-.551-.302s-.259 1.058-.174 1.81a.378.378 0 0 0 .282.324c1.27.31 7.314 1.627 11.471-.228a.376.376 0 0 0 .22-.302c.053-.463-.128-1.418-.2-1.604-.15-.4-11.048.302-11.048.302z"/>
        <path fill="#000" d="M97.742 101.425l-.551-.302s-.259 1.058-.174 1.81a.378.378 0 0 0 .282.324c1.27.31 7.314 1.627 11.471-.228a.376.376 0 0 0 .22-.302c.053-.463-.128-1.418-.2-1.604-.15-.4-11.048.302-11.048.302z" opacity=".1"/>
        <ellipse cx="103" cy="100.5" fill="#FBD56F" rx="6" ry="1.5"/>
        <path fill="#FBD56F" d="M99.742 98.425l-.552-.302s-.257 1.058-.173 1.81a.379.379 0 0 0 .282.324c1.27.31 7.314 1.627 11.47-.228a.375.375 0 0 0 .222-.3c.05-.464-.13-1.42-.202-1.606-.15-.4-11.047.302-11.047.302z"/>
        <path fill="#000" d="M99.742 98.425l-.552-.302s-.257 1.058-.173 1.81a.379.379 0 0 0 .282.324c1.27.31 7.314 1.627 11.47-.228a.375.375 0 0 0 .222-.3c.05-.464-.13-1.42-.202-1.606-.15-.4-11.047.302-11.047.302z" opacity=".1"/>
        <ellipse cx="105" cy="98.5" fill="#FBD56F" rx="6" ry="1.5"/>
        <path fill="#FBD56F" d="M97.741 95.421l-.55-.3s-.259 1.057-.174 1.811a.375.375 0 0 0 .282.324c1.27.31 7.314 1.63 11.472-.23a.372.372 0 0 0 .22-.3c.05-.464-.13-1.42-.202-1.606-.15-.392-11.048.301-11.048.301z"/>
        <path fill="#000" d="M97.741 95.421l-.55-.3s-.259 1.057-.174 1.811a.375.375 0 0 0 .282.324c1.27.31 7.314 1.63 11.472-.23a.372.372 0 0 0 .22-.3c.05-.464-.13-1.42-.202-1.606-.15-.392-11.048.301-11.048.301z" opacity=".1"/>
        <ellipse cx="103" cy="95.5" fill="#FBD56F" rx="6" ry="1.5"/>
        <path fill="#FBD56F" d="M102.742 93.425l-.551-.301s-.259 1.059-.174 1.806a.377.377 0 0 0 .282.325c1.27.311 7.314 1.631 11.472-.23a.373.373 0 0 0 .22-.3c.05-.465-.128-1.422-.2-1.608-.151-.386-11.049.308-11.049.308z"/>
        <path fill="#000" d="M102.742 93.425l-.551-.301s-.259 1.059-.174 1.806a.377.377 0 0 0 .282.325c1.27.311 7.314 1.631 11.472-.23a.373.373 0 0 0 .22-.3c.05-.465-.128-1.422-.2-1.608-.151-.386-11.049.308-11.049.308z" opacity=".1"/>
        <ellipse cx="108" cy="93.5" fill="#FBD56F" rx="6" ry="1.5"/>
        <path fill="#FBD56F" d="M98.741 92.424l-.55-.3s-.259 1.056-.174 1.81a.376.376 0 0 0 .282.323c1.27.31 7.314 1.627 11.472-.229a.372.372 0 0 0 .22-.3c.05-.464-.13-1.419-.202-1.604-.15-.401-11.048.3-11.048.3z"/>
        <path fill="#000" d="M98.741 92.424l-.55-.3s-.259 1.056-.174 1.81a.376.376 0 0 0 .282.323c1.27.31 7.314 1.627 11.472-.229a.372.372 0 0 0 .22-.3c.05-.464-.13-1.419-.202-1.604-.15-.401-11.048.3-11.048.3z" opacity=".1"/>
        <ellipse cx="104" cy="91.5" fill="#FBD56F" rx="6" ry="1.5"/>
        <path fill="#FBD56F" d="M101.742 89.424l-.551-.3s-.259 1.056-.174 1.81a.378.378 0 0 0 .282.324c1.27.309 7.314 1.627 11.47-.23a.376.376 0 0 0 .222-.301c.05-.463-.13-1.418-.202-1.603-.15-.4-11.047.3-11.047.3z"/>
        <path fill="#000" d="M101.742 89.424l-.551-.3s-.259 1.056-.174 1.81a.378.378 0 0 0 .282.324c1.27.309 7.314 1.627 11.47-.23a.376.376 0 0 0 .222-.301c.05-.463-.13-1.418-.202-1.603-.15-.4-11.047.3-11.047.3z" opacity=".1"/>
        <ellipse cx="107" cy="89.5" fill="#FBD56F" rx="6" ry="1.5"/>
        <path fill="#FBD56F" d="M102.741 86.424l-.55-.3s-.259 1.056-.174 1.81a.378.378 0 0 0 .282.324c1.27.309 7.314 1.627 11.472-.23a.372.372 0 0 0 .22-.301c.05-.463-.13-1.418-.202-1.603-.15-.4-11.048.3-11.048.3z"/>
        <path fill="#000" d="M102.741 86.424l-.55-.3s-.259 1.056-.174 1.81a.378.378 0 0 0 .282.324c1.27.309 7.314 1.627 11.472-.23a.372.372 0 0 0 .22-.301c.05-.463-.13-1.418-.202-1.603-.15-.4-11.048.3-11.048.3z" opacity=".1"/>
        <ellipse cx="108" cy="85.5" fill="#FBD56F" rx="6" ry="1.5"/>
        <path fill="#FBD56F" d="M58.905 44.854c0-3.09 2.348-5.598 5.247-5.598.284 0 .568.024.848.073A4.844 4.844 0 0 0 63.245 39C60.348 39 58 41.562 58 44.723c0 2.374 1.326 4.41 3.213 5.277.09-.082.204-.18.338-.287-1.654-1.027-2.659-2.873-2.646-4.86z"/>
        <path fill="#000" d="M58.905 44.854c0-3.09 2.348-5.598 5.247-5.598.284 0 .568.024.848.073A4.844 4.844 0 0 0 63.245 39C60.348 39 58 41.562 58 44.723c0 2.374 1.326 4.41 3.213 5.277.09-.082.204-.18.338-.287-1.654-1.027-2.659-2.873-2.646-4.86z" opacity=".1"/>
        <path fill="#FBD56F" d="M67.97 45.222c0 .603-.107 1.203-.317 1.778.362-.076.74-.139 1.13-.211.144-.473.217-.96.217-1.45 0-2.69-2.165-4.92-5-5.339 2.314.766 3.97 2.813 3.97 5.222z"/>
        <path fill="#FBD56F" d="M58 45.35c-.014 1.9 1.035 3.668 2.76 4.65 1.03-.772 3.302-2.19 6.949-3.011a5.475 5.475 0 0 0-3.35-6.919 5.685 5.685 0 0 0-.885-.07C60.449 40.004 58 42.4 58 45.35z"/>
        <path fill="url(#a)" fill-rule="nonzero" d="M138.102 108.943c-.824-.029-.854-.346-1.913-.893-.6-.308-1.507-1.205-2.185-1.927l-.158-.17h.288s-.265-2.303-.029-2.856c.237-.553.06-3.802.06-3.802s.143-2.478-.119-3.054c-.262-.575.088-4.261.088-4.261s.236-2.19.288-6.655c.052-4.464-2.593-4.607-2.593-4.607s-.353-.027-.89-.079l-.16-.015c.346-.715.55-1.26.55-1.26s-.443-4.176-.561-4.896c-.118-.72-.823-3.692-.823-3.692s-.5-1.267-.795-2.16c-.296-.892-1.177-1.93-1.177-1.93s-1.585-3.11-2.032-3.57a20.075 20.075 0 0 0-.742-.714l-.13-.117c.068-.324.103-.654.107-.986 0 0-1.65-1.613-1.768-2.016-.119-.403-1.678-1.901-1.678-1.901s-.884-1.613-1.884-1.641a8.235 8.235 0 0 0-1.42.041c.206-.754.45-1.544.667-2.222.025-.076.05-.143.072-.222a5.018 5.018 0 0 0 1.868-2.312h.032a.888.888 0 0 0 .124-.011c.33-.056.61-.429.456-.714a.11.11 0 0 0 .097.052c.11 0 .243-.161.27-.3 0-.024.007-.048.01-.072.002-.025.01-.06.014-.09s0-.057 0-.086v-.087-.083-.096-.075c0-.026 0-.078-.009-.116V49.3a2.551 2.551 0 0 0-.095-.464c-.161-.536-.503-1.067-.372-1.61v-.017c.11-.429.479-.729.704-1.106.021-.035.04-.072.059-.11 0-.007.007-.014.01-.02.014-.028.026-.057.037-.085l.023-.056c.01-.024.017-.05.026-.076.009-.025.016-.045.022-.07l.017-.068.019-.083c.006-.029 0-.04.01-.06.01-.02.009-.063.011-.094.003-.032 0-.035 0-.052v-.148-.117-.035c0-.041 0-.082-.011-.124v-.017a2.06 2.06 0 0 0-.422-.993 2.591 2.591 0 0 0-2.12-.91c-.221.026-.444.03-.666.013-.37-.054-.683-.285-.977-.51l-2.467-1.885a3.072 3.072 0 0 0-.932-.548c-.349-.106-.766-.07-1.024.183-.463.45-.169 1.228-.353 1.84-.162.532-.68.892-1.214 1.07-.534.179-1.108.219-1.658.349a.91.91 0 0 0-.443.201.852.852 0 0 0-.193.613 3.27 3.27 0 0 0 .384 1.558c.103.194.229.393.34.593l.027.05.036.068.055.113.021.049.034.081c0 .017.013.035.018.05l.03.096c.059.185.064.383.016.571-.085.31-.328.549-.544.79-.175.19-.3.42-.363.668a.498.498 0 0 0 0 .178v.021a.392.392 0 0 0 .037.096c.011.015.024.03.038.043l.021.015a.237.237 0 0 0 .038.023l.024.011.06.016h.018a.677.677 0 0 0 .095 0h.029a.727.727 0 0 0 .09-.011h.032c.049-.01.097-.021.144-.036a3.06 3.06 0 0 0 .482-.188v.144a4.81 4.81 0 0 0 .318 1.652 5 5 0 0 0 1.535 2.104l-.028.15c-.144.69-.44 1.383-.622 1.33a2.48 2.48 0 0 0-.546-.06h-.16a2.24 2.24 0 0 0-.502 0 .532.532 0 0 1-.219-.03 3.005 3.005 0 0 0-1.47-.082c-1.018.207-2.567.586-2.992 1.039-.649.69-1.585 1.354-2.65 4.233 0 0-.53 1.757-.943 1.988.091-.047.185-.089.28-.126a.748.748 0 0 1-.22.24c.149-.075.303-.14.462-.191-.321 1.877.156 7.244.156 7.244s-.384.926.116 1.474c.299.324.46.831.544 1.191l-.074.112c-.265.407-.62.938-.851 1.23-.413.52-.296 2.162-.296 2.162s-.088.777-.382 1.065c-.294.289-.236 1.354-.236 1.354l-.754 2.812s-.707.633-.707.921c0 .289-.56 1.094-.56 1.094s-.854 1.383 0 1.182a2.68 2.68 0 0 0 .865-.429v.176c-.024 1.505.144 3.625 1.263 3.625 1.729 0 6.213 2.044 6.213 2.044.912.69 2.148.46 2.148.46s-2.188 2.156-2.125 3.05c.063.894-1.236 2.361-1.236 2.361l-4.006 7.748c.022.54.12 1.075.288 1.588l-.058.049c-1.539 1.394-1.673 4.152-1.673 4.152l-.353 1.411 5.36 2.334s6.95.143 8.157-.173c1.207-.316.942-1.643-.649-1.901-1.59-.259-1.973-.951-2.503-1.267-.357-.214-1.627-1.595-2.415-2.47-.011-.015-.023-.026-.034-.04l.183-1c.353-.172.883-1.9.883-1.9s0-.691.353-.893c.353-.201 1.09-2.275 1.09-2.275s1.584-2.62 1.502-2.966c-.082-.346 1.153-2.103 1.153-2.103s2.09-2.016 2.001-2.376c-.089-.36 1.68-2.204 1.68-2.204a5.847 5.847 0 0 0 1.563-1.784l.51-.083c2.312-.375 6.154-1.054 6.583-1.244.59-.258.472.894.237 1.873-.235.978-.412 5.674-.144 6.284.268.61.144 1.585.144 1.585l-.353 5.27.235 1.124s-.796.633-.472 1.007c.325.375.03 1.988.03 1.988.028-.01.061-.02.097-.03a3.472 3.472 0 0 0-.08.196c-.456 1.286-.194 3.405-.194 3.405v1.671s8.158.143 9.953.143 4.271-.864 4.418-1.555c.147-.692-2.066-1.277-2.89-1.307zM114.903 78.96l-.533.044c.176-.026.354-.04.532-.044h.001zm3.258-22.108c.075-.334.166-.691.267-1.06l-.267 1.06zm1.009 22.915a2.18 2.18 0 0 1-1.585 0s.029-2.016.265-2.857c.236-.841.559-2.362.559-2.362s.265-2.103.53-3.054c.265-.951 1.297-6.25 1.826-6.595.529-.346.824.26.824.26s.08 0 .212-.016c.026.054.053.114.085.176.628 1.258 2.471 3.843 2.471 3.843.547.334 1.01.788 1.355 1.325.501.834.648 2.794.648 2.794s1.12 4.349 1.649 4.953c.265.303.144.483-.036.587a2.6 2.6 0 0 0-.93.857c-.075.119-.155.249-.236.389a7.59 7.59 0 0 1-.535-.143c-1.454-.484-6.31-.503-7.104-.15l.002-.007z"/>
        <path fill="#434175" d="M126.073 110.1v1.75s7.9.15 9.64.15c1.741 0 4.138-.905 4.28-1.63.143-.723-1.997-1.327-2.796-1.357-.798-.03-.827-.362-1.854-.935-.58-.323-1.46-1.263-2.115-2.018-.507-.584-.88-1.056-.88-1.056s-4.25-.09-5.477.633c-.285.166-.478.493-.61.905-.442 1.343-.188 3.557-.188 3.557z"/>
        <path fill="#000" d="M126 106c.896-.213 6.137-.295 7-.309-.509-.38-.884-.689-.884-.689s-4.27-.059-5.503.414c-.283.104-.48.317-.613.584z" opacity=".1"/>
        <path fill="#565387" d="M104 80.118l.456.281.171.103.664.4c3.552 2.132 13.235 7.912 13.766 7.866.142-.012.557-.075 1.13-.168l.49-.08c2.219-.367 5.904-1.03 6.317-1.216.565-.254.452.872.226 1.83-.226.957-.396 5.547-.142 6.138.255.591.142 1.549.142 1.549l-.34 5.153.227 1.098s-.763.62-.452.985c.31.366.028 1.943.028 1.943.904-.338 7.034-.45 7.034-.45s-.255-2.253-.029-2.788c.226-.535.057-3.717.057-3.717s.141-2.421-.113-2.985c-.254-.563.085-4.165.085-4.165s.226-2.14.282-6.503c.057-4.363-2.486-4.505-2.486-4.505s-.34-.027-.848-.076c-1.007-.096-2.684-.282-3.805-.524a6.159 6.159 0 0 1-.68-.179c-1.384-.47-6.046-.489-6.808-.15a2.058 2.058 0 0 1-1.522 0l-.594-.958-5.666.481-.6.051-5.579.475-.384.032-1.027.079z"/>
        <path fill="#000" d="M126.879 83.87c1.715.745 3.351-1.894 4.121-3.383-1.05-.089-2.796-.262-3.965-.487-.776 1.148-1.8 3.156-.156 3.87z" opacity=".1"/>
        <path fill="#EE8E9E" d="M122 64.78c.034.196.1.384.194.557.585 1.239 2.303 3.785 2.303 3.785.511.331.943.777 1.262 1.306.467.823.604 2.752.604 2.752s1.043 4.284 1.536 4.88c.247.297.138.475-.034.578-.35.202-.648.49-.866.837-.72 1.198-1.868 3.57-.252 4.385 2.195 1.106 4.253-4.694 4.253-4.694s-.412-4.114-.521-4.824c-.11-.71-.767-3.632-.767-3.632s-.467-1.248-.741-2.128c-.274-.88-1.098-1.901-1.098-1.901s-1.481-3.064-1.893-3.518c-.19-.211-.458-.476-.686-.7l-.488-.463s-2.833 2.101-2.806 2.78z"/>
        <path fill="#434175" d="M102 109.56l5.259 2.406s6.817.149 8.002-.178c1.185-.327.925-1.693-.636-1.96-1.56-.268-1.935-.98-2.456-1.308-.35-.22-1.596-1.644-2.369-2.547l-.636-.742s-1.01-2.763-3.812-2.14a2.845 2.845 0 0 0-1.364.743c-1.51 1.437-1.641 4.281-1.641 4.281L102 109.56z"/>
        <path fill="#000" d="M104 80.64l.672.405c3.595 2.155 13.396 8.002 13.934 7.955.143-.012.563-.076 1.144-.17l.496-.08.019-.034c.289-.5.509-1.037.654-1.596.602-2.277-2.365-4.02-2.365-4.02l-.629-.486c-.715-1.2-5.862-2.333-5.862-2.333l-.664-.444-.353-.236-.094-.063-.805-.538-4.03.285-1.199.766-.126.081-.445.285-.347.223zM104 103.897c1.14 4.283 5.91 2.885 5.91 2.885l.09-.544-.656-.809s-1.044-3.009-3.936-2.33a2.892 2.892 0 0 0-1.408.798z" opacity=".1"/>
        <path fill="#565387" d="M103.225 87.035c1.689 0 6.038 2.058 6.038 2.058.888.696 2.09.464 2.09.464s-2.118 2.174-2.06 3.073c.056.899-1.202 2.377-1.202 2.377l-3.893 7.797c.287 5.536 5.896 4 5.896 4l.229-1.304c.343-.174.858-1.913.858-1.913s0-.696.344-.899c.343-.203 1.059-2.29 1.059-2.29s1.546-2.638 1.46-2.986c-.086-.348 1.116-2.115 1.116-2.115s2.033-2.03 1.947-2.392c-.086-.362 1.631-2.218 1.631-2.218a5.844 5.844 0 0 0 1.519-1.795c.292-.511.515-1.059.663-1.63.485-1.867-1.352-3.377-2.086-3.893-.177-.126-.286-.193-.286-.193l-.63-.496c-.325-.555-1.574-1.097-2.828-1.522a33.551 33.551 0 0 0-2.409-.7c-.398-.093-.635-.153-.635-.153l-.664-.453-.234-.158-.213-.145-.813-.549-1.795.129-2.24.16-1.197.787-.573.374-2.237 1.449s-.059.558-.077 1.305v.176c-.027 1.522.133 3.655 1.222 3.655z"/>
        <path fill="#EE8E9E" d="M111 54.843l.594 2.196s1.047 3.776 1.16 4.04c.113.263 2.858 2.927 2.971 2.986.113.058 1.607.935 1.607.935s.119-4.83 0-6.234c-.01-.309.015-.618.074-.92.18-1.102.636-2.716 1.015-3.96.317-1.041.579-1.823.579-1.823s-6.62-.292-6.393.38c.085.256.058.68-.025 1.108-.142.7-.425 1.406-.597 1.35a2.328 2.328 0 0 0-.525-.06c-.238-.007-.46.002-.46.002z"/>
        <path fill="#000" d="M113 53.706c1.553 1.578 3.772 1.728 5.46.368.295-1.145.54-2.004.54-2.004s-6.188-.322-5.976.418c.08.28.054.747-.024 1.218z" opacity=".1"/>
        <path fill="#EE8E9E" d="M120.996 50.042a4.902 4.902 0 0 1-.394 1.928 5.002 5.002 0 0 1-4.71 3.029 4.998 4.998 0 0 1-4.58-3.22 4.852 4.852 0 0 1-.311-1.644v-.092a4.95 4.95 0 0 1 2.475-4.364 5.036 5.036 0 0 1 5.048 0A4.95 4.95 0 0 1 121 50.043l-.003-.001z"/>
        <path fill="#000" d="M112 55.004l.557 2.16s.98 3.717 1.086 3.977c.106.259 2.677 2.88 2.783 2.938.106.058 1.505.921 1.505.921s.111-4.754 0-6.135a4.27 4.27 0 0 1 .069-.907l-.36 1.598.026 3.198.212.173-.477.778v-.576s-1.696-1.787-1.961-2.536c-.265-.749-1.22-2.106-1.22-2.106s-1.086-1.985-1.112-2.33c-.02-.27-.477-.894-.677-1.153-.223-.009-.431 0-.431 0zM122 64.5c.031.175.09.344.177.5.548-.057 2.412-.412 2.823-2.584l-.446-.416s-2.579 1.889-2.554 2.5zM102 83c.577-.378 1.136-.892 1.466-1.035.49-.211 1.24-.898 1.24-.898s.19-.12.48-.275c.535-.288 1.413-.704 2.085-.756.6-.046 2.594-.164 4.18-.254l2.052-.116s1.874-.608 2.68-.211c.579.265 1.188.469 1.817.607v-.157l-.605-.898-6.394.5-.82-.507-4.063.264-1.207.717-1.04.081.465.265-2.252 1.321s-.071.59-.084 1.352z" opacity=".1"/>
        <path fill="#434175" d="M101.366 83.979c.298-.091.577-.237.823-.431.561-.41 1.102-.968 1.423-1.122.477-.23 1.207-.977 1.207-.977s1.488-1.034 2.498-1.12a229.8 229.8 0 0 1 3.835-.254l1.19-.077 1.038-.066s1.824-.66 2.61-.23c.563.29 1.157.51 1.769.661 0 0 .028-2.01.252-2.844.225-.833.534-2.354.534-2.354s.253-2.097.505-3.045c.253-.949 1.234-6.235 1.74-6.58.505-.344.785.26.785.26s3.369-.058 3.425-3.85c0 0-1.572-1.608-1.684-2.01-.113-.402-1.6-1.896-1.6-1.896s-.843-1.609-1.797-1.638a7.462 7.462 0 0 0-1.352.043l-.808 3.376.028 3.189.224.172-.505.776v-.575s-1.796-1.78-2.077-2.528c-.28-.747-1.291-2.1-1.291-2.1s-1.151-1.98-1.18-2.324c-.028-.345-.814-1.268-.814-1.268a2.02 2.02 0 0 0-.477 0 .485.485 0 0 1-.209-.03 2.735 2.735 0 0 0-1.403-.081c-.97.205-2.447.583-2.851 1.034-.618.69-1.516 1.35-2.527 4.223l5.445 2.011-.475.908-4.332 8.43s-.14.24-.339.552c-.252.407-.59.937-.812 1.229-.393.517-.281 2.154-.281 2.154s-.084.776-.365 1.063c-.28.287-.225 1.35-.225 1.35l-.73 2.787s-.673.632-.673.92c0 .287-.534 1.091-.534 1.091s-.808 1.378.01 1.17z"/>
        <path fill="#000" d="M130 85s-1.535.727-1.951 1.769C127.633 87.809 130 85 130 85zM129 84c-.05.082-2.125 2.385-1.994 2.94.13.556 1.994-2.94 1.994-2.94zM116 85s-2.747 1.327-2.987 1.911C112.773 87.496 116 85 116 85zM116 87s-2.622.782-2.974.978C112.674 88.174 116 87 116 87zM115 89.28s-1.216 1.397-1.888.3c-.671-1.098 1.888-.3 1.888-.3zM119 68c-.061.085-3.877 6.493-4.884 6.977C113.109 75.462 119 68 119 68zM118 71c0 .149-3.396 7.91-3.952 8-.557.088 3.952-8 3.952-8zM105 76s-1.38 3.777-1.922 3.992C102.536 80.207 105 76 105 76zM105 74s-.583 1-.938 1 .938-1 .938-1zM120.996 50.064a4.941 4.941 0 0 1-.394 1.936 1.473 1.473 0 0 1-.698-.307 1.73 1.73 0 0 1-.525-.558 6.983 6.983 0 0 1-.255-.727 1.697 1.697 0 0 0-1.372-1.035c.166.288-.098.67-.423.72-.325.05-.642-.144-.867-.384-.226-.24-.386-.533-.609-.773-.222-.24-.54-.432-.867-.384-.289.043-.51.262-.751.424-.242.163-.578.272-.81.098-.13-.096-.193-.26-.317-.365-.32-.267-.817.008-1.052.352-.363.533-.578.855-1.055 1.095v-.092a4.975 4.975 0 0 1 2.475-4.383 5.018 5.018 0 0 1 5.048 0A4.975 4.975 0 0 1 121 50.064h-.003z" opacity=".1"/>
        <path fill="#434175" d="M112.149 48.063c.23-.345.716-.62 1.029-.352.121.104.183.267.31.365.227.174.558.065.792-.098.235-.162.454-.38.735-.423.318-.05.628.143.848.383.221.24.376.532.596.772.219.24.528.43.848.382.32-.049.576-.431.414-.718a1.662 1.662 0 0 1 1.34 1.033c.07.246.154.488.25.725.129.222.304.413.515.556.258.194.574.357.89.3.317-.055.585-.43.438-.718.1.157.318-.061.351-.245.072-.404.05-.82-.065-1.213-.156-.535-.483-1.063-.358-1.607.1-.43.461-.737.68-1.118.389-.675.283-1.58-.186-2.2a2.443 2.443 0 0 0-2.036-.908 3.396 3.396 0 0 1-.639.012c-.355-.053-.656-.288-.938-.51l-2.37-1.877a2.898 2.898 0 0 0-.896-.549c-.333-.105-.735-.069-.99.183-.443.45-.162 1.227-.34 1.838-.154.528-.65.888-1.163 1.066-.513.178-1.063.218-1.592.347a.865.865 0 0 0-.424.202.872.872 0 0 0-.185.612c-.004.54.122 1.073.367 1.553.275.536.707 1.086.556 1.671-.082.31-.317.546-.523.788-.447.523-.598 1.293.244 1.026.816-.259 1.044-.594 1.502-1.278z"/>
        <g fill="#000" opacity=".1">
            <path d="M121.424 49.437c-.034.183-.247.4-.348.244.14.286-.12.656-.432.715-.313.058-.623-.107-.88-.299a1.699 1.699 0 0 1-.506-.554c-.117-.224-.155-.484-.247-.722a1.648 1.648 0 0 0-1.324-1.027c.162.286-.095.666-.409.715-.314.048-.62-.143-.837-.382-.218-.238-.373-.527-.588-.767-.214-.24-.521-.429-.837-.381-.279.044-.492.26-.725.421-.233.161-.558.271-.782.099-.125-.098-.185-.26-.305-.363-.31-.266-.79.007-1.017.348-.451.68-.676 1.016-1.477 1.275-.262.084-.427.065-.516-.016-.174.413-.095.776.516.578.801-.258 1.026-.592 1.477-1.272.227-.343.707-.616 1.017-.35.12.102.18.265.305.362.225.173.55.065.782-.097.231-.161.448-.378.725-.421.314-.05.62.143.837.381.218.239.372.529.588.767.216.239.522.429.837.38.315-.048.57-.428.409-.714.59.07 1.098.464 1.324 1.027.07.245.152.486.247.722.127.22.3.41.507.553.256.192.566.354.879.298.312-.056.577-.428.432-.714.1.156.314-.062.348-.244.043-.247.051-.499.025-.748a1.589 1.589 0 0 1-.025.186zM110.977 46.974c0-.008 0-.014.007-.023.152-.58-.28-1.127-.549-1.66a3.368 3.368 0 0 1-.346-1.207c-.01.075-.016.15-.016.226a3.383 3.383 0 0 0 .362 1.544c.19.365.448.736.542 1.12zM121.676 45.523c-.216.378-.572.684-.67 1.111-.04.18-.04.367 0 .547.102-.418.451-.721.665-1.095.203-.366.278-.79.215-1.206a1.757 1.757 0 0 1-.21.643z"/>
        </g>
        <path fill="#000" d="M104 72.129c.038.161.067.324.087.489 0 0 2.265 5.4 2.552 5.72.088.1.42.584.839 1.21l.48.721c.86 1.314 1.834 2.798 1.834 2.798l2.127 1.892s4.614.375 6.081-1.149c-.178-.127-.287-.194-.287-.194l-.63-.499c-.326-.559-1.577-1.105-2.833-1.533-1.161.01-2.112.106-2.112.106l-.3-.81-.316-.846-1.61-4.294s-1.035-5.429-1.38-5.693c-.343-.264-.256-1.08-.256-1.08s.63-2.306.4-2.627c-.23-.321.373-2.685.373-2.685a2.411 2.411 0 0 0-.275-.655l-4.426 8.565s-.15.246-.348.564z" opacity=".1"/>
        <path fill="#EE8E9E" d="M109.818 63.392s-.59 2.28-.366 2.59c.225.31-.393 2.537-.393 2.537s-.083.789.253 1.042c.336.254 1.351 5.495 1.351 5.495l2.176 5.748s6.811-.676 6.11 1.466c-.7 2.141-6.322 1.69-6.322 1.69l-2.079-1.831s-2.81-4.255-3.09-4.565c-.282-.31-2.501-5.522-2.501-5.522s-.113-1.042-.59-1.578c-.478-.535-.113-1.441-.113-1.441s-.59-6.814.028-7.63c.618-.818 4.89-.453 5.536 1.999z"/>
        <path fill="#000" d="M105.65 59.39l-1.758 1.077s-.502 1.729-.892 1.956c0 0 3.514-1.984 6.161 2.577 0 0-.083-.594.279-.877.363-.283.279-1.502.279-1.502a4.95 4.95 0 0 0 .25-.595c.252-.624-1.053-4.194-4.32-2.636z" opacity=".1"/>
        <path fill="#434175" d="M105.649 59.39l-1.757 1.077s-.502 1.729-.892 1.956c0 0 3.513-1.984 6.16 2.577 0 0-.083-.594.28-.877.362-.283.278-1.502.278-1.502a4.95 4.95 0 0 0 .25-.595c.257-.624-1.059-4.194-4.32-2.636z"/>
        <circle cx="89.5" cy="103.5" r="5.5" fill="#FBD56F"/>
        <circle cx="89.5" cy="103.5" r="5.5" fill="#000" opacity=".1"/>
        <circle cx="90.5" cy="103.5" r="5.5" fill="#FBD56F"/>
        <ellipse cx="12.5" cy="105" fill="#7CBE35" rx="6.5" ry="1"/>
        <path fill="#7CBE35" d="M15.324 102.985c.295-.258.568-.558.654-.933.086-.374-.083-.812-.456-.947-.42-.153-.868.122-1.208.4-.34.278-.728.594-1.172.535.465-.398.675-.999.552-1.58a.639.639 0 0 0-.147-.322c-.232-.234-.654-.14-.933.052-.886.59-1.133 1.727-1.137 2.75-.09-.37-.015-.754-.016-1.133-.002-.38-.113-.799-.443-1.003a1.43 1.43 0 0 0-.687-.152c-.398-.014-.841.024-1.113.299-.338.343-.251.917.043 1.294s.738.612 1.153.873c.33.186.611.44.824.742a.695.695 0 0 1 .06.14h2.497a6.956 6.956 0 0 0 1.53-1.015z"/>
        <path fill="#FBD56F" d="M61 42.58L66.164 40l1.906 1.742.453 1.245.477 2.092-.42.916-3.302.6s-1.759-.101-2.031.034c-.273.136-1.384.371-1.384.371L61 44.88v-2.3z"/>
    </g>
</svg>
