<svg xmlns="http://www.w3.org/2000/svg" width="162" height="125" viewBox="0 0 162 125">
    <defs>
        <linearGradient id="a" x1="-.008%" y1="49.986%" y2="49.986%">
            <stop offset="0%" stop-color="gray" stop-opacity=".25"/>
            <stop offset="54%" stop-color="gray" stop-opacity=".12"/>
            <stop offset="100%" stop-color="gray" stop-opacity=".1"/>
        </linearGradient>
        <linearGradient id="b" x1=".004%" x2="100.012%" y1="50.008%" y2="50.008%">
            <stop offset="0%" stop-color="gray" stop-opacity=".25"/>
            <stop offset="54%" stop-color="gray" stop-opacity=".12"/>
            <stop offset="100%" stop-color="gray" stop-opacity=".1"/>
        </linearGradient>
        <linearGradient id="c" x1=".004%" x2="100.012%" y1="50.011%" y2="50.011%">
            <stop offset="0%" stop-color="gray" stop-opacity=".25"/>
            <stop offset="54%" stop-color="gray" stop-opacity=".12"/>
            <stop offset="100%" stop-color="gray" stop-opacity=".1"/>
        </linearGradient>
        <linearGradient id="d" x1="-.01%" x2="100.045%" y1="49.997%" y2="49.997%">
            <stop offset="0%" stop-color="gray" stop-opacity=".25"/>
            <stop offset="54%" stop-color="gray" stop-opacity=".12"/>
            <stop offset="100%" stop-color="gray" stop-opacity=".1"/>
        </linearGradient>
        <linearGradient id="e" x1="0%" x2="100.026%" y1="49.998%" y2="49.998%">
            <stop offset="0%" stop-color="gray" stop-opacity=".25"/>
            <stop offset="54%" stop-color="gray" stop-opacity=".12"/>
            <stop offset="100%" stop-color="gray" stop-opacity=".1"/>
        </linearGradient>
        <linearGradient id="f" x1="0%" x2="100.033%" y1="49.998%" y2="49.998%">
            <stop offset="0%" stop-color="gray" stop-opacity=".25"/>
            <stop offset="54%" stop-color="gray" stop-opacity=".12"/>
            <stop offset="100%" stop-color="gray" stop-opacity=".1"/>
        </linearGradient>
        <linearGradient id="g" x1="0%" y1="50.002%" y2="50.002%">
            <stop offset="0%" stop-color="gray" stop-opacity=".25"/>
            <stop offset="54%" stop-color="gray" stop-opacity=".12"/>
            <stop offset="100%" stop-color="gray" stop-opacity=".1"/>
        </linearGradient>
        <linearGradient id="h" x1=".003%" x2="100.019%" y1="50%" y2="50%">
            <stop offset="0%" stop-color="gray" stop-opacity=".25"/>
            <stop offset="54%" stop-color="gray" stop-opacity=".12"/>
            <stop offset="100%" stop-color="gray" stop-opacity=".1"/>
        </linearGradient>
        <linearGradient id="i" x1=".003%" x2="100.026%" y1="50%" y2="50%">
            <stop offset="0%" stop-color="gray" stop-opacity=".25"/>
            <stop offset="54%" stop-color="gray" stop-opacity=".12"/>
            <stop offset="100%" stop-color="gray" stop-opacity=".1"/>
        </linearGradient>
        <linearGradient id="j" x1="0%" y1="50%" y2="50%">
            <stop offset="0%" stop-color="gray" stop-opacity=".25"/>
            <stop offset="54%" stop-color="gray" stop-opacity=".12"/>
            <stop offset="100%" stop-color="gray" stop-opacity=".1"/>
        </linearGradient>
        <linearGradient id="k" x1=".013%" y1="50%" y2="50%">
            <stop offset="0%" stop-color="gray" stop-opacity=".25"/>
            <stop offset="54%" stop-color="gray" stop-opacity=".12"/>
            <stop offset="100%" stop-color="gray" stop-opacity=".1"/>
        </linearGradient>
        <linearGradient id="l" x1="0%" y1="50.064%" y2="50.064%">
            <stop offset="0%" stop-color="gray" stop-opacity=".25"/>
            <stop offset="54%" stop-color="gray" stop-opacity=".12"/>
            <stop offset="100%" stop-color="gray" stop-opacity=".1"/>
        </linearGradient>
        <linearGradient id="m" x1=".015%" x2="100.004%" y1="49.97%" y2="49.97%">
            <stop offset="0%" stop-color="gray" stop-opacity=".25"/>
            <stop offset="54%" stop-color="gray" stop-opacity=".12"/>
            <stop offset="100%" stop-color="gray" stop-opacity=".1"/>
        </linearGradient>
        <linearGradient id="n" x1="-.009%" y1="50.016%" y2="50.016%">
            <stop offset="0%" stop-color="gray" stop-opacity=".25"/>
            <stop offset="54%" stop-color="gray" stop-opacity=".12"/>
            <stop offset="100%" stop-color="gray" stop-opacity=".1"/>
        </linearGradient>
        <linearGradient id="o" x1="-.016%" x2="100.023%" y1="50.015%" y2="50.015%">
            <stop offset="0%" stop-color="gray" stop-opacity=".25"/>
            <stop offset="54%" stop-color="gray" stop-opacity=".12"/>
            <stop offset="100%" stop-color="gray" stop-opacity=".1"/>
        </linearGradient>
        <linearGradient id="p" x1="0%" x2="99.95%" y1="50.014%" y2="50.014%">
            <stop offset="0%" stop-color="gray" stop-opacity=".25"/>
            <stop offset="54%" stop-color="gray" stop-opacity=".12"/>
            <stop offset="100%" stop-color="gray" stop-opacity=".1"/>
        </linearGradient>
        <linearGradient id="q" x1="0%" x2="99.95%" y1="50.002%" y2="50.002%">
            <stop offset="0%" stop-color="gray" stop-opacity=".25"/>
            <stop offset="54%" stop-color="gray" stop-opacity=".12"/>
            <stop offset="100%" stop-color="gray" stop-opacity=".1"/>
        </linearGradient>
        <linearGradient id="r" x1="50.009%" x2="50.009%" y1="99.993%" y2="-.001%">
            <stop offset="0%" stop-color="gray" stop-opacity=".25"/>
            <stop offset="54%" stop-color="gray" stop-opacity=".12"/>
            <stop offset="100%" stop-color="gray" stop-opacity=".1"/>
        </linearGradient>
        <linearGradient id="s" x1="49.999%" x2="49.999%" y1="100%" y2="0%">
            <stop offset="0%" stop-color="gray" stop-opacity=".25"/>
            <stop offset="54%" stop-color="gray" stop-opacity=".12"/>
            <stop offset="100%" stop-color="gray" stop-opacity=".1"/>
        </linearGradient>
        <linearGradient id="t" x1="50%" x2="50%" y1="100%" y2="0%">
            <stop offset="0%" stop-color="gray" stop-opacity=".25"/>
            <stop offset="54%" stop-color="gray" stop-opacity=".12"/>
            <stop offset="100%" stop-color="gray" stop-opacity=".1"/>
        </linearGradient>
    </defs>
    <g fill="none" fill-rule="evenodd">
        <path fill="#7CBE35" fill-rule="nonzero" d="M134 110h-12v-7h12v7zm-11.493-.525h10.986v-5.95h-10.986v5.95zM146 110h-12v-7h12v7zm-11.493-.525h10.986v-5.95h-10.986v5.95z" opacity=".2"/>
        <path fill="#7CBE35" fill-rule="nonzero" d="M157 110h-12v-7h12v7zm-11.493-.525h10.986v-5.95h-10.986v5.95zM157 103h-12v-7h12v7zm-11.493-.525h10.986v-5.95h-10.986v5.95z" opacity=".2"/>
        <path fill="#7CBE35" fill-rule="nonzero" d="M146 103h-12v-7h12v7zm-11.493-.525h10.986v-5.95h-10.986v5.95zM15 110H3v-7h12v7zm-11.493-.525h10.986v-5.95H3.507v5.95z" opacity=".2"/>
        <path fill="#7CBE35" fill-rule="nonzero" d="M26 110H14v-7h12v7zm-11.493-.525h10.986v-5.95H14.507v5.95zM38 110H26v-7h12v7zm-11.493-.525h10.986v-5.95H26.507v5.95zM50 110H38v-7h12v7zm-11.493-.525h10.986v-5.95H38.507v5.95zM38 103H26v-7h12v7zm-11.493-.525h10.986v-5.95H26.507v5.95zM26 103H14v-7h12v7zm-11.493-.525h10.986v-5.95H14.507v5.95z" opacity=".2"/>
        <path stroke="#535461" stroke-width="2" d="M145.706 89s-1.793-7.205.336-12.51c.906-2.217 1.179-4.722.778-7.138a21.823 21.823 0 0 0-.854-3.352"/>
        <path fill="#7CBE35" d="M146.998 62.586c0 .875-1.499 3.414-1.499 3.414S144 63.461 144 62.586c0-.876.672-1.586 1.5-1.586s1.5.71 1.5 1.586h-.002zM150.704 67.75C150.146 68.573 147 70 147 70s.058-3.362.61-4.187a1.863 1.863 0 0 1 1.64-.81c.658.032 1.248.4 1.548.966.3.567.264 1.244-.094 1.779v.001zM150.058 75.801c-.843.367-4.058.114-4.058.114s1.675-2.39 2.52-2.756c.843-.368 1.871-.075 2.296.655.426.73.087 1.62-.757 1.987h-.001zM148.4 82.164c-.65.576-3.4.836-3.4.836s1.014-3.079 1.665-3.656c.42-.373.975-.448 1.455-.199.48.25.811.787.87 1.41.06.622-.163 1.235-.583 1.608l-.006.001zM143.477 69.748C144.099 70.363 147 71 147 71s-.711-2.93-1.333-3.548a1.554 1.554 0 0 0-1.524-.391c-.54.155-.958.592-1.095 1.146-.138.553.026 1.139.429 1.537v.004zM141.942 76.801c.843.367 4.058.114 4.058.114s-1.675-2.39-2.52-2.756c-.843-.368-1.871-.075-2.296.655-.426.73-.087 1.62.757 1.987h.001zM141.595 85.164C142.247 85.74 145 86 145 86s-1.01-3.073-1.662-3.656c-.421-.373-.976-.448-1.457-.199-.48.25-.812.788-.872 1.41-.059.623.164 1.236.585 1.609h.001z"/>
        <path fill="#000" d="M146.998 62.586c0 .875-1.499 3.414-1.499 3.414S144 63.461 144 62.586c0-.876.672-1.586 1.5-1.586s1.5.71 1.5 1.586h-.002zM150.704 67.75C150.146 68.573 147 70 147 70s.058-3.362.61-4.187a1.863 1.863 0 0 1 1.64-.81c.658.032 1.248.4 1.548.966.3.567.264 1.244-.094 1.779v.001zM150.058 75.801c-.843.367-4.058.114-4.058.114s1.675-2.39 2.52-2.756c.843-.368 1.871-.075 2.296.655.426.73.087 1.62-.757 1.987h-.001zM148.4 82.164c-.65.576-3.4.836-3.4.836s1.014-3.079 1.665-3.656c.42-.373.975-.448 1.455-.199.48.25.811.787.87 1.41.06.622-.163 1.235-.583 1.608l-.006.001zM143.477 69.748C144.099 70.363 147 71 147 71s-.711-2.93-1.333-3.548a1.554 1.554 0 0 0-1.524-.391c-.54.155-.958.592-1.095 1.146-.138.553.026 1.139.429 1.537v.004zM141.942 76.801c.843.367 4.058.114 4.058.114s-1.675-2.39-2.52-2.756c-.843-.368-1.871-.075-2.296.655-.426.73-.087 1.62.757 1.987h.001zM141.595 85.164C142.247 85.74 145 86 145 86s-1.01-3.073-1.662-3.656c-.421-.373-.976-.448-1.457-.199-.48.25-.812.788-.872 1.41-.059.623.164 1.236.585 1.609h.001z" opacity=".25"/>
        <path stroke="#535461" stroke-width="2" d="M27.706 89s-1.793-7.518.336-13.045c.906-2.314 1.179-4.928.779-7.45A23.591 23.591 0 0 0 27.966 65"/>
        <path fill="#7CBE35" d="M29 62.585C29 63.461 27.5 66 27.5 66S26 63.453 26 62.585c0-.875.671-1.585 1.5-1.585.827 0 1.499.71 1.499 1.585H29zM32.685 66.762C32.138 67.582 29 69 29 69s.057-3.346.607-4.161c.35-.545.977-.866 1.64-.837.664.028 1.26.4 1.558.973a1.718 1.718 0 0 1-.12 1.787zM32.06 75.8c-.852.369-4.06.114-4.06.114s1.676-2.387 2.519-2.755c.843-.368 1.872-.075 2.297.655.426.73.087 1.619-.757 1.987zM30.401 82.166C29.753 82.741 27 83 27 83s1.018-3.072 1.663-3.655c.42-.373.974-.45 1.454-.2.48.248.813.784.873 1.405.06.622-.161 1.235-.581 1.608l-.008.008zM25.489 69.752C26.112 70.366 29 71 29 71s-.708-2.92-1.328-3.535a1.548 1.548 0 0 0-1.527-.406 1.581 1.581 0 0 0-1.1 1.152 1.612 1.612 0 0 0 .446 1.541h-.002zM23.94 76.8c.852.369 4.06.114 4.06.114s-1.676-2.387-2.519-2.755c-.843-.368-1.872-.075-2.297.655-.426.73-.087 1.619.757 1.987zM23.599 85.166C24.247 85.741 27 86 27 86s-1.018-3.072-1.663-3.655c-.65-.576-1.566-.414-2.048.362-.482.777-.347 1.874.302 2.45l.008.01z"/>
        <path fill="#FFF" d="M29 62.585C29 63.461 27.5 66 27.5 66S26 63.453 26 62.585c0-.875.671-1.585 1.5-1.585.827 0 1.499.71 1.499 1.585H29zM32.685 66.762C32.138 67.582 29 69 29 69s.057-3.346.607-4.161c.35-.545.977-.866 1.64-.837.664.028 1.26.4 1.558.973a1.718 1.718 0 0 1-.12 1.787zM32.06 75.8c-.852.369-4.06.114-4.06.114s1.676-2.387 2.519-2.755c.843-.368 1.872-.075 2.297.655.426.73.087 1.619-.757 1.987zM30.401 82.166C29.753 82.741 27 83 27 83s1.018-3.072 1.663-3.655c.42-.373.974-.45 1.454-.2.48.248.813.784.873 1.405.06.622-.161 1.235-.581 1.608l-.008.008zM25.489 69.752C26.112 70.366 29 71 29 71s-.708-2.92-1.328-3.535a1.548 1.548 0 0 0-1.527-.406 1.581 1.581 0 0 0-1.1 1.152 1.612 1.612 0 0 0 .446 1.541h-.002zM23.94 76.8c.852.369 4.06.114 4.06.114s-1.676-2.387-2.519-2.755c-.843-.368-1.872-.075-2.297.655-.426.73-.087 1.619.757 1.987zM23.599 85.166C24.247 85.741 27 86 27 86s-1.018-3.072-1.663-3.655c-.65-.576-1.566-.414-2.048.362-.482.777-.347 1.874.302 2.45l.008.01z" opacity=".5"/>
        <path stroke="#535461" stroke-width="2" d="M14.705 89s-1.792-5.632.337-9.79a8.317 8.317 0 0 0 .778-5.588A14.166 14.166 0 0 0 14.967 71"/>
        <path fill="#7CBE35" d="M17 68.268c0 .7-1.5 2.732-1.5 2.732S14 68.969 14 68.268c0-.7.672-1.268 1.5-1.268s1.5.568 1.5 1.268zM18.778 72.197C18.363 72.857 16 74 16 74s.043-2.69.458-3.35a1.37 1.37 0 0 1 1.23-.648 1.38 1.38 0 0 1 1.16.775c.225.453.198.996-.07 1.424v-.004zM18.248 78.801c-.676.367-3.248.114-3.248.114s1.34-2.387 2.015-2.756c.675-.368 1.498-.075 1.838.655.34.73.07 1.619-.605 1.987zM17.555 83.374C17.067 83.806 15 84 15 84s.761-2.305 1.249-2.743c.487-.43 1.175-.308 1.536.276.36.583.257 1.405-.23 1.836v.005zM13.358 74.06C13.82 74.524 16 75 16 75s-.532-2.192-1-2.661a1.165 1.165 0 0 0-1.143-.293 1.19 1.19 0 0 0-.821.86c-.103.416.02.856.322 1.155zM11.752 79.801c.676.367 3.248.114 3.248.114s-1.34-2.387-2.015-2.756c-.675-.368-1.498-.075-1.838.655-.34.73-.07 1.619.605 1.987zM11.445 85.374C11.933 85.806 14 86 14 86s-.761-2.306-1.249-2.743a.952.952 0 0 0-1.091-.148c-.36.187-.609.59-.653 1.056-.044.466.123.925.438 1.204v.005z"/>
        <path fill="#000" d="M17 68.268c0 .7-1.5 2.732-1.5 2.732S14 68.969 14 68.268c0-.7.672-1.268 1.5-1.268s1.5.568 1.5 1.268zM18.778 72.197C18.363 72.857 16 74 16 74s.043-2.69.458-3.35a1.37 1.37 0 0 1 1.23-.648 1.38 1.38 0 0 1 1.16.775c.225.453.198.996-.07 1.424v-.004zM18.248 78.801c-.676.367-3.248.114-3.248.114s1.34-2.387 2.015-2.756c.675-.368 1.498-.075 1.838.655.34.73.07 1.619-.605 1.987zM17.555 83.374C17.067 83.806 15 84 15 84s.761-2.305 1.249-2.743c.487-.43 1.175-.308 1.536.276.36.583.257 1.405-.23 1.836v.005zM13.358 74.06C13.82 74.524 16 75 16 75s-.532-2.192-1-2.661a1.165 1.165 0 0 0-1.143-.293 1.19 1.19 0 0 0-.821.86c-.103.416.02.856.322 1.155zM11.752 79.801c.676.367 3.248.114 3.248.114s-1.34-2.387-2.015-2.756c-.675-.368-1.498-.075-1.838.655-.34.73-.07 1.619.605 1.987zM11.445 85.374C11.933 85.806 14 86 14 86s-.761-2.306-1.249-2.743a.952.952 0 0 0-1.091-.148c-.36.187-.609.59-.653 1.056-.044.466.123.925.438 1.204v.005z" opacity=".25"/>
        <g opacity=".7">
            <path fill="#7CBE35" d="M0 13h162v82.836H0z" opacity=".6"/>
            <path fill="#000" fill-rule="nonzero" d="M0 13v83h162V13H0zm7.2 7.217h70.2v30.674H7.2V20.217zm0 37.892h70.2v30.674H7.2V58.109zm147.6 30.674H84.6V58.109h70.2v30.674zm0-37.892H84.6V20.217h70.2v30.674z" opacity=".25"/>
        </g>
        <g opacity=".7" transform="translate(36 27)">
            <path fill="url(#a)" d="M23.297 72.903s-14.104-5.227-16.035 2.13l5.41 13.936.58 8.909h11.784v-7.555s-1.739-7.55 2.705-12.194l-4.444-5.226z"/>
            <path fill="url(#b)" d="M12.473.247c-.599-.2-1.32-.38-1.809.02-.283.233-.405.607-.625.901-.73.972-2.204.79-3.368 1.138-1.71.512-2.767 2.23-3.373 3.912-2.68 7.424.308 15.916-2.025 23.456-.687 2.219-1.81 4.682-.7 6.723.37.681.977 1.249 1.156 2.001.25 1.021-.233 2.361.612 2.983.264.193.597.254.913.33 1.902.508 3.342 2.008 4.791 3.341 1.449 1.333 3.19 2.623 5.156 2.536a8.297 8.297 0 0 0 1.869-.376l9.75-2.752c.977-.276 2.039-.61 2.605-1.454.347-.516.456-1.155.544-1.768.337-2.346.496-4.713.477-7.083 0-.782-.036-1.582-.326-2.31-.325-.84-.976-1.511-1.45-2.278-.915-1.485-1.16-3.269-1.387-4.996-.36-2.75-.72-5.555-.221-8.284.213-1.171.58-2.31.825-3.473.396-1.895.458-3.846.186-5.763-.228-1.592-.717-3.207-1.791-4.405a4.527 4.527 0 0 0-2.702-1.485c-1.32-.165-1.975.604-3.15.891-1.74.44-4.285-1.245-5.957-1.805z" opacity=".1" transform="translate(13.186 31.182)"/>
            <path fill="url(#c)" d="M25.66 31.035c-.6-.201-1.321-.381-1.81.02-.283.232-.405.607-.625.9-.73.972-2.204.79-3.368 1.139-1.71.511-2.767 2.229-3.373 3.912-2.68 7.424.308 15.916-2.025 23.455-.687 2.22-1.81 4.683-.7 6.723.37.682.977 1.25 1.156 2.002.25 1.02-.233 2.36.612 2.983.264.193.597.254.913.33 1.902.508 3.342 2.007 4.791 3.34 1.449 1.334 3.188 2.639 5.156 2.546a8.297 8.297 0 0 0 1.869-.376l9.75-2.752c.977-.275 2.039-.609 2.605-1.453.347-.517.456-1.155.544-1.77.337-2.344.496-4.712.477-7.082 0-.782-.036-1.582-.325-2.31-.326-.84-.977-1.51-1.451-2.278-.915-1.485-1.16-3.268-1.387-4.996-.36-2.75-.72-5.555-.221-8.283.213-1.172.58-2.31.825-3.473.396-1.895.458-3.846.186-5.763-.228-1.592-.717-3.207-1.791-4.405a4.527 4.527 0 0 0-2.702-1.485c-1.319-.165-1.975.604-3.15.89-1.739.43-4.285-1.246-5.957-1.814z"/>
            <path fill="url(#d)" d="M22.911 16.383s.194 7.355-2.124 7.162c-2.318-.193 6.562 12.194 6.562 12.194l7.534-4.066s-4.441-7.16-1.348-11.613c3.093-4.453-10.624-3.677-10.624-3.677z"/>
            <path fill="url(#e)" d="M8.827 50.856S7.282 61.502 3.417 58.6C-.448 55.695.132 50.856.132 50.856S7.667 30.34 7.282 27.24C6.896 24.142 20.142.068 20.142.068l4.907 39.561S10.37 45.049 8.827 50.856z" opacity=".1" transform="translate(1.14 28.047)"/>
            <path fill="url(#f)" d="M9.58 78.903S8.035 89.55 4.17 86.646C.307 83.742.887 78.903.887 78.903S8.42 58.386 8.034 55.288c-.388-3.099 12.86-27.173 12.86-27.173l4.907 39.561s-14.676 5.42-16.22 11.227z"/>
            <path fill="url(#g)" d="M23.297 21.029S15.761 26.25 12.86 26.06l-2.25.62c-4.542 1.234-7.999 4.974-8.919 9.647l-.035.184C.5 42.708.112 59.742.112 59.742s.194 4.455 2.125 5.61l12.372 8.516s-.386-9.29 4.25-10.259c4.637-.968-1.159-.387-1.159-.387L9.2 58.19s.193-7.55 2.511-10.064c2.318-2.515 10.433-15.674 10.433-15.674l-2.318-8.129 3.471-3.294z"/>
            <path fill="url(#h)" d="M1.162.158s4.746 1.26 8.068 1.875a3.35 3.35 0 0 1 2.416 1.847c1.003 2.097 2.531 5.89 2.268 9.053l2.897 11.42 8.303 10.064-7.533 3.486-8.497-9.485 6.954 18.002L3.093 47S-.772 17.963.195 13.128L1.162.158z" opacity=".1" transform="translate(30.442 25.902)"/>
            <path fill="url(#i)" d="M31.99 26.06s4.745 1.26 8.068 1.875a3.35 3.35 0 0 1 2.416 1.848c1.003 2.097 2.531 5.89 2.267 9.052l2.898 11.42 8.302 10.064-7.534 3.485-8.5-9.485 6.96 18.003-12.945.58s-3.864-29.036-2.897-33.872l.965-12.97z"/>
            <path fill="url(#j)" d="M22.662 20.412l2.663 13.101-4.346 2.226-2.382-11.802zM29.962 34.481l2.028-8.42 2.61 4.936-1.353 4.065z"/>
            <path fill="url(#j)" d="M37.303 36.997s0 13.163 1.74 14.13" opacity=".1"/>
            <path fill="url(#k)" d="M12.38 40.287S8.37 53.25 9.505 54.607" opacity=".1"/>
            <path fill="url(#l)" d="M11.609 58.092s7.729 5.064 8.79 5.144" opacity=".1"/>
            <path fill="url(#m)" d="M.15.163S.18 1.297.075 2.661c1.408 3.312 4.63 5.454 8.188 5.445.477 0 .954-.04 1.425-.116-.05-1.448.224-2.902 1.087-4.143C13.867-.61.15.163.15.163z" opacity=".1" transform="translate(22.953 16.993)"/>
            <ellipse cx="31.025" cy="15.416" fill="url(#j)" rx="8.887" ry="8.904"/>
            <path fill="url(#n)" d="M18.594 11.508c1.076.145 2.442-.215 2.655-1.284.262-1.35-1.54-2.227-1.818-3.575-.104-.505.02-1.033-.041-1.546-.12-1.033-.954-1.828-1.802-2.429A13.84 13.84 0 0 0 8.37.213c-.404.038-.829.104-1.14.363-.355.292-.488.767-.734 1.155-.834 1.35-2.706 1.508-4.049 2.349C.878 5.07.1 6.995.03 8.85c-.07 1.854.458 3.674.977 5.456.444 1.514.91 3.07 1.885 4.31.975 1.241 2.593 2.108 4.125 1.735-.701-.507-.192-1.683.568-2.096.76-.412 1.705-.483 2.354-1.052.65-.57.845-1.502 1.057-2.35.267-1.069.651-2.154 1.432-2.935 1.532-1.527 4.292-.663 6.167-.41z" opacity=".1" transform="translate(18.07 .165)"/>
            <path fill="url(#o)" d="M36.465 11.48c1.076.145 2.442-.215 2.655-1.284.262-1.35-1.54-2.227-1.818-3.575-.104-.505.02-1.033-.04-1.546-.121-1.033-.955-1.828-1.803-2.429A13.84 13.84 0 0 0 26.25.183c-.404.038-.83.104-1.14.363-.355.292-.489.767-.734 1.155-.834 1.35-2.706 1.508-4.049 2.35-1.57.99-2.349 2.915-2.419 4.769-.07 1.854.457 3.674.977 5.456.444 1.515.91 3.07 1.885 4.311.975 1.24 2.593 2.107 4.125 1.734-.702-.507-.192-1.683.568-2.095.76-.413 1.705-.484 2.354-1.053.65-.57.845-1.501 1.057-2.35.267-1.068.65-2.154 1.432-2.934 1.53-1.526 4.29-.664 6.16-.41z"/>
            <path fill="url(#p)" d="M2.953.779c-.13.92-.42 2.514-.965 3.52A28.339 28.339 0 0 0 .143 8.384s3.559 2.76 5.372 4.646a4.18 4.18 0 0 0 4.432 1.088c.942-.344 1.767-1.007 1.987-2.25.345-1.962-.065-3.442-.452-4.318a3.248 3.248 0 0 1-.013-2.64c.133-.297.29-.53.464-.587 0 0-3.478-.774-3.671.193-.194.966-2.898 1.935-3.478.193L4.622.868a.838.838 0 0 0-1.669-.09z" opacity=".1" transform="translate(26.535 15.838)"/>
            <path fill="url(#q)" d="M29.488 16.812c-.13.92-.42 2.514-.965 3.52a28.339 28.339 0 0 0-1.845 4.086s3.559 2.76 5.372 4.645a4.18 4.18 0 0 0 4.431 1.088c.943-.343 1.768-1.007 1.988-2.25.345-1.962-.065-3.442-.452-4.318a3.248 3.248 0 0 1-.014-2.64c.134-.297.29-.53.464-.587 0 0-3.477-.774-3.67.193-.194.966-2.898 1.935-3.478.193l-.162-3.841a.838.838 0 0 0-1.67-.09z"/>
        </g>
        <path fill="#535461" d="M59.657 99.748S45.886 94.674 44 101.816l5.282 13.528.561 8.656h11.508v-7.333s-1.697-7.33 2.649-11.842l-4.343-5.077z"/>
        <path fill="#000" d="M61.782 59.212c-.57-.194-1.259-.368-1.723.02-.27.225-.386.586-.596.87-.696.94-2.1.764-3.209 1.101-1.63.493-2.635 2.155-3.213 3.779-2.553 7.177.292 15.391-1.93 22.68-.646 2.146-1.724 4.528-.667 6.501.352.657.926 1.208 1.102 1.935.24.986-.221 2.284.583 2.885.25.188.569.245.87.329 1.81.493 3.184 1.942 4.564 3.231 1.38 1.29 3.04 2.537 4.912 2.453a7.803 7.803 0 0 0 1.777-.363l9.29-2.661c.933-.268 1.94-.59 2.484-1.407.323-.493.434-1.114.519-1.71a46.32 46.32 0 0 0 .454-6.849c0-.756-.034-1.53-.307-2.232-.324-.812-.931-1.461-1.384-2.205-.87-1.433-1.106-3.161-1.321-4.832-.343-2.66-.685-5.372-.212-8.01.204-1.132.554-2.233.787-3.358.377-1.833.437-3.719.178-5.573-.217-1.539-.684-3.101-1.705-4.26a4.297 4.297 0 0 0-2.575-1.435c-1.257-.165-1.883.585-3.002.862-1.656.413-4.083-1.209-5.676-1.751z" opacity=".1"/>
        <path fill="#E0E0E0" d="M61.78 59.212c-.57-.194-1.258-.368-1.721.02-.27.225-.387.586-.597.87-.696.94-2.1.764-3.208 1.101-1.63.493-2.635 2.155-3.214 3.779-2.552 7.177.293 15.391-1.929 22.68-.646 2.146-1.724 4.528-.667 6.501.352.657.926 1.208 1.102 1.935.239.986-.221 2.284.583 2.885.25.188.569.245.87.329 1.81.493 3.184 1.942 4.563 3.231 1.38 1.29 3.041 2.537 4.912 2.453a7.802 7.802 0 0 0 1.777-.363l9.292-2.66c.932-.268 1.938-.59 2.483-1.406.323-.493.435-1.114.519-1.71.32-2.268.472-4.558.454-6.85 0-.755-.034-1.529-.307-2.232-.324-.811-.931-1.46-1.383-2.205-.871-1.432-1.107-3.16-1.322-4.831-.343-2.66-.685-5.372-.212-8.01.204-1.132.555-2.233.787-3.358a16.38 16.38 0 0 0 .178-5.573c-.217-1.54-.684-3.102-1.705-4.26a4.297 4.297 0 0 0-2.57-1.44c-1.257-.165-1.882.584-3.002.862-1.662.417-4.09-1.206-5.682-1.748z"/>
        <path fill="#FDA57D" d="M59.426 45.05s.187 7.2-2.053 7.011C55.133 51.871 63.72 64 63.72 64L71 60.02s-4.293-7.01-1.31-11.37c2.981-4.36-10.264-3.6-10.264-3.6z"/>
        <path fill="#000" d="M46.392 106.04s-1.486 10.279-5.203 7.476c-3.717-2.804-3.16-7.476-3.16-7.476s7.248-19.811 6.876-22.802C44.533 80.248 57.28 57 57.28 57L62 95.199s-14.122 5.234-15.608 10.841z" opacity=".1"/>
        <path fill="#4D8AF0" d="M46.392 106.04s-1.486 10.279-5.203 7.476c-3.717-2.804-3.16-7.476-3.16-7.476s7.248-19.811 6.876-22.802C44.533 80.248 57.28 57 57.28 57L62 95.199s-14.122 5.234-15.608 10.841z"/>
        <path fill="#4D8AF0" d="M59 50s-7.15 5.044-9.9 4.857l-2.137.598c-4.329 1.212-7.608 4.82-8.463 9.31l-.034.179C37.366 70.922 37 87.36 37 87.36s.183 4.296 2.016 5.411L50.75 101s-.367-8.967 4.035-9.9c4.401-.933-1.1-.374-1.1-.374l-8.068-4.858s.183-7.285 2.383-9.714c2.2-2.428 9.9-15.13 9.9-15.13l-2.2-7.855L59 50z"/>
        <path fill="#000" d="M68.072 55s4.544 1.21 7.722 1.795a3.206 3.206 0 0 1 2.31 1.776c.96 2.016 2.422 5.658 2.17 8.697l2.774 10.971L91 87.91l-7.212 3.352-8.13-9.11 6.653 17.3-12.389.549s-3.699-27.894-2.773-32.543L68.072 55z" opacity=".1"/>
        <path fill="#4D8AF0" d="M68.073 55s4.544 1.21 7.722 1.795a3.206 3.206 0 0 1 2.31 1.776c.96 2.016 2.422 5.658 2.17 8.697l2.773 10.971L91 87.91l-7.21 3.347-8.135-9.112 6.653 17.301-12.386.555s-3.698-27.894-2.773-32.543L68.073 55z"/>
        <path fill="#E0E0E0" d="M58.624 49L61 61.822 57.123 64 55 52.45zM66 62.419L67.75 54 70 58.935 68.834 63z"/>
        <path fill="#000" d="M73 65s0 13.04 2 14M49 68s-3.903 12.673-2.805 14M49 85s7.034 4.92 8 5M59.074 46.052s.03 1.135-.074 2.501c1.574 3.789 5.49 5.99 9.481 5.33-.05-1.45.223-2.905 1.072-4.15 3.046-4.457-10.48-3.681-10.48-3.681z" opacity=".1"/>
        <circle cx="67.5" cy="44.5" r="8.5" fill="#FDA57D"/>
        <path fill="#000" d="M72.35 40.181c1.064.142 2.42-.213 2.624-1.265.26-1.331-1.521-2.196-1.796-3.517-.104-.503.02-1.019-.04-1.523-.12-1.019-.944-1.803-1.781-2.394a13.697 13.697 0 0 0-9.107-2.425c-.399.038-.82.102-1.128.356-.35.288-.485.756-.725 1.143-.824 1.33-2.68 1.487-4 2.316-1.553.97-2.32 2.875-2.39 4.704-.071 1.83.452 3.624.968 5.38.439 1.493.9 3.026 1.863 4.249.964 1.223 2.564 2.077 4.075 1.709-.694-.503-.19-1.66.561-2.066.751-.405 1.676-.476 2.328-1.038.651-.563.837-1.481 1.044-2.317.264-1.056.646-2.124 1.415-2.895 1.512-1.524 4.231-.667 6.09-.417z" opacity=".1"/>
        <path fill="#72351C" d="M72.351 40.19c1.064.143 2.419-.212 2.623-1.264.26-1.332-1.52-2.196-1.795-3.518-.104-.502.02-1.018-.04-1.523-.128-1.026-.955-1.814-1.793-2.402a13.689 13.689 0 0 0-9.099-2.427c-.398.038-.819.102-1.127.357-.35.288-.486.755-.725 1.142-.824 1.33-2.68 1.488-3.998 2.317-1.553.97-2.32 2.875-2.39 4.704-.071 1.83.452 3.623.968 5.379.438 1.494.899 3.027 1.862 4.25.963 1.223 2.563 2.077 4.074 1.709-.694-.503-.19-1.66.56-2.066.751-.405 1.676-.476 2.328-1.039.651-.562.837-1.48 1.043-2.316.265-1.056.647-2.124 1.415-2.895 1.51-1.51 4.235-.653 6.094-.407z"/>
        <path fill="#000" d="M65.596 44.706c-.12.902-.388 2.464-.892 3.45A28.63 28.63 0 0 0 63 52.15s3.288 2.705 4.956 4.553c1.046 1.184 2.65 1.602 4.091 1.066.87-.333 1.633-.987 1.835-2.204.314-1.923-.059-3.373-.416-4.232a3.362 3.362 0 0 1-.006-2.584c.123-.292.267-.518.429-.576 0 0-3.212-.76-3.39.19-.179.948-2.676 1.896-3.212.19l-.147-3.765c-.017-.441-.358-.79-.773-.789-.387-.003-.717.299-.77.706z" opacity=".1"/>
        <path fill="#72351C" d="M65.596 45.7c-.12.902-.388 2.465-.892 3.45A28.651 28.651 0 0 0 63 53.149s3.288 2.707 4.956 4.556c1.046 1.184 2.65 1.602 4.091 1.066.87-.333 1.633-.988 1.835-2.206.314-1.923-.059-3.374-.416-4.234a3.365 3.365 0 0 1-.011-2.591c.124-.292.268-.518.429-.577 0 0-3.211-.76-3.39.19-.178.95-2.671 1.906-3.211.203l-.148-3.765c-.016-.442-.358-.79-.773-.79-.383-.001-.71.297-.766.7z"/>
        <path fill="url(#r)" fill-rule="nonzero" d="M132 98.889s-3.353-3.384-4.586-7.881h.288l-.138-.391h.138l-.436-1.251c1.236-1.225 2.15-2.412 2.298-3.087.25-1.136.5-7.283.651-11.555l.134.033c.325-.562.394-1.27.371-1.911a7.467 7.467 0 0 0-.274-2.135l-.604-6.1a4.169 4.169 0 0 0-1.587-2.864l-6.124-4.79a3.904 3.904 0 0 1 1.202-1.073c.35-.188.758-.316.994-.636.426-.58.063-1.443.355-2.103.218-.493.755-.768 1.07-1.21.643-.905.177-2.154-.303-3.156l-2.792-5.817c-.773-1.61-1.553-3.234-2.634-4.653-3.311-4.348-9.682-6.51-14.875-4.625-1.48.537-2.843 1.568-3.475 3.02-.22.505-.352 1.057-.67 1.505-.713 1-2.102 1.189-3.095 1.908-1.269.924-1.74 2.665-1.562 4.232.178 1.568.891 3.017 1.595 4.433.739 1.478 1.503 3 2.716 4.12.567.524 1.26 1.01 1.441 1.763.155.647-.119 1.314-.062 1.984.024.278.105.549.238.794-2.74.347-4.685 2.642-5.556 6.057a5.461 5.461 0 0 0-.075.328l-.386 3.537c-.008.153 0 .3 0 .447a4.683 4.683 0 0 0 .488 2.298v12.418L85.02 90.01c-1.759.788-1.368 7.091 2.15 8.272 3.517 1.18 6.646-6.29 6.646-6.29 2.141-.145 5.743-3.024 7.68-5.254.261.426.61.791 1.02 1.072-1.397 3.175-4.16 9.744-3.719 11.078.266.804 7.128.878 14.546.72.19.107.388.195.594.265.791.266 1.563.092 2.28-.337 8.025-.231 15.783-.648 15.783-.648zm-9.903-24.078c.163-.455.697-.703 1.412-.821v4.79l-1.412-3.97zm-.682-16.83l.023-.034-.023.035z"/>
        <path fill="#FDB797" d="M104 69.297s-.38 13.144-.759 14.81c-.38 1.668-5.873 6.656-8.72 6.85 0 0-3.033 7.034-6.446 5.924-3.412-1.11-3.792-7.034-2.085-7.775l11.378-7.036V68L104 69.297z"/>
        <path fill="#3AD29F" d="M103.368 85s-4.887 10.55-4.323 12.246c.565 1.697 31.955 0 31.955 0s-5.827-5.84-4.699-12.246h-22.933z"/>
        <path fill="#FDB797" d="M106.749 54.14s.763 7.454-.573 9.175c-1.335 1.722 5.338 2.685 5.91 2.685.573 0 6.674-2.102 7.817-2.685 1.143-.582 2.097-4.778 2.097-4.778s-5.72 1.148-7.435-5.537l-7.816 1.14z"/>
        <path fill="#7CBE35" d="M105.31 34.656c-1.392.516-2.677 1.505-3.27 2.898-.207.485-.331 1.014-.632 1.445-.67.959-1.976 1.14-2.904 1.825-1.194.887-1.637 2.556-1.47 4.062.166 1.506.837 2.895 1.499 4.248.695 1.422 1.415 2.879 2.556 3.953.532.498 1.186.97 1.355 1.692.146.62-.11 1.27-.058 1.905.133 1.57 1.96 2.302 3.484 2.476.663.077 1.422.08 1.89-.41.239-.251.36-.593.51-.908.707-1.472 2.16-2.41 3.757-2.427 1.597-.017 3.068.89 3.805 2.347.358.707.566 1.566 1.216 1.99.996.664 2.329-.114 3.066-1.073.738-.958 1.267-2.156 2.314-2.732.323-.18.714-.302.936-.61.402-.556.06-1.385.334-2.017.207-.476.712-.737 1.007-1.162.605-.867.162-2.066-.285-3.027l-2.627-5.582c-.728-1.546-1.462-3.104-2.48-4.465-3.122-4.16-9.116-6.236-14.003-4.428z"/>
        <path fill="#000" d="M112.341 64.693s7.293 0 9.165-6.693l6.138 4.734a3.922 3.922 0 0 1 1.51 2.715l.58 5.76s.657 2.138-.094 3.44c0 0-7.76-1.959-7.947.28l5.416 15.064s-8.415.186-10.66-1.306c0 0-9.163 1.859-11.407-.186-2.244-2.046-4.488-1.86-2.626-6.51 0 0-3.741-3.721-2.057-8.928 1.684-5.208.093.093.093.093s-3.632-1.767-3.445-5.123l.374-3.348s.02-.111.072-.31c1.141-4.408 4.204-6.857 8.511-5.296 1.26.454 2.546-.067 2.546-.067s-1.405 6.053 3.831 5.681z" opacity=".1"/>
        <path fill="#252A62" d="M112.341 63.693s7.293 0 9.165-6.693l6.138 4.734a3.922 3.922 0 0 1 1.51 2.715l.58 5.76s.657 2.138-.094 3.44c0 0-7.76-1.959-7.947.28l5.416 15.064s-8.415.186-10.66-1.306c0 0-9.163 1.859-11.407-.186-2.244-2.046-4.488-1.86-2.626-6.51 0 0-3.741-3.721-2.057-8.928 1.684-5.208.093.093.093.093s-3.632-1.767-3.445-5.115l.374-3.348s.02-.111.072-.31c1.141-4.408 4.204-6.856 8.511-5.296 1.26.454 2.546-.067 2.546-.067s-1.405 6.045 3.831 5.673z"/>
        <path fill="#FDB797" d="M130 70.3s-.38 13.142-.759 14.81c-.38 1.666-5.876 6.66-8.72 6.847 0 0-3.033 7.034-6.446 5.924-3.412-1.11-3.792-7.033-2.085-7.774l11.375-7.034V69L130 70.3z"/>
        <path fill="#000" d="M121 70.507s4.246 2.705 7.94 2.48c0 0 .37-4.646-.738-4.906-1.109-.26-5.917 0-7.202 2.426z" opacity=".1"/>
        <path fill="#252A62" d="M121 70.507s4.246 2.705 7.94 2.48c0 0 .37-4.646-.738-4.906-1.109-.26-5.917 0-7.202 2.426z"/>
        <path fill="#000" d="M115.472 53L108 54.035s.168 1.555.202 3.342c2.964 1.182 6.382.656 8.798-1.353-.63-.728-1.17-1.71-1.528-3.024z" opacity=".1"/>
        <circle cx="110.5" cy="49.5" r="8.5" fill="#FDB797"/>
        <path fill="#000" d="M112.895 48.246c-.36.143-.744.202-1.127.17a71.49 71.49 0 0 1-4.474-.17c-1.127-.08-2.334-.222-3.205-.99-1.172-1.027-1.357-2.971-.752-4.456.606-1.485 1.84-2.58 3.144-3.42a9.124 9.124 0 0 1 2.37-1.136c2.415-.698 5.093.159 7.014 1.869 1.92 1.71 3.145 4.18 3.794 6.753.224.889.512 1.95 1.341 2.223-.552.975-1.9 1.13-2.865.642-1.427-.72-2.158-3.478-3.437-3.912-1.428-.488-.598 1.839-1.803 2.427z" opacity=".1"/>
        <path fill="#7CBE35" d="M112.896 48.242c-.36.144-.744.202-1.127.172a71.503 71.503 0 0 1-4.474-.172c-1.127-.08-2.335-.222-3.206-.99-1.172-1.026-1.357-2.97-.752-4.455.606-1.485 1.84-2.58 3.145-3.421a9.124 9.124 0 0 1 2.368-1.132c2.415-.698 5.094.159 7.014 1.869 1.921 1.71 3.146 4.18 3.795 6.753.224.889.512 1.95 1.341 2.223-.552.975-1.9 1.13-2.866.642-1.426-.72-2.157-3.478-3.437-3.912-1.426-.491-.596 1.832-1.801 2.423z"/>
        <path fill="#000" d="M102 81a40.413 40.413 0 0 1 9-1M121 71s-2.57 1.94-1.884 3" opacity=".1"/>
        <path fill="url(#s)" d="M91.887.07H.147v8.153h5.34V33.87h81.25V8.223h5.15z" opacity=".7" transform="translate(49 91)"/>
        <path fill="#E0E0E0" d="M55 96h79v29H55z"/>
        <path fill="#000" d="M55 97h79v5H55z" opacity=".1"/>
        <path fill="#E0E0E0" d="M50 93h90v8H50z"/>
        <rect width="17" height="2" x="63" y="91" fill="#535461" rx="1"/>
        <rect width="42.757" height="29.692" x=".154" y=".15" fill="url(#t)" opacity=".7" rx="14.846" transform="translate(73 64)"/>
        <rect width="40" height="29" x="74" y="64" fill="#3E3F49" rx="14.5"/>
        <rect width="40" height="29" x="75" y="64" fill="#535461" rx="14.5"/>
        <circle cx="96.5" cy="78.5" r="1.5" fill="#E0E0E0"/>
        <path fill="#000" d="M43 97s1.009 1.531 4 2" opacity=".1"/>
        <path fill="#7CBE35" fill-rule="nonzero" d="M73 13H61V6h12v7zm-11.493-.525h10.986v-5.95H61.507v5.95z" opacity=".2"/>
        <path fill="#7CBE35" fill-rule="nonzero" d="M84 13H72V6h12v7zm-11.493-.525h10.986v-5.95H72.507v5.95zM96 13H84V6h12v7zm-11.493-.525h10.986v-5.95H84.507v5.95zM108 13H96V6h12v7zm-11.493-.525h10.986v-5.95H96.507v5.95z" opacity=".2"/>
        <path fill="#7CBE35" fill-rule="nonzero" d="M96 7H84V0h12v7zm-11.493-.525h10.986V.525H84.507v5.95zM84 7H72V0h12v7zm-11.493-.525h10.986V.525H72.507v5.95zM30 13H18V6h12v7zm-11.493-.525h10.986v-5.95H18.507v5.95z" opacity=".2"/>
        <path fill="#7CBE35" fill-rule="nonzero" d="M41 13H29V6h12v7zm-11.493-.525h10.986v-5.95H29.507v5.95z" opacity=".2"/>
        <path fill="#7CBE35" fill-rule="nonzero" d="M41 7H29V0h12v7zm-11.493-.525h10.986V.525H29.507v5.95zM131 13h-12V6h12v7zm-11.493-.525h10.986v-5.95h-10.986v5.95zM143 13h-12V6h12v7zm-11.493-.525h10.986v-5.95h-10.986v5.95z" opacity=".2"/>
        <path fill="#7CBE35" fill-rule="nonzero" d="M143 7h-12V0h12v7zm-11.493-.525h10.986V.525h-10.986v5.95z" opacity=".2"/>
    </g>
</svg>
