<svg xmlns="http://www.w3.org/2000/svg" xmlns:xlink="http://www.w3.org/1999/xlink" width="115" height="95" viewBox="0 0 115 95">
    <defs>
        <linearGradient id="a" x1="50.004%" x2="50.004%" y1="99.993%" y2=".002%">
            <stop offset="0%" stop-color="gray" stop-opacity=".25"/>
            <stop offset="54%" stop-color="gray" stop-opacity=".12"/>
            <stop offset="100%" stop-color="gray" stop-opacity=".1"/>
        </linearGradient>
        <path id="b" d="M3 6.092s6.437 1.9 15.451-.951 27.684 4.117 27.684 4.117 14.808 0 36.698-9.185c0 0-9.979 9.502-2.897 15.204 7.082 5.702.644 13.937-7.726 17.105-8.37 3.168-9.013 9.503-8.37 15.522.643 6.019 0 .317 0 .317s-25.109-4.434-31.548 10.773L.424 9.577s-1.931-3.801 2.575-3.485z"/>
    </defs>
    <g fill="none" fill-rule="evenodd">
        <path fill="url(#a)" fill-rule="nonzero" d="M111.899 29.1a8.22 8.22 0 0 1-.943-.886v.228c-2.304-2.315-2.223-5.12-1.28-7.679l.312-.114c1.481-3.856 4.875-7.09 4.875-7.09l-.507.21.247-.25c-21.044 8.843-35.686 9.358-37.319 9.388-1.006-.374-9.3-3.35-17.323-4.458-2.524-.361-5.03-.542-7.281-.402L50.152 7.355l-.048.029c-.118-.917-.556-2.913-2.155-4.15-2.136-1.644-.545 5.918-.545 5.918l.174-.081.895 9.521-.436.36a33.675 33.675 0 0 1-7.773 1.32 5.397 5.397 0 0 0 1.181-1.552c.345.07.702-.035.952-.279.083-.086.154-.183.21-.288.116-.185.21-.384.278-.59.525-1.39 1.098-2.782 1.268-4.253.17-1.471-.109-3.068-1.114-4.17-1.005-1.103-2.839-1.523-4.07-.67-.318.219-.588.511-.938.678-1.066.509-2.248-.316-3.241-.952-1.154-.741-2.677-1.272-3.873-.6-.373.214-.68.524-.887.897a2.82 2.82 0 0 0-.44 1.717c.068.97.6 1.873 1.31 2.543.24.247.533.436.859.552.083.025.168.043.253.055a5.318 5.318 0 0 0-.793 4.054l-.443 2.637c-.393.181-.612.577-.735.964-1.85.054-3.742 1.303-3.742 1.303l-7.269 7.161c-1.885 1.26-.606 3.58-.606 3.58l4.24 12.533.235-.172c.87 1.56 3.423 5.87 3.913 3.721.6-2.602-1.267-4.965-1.267-4.965h-.023l-.483-.612-1.775-9.317 2.245-2.197 3.017-.433.135 19.292c-5.52 14.323-4.847 20.887-4.847 20.887L28.661 89.7l.618-.101.15.59.054-.02.27 1.322h-.485l-.606 1.79s-3.096-.065-3.029.598c.068.663 1.751 1.79 6.059.597l1.212-1.194s.606-.597-.606-1.791h-.087l-.335-2.318.422-.07-3.637-17.908c3.028-2.454 8.48-11.935 8.48-11.935s5.452 9.483 8.481 11.935l-3.634 17.903.422.07-.33 2.318h-.087c-1.212 1.194-.606 1.79-.606 1.79l1.212 1.195c4.31 1.194 5.991.066 6.058-.597.067-.663-3.028-.597-3.028-.597l-.606-1.791h-.484l.348-1.719.062-.183.68.111 4.846-17.904s-.09-10.344-4.796-23.275l9.668 13.355 7.65 11.882c.404-.96.902-1.881 1.486-2.747l5.535-5.095c6.433-3.77 15.022-3.996 20.326-3.685l4.89.52 2.3-11.934c1.34-1.7 3.33-3.166 6.221-4.262 5.999-2.273 11.03-7.099 10.989-11.79.087.095.172.192.253.289.062-2.076-.852-4.136-3.098-5.948zM45.502 46.804l-.006-.22.279.433-.273-.213z"/>
        <path fill="#FDB797" d="M26.72 43.412h-.022L25.678 42l-1.653 1.772.183.294-.208.054s3.334 6.908 3.89 4.286c.555-2.622-1.17-4.994-1.17-4.994z"/>
        <path fill="#7CBE35" d="M33.988 20.027s6.44 1.903 15.46-.952c9.018-2.855 27.697 4.123 27.697 4.123s14.815 0 36.716-9.198c0 0-9.984 9.515-2.899 15.225 7.086 5.71.645 13.956-7.73 17.128-8.373 3.172-9.017 9.515-8.373 15.542.643 6.027 0 .318 0 .318S69.738 57.773 63.296 73L31.412 23.517s-1.933-3.806 2.576-3.49z"/>
        <g transform="translate(49 23)">
            <mask id="c" fill="#fff">
                <use xlink:href="#b"/>
            </mask>
            <g fill="#000" mask="url(#c)" opacity=".1">
                <path d="M-31.64-12.253l80.156 56.7 4.828-13.937zM-26.81 5.485l44.422 44.347 6.439-4.751z"/>
            </g>
        </g>
        <g fill="#000" opacity=".1">
            <path d="M35.631 24.478s6.438 1.885 15.452-.944c9.014-2.828 27.681 4.086 27.681 4.086s11.98 0 30.316-6.63c1.45-3.743 4.772-6.882 4.772-6.882-21.895 9.112-36.698 9.112-36.698 9.112s-18.671-6.912-27.684-4.084c-9.013 2.828-15.452.943-15.452.943-4.506-.315-2.575 3.457-2.575 3.457l1.325 2.039c.276-.687 1.047-1.224 2.863-1.097zM110.959 29.19c-.331-.262-.64-.55-.924-.86-.074 1.855.581 3.7 2.533 5.26.52.41.997.87 1.423 1.374.062-2.016-.832-4.016-3.032-5.773z"/>
        </g>
        <path fill="#FDB797" d="M45 88.143L44.4 91H42l.601-4z"/>
        <path fill="#000" d="M45 88.5l-.133.5L43 88.334l.133-.334z" opacity=".1"/>
        <path fill="#FDB797" d="M30 88.143L30.6 91H33l-.6-4z"/>
        <path fill="#000" d="M30 88.429l.133.571L32 88.286V88z" opacity=".1"/>
        <path fill="#FDB797" d="M50 8.754s-.061-2.918-1.994-4.525C46.073 2.622 47.52 10 47.52 10L50 8.754z"/>
        <path fill="#333" d="M33.286 91h-2.857l-.571 1.532s-2.92-.057-2.857.51c.064.566 1.65 1.531 5.713.51l1.143-1.02s.572-.512-.571-1.532zM42.714 91h2.857l.571 1.532s2.92-.057 2.857.51c-.064.566-1.65 1.531-5.713.51l-1.143-1.02s-.572-.512.571-1.532zM46.256 51H29.744c-5.374 14.03-4.719 20.46-4.719 20.46l4.719 17.536 3.544-.584-3.544-17.533c2.949-2.403 8.258-11.691 8.258-11.691s5.307 9.283 8.254 11.691l-3.544 17.537 3.544.584 4.718-17.536s.66-6.435-4.718-20.464z"/>
        <path fill="#000" d="M29 51s9.64 4.5 17 0H29z" opacity=".1"/>
        <path fill="#3AD29F" d="M29.076 29.268l-4.828 4.66 1.813 9.322L23.647 45l-4.225-12.234s-1.274-2.266.604-3.5l7.244-6.992s3.108-2.01 5.245-.98c2.137 1.03-3.48 7.9-3.48 7.9"/>
        <path fill="#3AD29F" d="M29 29.504l.596 20.943s9.46 3.495 16.683 0l-.596-19.715-.152-.652.11-.32 7.16-5.797c1.962-1.055.925-3.422.925-3.422L50.735 8l-2.54 1.52.894 9.43-5.099 4.129-.127-.006v.03l-13.07-.58"/>
        <rect width="5" height="5" x="35" y="20" fill="#FDB797" rx="2.5"/>
        <path fill="#000" d="M35 21.748c1.665.45 3.503.292 5-.429-.374-.79-1.345-1.317-2.433-1.319-1.302.003-2.4.75-2.567 1.748z" opacity=".1"/>
        <circle cx="37.5" cy="16.5" r="5.5" fill="#FDB797"/>
        <path fill="#000" d="M33.073 13.774a2.72 2.72 0 0 1-.977-.055 2.157 2.157 0 0 1-.826-.537c-.686-.655-1.197-1.529-1.263-2.472-.067-.944.375-1.943 1.198-2.411 1.152-.652 2.62-.137 3.73.582.956.623 2.097 1.42 3.123.926.337-.161.598-.446.904-.66 1.186-.827 2.951-.419 3.92.653.967 1.072 1.239 2.622 1.072 4.054-.166 1.43-.717 2.784-1.223 4.133a2.001 2.001 0 0 1-.392.726c-.616.628-1.77.14-2.175-.639-.705-1.355 0-3.705-1.665-4.495-1.326-.628-4.003.103-5.426.195z" opacity=".1"/>
        <path fill="#333" d="M34.073 13.774a2.72 2.72 0 0 1-.977-.055 2.157 2.157 0 0 1-.826-.537c-.686-.655-1.197-1.529-1.263-2.472-.067-.944.375-1.943 1.198-2.411 1.152-.652 2.62-.137 3.73.582.956.623 2.097 1.42 3.123.926.337-.161.598-.446.904-.66 1.186-.827 2.951-.419 3.92.653.967 1.072 1.239 2.622 1.072 4.054-.166 1.43-.725 2.784-1.226 4.133a2.001 2.001 0 0 1-.391.726c-.616.628-1.77.14-2.175-.639-.705-1.355 0-3.705-1.665-4.495-1.32-.628-4.002.104-5.424.195z"/>
        <ellipse cx="40.5" cy="17" fill="#FDB797" rx="1" ry="1"/>
        <path fill="#000" d="M29 29l1 .831L29 32zM44.947 30L44 31.053l.631.947.369-1.053z" opacity=".1"/>
        <path fill="#7CBE35" d="M38 24.1v.9s-6.826-1.2-7-3l4.505.3L38 24.1zM38 24.1v.9s6.826-1.2 7-3l-4.505.3L38 24.1z"/>
        <path fill="#000" d="M81 35l23 5.464L95.694 44z" opacity=".1"/>
        <path fill="#7CBE35" d="M31 22s0-2 1.334-2S35 24 35 24l-4-2z"/>
        <circle cx="1" cy="37" r="1" fill="#F55F44" opacity=".5"/>
        <circle cx="12" cy="57" r="1" fill="#F55F44" opacity=".5"/>
        <circle cx="106" cy="2" r="1" fill="#F55F44" opacity=".5"/>
        <path fill="#4D8AF0" d="M63.838 3.017a.55.55 0 0 1-.306-.664.275.275 0 0 0-.515-.189.55.55 0 0 1-.663.306.276.276 0 0 0-.189.515.55.55 0 0 1 .303.662.275.275 0 0 0 .515.189.55.55 0 0 1 .664-.307c.02.006.04.01.06.012a.276.276 0 0 0 .184-.494.259.259 0 0 0-.053-.03zM106.836 56.015a.549.549 0 0 1-.306-.662.275.275 0 0 0-.514-.189.549.549 0 0 1-.663.306.275.275 0 0 0-.189.514.549.549 0 0 1 .306.663.275.275 0 0 0 .514.189.549.549 0 0 1 .663-.306.275.275 0 0 0 .189-.514z" opacity=".5"/>
        <circle cx="74" cy="81" r="1" fill="#47E6B1" opacity=".5"/>
        <circle cx="1" cy="75" r="1" fill="#47E6B1" opacity=".5"/>
        <circle cx="72" cy="12" r="1" fill="#47E6B1" opacity=".5"/>
        <g fill="#47E6B1" opacity=".5">
            <path d="M1.214 0h1v2.947h-1z"/>
            <path d="M2.948 1.214v.52H0v-.52z"/>
        </g>
        <g fill="#47E6B1" opacity=".5">
            <path d="M9.24 23.064h1v2.807h-1z"/>
            <path d="M10.891 24.22v.496H8.084v-.496z"/>
        </g>
        <g fill="#47E6B1" opacity=".5">
            <path d="M89.223 13.007h1v2.947h-1z"/>
            <path d="M90.876 14.221v.52h-2.807v-.52z"/>
        </g>
    </g>
</svg>
