<svg xmlns="http://www.w3.org/2000/svg" width="140" height="103" viewBox="0 0 140 103">
    <defs>
        <linearGradient id="a" x1="50%" x2="50%" y1="100%" y2="0%">
            <stop offset="0%" stop-color="gray" stop-opacity=".25"/>
            <stop offset="54%" stop-color="gray" stop-opacity=".12"/>
            <stop offset="100%" stop-color="gray" stop-opacity=".1"/>
        </linearGradient>
        <linearGradient id="b" x1="49.984%" x2="49.984%" y1="100.006%" y2="0%">
            <stop offset="0%" stop-color="gray" stop-opacity=".25"/>
            <stop offset="54%" stop-color="gray" stop-opacity=".12"/>
            <stop offset="100%" stop-color="gray" stop-opacity=".1"/>
        </linearGradient>
    </defs>
    <g fill="none" fill-rule="evenodd">
        <path fill="#7CBE35" d="M14.142 10.313c-.875.357-1.773.816-2.254 1.62-.51.85-.449 1.905-.354 2.888.827 8.524 3.004 17.59-.756 25.313-1.824 3.746-4.877 6.748-7.304 10.15-2.428 3.402-4.26 7.65-3.134 11.653 1.377 4.89 6.514 7.601 9.976 11.365 2.267 2.46 3.856 5.45 5.97 8.04 2.115 2.588 5.013 4.869 8.389 5.02 4.855.22 8.805-3.907 13.565-4.863 4.877-.979 9.788 1.512 13.742 4.494 3.955 2.982 7.551 6.595 12.159 8.457 5.088 2.058 10.824 1.743 16.18 2.98 4.877 1.127 9.366 3.523 14.208 4.8 4.842 1.278 10.516 1.201 14.268-2.062 4.889-4.268 4.504-11.87 7.626-17.515 2.9-5.246 8.578-8.377 12.4-13.014 6.876-8.347 6.651-21.103.813-30.18-5.839-9.077-16.415-14.573-27.23-16.004-4.876-.644-9.898-.556-14.587-2.022C75.27 17.512 67.801 3.463 54.99.54c-8.145-1.856-16.066 1.357-23.003 5.312-6.022 3.432-11.577 1.901-17.844 4.46z" opacity=".1"/>
        <path stroke="#535461" stroke-width="2" d="M27 37s-4.763 4.579-9.876 4.715a9.81 9.81 0 0 0-5.913 2.143c-.8.644-1.54 1.36-2.211 2.142"/>
        <path fill="#7CBE35" d="M5.018 46.201C5.845 45.837 9 46.08 9 46.08s-1.636 2.353-2.463 2.717a1.902 1.902 0 0 1-1.745-.016c-.532-.288-.836-.809-.787-1.35.05-.543.442-1.017 1.02-1.229h-.007zM8.712 43.003C9.6 43.09 12 44.837 12 44.837s-2.747 1.245-3.626 1.159c-.854-.12-1.455-.846-1.365-1.647.09-.801.84-1.394 1.703-1.346zM15.306 39.224C15.965 39.661 17 42 17 42s-2.79-.19-3.449-.626c-.616-.449-.732-1.254-.263-1.83.47-.574 1.358-.716 2.018-.32zM19.514 37.191c.83.362 2.486 2.719 2.486 2.719s-3.16.26-3.99-.103c-.57-.216-.957-.69-1.005-1.23-.048-.54.25-1.059.776-1.349a1.9 1.9 0 0 1 1.733-.037z"/>
        <path fill="#7CBE35" d="M12.949 46.791c.246-.85-.474-3.791-.474-3.791s-2.14 1.987-2.385 2.837a1.707 1.707 0 0 0 .292 1.626c.369.443.934.632 1.47.491.537-.14.958-.587 1.097-1.163zM18.997 45.408c0-.875-1.508-3.408-1.508-3.408S16 44.539 16 45.418c.002.876.676 1.585 1.504 1.582.829-.003 1.498-.715 1.496-1.592h-.003zM24.988 42.718c.139-.884-.95-3.718-.95-3.718s-1.89 2.295-2.027 3.18c-.096.862.453 1.653 1.25 1.797.795.144 1.555-.41 1.727-1.258v-.001z"/>
        <path stroke="#535461" stroke-width="2" d="M33 27s-5.759-3.061-7.47-7.751a9.684 9.684 0 0 0-3.835-4.839A16.935 16.935 0 0 0 19 13"/>
        <path fill="#7CBE35" d="M18.698 9.42C19.325 10.046 20 13 20 13s-2.959-.69-3.586-1.32a1.601 1.601 0 0 1 .062-2.213 1.616 1.616 0 0 1 2.222-.048z"/>
        <path fill="#7CBE35" d="M21.98 11.332c.17.857-.8 3.668-.8 3.668s-1.961-2.157-2.132-3.015a1.647 1.647 0 0 1 .434-1.563 1.44 1.44 0 0 1 1.506-.336c.523.19.904.668.993 1.245l-.001.001zM26.915 15.164c-.262.86-2.45 2.836-2.45 2.836s-.666-3.012-.404-3.873c.263-.862 1.116-1.329 1.906-1.043.79.287 1.218 1.218.956 2.08h-.008zM28.97 19.888c-.124.858-1.966 3.112-1.966 3.112s-1.119-2.728-.994-3.586a1.568 1.568 0 0 1 .922-1.296 1.442 1.442 0 0 1 1.524.243c.426.37.624.956.514 1.525v.002z"/>
        <path fill="#7CBE35" d="M19.605 15.997C20.48 15.987 23 14.46 23 14.46s-2.556-1.47-3.432-1.461c-.876.01-1.578.689-1.568 1.517.01.829.729 1.492 1.605 1.483v-.003zM23.184 21.906c.85-.256 2.816-2.425 2.816-2.425s-2.972-.68-3.822-.423c-.572.15-1.009.578-1.139 1.114-.13.536.068 1.095.515 1.456a1.727 1.727 0 0 0 1.63.28v-.002zM26.871 26.972c.861-.12 3.129-1.95 3.129-1.95s-2.725-1.133-3.585-1.013a1.57 1.57 0 0 0-1.295.918 1.44 1.44 0 0 0 .234 1.52c.366.428.95.63 1.519.526l-.002-.001z"/>
        <circle cx="70.5" cy="51.5" r="48.5" fill="url(#a)"/>
        <ellipse cx="70" cy="52" fill="#7CBE35" rx="48" ry="47"/>
        <circle cx="71" cy="52" r="38" fill="#DDE1EC"/>
        <path fill="#535461" d="M69 20h2v34h-2z" opacity=".3"/>
        <g fill="#000" opacity=".1" transform="translate(50 40)">
            <path d="M23.602 10.731h30.39v2.596h-30.39zM.9 3.317l1.247-2.3 19.121 9.667-1.247 2.3z"/>
            <ellipse cx="21.316" cy="12.029" rx="4.034" ry="3.895"/>
        </g>
        <path fill="#535461" d="M73 50h30v3H73zM51.178 39.922l19.18 9.922-1.252 2.361-19.18-9.922z"/>
        <circle cx="70" cy="52" r="4" fill="#535461"/>
        <path fill="#000" d="M35.096 54.948c0-20.656 17.115-37.4 38.229-37.4 12.015-.01 23.334 5.514 30.55 14.912-6.505-11.566-19.068-19.406-33.522-19.406-21.114 0-38.229 16.745-38.229 37.401-.012 8.115 2.685 16.011 7.683 22.488a36.597 36.597 0 0 1-4.71-17.995z" opacity=".1"/>
        <path fill="url(#b)" d="M105.93 22.17c-.446-.435-4.207 2.416-4.207 2.416s-1.34.247-1.02 1.175c.319.928-1.403 6.126-1.403 6.126l-.701-.99c.068-1.162-.249-1.985-.558-2.498a3.094 3.094 0 0 0-.075-.12l.122-.042c-.047-.634-1.05-1.6-1.584-2.073v-.204c.033-.757.334-1.556 0-2.242-.378-.783-1.483-1.177-1.576-2.036-.056-.513.287-.977.439-1.47.362-1.183-.39-2.389-1.108-3.407a4.75 4.75 0 0 0-.88-1.023 4.253 4.253 0 0 0-1.055-.57c-1.052-.43-2.128-.645-3.213-.94-1.042-.279-2.002-.412-3.06-.061a1.5 1.5 0 0 0-.664.385c-.252.285-.285.69-.45 1.03-.266.547-.839.873-1.346 1.224-.506.35-1.015.831-1.017 1.435 0 .858.97 1.398 1.295 2.197.303.744 0 1.573-.169 2.357-.07.254-.077.521-.02.778.067.191.168.369.298.524.201.268.417.518.63.773l-.098.039c-1.785-.185-2.932 2.103-2.932 2.103.082.018.16.038.238.06l-.076.1a9.795 9.795 0 0 0-1.31 2.314l-1.463 1.98s-.32-4.95.447-6.064c.766-1.113-.701-1.794-.701-1.794s-3.192-3.589-3.635-3.28c-.443.31 1.084 4.208 2.423 4.827 0 0 .133 1.237-.133 2.041-.16.509-1.02 5.878-1.02 5.878s-.765 4.516 2.743 2.283c2.278-1.448 3.75-3.94 4.5-5.506.053-.11.102-.215.148-.316.035.167.058.335.07.504l.133 5.174a7.918 7.918 0 0 1-.806 3.696l-1.562 3.2.174.054-.105.153c-1.03 1.53-2.78 4.97.823 6.722l4.788.619-.255 1.237s-1.977 3.773-2.551 6.372a19.215 19.215 0 0 1-1.659 4.578l.148.08c-.03.034-.063.07-.093.108-.29.33-.482.736-.553 1.171l-.65.93s-.255 3.835.256 4.764c.28.508 1.206.83 1.995 1.018 1.17.28 2.114-.94 1.493-1.946L85.377 68h-.012c-.133-.625-.54-2.563-.407-3.299.038-.209.072-.417.09-.63.032-.278.116-.548.247-.796.021-.041.044-.082.066-.122l.07.03c.214.092.425.18.626.256-.311.286-.532.878-.266 2.096 0 0 .025 3.048.255 3.527.23.48 2.805 1.113 3.252.62.447-.495-.287-2.198-.287-2.198l-.023.016c-.147-.987-.33-2.754.119-3.45.18-.28.356-.57.513-.842l.097-.168c.833.42 1.713.735 2.195.516 0 0 2.104-4.95 1.976-5.568-.128-.618 3.252-7.61 3.252-7.61s2.868-3.223-.637-5.445a44.284 44.284 0 0 0-2.514-1.504l-.493-2.605a9.615 9.615 0 0 1 .133-4.118l.532-2.049.043-.174s1.34-2.784 1.276-4.084a.949.949 0 0 1 .033-.3c.015.062.03.126.048.194.352 1.35.815 2.67 1.386 3.942 1.017 2.318 2.527 2.134 3.354 1.805.36-.14.625-.454.706-.835.298-1.442 1.116-5.483 1.168-6.6.046-.872.153-1.74.32-2.598 2.098-1.24 3.883-3.404 3.436-3.838z"/>
        <path fill="#F8BDC5" d="M90 62.67s-.346.564-.82 1.24c-.185.267-.391.554-.602.83-.75.974 0 4.077 0 4.077l-1.64.183-1.638-.666-.3-2.252v-1.647l1.868-1.7.82-.735 2.312.67z"/>
        <path fill="#000" d="M88.861 63.727s-.301.564-.714 1.241c-.63-.315-1.24-.665-1.826-1.048l-.125-.083-.067-.045.714-.736 2.018.67z" opacity=".1"/>
        <path fill="#5E52AD" d="M95.847 50.774s-3.527 6.978-3.393 7.596c.134.618-2.063 5.558-2.063 5.558-.501.22-1.422-.096-2.29-.513a18.247 18.247 0 0 1-1.894-1.082l-.128-.084-.077-.051 5.789-14.884-5.122-3.487-.379-.259L84 42l6.993 1.174s.243-.029 1.53.64c.617.32 1.475.8 2.66 1.522 3.656 2.227.664 5.438.664 5.438z"/>
        <path fill="#000" d="M95.833 50.777s-3.497 6.966-3.364 7.583c.133.616-2.046 5.548-2.046 5.548-.496.219-1.41-.096-2.27-.513a18.061 18.061 0 0 1-1.878-1.08l-.127-.083-.077-.051 5.74-14.858-5.078-3.48-.376-.258-2.27-1.566 6.933 1.171s.241-.028 1.517.639c.612.32 1.463.799 2.639 1.52 3.624 2.223.657 5.428.657 5.428z" opacity=".03"/>
        <path fill="#5D3E53" d="M87.277 64.006s-1.758-.223-1.148 2.113c0 0 .026 2.738.27 3.164.245.426 2.976 1 3.449.557.472-.445-.305-1.973-.305-1.973s-1.995 1.195-2.536-.084c-.542-1.28.27-3.777.27-3.777z"/>
        <path fill="#F8BDC5" d="M86.935 63.216c-.186.164-.338.36-.447.576-.135.244-.221.51-.254.784a6.454 6.454 0 0 1-.09.62c-.164.867.463 3.439.463 3.439L84.114 69l-.917-.913-.197-2.01a6.81 6.81 0 0 0 .393-2.132c0-.524.288-.992.575-1.333.195-.228.418-.433.665-.612 0 0 2.827.79 2.302 1.216z"/>
        <path fill="#000" d="M85.883 64.324c-.177.165-.32.36-.424.576a36.457 36.457 0 0 1-2.36-1.168l-.028-.015a3.71 3.71 0 0 1 .631-.612s2.68.792 2.18 1.219z" opacity=".1"/>
        <path fill="#5E52AD" d="M93.656 48.886s-1.64 2.888-2.693 5.284c-.69 1.573-2.116 5.321-3.019 7.707l-.132.353c-.397 1.056-.661 1.77-.661 1.77a1.818 1.818 0 0 1-.516-.071 6.128 6.128 0 0 1-.515-.156l-.208-.074a12.953 12.953 0 0 1-.646-.255 38.795 38.795 0 0 1-2.56-1.21l-.153-.08a18.622 18.622 0 0 0 1.713-4.55c.59-2.58 2.626-6.322 2.626-6.322l.263-1.23-4.925-.615c-3.71-1.735-1.908-5.156-.848-6.674.18-.264.376-.519.585-.763l3.94.807s.621.186 2.001.757l.634.27c.774.332 1.725.76 2.875 1.308 3.879 1.835 2.239 3.744 2.239 3.744z"/>
        <path fill="#5D3E53" d="M85.81 67.951a1.356 1.356 0 0 1-1.496 2.008c-.785-.194-1.715-.527-1.995-1.051-.51-.958-.256-4.918-.256-4.918l.672-.99s-.351 4.375.48 4.754c.83.38 2.587.178 2.587.178l.008.02z"/>
        <path fill="#85555C" d="M85.46 17.202a1.505 1.505 0 0 0-.665.37c-.25.272-.277.661-.447.987-.263.519-.832.836-1.337 1.167-.505.331-1.008.797-1.011 1.375 0 .823.971 1.339 1.287 2.103.301.713 0 1.506-.168 2.257-.07.243-.076.498-.019.744.066.183.167.353.297.502.612.778 1.372 1.469 1.78 2.354.312.674.398 1.417.48 2.147.117 1.05.235 2.12.022 3.159a.3.3 0 0 0 0 .19c.036.06.093.106.162.13a3.54 3.54 0 0 0 2.608.12c.85-.294 1.537-.9 1.899-1.677.277-.587.384-1.297.933-1.678a.483.483 0 0 1 .224-.095c.13.004.255.043.36.113.713.36 1.577.371 2.372.223.48-.09.971-.249 1.289-.599.626-.695.277-1.734.319-2.64.033-.726.331-1.491 0-2.148-.375-.75-1.475-1.125-1.566-1.945-.056-.49.286-.935.437-1.408.36-1.132-.387-2.286-1.1-3.26a4.6 4.6 0 0 0-.873-.98 4.28 4.28 0 0 0-1.048-.545c-1.045-.41-2.11-.618-3.19-.898-1.036-.277-1.988-.405-3.044-.068z"/>
        <path fill="#F8BDC5" d="M89.892 33H86.49v-5.902c.1-.567.16-1.142.177-1.719v-.59c-.032-.704-.168-1.407-.525-1.836-.938-1.13 3.048-.941 3.048-.941.122.519.281 1.027.475 1.52.289.77.673 1.494 1.142 2.154.413.587.942 1.07 1.55 1.412C94.697 28.354 89.891 33 89.891 33z"/>
        <path fill="#000" d="M90.835 24.58c-.914.974-2.413 1.454-3.893 1.245-.042-.698-.219-1.395-.682-1.82-1.218-1.12 3.958-.934 3.958-.934a9.28 9.28 0 0 0 .617 1.508z" opacity=".1"/>
        <circle cx="88" cy="22" r="3" fill="#F8BDC5"/>
        <path fill="#F8BDC5" d="M101.402 27.851c-.17.852-.28 1.713-.326 2.578-.053 1.106-.893 5.117-1.2 6.549-.079.373-.351.684-.726.83-.851.326-2.4.509-3.44-1.791a24.386 24.386 0 0 1-1.423-3.912A9.99 9.99 0 0 1 94 30.737l2.294-1.167c.215.19.398.41.541.652.317.51.643 1.327.574 2.479l.717.982s1.767-5.157 1.433-6.078c-.334-.92 1.048-1.167 1.048-1.167s3.863-2.822 4.322-2.394c.458.43-1.366 2.578-3.527 3.807zM85 28.776c-.17.463-.367.918-.587 1.361-.735 1.5-2.175 3.89-4.405 5.272-3.431 2.132-2.682-2.191-2.682-2.191s.84-5.14.998-5.626c.25-.77.124-1.954.124-1.954-1.31-.593-2.807-4.323-2.371-4.62.436-.297 3.552 3.14 3.552 3.14s1.435.648.683 1.717c-.753 1.07-.437 5.804-.437 5.804l1.444-1.892a9.32 9.32 0 0 1 1.282-2.214c.273-.354.465-.568.465-.568L85 28.775z"/>
        <path fill="#000" d="M96.917 29.857c-.48.186-2.338.973-2.544 2.1a12.322 12.322 0 0 1-.286-1.527l2.286-1.302c.217.211.4.457.544.729zM84.87 30.294a17.412 17.412 0 0 1-.678 1.68c-.098-.723-.5-2.572-2.094-3.17.316-.436.537-.7.537-.7l2.236 2.19zM89.608 33.923H86.04v-6.134c.106-.59.168-1.187.186-1.786.734.751.552 1.916.552 1.916l1.906 4.571.924-4.041-.307-.522 1.265-1.597a4.97 4.97 0 0 0 1.625 1.467c2.458 1.297-2.583 6.126-2.583 6.126zM93.93 44.899s-2.998-.194-5.6-.286l-.26-.01c-.37-.011-.723-.02-1.068-.028-2.525-.05-5.38-.768-5.866-.894.182-.23.379-.451.59-.665l3.958.706s.624.163 2.011.663l-2.275-1.369 6.933 1.022s.242-.025 1.517.556l.06.305z" opacity=".1"/>
        <path fill="#ED677B" d="M90.515 29.404l-.309-.463 1.372-1.54s2.828 1.301 3.57 1.016c0 0 1.791 1.396 1.852 2.203 0 0-2.594.811-2.533 2.031.06 1.22-1.231 3.826-1.231 3.826l-.541 2.084a8.721 8.721 0 0 0-.135 3.859l.493 2.58s-3.892-.29-6.492-.348c-2.599-.058-5.56-.985-5.56-.985l1.516-2.994a7.222 7.222 0 0 0 .782-3.463l-.135-4.847s-.123-2.435-2.164-2.84c0 0 1.112-2.146 2.84-1.972 0 0 2.519-.986 3.267-.32.747.667.563 1.711.563 1.711l1.916 4.062.929-3.6z"/>
        <path fill="#000" d="M86.026 20.815c.515 0 .92-.486 1.434-.461.267.012.496.164.716.3a9.27 9.27 0 0 0 2.738 1.125c.38.09.784.157 1.165.075.382-.083.74-.35.783-.699a1.07 1.07 0 0 0-.067-.454c-.432-1.34-1.41-2.49-2.742-3.223-.534-.292-1.185-.514-1.776-.332-.533.164-.877.609-1.263.975-.29.274-.621.513-.982.71-.281.152-.702.25-.864.528-.304.517.174 1.451.858 1.456z" opacity=".1"/>
        <path fill="#85555C" d="M85.977 21.882c.529 0 .944-.506 1.473-.48.274.013.509.17.735.312.855.534 1.806.93 2.812 1.17.39.093.804.163 1.196.077.392-.086.76-.364.804-.726.011-.16-.012-.32-.069-.472-.444-1.393-1.448-2.588-2.816-3.35-.548-.303-1.217-.534-1.823-.344-.548.17-.901.632-1.298 1.013a4.868 4.868 0 0 1-1.008.738c-.289.157-.721.26-.887.548-.313.543.179 1.507.88 1.514z"/>
        <path fill="#000" d="M84 35s2.906 2.06 4.805.459l.949.115s1.577 2.135 3.246 1.18M98.158 33s-.493 1.52-.247 2M78.945 33s.247 1.52 0 2" opacity=".05"/>
        <path fill="#7CBE35" d="M129.57 59s-6.108 5.594-2.66 13.895C130.36 81.195 121 95 121 95s.1-.013.292-.043c12.546-2.028 18.778-15.168 11.803-24.93-2.6-3.63-4.73-7.887-3.525-11.027z"/>
        <path fill="#000" d="M129.57 59s-6.108 5.595-2.66 13.896C130.36 81.196 121 95 121 95s.1-.013.292-.043c12.546-2.028 18.778-15.168 11.803-24.93-2.6-3.63-4.73-7.887-3.525-11.027z" opacity=".1"/>
        <path stroke="#535461" d="M129.726 59s-3.108 6.857 0 12.451S130.253 92.744 122 95"/>
        <path fill="#7CBE35" d="M140 82.07s-6.303-1.013-6.877 4.686c-.574 5.7-12.123 6.49-12.123 6.49l.217.144c9.531 6.315 18.644 4.022 17.27-4.363-.507-3.115-.465-6.246 1.513-6.957z"/>
        <path stroke="#535461" d="M140 82s-4.894 1.106-4.49 5.69c.404 4.583-7.263 10.076-14.51 5.721"/>
        <path fill="#A8A8A8" d="M134 91.946s-4.84-1.007-6.13-2.351c-1.291-1.344-7.098-3.693-7.743-2.01-.645 1.684-8.711 7.389-3.227 8.396 5.484 1.007 12.905 1.34 14.518.67 1.613-.67 2.582-4.705 2.582-4.705z"/>
        <path fill="#000" d="M116.9 96.385c5.485.99 12.906 1.318 14.52.659 1.228-.503 2.082-2.92 2.42-4.044l.16.034s-.968 3.963-2.58 4.622c-1.614.66-9.036.331-14.52-.658-1.584-.286-2.037-.958-1.866-1.807.134.554.686.98 1.865 1.194z" opacity=".2"/>
    </g>
</svg>
