<svg xmlns="http://www.w3.org/2000/svg" width="320" height="271" viewBox="0 0 320 271">
    <g fill="none" fill-rule="evenodd">
        <ellipse cx="29.5" cy="231" fill="#7CBE35" opacity=".1" rx="13.5" ry="2"/>
        <ellipse cx="225.5" cy="234" fill="#7CBE35" opacity=".1" rx="13.5" ry="2"/>
        <ellipse cx="192.5" cy="253" fill="#7CBE35" opacity=".1" rx="13.5" ry="2"/>
        <ellipse cx="73.5" cy="215" fill="#7CBE35" opacity=".1" rx="13.5" ry="2"/>
        <ellipse cx="78" cy="254" fill="#7CBE35" opacity=".1" rx="78" ry="17"/>
        <path fill="#7CBE35" d="M308.75 186.283c-2.1 5.059-4.855 9.908-8.711 13.628-4.698 4.532-10.532 7.004-16.78 8.186-1.84.343-3.7.584-5.568.72-4.937.38-9.992.128-14.84-.399a175.516 175.516 0 0 1-40.522-9.378 170.11 170.11 0 0 1-8.278-3.212c-11.138-4.653-22.653-10.587-34.502-8.746-5.742.894-11.138 3.602-16.893 4.407a30.22 30.22 0 0 1-12.069-.858c-1.9-.508-3.76-1.15-5.569-1.922a63.376 63.376 0 0 1-11.57-6.549c-8.681-6.064-16.471-13.582-25.61-18.835-10.077-5.792-21.232-8.546-32.596-10.6-1.85-.333-3.706-.652-5.569-.955-5.257-.868-10.528-1.67-15.724-2.62-5.005-.923-10.1-2.053-14.456-4.83-3.109-1.98-5.723-4.725-8.121-7.616a90.86 90.86 0 0 1-11.79-18.41c-4.812-9.869-8.049-20.629-10.034-31.762-.059-.327-.115-.655-.17-.982-1.867-10.914-2.549-22.198-2.342-33.4l.02-.982c.127-5.53.47-11.039.982-16.468.367-3.818.858-7.78 2.837-10.989 1.978-3.209 5.202-5.268 8.412-6.984C33.485 9.173 47.083 7.07 62.342 10.73c2.45.586 4.89 1.218 7.331 1.873 1.858.498 3.715 1.012 5.57 1.53 12.818 3.572 25.604 7.374 38.854 8.513 1.28.111 2.561.197 3.843.255 2.535.118 5.071.145 7.607.079 6.53-.183 13.04-.853 19.471-2.004 1.861-.32 3.717-.677 5.57-1.067 7.992-1.667 15.913-3.89 23.707-6.35a465.742 465.742 0 0 0 4.77-1.532c3.577-1.17 7.154-2.361 10.738-3.52 10.699-3.468 21.45-6.634 32.526-7.911.948-.107 1.895-.202 2.843-.285.908-.079 1.818-.141 2.726-.187 17.182-.917 34.56 3.226 49.793 11.703a93.638 93.638 0 0 1 12.917 8.658c4.861 3.88 9.411 8.297 12.877 13.605 3.377 5.17 5.569 10.976 6.83 17.08.069.327.135.655.193.982 1.851 9.853 1.275 20.42-.802 30.293a151.02 151.02 0 0 1-.695 3.107c-.075.328-.154.655-.232.982-2.24 9.336-5.104 18.645-4.357 28.19.095 1.202.246 2.394.442 3.573.056.327.112.655.174.982 1.46 7.787 4.783 15.174 6.774 22.886a70.478 70.478 0 0 1-3.063 44.117z" opacity=".1"/>
        <path fill="#7CBE35" fill-rule="nonzero" d="M283.702 52.106H311c-.06-.328-.125-.656-.194-.984h-27.104V15.078a95.2 95.2 0 0 0-5.579-3.358v39.402h-49.878V0c-.909.046-1.821.108-2.73.187s-1.9.177-2.848.285v50.65h-71.208l-.17-.187 38.796-42.543c-3.59 1.16-7.173 2.354-10.756 3.525L150.803 43.2V19.811c-1.857.389-3.717.745-5.579 1.069v23.398L125.72 22.887a110.7 110.7 0 0 1-7.62-.08l25.648 28.128-.17.187H75.322V14.029a562.163 562.163 0 0 0-5.578-1.531v38.624H7.02l-.02.984h62.751v33.45H9.346c.056.327.112.655.17.983h60.235v31.81H19.568c.157.328.318.656.482.984h49.701v32.55c1.864.307 3.724.626 5.579.958v-33.508h69.894v69.522a41.558 41.558 0 0 0 5.579 1.925v-71.447h71.864v79.875c1.85.669 3.71 1.304 5.578 1.905v-81.78h49.878V209a50.654 50.654 0 0 0 5.579-.721v-88.946h21.815c-.063-.328-.118-.656-.174-.984h-21.658v-31.81h25.563c.078-.328.157-.656.233-.984H283.7v-33.45zm-5.579 0v33.45h-49.878v-33.45h49.878zm-55.456 33.45h-71.864v-33.45h71.864v33.45zM75.33 52.105h68.91l.984.895v32.554H75.33v-33.45zm0 66.243v-31.81h69.894v31.81H75.33zm75.473 0v-31.81h71.864v31.81h-71.864zm127.32 0h-49.878v-31.81h49.878v31.81z" opacity=".1"/>
        <path fill="#7CBE35" d="M254.136 29.094h-.437a1.06 1.06 0 0 0 .534-.861c0-.677-.84-1.233-1.864-1.233h-13.065c-1.025 0-1.867.556-1.867 1.233 0 .68.842 1.236 1.867 1.236h.438c-.313.18-.514.504-.534.862 0 .578.61 1.068 1.426 1.2h-3.767c-1.028 0-1.867.555-1.867 1.233 0 .677.839 1.236 1.867 1.236h13.068c1.028 0 1.867-.556 1.867-1.236 0-.579-.61-1.066-1.43-1.197h3.764c1.025 0 1.864-.556 1.864-1.236 0-.68-.839-1.237-1.864-1.237zM114.136 41.098h-.437c.31-.182.51-.505.534-.862 0-.68-.84-1.236-1.867-1.236H99.297c-1.027 0-1.866.556-1.866 1.236 0 .678.839 1.233 1.866 1.233h.435c-.31.182-.51.505-.53.862 0 .582.61 1.068 1.425 1.2h-3.76c-1.028 0-1.867.555-1.867 1.236 0 .68.839 1.233 1.867 1.233h13.068c1.028 0 1.867-.556 1.867-1.233 0-.582-.613-1.069-1.43-1.2h3.764c1.025 0 1.864-.556 1.864-1.236 0-.68-.839-1.233-1.864-1.233zM274.136 91.095h-.437c.31-.181.51-.504.534-.861 0-.678-.84-1.234-1.867-1.234h-13.069c-1.027 0-1.866.556-1.866 1.234 0 .677.839 1.233 1.866 1.233h.435c-.31.182-.51.505-.53.862 0 .579.61 1.069 1.425 1.2h-3.763c-1.025 0-1.864.557-1.864 1.234 0 .678.839 1.237 1.864 1.237h13.071c1.025 0 1.867-.556 1.867-1.237 0-.579-.613-1.066-1.43-1.197h3.764c1.025 0 1.864-.556 1.864-1.237s-.839-1.234-1.864-1.234z" opacity=".1"/>
        <path fill="#EAECF0" d="M74.382 197L225 214.138V219L74 201.28zM74 215h-3v-71l2.159.625.024 2.129z"/>
        <path fill="#D3DAE1" d="M76 214.845L74.778 216l-.756-68.852L74 145h1.444l.02 2.277zM30 212.724L72 198v1.392L30 214z"/>
        <path fill="#EAECF0" d="M30.75 217l-.75-3.366L72 199v2.902zM225 140v94h-1.9l-.097-87.201-.003-2.788z"/>
        <path fill="#D3DAE1" d="M227 139v93.201l-2 .799v-93.543zM192 231.887L222.822 214l2.178 1.314L192 234z"/>
        <path fill="#EAECF0" d="M192.964 237l-.964-3.877L225 215v3.76zM189 155.142l.107 98.858H192l-.429-100z"/>
        <path fill="#D3DAE1" d="M193 153v100.2l-1.53.8-.47-100.086.188-.085z"/>
        <path fill="#EAECF0" d="M30 232h-2.968l-1.017-88.475L26 142h2.839l.022 1.74z"/>
        <path fill="#D3DAE1" d="M32 231.314l-1.919.686-1.06-88.26L29 142h2.042l.017 1.91z"/>
        <path fill="#000" d="M191 153.744l2-.744v3.487l-1.948.513zM227 139v5.749l-1.645.518-2.352.733-.003-2.69 2.355-3.868z" opacity=".1"/>
        <path fill="#D48A9B" d="M227 128v16.257L191.23 156l-.23-17.387z"/>
        <path fill="#EFC6CD" d="M26 126.998L72.987 118 227 128.152 191.019 139z"/>
        <path fill="#000" d="M30.985 141l.015 2-1.734-.178-2.254-.225L27 141zM75 147l-1.666-.133-2.334-.184V144l2.308.65h1.67z" opacity=".1"/>
        <path fill="#D48A9B" d="M26 126v15.583L191 156l-.229-17.906z"/>
        <path fill="#D48A9B" d="M157 145h-22v-8l22 1.552z"/>
        <path fill="#000" d="M157 145h-22v-8l22 1.552z" opacity=".1"/>
        <path fill="#000" d="M107 135v12.589L190 154v-13.405l-32.373-1.866-3.216 2.915-13.2-.933-4.706-3.498z" opacity=".1"/>
        <path fill="#FFF" d="M106 135v12.59l83 6.41v-13.403l-32.373-1.866-3.212 2.916-13.204-.933-4.706-3.498z"/>
        <path fill="#D48A9B" d="M55.027 131L75 132.448 74.766 139H61.725L53 135.46z"/>
        <path fill="#000" d="M55.027 131L75 132.448 74.766 139H61.725L53 135.46z" opacity=".1"/>
        <path fill="#000" d="M29 130v11.068L104 147v-11.753l-28.927-1.709-3.085 2.28-11.663-.682-4.8-2.967z" opacity=".1"/>
        <path fill="#FFF" d="M28 129v11.068L103 146v-11.75l-28.927-1.712-3.085 2.283-11.663-.685-4.8-2.967z"/>
        <path fill="#000" d="M31 213.189l1-.189-.503 3.902L31 217zM189.605 129l10.395.7-17.227 5.3-8.773-.654z" opacity=".1"/>
        <path fill="#FFF" d="M189.605 129l10.395.701L182.773 135l-8.773-.651z"/>
        <path fill="#D3DAE1" d="M188 130.08c.462-.28.954.25 1.456.385.28.078.571 0 .852.078.575.108 1.146.659 1.692.378M187 130.083c.459-.286.954.245 1.456.38.28.078.571 0 .855.078.575.11 1.143.661 1.689.38M186 131.08c.462-.28.957.25 1.456.385.28.078.571 0 .855.078.575.108 1.143.659 1.689.378"/>
        <circle cx="16" cy="242" r="3" fill="#535461"/>
        <circle cx="22" cy="254" r="3" fill="#535461"/>
        <circle cx="77" cy="256" r="3" fill="#535461"/>
        <circle cx="89" cy="240" r="3" fill="#535461"/>
        <path fill="#535461" d="M50 188h4v24h-4z"/>
        <path fill="#000" d="M50 208h4v4h-4z" opacity=".1"/>
        <path fill="#3A3768" d="M50 209h5v27h-5z"/>
        <path fill="#3A3768" d="M88.33 235.527L53 234v6h41c-.834-2.584-3.087-4.36-5.67-4.473z"/>
        <path fill="#3A3768" d="M18.67 235.527L54 234v6H13c.833-2.584 3.087-4.362 5.67-4.473z"/>
        <path fill="#3A3768" d="M49.668 234.574L21.91 248.426c-2.395 1.203-3.91 3.675-3.91 6.381v.423l32.418-14.307 4.561-.347L81.936 258a7.155 7.155 0 0 0-2.902-6.761L54.979 234l-5.31.574z"/>
        <path fill="#000" d="M54 187v2.952c-.7.032-1.415.048-2.143.048-.63 0-1.248 0-1.857-.037V187h4z" opacity=".1"/>
        <ellipse cx="52" cy="185" fill="#3A3768" rx="14" ry="4"/>
        <path fill="#000" d="M66 185.003c-.027.45-.243.869-.597 1.158-1.73 1.647-7.076 2.839-13.4 2.839-6.185 0-11.428-1.148-13.283-2.735a1.726 1.726 0 0 1-.72-1.262c0-2.208 6.27-4.003 14.003-4.003C59.737 181 66 182.792 66 185.003z" opacity=".1"/>
        <path fill="#000" d="M66 184.796a1.517 1.517 0 0 1-.597 1.1 81.543 81.543 0 0 1-3.014-.756s-12.341.641-23.67.86a1.623 1.623 0 0 1-.719-1.198c0-2.097 6.27-3.802 14.003-3.802C59.737 181 66 182.696 66 184.796z" opacity=".1"/>
        <path fill="#3A3768" d="M16.131 130.192s4.73 12.797 4.499 20.45c-.23 7.654-3.922 22.048-3.922 22.048s-3.687 11.654 5.767 12.683c9.455 1.028 40.353-.686 40.353-.686s11.535 3.425 15.219 1.94c1.434-.575 2.676-1.842 3.658-3.178a6.598 6.598 0 0 0 1.187-5.113 6.642 6.642 0 0 0-2.927-4.373 20.075 20.075 0 0 0-5.56-2.364 4.504 4.504 0 0 0-1.268-.153l-40.288.787s-4.495-.686-3.687-5.14c.807-4.454 2.188-18.165 2.188-18.165s.23-16.68-7.84-21.362c-8.07-4.682-7.379 2.626-7.379 2.626z"/>
        <path fill="#000" d="M16.131 130.195s4.73 12.792 4.499 20.444c-.23 7.653-3.922 22.048-3.922 22.048s-3.687 11.649 5.767 12.677c9.455 1.028 40.353-.689 40.353-.689s11.534 3.428 15.219 1.959c1.433-.578 2.676-1.845 3.658-3.177a6.6 6.6 0 0 0 1.187-5.114 6.644 6.644 0 0 0-2.927-4.373 20.275 20.275 0 0 0-5.56-2.364 4.385 4.385 0 0 0-1.268-.15l-40.288.774s-4.495-.686-3.687-5.142c.807-4.457 2.188-18.16 2.188-18.16s.23-16.676-7.84-21.361c-8.07-4.685-7.379 2.628-7.379 2.628z" opacity=".1"/>
        <path fill="#3A3768" d="M17.132 130.191s4.729 12.795 4.498 20.447c-.23 7.653-3.922 22.044-3.922 22.044s-3.687 11.652 5.764 12.68c9.452 1.028 40.353-.686 40.353-.686s11.534 3.425 15.222 1.96c1.434-.579 2.676-1.845 3.658-3.18a6.596 6.596 0 0 0 1.187-5.113 6.64 6.64 0 0 0-2.927-4.372 20.075 20.075 0 0 0-5.56-2.38 4.505 4.505 0 0 0-1.268-.153l-40.287.787s-4.495-.686-3.688-5.14c.807-4.452 2.188-18.16 2.188-18.16s.23-16.677-7.84-21.359c-8.07-4.682-7.378 2.625-7.378 2.625z"/>
        <path fill="#434175" d="M99.181 240.387v4.247s19.755.366 24.106.366c4.35 0 10.34-2.196 10.696-3.955.356-1.76-4.992-3.223-6.99-3.293-1.996-.07-2.065-.88-4.635-2.273-1.448-.786-3.648-3.066-5.289-4.902-1.265-1.417-2.197-2.568-2.197-2.568s-10.627-.219-13.693 1.537c-.707.407-1.194 1.199-1.527 2.183-1.105 3.28-.47 8.658-.47 8.658z"/>
        <path fill="#000" d="M99 232c2.176-.854 14.907-1.185 17-1.235-1.235-1.52-2.144-2.756-2.144-2.756s-10.373-.234-13.366 1.65c-.69.436-1.165 1.282-1.49 2.341z" opacity=".1"/>
        <path fill="#565387" d="M42 165.86l1.155.703.433.264 1.682 1.016c8.994 5.452 33.527 20.228 34.872 20.122.35-.03 1.407-.188 2.866-.429.387-.063.804-.129 1.24-.204 5.62-.94 14.958-2.64 16-3.108 1.431-.66 1.146 2.23.572 4.678-.574 2.447-1 14.184-.358 15.689.643 1.504.358 3.958.358 3.958l-.857 13.169.574 2.797s-1.932 1.584-1.144 2.517c.787.934.072 4.968.072 4.968 2.296-.864 17.818-1.151 17.818-1.151s-.656-5.76-.073-7.126c.584-1.365.145-9.5.145-9.5s.357-6.188-.286-7.627c-.642-1.438.214-10.651.214-10.651s.574-5.47.715-16.626c.14-11.156-6.298-11.513-6.298-11.513s-.856-.069-2.162-.194c-2.548-.248-6.8-.716-9.64-1.32a16.54 16.54 0 0 1-1.722-.462c-3.507-1.2-15.312-1.247-17.244-.382-1.86.831-3.72.062-3.857 0L75.572 163l-14.354 1.23-1.518.132-14.131 1.211-.984.086-2.585.201z"/>
        <path fill="#000" d="M99.114 176.643c4.121 2.051 8.054-5.22 9.886-9.32-2.52-.247-6.722-.717-9.53-1.323-1.844 3.147-4.309 8.68-.356 10.643z" opacity=".1"/>
        <path fill="#EE8E9E" d="M87 127.962c.085.487.253.955.496 1.385 1.51 3.095 5.887 9.468 5.887 9.468a10.2 10.2 0 0 1 3.215 3.252c1.193 2.058 1.544 6.88 1.544 6.88s2.665 10.71 3.926 12.203c.643.745.35 1.187-.087 1.444a6.276 6.276 0 0 0-2.212 2.097c-1.84 2.988-4.775 8.923-.643 10.958 5.61 2.767 10.874-11.735 10.874-11.735s-1.055-10.285-1.334-12.057c-.28-1.772-1.965-9.081-1.965-9.081s-1.193-3.122-1.894-5.32c-.7-2.198-2.804-4.754-2.804-4.754s-3.79-7.66-4.842-8.795a41.709 41.709 0 0 0-1.765-1.75c-.685-.65-1.25-1.157-1.25-1.157s-7.216 5.264-7.145 6.962z"/>
        <path fill="#434175" d="M38 239.041l13.139 5.877s17.027.362 20.005-.436c2.979-.798 2.317-4.134-1.588-4.789-3.906-.655-4.836-2.391-6.136-3.19-.877-.538-3.991-4.02-5.92-6.225-.93-1.061-1.59-1.83-1.59-1.83s-2.528-6.747-9.53-5.224a7.18 7.18 0 0 0-3.413 1.812c-3.776 3.512-4.103 10.46-4.103 10.46L38 239.041z"/>
        <path fill="#000" d="M43 167.092l1.7 1.004c9.09 5.394 33.881 20.008 35.24 19.903.355-.029 1.422-.186 2.897-.424.392-.062.813-.127 1.253-.202l.05-.082a16.17 16.17 0 0 0 1.658-3.99c1.518-5.694-6.004-10.036-6.004-10.036l-1.59-1.217c-1.807-2.996-14.824-5.828-14.824-5.828l-1.678-1.125-.898-.594-.235-.153L58.533 163l-10.196.711-3.03 1.916-.331.202-1.108.714-.868.549zM43 226.03c2.663 9.623 13.79 6.479 13.79 6.479l.21-1.22c-.896-1.062-1.531-1.832-1.531-1.832s-2.437-6.758-9.187-5.233A6.84 6.84 0 0 0 43 226.03z" opacity=".1"/>
        <path fill="#565387" d="M40.027 182.79c4.178 0 14.934 5.073 14.934 5.073 2.194 1.716 5.168 1.143 5.168 1.143s-5.23 5.358-5.084 7.575c.146 2.217-2.977 5.859-2.977 5.859l-9.632 19.217c.711 13.647 14.59 9.86 14.59 9.86l.567-3.215c.851-.43 2.127-4.716 2.127-4.716s0-1.713.847-2.214c.848-.5 2.62-5.646 2.62-5.646s3.824-6.5 3.61-7.355c-.214-.855 2.763-5.214 2.763-5.214s5.028-5 4.814-5.895c-.214-.894 4.045-5.469 4.045-5.469a14.343 14.343 0 0 0 3.76-4.428 16.499 16.499 0 0 0 1.623-4.002c1.198-4.604-3.347-8.328-5.162-9.602a11.627 11.627 0 0 0-.718-.471l-1.558-1.222c-.805-1.369-3.88-2.705-6.996-3.75a81.521 81.521 0 0 0-5.963-1.729c-.974-.239-1.559-.373-1.559-.373l-1.642-1.114-.578-.392-.53-.357L57.1 163l-4.441.327-5.545.397-2.964 1.925-1.415.917-5.535 3.603s-.146 1.372-.192 3.22v.435c-.075 3.71.325 8.966 3.02 8.966z"/>
        <path fill="#EE8E9E" d="M62 102.993l1.49 5.403s2.619 9.297 2.9 9.944c.283.647 7.13 7.206 7.425 7.348.295.142 4.015 2.312 4.015 2.312s.294-11.89 0-15.344c-.025-.76.037-1.52.184-2.265.45-2.711 1.591-6.684 2.538-9.746.79-2.566 1.448-4.488 1.448-4.488s-16.542-.723-15.975.935c.213.627.142 1.674-.062 2.724-.343 1.73-1.053 3.461-1.494 3.33-.43-.101-.87-.15-1.312-.15-.603-.026-1.157-.003-1.157-.003z"/>
        <path fill="#000" d="M66 98.98c4.14 3.68 10.056 4.031 14.554.866.79-2.677 1.446-4.682 1.446-4.682s-16.511-.755-15.945.975c.22.654.149 1.746-.055 2.842z" opacity=".1"/>
        <path fill="#EE8E9E" d="M61 89.497A12.5 12.5 0 1 0 73.5 77 12.44 12.44 0 0 0 61 89.497z"/>
        <path fill="#000" d="M62 103.01l1.49 5.399s2.615 9.29 2.897 9.937c.282.647 7.123 7.202 7.417 7.344.295.142 4.011 2.31 4.011 2.31s.295-11.881 0-15.334c-.024-.76.038-1.519.185-2.264l-.971 3.99.071 7.994.563.432-1.269 1.944v-1.442s-4.532-4.462-5.228-6.337c-.697-1.874-3.238-5.26-3.238-5.26s-2.914-4.951-2.966-5.826c-.055-.66-1.272-2.23-1.806-2.884-.602-.027-1.156-.004-1.156-.004zM86 127.67c.091.468.27.918.53 1.33 1.643-.15 7.23-1.098 8.47-6.89a68.613 68.613 0 0 0-1.34-1.11s-7.735 5.042-7.66 6.67zM37 174c1.454-1.04 2.839-2.454 3.665-2.844 1.226-.583 3.1-2.471 3.1-2.471s.476-.333 1.206-.76c1.338-.789 3.533-1.934 5.211-2.074 1.504-.127 6.507-.45 10.44-.696l5.132-.333s4.686-1.665 6.705-.583A21.164 21.164 0 0 0 77 165.904v-.433L75.486 163l-15.991 1.375L57.463 163l-10.166.726-3.017 1.958-2.604.223 1.163.71-5.634 3.663s-.172 1.625-.205 3.72z" opacity=".1"/>
        <path fill="#DFE5EE" d="M34.913 173.95a6.5 6.5 0 0 0 2.09-1.065c1.436-1.017 2.803-2.403 3.617-2.786 1.214-.572 3.068-2.426 3.068-2.426s3.784-2.57 6.352-2.782c.7-.06 2.165-.16 3.924-.275l5.825-.373 3.022-.19 2.64-.16s4.637-1.634 6.635-.572a21.054 21.054 0 0 0 4.494 1.635s.072-4.992.654-7.062c.582-2.07 1.354-5.85 1.354-5.85s.654-5.204 1.286-7.558c.63-2.354 3.14-15.478 4.425-16.348 1.285-.87 1.995.654 1.995.654s8.562-.144 8.706-9.557c0 0-3.997-3.995-4.281-4.992-.285-.997-4.065-4.708-4.065-4.708s-2.143-3.996-4.58-4.068a19.217 19.217 0 0 0-3.433.108l-2.06 8.38.071 7.919.572.428-1.285 1.926v-1.403s-4.579-4.423-5.279-6.277c-.7-1.854-3.27-5.215-3.27-5.215s-2.924-4.904-2.996-5.77c-.072-.867-2.07-3.15-2.07-3.15a5.071 5.071 0 0 0-1.214 0c-.18.012-.36-.013-.53-.075a7.168 7.168 0 0 0-3.564-.202c-2.466.513-6.214 1.448-7.248 2.57-1.57 1.713-3.853 3.354-6.423 10.485l13.84 4.992-1.183 2.253-11.015 20.925s-.367.595-.86 1.37c-.655 1.007-1.502 2.325-2.068 3.047-.997 1.285-.713 5.349-.713 5.349s-.212 1.926-.925 2.642c-.713.716-.576 3.348-.576 3.348l-1.854 6.918s-1.714 1.57-1.714 2.289c0 .719-1.354 2.71-1.354 2.71s-2.07 3.414-.01 2.917z"/>
        <path fill="#000" d="M44 145.404c.096.395.17.795.22 1.199 0 0 5.66 13.256 6.377 14.044.22.244 1.054 1.436 2.099 2.957l1.199 1.77c2.165 3.215 4.6 6.868 4.6 6.868l5.301 4.657s11.538.923 15.204-2.821c-.443-.309-.726-.473-.726-.473l-1.577-1.225c-.815-1.373-3.926-2.713-7.08-3.761-2.903.02-5.279.256-5.279.256l-.755-1.99-.789-2.076-4.02-10.537s-2.586-13.325-3.447-13.972c-.86-.647-.657-2.65-.657-2.65s1.577-5.66 1.002-6.448c-.575-.789.933-6.596.933-6.596a5.948 5.948 0 0 0-.69-1.606l-11.064 21.021s-.355.595-.851 1.383z" opacity=".1"/>
        <path fill="#EE8E9E" d="M56.725 124.032s-1.494 5.755-.923 6.537-.998 6.394-.998 6.394-.212 1.99.652 2.628c.865.638 3.423 13.855 3.423 13.855l5.514 14.497s17.257-1.706 15.478 3.694c-1.778 5.4-16.016 4.263-16.016 4.263l-5.267-4.618s-7.119-10.729-7.83-11.51c-.711-.782-6.336-13.927-6.336-13.927s-.284-2.629-1.495-3.98c-1.21-1.352-.284-3.632-.284-3.632s-1.494-17.187.072-19.246c1.566-2.058 12.38-1.136 14.01 5.045z"/>
        <path fill="#000" d="M108 180s-4.62 1.46-5.855 3.538C100.908 185.618 108 180 108 180zM106 175c-.146.216-6.372 6.356-5.982 7.84.389 1.484 5.982-7.84 5.982-7.84zM73 179s-6.423 3.331-6.971 4.781C65.48 185.231 73 179 73 179zM72 183s-6.116 2.345-6.939 2.934C64.238 186.522 72 183 72 183zM69 188.28s-2.434 1.397-3.776.3c-1.341-1.098 3.776-.3 3.776-.3zM80 136c-.148.222-9.304 16.697-11.722 17.942C65.861 155.187 80 136 80 136zM79 143c0 .353-8.484 18.778-9.88 18.998C67.724 162.218 79 143 79 143zM46 154s-4.152 9.426-5.769 9.979C38.615 164.532 46 154 46 154zM45 151s-1.168 3-1.877 3c-.709 0 1.877-3 1.877-3zM61 89.594A12.614 12.614 0 0 0 61.791 94a11.934 11.934 0 0 1 3.521-8.814 11.753 11.753 0 0 1 8.807-3.4c.606.026 1.324.17 1.57.723.096.297.146.608.148.92.183 1.415 1.606 2.299 2.944 2.76 1.338.46 2.828.753 3.798 1.79.887.95 1.14 2.315 1.576 3.546a5.097 5.097 0 0 0 1.219 2.001 12.653 12.653 0 0 0-3.488-13.272 12.43 12.43 0 0 0-13.458-2.17C63.911 80.103 61 84.613 61 89.593z" opacity=".1"/>
        <path fill="#603556" d="M84.147 77.934c-1.027-1.369-2.85-1.844-4.434-2.533-3.97-1.766-6.882-5.238-7.884-9.401a4.776 4.776 0 0 0 .484 6.042c-2.88-.192-6.061-.517-8.013-2.602-.444 1.503.885 3.21.16 4.602-.624 1.197-2.32 1.3-3.418 2.114-1.17.852-1.557 2.396-1.63 3.824-.073 1.427.08 2.89-.351 4.256-.332 1.038-.994 1.99-1.06 3.073a5.186 5.186 0 0 0 .53 2.332A20.979 20.979 0 0 0 61.817 95a11.451 11.451 0 0 1 2.56-9.899c2.366-2.734 5.887-4.242 9.54-4.084.606.026 1.325.17 1.57.709.097.29.147.592.15.897.181 1.376 1.606 2.238 2.945 2.686 1.339.45 2.83.739 3.801 1.747.888.927 1.14 2.257 1.578 3.456.437 1.2 1.282 2.456 2.571 2.602.295-1.782.594-3.577.411-5.385-.199-1.935-1.524-3.03-1.988-4.715-.504-1.766.45-3.402-.809-5.08z"/>
        <path fill="#000" d="M47.813 112.977l-4.513 2.695s-1.291 4.323-2.3 4.876c0 0 9.031-4.964 15.838 6.452 0 0-.214-1.489.716-2.197.93-.709.716-3.758.716-3.758.25-.483.47-.981.657-1.492.624-1.544-2.743-10.476-11.114-6.576z" opacity=".1"/>
        <path fill="#DFE5EE" d="M47.815 112.976l-4.516 2.69s-1.29 4.322-2.299 4.89c0 0 9.028-4.96 15.833 6.444 0 0-.214-1.487.719-2.195.933-.707.716-3.756.716-3.756.252-.48.471-.977.657-1.486.637-1.559-2.743-10.483-11.11-6.587z"/>
        <g fill="#000" opacity=".1">
            <path d="M64.82 73.838c-.017-1.16-.723-2.436-.38-3.582l.06.062c.083 1.185.757 2.432.32 3.52zM59.67 79.949c-.07 1.302.05 2.604-.25 3.871.11-.993.05-2.015.103-3.018.022-.476.086-.948.19-1.413-.02.198-.036.374-.043.56zM58.103 88.14c.02-.258.067-.513.144-.761.012.776.195 1.541.536 2.243a20.92 20.92 0 0 0 2.967 4.949c.04.426.104.85.193 1.27a20.987 20.987 0 0 1-3.306-5.366 5.172 5.172 0 0 1-.534-2.335zM72.647 72.008c-.28-.016-.567-.036-.85-.059a4.902 4.902 0 0 1-.484-3.669 4.732 4.732 0 0 0 1.334 3.728zM64.66 85.073c2.398-2.715 5.928-4.219 9.597-4.089.61.03 1.333.17 1.583.71.096.29.146.593.15.899.183 1.377 1.613 2.243 2.963 2.689 1.35.446 2.844.739 3.82 1.751.897.928 1.15 2.26 1.59 3.458.44 1.198 1.287 2.455 2.58 2.605l-.14.853c-1.296-.137-2.146-1.394-2.586-2.605-.44-1.211-.694-2.533-1.587-3.46-.977-1.01-2.477-1.303-3.823-1.75-1.347-.445-2.78-1.301-2.964-2.688a2.868 2.868 0 0 0-.15-.899c-.26-.54-.97-.684-1.58-.71-5.855-.267-11.029 3.692-12.166 9.309a11.627 11.627 0 0 1 2.713-6.073z"/>
        </g>
        <path fill="#3A3768" d="M141 112v13l-12-.997V112z"/>
        <path fill="#000" d="M141 122.968V124l-12-.968V122z" opacity=".1"/>
        <path fill="#3A3768" d="M145 125l-19-1.034c0-1.086.833-1.966 1.86-1.966l15.28 1.034c1.027 0 1.86.88 1.86 1.966zM168.992 115l-65.984-1.967a2.004 2.004 0 0 1-2.008-2.01V72.007A2.008 2.008 0 0 1 103.008 70l65.984 1.967c1.108 0 2.006.898 2.008 2.007v39.016c0 1.11-.899 2.01-2.008 2.01z"/>
        <path fill="#7CBE35" d="M169 112l-67-1.96V75l67 1.96z"/>
        <circle cx="135.5" cy="73.5" r="1" fill="#FFF"/>
        <path fill="#000" d="M141 113.989l-12-.197v.416h12zM119.238 126L136 127.058 132.428 132 114 130.105z" opacity=".1"/>
        <path fill="#3A3768" d="M119.238 126L136 127.058 132.428 132 114 130.105z"/>
        <path fill="#D5E1F4" d="M119.524 126l14.476.88-3.082 4.12L115 129.42z"/>
        <ellipse cx="290" cy="261" fill="#7CBE35" opacity=".1" rx="21" ry="3"/>
        <path fill="#7CBE35" d="M301.608 184s2.401 3.047-1.11 7.648c-3.513 4.602-6.398 8.491-5.237 11.352 0 0 5.3-8.546 9.61-8.664 4.31-.118 1.492-5.206-3.263-10.336z"/>
        <path fill="#000" d="M301.548 184c.21.294.376.615.494.954 4.256 4.797 6.524 9.271 2.434 9.382-3.81.105-8.38 6.636-9.476 8.288.036.128.08.253.13.376 0 0 5.359-8.546 9.717-8.664 4.359-.118 1.509-5.206-3.3-10.336z" opacity=".1"/>
        <path fill="#FFD037" d="M306 187.783c0 1.212-.224 2.217-.497 2.217s-.503-.987-.503-2.217.279-.643.558-.643c.278 0 .442-.569.442.643zM307.518 189.504c-.777.352-1.457.565-1.514.476-.057-.09.524-.449 1.301-.8.778-.352.473-.095.54 0 .068.094.454-.027-.327.324z"/>
        <path fill="#7CBE35" d="M289.394 184s-2.405 3.047 1.108 7.648c3.512 4.602 6.399 8.491 5.237 11.352 0 0-5.298-8.546-9.612-8.664-4.314-.118-1.478-5.206 3.267-10.336z"/>
        <path fill="#000" d="M289.455 184c-.213.294-.38.615-.498.954-4.253 4.797-6.521 9.271-2.431 9.382 3.81.105 8.38 6.636 9.474 8.288a3.068 3.068 0 0 1-.13.376s-5.356-8.546-9.719-8.664c-4.362-.118-1.495-5.206 3.304-10.336z" opacity=".1"/>
        <path fill="#FFD037" d="M285 187.783c0 1.212.22 2.217.5 2.217s.5-.987.5-2.217-.28-.643-.555-.643c-.274 0-.445-.569-.445.643zM283.48 189.504c.78.352 1.457.565 1.516.476.06-.09-.54-.449-1.302-.8-.763-.352-.47-.095-.54 0-.07.094-.45-.027.327.324z"/>
        <ellipse cx="295.5" cy="223" fill="#7CBE35" opacity=".1" rx="24.5" ry="4"/>
        <path fill="#65617D" d="M307.995 199.41l-.117.945-.163 1.33-.068.556-.163 1.33-.068.556-.163 1.33-1.858 15.14c-.166 1.352-2.389 2.403-5.07 2.403h-9.653c-2.681 0-4.897-1.051-5.063-2.404l-1.862-15.14-.163-1.329-.068-.556-.166-1.33-.068-.556-.163-1.33-.114-.945c-.094-.763 1.107-1.41 2.623-1.41h19.744c1.507 0 2.717.647 2.623 1.41z"/>
        <path fill="#9D9CB5" d="M308 201l-.164 1h-24.672l-.164-1zM307 202l-.16 1h-23.676l-.164-1zM307 204l-.164 1h-23.672l-.164-1z"/>
    </g>
</svg>
