<svg xmlns="http://www.w3.org/2000/svg" width="188" height="119" viewBox="0 0 188 119">
    <defs>
        <linearGradient id="a" x1="50%" x2="50%" y1="100.063%" y2=".038%">
            <stop offset="0%" stop-color="gray" stop-opacity=".25"/>
            <stop offset="54%" stop-color="gray" stop-opacity=".12"/>
            <stop offset="100%" stop-color="gray" stop-opacity=".1"/>
        </linearGradient>
        <linearGradient id="b" x1="49.91%" x2="49.91%" y1="83%" y2="6%">
            <stop offset="0%" stop-color="gray" stop-opacity=".25"/>
            <stop offset="54%" stop-color="gray" stop-opacity=".12"/>
            <stop offset="100%" stop-color="gray" stop-opacity=".1"/>
        </linearGradient>
        <linearGradient id="c" x1="50%" x2="50%" y1="100%" y2="0%">
            <stop offset="0%" stop-color="gray" stop-opacity=".25"/>
            <stop offset="54%" stop-color="gray" stop-opacity=".12"/>
            <stop offset="100%" stop-color="gray" stop-opacity=".1"/>
        </linearGradient>
        <linearGradient id="d" x1="49.961%" x2="49.961%" y1="99.976%" y2="-.007%">
            <stop offset="0%" stop-color="gray" stop-opacity=".25"/>
            <stop offset="54%" stop-color="gray" stop-opacity=".12"/>
            <stop offset="100%" stop-color="gray" stop-opacity=".1"/>
        </linearGradient>
        <linearGradient id="e" x1=".019%" x2="100.001%" y1="50.017%" y2="50.017%">
            <stop offset="0%" stop-color="gray" stop-opacity=".25"/>
            <stop offset="54%" stop-color="gray" stop-opacity=".12"/>
            <stop offset="100%" stop-color="gray" stop-opacity=".1"/>
        </linearGradient>
    </defs>
    <g fill="none" fill-rule="evenodd">
        <g opacity=".5">
            <path fill="url(#a)" d="M16.559 11.325c.21-.921.33-1.673.244-2.052l-.087.012.133-.056.357-.316h.01l.295-.26a4.206 4.206 0 0 0 3.36.404 4 4 0 0 0 2.51-2.182c.354.201.63.288.676.11.273-.806.42-1.648.437-2.496a3.963 3.963 0 0 0-.099-.897C23.947 1.679 21.903.397 19.87.216c-1.561-.14-3.267.326-4.212 1.525-.82 1.04-2.431 1.738-3.152 2.842-.582.891-.401 2.086-.676 3.112a9.566 9.566 0 0 0-.862.605 6.017 6.017 0 0 0-1.665 1.584 22.776 22.776 0 0 0-1.946 2.503c-3.122 4.602-5.012 6.097-6.078 6.52l8.954.055a21.935 21.935 0 0 0 6.093 6.95l.054-.029.038.03 1.483-.788a30.891 30.891 0 0 1-3.479-7.104c.21-.565.481-1.33.771-2.181 2.063 2.664 5.057 5.575 9.135 7.352l.661-1.128s-5.27-4.406-8.43-10.739z" transform="translate(27)"/>
            <path fill="url(#b)" d="M1.284 18.936H.114s.32.326 1.17 0z" transform="translate(27)"/>
        </g>
        <path fill="#4D8AF0" d="M42.253 15.558c1.755 2.622 4.427 5.653 8.188 7.442L51 21.96S44.372 15.91 42.433 8l-.195.177c-1.653 1.502-1.653 4.881.015 7.381z"/>
        <path fill="#000" d="M42.253 15.558c1.755 2.622 4.427 5.653 8.188 7.442L51 21.96S44.372 15.91 42.433 8l-.195.177c-1.653 1.502-1.653 4.881.015 7.381z" opacity=".05"/>
        <path fill="#FDA57D" d="M42.749 7l-1.308.804L40 10.146l2.055.854 1.75-.827L45 9.004z"/>
        <path fill="#4D8AF0" d="M41.746 8.001s-2.406-.199-5.677 4.992C31.373 20.438 30 18.86 30 18.86l11.679.076s2.598-7.329 2.297-8.758c.002-.008-2.245.448-2.23-2.177z"/>
        <path fill="#000" d="M43 7.004c.14 1.142.535 2.411 1.375 2.996L45 9.353 43 7v.004z" opacity=".1"/>
        <ellipse cx="46.294" cy="6.057" fill="#FDA57D" rx="3.578" ry="3.591" transform="rotate(-89.64 46.294 6.057)"/>
        <path fill="#000" d="M50.626 7.93c.27-.95.506-1.95.288-2.927-.382-1.69-2.124-2.822-3.858-2.982-1.33-.123-2.786.289-3.59 1.349-.7.917-.814 2.158-1.428 3.134-.57.904-1.542 1.538-1.964 2.516a.608.608 0 0 0-.059.427c.077.225.346.303.574.371A4.291 4.291 0 0 1 43.184 12c-.064-1.827 1.263-3.374 2.516-4.711.589-.625 1.57-1.542 2.454-.959.12.094 2.323 2.124 2.472 1.6z" opacity=".1"/>
        <path fill="#7CBE35" d="M43.832 11s.723 2.26-.832 3"/>
        <path fill="url(#c)" d="M0 17h181v73H0z"/>
        <path fill="#FFF" d="M2 18h179v71H2z"/>
        <path fill="#7CBE35" d="M44 26v18.915h7.705V50c2.23-3.864 5.475-5.085 5.475-5.085H88V26H44zM14 57v14.103h7.632V76c2.21-3.722 5.424-4.897 5.424-4.897H61V57H14z"/>
        <path fill="#E0E0E0" d="M171 35v14.103h-7.632V54c-2.21-3.722-5.424-4.897-5.424-4.897H124V35h47zM171 74v8.076h-2.839V87c-2.23-3.742-5.474-4.924-5.474-4.924H83V74h88z"/>
        <circle cx="167.5" cy="78.5" r="1.5" fill="#FFF"/>
        <circle cx="162.5" cy="78.5" r="1.5" fill="#FFF"/>
        <circle cx="159.5" cy="78.5" r="1.5" fill="#FFF"/>
        <circle cx="154.5" cy="78.5" r="1.5" fill="#FFF"/>
        <path fill="#000" d="M36.231 14.842c1.25 4.027 3.83 7.583 7.373 10.158L45 24.277S39.054 16.035 40.85 8l-.382.083c-1.545.334-2.876 1.247-3.677 2.526a5.079 5.079 0 0 0-.56 4.233z" opacity=".1"/>
        <path fill="#4D8AF0" d="M36.233 14.847c1.25 4.025 3.83 7.579 7.37 10.153L45 24.277S39.051 16.031 40.855 8l-.382.083c-1.547.332-2.88 1.246-3.683 2.527a5.075 5.075 0 0 0-.557 4.237z"/>
        <path fill="#333" d="M50.626 7.93c.27-.95.506-1.95.288-2.927-.382-1.69-2.123-2.822-3.856-2.982-1.33-.123-2.784.289-3.589 1.349-.698.917-2.07 1.534-2.684 2.51-.57.903-.283 2.16-.71 3.14a.608.608 0 0 0-.06.427c.077.225.346.303.573.371A4.29 4.29 0 0 1 43.183 12c-.065-1.827 1.262-3.374 2.514-4.711.588-.625 1.57-1.542 2.452-.959.126.092 2.328 2.122 2.477 1.6z"/>
        <path fill="#FDA57D" d="M43 25.89s2.39 3.112 2.904 1.778C46.418 26.334 44.709 25 44.709 25L43 25.89z"/>
        <ellipse cx="45.139" cy="7.019" fill="#FDA57D" rx="1" ry="1" transform="rotate(-63.43 45.139 7.019)"/>
        <path fill="url(#d)" d="M10.142 1.847c2.21 3.594 2.769 6.375 2.769 6.375.656-11.507-2.903-7.408-3.247-7.215V.993l-1.19.677A2.758 2.758 0 0 0 6.56.876a2.698 2.698 0 0 0-1.436.418c-.847.02-1.524.444-1.524.97 0 .084.019.168.053.245a2.992 2.992 0 0 0-.622 3.062A3.066 3.066 0 0 0 5.49 7.546l.314 2.197-.496.383a2.687 2.687 0 0 0-1.059 1.956c-.047.808.294 1.745 1.846 2.221 0 0-.026.28-.078.725l-2.625 5.168s-1.05 2.368.076 2.439c1.618-.277 1.337-.9 1.548-1.456l.123-.404h.616C5.25 23.48 3.61 32.783 3.774 38.262v1.585l-.104.785-3.024.892a.748.748 0 0 0-.531.838c.062.371.393.64.775.628l4.273-.14a.755.755 0 0 0 .734-.746v-2.142h.77v-1.71l.773-9.123.1-.234.093 1.185 3.477 7.603.773 1.33.336-.178-.106 1.25-1.407 1.211a.74.74 0 0 0 .24 1.267.772.772 0 0 0 .59-.031l3.836-1.858a.744.744 0 0 0 .357-.979l-.338-.737a.755.755 0 0 0-.53-.42l-.726-.714.25-.133-.578-1.33-3.477-7.983-.143-4.494a3.025 3.025 0 0 0 1.464-3.11h.224s-.492-2.827-.749-5.894l-.024-.298v-.46l-.072-.38c-.273-3.028-.696-5.45-3.001-5.72l-.017.015v-.935a3.415 3.415 0 0 0 1.496-2.889 3.616 3.616 0 0 0-.447-1.752l1.076-.606.005-.008z" opacity=".5" transform="translate(172 76)"/>
        <ellipse cx="179" cy="80.5" fill="#795548" rx="3" ry="3.5"/>
        <path fill="#FDA57D" d="M178 114v2h-3l.25-1.703zM183.235 114.167L183 117h.157a4.538 4.538 0 0 0 3.016-1.146l.827-.737-2.119-2.117-1.646 1.167z"/>
        <path fill="#4D8AF0" d="M178.4 103.185l.2 2.407 3.6 7.408 2.8-1.296-3.599-7.78L181.2 98H178z"/>
        <path fill="#000" d="M178.4 103.185l.2 2.407 3.6 7.408 2.8-1.296-3.599-7.78L181.2 98H178z" opacity=".05"/>
        <path fill="#FDA57D" d="M179.626 90l-3.19 6.532s-1.028 2.398.074 2.468c1.572-.28 1.299-.912 1.504-1.475L180 90.57l-.374-.571z"/>
        <circle cx="179" cy="81" r="3" fill="#FDA57D"/>
        <path fill="#FDA57D" d="M180 85.821L177.596 87 177 83h3z"/>
        <path fill="#4D8AF0" d="M178.15 96s-2.35 11.624-2.136 18h2.923l.78-8.999 2.135-4.875s2.923-.937 1.95-4.126h-5.653zM176 114h3v2h-3z"/>
        <path fill="#FFF" d="M176 114h3v2h-3z" opacity=".05"/>
        <path fill="#4D8AF0" d="M182 112.421l.957 1.579 3.043-1.378-.813-1.622z"/>
        <path fill="#333" d="M176.323 115.04l-3.763.994c-.332.128-.56.518-.56.962 0 .272.086.532.24.722.152.189.36.29.572.281l4.422-.187c.423-.018.76-.462.76-1.003v-1.085c0-.559.085-.724-.349-.724h-1.094a.628.628 0 0 0-.228.04z"/>
        <path fill="#EEE" d="M179.971 85l-2.859 1.99c-.65.446-1.053 1.117-1.108 1.843-.049.764.308 1.643 1.926 2.09 0 0-.607 5.728-1.618 6.077H184s-.516-2.653-.782-5.548c-.31-3.34-.534-6.164-3.247-6.452z"/>
        <path fill="#FDA57D" d="M179 88.54l2.241 2.735-.262 6.153s-1.243 1.367-.248 1.54c.996.172 2.49-.343 2.242-1.368v-7.01s-.747-2.907-1.495-3.59L179 88.54z"/>
        <path fill="#333" d="M184.921 114.704l-2.677 1.99a.768.768 0 0 0-.181.867.723.723 0 0 0 .406.395c.181.068.38.057.553-.032l3.581-1.847a.76.76 0 0 0 .334-.974l-.316-.733c-.162-.374-.355-.455-.712-.285l-.988.62c-.063.028.052-.049 0-.001z"/>
        <path fill="#795548" d="M181 78.717l-.587.283-.413-.698.58-.302zM181 78s4.873-4.9 3.862 7a27.03 27.03 0 0 0-3.335-6.114L181 78z"/>
        <ellipse cx="178.5" cy="81" fill="#795548" rx="2.5" ry="3"/>
        <ellipse cx="177" cy="78" fill="#795548" rx="2" ry="1"/>
        <path fill="url(#e)" d="M20.966 8.783c-.299-.918-2.078.322-2.078.322l-.146.203-3.17 4.372-7.735-4.427V7.271A2.677 2.677 0 0 0 9.69 6.189a2.801 2.801 0 0 0 .5-2.12c.385-.193.723-.47.992-.812.269-.293.558-.648.53-1.04a.738.738 0 0 0-.01-.186.987.987 0 0 0-.661-.685 6.175 6.175 0 0 0-.963-.203C9.311.99 8.618.58 7.869.347A4.925 4.925 0 0 0 6.825.144a1.49 1.49 0 0 0-.75.085c-.243.144-.46.326-.645.541a2.922 2.922 0 0 1-.844.562c-.463.202-.99.284-1.402.57a.836.836 0 0 0-.284.29.804.804 0 0 0-.075.405c-.002.125.008.25.028.373.043.53.185 1.048.418 1.524.232.365.516.691.844.969l.703.659c.137.152.301.277.484.367-.001-.102.038-.2.108-.272l-.227 1.622a4.512 4.512 0 0 0-1.308-.203c-.594 0-1.202.103-1.466.52a.583.583 0 0 0-.04.08C1.545 9.237-.345 12.48.767 20.356c-.095.962-.153 1.572-.153 1.572V22.1l.012.01.618 8.696-1.189 8.57h.266v.953h-.3v1.53s4.161-.272 4.787-1.216c.525-.79-2.088-.48-2.991-.35v-.572h.016v-.323h.315l1.188-5.815c1.23-2.177.595-7.618.595-7.618l1.495.918 1.189 6.394-.872 9.484h.266v.663H5.66v1.53s4.16-.271 4.787-1.216c.523-.79-2.087-.48-2.992-.35l-.101-.609h.182l1.189-8.57c.594-2.32-.214-9.136-.321-10.007l1.484-10.024-.022-.028.022-.142 5.983 2.142s.594.608 1.212-1.216c.575-1.7 2.152-3.981 2.356-4.27l.022-.031s1.804-.93 1.505-1.849z" opacity=".5" transform="translate(69 73)"/>
        <path fill="#FDA57D" d="M69 111.571V113h2v-2zM75 114.286V116l2-.286-.4-1.714z"/>
        <path fill="#4D8AF0" d="M72 81s-4.662 2.645-2.363 13L72 81z"/>
        <path fill="#000" d="M72 81s-4.662 2.645-2.363 13L72 81zM77 116l-.224-1-1.776.333V116zM69 112h2v-1l-2 .665z" opacity=".05"/>
        <path fill="#FDA57D" d="M74.333 80L74 82.332 77 84v-3.334z"/>
        <path fill="#EEE" d="M70 111.767l1.21-8.243L70.58 95l7.867 2.058s.975 7.322.335 9.706L77.572 115h-1.814l.907-9.118-1.21-6.145-1.512-.882s.638 5.229-.605 7.321l-1.21 5.59-2.128.001z"/>
        <path fill="#FDA57D" d="M90.955 82.459c-.397-1.245-2.76.438-2.76.438l-.195.282.938 1.821.03-.042s2.385-1.254 1.987-2.499z"/>
        <path fill="#000" d="M75.642 82.206s-2.324-.622-2.905.295C72.157 83.417 71 95.77 71 95.77s3.455 2.948 7.555 2.063L80 88.108l-4.358-5.902z" opacity=".05"/>
        <path fill="#4D8AF0" d="M85.083 86.816l-9.538-5.214A4.846 4.846 0 0 0 73.287 81c-.603 0-1.214.1-1.477.501-.603.917-1.81 13.27-1.81 13.27s3.587 2.948 7.845 2.063l1.508-9.73 6.042 2.07s.603.59 1.23-1.163c.58-1.639 2.17-3.834 2.375-4.115l-.733-1.292-3.184 4.212z"/>
        <path fill="#000" d="M74 80.14c.633.543 1.602.86 2.629.86.124 0 .248-.004.371-.014V80.5L74.03 80l-.03.14z" opacity=".05"/>
        <circle cx="77.5" cy="78.5" r="2.5" fill="#FDA57D"/>
        <path fill="#333" d="M69 113.245V115s4.277-.313 4.929-1.404c.651-1.09-3.387-.35-3.387-.35H69zM76 115.245V117s4.277-.313 4.929-1.404c.651-1.09-3.387-.35-3.387-.35H76z"/>
        <path fill="#000" d="M75.036 79.328l1.065-1.477c.146-.226.328-.428.54-.598a.903.903 0 0 1 .776-.168c.154.061.297.145.424.25.397.28.887.488 1.371.399.484-.09.896-.471 1.248-.836.293-.302.608-.67.527-1.078a.972.972 0 0 0-.669-.644 6.562 6.562 0 0 0-.974-.2c-.776-.147-1.478-.54-2.236-.762a5.231 5.231 0 0 0-1.057-.2 1.587 1.587 0 0 0-.76.082 2.59 2.59 0 0 0-.65.52c-.25.225-.54.407-.855.538-.47.2-.992.273-1.419.545a.824.824 0 0 0-.286.275 1.03 1.03 0 0 0-.05.654c.044.509.188 1.005.425 1.46.234.35.522.663.852.928l.71.633c.14.146.306.266.491.351-.03-.22.393-.487.527-.672z" opacity=".05"/>
        <path fill="#333" d="M75.036 79.338l1.065-1.476c.146-.226.328-.428.54-.598a.903.903 0 0 1 .776-.168c.154.061.297.145.424.25.397.28.887.488 1.371.398.484-.09.896-.47 1.248-.835.293-.302.608-.67.527-1.077a.97.97 0 0 0-.669-.657 6.564 6.564 0 0 0-.974-.199c-.776-.148-1.478-.54-2.236-.762a5.233 5.233 0 0 0-1.057-.2 1.587 1.587 0 0 0-.76.082 2.59 2.59 0 0 0-.65.519c-.25.226-.54.408-.855.538-.47.2-.992.274-1.419.545a.823.823 0 0 0-.286.277 1.03 1.03 0 0 0-.05.654c.044.509.188 1.004.425 1.46.234.35.522.662.852.928l.71.632c.14.146.306.266.491.351-.03-.21.393-.477.527-.662z"/>
    </g>
</svg>
