<svg xmlns="http://www.w3.org/2000/svg" width="138" height="104" viewBox="0 0 138 104">
    <g fill="none" fill-rule="evenodd">
        <path fill="#7CBE35" d="M135 28.927a34.137 34.137 0 0 0-5.455-8.837l-75.702-.758 62.327-8.898a34.91 34.91 0 0 0-12.646-2.549C91.28-2.062 74.06-2.655 61.184 6.43a34.833 34.833 0 0 0-16.205-3.97C28.16 2.458 14.144 14.298 11 30l124-1.073zM138 41.942c.004-4.092-.8-8.146-2.366-11.942L4.012 43.449a31.677 31.677 0 0 0-3.08 7.58l40.763 5.914L0 61.256c1.254 17.078 16.294 30.563 34.667 30.563 9.249 0 17.653-3.417 23.88-8.99C64.793 88.508 73.279 92 82.627 92c13.87 0 25.842-7.688 31.416-18.803 11.185-3.455 19.873-12.13 22.846-22.985L85.344 42.43h52.65c.003-.163.006-.326.006-.488z" opacity=".1"/>
        <ellipse cx="3.5" cy="95.5" fill="#7CBE35" opacity=".1" rx="3.5" ry="1"/>
        <ellipse cx="16.5" cy="96.5" fill="#7CBE35" opacity=".1" rx="3.5" ry="1"/>
        <ellipse cx="31.5" cy="94.5" fill="#7CBE35" opacity=".1" rx="3.5" ry="1"/>
        <ellipse cx="11.5" cy="100.5" fill="#7CBE35" opacity=".1" rx="2.5" ry="1"/>
        <ellipse cx="24.5" cy="99.5" fill="#7CBE35" opacity=".1" rx="2.5" ry="1"/>
        <path fill="#7CBE35" d="M16.87 97s-4.656-15.137.727-21.2c4.028-4.537 8.598-3.993 10.646-3.432a3.777 3.777 0 0 1 2.442 2.013c.716 1.53.586 4.018-4.467 6.92-8.46 4.859-8.985 11.523-8.985 11.523L16.869 97z"/>
        <path stroke="#565987" d="M27 74s-13.605 4.164-10.554 22M19 75s1.345 1.198.915 3M26 76s-1.355-1.627-3-.73M21 82.602s-2.384-1.59-3 .398M15 84.012s1.964-.196 2 .988"/>
        <path fill="#7CBE35" d="M16 96s5.965-10.22 7.603-9.996c.778.106 1.136.75 1.3 1.398a3.53 3.53 0 0 1-.325 2.495C23.734 91.525 21.453 94.634 16 96z"/>
        <path stroke="#565987" d="M23 88s-5.867 8.622-7 9M23 89h-1M22 91.955l-2 .09M20.784 90l.432 1M17.98 93l.04 1"/>
        <path fill="#7CBE35" d="M17 96s-5.966-10.22-7.604-9.996c-.778.106-1.136.75-1.3 1.398-.2.838-.086 1.707.327 2.488.845 1.635 3.119 4.744 8.577 6.11z"/>
        <path stroke="#565987" d="M9 88s5.867 8.622 7 9M9 89h1M11 91.955l2 .09M12.216 90l-.432 1M14.02 93l-.04 1"/>
        <path fill="#7CBE35" d="M25.709 98.495a.956.956 0 0 0 .28-.466.432.432 0 0 0-.196-.476c-.179-.077-.37.062-.515.2-.144.138-.311.299-.5.27a.906.906 0 0 0 .23-.793.35.35 0 0 0-.064-.161c-.1-.118-.28-.067-.398.025-.379.295-.484.865-.486 1.38a2.914 2.914 0 0 1-.007-.569c0-.19-.048-.4-.193-.502a.518.518 0 0 0-.292-.077c-.17 0-.358.012-.475.15-.144.172-.107.459.019.649.14.175.306.323.491.437.139.094.257.22.346.371.01.022.019.044.026.067h1.065c.242-.133.468-.303.669-.505zM4.709 94.5a.957.957 0 0 0 .28-.468.437.437 0 0 0-.196-.478c-.179-.076-.369.063-.514.202-.146.138-.31.298-.5.268a.907.907 0 0 0 .23-.794.354.354 0 0 0-.066-.16c-.1-.12-.28-.069-.398.025-.378.296-.483.868-.486 1.383-.02-.19-.023-.38-.007-.57 0-.191-.047-.402-.191-.503a.521.521 0 0 0-.293-.077c-.17-.008-.359.011-.475.15-.145.172-.106.46.018.643.14.177.307.326.493.44.139.093.257.22.346.372.01.022.02.044.026.067h1.065c.242-.132.467-.3.668-.5zM11.709 98.495a.956.956 0 0 0 .28-.466.432.432 0 0 0-.196-.476c-.179-.077-.37.062-.515.2-.144.138-.311.299-.5.27a.906.906 0 0 0 .23-.793.35.35 0 0 0-.064-.161c-.1-.118-.28-.067-.398.025-.379.295-.484.865-.486 1.38a2.914 2.914 0 0 1-.007-.569c0-.19-.047-.4-.191-.502a.525.525 0 0 0-.294-.077c-.17 0-.358.012-.475.15-.144.172-.107.459.019.649.14.175.306.323.491.437.139.094.257.22.346.371.01.022.019.044.026.067h1.065c.242-.133.468-.303.669-.505zM31.652 90s.601.642-.277 1.61c-.879.968-1.6 1.786-1.31 2.39 0 0 1.325-1.799 2.403-1.824 1.078-.026.37-1.094-.816-2.176z"/>
        <path fill="#000" d="M31.637 90c.053.062.095.13.124.201 1.065 1.01 1.63 1.95.608 1.975-.954.022-2.095 1.397-2.369 1.745.009.027.02.052.032.079 0 0 1.34-1.799 2.43-1.824 1.09-.026.374-1.094-.825-2.176z" opacity=".1"/>
        <path fill="#FFD037" d="M32.052 90.898c0 .174-.023.315-.052.315-.029 0-.052-.141-.052-.315 0-.174.03-.092.059-.092.028 0 .045-.082.045.092zM33.113 91.005c-.169.15-.316.24-.328.197-.012-.043.113-.197.282-.34.169-.145.101-.042.115 0 .013.04.1-.007-.07.143z"/>
        <path fill="#7CBE35" d="M29.346 90s-.6.642.278 1.61c.879.968 1.603 1.786 1.31 2.39 0 0-1.325-1.799-2.404-1.824-1.078-.026-.363-1.094.816-2.176z"/>
        <path fill="#000" d="M29.362 90a.738.738 0 0 0-.123.201c-1.065 1.01-1.632 1.95-.61 1.975.954.022 2.097 1.397 2.371 1.745-.01.027-.021.052-.033.079 0 0-1.34-1.799-2.43-1.824-1.091-.026-.368-1.094.825-2.176z" opacity=".1"/>
        <path fill="#FFD037" d="M27.948 90.898c0 .174.023.315.052.315.029 0 .052-.141.052-.315 0-.174-.028-.092-.057-.092s-.047-.082-.047.092z"/>
        <path fill="#FFD037" d="M27.89 91.005c.166.15.312.24.325.197.013-.043-.113-.197-.279-.34-.166-.145-.101-.042-.12 0-.017.04-.092-.007.073.143z"/>
        <path fill="#A8A8A8" d="M28 92.858s1.345-.048 1.749-.389c.404-.341 2.066-.748 2.168-.202.101.547 2.018 2.718.501 2.732-1.516.015-3.524-.279-3.928-.569-.404-.29-.49-1.572-.49-1.572z"/>
        <path fill="#000" d="M32.447 94.823c-1.517.014-3.526-.26-3.93-.531-.309-.207-.43-.949-.471-1.292H28s.086 1.197.49 1.468c.405.271 2.412.545 3.929.532.439 0 .589-.177.58-.431-.062.156-.227.251-.552.254z" opacity=".2"/>
        <ellipse cx="80" cy="102" fill="#7CBE35" opacity=".1" rx="43" ry="2"/>
        <path fill="#EFB7B9" d="M75.756 44.5s2.771 4.965 2.986 5.673a1 1 0 0 0 .934.708s2.76.624 3.42.708c.66.084 6.379.541 6.379.541s1.451.043 1.627-.457c.16-.458 2.964-2.86 4.587-.764.304.394.391.9.235 1.365-.298.9-.91 2.328-1.567 1.44-.924-1.25-1.998-.899-1.998-.233s-1.478.419-1.96.512c-.265.052-1.172.28-1.957.48a14.98 14.98 0 0 1-2.787.439c-1.558.096-3.856.176-4.67-.115-.983-.354-2.697-.435-3.43-.454a1.168 1.168 0 0 1-.67-.227 10.073 10.073 0 0 1-2.54-2.736c-1.143-1.874-3.496-5.755-3.337-6.88.158-1.125 4.748 0 4.748 0z"/>
        <path fill="#000" d="M75.756 44.5s2.771 4.965 2.986 5.673a1 1 0 0 0 .934.708s2.76.624 3.42.708c.66.084 6.379.541 6.379.541s1.451.043 1.627-.457c.16-.458 2.964-2.86 4.587-.764.304.394.391.9.235 1.365-.298.9-.91 2.328-1.567 1.44-.924-1.25-1.998-.899-1.998-.233s-1.478.419-1.96.512c-.265.052-1.172.28-1.957.48a14.98 14.98 0 0 1-2.787.439c-1.558.096-3.856.176-4.67-.115-.983-.354-2.697-.435-3.43-.454a1.168 1.168 0 0 1-.67-.227 10.073 10.073 0 0 1-2.54-2.736c-1.143-1.874-3.496-5.755-3.337-6.88.158-1.125 4.748 0 4.748 0z" opacity=".05"/>
        <path d="M106 82.74c-1.17 1.307-2.03 1.821-1.99.443.123-4.169-7.01-23.019-7.01-23.019L99.11 60c4.602 8.148 6.314 16.526 6.89 22.74z"/>
        <path fill="#65617D" d="M118 92.514c-.01 5.62-4.44 10.238-10.054 10.476-5.614.24-10.42-3.985-10.907-9.585a8.68 8.68 0 0 1-.031-.51v-.008a9.497 9.497 0 0 1-.008-.382C97 86.703 101.701 82 107.5 82S118 86.703 118 92.505v.009z"/>
        <circle cx="107.5" cy="92.5" r="5.5" fill="#DCE0ED"/>
        <circle cx="107.5" cy="92.5" r="3.5" fill="#65617D"/>
        <path fill="#65617D" d="M78 71.505L53 72v-3.627c.224-2.919 3.272-3.943 6.04-4.264a17.607 17.607 0 0 1 6.46.477c5.304 1.382 8.683 1.65 10.348 1.676a1.58 1.58 0 0 1 1.535 1.27 51.277 51.277 0 0 1 .387 2.328c.138.924.23 1.645.23 1.645z"/>
        <path fill="#7CBE35" d="M99.135 93H45.108a2.13 2.13 0 0 1-1.97-1.248c-.408-.953.162-1.56.77-1.917a6.024 6.024 0 0 0 2.66-3.189c.575-1.667 1.138-4.276 1.36-8.352.227-4.215 1.785-6.3 3.469-7.31 2.174-1.303 4.558-.815 4.558-.815l21.906.172c.39.173.751.404 1.07.684 1.952 1.78-.894 4.104-.894 4.104-6.11 6.327-1.485 12.74-1.485 12.74h11.21c2.094.01 4.142-.604 5.87-1.762 1.516-1.026 2.096-2.017 2.329-2.617.172-.46.348-.917.557-1.361 2.94-6.247-.606-16.41-2.136-20.21a34.972 34.972 0 0 0-.635-1.497l3.515-.257L99.487 60h.023c4.899 8.278 6.72 16.783 7.33 23.086.059.594.106 1.17.144 1.722a7.603 7.603 0 0 1-2.112 5.763A7.933 7.933 0 0 1 99.135 93z"/>
        <path fill="#000" d="M78 70H53v-1h24.843c.055.338.109.678.157 1z" opacity=".1"/>
        <path fill="#000" d="M79 70H52.203a.49.49 0 0 1-.203-.043c2.132-1.379 4.47-.862 4.47-.862l21.481.182c.383.183.736.427 1.049.723z" opacity=".1"/>
        <rect width="38" height="1" x="41" y="69" fill="#DCE0ED" rx=".5"/>
        <path fill="#000" d="M106 82.74c-1.17 1.307-2.03 1.821-1.99.443.123-4.169-7.01-23.019-7.01-23.019L99.11 60c4.602 8.148 6.314 16.526 6.89 22.74z" opacity=".1"/>
        <path fill="#000" d="M117.999 91.015c-1.258.29-2.81.585-4.725.86-.713.1-1.48.197-2.3.29-1.957.223-4.221.419-6.837.568-.74.043-1.51.082-2.307.117-1.494.066-3.094.116-4.798.15L97 92.509V92.5c2.382-.925 6.13-3.393 6.733-9.822a10.907 10.907 0 0 1 9.267.798c2.793 1.634 4.64 4.423 5 7.549l-.001-.01z" opacity=".1"/>
        <path fill="#7CBE35" d="M95 94s12.109-1.33 7.938-20c0 0 5.983 5.55 9.705 8.636C116.365 85.72 123 89.973 123 89.973S119.039 93.72 95 94z"/>
        <path fill="#FFF" d="M95 94s12.109-1.33 7.938-20c0 0 5.983 5.55 9.705 8.636C116.365 85.72 123 89.973 123 89.973S119.039 93.72 95 94z" opacity=".1"/>
        <circle cx="61.5" cy="92.5" r="10.5" fill="#65617D"/>
        <circle cx="61.5" cy="92.5" r="5.5" fill="#DCE0ED"/>
        <circle cx="61.5" cy="92.5" r="3.5" fill="#65617D"/>
        <path fill="#000" d="M73 90.157C73 83.443 67.627 78 61 78s-12 5.443-12 12.157c0 .284.01.565.03.843h23.94c.02-.278.03-.56.03-.843z" opacity=".1"/>
        <path fill="#7CBE35" d="M73 89.157C73 82.443 67.852 77 61.5 77S50 82.443 50 89.157c0 .284.01.564.028.843h22.944c.018-.279.028-.559.028-.843z"/>
        <path fill="#FFF" d="M73 89.157c0 .195 0 .393-.014.581 0 .088-.009.174-.014.262H50.028c0-.088-.01-.174-.014-.262a12.873 12.873 0 0 1-.014-.58C50 82.442 55.148 77 61.5 77S73 82.443 73 89.157z" opacity=".1"/>
        <path fill="#000" d="M73 89.787c0 .143-.009.283-.014.426H50.014c0-.143-.01-.283-.014-.426h23z" opacity=".1"/>
        <rect width="31" height="3" x="44" y="90" fill="#000" opacity=".1" rx="1.5"/>
        <rect width="31" height="3" x="44" y="90" fill="#DCE0ED" rx="1.5"/>
        <ellipse cx="103.277" cy="68.494" fill="#000" opacity=".1" rx="1.56" ry="3.887" transform="rotate(-24.33 103.277 68.494)"/>
        <ellipse cx="103.407" cy="68.365" fill="#DCE0ED" rx="1.56" ry="3.887" transform="rotate(-24.33 103.407 68.365)"/>
        <path fill="#000" d="M99 60v2h-4.175c-.39 0-.777-.029-1.161-.087-.397-.94-.664-1.49-.664-1.49l3.676-.255L99 60z" opacity=".1"/>
        <path fill="#7CBE35" d="M99 62h-3.86C91.747 62 89 59.438 89 56.265v-.531C89 52.567 91.748 50 95.14 50l3.86.355V62z"/>
        <path fill="#7CBE35" d="M92.49 53.129s2.503 1.258 1.063 3.387c0 0-1.766 2.725-4.542 2.467L88 53.129s3.325-.29 4.49 0z"/>
        <path fill="#000" d="M91.527 53.017c.806.029 1.554.4 2.035 1.009.445.58.711 1.426-.008 2.49 0 0-1.767 2.725-4.543 2.467L88 53.13s2.08-.187 3.527-.114zM99 50h.72c1.26 0 2.28 1.1 2.28 2.458v7.084c0 .652-.24 1.277-.668 1.738a2.2 2.2 0 0 1-1.612.72H99V50z" opacity=".1"/>
        <path fill="#DCE0ED" d="M100 50h.72c1.26 0 2.28 1.1 2.28 2.458v7.084c0 .652-.24 1.277-.668 1.738a2.2 2.2 0 0 1-1.612.72H100V50z"/>
        <path fill="#EFB7B9" d="M71 64.872s.61.222 1.426.53c1.297.496 3.125 1.22 3.76 1.616.636.396 3.005 1.048 4.778 1.506 1.315.338 2.67.504 4.028.493 1.38-.013 3.05-.026 3.512-.026.08 0 .162.006.241.018.485.08.466.403.454.48v.017c-2.852 1.716-6.31 9.397-6.526 10.684-.162.965-1.587 3.641-2.29 4.92-.235.43-.388.701-.388.701l.864.986 2.507 1.116 2.376 1.03s2.508.129 2.55 0c.044-.129.044-1.459.044-1.459a7.075 7.075 0 0 1-.867-.654 14.274 14.274 0 0 1-1.597-1.62c-1.382-1.631 1.384-4.763 1.384-4.763l5.316-6.864s.431-.773 2.506-3.862c2.075-3.09 0-4.763 0-4.763l-3.651-1.504c-6.333-2.353-13.971-4.239-13.971-4.239l-.11-.014L75.728 59 71 64.872z"/>
        <path fill="#444053" d="M87.235 88.42s.46.489.116.532c-.345.044-1.25-.132-1.25-.132l-5.744-2.718s-.626-.4-.773.384c-.148.783-.248.709-.248.709s-.757 1.462 0 1.764c.757.303 5.304 1.5 5.304 1.5s6.6 1.345 7.225-.207c.625-1.551-1.12-1.284-1.12-1.284s-2.171-.473-2.912-1.418c-.006 0-1.075.265-.598.87z"/>
        <path fill="#000" d="M95.074 65.01l-3.651-1.517c-6.333-2.374-13.972-4.276-13.972-4.276l-.109-.014-1.62-.203L71 64.924s.61.223 1.426.535c1.297.5 3.125 1.23 3.76 1.63.636.399 3.005 1.056 4.779 1.518a15.54 15.54 0 0 0 4.027.498c1.38-.013 3.052-.026 3.513-.026.08-.001.162.005.241.018.485.08.466.406.454.484v.017c-2.853 1.73-6.31 9.479-6.526 10.777-.162.974-1.587 3.674-2.29 4.964l-.095.174c-.188-.031-.422.037-.505.527-.147.86-.244.78-.244.78s-.746 1.606 0 1.938c.745.332 5.22 1.648 5.22 1.648s6.5 1.477 7.116-.227c.616-1.705-1.102-1.412-1.102-1.412s-2.14-.52-2.87-1.558a1.434 1.434 0 0 0-.189.07 10.31 10.31 0 0 1-.245-.205 14.34 14.34 0 0 1-1.597-1.635c-1.382-1.645 1.383-4.804 1.383-4.804l5.317-6.925s.432-.779 2.506-3.895c2.075-3.116-.005-4.804-.005-4.804z" opacity=".05"/>
        <path fill="#EFB7B9" d="M67 36.686l.186.24.103.133.647.833s1.545.507 2.898.835c1.41.34 2.613.49 1.657-.326-.593-.505-.632-1.352-.416-2.259a9.473 9.473 0 0 1 .776-2.01l.143-.276A16.72 16.72 0 0 1 74 32.194a28.783 28.783 0 0 0-2.697-1.693c-1.118-.592-2.036-.85-1.454.32.374.75.252 1.59-.097 2.396-.027.063-.056.124-.087.19a8.596 8.596 0 0 1-1.152 1.734A13.536 13.536 0 0 1 67 36.686z"/>
        <path fill="#444053" d="M75.261 56l.885.789L77 60h-1.426L74 58z"/>
        <path fill="#000" d="M74 58l.952 1.209.622.791H77l-.146-.55-.622-2.339-.086-.322L75.26 56l-1.208 1.914z" opacity=".1"/>
        <path fill="#000" d="M74 58l.952 1.209.622.791H77l-.146-.55-.622-2.339-.086-.322L75.26 56l-1.208 1.914z" opacity=".1"/>
        <path fill="#EFB7B9" d="M69 66.157s.61.228 1.426.546c1.297.51 3.125 1.255 3.76 1.663.636.409 3.005 1.08 4.779 1.551 1.315.349 2.669.52 4.027.509 1.38-.013 3.051-.027 3.513-.027.08 0 .162.006.241.019.485.082.466.415.454.494v.018c-2.853 1.766-6.31 9.675-6.526 11-.162.994-1.587 3.75-2.29 5.067-.236.441-.389.72-.389.72l.865 1.016 2.505 1.148 2.377 1.06s2.508.133 2.55 0c.043-.132.043-1.502.043-1.502a7.098 7.098 0 0 1-.866-.673 14.503 14.503 0 0 1-1.597-1.668c-1.383-1.68 1.383-4.904 1.383-4.904l5.316-7.068s.432-.796 2.507-3.976c2.075-3.181 0-4.904 0-4.904L89.75 64.3c-5.187-3.224-12.492-5.08-12.492-5.08l-.11-.014L75.53 59 69 66.157z"/>
        <path fill="#000" d="M78 87.722l.933 1.014 2.704 1.147 2.565 1.058s2.706.132 2.752 0C87 90.81 87 89.442 87 89.442a7.612 7.612 0 0 1-.935-.672c-.29.147-.618.422-.3.848 0 0 .49.545.123.596-.367.05-1.33-.149-1.33-.149l-6.103-3.043L78.42 87l-.42.722z" opacity=".1"/>
        <path fill="#444053" d="M85.239 89.423s.461.488.115.533c-.347.045-1.252-.134-1.252-.134l-5.745-2.72s-.625-.4-.774.384c-.149.783-.246.71-.246.71s-.758 1.464 0 1.767c.757.303 5.3 1.496 5.3 1.496s6.602 1.345 7.228-.207c.625-1.552-1.12-1.287-1.12-1.287s-2.173-.473-2.913-1.42c.004.005-1.071.272-.593.878z"/>
        <path fill="#000" d="M70 32.77c.774.476 1.955 1.23 2.963 1.23.26 0 .52-.018.777-.055.373-.641.794-1.26 1.26-1.85 0 0-5.892-3.654-4.553-1.31.442.779.007 1.161-.447 1.984z" opacity=".1"/>
        <path fill="#EFB7B9" d="M68 29.502a4.492 4.492 0 0 0 2.491 4.025A4.5 4.5 0 1 0 68 29.499v.003z"/>
        <path fill="#000" d="M69 66.504s.64.207 1.496.496c.537-.42 1.088-.824 1.318-.897.5-.162 2.131-1.005 2.087-1.246-.045-.24.68-1.163 1.313-1.324.634-.162.272-1.004.272-1.004s1.225-.4 1.53-.963c.304-.563 1.237-1.285.919-1.244a1.066 1.066 0 0 1-.387-.134L75.85 60 69 66.504z" opacity=".1"/>
        <path fill="#444053" d="M65.72 64.08s2.059 1.563 2.154 2.261c.095.698 1.47.659 1.47.659s2.06-1.81 2.55-1.974c.492-.164 2.104-1.028 2.06-1.275-.044-.246.671-1.191 1.297-1.356.625-.166.268-1.028.268-1.028s1.208-.41 1.51-.986c.3-.576 1.22-1.316.907-1.274-.089.011-.372-.123-.732-.32a41.154 41.154 0 0 1-1.458-.863c-.483-.3-.852-.54-.852-.54s-.211-.034-.572-.083c-1.948-.259-8.292-.92-9.765 1.234a3.134 3.134 0 0 0-.436.92c-.66 2.295 1.598 4.626 1.598 4.626z"/>
        <path fill="#000" d="M68 60s-2.105 1-2.89 1c-.785 0 2.89-1 2.89-1z" opacity=".1"/>
        <path fill="#000" d="M69 60.025s-2.994 1.028-2.994 1.835c0 .808-.28-2.162 2.994-1.835zM76.022 55.971l-.044.058a.129.129 0 0 0 .044-.058zM67 36.602l.19.249.108.138.665.863s1.588.525 2.98.865c1.45.353 2.688.507 1.705-.338-.61-.523-.65-1.4-.429-2.34l-.044-.059s.044.872-.457.889c-.675.022-.684-.212-1.307-.483-.802-.349-1.624-.932-1.855-1.386A13.978 13.978 0 0 1 67 36.602zM64 59.889c.353.14.75.148 1.11.024 1.337-.4 3.452-1.363 4.443-.942.795.338 3.996.328 5.177.045.294-.071.462-.158.437-.261a.669.669 0 0 1 .045-.351c.137-.406.51-.97.788-1.36l-.085-.303-.878-.741-1.198 1.796c-1.878-.251-7.995-.893-9.414 1.198-.191.276-.334.578-.425.895z" opacity=".1"/>
        <path fill="#A36468" d="M63.176 59.141s.537 1.193 1.925.767c1.387-.426 3.582-1.455 4.61-1.005 1.03.45 5.955.322 5.821-.231-.134-.554 1.209-2.301 1.209-2.301s-.734-.128-1.188-2.408a14.3 14.3 0 0 1-.178-1.14c-.111-.88-.137-1.768-.078-2.652.181-2.467 1.09-3.475 1.09-3.475s1.252-1.363.178-3.238c-.563-.984-2.834-3.708-2.865-4.923-.028-1.102-1.135-2.383-1.135-2.383s.047.862-.489.879c-.722.021-.732-.21-1.398-.477-.979-.394-1.985-1.088-2.05-1.552 0 0-4.105-.196-5 3.767-.896 3.964-.582 6.137-.448 6.606.135.47 1.298 6.52.358 9.078-.94 2.557-.362 4.688-.362 4.688z"/>
        <path fill="#000" d="M70.31 51.859a9.74 9.74 0 0 0 2.594 2.993c.701.006 1.4.056 2.096.148-.06-.329-.12-.703-.16-1.128a15.155 15.155 0 0 1-.069-2.623.946.946 0 0 1-.47-.612c-.2-.717-1.98-4.131-1.98-4.131s-4.166-1.138-4.31 0c-.146 1.138 1.261 3.456 2.3 5.353z" opacity=".1"/>
        <path fill="#EFB7B9" d="M70.757 44.5s2.77 4.965 2.985 5.673a1 1 0 0 0 .934.708s2.76.624 3.42.708c.659.084 6.38.541 6.38.541s1.451.043 1.627-.457c.16-.458 2.964-2.86 4.586-.764.304.394.391.9.235 1.365-.298.9-.91 2.328-1.567 1.44-.923-1.25-1.997-.899-1.997-.233s-1.478.419-1.96.512c-.264.052-1.172.28-1.957.48-.913.234-1.849.38-2.793.439-1.558.096-3.854.176-4.668-.115-.982-.354-2.695-.435-3.43-.454a1.167 1.167 0 0 1-.669-.227 10.072 10.072 0 0 1-2.538-2.736c-1.144-1.874-3.496-5.755-3.337-6.88.158-1.125 4.749 0 4.749 0z"/>
        <path fill="#000" d="M70.265 37.62s1.5 2.362 2.196 4.05C73.156 43.357 74 46.31 74 46.31l-4.18-.464-.355-.548s-2.985 1.772-2.63 2.531c.357.76-.8-1.139-.71-3.29.09-2.152-.321-5.992 0-6.92.321-.927 3.157-.717 4.14 0z" opacity=".1"/>
        <path fill="#A36468" d="M66.13 44.538c-.09 2.152 1.067 4.05.71 3.291-.356-.759 2.63-2.531 2.63-2.531l.35.548 4.18.465s-.844-2.955-1.54-4.642a25.28 25.28 0 0 0-1.43-2.785 38.091 38.091 0 0 0-.765-1.265c-.575-.422-1.796-.669-2.77-.61a3.77 3.77 0 0 0-.452.051c-.4.075-.723.22-.866.447a.576.576 0 0 0-.053.112c-.32.927.09 4.768.005 6.92z"/>
        <path fill="#000" d="M64 50s2.304 2.92 3 3c-.005.006-2.962-.6-3-3zM64 54s2.938 2.97 3.878 3c.94.03-3.878-3-3.878-3zM64 55s2.817 3 2.993 3c.176 0-3.042-1.04-2.992-3zM67 38c.333-.05.655-.159.952-.321.111-.059.221-.124.329-.193a7.8 7.8 0 0 0 1.182-.98c.596-.583 1.191-1.22 1.438-2.02.055-.185.096-.374.122-.565.147-1.004.023-2.112.736-2.795.134-.128.288-.232.455-.31 1.011-.484 2.477-.17 3.232-1.044.48-.554.468-1.323.836-1.925.16-.261.456-.487.718-.727a4.653 4.653 0 0 0-4.81-2.03 4.684 4.684 0 0 0-3.674 3.728 4.715 4.715 0 0 0 2.05 4.83c-.028.067-.06.13-.092.2-.89 1.828-2.83 3.431-2.83 3.431l.197.251c-.392.09-.702.235-.841.47z" opacity=".1"/>
        <path fill="#965D7B" d="M74.915 29.553c-.876 1.006-2.719.42-3.684 1.342-.846.808-.51 2.217-.856 3.335-.246.795-.84 1.426-1.435 2.007-.868.845-1.978 1.704-3.164 1.461-.703-.144-1.392-.67-2.072-.428-.338.122-.58.415-.832.673a5.735 5.735 0 0 1-3.182 1.648 1.36 1.36 0 0 1-.72-.034c-.363-.148-.559-.544-.89-.756-.646-.414-1.478.01-2.15.381a15.035 15.035 0 0 1-12.363.891l1.048-.519c-.223-.455-.825-.554-1.209-.887-.79-.686-.325-2.058.51-2.686.836-.63 1.917-.848 2.782-1.436.176-.119.355-.277.372-.488a.778.778 0 0 0-.142-.433c-.46-.813-.97-1.685-.867-2.615.158-1.426 1.713-2.302 3.141-2.402 1.428-.1 2.842.33 4.273.355.518.01 1.06-.041 1.505-.31.62-.373.932-1.085 1.309-1.703a6.952 6.952 0 0 1 2.784-2.57c1.295-.654 2.76-.883 4.107-1.425 1.375-.553 2.626-1.426 4.065-1.778 2.088-.518 4.326.16 6.13 1.332.868.564 3.643 2.373 3.625 3.531-.014.687-.906 1.06-1.244 1.598-.373.603-.362 1.367-.84 1.916z"/>
        <g fill="#000" opacity=".1">
            <path d="M46.814 33.219a.744.744 0 0 1 .14.417.412.412 0 0 1-.045.152c-.38-.648-.775-1.334-.839-2.057.168.517.464 1.013.744 1.488zM43.297 38.081c.382.321.983.418 1.206.856l-.37.178a4.19 4.19 0 0 1-.706-.409 1.157 1.157 0 0 1-.404-.971c.066.132.16.25.274.346zM55.801 38.58c.671-.357 1.502-.768 2.147-.367.329.203.525.586.887.728.232.074.48.085.719.033a5.8 5.8 0 0 0 3.178-1.589c.25-.25.492-.531.83-.649.676-.234 1.363.274 2.07.413 1.184.233 2.29-.594 3.158-1.409.594-.559 1.186-1.169 1.432-1.935.346-1.079.01-2.438.856-3.216.965-.889 2.801-.324 3.678-1.294.477-.53.466-1.266.834-1.843.31-.486 1.114-.83 1.228-1.417.089.153.138.325.143.5-.014.662-.905 1.021-1.242 1.541-.367.576-.357 1.313-.834 1.843-.876.97-2.715.405-3.678 1.293-.845.78-.51 2.138-.856 3.217-.245.766-.837 1.375-1.432 1.935-.868.815-1.974 1.642-3.158 1.409-.704-.14-1.391-.647-2.069-.413-.339.117-.58.4-.831.649a5.8 5.8 0 0 1-3.178 1.588c-.238.053-.486.041-.719-.032-.361-.143-.558-.525-.886-.729-.647-.4-1.477.01-2.148.368a15.488 15.488 0 0 1-12.343.858l.723-.346A15.516 15.516 0 0 0 55.8 38.58z"/>
        </g>
        <path fill="#000" d="M87.588 71L89 70.3v-.274c0-.105-1.127.127-2 .325.628.114.603.546.588.649z" opacity=".1"/>
        <circle cx="88" cy="56" r="3" fill="#7CBE35"/>
        <path fill="#DDA2A6" d="M63 52l-4.198 4L45 55.767 48.795 52z"/>
        <path fill="#B77B7F" d="M63 66.164V52l-4 4.14V70z"/>
        <path fill="#DDA2A6" d="M45 56v14h14V56.24z"/>
        <path fill="#FFF" d="M45 56v14h14V56.24z" opacity=".3"/>
        <path fill="#DCE0ED" d="M58 59.827L48.269 58 47 64.987 57.019 67z"/>
        <path fill="#7CBE35" d="M56 61.047L49.17 60l-.17.87L55.83 62zM54 63.724L50.169 63 50 64.27l4 .73z"/>
        <path fill="#65617D" d="M61 59.866L60.852 54 60 55.12l.149 5.88z"/>
        <path fill="#65617D" d="M47.844 54l12.728.12.428.168-1.035.712-.358-.147L47 54.604z"/>
    </g>
</svg>
