<svg xmlns="http://www.w3.org/2000/svg" width="171" height="133" viewBox="0 0 171 133">
    <defs>
        <linearGradient id="a" x1="50.001%" x2="50.001%" y1="100%" y2="0%">
            <stop offset="0%" stop-color="gray" stop-opacity=".25"/>
            <stop offset="54%" stop-color="gray" stop-opacity=".12"/>
            <stop offset="100%" stop-color="gray" stop-opacity=".1"/>
        </linearGradient>
        <linearGradient id="b" x1="50.014%" x2="50.014%" y1="100%" y2="0%">
            <stop offset="0%" stop-color="gray" stop-opacity=".25"/>
            <stop offset="54%" stop-color="gray" stop-opacity=".12"/>
            <stop offset="100%" stop-color="gray" stop-opacity=".1"/>
        </linearGradient>
        <linearGradient id="c" x1="50%" x2="50%" y1="100%" y2="0%">
            <stop offset="0%" stop-color="gray" stop-opacity=".25"/>
            <stop offset="54%" stop-color="gray" stop-opacity=".12"/>
            <stop offset="100%" stop-color="gray" stop-opacity=".1"/>
        </linearGradient>
    </defs>
    <g fill="none" fill-rule="evenodd">
        <path fill="url(#a)" d="M72.903 95.914H.069V.077h61.274l11.56 11.735z" opacity=".5" transform="translate(52 37)"/>
        <path fill="#FFF" d="M124 132H52V38h60.915L124 48.626z"/>
        <path fill="url(#b)" d="M.07 10.91V.08h.973L11.9 10.91z" opacity=".5" transform="translate(112 38)"/>
        <path fill="#FAFAFA" d="M113 48V37l11 11z"/>
        <circle cx="5.487" cy="5.495" r="5.42" fill="url(#c)" opacity=".5" transform="translate(59 54)"/>
        <circle cx="64.5" cy="59.5" r="5.5" fill="#69F0AE"/>
        <circle cx="5.487" cy="5.495" r="5.42" fill="url(#c)" opacity=".5" transform="translate(59 77)"/>
        <circle cx="64.5" cy="82.5" r="5.5" fill="#E0E0E0"/>
        <circle cx="5.487" cy="5.495" r="5.42" fill="url(#c)" opacity=".5" transform="translate(59 99)"/>
        <circle cx="64.5" cy="104.5" r="5.5" fill="#E0E0E0"/>
        <path fill="#E0E0E0" d="M77 57h15v1H77zM79 59h23v1H79zM78 61h22v1H78zM77 81h15v1H77zM79 82h23v1H79zM78 83h22v1H78zM77 103h15v1H77zM79 104h23v1H79zM78 106h22v1H78z"/>
        <path fill="#FFF" d="M63.75 59.4l1.8 1.886L68.1 57l.9.857L65.55 63 63 59.743zM63.75 81.4l1.8 1.886L68.1 79l.9.857L65.55 85 63 81.743zM63.75 103.4l1.8 1.886L68.1 101l.9.857L65.55 107 63 103.743z"/>
        <rect width="22.846" height="23.923" x=".142" fill="url(#c)" opacity=".5" rx="11.423" transform="translate(138 47)"/>
        <rect width="22" height="23" x="138" y="46" fill="#7CBE35" rx="11"/>
        <path fill="#FFF" d="M150.875 61.938v-.815c2.681-.648 4.43-3.059 4.08-5.628-.348-2.57-2.686-4.495-5.455-4.495-2.77 0-5.107 1.926-5.456 4.495-.349 2.57 1.4 4.98 4.081 5.628v.815c-2.326.588-3.945 2.558-3.953 4.812V69h10.656v-2.25c-.008-2.254-1.627-4.224-3.953-4.812z"/>
        <circle cx="149.5" cy="55.5" r="5.5" fill="#FFF"/>
        <path fill="#FFF" d="M155.877 56s-.31 5.759 2.123 6.387c0 0-5.027 2.672-6-3.142L155.877 56zM144.123 56s.31 5.759-2.123 6.387c0 0 5.027 2.672 6-3.142L144.123 56z"/>
        <rect width="22.846" height="23.923" x=".142" fill="url(#c)" opacity=".5" rx="11.423" transform="translate(78)"/>
        <rect width="22" height="23" x="78" y="1" fill="#7CBE35" rx="11"/>
        <path fill="#FFF" d="M95.843 9.82c-.157-1.392-.39-2.787-.898-4.089-.507-1.302-1.322-2.497-2.459-3.238a2.723 2.723 0 0 0-1.358-.492c-.888-.033-1.71.597-2.167 1.397-.155.277-.29.566-.404.864-.871.156-1.528.917-1.59 1.843-1.921.862-3.108 2.912-2.952 5.101.157 2.189 1.623 4.03 3.646 4.58v.874c-2.151.59-3.654 2.628-3.661 4.963V24h9.762v-2.379c-.007-2.335-1.51-4.372-3.661-4.963v-.872c2.155-.585 3.66-2.627 3.66-4.964v-.036l.55 1.283c.523 1.223 1.059 2.535.854 3.86 1.004-1.804.921-4.037.678-6.109z"/>
        <rect width="22.846" height="23.923" x=".142" fill="url(#c)" opacity=".5" rx="11.423" transform="translate(18 82)"/>
        <rect width="22" height="23" x="18" y="82" fill="#7CBE35" rx="11"/>
        <path fill="#FFF" stroke="#FFF" d="M26.388 90.351a3.745 3.745 0 0 1-.382-1.875 2.55 2.55 0 0 1 .792-1.702c.521-.463 1.228-.626 1.91-.684.682-.057 1.375-.022 2.047-.16a4.277 4.277 0 0 0 2.73-1.93 6.245 6.245 0 0 1-.014 1.641c-.101.539-.367 1.068-.815 1.361.543-.261.485.353.366.72.27.34.923.395.956.834.054.437.008.881-.137 1.296-.164.404.012 1.116-.407 1.148"/>
        <path fill="#FFF" d="M33 88s1.839.221.53 4M30.875 97.938v-.815c2.681-.648 4.43-3.059 4.08-5.628C34.608 88.925 32.27 87 29.5 87c-2.77 0-5.107 1.926-5.456 4.495-.349 2.57 1.4 4.98 4.081 5.628v.815c-2.326.588-3.945 2.558-3.953 4.812V105h10.656v-2.25c-.008-2.254-1.627-4.224-3.953-4.812z"/>
        <path stroke="#CFD8DC" stroke-width="2" d="M29 74v-1"/>
        <path stroke="#CFD8DC" stroke-dasharray="12" stroke-width="2" d="M29 71V17"/>
        <path stroke="#CFD8DC" stroke-width="2" d="M29 16v-1h1"/>
        <path stroke="#CFD8DC" stroke-dasharray="11.86" stroke-width="2" d="M33 15h38"/>
        <path stroke="#CFD8DC" stroke-width="2" d="M72 15h1M107 15h1"/>
        <path stroke="#CFD8DC" stroke-dasharray="11.87" stroke-width="2" d="M111 15h42"/>
        <path stroke="#CFD8DC" stroke-width="2" d="M153 15h1v1"/>
        <path stroke="#CFD8DC" stroke-dasharray="12.73" stroke-width="2" d="M154 18v20"/>
        <path stroke="#CFD8DC" stroke-width="2" d="M154 39v1"/>
        <path fill="#69F0AE" d="M.833 88.648l1.443.83-.833 1.437L0 90.085zM115.876 6.979l1.442.83-.832 1.437-1.443-.83z" opacity=".3"/>
        <path fill="#4D8AF0" d="M36.713 112.756l1.442.83-.833 1.438-1.442-.83zM130.36 32.398l1.441.83-.832 1.438-1.443-.83z" opacity=".3"/>
        <circle cx="137" cy="110" r="1" fill="#69F0AE" opacity=".3"/>
        <circle cx="44" cy="43" r="1" fill="#69F0AE" opacity=".3"/>
        <circle cx="144" cy="88" r="1" fill="#FF5252" opacity=".3"/>
        <path fill="#FF5252" d="M170.32 8.227a.345.345 0 0 0 .335.249c.15 0 .282.1.328.248a.37.37 0 0 1-.125.403.369.369 0 0 0-.126.402.37.37 0 0 1-.125.403.332.332 0 0 1-.405-.001.332.332 0 0 0-.404 0 .332.332 0 0 1-.405 0 .37.37 0 0 1-.125-.402.369.369 0 0 0-.126-.402.37.37 0 0 1-.125-.403.346.346 0 0 1 .328-.248.345.345 0 0 0 .335-.25A.344.344 0 0 1 170 8c.14 0 .267.09.32.227zM44.32 83.227a.345.345 0 0 0 .335.249c.15 0 .282.1.328.248a.37.37 0 0 1-.125.403.369.369 0 0 0-.126.402.37.37 0 0 1-.125.403.332.332 0 0 1-.405-.001.332.332 0 0 0-.404 0 .332.332 0 0 1-.405 0 .37.37 0 0 1-.125-.402.369.369 0 0 0-.126-.402.37.37 0 0 1-.125-.403.346.346 0 0 1 .328-.248.345.345 0 0 0 .335-.25A.344.344 0 0 1 44 83c.14 0 .267.09.32.227zM22.32 12.227a.345.345 0 0 0 .335.249c.15 0 .282.1.328.248a.37.37 0 0 1-.125.403.369.369 0 0 0-.126.402.37.37 0 0 1-.125.403.332.332 0 0 1-.405-.001.332.332 0 0 0-.404 0 .332.332 0 0 1-.405 0 .37.37 0 0 1-.125-.402.369.369 0 0 0-.126-.402.37.37 0 0 1-.125-.403.346.346 0 0 1 .328-.248.345.345 0 0 0 .335-.25A.344.344 0 0 1 22 12c.14 0 .267.09.32.227z" opacity=".3"/>
        <path fill="#4D8AF0" d="M70.32 1.227a.345.345 0 0 0 .335.249c.15 0 .282.1.328.248a.37.37 0 0 1-.125.403.369.369 0 0 0-.126.402.37.37 0 0 1-.125.403.332.332 0 0 1-.405-.001.332.332 0 0 0-.404 0 .332.332 0 0 1-.405 0 .37.37 0 0 1-.125-.402.369.369 0 0 0-.126-.402.37.37 0 0 1-.125-.403.346.346 0 0 1 .328-.248.345.345 0 0 0 .335-.25A.344.344 0 0 1 70 1c.14 0 .267.09.32.227zM163.32 47.227a.345.345 0 0 0 .335.249c.15 0 .282.1.328.248a.37.37 0 0 1-.125.403.369.369 0 0 0-.126.402.37.37 0 0 1-.125.403.332.332 0 0 1-.405-.001.332.332 0 0 0-.404 0 .332.332 0 0 1-.405 0 .37.37 0 0 1-.125-.402.369.369 0 0 0-.126-.402.37.37 0 0 1-.125-.403.346.346 0 0 1 .328-.248.345.345 0 0 0 .335-.25A.344.344 0 0 1 163 47c.14 0 .267.09.32.227z" opacity=".3"/>
    </g>
</svg>
