<svg xmlns="http://www.w3.org/2000/svg" width="154" height="149" viewBox="0 0 154 149">
    <defs>
        <linearGradient id="a" x1="50%" x2="50%" y1="100%" y2=".004%">
            <stop offset="0%" stop-color="gray" stop-opacity=".25"/>
            <stop offset="54%" stop-color="gray" stop-opacity=".12"/>
            <stop offset="100%" stop-color="gray" stop-opacity=".1"/>
        </linearGradient>
        <linearGradient id="b" x1="50%" x2="50%" y1="100%" y2="0%">
            <stop offset="0%" stop-color="gray" stop-opacity=".25"/>
            <stop offset="54%" stop-color="gray" stop-opacity=".12"/>
            <stop offset="100%" stop-color="gray" stop-opacity=".1"/>
        </linearGradient>
        <linearGradient id="c" x1="50%" x2="50%" y1="99.996%" y2="0%">
            <stop offset="0%" stop-color="gray" stop-opacity=".25"/>
            <stop offset="54%" stop-color="gray" stop-opacity=".12"/>
            <stop offset="100%" stop-color="gray" stop-opacity=".1"/>
        </linearGradient>
    </defs>
    <g fill="none" fill-rule="evenodd">
        <ellipse cx="23.043" cy="23.018" fill="url(#a)" opacity=".5" rx="22.88" ry="22.978" transform="translate(0 1)"/>
        <circle cx="22.5" cy="23.5" r="22.5" fill="#F5F5F5"/>
        <path fill="#7CBE35" d="M22.773 46c4.346.007 8.599-1.206 12.227-3.487C34.18 38.245 31.06 38 31.06 38H13.864s-2.941.23-3.863 4.158c3.74 2.507 8.2 3.849 12.773 3.842z"/>
        <circle cx="23" cy="23" r="10" fill="#333"/>
        <path fill="#000" d="M19 32h7v5.539C26 39.45 24.433 41 22.501 41c-1.932 0-3.499-1.55-3.499-3.461V32H19z" opacity=".1"/>
        <path fill="#BE7C5E" d="M19.666 32h5.666c.369 0 .668.296.668.661v4.878C26 39.45 24.433 41 22.5 41S19 39.45 19 37.539V32.66c0-.364.298-.66.666-.661z"/>
        <path fill="#000" d="M19 34.568c2.256.571 4.74.576 7 .014V34h-7v.568z" opacity=".1"/>
        <circle cx="23" cy="26" r="10" fill="#BE7C5E"/>
        <path fill="#333" d="M16.985 21.31c.114-.425.257-.893.634-1.115.298-.176.668-.148 1.012-.13 2.688.148 5.353-.473 7.968-1.12 1.495-.371 3.095-.821 4.062-2.041.967-1.22-.294-5.055-1.766-5.507-.967-.3-2.089.258-3.006-.18-.408-.196-.707-.562-1.06-.848-.72-.588-1.647-.825-2.545-1.048-1.048-.262-2.181-.519-3.177-.098-.774.325-1.339 1.013-2.072 1.42-1.394.783-3.094.42-4.692.415-.54 0-1.183.11-1.398.611-.145.34-.029.729-.014 1.099.047 1.175-.91 2.09-1.713 2.937-.803.848-1.56 2.058-1.054 3.112.193.401.547.705.748 1.102.347.69.172 1.522.298 2.284.126.578.34 1.133.633 1.645.595 1.175 3.587 7.5 4.962 5.892.666-.783.774-3.047 1.043-4.065.371-1.464.75-2.919 1.137-4.365z"/>
        <ellipse cx="16" cy="25.5" fill="#BE7C5E" rx="1" ry="1.5"/>
        <ellipse cx="23.016" cy="22.964" fill="url(#a)" opacity=".5" rx="22.978" ry="22.88" transform="translate(53 51)"/>
        <circle cx="75.5" cy="73.5" r="22.5" fill="#F5F5F5"/>
        <path fill="#7CBE35" d="M75.778 96c4.344.005 8.595-1.207 12.222-3.487C87.18 88.245 84.06 88 84.06 88H66.864s-2.942.23-3.864 4.158c3.74 2.507 8.204 3.85 12.778 3.842z"/>
        <circle cx="76" cy="73" r="11" fill="#F55F44"/>
        <path fill="#000" d="M72 82h7v5.539C79 89.45 77.433 91 75.501 91c-1.932 0-3.499-1.55-3.499-3.461V82H72z" opacity=".1"/>
        <path fill="#FDA57D" d="M72.666 82h5.666c.177 0 .347.07.472.194a.657.657 0 0 1 .196.467v4.878c0 .918-.369 1.798-1.025 2.447A3.52 3.52 0 0 1 75.5 91a3.52 3.52 0 0 1-2.475-1.014A3.442 3.442 0 0 1 72 87.54V82.66c0-.365.3-.661.668-.661h-.002z"/>
        <path fill="#000" d="M72 84.568c2.256.571 4.74.576 7 .014V84h-7v.568z" opacity=".1"/>
        <circle cx="76" cy="75" r="10" fill="#FDA57D"/>
        <circle cx="76" cy="62" r="4" fill="#F55F44"/>
        <circle cx="75.5" cy="58.5" r="2.5" fill="#F55F44"/>
        <path fill="#F55F44" d="M73.606 64.284A4.128 4.128 0 0 1 71.446 59a4.124 4.124 0 0 0 .338 4.287A4.148 4.148 0 0 0 79 62.379a4.148 4.148 0 0 1-5.394 1.905z"/>
        <path fill="#000" d="M69 65.637s4.186 8.934 16 3.74l-2.75-4.536L77.377 63 69 65.637z" opacity=".1"/>
        <path fill="#F55F44" d="M69 65.637s4.186 8.934 16 3.74l-2.75-4.536L77.377 63 69 65.637z"/>
        <path fill="#333" d="M72 62.958a52.917 52.917 0 0 1 8 0s-5.91.53-8 0z"/>
        <path fill="#F55F44" d="M76.557 56.002a2.437 2.437 0 0 0-.557.043h.143c1.257.04 2.282 1.036 2.378 2.309.095 1.272-.77 2.413-2.007 2.646 1.36.012 2.474-1.096 2.486-2.477.012-1.38-1.08-2.509-2.442-2.521h-.001z"/>
        <ellipse cx="66" cy="75.5" fill="#FDA57D" rx="1" ry="1.5"/>
        <ellipse cx="86" cy="75.5" fill="#FDA57D" rx="1" ry="1.5"/>
        <path fill="#F55F44" d="M68 66.83l1.632-.83.368 1.33-1 .67z"/>
        <ellipse cx="22.994" cy="22.98" fill="url(#b)" opacity=".5" rx="22.978" ry="22.88" transform="translate(53)"/>
        <circle cx="75.5" cy="22.5" r="22.5" fill="#F5F5F5"/>
        <path fill="#333" d="M66.899 23S64.377 35.548 63 34.853c0 0 13.277 11.581 25 0 0 0-2.065-8.843-5.046-11.853H66.9z"/>
        <path fill="#7CBE35" d="M75.774 45c4.346.007 8.598-1.206 12.226-3.487C87.18 37.245 84.061 37 84.061 37H66.862s-2.94.23-3.862 4.158c3.74 2.507 8.202 3.85 12.774 3.842z"/>
        <circle cx="76" cy="22" r="10" fill="#333"/>
        <path fill="#000" d="M72 31h7v5.539c0 1.91-1.563 3.458-3.493 3.461-1.932 0-3.499-1.55-3.499-3.461V31H72z" opacity=".1"/>
        <path fill="#BE7C5E" d="M72.661 31h5.67c.37 0 .669.296.669.661v4.878c0 1.91-1.565 3.458-3.497 3.461C73.568 40 72 38.45 72 36.539v-4.88a.665.665 0 0 1 .661-.659z"/>
        <path fill="#000" d="M72 33.568c2.256.571 4.74.576 7 .014V33h-7v.568z" opacity=".1"/>
        <circle cx="76" cy="24" r="10" fill="#BE7C5E"/>
        <path fill="#333" d="M66 21h19s-1.623-7.454-8.805-6.978C69.013 14.497 66 21 66 21z"/>
        <ellipse cx="66" cy="24.5" fill="#BE7C5E" rx="1" ry="1.5"/>
        <ellipse cx="85" cy="24.5" fill="#BE7C5E" rx="1" ry="1.5"/>
        <path fill="#000" d="M66 21h19s-1.623-7.454-8.805-6.978C69.013 14.497 66 21 66 21z" opacity=".1"/>
        <ellipse cx="22.947" cy="22.978" fill="url(#c)" opacity=".5" rx="22.88" ry="22.978" transform="translate(107)"/>
        <circle cx="130.5" cy="22.5" r="22.5" fill="#F5F5F5"/>
        <path fill="#7CBE35" d="M130.773 45c4.346.007 8.599-1.206 12.227-3.486-.822-4.27-3.94-4.514-3.94-4.514h-17.197s-2.941.23-3.863 4.157c3.739 2.507 8.2 3.85 12.773 3.843z"/>
        <circle cx="130" cy="22" r="11" fill="#72351C"/>
        <path fill="#000" d="M127 31h7v5.535c.002.919-.366 1.8-1.023 2.45A3.52 3.52 0 0 1 130.501 40c-1.932 0-3.499-1.549-3.499-3.459V31H127z" opacity=".1"/>
        <path fill="#FDA57D" d="M127.666 31h5.666c.369 0 .668.296.668.661v4.878c0 1.911-1.567 3.461-3.5 3.461s-3.5-1.55-3.5-3.461V31.66c0-.365.3-.661.668-.661h-.002z"/>
        <path fill="#000" d="M127 33.568c2.256.571 4.74.576 7 .014V33h-7v.568z" opacity=".1"/>
        <circle cx="130" cy="24" r="10" fill="#FDA57D"/>
        <path fill="#000" d="M123 15.637s4.186 8.934 16 3.74l-2.75-4.536L131.377 13 123 15.637z" opacity=".1"/>
        <path fill="#72351C" d="M123 15.637s4.186 8.934 16 3.74l-2.75-4.536L131.377 13 123 15.637z"/>
        <path fill="#72351C" d="M123.213 14.68c.29-.852.79-1.625 1.46-2.254 2.006-1.882 5.295-2.278 6.983-4.426.185.307.225.675.109 1.011a1.279 1.279 0 0 1-.718.756c1.623-.01 3.49-.145 4.403-1.407a2.756 2.756 0 0 1-.509 3.029c1.432.061 2.961.983 3.055 2.342.06.904-.536 1.76-1.32 2.28-.785.52-1.73.752-2.663.945-2.722.577-12.577 2.965-10.8-2.277z"/>
        <path fill="#72351C" fill-rule="nonzero" d="M139.998 24h-.265l-5.159 4.605c-4.972-2.332-8.62 0-8.62 0l-5.41-4.412-.544.068c.154 5.472 4.662 9.808 10.126 9.738 5.464-.07 9.86-4.52 9.874-9.995l-.002-.004zm-10.016 6.366c-1.945 0-3.522-.398-3.522-.883 0-.484 1.577-.882 3.522-.882 1.945 0 3.522.398 3.522.882 0 .485-1.577.883-3.524.883h.002z"/>
        <ellipse cx="120" cy="24.5" fill="#FDA57D" rx="1" ry="1.5"/>
        <ellipse cx="140" cy="24.5" fill="#FDA57D" rx="1" ry="1.5"/>
        <ellipse cx="22.978" cy="23.045" fill="url(#a)" opacity=".5" rx="22.978" ry="22.88" transform="translate(0 49)"/>
        <circle cx="22.5" cy="72.5" r="22.5" fill="#F5F5F5"/>
        <path fill="#7CBE35" d="M22.778 94c4.345.006 8.595-1.206 12.222-3.487C34.18 86.245 31.062 86 31.062 86h-17.2s-2.94.23-3.862 4.158c3.74 2.508 8.205 3.85 12.778 3.842z"/>
        <circle cx="23" cy="72" r="11" fill="#333"/>
        <path fill="#000" d="M19 81h7v5.539C26 88.45 24.433 90 22.501 90a3.519 3.519 0 0 1-2.474-1.014 3.442 3.442 0 0 1-1.025-2.447V81H19z" opacity=".1"/>
        <path fill="#FDB797" d="M19.668 80.002h5.664c.369 0 .668.296.668.66v4.88C26 87.451 24.433 89 22.501 89a3.52 3.52 0 0 1-2.475-1.012A3.439 3.439 0 0 1 19 85.54v-4.88c0-.365.3-.661.668-.661v.002z"/>
        <path fill="#000" d="M19 83.57a14.69 14.69 0 0 0 7 .014V83h-7v.57z" opacity=".1"/>
        <circle cx="23" cy="74" r="10" fill="#FDB797"/>
        <path fill="#000" d="M16 64.637s4.186 8.934 16 3.74l-2.75-4.536L24.377 62 16 64.637z" opacity=".1"/>
        <path fill="#333" d="M16 64.637s4.186 8.934 16 3.74l-2.75-4.536L24.377 62 16 64.637z"/>
        <path fill="#333" d="M15.213 63.677c.29-.851.79-1.623 1.46-2.253 2.006-1.881 5.295-2.277 6.983-4.424.185.307.225.675.109 1.011-.116.337-.377.61-.718.755 1.623-.01 3.49-.144 4.403-1.406a2.754 2.754 0 0 1-.509 3.027c1.432.062 2.961.983 3.055 2.341.06.905-.536 1.76-1.32 2.28-.785.52-1.733.756-2.666.952-2.721.573-12.574 2.96-10.797-2.283z"/>
        <ellipse cx="13" cy="73.5" fill="#FDB797" rx="1" ry="1.5"/>
        <ellipse cx="33" cy="73.5" fill="#FDB797" rx="1" ry="1.5"/>
        <circle cx="23.01" cy="23.016" r="22.88" fill="url(#a)" opacity=".5" transform="translate(108 52)"/>
        <circle cx="131.5" cy="74.5" r="22.5" fill="#F5F5F5"/>
        <path fill="#7CBE35" d="M130.774 97c4.346.007 8.598-1.206 12.226-3.487-.82-4.268-3.939-4.513-3.939-4.513h-17.199s-2.94.23-3.862 4.158c3.74 2.507 8.202 3.85 12.774 3.842z"/>
        <path fill="#000" d="M127 83h7v5.539c0 1.911-1.567 3.461-3.499 3.461a3.519 3.519 0 0 1-2.475-1.013A3.442 3.442 0 0 1 127 88.539V83z" opacity=".1"/>
        <path fill="#FDB797" d="M127.668 83h5.664c.369 0 .668.296.668.661v4.878c0 1.911-1.567 3.461-3.499 3.461a3.519 3.519 0 0 1-2.475-1.013A3.442 3.442 0 0 1 127 88.539V83.66c0-.365.3-.661.668-.661z"/>
        <path fill="#000" d="M127 85.568c2.256.571 4.74.576 7 .014V85h-7v.568z" opacity=".1"/>
        <circle cx="131" cy="76" r="10" fill="#FDB797"/>
        <ellipse cx="121" cy="75.5" fill="#FDB797" rx="1" ry="1.5"/>
        <ellipse cx="141" cy="75.5" fill="#FDB797" rx="1" ry="1.5"/>
        <rect width="4" height="2" x="125" y="76" stroke="#333" stroke-width="2" rx="1"/>
        <rect width="4" height="2" x="133" y="76" stroke="#333" stroke-width="2" rx="1" transform="rotate(180 135 77)"/>
        <path stroke="#333" stroke-width="2" d="M129 76.162s1.399-.728 4 0"/>
        <path fill="#858585" d="M138 69l2.246 6s2.747-3.98-2.246-6z"/>
        <path stroke="#333" stroke-linecap="round" stroke-linejoin="round" stroke-width="2" d="M137 77l4-3"/>
        <path fill="#858585" d="M124 69l-2.246 6s-2.747-3.98 2.246-6z"/>
        <path stroke="#333" stroke-linecap="round" stroke-linejoin="round" stroke-width="2" d="M125 77l-4-3"/>
        <circle cx="23.043" cy="22.953" r="22.88" fill="url(#a)" opacity=".5" transform="translate(0 101)"/>
        <circle cx="22.5" cy="123.5" r="22.5" fill="#F5F5F5"/>
        <path fill="#FDD835" d="M35 125.493C35 133.777 29.626 143 22.997 143 16.367 143 11 133.777 11 125.493 11 117.208 16.374 113 23.003 113 29.633 113 35 117.21 35 125.493z"/>
        <path fill="#7CBE35" d="M22.773 146c4.346.007 8.599-1.206 12.227-3.487-.82-4.268-3.94-4.513-3.94-4.513H13.864s-2.941.23-3.863 4.158c3.74 2.507 8.2 3.849 12.773 3.842z"/>
        <path fill="#000" d="M19 132h7v5.539c0 1.911-1.567 3.461-3.499 3.461-1.932 0-3.499-1.55-3.499-3.461V132H19z" opacity=".1"/>
        <path fill="#FDB797" d="M19.666 132h5.666c.369 0 .668.296.668.661v4.878c0 1.911-1.567 3.461-3.5 3.461s-3.5-1.55-3.5-3.461v-4.878c0-.364.298-.66.666-.661z"/>
        <path fill="#000" d="M19 134.568c2.256.571 4.74.576 7 .014V134h-7v.568z" opacity=".1"/>
        <circle cx="23" cy="125" r="10" fill="#FDB797"/>
        <ellipse cx="13" cy="124.5" fill="#FDB797" rx="1" ry="1.5"/>
        <ellipse cx="32" cy="124.5" fill="#FDB797" rx="1" ry="1.5"/>
        <path fill="#000" d="M14 119.483s5.68 7.562 18.704 4.98c0 0 1.454-1.722-2.085-7.008-3.54-5.286-13.397-4.425-16.619 2.028z" opacity=".1"/>
        <path fill="#FDD835" d="M14 119.483s5.68 7.562 18.704 4.98c0 0 1.454-1.722-2.085-7.008-3.54-5.286-13.397-4.425-16.619 2.028z"/>
        <ellipse cx="23.006" cy="23.01" fill="url(#a)" opacity=".5" rx="22.978" ry="22.88" transform="translate(54 103)"/>
        <circle cx="77.5" cy="125.5" r="22.5" fill="#F5F5F5"/>
        <path fill="#333" d="M89 127.705C89 135.275 83.683 139 76.778 139 69.873 139 64 135.275 64 127.705S69.597 114 76.5 114 89 120.13 89 127.705z"/>
        <path fill="#7CBE35" d="M76.772 148c4.346.007 8.6-1.206 12.228-3.487-.82-4.268-3.939-4.513-3.939-4.513H67.862s-2.94.23-3.862 4.158c3.739 2.507 8.2 3.849 12.772 3.842z"/>
        <path fill="#000" d="M74.006 134H81v5.535a3.44 3.44 0 0 1-1.025 2.453A3.515 3.515 0 0 1 77.496 143a3.515 3.515 0 0 1-2.472-1.013A3.44 3.44 0 0 1 74 139.54V134h.006z" opacity=".1"/>
        <path fill="#FDA57D" d="M74.672 134.002h5.66c.369 0 .668.296.668.66v4.878c0 .918-.37 1.8-1.026 2.449A3.516 3.516 0 0 1 77.497 143a3.516 3.516 0 0 1-2.473-1.014A3.442 3.442 0 0 1 74 139.54v-4.88c0-.174.07-.342.196-.466a.672.672 0 0 1 .472-.194l.004.002z"/>
        <path fill="#000" d="M74 136.568c2.256.571 4.74.576 7 .014V136h-7v.568z" opacity=".1"/>
        <circle cx="77" cy="128" r="10" fill="#FDA57D"/>
        <path fill="#000" d="M66 128s6.057-.72 10.636-6.469c0 0 6.057 6.53 10.277 5.81 0 0 2.446-2.517 0-5.032-2.447-2.514-4.344-5.69-7.585-5.272-3.241.419-7.219.599-8.93 2.097C68.686 120.632 66 128 66 128z" opacity=".1"/>
        <path fill="#333" d="M66 128s6.057-.72 10.636-6.469c0 0 6.057 6.53 10.277 5.81 0 0 2.446-2.517 0-5.032-2.447-2.514-4.344-5.69-7.585-5.272-3.241.419-7.211.591-8.923 2.106C68.694 120.658 66 128 66 128z"/>
        <ellipse cx="67" cy="127.5" fill="#FDA57D" rx="1" ry="1.5"/>
        <ellipse cx="87" cy="127.5" fill="#FDA57D" rx="1" ry="1.5"/>
    </g>
</svg>
