<svg xmlns="http://www.w3.org/2000/svg" width="319" height="275" viewBox="0 0 319 275">
    <defs>
        <linearGradient id="a" x1="50%" x2="50%" y1="99.986%" y2="0%">
            <stop offset="0%" stop-color="gray" stop-opacity=".25"/>
            <stop offset="54%" stop-color="gray" stop-opacity=".12"/>
            <stop offset="100%" stop-color="gray" stop-opacity=".1"/>
        </linearGradient>
        <linearGradient id="b" x1="50%" x2="50%" y1="99.986%" y2="0%">
            <stop offset="0%" stop-color="gray" stop-opacity=".25"/>
            <stop offset="54%" stop-color="gray" stop-opacity=".12"/>
            <stop offset="100%" stop-color="gray" stop-opacity=".1"/>
        </linearGradient>
        <linearGradient id="c" x1="50%" x2="50%" y1="100%" y2="0%">
            <stop offset="0%" stop-color="gray" stop-opacity=".25"/>
            <stop offset="54%" stop-color="gray" stop-opacity=".12"/>
            <stop offset="100%" stop-color="gray" stop-opacity=".1"/>
        </linearGradient>
        <linearGradient id="d" x1="50.008%" x2="50.008%" y1="100.001%" y2=".012%">
            <stop offset="0%" stop-color="gray" stop-opacity=".25"/>
            <stop offset="54%" stop-color="gray" stop-opacity=".12"/>
            <stop offset="100%" stop-color="gray" stop-opacity=".1"/>
        </linearGradient>
    </defs>
    <g fill="none" fill-rule="evenodd" transform="translate(-1)">
        <ellipse cx="152.5" cy="263" fill="#7CBE35" opacity=".1" rx="39.5" ry="9"/>
        <path fill="#7CBE35" d="M89.31 17.853c9.703-8.635 24.934-10.409 38.8-9.718 43.547 2.169 82.85 23.183 116.86 46.957 12.29 8.608 24.429 17.885 32.418 29.735 16.278 24.13 11.441 57.555-11.178 77.433-7.694 6.762-17.022 11.957-26.599 16.544-17.028 8.17-35.402 14.733-54.73 16.606-13.779 1.329-27.73.25-41.434-1.61-38.279-5.189-75.853-16.667-107.349-36.306-13.826-8.619-26.831-19.32-32.525-33.27-5.694-13.949-2.05-31.578 12.055-39.825 5.834-3.411 12.806-4.952 19.636-6.397 10.053-2.129 20.264-4.228 29.333-8.559 9.368-4.47 20.463-13.116 18.603-23.01-1.986-10.618-3.58-19.944 6.11-28.58z" opacity=".1"/>
        <path fill="#E6ECF8" d="M76 68.638l-6.54 2.585L59.897 75a62.607 62.607 0 0 0-1.551-2.714c-2.266-3.835-6.016-9.8-9.35-15.042C45.238 51.323 42 46.345 42 46.345l2.345-.678L63.475 40 76 68.638z"/>
        <path fill="#000" d="M77 68.392l-6.612 2.561a49.825 49.825 0 0 1-11.235 1.035c-2.29-3.798-6.08-9.707-9.452-14.9L45 45.613 64.338 40 77 68.392z" opacity=".1"/>
        <path fill="#7CBE35" d="M81 67.025s-10.045 6.166-25.044 4.77L44 41.55l5.732-1.022L69.54 37l11.233 29.436.227.59z"/>
        <path fill="#000" d="M82 65.928c-2.701.146-5.41.07-8.099-.228-3.074-.358-6.166-1.091-8.803-2.443a26.672 26.672 0 0 1-5.756-3.826c-4.297-3.82-6.955-9.286-9.342-18.963L70.43 37 82 65.928z" opacity=".1"/>
        <path fill="#F9FAFB" d="M89 64.153s-7.458 1.448-15.038.557c-3-.35-6.018-1.07-8.592-2.391a26.226 26.226 0 0 1-5.617-3.744C54.565 53.947 51.822 46.855 49 32.531c0 0 12.388 2.948 24.634-3.531-.016.013 4.114 25.563 15.366 35.153z"/>
        <path fill="#000" d="M73 65c-2.956-.355-5.929-1.085-8.465-2.422A25.8 25.8 0 0 1 59 58.787C63.353 58.425 63.978 56 63.978 56 67.192 61.212 73 65 73 65z" opacity=".1"/>
        <path fill="#7CBE35" d="M55 37.524S64.835 37 67.58 35l.42 1.26S61.5 38.967 55 39v-1.476zM55 44.206S65.106 43.659 72.74 40l.26.587S66.937 44.094 55 45v-.794zM56 47.209s10.11-.55 17.743-4.209l.257.584S67.94 47.094 56 48v-.791zM57 49.206S67.106 48.659 74.74 45l.26.587S68.937 49.094 57 50v-.794zM57 52.209s10.11-.55 17.743-4.209l.257.584S68.94 52.094 57 53v-.791zM57 55.206S67.106 54.659 74.74 51l.26.587S68.937 55.094 57 56v-.794z" opacity=".3"/>
        <path fill="#464A5F" d="M318.943 94.756l.197.244.03-.528-.13-.472-.21.057z"/>
        <path fill="#000" d="M318.943 94.756l.197.244.03-.528-.13-.472-.21.057z" opacity=".1"/>
        <path fill="#9C9CA1" d="M318.997 94.815l.193.147-.133.223-.19-.04-.057-.077z"/>
        <path fill="#000" d="M318.997 94.815l.193.147-.133.223-.19-.04-.057-.077z" opacity=".1"/>
        <path fill="#9C9CA1" d="M282.8 69l-15.462 21.826a1.85 1.85 0 0 0 .405 2.549l33.009 24.277c.803.59 1.926.411 2.512-.401L319 95.369 282.8 69z"/>
        <path fill="#000" d="M282.8 69l-15.462 21.826a1.85 1.85 0 0 0 .405 2.549l33.009 24.277c.803.59 1.926.411 2.512-.401L319 95.369 282.8 69z" opacity=".1"/>
        <path fill="#9C9CA1" d="M282.803 69l-15.465 21.829a1.848 1.848 0 0 0 .405 2.546l33.005 24.279c.805.589 1.928.408 2.513-.405L319 95.366 282.803 69z"/>
        <path fill="#464A5F" d="M283 55.406l.414 13.303L320 95l-.347-13.536a1.939 1.939 0 0 0-.82-1.538l-35.216-24.85a.386.386 0 0 0-.617.33z"/>
        <path fill="#000" d="M283 55.406l.414 13.303L320 95l-.347-13.536a1.939 1.939 0 0 0-.82-1.538l-35.216-24.85a.386.386 0 0 0-.617.33z" opacity=".1"/>
        <path fill="#464A5F" d="M283 55.392l.413 13.314L320 95l-.357-13.537a1.942 1.942 0 0 0-.823-1.538l-35.213-24.853a.383.383 0 0 0-.607.32z"/>
        <g fill="#000" opacity=".1">
            <path d="M284.61 75.17l-.947 1.333a.367.367 0 0 0 .084.507l1.333 1c.16.119.387.086.507-.073l.956-1.254a.363.363 0 0 0-.063-.51l-1.36-1.073a.363.363 0 0 0-.51.07zM287.077 76.943l-.947 1.334a.367.367 0 0 0 .083.506l1.334 1c.16.12.386.086.506-.073l.957-1.253a.363.363 0 0 0-.063-.51l-1.347-1.07a.363.363 0 0 0-.523.066zM289.667 78.803l-.947 1.334a.367.367 0 0 0 .083.506l1.334 1c.16.12.386.086.506-.073l.957-1.253a.367.367 0 0 0-.063-.51l-1.36-1.07a.363.363 0 0 0-.51.066zM292.287 80.687l-.947 1.333a.367.367 0 0 0 .08.507l1.333 1c.16.119.387.086.507-.074l.957-1.253a.367.367 0 0 0-.064-.51l-1.36-1.07a.363.363 0 0 0-.506.067zM294.907 82.57l-.947 1.333a.367.367 0 0 0 .08.507l1.333 1c.162.12.389.087.51-.073l.957-1.254a.367.367 0 0 0-.063-.51l-1.36-1.07a.363.363 0 0 0-.51.067zM297.643 84.287l-1.173 1.666a.173.173 0 0 0 .037.237l1.666 1.22a.17.17 0 0 0 .237-.033l1.19-1.56a.17.17 0 0 0-.03-.237l-1.667-1.333a.173.173 0 0 0-.26.04zM300.263 86.17l-1.173 1.667a.173.173 0 0 0 .037.236l1.666 1.22a.17.17 0 0 0 .237-.033l1.19-1.56a.17.17 0 0 0-.03-.237l-1.667-1.333a.173.173 0 0 0-.26.04zM302.583 87.837l-1.176 1.666a.17.17 0 0 0 .04.237l1.666 1.22a.173.173 0 0 0 .24-.033l1.19-1.557a.173.173 0 0 0-.03-.24l-1.666-1.333a.17.17 0 0 0-.264.04zM305.18 89.703l-1.173 1.667a.167.167 0 0 0 .036.237l1.667 1.22a.173.173 0 0 0 .24-.034l1.19-1.556a.173.173 0 0 0-.03-.24l-1.667-1.317a.17.17 0 0 0-.263.023zM307.687 91.513l-1.174 1.667a.17.17 0 0 0 .04.237l1.667 1.223a.17.17 0 0 0 .237-.037l1.19-1.556a.173.173 0 0 0-.03-.24l-1.667-1.317a.173.173 0 0 0-.263.023zM310.21 93.32l-1.173 1.667a.173.173 0 0 0 .036.236l1.667 1.22a.17.17 0 0 0 .237-.033l1.19-1.56a.17.17 0 0 0-.03-.237l-1.667-1.316a.17.17 0 0 0-.26.023zM312.727 95.13l-1.177 1.667a.17.17 0 0 0 .04.236l1.667 1.224a.173.173 0 0 0 .24-.037l1.19-1.557a.173.173 0 0 0-.03-.24l-1.667-1.333a.17.17 0 0 0-.263.04zM282.887 77.563l-.944 1.334a.367.367 0 0 0 .08.506l1.334 1a.37.37 0 0 0 .51-.073l.956-1.253a.367.367 0 0 0-.063-.51l-1.36-1.074a.37.37 0 0 0-.513.07zM279.127 82.797l-.944 1.333a.367.367 0 0 0 .08.507l1.334 1a.37.37 0 0 0 .51-.07l.956-1.254a.367.367 0 0 0-.063-.51l-1.36-1.073a.367.367 0 0 0-.513.067zM285.353 79.337l-.946 1.333a.367.367 0 0 0 .08.507l1.333 1a.37.37 0 0 0 .51-.074l.957-1.253a.367.367 0 0 0-.064-.51l-1.36-1.073a.367.367 0 0 0-.51.07zM287.943 81.21L287 82.543a.367.367 0 0 0 .08.507l1.333 1a.37.37 0 0 0 .51-.07l.957-1.253a.367.367 0 0 0-.063-.51l-1.36-1.074a.367.367 0 0 0-.514.067zM290.563 83.083l-.943 1.334a.367.367 0 0 0 .08.506l1.333 1a.37.37 0 0 0 .51-.07l.957-1.256a.363.363 0 0 0-.063-.507l-1.36-1.073a.367.367 0 0 0-.514.066zM281.653 84.487l-.943 1.333a.367.367 0 0 0 .08.507l1.333 1a.37.37 0 0 0 .51-.07L283.59 86a.363.363 0 0 0-.063-.507l-1.36-1.073a.367.367 0 0 0-.514.067zM284.243 86.347l-.943 1.333a.367.367 0 0 0 .08.507l1.333 1a.37.37 0 0 0 .51-.074l.957-1.253a.367.367 0 0 0-.063-.51l-1.36-1.073a.37.37 0 0 0-.514.07zM286.863 88.23l-.943 1.333a.367.367 0 0 0 .08.507l1.333 1a.37.37 0 0 0 .51-.073l.957-1.254a.367.367 0 0 0-.067-.51l-1.356-1.073a.367.367 0 0 0-.514.07zM293.183 84.967l-.943 1.333a.367.367 0 0 0 .08.507l1.333 1a.37.37 0 0 0 .51-.07l.957-1.257a.363.363 0 0 0-.063-.507l-1.347-1.096a.367.367 0 0 0-.527.09zM295.803 86.847l-.943 1.333a.367.367 0 0 0 .08.507l1.333 1a.37.37 0 0 0 .51-.07l.957-1.257a.363.363 0 0 0-.063-.507l-1.36-1.073a.367.367 0 0 0-.514.067zM298.543 88.563l-1.176 1.667a.17.17 0 0 0 .04.237l1.666 1.22a.173.173 0 0 0 .24-.034l1.19-1.556a.173.173 0 0 0-.03-.24l-1.666-1.334a.17.17 0 0 0-.264.04zM300.86 90.23l-1.173 1.667a.17.17 0 0 0 .04.236l1.666 1.22a.167.167 0 0 0 .237-.033l1.19-1.557a.173.173 0 0 0-.03-.24l-1.667-1.333a.173.173 0 0 0-.263.04zM303.46 92.097l-1.177 1.666a.17.17 0 0 0 .04.237l1.667 1.22a.167.167 0 0 0 .237-.033l1.19-1.557a.173.173 0 0 0-.03-.24l-1.667-1.317a.17.17 0 0 0-.26.024zM305.973 93.907l-1.173 1.666a.173.173 0 0 0 .037.237l1.666 1.22a.17.17 0 0 0 .237-.033l1.19-1.56a.17.17 0 0 0-.03-.237l-1.667-1.333a.173.173 0 0 0-.26.04zM286.157 83.687l-.947 1.333a.367.367 0 0 0 .08.507l1.333 1c.162.119.389.086.51-.074l.957-1.253a.367.367 0 0 0-.063-.51l-1.34-1.077a.363.363 0 0 0-.53.074zM288.777 85.57l-.947 1.333a.367.367 0 0 0 .08.507l1.333 1c.162.12.389.087.51-.073l.957-1.254a.367.367 0 0 0-.063-.51l-1.36-1.07a.363.363 0 0 0-.51.067zM291.393 87.453l-.943 1.334a.367.367 0 0 0 .08.506l1.333 1c.162.12.389.087.51-.073l.957-1.253a.37.37 0 0 0-.063-.51l-1.36-1.07a.367.367 0 0 0-.514.066zM294.02 89.337l-.943 1.333a.367.367 0 0 0 .08.507l1.333 1c.161.119.389.086.51-.074l.957-1.253a.367.367 0 0 0-.064-.51l-1.36-1.07a.367.367 0 0 0-.513.067zM296.753 91.053l-1.173 1.667a.167.167 0 0 0 .037.237l1.666 1.22a.173.173 0 0 0 .24-.034l1.19-1.56a.17.17 0 0 0-.03-.236l-1.666-1.317a.17.17 0 0 0-.264.023zM299.073 92.72l-1.176 1.667a.17.17 0 0 0 .04.236l1.666 1.22a.173.173 0 0 0 .24-.033l1.187-1.557a.167.167 0 0 0-.03-.24l-1.667-1.316a.167.167 0 0 0-.26.023zM301.687 94.587l-1.177 1.666a.17.17 0 0 0 .04.237l1.667 1.22a.173.173 0 0 0 .24-.033l1.19-1.557a.173.173 0 0 0-.03-.24l-1.667-1.333a.167.167 0 0 0-.263.04zM304.183 96.397l-1.173 1.666a.177.177 0 0 0 .037.24l1.666 1.22c.075.054.18.04.237-.033l1.19-1.56a.17.17 0 0 0-.03-.237l-1.667-1.333a.173.173 0 0 0-.26.037zM308.49 95.713l-1.177 1.667a.17.17 0 0 0 .04.237l1.667 1.22a.17.17 0 0 0 .24-.034l1.19-1.556a.173.173 0 0 0-.03-.24l-1.667-1.317a.173.173 0 0 0-.263.023zM311.02 97.523l-1.173 1.667a.177.177 0 0 0 .036.24l1.667 1.22c.075.054.18.04.237-.033l1.19-1.56a.17.17 0 0 0-.03-.237l-1.667-1.333a.173.173 0 0 0-.26.036zM299.723 97.297l-1.106 1.556a.227.227 0 0 0 .053.317l1.56 1.153a.227.227 0 0 0 .333-.043l1.12-1.467a.227.227 0 0 0-.04-.333l-1.576-1.247a.23.23 0 0 0-.344.064zM302.24 99.103l-1.107 1.56a.227.227 0 0 0 .05.317l1.564 1.153a.233.233 0 0 0 .333-.046l1.12-1.467a.23.23 0 0 0-.04-.333l-1.58-1.244a.227.227 0 0 0-.34.06zM304.753 100.91l-1.106 1.56a.23.23 0 0 0 .053.333l1.563 1.154a.227.227 0 0 0 .334-.044l1.12-1.47a.223.223 0 0 0-.04-.316l-1.577-1.247a.233.233 0 0 0-.347.03zM307.303 102.67l-1.173 1.667a.173.173 0 0 0 .04.24l1.667 1.22a.17.17 0 0 0 .236-.034l1.19-1.56a.17.17 0 0 0-.03-.236l-1.666-1.334a.173.173 0 0 0-.264.037zM281.02 80.037l-1 1.43a.367.367 0 0 0 .087.51l3.913 2.786c.16.114.381.08.5-.076l1.067-1.39a.363.363 0 0 0-.08-.52l-3.977-2.827a.363.363 0 0 0-.51.087zM306.65 98.23l-1.23 1.75a.17.17 0 0 0 .04.237l4.23 3c.076.053.18.037.237-.037l1.3-1.7a.17.17 0 0 0-.037-.243l-4.3-3.057a.17.17 0 0 0-.24.05zM289.53 89.963l-1.177 1.627a.177.177 0 0 0 .037.24l9.167 6.76c.075.054.179.04.236-.033l1.294-1.697a.17.17 0 0 0-.037-.243l-9.273-6.69a.17.17 0 0 0-.247.036z"/>
        </g>
        <path fill="#464A5F" d="M284.006 74.14l-.939 1.309c-.114.16-.08.38.08.497l1.322.982c.16.118.385.088.506-.068l.949-1.231a.354.354 0 0 0-.063-.5l-1.349-1.055a.363.363 0 0 0-.506.066zM286.007 76.138l-.94 1.31c-.114.16-.08.381.08.498l1.324.983a.363.363 0 0 0 .503-.07l.95-1.23a.354.354 0 0 0-.063-.502l-1.35-1.054a.363.363 0 0 0-.504.065zM289 78.143l-.933 1.31c-.114.159-.08.38.08.496l1.322.982a.37.37 0 0 0 .506-.072l.949-1.23a.354.354 0 0 0-.063-.5l-1.349-1.054a.367.367 0 0 0-.512.068zM292.006 80.142l-.939 1.31c-.114.159-.08.38.08.497l1.322.982a.37.37 0 0 0 .506-.072l.949-1.231a.354.354 0 0 0-.063-.501l-1.349-1.054a.363.363 0 0 0-.506.069z"/>
        <path fill="#464A5F" d="M294.003 81.14l-.936 1.31c-.114.16-.08.381.08.498l1.323.983a.37.37 0 0 0 .506-.072l.95-1.232a.358.358 0 0 0-.064-.5l-1.35-1.055a.37.37 0 0 0-.509.069zM296.507 83.103l-1.466 2.057a.208.208 0 0 0 .045.292l2.083 1.506c.095.07.228.05.3-.041l1.487-1.925a.208.208 0 0 0-.037-.292l-2.083-1.646a.218.218 0 0 0-.33.05zM299.508 85.1l-1.466 2.058a.208.208 0 0 0 .046.296l2.082 1.506a.223.223 0 0 0 .3-.041l1.486-1.926a.208.208 0 0 0-.037-.292l-2.082-1.646a.218.218 0 0 0-.329.046z"/>
        <path fill="#464A5F" d="M301.509 87.106l-1.47 2.055a.208.208 0 0 0 .05.292l2.082 1.505c.094.07.227.05.3-.04l1.485-1.925a.208.208 0 0 0-.037-.292l-2.081-1.645a.214.214 0 0 0-.33.05z"/>
        <path fill="#464A5F" d="M304.509 88.103l-1.47 2.057a.208.208 0 0 0 .05.292l2.082 1.506c.094.07.227.05.3-.041l1.485-1.925a.208.208 0 0 0-.037-.292l-2.081-1.646a.218.218 0 0 0-.33.05zM307.507 90.088l-1.468 2.065a.213.213 0 0 0 .046.293l2.086 1.51a.21.21 0 0 0 .296-.04l1.489-1.929a.213.213 0 0 0-.038-.297l-2.085-1.63a.218.218 0 0 0-.326.028z"/>
        <path fill="#464A5F" d="M309.508 92.103l-1.466 2.057a.204.204 0 0 0 .046.292l2.082 1.506c.095.07.228.05.3-.041l1.486-1.925a.208.208 0 0 0-.037-.292l-2.082-1.646a.218.218 0 0 0-.329.05z"/>
        <path fill="#464A5F" d="M311.51 94.09l-1.47 2.065a.21.21 0 0 0 .05.293l2.082 1.51c.093.07.225.05.295-.04l1.487-1.929a.21.21 0 0 0-.037-.297l-2.083-1.63a.214.214 0 0 0-.325.029zM282.003 77.14l-.936 1.31c-.114.16-.08.381.08.498l1.323.983a.37.37 0 0 0 .506-.072l.95-1.232a.358.358 0 0 0-.064-.5l-1.35-1.055a.37.37 0 0 0-.509.069zM278.005 82.14l-.94 1.31a.36.36 0 0 0 .083.497l1.323.982a.363.363 0 0 0 .503-.07l.953-1.233a.354.354 0 0 0-.067-.498l-1.346-1.054a.367.367 0 0 0-.51.066zM284.003 79.14l-.936 1.31c-.114.16-.08.381.08.498l1.323.983a.37.37 0 0 0 .506-.072l.95-1.232a.358.358 0 0 0-.064-.5l-1.35-1.055a.37.37 0 0 0-.509.069zM287.004 81.15l-.937 1.305c-.114.16-.08.38.08.496l1.323.979c.16.116.386.084.507-.072l.95-1.227a.359.359 0 0 0-.063-.499l-1.337-1.054a.368.368 0 0 0-.523.072zM290.004 82.14l-.937 1.31c-.114.16-.08.38.08.497l1.323.983c.16.117.386.085.507-.073l.95-1.23a.36.36 0 0 0-.063-.502l-1.35-1.05a.367.367 0 0 0-.51.065zM281.004 84.14l-.937 1.31c-.114.16-.08.38.08.497l1.323.983c.16.117.386.085.507-.073l.95-1.23a.358.358 0 0 0-.067-.502l-1.347-1.05a.367.367 0 0 0-.51.065zM284.004 86.144l-.937 1.31a.355.355 0 0 0 .08.495l1.323.982c.16.115.383.083.503-.072l.953-1.231a.358.358 0 0 0-.066-.501l-1.347-1.055a.367.367 0 0 0-.51.072zM286.004 88.154l-.94 1.305a.356.356 0 0 0 .083.493l1.324.98c.16.114.382.082.503-.073l.952-1.227a.356.356 0 0 0-.066-.5l-1.33-1.053a.368.368 0 0 0-.526.075zM292.004 84.158l-.937 1.301a.354.354 0 0 0 .08.495l1.323.976c.16.116.386.084.507-.072l.95-1.223a.354.354 0 0 0-.067-.498l-1.317-1.05a.368.368 0 0 0-.54.071zM295.004 86.14l-.937 1.31c-.114.16-.08.38.08.497l1.323.983c.16.117.384.084.503-.072l.953-1.231a.358.358 0 0 0-.066-.501l-1.347-1.052a.367.367 0 0 0-.51.066zM297.509 88.093l-1.47 2.062a.21.21 0 0 0 .05.293l2.081 1.51c.095.07.228.051.3-.041l1.486-1.93a.205.205 0 0 0-.041-.294l-2.082-1.629a.21.21 0 0 0-.324.029z"/>
        <path fill="#464A5F" d="M299.507 89.09l-1.468 2.065a.213.213 0 0 0 .046.293l2.086 1.51c.093.07.225.05.296-.04l1.489-1.929a.213.213 0 0 0-.038-.297l-2.085-1.63a.214.214 0 0 0-.326.029zM302.507 91.09l-1.468 2.065a.213.213 0 0 0 .046.293l2.086 1.51c.093.07.225.05.296-.04l1.489-1.929a.213.213 0 0 0-.038-.297l-2.085-1.63a.214.214 0 0 0-.326.029zM305.508 93.088l-1.467 2.064a.21.21 0 0 0 .045.293l2.085 1.515a.218.218 0 0 0 .296-.041l1.49-1.932a.213.213 0 0 0-.038-.297l-2.085-1.63a.218.218 0 0 0-.326.028zM285.003 83.14l-.936 1.31c-.114.16-.08.38.08.497l1.323.983c.16.117.385.085.506-.073l.95-1.23a.358.358 0 0 0-.064-.502l-1.35-1.05a.366.366 0 0 0-.509.065zM288.003 85.14l-.936 1.31c-.114.16-.08.38.08.497l1.323.983c.16.117.385.085.506-.073l.95-1.23a.358.358 0 0 0-.064-.502l-1.35-1.05a.366.366 0 0 0-.509.065zM291.003 87.14l-.936 1.31c-.114.16-.08.381.08.498l1.323.983a.37.37 0 0 0 .506-.072l.95-1.232a.358.358 0 0 0-.064-.5l-1.35-1.055a.37.37 0 0 0-.509.069zM293.003 89.14l-.936 1.31c-.114.16-.08.381.08.498l1.323.983a.37.37 0 0 0 .506-.072l.95-1.232a.358.358 0 0 0-.064-.5l-1.35-1.055a.37.37 0 0 0-.509.069zM295.509 90.103l-1.47 2.057a.208.208 0 0 0 .05.292l2.082 1.506c.094.07.227.05.3-.041l1.485-1.925a.208.208 0 0 0-.037-.292l-2.081-1.646a.218.218 0 0 0-.33.05z"/>
        <path fill="#464A5F" d="M298.506 91.103l-1.467 2.057a.208.208 0 0 0 .05.293l2.084 1.506c.093.068.225.05.296-.042l1.487-1.925a.208.208 0 0 0-.037-.292l-2.084-1.646a.219.219 0 0 0-.329.05zM300.51 94.103l-1.47 2.057a.208.208 0 0 0 .05.293l2.082 1.506c.093.068.225.05.296-.042l1.487-1.925a.204.204 0 0 0-.038-.292l-2.083-1.646a.214.214 0 0 0-.324.05zM303.507 96.1l-1.468 2.058a.212.212 0 0 0 .046.292l2.086 1.51a.215.215 0 0 0 .296-.045l1.489-1.922a.212.212 0 0 0-.038-.296l-2.085-1.645a.219.219 0 0 0-.326.049zM307.508 95.095l-1.469 2.062a.209.209 0 0 0 .05.292l2.081 1.51c.095.068.228.05.3-.042l1.486-1.925a.213.213 0 0 0-.037-.297l-2.082-1.628a.21.21 0 0 0-.329.028z"/>
        <path fill="#464A5F" d="M310.507 96.1l-1.468 2.058a.212.212 0 0 0 .046.292l2.086 1.51a.215.215 0 0 0 .296-.045l1.489-1.922a.212.212 0 0 0-.038-.296l-2.085-1.645a.219.219 0 0 0-.326.049zM299.454 96.139l-1.4 1.955a.282.282 0 0 0 .064.397l1.976 1.446a.297.297 0 0 0 .422-.058l1.416-1.839a.287.287 0 0 0-.05-.418l-1.994-1.559a.297.297 0 0 0-.434.076z"/>
        <path fill="#464A5F" d="M301.453 98.132l-1.392 1.944a.29.29 0 0 0 .064.417l1.971 1.44a.288.288 0 0 0 .42-.057l1.418-1.833a.285.285 0 0 0-.055-.416l-1.989-1.554a.292.292 0 0 0-.437.059zM304.451 100.138l-1.4 1.955a.287.287 0 0 0 .068.397l1.973 1.446a.293.293 0 0 0 .422-.059l1.416-1.838a.282.282 0 0 0-.05-.418l-1.995-1.558a.297.297 0 0 0-.434.075z"/>
        <path fill="#464A5F" d="M306.507 102.1l-1.468 2.058a.212.212 0 0 0 .046.292l2.086 1.51a.215.215 0 0 0 .296-.045l1.489-1.922a.212.212 0 0 0-.038-.296l-2.085-1.645a.219.219 0 0 0-.326.049zM279.933 79.159l-.874 1.444a.408.408 0 0 0 .076.515l3.426 2.814c.14.115.335.08.44-.078l.933-1.403a.41.41 0 0 0 .062-.28.378.378 0 0 0-.132-.245l-3.479-2.855a.288.288 0 0 0-.242-.066.32.32 0 0 0-.21.154zM306.288 98.078l-1.256 1.717a.163.163 0 0 0 .04.232l4.322 2.943a.178.178 0 0 0 .238-.036l1.332-1.668a.162.162 0 0 0-.038-.239l-4.392-2.998a.18.18 0 0 0-.246.05zM289.237 89.073l-1.205 1.677a.184.184 0 0 0 .037.247l9.336 6.97c.077.056.185.04.241-.038l1.318-1.75a.177.177 0 0 0-.038-.25l-9.444-6.894a.172.172 0 0 0-.245.038z"/>
        <path fill="#000" d="M284.206 90.395l-5.034 7.199a.953.953 0 0 0 .194 1.297l12.994 9.927a.884.884 0 0 0 1.268-.201l5.196-7.356a.957.957 0 0 0-.2-1.31l-13.156-9.78a.887.887 0 0 0-1.262.224z" opacity=".1"/>
        <path fill="#939498" d="M284.208 90.395l-5.038 7.195a.96.96 0 0 0 .197 1.301l12.995 9.927a.884.884 0 0 0 1.268-.201l5.197-7.356a.96.96 0 0 0-.204-1.31l-13.153-9.78a.888.888 0 0 0-1.262.224z"/>
        <path fill="#7CBE35" d="M284 58.383l.223 10.96L318 93l-.3-10.857a1.889 1.889 0 0 0-.792-1.49l-32.302-22.586a.394.394 0 0 0-.401-.023.376.376 0 0 0-.205.339z"/>
        <path fill="#3A3768" d="M2.645 116.33l11.783-8.46a2.91 2.91 0 0 1 4.06.667l14.233 19.817a2.91 2.91 0 0 1-.666 4.061l-11.783 8.459a2.91 2.91 0 0 1-4.06-.667L1.977 120.39a2.91 2.91 0 0 1 .667-4.061z"/>
        <path fill="#000" d="M3.451 118.947l13.4-9.62a.18.18 0 0 1 .251.041l3.255 4.532a.18.18 0 0 1-.041.252l-13.4 9.62a.18.18 0 0 1-.25-.042l-3.256-4.532a.18.18 0 0 1 .041-.251z" opacity=".1"/>
        <path fill="#E6E8EC" d="M5.795 117.404l8.818-6.33a2.873 2.873 0 1 1 3.353 4.667h-.001l-8.818 6.33a2.873 2.873 0 1 1-3.353-4.667z"/>
        <path fill="#000" d="M9.822 124.733l.465-.334a1.39 1.39 0 0 1 1.94.319l.552.768a1.39 1.39 0 0 1-.318 1.94l-.466.333a1.39 1.39 0 0 1-1.94-.318l-.552-.768a1.39 1.39 0 0 1 .318-1.94zM12.593 122.211l.456-.326a1.39 1.39 0 0 1 1.939.32l.543.758a1.39 1.39 0 0 1-.321 1.94l-.456.326a1.39 1.39 0 0 1-1.94-.321l-.542-.758a1.39 1.39 0 0 1 .32-1.939zM16.477 119.954l.466-.334a1.39 1.39 0 0 1 1.94.318l.552.768a1.39 1.39 0 0 1-.319 1.94l-.465.334a1.39 1.39 0 0 1-1.94-.318l-.552-.768a1.39 1.39 0 0 1 .318-1.94zM20.015 117.514l.141-.1a1.59 1.59 0 0 1 2.219.364l.319.442a1.59 1.59 0 0 1-.364 2.22l-.141.1a1.59 1.59 0 0 1-2.22-.364l-.318-.443a1.59 1.59 0 0 1 .364-2.22zM12.208 128.063l.466-.334a1.39 1.39 0 0 1 1.94.318l.551.768a1.39 1.39 0 0 1-.318 1.94l-.466.334a1.39 1.39 0 0 1-1.94-.318l-.551-.768a1.39 1.39 0 0 1 .318-1.94zM15.54 125.671l.465-.334a1.39 1.39 0 0 1 1.94.318l.552.768a1.39 1.39 0 0 1-.318 1.94l-.466.334a1.39 1.39 0 0 1-1.94-.318l-.552-.768a1.39 1.39 0 0 1 .318-1.94zM18.865 123.28l.466-.333a1.39 1.39 0 0 1 1.94.318l.551.768a1.39 1.39 0 0 1-.318 1.94l-.466.334a1.39 1.39 0 0 1-1.94-.318l-.551-.768a1.39 1.39 0 0 1 .318-1.94zM14.85 131.733l.466-.334a1.39 1.39 0 0 1 1.94.319l.552.768a1.39 1.39 0 0 1-.319 1.94l-.466.333a1.39 1.39 0 0 1-1.94-.318l-.551-.768a1.39 1.39 0 0 1 .318-1.94zM18.176 129.343l.465-.334a1.39 1.39 0 0 1 1.94.319l.552.767a1.39 1.39 0 0 1-.318 1.94l-.466.334a1.39 1.39 0 0 1-1.94-.318l-.552-.768a1.39 1.39 0 0 1 .319-1.94zM21.506 126.957l.466-.334a1.39 1.39 0 0 1 1.94.319l.551.767a1.39 1.39 0 0 1-.318 1.94l-.466.334a1.39 1.39 0 0 1-1.94-.318l-.552-.768a1.39 1.39 0 0 1 .319-1.94zM24.142 130.63l.466-.335a1.39 1.39 0 0 1 1.94.319l.551.768a1.39 1.39 0 0 1-.318 1.94l-.466.333a1.39 1.39 0 0 1-1.94-.318l-.551-.768a1.39 1.39 0 0 1 .318-1.94zM21.85 121.236l1.246-.894a.91.91 0 0 1 1.27.208l1.111 1.548a.91.91 0 0 1-.208 1.27l-1.246.894a.91.91 0 0 1-1.27-.209l-1.111-1.547a.91.91 0 0 1 .208-1.27zM17.868 135.13l3.025-2.171a1.863 1.863 0 1 1 2.173 3.026l-3.024 2.171a1.863 1.863 0 1 1-2.174-3.026zM24.933 124.492a1.837 1.837 0 0 1 2.563.42l2.669 3.716c.591.824.403 1.97-.42 2.562h-.001a1.837 1.837 0 0 1-2.563-.42l-2.668-3.716a1.836 1.836 0 0 1 .42-2.562z" opacity=".1"/>
        <path fill="#7CBE35" d="M17.963 114.61l1.192-.856-1.192.856zM16.217 115.862l1.192-.856-1.192.856zM14.47 117.114l1.193-.857-1.192.857zM12.727 118.369l1.192-.857-1.192.857z"/>
        <g fill="#000" opacity=".1">
            <path d="M211.705 22.304h-20.519c-.59.002-1.07.505-1.071 1.126v13.642c.002.622.48 1.126 1.071 1.13h16.1s.417 2.325-.953 2.577c0 0 3.07.231 2.534-2.577h2.838c.593-.002 1.073-.507 1.075-1.13V23.43c-.004-.622-.483-1.124-1.075-1.126z"/>
            <g opacity=".2" transform="translate(192.957 25.8)">
                <rect width="16.619" height="1.064" x=".181" y=".121" rx=".532"/>
                <rect width="16.619" height="1.064" x=".181" y="4.881" rx=".532"/>
                <rect width="13.938" height="1.064" x=".181" y="7.261" rx=".532"/>
                <rect width="7.206" height="1.064" x=".181" y="2.501" rx=".532"/>
            </g>
        </g>
        <path fill="#F9FAFB" d="M211.907 22H191.09c-.6 0-1.088.49-1.09 1.097v13.28c-.002.293.112.575.317.783.205.207.483.324.773.324h16.336s.423 2.27-.967 2.511c0 0 3.11.226 2.567-2.51h2.887A1.095 1.095 0 0 0 213 36.386V23.091A1.095 1.095 0 0 0 211.907 22z"/>
        <g fill="#7CBE35" opacity=".2" transform="translate(192 26)">
            <rect width="16.86" height="1.027" x=".03" y=".027" rx=".513"/>
            <rect width="16.86" height="1.027" x=".03" y="4.62" rx=".513"/>
            <rect width="14.14" height="1.027" x=".03" y="6.913" rx=".513"/>
            <rect width="7.31" height="1.027" x=".03" y="2.323" rx=".513"/>
        </g>
        <g fill="#000" opacity=".1">
            <path d="M231.447.204h-25.034c-.35 0-.687.138-.932.38a1.25 1.25 0 0 0-.374.912V16.81c0 .7.584 1.268 1.306 1.27h19.64s.507 2.616-1.163 2.907c0 0 3.743.259 3.087-2.908h3.47c.722-.001 1.308-.569 1.31-1.27V1.497a1.25 1.25 0 0 0-.376-.913 1.331 1.331 0 0 0-.934-.38z"/>
            <g opacity=".2" transform="translate(208.667 4.2)">
                <rect width="20.28" height="1.199" x=".127" y=".081" rx=".599"/>
                <rect width="16.733" height="1.199" x=".127" y="5.434" rx=".599"/>
                <rect width="12.047" height="1.199" x=".127" y="2.759" rx=".599"/>
            </g>
        </g>
        <path fill="#F9FAFB" d="M231.72 0h-24.444A1.281 1.281 0 0 0 206 1.283v15.493a1.281 1.281 0 0 0 1.276 1.28h19.178s.495 2.645-1.136 2.939c0 0 3.656.264 3.018-2.939h3.385a1.284 1.284 0 0 0 1.279-1.28V1.283A1.284 1.284 0 0 0 231.72 0z"/>
        <g fill="#7CBE35" opacity=".2" transform="translate(209 4)">
            <rect width="19.626" height="1.237" x=".116" y=".2" rx=".618"/>
            <rect width="16.194" height="1.237" x=".116" y="5.723" rx=".618"/>
            <rect width="11.658" height="1.237" x=".116" y="2.96" rx=".618"/>
        </g>
        <path fill="#BE8B87" d="M68.357 171.166l22.725-8.036a2.27 2.27 0 0 1 1.654.055c.522.225.927.638 1.126 1.147.418 1.058-.148 2.236-1.266 2.632L69.871 175 65 174.537l3.357-3.371z"/>
        <path fill="#FFF" d="M93.176 163.387c.418 1.087-.149 2.297-1.267 2.705l-22.725 8.247-3.655-.358-.529.544 4.871.475 22.725-8.247c1.118-.407 1.684-1.616 1.266-2.702a2.107 2.107 0 0 0-.884-1.051c.08.122.146.252.198.387z" opacity=".1"/>
        <path fill="#EFC8C4" d="M67.757 171L69 175l-3.282-.397-.718-.086.98-1.25z"/>
        <path fill="#727A9C" d="M66.61 174c.126.102.232.23.312.376a.584.584 0 0 1 0 .584 1.26 1.26 0 0 1-.293.233 1.098 1.098 0 0 0-.452.807L65 175.871 66.61 174z"/>
        <path fill="url(#a)" d="M4.139.726l7.099-.111-.363 24.53-7.099.11z" opacity=".5" transform="rotate(-14.452 713.347 -718.961)"/>
        <path fill="#F9FAFB" d="M205.6 155.505l6.835-1.761 5.979 23.193-6.835 1.762z"/>
        <path fill="#F7B643" d="M206.7 155.611l4.831-1.245 1.246 4.831-4.832 1.245z"/>
        <path fill="#F7B643" d="M208.015 160.492l4.82-1.257 1.257 4.82-4.82 1.256z" opacity=".5"/>
        <path fill="#F7B643" d="M209.53 166.31l4.821-1.256 1.257 4.82-4.82 1.256z" opacity=".3"/>
        <path fill="url(#b)" d="M6.889.444l7.307-.138-.45 24.211-7.307.138z" opacity=".5" transform="rotate(-32.95 373.064 -244.274)"/>
        <path fill="#F9FAFB" d="M199.105 159.997l5.913-3.832 12.959 19.99-5.913 3.831z"/>
        <path fill="#F97878" d="M200.186 159.757l4.18-2.71 2.71 4.18-4.18 2.71z"/>
        <path fill="#F97878" d="M203.46 164.8l4.18-2.71 2.709 4.18-4.18 2.709z" opacity=".5"/>
        <path fill="#F97878" d="M206.731 169.847l4.18-2.71 2.71 4.18-4.18 2.71z" opacity=".3"/>
        <path fill="url(#c)" d="M7.704-.69h7.53v24.533h-7.53z" opacity=".5" transform="rotate(-44.65 301.851 -148.075)"/>
        <path fill="#F9FAFB" d="M196.252 163.827l5.013-4.95 16.743 16.946-5.012 4.951z"/>
        <path fill="#73B53B" d="M197.26 163.378l3.544-3.5 3.5 3.543-3.543 3.5z"/>
        <path fill="#73B53B" d="M201.485 167.654l3.544-3.5 3.5 3.543-3.543 3.5z" opacity=".5"/>
        <path fill="#73B53B" d="M205.708 171.93l3.544-3.5 3.5 3.544-3.543 3.5z" opacity=".3"/>
        <path fill="url(#b)" d="M8.21-1.5l7.348.056.183 24.032-7.348-.056z" opacity=".5" transform="rotate(-51.85 274.575 -108.498)"/>
        <path fill="#FFF" d="M194.916 166.866l4.353-5.54 18.736 14.715-4.353 5.54z"/>
        <path fill="#7CBE35" d="M195.858 166.292l3.078-3.916 3.917 3.076-3.077 3.917z"/>
        <path fill="#7CBE35" d="M200.586 170.007l3.077-3.917 3.918 3.077-3.077 3.916z" opacity=".5"/>
        <path fill="#7CBE35" d="M205.32 173.719l3.076-3.917 3.918 3.077-3.077 3.916z" opacity=".3"/>
        <path fill="#F0CBC6" fill-rule="nonzero" d="M275.808 186.509a5.5 5.5 0 1 0-4.615 9.984 5.5 5.5 0 0 0 4.615-9.984zm-3.744 8.084a3.408 3.408 0 1 1 2.862-6.187 3.408 3.408 0 0 1-2.862 6.187z"/>
        <path fill="#F0CBC6" d="M268.663 174l-9.629 6.532c-1.267.845-2.027 2.234-2.034 3.72 0 2.347 1.11 5.87 6.418 9.05 1.6.959 3.632.927 5.198-.08l9.384-6.054L268.663 174z"/>
        <path fill="#F0CBC6" d="M279.325 186.62c-1.526 1.207-5.142-.56-8.083-3.943-2.942-3.383-4.093-7.096-2.568-8.3 1.525-1.203 5.148.564 8.09 3.944.185.217.37.435.54.652l.191.249a12.735 12.735 0 0 1 2.356 4.545c.033.151.066.3.086.444.175 1.068-.01 1.94-.612 2.41z"/>
        <ellipse cx="274.017" cy="180.257" fill="#F9FAFB" rx="2.917" ry="6.796" transform="rotate(-39.63 274.017 180.257)"/>
        <path fill="#000" d="M278.756 186.241c-.024.047-.05.09-.075.133-.069.102-.15.194-.242.274-.773.68-2.197.339-3.748-.72l-.16-.115c-.51-.373-.992-.784-1.445-1.232a16.186 16.186 0 0 1-1.383-1.559c-.297-.36-.566-.752-.815-1.13a14.284 14.284 0 0 1-.97-1.707.594.594 0 0 1-.035-.065c-1.022-2.12-1.196-4.004-.317-4.77 1.271-1.113 4.287.521 6.737 3.647.293.36.565.752.81 1.134.055.075.106.155.154.234 1.513 2.366 2.113 4.702 1.49 5.876z" opacity=".1"/>
        <path fill="#000" d="M280 182.88c-.23.448-.623.8-1.105.991l-.155.052c-.11.032-.223.054-.337.064-.4.038-.803-.007-1.183-.132-1.59-.479-2.324-.47-2.658-.321a12.44 12.44 0 0 1-1.429-1.1 15.056 15.056 0 0 1-1.368-1.394c-.293-.321-.559-.672-.805-1.01a12.497 12.497 0 0 1-.96-1.525c1.607.611 4.74 1.692 5.795 1.232.5-.266.917-.652 1.213-1.12l.105-.154.043-.067c.085-.132.169-.26.243-.396 1.361 1.695 2.26 3.44 2.601 4.88z" opacity=".1"/>
        <path fill="#000" d="M280 183.788c-.236.541-.725.959-1.336 1.14-.109.03-.22.05-.334.06a3.057 3.057 0 0 1-1.172-.124c-1.14-.323-1.837-.411-2.258-.384-.13.004-.258.029-.378.073a12.28 12.28 0 0 1-1.416-1.034 14.54 14.54 0 0 1-1.356-1.309c-.29-.302-.554-.632-.798-.949a11.444 11.444 0 0 1-.952-1.433c.07.027.14.055.22.079 1.647.586 4.526 1.49 5.525 1.082a3.159 3.159 0 0 0 1.206-1.061l.103-.145.044-.064a6.764 6.764 0 0 0 .434-.72 12.02 12.02 0 0 1 2.378 4.363c.037.145.07.287.09.426z" opacity=".1"/>
        <path fill="#59393C" d="M283.563 174.13a4.691 4.691 0 0 1-1.213.672c-1.758.705-2.74 2.524-2.335 4.32l.02.08c.534 2.175.301 5.215-1.528 5.722a1.728 1.728 0 0 1-.328.063 2.823 2.823 0 0 1-1.151-.13c-1.548-.471-2.263-.462-2.588-.316-.49-.328-.955-.69-1.39-1.083a14.743 14.743 0 0 1-1.332-1.372 11.66 11.66 0 0 1-.783-.994c-.348-.479-.66-.98-.935-1.501 1.564.602 4.614 1.666 5.64 1.216a3.175 3.175 0 0 0 1.184-1.112l.102-.152.043-.066a7.48 7.48 0 0 0 1.17-3.55c.122-1.71.905-4.681 4.972-3.75.43.097.765.423.861.84.097.416-.062.849-.409 1.114z"/>
        <path fill="#7CBE35" d="M235.75 261.019s-13.178-.88-11.622 9.353c0 0-.312 1.806 1.168 2.628 0 0 .025-.76 1.353-.5.472.087.953.113 1.43.075a2.817 2.817 0 0 0 1.752-.801s3.703-1.696 5.146-8.403c0 0 1.062-1.464 1.022-1.84l-2.225 1.053s.76 1.778.162 3.253c0 0-.072-3.188-.499-3.108-.087 0-1.156.618-1.156.618s1.309 3.108.311 5.346c0 0 .377-3.799-.729-5.122l-1.558 1.012s1.527 3.198.492 5.806c0 0 .265-4-.82-5.56l-1.418 1.226s1.434 3.153.558 5.315c0 0-.112-4.66-.866-5.012 0 0-1.247 1.213-1.43 1.727 0 0 .984 2.287.373 3.496 0 0-.374-3.109-.682-3.109 0 0-1.247 2.072-1.362 3.454 0 0 .053-2.1 1.063-3.665a3.597 3.597 0 0 0-1.892 1.085s.193-1.454 2.197-1.578c0 0 1.022-1.561 1.297-1.658 0 0-1.995-.183-3.204.41 0 0 1.062-1.38 3.568-.749l1.4-1.267s-2.625-.397-3.74.045c0 0 1.284-1.216 4.117-.346l1.527-1.008s-2.241-.535-3.575-.346c0 0 1.409-.842 4.02.07l1.091-.543s-1.642-.345-2.122-.414c-.48-.07-.505-.204-.505-.204a5.179 5.179 0 0 1 3.082.38s2.316-.957 2.276-1.119z"/>
        <ellipse cx="226" cy="273" fill="#7CBE35" opacity=".1" rx="10" ry="2"/>
        <path fill="#7CBE35" d="M261.848 235.01s-7.685-.442-6.773 4.675c-.096.533.18 1.064.684 1.315 0 0 0-.377.787-.248.276.043.556.055.835.037a1.794 1.794 0 0 0 1.022-.402s2.161-.846 3-4.204c0 0 .622-.73.596-.92l-1.29.528s.442.889.094 1.627c0 0-.042-1.596-.29-1.557-.052 0-.674.307-.674.307s.764 1.55.187 2.675c0 0 .219-1.91-.426-2.562l-.913.494s.89 1.599.287 2.904c0 0 .155-2-.477-2.782l-.829.613s.839 1.575.323 2.657c0 0-.065-2.33-.507-2.507-.313.252-.593.54-.832.858 0 0 .571 1.143.216 1.747 0 0-.216-1.554-.396-1.56 0 0-.723 1.03-.797 1.734.035-.654.25-1.288.623-1.838-.417.075-.801.263-1.107.542 0 0 .113-.726 1.29-.79 0 0 .597-.782.755-.828 0 0-1.164-.092-1.867.206 0 0 .619-.687 2.08-.374l.819-.635s-1.532-.199-2.183.022c0 0 .748-.613 2.402-.166l.89-.505a8.547 8.547 0 0 0-2.086-.172s.822-.42 2.348.037l.645-.273s-.968-.177-1.239-.205c-.27-.028-.293-.104-.293-.104a3.477 3.477 0 0 1 1.796.19s1.325-.457 1.3-.536z"/>
        <ellipse cx="258" cy="241" fill="#7CBE35" opacity=".1" rx="6" ry="1"/>
        <path fill="#7CBE35" d="M215.793 240.013s-9.86-.589-8.698 6.235c-.122.71.232 1.417.878 1.752 0 0 .017-.504 1.028-.338.353.057.712.074 1.069.05a2.281 2.281 0 0 0 1.313-.534s2.772-1.13 3.848-5.606c0 0 .799-.974.768-1.224l-1.666.7s.57 1.187.12 2.172c0 0-.051-2.128-.373-2.077-.065 0-.864.409-.864.409s.98 2.067.24 3.566c0 0 .281-2.544-.545-3.417l-1.172.676s1.145 2.132.367 3.874c0 0 .199-2.67-.614-3.721l-1.062.815s1.076 2.1.421 3.545c0 0-.085-3.105-.65-3.342 0 0-.93.809-1.07 1.143 0 0 .737 1.523.278 2.331 0 0-.278-2.07-.508-2.08 0 0-.925 1.353-1.028 2.31.044-.868.319-1.71.795-2.442-.533.1-1.025.352-1.415.724 0 0 .144-.971 1.645-1.056 0 0 .764-1.038.97-1.103 0 0-1.494-.121-2.4.274 0 0 .796-.916 2.674-.5l1.049-.843s-1.968-.267-2.8.027c0 0 .96-.808 3.084-.22l1.141-.676s-1.675-.338-2.676-.227c0 0 1.055-.561 3.009.048l.819-.362s-1.23-.24-1.59-.278c-.36-.037-.377-.135-.377-.135a4.312 4.312 0 0 1 2.306.254s1.717-.616 1.686-.724z"/>
        <ellipse cx="209.5" cy="247.5" fill="#7CBE35" opacity=".1" rx="6.5" ry="1.5"/>
        <path fill="url(#d)" fill-rule="nonzero" d="M196.091 97.473s.518-1.56-.205-2.367l-1.5-1.67-7.63-11.135s-1.859-2.217-1.55-3.526c.308-1.308-1.755-2.72-1.755-2.72s1.121-1.399.464-2.234c-.657-.834-1.705-2.116-1.705-2.57 0-.454-3.965-6.343-9.13-7.778l.159-.117a8.136 8.136 0 0 0-.906-.15c-3.74-.414-5.508-.628-8.723-2.003l-.172.184-.445-.184a62.617 62.617 0 0 1-3.132-1.459 203.008 203.008 0 0 1-4.087-2.09 10.984 10.984 0 0 1-1.991-3.702 6.8 6.8 0 0 1-.153-.517 11.435 11.435 0 0 0 5.78-9.891 11.219 11.219 0 0 0-1.52-5.652c-.063-.11-.136-.213-.202-.334.023-.026.046-.05.066-.076.068-.092.13-.188.186-.288.107-.202.2-.411.276-.627.04-.107.076-.214.112-.334.15-.437.299-.875.452-1.312l.447-1.312c.3-.79.485-1.62.548-2.463a3.21 3.21 0 0 0-.126-1.055 2.48 2.48 0 0 0-.352-.721c-.756-1.075-2.379-1.526-2.727-2.784a2.35 2.35 0 0 1-.07-.611v-.668-.164-.1a2.15 2.15 0 0 0-.096-.567c0-.024 0-.047-.023-.067a2.381 2.381 0 0 0-.113-.267 2.203 2.203 0 0 0-.19-.304 4.35 4.35 0 0 0-2.285-1.469 8.953 8.953 0 0 0-6.178.401 2.005 2.005 0 0 1-.87.26c-.49 0-.868-.407-1.293-.647-1.367-.778-3.079.047-4.393.908a6.745 6.745 0 0 0-1.748 1.475c-.432.574-.664 1.262-1.072 1.856-1.26 1.886-3.776 2.494-5.597 3.876-1.97 1.496-3.069 3.902-3.341 6.323-.272 2.42.216 4.87.949 7.2.079.26.17.515.275.765-.282 3.214 1.042 7.307 1.231 8.011.312 1.159-3.716 4.837-3.716 4.837l-12.398 10.8s-.05-.31-1.64-.197c-1.589.113-4.568 3.742-4.568 3.742l.239.02c-.153.177-.239.284-.239.284l.647.053c-1.924 1.67-4.194 3.672-5.372 4.844a15.95 15.95 0 0 0-.79.794c-1.658 1.813-.567 6.804-.567 6.804s-.258 3.07 4.546 3.475c0 0 5.577 1.108 8.314 0 2.737-1.109 7.936-1.386 7.936-1.386s-2.126 7.18-1.99 9.297c.136 2.117-1.42 9.638-1.42 9.638l-4.751 25.127s-4.446 8.732 8.958 10.014V141.35s.331.05.852.107l-.07.898c-.172 2.203-.358 4.854-.268 5.141.185.39.471.72.83.958l.517 4.433s.514 3.82.995 4.934c.481 1.115 1.66 4.086 1.447 5.044-.212.958.773 4.13.773 4.13s.464 3.074.62 3.829c.156.754 0 8.262 0 8.262a14.16 14.16 0 0 0 3.05 1.101l.092.374c.488 2.003 1.171 4.78 1.546 6.226.617 2.417 1.961 6.65 1.961 6.65s.153 5.495 1.082 6.553c.929 1.058.723 11.436 4.645 17.782 2.817 4.557 6.27 13.183 7.996 17.693-.063 2.036-.16 4.26-.299 6.16a4.428 4.428 0 0 0-1.075 1.955c-.464 2.267-3.354 6.093-3.354 6.093s-2.943 2.47-4.184 2.824c-.224.076-.435.19-.624.334-1.274.91-2.77 3.314.262 4.26 1.162.36 2.817.333 4.615.063-.025.314-.025.63 0 .944 0 0-1.549 3.83-2.223 5.291-.245.534-.796 1.302-1.284 2.113-.856 1.422-1.516 2.975 0 3.632.465.2 8.47-.15 11.155.705 2.684.854 4.595-1.966 4.595-1.966s.206-2.871.826-4.08c.352-.69.103-2.206-.176-3.388a23.36 23.36 0 0 0-.444-1.596 48.634 48.634 0 0 1-.664-7.28l3.952-2.898a3.59 3.59 0 0 0 1.387-3.755l-.133-.531c-.614-2.424-1.576-5.745-2.595-7.344.145-.596.368-1.17.664-1.706 1.237-1.813 3.513-13.05 4.08-14.765.17-.595.308-1.2.412-1.81.714-3.538 1.795-12.15.04-16.136l-.9-9.735s-.513-7.454.054-10.325c.305-1.857.502-3.73.59-5.611v-.134l5.352.264v-25.154l.468-8.833.046-.894c.237.082.478.15.724.2 1.015-.651 1.27-2.237 1.224-3.862.01-.872-.05-1.743-.18-2.604a6.329 6.329 0 0 0 1.73-3.058l11.204-10.188.046-.09c.252-.511 1.523-3.088 2.01-4.447.448-1.255.153-8.012.037-10.255.733.063 1.622.134 2.469.177 1.287.07 2.465.077 2.836-.083.933-.404 2.117-3.229 3.046-4.938.929-1.709-.61-5.541-.61-5.541zm-58.605-39.488s.262-2.507.292-5.602l1.659-.554c.252.237.51.464.783.668.044.222.084.456.12.7.288 1.884.407 4.11-.067 6.117-.08.056-2.273 1.548-2.807 3.144-.282.851-1.145 1.215-1.908 1.372-.43.083-.869.118-1.307.104l-2.034.333 5.269-6.282zm11.042 120.313c-.07-.19-.13-.36-.186-.51l.142-.088v-1.158c.014.45.024 1.055.044 1.743v.013z"/>
        <path fill="#FFB9B9" d="M167 67.368s-5.633 7.207-10.144 12.887c-2.908 3.657-5.343 6.692-5.526 6.742-.183.008-.367 0-.548-.027-2.27-.2-10.895-1.405-14.819-1.96L134 84.732s.124-3.4.644-7.521c.618-4.945 1.81-10.927 4.027-13.316a6.795 6.795 0 0 0 1.426-2.432c.788-2.242.668-4.918.354-7.123a26.896 26.896 0 0 0-1.025-4.35s14.315-8.454 13.56-.752a14.675 14.675 0 0 0 .524 5.865c1.082 3.486 3.246 5.018 3.246 5.018l.06.044L167 67.368z"/>
        <path fill="#000" d="M153 55.29c-4.064 2.542-9.238 2.227-12.98-.791a27.966 27.966 0 0 0-1.02-4.432s14.243-8.615 13.492-.767a15.3 15.3 0 0 0 .508 5.99z" opacity=".1"/>
        <path fill="#FFB9B9" d="M159 45.492a11.499 11.499 0 1 1-22.998.017A11.499 11.499 0 0 1 159 45.492z"/>
        <path fill="#000" d="M157 39.974a1.983 1.983 0 0 1-.128.21c-.74 1.06-2.175 1.232-3.42 1.122-1.471-.135-3.1-.69-3.728-2.091-.58-1.298-.42-2.688-2.015-2.881-1.383-.17-3.237-1.187-4.587-.604-1.065.466-1.49 1.825-1.589 3.04-.098 1.214 0 2.501-.537 3.581-.508 1.018-1.498 1.695-2.012 2.71-.577 1.145-.455 2.525-.305 3.816.151 1.29.305 2.656-.229 3.826a2.543 2.543 0 0 1-.157.297c-2.538-3.514-3.007-8.224-1.218-12.217 1.79-3.992 5.54-6.604 9.73-6.774 4.188-.17 8.119 2.13 10.195 5.965z" opacity=".1"/>
        <path fill="#B96B6B" d="M149.967 37.503c.626 1.36 2.246 1.895 3.71 2.021 1.238.11 2.666-.056 3.403-1.085.242-.38.426-.796.544-1.233l.854-2.62c.45-1.386.874-3.007.069-4.226-.72-1.073-2.263-1.52-2.592-2.78-.153-.585 0-1.21-.081-1.808-.19-1.233-1.386-2.035-2.55-2.402a8.1 8.1 0 0 0-5.866.4c-.252.15-.535.238-.825.258-.466 0-.825-.404-1.229-.645-1.304-.775-2.934.047-4.169.906a6.453 6.453 0 0 0-1.662 1.473c-.408.571-.652 1.256-1.017 1.851-1.2 1.881-3.586 2.486-5.313 3.866-1.874 1.49-2.918 3.889-3.172 6.305-.254 2.415.202 4.858.897 7.183.119.46.3.899.537 1.307.704 1.096 2.106 1.563 2.79 2.673.551.892.604 2.141 1.441 2.76.994.731 2.494 0 3.022-1.147.528-1.146.378-2.462.228-3.708-.15-1.247-.27-2.586.303-3.696.509-.982 1.5-1.637 2.002-2.622.53-1.046.44-2.293.534-3.469.095-1.176.522-2.489 1.584-2.94 1.333-.568 3.178.421 4.564.581 1.577.194 1.417 1.537 1.994 2.797z"/>
        <g fill="#000" opacity=".1">
            <path d="M133 47.306c-.703-1.08-2.137-1.536-2.857-2.603v-.026c.02.075.044.15.067.225.122.447.307.875.55 1.272.72 1.067 2.153 1.522 2.853 2.602.04.062.08.127.117.195a11.24 11.24 0 0 0-.73-1.665zM155.15 26.506a2 2 0 0 0 .53.875c.03-.389.03-.779 0-1.168a2.236 2.236 0 0 0-.573-1.148c-.045.48-.03.964.043 1.441zM146.977 33.445c-1.407-.156-3.297-1.12-4.667-.566-1.087.439-1.52 1.717-1.617 2.862-.096 1.146 0 2.359-.55 3.377-.513.96-1.523 1.597-2.043 2.554-.59 1.08-.463 2.38-.31 3.598.153 1.216.307 2.504-.233 3.61-.54 1.106-2.077 1.829-3.094 1.116a2.03 2.03 0 0 1-.596-.7c.333.785.503 1.68 1.2 2.167 1.016.713 2.55 0 3.09-1.116.54-1.115.386-2.397.233-3.61-.153-1.214-.277-2.518.31-3.598.52-.957 1.533-1.594 2.047-2.554.543-1.018.45-2.231.546-3.376.097-1.146.534-2.424 1.62-2.863 1.364-.553 3.25.41 4.667.566.47.02.906.242 1.193.605-.336-1.005-.46-1.92-1.796-2.072zM158.4 30.677c-.05-.069-.1-.134-.153-.196.086.924-.21 1.936-.52 2.843l-.87 2.55c-.12.427-.31.832-.56 1.201-.75.999-2.214 1.162-3.48 1.057-1.367-.113-2.87-.56-3.604-1.652.11.393.248.778.414 1.151.64 1.324 2.296 1.845 3.793 1.969 1.267.107 2.727-.056 3.48-1.058.248-.37.436-.774.557-1.2.29-.85.583-1.698.873-2.55.46-1.35.893-2.941.07-4.115z"/>
        </g>
        <path fill="#464A5F" d="M133.415 38.265a3.763 3.763 0 0 1 4.773 2.352l2.695 7.927a3.763 3.763 0 0 1-7.125 2.421l-2.695-7.927a3.762 3.762 0 0 1 2.351-4.773z"/>
        <path fill="#9C9CA1" d="M133.146 38.265a3.763 3.763 0 0 1 4.774 2.352l2.694 7.927a3.763 3.763 0 0 1-7.125 2.421l-2.695-7.927a3.762 3.762 0 0 1 2.352-4.773z"/>
        <circle cx="134.5" cy="43.5" r="1.5" fill="#939498"/>
        <path fill="#FFB9B9" d="M134 178.575s1.485 6.186 2.102 8.62c.617 2.435 1.949 6.697 1.949 6.697s.153 5.526 1.073 6.591c.92 1.065.719 11.514 4.612 17.903 3.894 6.39 9.021 20.745 9.021 20.745l.682 4.869 6.561-7.556-5.45-27.647s-3.176-11.207-2.205-14.706c.971-3.5-4.047-17.091-4.047-17.091L134 178.575z"/>
        <path fill="#000" d="M160 236.44l-6.561 7.56-.682-4.869s-5.11-14.352-9.02-20.745c-3.912-6.392-3.69-16.834-4.613-17.9-.924-1.065-1.073-6.594-1.073-6.594s-1.332-4.262-1.95-6.696c-.367-1.453-1.045-4.255-1.532-6.265-.34-1.348-.569-2.36-.569-2.36L148.308 177s.16.428.412 1.153c1.183 3.355 4.43 13.058 3.635 15.938-.974 3.5 2.208 14.706 2.208 14.706L160 236.441z" opacity=".05"/>
        <path fill="#C7C0D9" d="M161.546 248.43l-5.626 4.149c-2.719 2.867-10.702 5.24-14.187 4.152-2.956-.927-1.498-3.285-.254-4.179.182-.142.386-.253.605-.328 1.208-.348 4.077-2.77 4.077-2.77s2.816-3.754 3.268-5.978c.451-2.223 3.679-4.053 3.679-4.053s4.324-4.149 6.287-3.311c1.281.552 2.606 5.049 3.375 8.1l.127.522a3.53 3.53 0 0 1-1.351 3.696z"/>
        <path fill="#000" d="M161.551 248.279l-5.627 4.222c-2.72 2.918-10.705 5.332-14.19 4.225-2.958-.943-1.5-3.343-.255-4.252 1.201 1.875 5.587 1.538 5.587 1.538l7.801-3.47 7.905-6.542.127.532a3.626 3.626 0 0 1-1.348 3.747z" opacity=".1"/>
        <path fill="#000" d="M152.465 238.132s-5.052-14.356-8.914-20.745c-3.863-6.388-3.647-16.836-4.56-17.902-.913-1.065-1.064-6.59-1.064-6.59s-1.317-4.262-1.923-6.696c-.367-1.457-1.037-4.255-1.519-6.265-.337-1.348-.562-2.36-.562-2.36l13.258-1.476-.037-.098L133 177.574s.236 1.012.562 2.36a629.513 629.513 0 0 0 1.516 6.265c.606 2.434 1.923 6.695 1.923 6.695s.151 5.526 1.064 6.591c.912 1.066.707 11.514 4.56 17.902 3.852 6.39 8.913 20.745 8.913 20.745l.674 4.868.788-.917-.535-3.951z" opacity=".05"/>
        <path fill="#CAA8B1" d="M170 89h16v18h-16z"/>
        <path fill="#CAA8B1" d="M186.752 118.908c-.486 1.338-1.752 3.878-2.005 4.38a1.04 1.04 0 0 1-.044.092l-11.543 10.372-.277.248-.072-.228c-.61-1.982-4.952-16.037-5.476-16.803-.417-.604-.215-3.085-.085-4.334.048-.442.085-.726.085-.726L167 102.17 168.711 99l15.848 4.842 2.22 4.212s.514 9.361-.027 10.854z"/>
        <path d="M185 123.479c-.028.061-.045.09-.045.09l-11.708 10.188-.347.02-3.998.223L166 112s.476.406 1.267 1.015c2.305 1.775 7.289 5.295 11.107 5.76 3.756.457 5.8 3.24 6.626 4.704z"/>
        <path fill="#000" d="M185 123.479c-.028.061-.045.09-.045.09l-11.708 10.188-.347.02-3.998.223L166 112s.476.406 1.267 1.015c2.305 1.775 7.289 5.295 11.107 5.76 3.756.457 5.8 3.24 6.626 4.704zM186 118.282s-2.365-.21-3.378-1.064C181.608 116.364 179 115 179 115l3.696 3.734s2.807.835 3.304-.452z" opacity=".1"/>
        <path fill="#000" d="M176 120s.264 3.961 3.204 4c2.939.038-3.204-4-3.204-4zM180 120s1.928 3.408 2.854 2.96C183.78 122.51 180 120 180 120z" opacity=".1"/>
        <path fill="#CBCDDA" d="M127.82 87.072l-2.682 1s-5.165.285-7.882 1.422c-2.717 1.138-8.256 0-8.256 0s9.64-12.666 9.794-12.714C118.947 76.732 129 73 129 73l-1.18 14.072z"/>
        <path fill="#000" d="M127.82 87.072l-2.682 1s-5.165.285-7.882 1.422c-2.717 1.138-8.256 0-8.256 0s9.64-12.666 9.794-12.714C118.947 76.732 129 73 129 73l-1.18 14.072z" opacity=".03"/>
        <path fill="#FFB9B9" d="M164.712 221.267c-.557 1.723-2.793 13.01-4.012 14.83-1.219 1.82-2.64 12.297-2.64 12.297l-.274.192-.59.414s-8.744-.404-7.73-1.972c.208-.464.337-.96.381-1.466.675-4.26.736-15.588.736-15.588l.102-17.97s2.296-5.796.709-10.07a22.267 22.267 0 0 1-1.422-7.892s.253-4.152-.864-5.82c-.905-1.346-1.078-8.506-1.108-11.137v-.975l1.418-2.11 15.534 1.063s-.034 1.248-.129 2.867a48.363 48.363 0 0 1-.58 5.635c-.558 2.883-.051 10.373-.051 10.373l.864 9.757c2.043 4.72.216 15.853-.344 17.572z"/>
        <path fill="#000" d="M148 179.064v.105c-5.37 3.275-10.323 3.101-13.459 2.447-.324-1.24-.541-2.17-.541-2.17L147.617 178s.143.39.383 1.064z" opacity=".05"/>
        <path fill="#4C4C78" d="M171 139.648l-.204 3.888-.45 8.779-21.937 3.558v22.084c-9.29 5.905-17.354 1.398-17.354 1.398s.15-7.46 0-8.213c-.15-.752-.604-3.804-.604-3.804s-.954-3.156-.75-4.105c.203-.949-.959-3.905-1.41-4.993-.45-1.089-.95-4.903-.95-4.903l-.514-4.424c-.35-.24-.628-.57-.804-.956-.087-.283.093-2.916.26-5.106.127-1.625.243-2.996.243-2.996L147.008 136 171 139.648z"/>
        <path fill="#000" d="M147 159.31V177c-.488-.245-1.166-.854-1.233-2.34-.107-2.355-.325-7.93-.714-10.438-.388-2.507 1.483-5.222 1.483-5.222l.464.31z" opacity=".05"/>
        <path fill="#000" d="M135 152s.984 2.313 4.193 2.928C142.403 155.543 135 152 135 152zM131 156s7.26 1.044 9 .999M134 162s3.81.052 6-1M133 173s10.714-3.94 12-6M135 178c.336-.052 9.241-5.549 10-7M165 175.082s-.034 1.27-.129 2.918L148 177.14v-.993l1.422-2.147L165 175.082zM151 154.9s8.93-1.572 10.81-.56c1.88 1.011-10.81.56-10.81.56zM143 140s1.788 15.905 3.264 16.956C147.741 158.006 154 140 154 140h-11z" opacity=".1"/>
        <path fill="#4C4C78" d="M143 140s1.791 15.905 3.264 16.956C147.737 158.006 154 140 154 140h-11z"/>
        <path fill="#000" d="M170 140.386l-.2 3.614a14.352 14.352 0 0 1-4.246-2.312 1.81 1.81 0 0 0-.207-.148c-1.685-1.136-3.888-.718-5.327-.238-.51.17-1.005.376-1.48.618 0 0-21.835.7-21.835.14 0-.412-3.09.216-5.168.758-.557.137-1.105.304-1.642.498-.788.31-2.716.173-3.826.053H126c.125-1.51.24-2.785.24-2.785L146.393 137 170 140.386z" opacity=".1"/>
        <path fill="#000" d="M170.806 142a5.712 5.712 0 0 1-.7-.2 14.154 14.154 0 0 1-4.345-2.478 3.16 3.16 0 0 0-.209-.158c-1.704-1.206-3.932-.765-5.387-.25-.516.178-1.017.399-1.498.658 0 0-22.083.745-22.083.148 0-.438-3.125.231-5.227.808-.563.147-1.117.322-1.66.527-.798.329-2.747.184-3.87.059-.492-.06-.827-.109-.827-.109v-.168l1.093-27.483 3.145-24.476 1.152-10.258 3.737-1.805L137.883 75c.418.578.9 1.108 1.435 1.581 1.91 1.716 5.626 3.858 10.588.962.544-.319 1.068-.67 1.568-1.054 1.693-1.295 3.284.168 4.746 3.324 5.712 12.294 9.442 50.242 9.442 50.242l5.646 3.624s.193.715.379 1.733c.378 2.111.71 5.55-.88 6.588z" opacity=".1"/>
        <path fill="#FFF" d="M170.804 143a5.253 5.253 0 0 1-.7-.198 14.315 14.315 0 0 1-4.346-2.477 2.324 2.324 0 0 0-.21-.158c-1.703-1.206-3.933-.764-5.388-.254-.516.18-1.017.4-1.498.66 0 0-22.075.76-22.075.15 0-.44-3.126.228-5.229.804-.562.148-1.117.325-1.66.53-.798.33-2.748.185-3.87.057-.492-.056-.828-.106-.828-.106v-.17l1.093-27.482 3.146-24.48 1.153-10.259 3.737-1.805L137.886 76c.418.577.9 1.106 1.435 1.578 1.91 1.72 5.628 3.86 10.59.965.545-.32 1.069-.673 1.569-1.057 1.694-1.295 3.285.171 4.747 3.324 5.71 12.29 9.441 50.245 9.441 50.245l5.648 3.624s.192.714.378 1.73c.37 2.117.701 5.553-.89 6.591z"/>
        <path fill="#000" d="M172 136.958c-1.474 1.879-3.923 3.086-6.161 3.839A26.78 26.78 0 0 1 160.77 142l-.333-1.449c-.817-3.304-2.879-11.428-4.063-14.453-1.508-3.839-1.912-8.29-1.912-8.29a43.712 43.712 0 0 0-2.228-11.932c-.97-2.843-1.518-10.914-1.828-18.887-.123-3.142-.21-6.272-.274-9.058-.123-5.738-.133-10.027-.133-10.027l1.805-2.884a5.952 5.952 0 0 1 .817-3.697A9.504 9.504 0 0 1 154.463 59c.708.38 1.358.733 1.972 1.055l10.174 7.237s-5.627 7.24-10.134 12.948c5.734 12.54 9.48 51.266 9.48 51.266l5.671 3.697s.187.747.374 1.755z" opacity=".1"/>
        <path fill="#CBCDDA" d="M170.163 117.318c-.307 5.793 3.45 15.485 3.45 15.485-.607 6.895-12.692 8.197-12.692 8.197s-2.947-11.89-4.47-15.69c-1.522-3.8-1.93-8.195-1.93-8.195a42.343 42.343 0 0 0-2.26-11.787C150.102 99.13 150 67.795 150 67.795l1.83-2.846a5.77 5.77 0 0 1 .823-3.654A9.485 9.485 0 0 1 154.52 59c1.556.82 2.876 1.501 4.02 2.073a63.424 63.424 0 0 0 3.083 1.448c3.16 1.355 4.898 1.564 8.574 1.976.3.031.598.081.891.15 5.297 1.192 9.432 7.403 9.432 7.828 0 .425 1.03 1.727 1.688 2.548.659.82-.459 2.212-.459 2.212s2.026 1.401 1.729 2.7c-.298 1.299 1.522 3.498 1.522 3.498l-11.376 8.493s-3.157 19.593-3.46 25.392z"/>
        <circle cx="152.5" cy="73.5" r="1" fill="#767D9F"/>
        <circle cx="152.5" cy="81.5" r="1" fill="#767D9F"/>
        <circle cx="154.5" cy="101.5" r="1" fill="#767D9F"/>
        <circle cx="156.5" cy="111.5" r="1" fill="#767D9F"/>
        <circle cx="157.5" cy="121.5" r="1" fill="#767D9F"/>
        <circle cx="153.5" cy="90.5" r="1" fill="#767D9F"/>
        <path fill="#000" d="M159 61.76c-.866.923-3.093 2.24-3.25 2.24-.585 0-1.997-1.325-2.75-2.067A8.54 8.54 0 0 1 154.9 60c1.591.706 2.935 1.28 4.1 1.76z" opacity=".1"/>
        <path fill="#CBCDDA" d="M159 61.747c-.866.92-3.093 2.253-3.25 2.253-.585 0-1.997-1.324-2.75-2.066A8.512 8.512 0 0 1 154.9 60c1.591.691 2.935 1.265 4.1 1.747z"/>
        <path fill="#000" d="M142.463 69.978s-1.522 3.646-2.994 6.305a11.63 11.63 0 0 1-1.604 2.38c-.846.847-1.68 3.392-2.322 5.685-.612 2.223-1.008 4.214-1.008 4.214-.86 1.316-.86 17.626-.86 17.626 1.468 6.265-1.214 24.04-1.214 24.04l-.79 8.628-.242 2.598-.043.494a57.77 57.77 0 0 1-1.64.047 37.708 37.708 0 0 1-3.9-.138 19.99 19.99 0 0 1-.846-.087l1.106-28.008 3.182-24.949 1.167-10.455 3.78-1.84c.622-4.962 1.822-10.965 4.054-13.362a6.814 6.814 0 0 0 1.435-2.44c.289-.255.59-.493.904-.716 0 0 .39.749.85 1.645.495.964 1.073 2.099 1.345 2.686.551 1.101-.36 5.647-.36 5.647z" opacity=".1"/>
        <path fill="#CBCDDA" d="M142.47 69.964s-2.945 7.021-4.62 8.687c-1.676 1.666-3.355 9.9-3.355 9.9-.864 1.316-.864 17.63-.864 17.63 1.472 6.266-1.22 24.044-1.22 24.044l-1.094 11.72c-20.15.927-14.624-10.152-14.624-10.152l4.676-25.186s1.55-7.542 1.398-9.664c-.152-2.123 1.942-9.32 1.942-9.32s-3.695-19.093-3.313-19.963c.381-.87 13.262-3.022 13.262-3.022.431.014.863-.021 1.287-.105.75-.154 1.597-.52 1.874-1.373.537-1.632 2.774-3.16 2.774-3.16a581.246 581.246 0 0 0 2.222 4.335c.565 1.082-.344 5.629-.344 5.629z"/>
        <path fill="#000" d="M141 62.666c-1.817 1.812-3.77 8.334-3.77 8.334L136 65.587c.683-.157 1.454-.527 1.707-1.39.489-1.65 2.524-3.197 2.524-3.197l.769 1.666z" opacity=".1"/>
        <path fill="#CBCDDA" d="M141 61.669C139.183 63.48 137.23 70 137.23 70L136 64.589c.683-.157 1.454-.527 1.707-1.39.489-1.652 2.524-3.199 2.524-3.199l.769 1.669z"/>
        <path fill="#000" d="M118 132.139s.256 3.187 6.326 1.22c6.07-1.966-6.326-1.22-6.326-1.22z" opacity=".1"/>
        <path fill="#CBCDDA" d="M194.714 103.858c-.895 1.736-2.037 4.6-2.929 5.008-.36.164-1.492.157-2.73.089-1.853-.102-3.927-.34-3.927-.34s4.666-10.448-1.694-13.109h-5.755L174 91.558 183.685 82l1.443.87 7.35 11.277s.747.867 1.444 1.699c.696.832.195 2.402.195 2.402s1.492 3.874.597 5.61z"/>
        <path fill="#000" d="M160.02 93.195s2.757-22.038 10.98-28.051a7.348 7.348 0 0 0-.858-.15c-3.552-.412-5.219-.621-8.288-1.994-4.051 4.385-6.155 10.274-5.82 16.287.604 11.252 0 13.878 0 13.878h.98c1.754 3.623 9.204 18.674 13.34 21.835l.44-3.83s-10.737-12.63-11.667-18.005l.894.03z" opacity=".1"/>
        <path fill="#000" d="M161.02 92.18s2.757-22.042 10.98-28.053a6.71 6.71 0 0 0-.858-.15c-3.552-.411-5.219-.62-8.288-1.977-4.051 4.385-6.155 10.275-5.82 16.288.604 11.253 0 13.879 0 13.879h.98c1.754 3.623 9.204 18.672 13.34 21.833l.44-3.826s-10.737-12.632-11.664-18.007l.89.013z" opacity=".1"/>
        <path fill="#6E6D84" d="M157 91.428s8.908 18.994 13.565 22.572l.435-3.82S158.51 95.341 159.454 91l-2.454.428z"/>
        <path fill="#6E6D84" d="M171 64.102C162.784 70.08 160.032 92 160.032 92h-3.997s.602-2.612 0-13.802c-.335-5.98 1.767-11.838 5.814-16.198 3.05 1.349 4.727 1.557 8.275 1.967.294.026.587.071.876.135z"/>
        <path fill="#000" d="M166.305 114L166 129.656l3 1.344zM173 82c1.638-.458 5.84-2.084 5.997-3.695C179.155 76.693 173 82 173 82zM173.055 85s5.082-2.687 5.884-3.757c.803-1.07-6.649 1.613-5.884 3.757zM134.893 68s-3.205 4.501-1.275 4.971c1.93.47 1.275-4.971 1.275-4.971zM152 120s-19.552 11.328-15.429 11.976C140.694 132.624 152 120 152 120zM164 144s4.16 1.14 3.995 3" opacity=".1"/>
        <path fill="#FFB9B9" d="M188 99.507l-.229 5.73s-1.438 2.427-2.487 2.733a1.384 1.384 0 0 1-.386.026c-2.06-.107-9.838-2.316-10.534-3.569-.76-1.36-12.247-6.254-12.247-6.254s-9.667-14.248-2.427-17.706c7.24-3.459 6.9 13.435 6.9 13.435s6.56.956 7.394 1.471c.7.444 7.15.134 9.075.03l.501-.017 2.047.366L188 99.507z"/>
        <path fill="#000" d="M188 100.247l-.23 5.904s-1.451 2.502-2.509 2.818c-.128.028-.26.037-.39.027l-.207-.023S189.41 98.71 183 96.017l.522-.017 2.064.377 2.414 3.87z" opacity=".1"/>
        <path fill="#000" d="M189.434 109c-1.791-.095-3.8-.316-3.8-.316S190.15 98.96 184 96.47l4.82-.471c6.031 3.96 1.858 11.127.614 13z" opacity=".1"/>
        <path fill="#CBCDDA" d="M188.426 109c-1.79-.095-3.795-.317-3.795-.317s4.517-9.738-1.631-12.217l4.823-.466c6.03 3.95 1.852 11.125.603 13z"/>
        <path fill="#FFB9B9" d="M113 71.519l14.537-12.857s3.91-3.645 3.61-4.785c-.3-1.14-3.56-11.266 1.903-11.862 5.464-.597 3.667 16.945 3.667 16.945L121.124 78 113 71.519z"/>
        <path fill="#000" d="M104.341 85.395s-1.059-5.132.553-6.996C106.506 76.534 113.82 70 113.82 70s3.67 5.859 10.181 5.004l-7.292 10.029s-3.228 4.356-7.916 3.939c-4.688-.417-4.45-3.577-4.45-3.577z" opacity=".1"/>
        <path fill="#CBCDDA" d="M103.347 86.396s-1.078-5.131.566-6.999c1.644-1.867 9.08-8.397 9.08-8.397s6.364 6.478 10.007 7.257l-7.08 7.773s-3.285 4.356-8.057 3.942c-4.772-.413-4.516-3.576-4.516-3.576z"/>
        <path fill="#000" d="M116 73l-6-.533s2.676-3.34 4.104-3.444c1.427-.105 1.47.182 1.47.182l-1.893 1.683L116 73z" opacity=".1"/>
        <path fill="#CBCDDA" d="M116 73l-6-.533s2.676-3.34 4.104-3.444c1.427-.105 1.47.182 1.47.182l-1.893 1.683L116 73z"/>
        <path fill="#000" d="M118.217 76s-1.62 5.622 3.992 6L124 76.546s-3.633.698-5.783-.546z" opacity=".1"/>
        <path fill="#CBCDDA" d="M118.221 75s-1.635 5.607 3.989 6l1.79-5.464s-3.63.708-5.779-.536z"/>
        <path fill="#000" d="M165.1 202.699l-.833-9.759s-.488-7.49.049-10.374a50.9 50.9 0 0 0 .562-5.636c.088-1.618.124-2.867.124-2.867L150.039 173l-.039.06 14.13 1.01s-.036 1.248-.123 2.867a51.728 51.728 0 0 1-.56 5.636c-.54 2.884-.052 10.374-.052 10.374l.836 9.758c1.952 4.711.192 15.842-.345 17.562-.536 1.719-2.693 13.012-3.867 14.832-1.175 1.82-2.554 12.292-2.554 12.292l-.764.559.81.05.836-.609s1.366-10.475 2.54-12.299c1.174-1.823 3.331-13.123 3.868-14.832.536-1.71 2.303-12.854.345-17.561z" opacity=".1"/>
        <path fill="#4C4C78" d="M166.91 151l3.09 1.909V178l-22.452-1.14L146 158.427l3.68-4.512z"/>
        <path fill="#000" d="M151 165s9.195 7.513 12 8M158 247.614c-.12.294-.215.6-.284.914l-.613.472s-9.07-.465-8.018-2.254c.216-.53.35-1.096.396-1.675 2.119-.537 5.713 2.136 5.713 2.136l2.806.407z" opacity=".1"/>
        <path fill="#C7C0D9" d="M158.832 263.732c-.595 1.221-.793 4.12-.793 4.12s-1.842 2.848-4.427 1.985c-2.586-.862-10.296-.51-10.745-.71-1.452-.676-.817-2.232 0-3.666.472-.822.991-1.597 1.24-2.134.66-1.478 2.139-5.344 2.139-5.344-.199-3.156 2.09-5.851 2.09-5.851l.991-6.616c1.676-1.725 6.216 1.427 6.216 1.427l2.645.359c-1.343 3 .05 11.394.05 11.394s.218.704.426 1.607c.268 1.2.509 2.733.168 3.43z"/>
        <path fill="#000" d="M158.833 263.532c-.595 1.26-.794 4.251-.794 4.251s-1.841 2.94-4.427 2.05c-2.585-.89-10.296-.528-10.745-.734-1.452-.698-.817-2.303 0-3.783 3.501.202 11.334.59 13.076-.105 2.235-.89 2.738-3.965 2.715-5.211.274 1.232.515 2.813.175 3.532z" opacity=".1"/>
        <circle cx="154.5" cy="254.5" r="1" fill="#605B89"/>
        <circle cx="148.5" cy="254.5" r="1" fill="#605B89"/>
        <circle cx="154.5" cy="256.5" r="1" fill="#605B89"/>
        <circle cx="147.5" cy="256.5" r="1" fill="#605B89"/>
        <circle cx="152.5" cy="263.5" r="1" fill="#605B89"/>
        <circle cx="147.5" cy="263.5" r="1" fill="#605B89"/>
        <circle cx="152.5" cy="262.5" r="1" fill="#605B89"/>
        <circle cx="147.5" cy="262.5" r="1" fill="#605B89"/>
        <circle cx="152.5" cy="260.5" r="1" fill="#605B89"/>
        <circle cx="148.5" cy="260.5" r="1" fill="#605B89"/>
        <circle cx="153.5" cy="258.5" r="1" fill="#605B89"/>
        <circle cx="148.5" cy="258.5" r="1" fill="#605B89"/>
        <path stroke="#000" d="M149 250s2.64 3.892 6 .817" opacity=".1"/>
        <path stroke="#605B89" d="M147.67 254s6.828 1.774 6.301 2.98c0 0-6.005-.9-6.433 0-.43.902 5.906 1.747 5.906 1.747s-5.209.848-5.784 0c-.575-.848 5.246 1.746 5.246 1.746s-5.246-.55-5.246 0 4.974 1.749 4.974 1.749-4.647-.511-4.974 0c-.327.511 4.627.71 4.719 1.515.092.806-5.379-.55-5.379 0s6.96-9.737 6.96-9.737" opacity=".2"/>
        <ellipse cx="21" cy="263" fill="#7CBE35" opacity=".1" rx="10" ry="2"/>
        <path fill="#A8A8A8" d="M14 256.142s5.645-.18 7.344-1.43c1.7-1.249 8.68-2.73 9.103-.737.424 1.993 8.482 9.968 2.11 10.023-6.372.055-14.804-1.024-16.504-2.092-1.7-1.068-2.053-5.764-2.053-5.764z"/>
        <path fill="#000" d="M32.674 262.296c-6.372.056-14.805-1.042-16.501-2.13-1.293-.826-1.81-3.794-1.985-5.166H14s.357 4.78 2.054 5.868c1.696 1.088 10.132 2.182 16.504 2.13 1.839-.017 2.474-.695 2.44-1.737-.25.64-.955 1.025-2.324 1.035z" opacity=".2"/>
    </g>
</svg>
