<svg xmlns="http://www.w3.org/2000/svg" width="141" height="125" viewBox="0 0 141 125">
    <defs>
        <linearGradient id="a" x1="50.018%" x2="50.018%" y1="100%" y2=".063%">
            <stop offset="0%" stop-color="gray" stop-opacity=".25"/>
            <stop offset="54%" stop-color="gray" stop-opacity=".12"/>
            <stop offset="100%" stop-color="gray" stop-opacity=".1"/>
        </linearGradient>
        <linearGradient id="b" x1="50.006%" x2="50.006%" y1="99.999%" y2="-.005%">
            <stop offset="0%" stop-color="gray" stop-opacity=".25"/>
            <stop offset="54%" stop-color="gray" stop-opacity=".12"/>
            <stop offset="100%" stop-color="gray" stop-opacity=".1"/>
        </linearGradient>
    </defs>
    <g fill="none" fill-rule="evenodd" transform="translate(-21 -7)">
        <ellipse cx="135" cy="121.5" fill="#7CBE35" opacity=".1" rx="18" ry="3.5"/>
        <ellipse cx="80.5" cy="119" fill="#7CBE35" opacity=".1" rx="26.5" ry="2"/>
        <path fill="#7CBE35" d="M64.535 11.927c4.785-4.324 12.296-5.204 19.127-4.86 21.472 1.078 40.853 11.593 57.618 23.48 6.072 4.31 12.044 8.942 15.983 14.87 8.02 12.064 5.641 28.783-5.51 38.716-3.795 3.386-8.393 5.973-13.116 8.271-8.395 4.087-17.458 7.367-26.982 8.3-6.795.667-13.674.125-20.43-.803-18.872-2.596-37.397-8.335-52.92-18.154-6.81-4.31-13.23-9.66-16.037-16.624-2.807-6.964-1.01-15.796 5.943-19.92 2.885-1.705 6.315-2.474 9.682-3.198 4.955-1.065 9.99-2.115 14.463-4.279 4.62-2.238 10.086-6.562 9.175-11.509-.987-5.312-1.775-9.973 3.004-14.29z" opacity=".1"/>
        <path fill="#7CBE35" d="M46 33h-1"/>
        <g fill="#000" opacity=".1">
            <path d="M82.752 105.79c.59 1.007 1.514 1.656 2.556 1.656 1.779 0 3.226-1.893 3.226-4.229 0-2.336-1.452-4.213-3.226-4.213-.837 0-1.6.42-2.174 1.109a4.18 4.18 0 0 0-.548.862l-.03.183s-.687.59-1.623.048V87.508h-13.32a1.083 1.083 0 0 1-.162-1.008c.1-.314.315-.577.6-.736 1.004-.592 1.652-1.52 1.652-2.566 0-1.786-1.886-3.239-4.212-3.239-2.325 0-4.212 1.448-4.212 3.239 0 .84.42 1.608 1.106 2.183.263.218.55.402.858.55l.018.03a1.32 1.32 0 0 1 .256 1.542H57.51v25.367c0 3.322 2.682 6.014 5.99 6.014h17.438v-13.46c.29-.276.71-.366 1.086-.231.31.098.57.311.728.596z"/>
            <path d="M60.333 86.975h2.086a4.233 4.233 0 0 1-1.645-3.318c0-2.404 2.09-4.352 4.665-4.352 2.576 0 4.667 1.948 4.667 4.352a4.233 4.233 0 0 1-1.646 3.318h12.504V73.46c.291-.273.71-.362 1.086-.231.313.099.575.315.734.603.588 1.007 1.513 1.656 2.556 1.656 1.779 0 3.226-1.892 3.226-4.227 0-2.335-1.441-4.229-3.226-4.229-.839 0-1.602.421-2.175 1.11-.217.263-.4.553-.548.861l-.03.019a1.308 1.308 0 0 1-1.623.217V55.544H68.139a1.083 1.083 0 0 1-.16-1.008 1.28 1.28 0 0 1 .6-.736c1.003-.59 1.65-1.52 1.65-2.566 0-1.786-1.885-3.239-4.21-3.239-2.326 0-4.213 1.448-4.213 3.239 0 .842.42 1.608 1.105 2.184.263.217.551.402.858.55l.019.03a1.32 1.32 0 0 1 .256 1.542h-3.71v-.694h2.74a4.231 4.231 0 0 1-1.644-3.311c0-2.405 2.089-4.354 4.666-4.354 2.578 0 4.665 1.95 4.665 4.354a4.231 4.231 0 0 1-1.65 3.315h11.842V41.17c.29-.275.71-.364 1.088-.23.312.1.574.315.732.603.589 1.007 1.515 1.656 2.556 1.656 1.78 0 3.226-1.892 3.226-4.229 0-2.336-1.44-4.227-3.226-4.227-.838 0-1.602.42-2.175 1.109a4.18 4.18 0 0 0-.548.862l-.03.183s-.686.59-1.623.048V24.187h-17.43c-3.308 0-5.99 2.692-5.99 6.014v6.511h-.09a.352.352 0 0 0-.352.354v3.084c0 .195.157.352.351.353h.091v3.15h-.118a.354.354 0 0 0-.354.353v5.89c.001.195.16.352.354.352h.118v2.314h-.097a.352.352 0 0 0-.352.353v1.897h-.076v3.997a.352.352 0 0 0 .351.353h.105v27.813h2.87z"/>
            <path d="M105.912 46.029a.354.354 0 0 0-.351-.355h-.212v-.387h-.115V29.904a5.794 5.794 0 0 0-1.687-4.09 5.747 5.747 0 0 0-4.074-1.694h-17.28v11.721a4.257 4.257 0 0 1 3.38-1.704c2.412 0 4.37 2.099 4.37 4.687s-1.958 4.686-4.37 4.686a4.254 4.254 0 0 1-3.38-1.704v13.006H96.17a4.242 4.242 0 0 1-1.642-3.32c0-2.408 2.084-4.359 4.657-4.359a4.82 4.82 0 0 1 3.129 1.132 4.127 4.127 0 0 1 1.542 3.22 4.127 4.127 0 0 1-1.542 3.219v.103h3.034v-.01h.563v-8.768zM101.272 86.282V84.74c.063-.093.121-.19.174-.289a2.534 2.534 0 0 0 .172-2.065 2.78 2.78 0 0 0-.346-.675c-.708-1.023-2.107-1.72-3.72-1.72-2.327 0-4.212 1.449-4.212 3.239 0 .842.42 1.609 1.104 2.184.263.217.552.402.859.55l.018.03a1.32 1.32 0 0 1 .257 1.542H82.027v12.646a4.205 4.205 0 0 1 3.344-1.696c2.395 0 4.335 2.097 4.335 4.683 0 2.587-1.94 4.685-4.335 4.685a4.205 4.205 0 0 1-3.344-1.696v10.208h15.55a3.703 3.703 0 0 0 3.695-3.701V87.54v25.107c0 2.049-1.655 3.71-3.696 3.71h-15.55v2.468h16.13c3.308 0 5.99-2.693 5.99-6.015V86.877h-2.874v-.595z"/>
        </g>
        <path fill="#3A3768" d="M64.45 115.476c-2.004 0-3.629-1.695-3.629-3.785V86H58v25.866c0 3.388 2.633 6.134 5.881 6.134H81v-2.517l-16.55-.007z"/>
        <path fill="#7CBE35" d="M82.519 104.922c.31.098.572.31.729.596.587.994 1.507 1.635 2.543 1.635 1.77 0 3.209-1.868 3.209-4.176s-1.438-4.167-3.203-4.167c-.833 0-1.593.414-2.163 1.095-.216.26-.399.546-.545.851l-.03.181s-.684.582-1.615.048v-13.53H68.192a1.063 1.063 0 0 1-.16-.995c.098-.31.312-.57.597-.727.998-.585 1.643-1.502 1.643-2.534 0-1.764-1.877-3.199-4.19-3.199-2.314 0-4.191 1.43-4.191 3.199 0 .83.417 1.588 1.1 2.156.261.215.548.397.853.543l.018.03c.412.397.515 1.015.256 1.523H61v24.884A3.67 3.67 0 0 0 64.677 116h16.772v-10.85a1.059 1.059 0 0 1 1.07-.228z"/>
        <path fill="#3A3768" d="M56.774 54h1v1h-1zM58 54h3v1h-3z"/>
        <path fill="#3A3768" d="M57.812 54h1v1h-1zM57.125 58h.103v-4h-.456v3.608c0 .105.037.206.103.28a.327.327 0 0 0 .25.112z"/>
        <path fill="#3A3768" d="M60 54h-2.602v3.311a.356.356 0 0 1-.108.255.371.371 0 0 1-.261.105H57V86h3V54z"/>
        <path fill="#3A3768" d="M57.812 58h.027a.33.33 0 0 0 .247-.114.418.418 0 0 0 .102-.278V54h-.376v4z"/>
        <path fill="#7CBE35" d="M61.437 82.675c0-2.406 2.072-4.355 4.627-4.355 2.554 0 4.628 1.95 4.628 4.355A4.248 4.248 0 0 1 69.06 86h12.4V72.478a1.056 1.056 0 0 1 1.078-.231c.31.1.57.315.728.603.583 1.008 1.5 1.658 2.535 1.658 1.764 0 3.199-1.894 3.199-4.23 0-2.336-1.429-4.23-3.2-4.23-.83 0-1.588.42-2.156 1.109a4.27 4.27 0 0 0-.544.862l-.03.019c-.42.444-1.088.535-1.61.217V54.553H68.743a1.091 1.091 0 0 1-.16-1.009c.098-.314.311-.577.596-.736.994-.591 1.636-1.521 1.636-2.568 0-1.786-1.87-3.24-4.176-3.24s-4.177 1.449-4.177 3.24c0 .843.416 1.61 1.095 2.185.261.218.547.403.852.551l.018.03c.41.401.513 1.027.255 1.542H61V86h2.069a4.248 4.248 0 0 1-1.632-3.325z"/>
        <path fill="#3A3768" d="M58.188 52.307a.29.29 0 0 0-.102-.218.373.373 0 0 0-.247-.089h-.027v2h.376v-1.693zM57.205 36h-.076c-.092 0-.18.04-.246.11a.386.386 0 0 0-.102.263v3.254c.001.206.156.372.348.373h.09v-3.998L57.205 36zM57.116 43c-.192 0-.348.168-.35.375v6.25c.002.207.158.375.35.375h.117v-7h-.117zM57.219 52h-.099c-.192 0-.348.137-.348.307V54h.456l-.01-2z"/>
        <path fill="#3A3768" d="M58.003 30.079v6.583a.35.35 0 0 1 .332.355v3.118a.352.352 0 0 1-.332.356v3.184h.053a.34.34 0 0 1 .244.104.363.363 0 0 1 .101.253v5.954a.351.351 0 0 1-.345.357H58v2.339h.027c.191 0 .346.16.347.357V55h2.447V30.257c0-2.071 1.623-3.75 3.626-3.751h4.917v.651c0 1.706 1.337 3.089 2.986 3.089H81v-2.04h-3.982a.597.597 0 0 1-.583-.6v-.13c0-.334.261-.603.583-.604h3.974V24H63.88c-3.246.002-5.876 2.723-5.877 6.079z"/>
        <path fill="#3A3768" d="M58.167 39.63v-3.259c0-.2-.148-.364-.334-.371v4c.186-.008.333-.17.334-.37zM58.202 49.625v-6.25a.39.39 0 0 0-.102-.265.336.336 0 0 0-.246-.11h-.056v7h.053a.336.336 0 0 0 .248-.109.39.39 0 0 0 .103-.266z"/>
        <path fill="#7CBE35" d="M62.015 50.707c0-2.388 2.078-4.325 4.642-4.325 2.564 0 4.641 1.937 4.641 4.325A4.2 4.2 0 0 1 69.655 54h11.782V40.413c.29-.274.707-.363 1.082-.23.31.099.571.313.73.599.584 1 1.506 1.645 2.542 1.645 1.77 0 3.209-1.88 3.209-4.2 0-2.32-1.433-4.199-3.21-4.199-.833 0-1.593.417-2.163 1.102-.216.262-.4.55-.545.856l-.03.182s-.683.585-1.615.048v-6.541h-8.762a3.03 3.03 0 0 1-3.02-3.035V26h-4.98c-.975 0-1.911.39-2.6 1.082A3.69 3.69 0 0 0 61 29.69V54h2.65a4.2 4.2 0 0 1-1.635-3.293z"/>
        <path fill="#E6E8EC" d="M76.64 27c-.353 0-.64.201-.64.449v.1c0 .249.287.45.64.451H81v-.997L76.64 27z"/>
        <path fill="#3A3768" d="M104 45.387V55h1V45h-.54c-.254 0-.46.173-.46.387zM82 24h1v3h-1zM82 28h1v2h-1z"/>
        <path fill="#E6E8EC" d="M82 27h1v1h-1z"/>
        <path fill="#3A3768" d="M105.45 45H105v9h1v-8.65c0-.193-.245-.35-.55-.35z"/>
        <path fill="#3A3768" fill-rule="nonzero" d="M83.152 26.804c.328.075.616.68.616.68v.13s-.29.603-.616.592v2.026h6.953c1.684-.001 3.048-1.383 3.048-3.088v-.651h5.231c2.04.004 3.693 1.68 3.693 3.747V48.39a4.183 4.183 0 0 1 1.545 3.252 4.183 4.183 0 0 1-1.545 3.253V55h2.154v-9.144c0-.012.005-.024.013-.032a.044.044 0 0 1 .033-.013H105V29.842c0-1.55-.607-3.036-1.69-4.131A5.732 5.732 0 0 0 99.23 24H83v2.804h.152zm2.33-.014c.414 0 .749.34.749.759a.754.754 0 0 1-.75.759.754.754 0 0 1-.749-.759c0-.419.336-.759.75-.759z"/>
        <path fill="#7CBE35" d="M85.357 33.488c2.398 0 4.342 2.082 4.342 4.65 0 2.567-1.944 4.65-4.342 4.65A4.228 4.228 0 0 1 82 41.097V54h13.888a4.207 4.207 0 0 1-1.632-3.294c0-2.389 2.071-4.324 4.628-4.324A4.792 4.792 0 0 1 102 47.506V29.68A3.675 3.675 0 0 0 98.337 26h-5.189v.64a3.029 3.029 0 0 1-3.023 3.032h-8.117v5.508a4.231 4.231 0 0 1 3.35-1.692z"/>
        <path fill="#E6E8EC" d="M83.2 28c.427 0 .779-.185.8-.422v-.094c-.048-.24-.372-.437-.8-.484H83v1h.2z"/>
        <ellipse cx="85.58" cy="27.097" fill="#E6E8EC" rx="1" ry="1" transform="rotate(-9.22 85.58 27.097)"/>
        <path fill="#3A3768" d="M101 85v-1.687c1.333-.988 1.333-2.325 0-3.313v5zM101 86h3v1h-3z"/>
        <path fill="#7CBE35" d="M99.726 85.13c-.315.17-.551.452-.66.788-.13.367-.064.773.177 1.082H101v-.71h-.675c.245-.192.47-.405.675-.638V84c-.336.463-.77.848-1.274 1.13z"/>
        <path fill="#7CBE35" d="M100 86h1v-1c-.303.365-.638.7-1 1z"/>
        <path fill="#3A3768" d="M102 82.5c-.008-.538-.357-1.062-1-1.5v3c.642-.438.991-.961 1-1.5zM104 86v25.85c0 3.396-2.668 6.15-5.958 6.15H82v-2.523h15.466c2.03 0 3.676-1.7 3.676-3.795V86H104z"/>
        <path fill="#7CBE35" d="M99.262 86.469c.098-.31.31-.571.593-.728A3.6 3.6 0 0 0 101 84.698v-2.996C100.3 80.69 98.92 80 97.327 80c-2.297 0-4.158 1.433-4.158 3.205 0 .834.414 1.592 1.09 2.162.26.215.545.398.848.544l.018.03a1.31 1.31 0 0 1 .253 1.526H82v12.516c.779-1.05 2-1.67 3.301-1.68 2.365 0 4.28 2.077 4.28 4.636 0 2.56-1.915 4.637-4.28 4.637A4.148 4.148 0 0 1 82 105.897V116h15.351c2.012 0 3.644-1.639 3.649-3.663V87.468h-1.574a1.074 1.074 0 0 1-.164-1z"/>
        <path fill="url(#a)" d="M128 48c.882-.393 1.535-1.055 1.757-1.903.027-.103.047-.207.06-.313.04-.098.074-.197.102-.299.222-.851-.023-1.732-.604-2.485l-1.155 4.382L128 48z"/>
        <path fill="url(#b)" fill-rule="nonzero" d="M153.18 46.634c-.173-1.031-3.39-3.266-3.39-3.266s-1.422-.771-2.174-1.663c-.481-.567-.632-.56-.678-.484a.227.227 0 0 0-.104-.035c-.03-.022-.059-.042-.086-.065a.209.209 0 0 0-.12-.211c-.037-.022-.074-.05-.11-.076-.244-.415-.331-1.002-.36-1.514-.036-.646-.762-.484-1.01-.412-.17-.324-.336-.66-.493-.996.069-.11.127-.226.172-.347.448-.986.35-2.116.545-3.159.14-.754.433-1.542.375-2.276v-.054.011a1.971 1.971 0 0 0-.124-.537c-.13-.33-.354-.617-.457-.957-.163-.498-.059-1.047-.195-1.552-.169-.638-.702-1.132-1.305-1.414-.603-.282-1.275-.38-1.936-.463-1.653-.21-3.41-.334-4.917.369a.875.875 0 0 1-.457.125 1.395 1.395 0 0 1-.418-.196c-.405-.204-.913-.074-1.276.197-.363.272-.61.664-.848 1.043-.24.38-.502.771-.876 1.02-.44.297-1.022.397-1.371.798-.156.19-.254.421-.284.666v-.01a.852.852 0 0 0 0 .087v.324c.05.377.148.745.294 1.095.07.261.208.499.4.688.53.437 1.37.025 2.01.268.057.02.11.047.163.071 0 .025-.017.05-.024.076-.137.471-.206.96-.206 1.451 0 2.896 2.375 5.243 5.304 5.243.11 0 .218 0 .326-.012l.046.171c.163.64.214 1.304.152 1.962l-.032-.287a1.394 1.394 0 0 0-.22-.085 1.949 1.949 0 0 0-.659-.102c-.72-.009-1.805.284-2.962 1.706 0 0-1.478.831-1.912 1.032a.206.206 0 0 0-.08.092s-1.977 3.021-2.18 4.17a216.447 216.447 0 0 1-.458 2.468s-.493 1.49-.812 2.15c-.318.66-.609 1.289-.636 1.576-.028.287.115.916-.494 1.317-.61.4-.762 1.49-.762 1.49s-.304.29-.735.656h-.015l1.591-6.179.285.072a.363.363 0 0 0 .437-.257l.322-1.252.13-.498.025-.102.188-.727-.634-.154-.742-.186-2.096-.536.183-.709.152-.601.958-3.723.153-.6c-.61-.799-1.58-1.448-2.773-1.749-2.3-.578-4.527.363-4.975 2.1a2.393 2.393 0 0 0-.06.309 2.51 2.51 0 0 0-.134 1.373c.092.48.292.932.584 1.321.206.278.445.53.712.748l.01.034c.113.187.182.398.2.617v.095c-.051.094-.113.18-.183.26l-14.054-3.537-.152.6-3.165 12.314a4.57 4.57 0 0 1 1.965-.886l.071-.013a4.195 4.195 0 0 1 1.703.071c1.776.448 3.004 1.979 3.233 3.78a4.894 4.894 0 0 1-.053 1.558c-.762 2.34-3.102 3.755-5.375 3.183a4.28 4.28 0 0 1-2.879-2.49l-.152.6L100 76.259l12.447 3.133.134-.606h.02a4.225 4.225 0 0 1-.86-3.334c0-.02.013-.038.02-.058.015-.045.032-.088.049-.132a4.27 4.27 0 0 1 .63-1.071c.22-.27.47-.51.745-.719l.089-.065c.1-.072.204-.142.304-.206a4.891 4.891 0 0 1 2.585-.686c.401.005.8.056 1.189.154 1.2.292 2.25 1.03 2.938 2.068a4.26 4.26 0 0 1 .68 1.841c.048.393.038.79-.03 1.18a4.191 4.191 0 0 1-1.611 2.11l-.153.58h.017l-.023.018-.152.578 2.842.716 4.026-15.584c1.087-.128 1.643-.617 1.643-.688 0-.07 1.305-.803 2.029-1.004.359-.098.775-.17 1.105-.24-.39 1.96-.761 3.855-.728 3.966.01.043.081-.025.188-.173a.843.843 0 0 0-.014.173c0 .03.041.008.094-.052l-.007.037s-2.26 4.427-2.437 4.935c-.177.507.042 1.805.738 2.236.135.086.256.194.357.319l-.082.165c-.26.532-.49 1.124-.448 1.493.054.466-.054.937-.305 1.332 0 0-1.957 6.124-1.913 7.887.044 1.763-.696 5.63-.696 5.63s-.805 2.492-.326 3.202c.478.71 1.022 3.804 1.022 3.804s.37.71.347 1.311c-.023.602.349 1.697.349 1.697l1.219 4.447s-.131 1.183.326 2.02c.456.838.412.58.194 2.042-.217 1.462.262 2.815 1.044 3.239.305.166.32.42.225.67-.2-.08-.365.338-.464.676l-.1.097.066.017c-.042.154-.067.284-.067.284s-2.042 1.72-2.173 2.343c-.131.623-1.566.945-1.566.945s-2.174.601-2.742.902c-.331.152-.559.469-.6.834-.026.284 0 .57.079.842.216.88 3.26.967 4.722.731 1.462-.236 4.477-1.096 4.477-1.096s3.174-.309 4.113-.688c.938-.38.195-1.376.195-1.376v-.092c.022-.36.088-1.663-.137-2.005-.17-.265-.165-.925-.14-1.345.635-1.156-.729-4.626-.729-4.626s.26-3.393.087-3.89c-.174-.496-.914-4.706-.914-4.706s-.457-1.912-.282-2.235c.175-.322-.11-1.247-.11-1.247s-.744-1.029-.677-1.353c.067-.324-.218-.902-.218-.902s2.218-3.353 2.021-3.976c-.196-.623.089-1.633.089-1.633l.609-1.044c.411-.697.914-1.531 1.078-1.792.214-.331.727-1.743 1.013-2.555l.205-.583s.347 6.323.652 6.963c.304.64.761 5.738.761 5.738.17.453.243.936.218 1.419-.043.794.696 4.255.696 4.255s.326 2.449.108 3.093c-.218.645-.042 5.398-.042 5.398s-1.196.925-1.5 1.633c-.305.708.042 2.643.042 2.643l.14.067a4.114 4.114 0 0 0-.248.835c-.043.41-.696 2.258-.631 2.516.066.257-.282 1.053-.326 1.46-.044.407-.586 1.01-.63 1.226a5.295 5.295 0 0 1-.24.566 5.445 5.445 0 0 0-.282.873c-.217.904 2.37 1.053 2.37 1.053 3.826.71 4.522-2.191 4.522-2.191s.478-2.579.652-2.776a.312.312 0 0 0 .029-.245 3.288 3.288 0 0 0-.552-1.214c-.122-.143-.13-.512-.11-.842.111-.01.22-.032.328-.062 1.543-.45.914-3.052.914-3.052s1.043-1.718 1.043-2.384c0-.666.37-2.708.37-2.708 1.327-2.407.805-8.252 1.023-8.725.218-.474-.457-2.235-1.001-3.03-.544-.796-.326-2.945 0-3.568.326-.623-.326-2.776-.326-2.776s.63-4.163.61-4.814c-.022-.651.543-2.557.543-2.557s.565-.989.434-1.29c-.13-.3.434-1.079.284-1.418-.151-.34.129-1.397.412-2.02.145-.32.325-1.199.457-1.98.016-.087.03-.173.044-.258.634.405 1.22.708 1.426.626.389-.154-.23-2.16-.653-3.408.073-.056.103-.097.073-.116-.26-.173.029-.947.029-.947 1.537-.916 1.014-1.604.522-2.005-.492-.4-.173-1.542-.32-2.004-.146-.463.176-2.55.436-4.069.054-.33.052-.667-.008-.996.28-.43.567-.88.82-1.297.868-1.432 2.724-8.252 2.724-8.252l-.013-.035c.182-.363.317-.657.39-.853.562-1.48-.481-5.953-.655-6.988zm-13.508-3.926l.04-.019v.033l-.04-.014zm-8.434 73.152a.689.689 0 0 1-.276-.055l.276.055z"/>
        <path fill="#FEC2BE" d="M115.44 65.439c1.368.506 4.547.561 5.96.561h.694l.906-1.8-.906-1.5s-.83-.223-1.934-.418c-1.629-.285-3.857-.509-4.92.133-1.78 1.075-1.581 2.364.2 3.024z"/>
        <path fill="#000" d="M121.309 66h.734l.957-1.936-.956-1.614s-.878-.24-2.044-.45c.947.69 3.223 2.195 1.309 4z" opacity=".1"/>
        <path fill="#4C4981" d="M134.679 45.42l-.357-.42s-1.84 2.962-2.034 4.08c-.193 1.118-.446 2.402-.446 2.402s-.466 1.454-.77 2.096c-.303.642-.576 1.257-.603 1.537-.026.28.11.894-.468 1.285-.578.392-.713 1.454-.713 1.454s-2.09 2.067-3.189 2.115c-1.1.049-4.259.615-4.149 1.174.11.56-1.318.893-1.896 1.034-.578.14 3.715 1.813 1.21 3.968 0 0 1.593.335 1.758.725.165.39 1.84-.222 1.84-.222s.359-.867 1.595-.923c1.236-.056 1.868-.615 1.868-.698 0-.083 1.236-.783 1.932-.978.695-.195 1.593-.28 1.621-.476.028-.196 4.122-18.16 4.122-18.16l-1.321.007z"/>
        <path fill="#000" d="M134.679 45.42l-.357-.42s-1.84 2.962-2.034 4.08c-.193 1.118-.446 2.402-.446 2.402s-.466 1.454-.77 2.096c-.303.642-.576 1.257-.603 1.537-.026.28.11.894-.468 1.285-.578.392-.713 1.454-.713 1.454s-2.09 2.067-3.189 2.115c-1.1.049-4.259.615-4.149 1.174.11.56-1.318.893-1.896 1.034-.578.14 3.715 1.813 1.21 3.968 0 0 1.593.335 1.758.725.165.39 1.84-.222 1.84-.222s.359-.867 1.595-.923c1.236-.056 1.868-.615 1.868-.698 0-.083 1.236-.783 1.932-.978.695-.195 1.593-.28 1.621-.476.028-.196 4.122-18.16 4.122-18.16l-1.321.007z" opacity=".05"/>
        <path fill="#CA8496" d="M139.503 123.89c4.032.702 4.765-2.17 4.765-2.17s.504-2.553.687-2.745a.288.288 0 0 0 .031-.242 3.23 3.23 0 0 0-.581-1.202c-.251-.276-.046-1.425-.046-1.425L139.687 115s-.413.871-.458 1.276c-.044.405-.733 2.233-.66 2.49.072.255-.298 1.04-.344 1.446-.046.404-.618 1-.66 1.211-.072.192-.157.38-.253.562-.124.28-.224.568-.297.863-.237.893 2.488 1.041 2.488 1.041z"/>
        <path fill="#000" d="M139.508 123.874c4.028.8 4.76-2.472 4.76-2.472s.504-2.908.687-3.126a.368.368 0 0 0 .031-.276l-.97 2.942s-.8 1.768-3.775 1.503c-1.693-.152-2.526-.484-2.93-.743a6.674 6.674 0 0 0-.297.984c-.228 1.019 2.494 1.188 2.494 1.188z" opacity=".1"/>
        <path fill="#000" d="M142 120s-.936.029-1-1l1 1z" opacity=".1"/>
        <path fill="#7CBE35" d="M113.128 77l.872.201-.191.799-.809-.185z"/>
        <path fill="#000" d="M113.128 77l.872.201-.191.799-.809-.185z" opacity=".1"/>
        <path fill="#3A3768" d="M130.666 50.617l.181-.72.614.158-.181.72zM127.908 49.908l.182-.72 2.037.524-.182.72z"/>
        <path fill="#3A3768" d="M129.944 50.433l.182-.72.72.185-.182.72z"/>
        <path fill="#7CBE35" d="M128.589 49.189c-.065.023-.128.047-.19.067l.157.03-.243.714-1.201-.23c-.185-.329-.139-.705.124-1.003.228-.277.591-.477 1.012-.557.258-.056.509-.126.752-.21l-.411 1.189z"/>
        <path fill="#3A3768" d="M131 52.9l.273.087c.09.028.184.011.263-.047a.426.426 0 0 0 .159-.26l.305-1.495-.604-.185-.396 1.9zM130.909 46.265c-.244.774-.952 1.378-1.909 1.735l1.254-4c.635.687.902 1.491.655 2.265zM129.618 52.25a.362.362 0 0 1-.25-.439l.312-1.274-2.029-.537-6.188 25.288c.93 1.886.365 4.197-1.32 5.39l-.143.59 2.745.732L130 52.356l-.382-.107zM130.01 52.406c-.045.212.063.428.24.483l.368.111.382-1.79-.69-.21-.3 1.406z"/>
        <path fill="#7CBE35" d="M127.574 47.95c.174-.278.449-.479.767-.56a4.09 4.09 0 0 0 .568-.212L130 42.899a4.88 4.88 0 0 0-2.715-1.73c-2.251-.573-4.434.358-4.871 2.078-.207.811.01 1.653.534 2.377.2.275.434.523.695.74l.01.035c.304.49.25 1.122-.131 1.555l-13.76-3.501-3.106 12.188a4.214 4.214 0 0 1 3.645-.819c2.32.59 3.684 3.09 3.048 5.582-.635 2.492-3.023 4.036-5.342 3.454a4.209 4.209 0 0 1-2.82-2.465L102 74.901 114.189 78a4.196 4.196 0 0 1-.78-3.6c.591-2.316 3.091-3.681 5.587-3.046a4.799 4.799 0 0 1 3.123 2.458l6.273-24.62-.901-.23a1.073 1.073 0 0 1 .083-1.011z"/>
        <path fill="#7CBE35" d="M128.046 49.05l.025-.1c-.047.024-.094.048-.142.07l.117.03z"/>
        <g fill="#000" opacity=".1">
            <path fill-rule="nonzero" d="M131.243 50.18l-.72-.182-2.04-.515.027-.097.304-1.18a3.978 3.978 0 0 1-.565.208c-.316.08-.59.278-.761.553a1.457 1.457 0 0 0-.002 0c.173-.274.446-.473.762-.553.192-.056.38-.125.563-.209l1.083-4.217a4.845 4.845 0 0 0-2.694-1.705c-2.234-.566-4.4.352-4.834 2.048-.205.8.011 1.63.53 2.343.2.27.431.516.69.73l.011.033a1.283 1.283 0 0 1-.131 1.533l-13.654-3.45-3.08 12.013a4.202 4.202 0 0 1 3.62-.807c2.3.582 3.654 3.046 3.024 5.503-.63 2.456-3 3.978-5.301 3.404a4.168 4.168 0 0 1-2.798-2.43l-3.163 12.33 12.095 3.054a4.115 4.115 0 0 1-.774-3.549c.586-2.282 3.067-3.628 5.543-3.002a4.756 4.756 0 0 1 3.1 2.423 4.012 4.012 0 0 1-1.327 5.173l-.145.565 2.761.703 7.296-28.447.276.071a.351.351 0 0 0 .424-.251l.308-1.227.181-.71-.609-.155zm-2.808-.755c-.023.01-.046.023-.069.032l.069-.032zm-1.036.543l.904.228-.904-.228z"/>
            <path d="M130.453 46.376c.208-.816-.022-1.663-.565-2.388l-1.081 4.217c.83-.376 1.44-1.014 1.646-1.829z"/>
        </g>
        <path fill="#3A3768" d="M130.815 50.024l.181-.72.614.158-.181.72zM128.058 49.314l.181-.72 2.037.524-.182.72z"/>
        <path fill="#3A3768" d="M130.094 49.837l.181-.72.72.185-.181.72z"/>
        <path fill="#7CBE35" d="M128.592 49.184l-.19.069.156.029-.241.718-1.203-.23c-.188-.328-.142-.705.122-1.003.23-.277.593-.476 1.014-.557.257-.056.507-.126.75-.21l-.408 1.184z"/>
        <path fill="#3A3768" d="M131 51.9l.272.085c.088.03.183.014.262-.044a.426.426 0 0 0 .159-.263l.307-1.493-.597-.185-.403 1.9zM130.91 45.267c-.242.772-.95 1.376-1.91 1.733l1.256-4c.632.687.9 1.491.654 2.267zM129.617 51.247a.349.349 0 0 1-.213-.166.374.374 0 0 1-.037-.274l.303-1.273-2.02-.534-6.187 25.292c.933 1.886.367 4.2-1.32 5.39l-.143.59 2.747.728L130 51.348l-.383-.101zM130.01 51.404a.466.466 0 0 0 .036.302c.045.09.119.157.205.183l.365.111.384-1.791-.69-.209-.3 1.404z"/>
        <path fill="#7CBE35" d="M127.575 47.951c.174-.279.449-.48.767-.561.195-.056.385-.127.568-.212l1.09-4.28a4.878 4.878 0 0 0-2.714-1.73c-2.253-.571-4.434.358-4.873 2.08-.205.81.011 1.652.536 2.376.2.275.434.525.695.743l.011.032c.303.491.25 1.122-.132 1.555l-13.763-3.5-3.11 12.19a4.21 4.21 0 0 1 3.653-.818c2.318.589 3.684 3.089 3.049 5.583-.636 2.494-3.026 4.035-5.35 3.446a4.214 4.214 0 0 1-2.816-2.466L102 74.899 114.188 78a4.197 4.197 0 0 1-.778-3.601c.59-2.318 3.091-3.682 5.587-3.047 1.35.33 2.49 1.23 3.125 2.467l6.271-24.62-.91-.232a1.073 1.073 0 0 1 .092-1.016zM129.046 49.05l.025-.1c-.047.023-.095.048-.142.07l.117.03z"/>
        <path fill="#CEDDF9" d="M126.15 94.792c.457.708.993 3.801.993 3.801s.36.708.338 1.31c-.021.603.338 1.704.338 1.704l1.183 4.446s-.128 1.181.317 2.013c.445.831.4.579.19 2.04-.21 1.46.253 2.813 1.013 3.25.76.44-.338 1.44-.338 1.44s4.858 1.331 5.873.515c1.014-.816-.529-4.854-.529-4.854s.254-3.393.085-3.887c-.169-.494-.887-4.703-.887-4.703s-.444-1.912-.275-2.234c.17-.323-.105-1.24-.105-1.24s-.718-1.03-.655-1.353c.064-.322-.211-.9-.211-.9s2.15-3.361 1.96-3.991c-.19-.63.084-1.633.084-1.633l.6-1.043c.4-.697.884-1.532 1.047-1.792.208-.331.707-1.74.986-2.553l.198-.583s.338 6.315.633 6.96c.296.644.739 5.729.739 5.729.164.453.236.935.212 1.417-.043.794.676 4.252.676 4.252s.317 2.448.105 3.097c-.212.649-.043 5.392-.043 5.392s-1.162.929-1.457 1.632c-.296.703.042 2.632.042 2.632s3.38 1.72 4.874 1.269c1.494-.45.886-3.05.886-3.05s1.014-1.718 1.014-2.384c0-.666.369-2.7.369-2.7 1.288-2.404.781-8.245.993-8.717.212-.472-.445-2.235-.972-3.029-.527-.794-.317-2.942 0-3.562.317-.619-.326-2.773-.326-2.773s.61-4.167.591-4.811c-.018-.644.529-2.555.529-2.555s.548-.988.422-1.29c-.127-.302.421-1.073.274-1.417-.148-.344.128-1.394.402-2.013.14-.319.315-1.199.457-1.977.13-.742.225-1.394.225-1.394l-3.486-2.857-8.702-2.323L133.539 69l-3.19 5.11c-.226.373-.433.757-.62 1.15-.251.532-.475 1.123-.436 1.492.053.465-.05.935-.295 1.332 0 0-1.902 6.12-1.86 7.881.043 1.763-.676 5.626-.676 5.626s-.781 2.49-.312 3.2z"/>
        <path fill="#FEC2BE" d="M138.318 45c.142-.058 9.899-4.04 8.555-4.83-.797-.47-1.779-2.462-2.452-4.02-.469-1.088-.787-1.965-.787-1.965s-7.83-1.374-5.028 3.368c.442.728.774 1.515.988 2.337.799 3.23-1.211 5.05-1.276 5.11z"/>
        <path fill="#000" d="M139.566 37.62c.413.741.724 1.543.923 2.38 1.892-.142 3.556-1.401 4.32-3.27.073-.176.137-.356.191-.54-.438-1.108-.736-2.002-.736-2.002s-7.317-1.4-4.698 3.432z" opacity=".1"/>
        <path fill="#FEC2BE" d="M135 34.502c0 2.888 2.032 5.283 4.651 5.484 2.619.202 4.933-1.86 5.3-4.718.366-2.86-1.34-5.544-3.908-6.146-2.568-.602-5.122 1.082-5.848 3.857a6.015 6.015 0 0 0-.195 1.523z"/>
        <path fill="#000" d="M130 75.353c.532.506.736 1.47.736 1.47s2.5 1.787 2.333.654c-.167-1.134 1.291-5.713 1.291-5.713L134.194 78s7.995-.393 8.58-1.003c.583-.61 3.998-1.78 3.998-1.78s1.05.88 2.006 1.546c.127-.753.222-1.415.222-1.415l-3.437-2.9-8.58-2.359L133.757 69l-3.146 5.188c-.222.377-.426.766-.611 1.165z" opacity=".1"/>
        <path fill="#FFF" d="M129.793 74.27c.688.426.945 1.578.945 1.578s2.576 1.749 2.404.64c-.172-1.109 1.332-5.589 1.332-5.589L134.302 77s8.247-.381 8.846-.981c.599-.6 4.123-1.749 4.123-1.749s3.05 2.432 3.608 2.218c.557-.214-.988-4.35-.988-4.35l-1.587-24.23s.429-7.21-.215-7.467a.93.93 0 0 1-.271-.167c-.425-.379-.552-1.147-.589-1.793-.042-.77-1.073-.385-1.073-.385l.601.77-5.322 3.213-.046.028a5.903 5.903 0 0 0-.64-.288c-.464-.18-1.097-.349-1.508-.181-.23.116-.424.29-.563.504a6.322 6.322 0 0 0-.725 1.458l-1.928 3.24s-.988 4.307-.988 4.48c0 .174-.3 4.096-.644 4.522-.343.426-.687 2.559-.559 3.199.129.64-.215 3.03-.215 3.03-1.417 1.151-2.146 5.074-2.146 5.074s-2.239 4.399-2.415 4.906c-.177.508.048 1.8.735 2.22z"/>
        <path fill="#000" d="M141 43.132c.572.778 2.226 1.868 2.226 1.868L148 41.303c-.465-.383-.605-1.162-.645-1.817-.046-.779-1.177-.388-1.177-.388l.137.156a.654.654 0 0 1 .147.553.7.7 0 0 1-.352.47L141 43.132z" opacity=".1"/>
        <path fill="#FFF" d="M141 42.132c.572.778 2.226 1.868 2.226 1.868L148 40.302c-.465-.383-.605-1.161-.645-1.815-.046-.779-1.177-.39-1.177-.39l.137.156a.653.653 0 0 1 .147.553.699.699 0 0 1-.352.468L141 42.132z"/>
        <path fill="#000" d="M139 42.729c.53.74 1.28 1.58 1.245 1.158-.035-.42.447-1.35.755-1.765a1.935 1.935 0 0 0-1.47.048c-.216.128-.399.32-.53.559z" opacity=".1"/>
        <path fill="#FFF" d="M139 42.665c.543.778 1.312 1.657 1.276 1.217-.036-.44.408-1.156.724-1.592-.449-.209-1.06-.405-1.457-.209a1.514 1.514 0 0 0-.543.584z"/>
        <circle cx="140.5" cy="46.5" r="1" fill="#FF718D"/>
        <circle cx="137.5" cy="55.5" r="1" fill="#FF718D"/>
        <circle cx="134.5" cy="64.5" r="1" fill="#FF718D"/>
        <circle cx="134.5" cy="75.5" r="1" fill="#FF718D"/>
        <circle cx="138.5" cy="50.5" r="1" fill="#FF718D"/>
        <circle cx="136.5" cy="59.5" r="1" fill="#FF718D"/>
        <circle cx="133.5" cy="69.5" r="1" fill="#FF718D"/>
        <circle cx="134.5" cy="76.5" r="1" fill="#FF718D"/>
        <path fill="#000" d="M147.318 41.144s-.054-.498.655.36c.71.859 2.05 1.604 2.05 1.604s3.035 2.159 3.199 3.154c.164.994 1.147 5.312.628 6.75-.519 1.437-4.486 8.328-4.486 8.328s1.035 1.246.794 2.712c-.241 1.466-.547 3.486-.411 3.928.136.443-.164 1.549.295 1.936.46.388.957 1.047-.492 1.936 0 0-.273.748-.028.914.246.166-3.635 1.88-5.173.968-1.54-.913-4.287-8.216-4.346-9.848-.06-1.632.847-7.031 1.339-8.3.492-1.269 1.969-6.225 2.597-7.33.628-1.106 3.38-7.112 3.38-7.112z" opacity=".1"/>
        <path fill="#4C4981" d="M147.315 41.144s-.054-.498.657.36c.71.859 2.05 1.604 2.05 1.604s3.036 2.159 3.2 3.154c.164.994 1.147 5.312.628 6.75-.519 1.437-4.484 8.328-4.484 8.328s1.035 1.246.794 2.712c-.241 1.466-.547 3.486-.411 3.928.136.443-.164 1.549.296 1.936.46.388.956 1.047-.493 1.936 0 0-.273.748-.028.914.246.166-3.635 1.88-5.175.968-1.539-.913-4.287-8.216-4.346-9.848-.06-1.632.847-7.031 1.34-8.3.492-1.269 1.969-6.225 2.597-7.33.628-1.106 3.375-7.112 3.375-7.112z"/>
        <path fill="#000" d="M149 46s-2.07 3.007-1.998 5c0 0-.024-3.229 1.998-5zM145 50c0 .084-1.757 6.203-1.665 6.97.091.766-.516 3.03-.516 3.03l-.819-.198s.635-3.145.757-4.306C142.877 54.334 145 50 145 50zM145 68c.057.089 3.887 4.656 2.809 4.985C146.73 73.315 145 68 145 68zM148 67c.098.054 1.789 2.993 1.984 2.207.195-.786-1.454 2.15-1.72-.027L148 67zM139.936 42.187s-1.679-.97-3.788 1.512c0 0-1.536.828-1.987 1.028-.451.2-.964 5.508-.964 5.508s-.994 2.283-.723 3.596c.27 1.314-.782 5.821-.782 5.821s-1.75 8.103-1.69 8.334c.058.232 1.776-2.54 1.747-3.91-.03-1.37 1.445-5.65 1.656-5.908.212-.258 1.657-7.59 1.657-7.59s1.174-3.111 1.927-4.14c.752-1.027 1.687-2.967 2.078-3.31.281-.23.595-.423.933-.57l-.064-.371z" opacity=".1"/>
        <path fill="#4C4981" d="M139.952 42.187s-1.848-.97-3.918 1.512c0 0-1.509.828-1.952 1.028-.443.2-.946 5.508-.946 5.508s-.976 2.283-.71 3.596c.265 1.314-.768 5.822-.768 5.822s-1.716 8.105-1.657 8.334c.06.228 1.745-2.54 1.716-3.911-.029-1.37 1.419-5.65 1.626-5.908.208-.258 1.631-7.59 1.631-7.59s1.153-3.111 1.892-4.14c.739-1.027 1.657-2.967 2.04-3.31.384-.342 1.094-.57 1.094-.57l-.048-.371z"/>
        <path fill="#FEC2BE" d="M133 59.428s-3.469-2.22-5.146-1.124c-1.678 1.096-4.415 2.648-1.72 3.771 2.694 1.124 6.428.908 6.428.908l.438-3.555z"/>
        <path fill="#000" d="M134.217 80.3c.586 1.137 1.072 6.88 1.398 8.7.47-.73 1.038-1.606 1.229-1.878.243-.348.829-1.825 1.156-2.677-.373-.825-1.404-3.189-1.404-4.059 0-1.058-1.884-2.386-1.884-2.386s-1.188.95-.495 2.3zM146 97.813s-3.754-1.495-4.863-.43c-1.109 1.063 4.863.43 4.863.43z" opacity=".1"/>
        <path fill="#000" d="M144 98s4.116 2.539 2.706 2.963C145.296 101.388 144 98 144 98zM132 97s1.418.21.877.842c-.54.633-.877-.842-.877-.842zM130 97c.022.132 4.815 2.019 3.879 2.873C132.942 100.727 130 97 130 97zM145 109.856c-.816-.085-5.372-1.514-3.59-.485 1.782 1.03 3.59.485 3.59.485zM143 112s-.346 1.133-1.664.987C140.018 112.841 143 112 143 112z" opacity=".1"/>
        <path fill="#000" d="M144 114.174c-.228-.082-2.938-1.743-2.999-.969-.061.775 2.584 2.133 2.792 1.718.119-.22.19-.479.207-.75zM135 113c-.327-.042-3.385-2.051-4-.253l4 .253zM132 113.154s-.454-.49-.908-.235c-.453.255.908.235.908.235zM139 119a1.297 1.297 0 0 1-1 1l1-1z" opacity=".1"/>
        <path fill="#CA8496" d="M123.088 121.134c.204.905 3.057.992 4.422.75 1.365-.241 4.197-1.125 4.197-1.125s2.974-.309 3.85-.705c.875-.396.183-1.412.183-1.412v-.095c.021-.37.083-1.707-.127-2.068-.244-.42-.102-1.787-.102-1.787s-4.217.883-4.3.464c-.082-.418-.734-1.014-1.038-1.146-.304-.132-.53 1.102-.53 1.102s-1.91 1.765-2.038 2.404c-.127.64-1.469.97-1.469.97s-2.037.617-2.567.926c-.313.16-.526.484-.562.857-.022.291.006.584.081.865z"/>
        <path fill="#000" d="M123.084 121.248c.204.786 3.058.862 4.423.652 1.365-.21 4.198-.978 4.198-.978s2.976-.268 3.852-.612c.875-.344.183-1.227.183-1.227V119l-4.261.888s-2.1.843-3.445.843c-1.175 0-3.806.452-5.025-.234-.024.253.001.507.075.75zM130 117s.2 1.5 1 2l-1-2zM135 33.121c.08.047.163.086.249.116.391.118.774-.178 1.122-.414.348-.235.829-.41 1.13-.104.393.399.108 1.25.514 1.636.256.244.662.16.947.36.285.2.37.64.443 1.018.072.378.217.811.549.922.331.111.64-.133.967-.12.068 0 .15.012.193-.042.03-.049.04-.11.031-.168a4 4 0 0 1 .107-1.346c.134-.43.452-.82.85-.889.586-.1 1.079.473 1.424 1.01.362.569.692 1.162.988 1.777.019.04.035.081.05.123.771-1.946.506-4.21-.687-5.87-1.193-1.66-3.115-2.438-4.983-2.017-1.868.42-3.37 1.97-3.894 4.017v-.009z" opacity=".1"/>
        <path fill="#9A5E7F" d="M143.31 35.522c-.346-.5-.84-1.026-1.43-.93-.404.064-.716.422-.852.817a3.361 3.361 0 0 0-.106 1.24.221.221 0 0 1-.033.155c-.047.05-.125.043-.193.04-.328-.012-.655.206-.971.11-.316-.096-.478-.5-.55-.85-.073-.348-.152-.746-.445-.937-.293-.19-.694-.107-.951-.333-.407-.354-.12-1.14-.516-1.507-.302-.28-.784-.119-1.134.098-.349.217-.733.488-1.128.38-.133-.037-.252-.115-.382-.166-.622-.243-1.428.169-1.939-.268a1.545 1.545 0 0 1-.387-.687 4.456 4.456 0 0 1-.283-1.096c-.045-.38.057-.763.285-1.067.332-.402.895-.502 1.32-.799.361-.254.605-.64.843-1.02.24-.379.47-.774.82-1.042s.84-.402 1.23-.199c.122.088.259.155.403.197a.82.82 0 0 0 .446-.125c1.455-.702 3.148-.579 4.743-.37.638.084 1.286.182 1.868.466.582.283 1.096.775 1.26 1.413.13.505.03 1.056.187 1.55.106.338.323.62.453.96.34.906-.066 1.9-.239 2.856-.187 1.043-.093 2.17-.526 3.158-.084.194-.18.533-.393.406-.151-.094-.311-.644-.402-.817a15.123 15.123 0 0 0-.998-1.633z"/>
        <path fill="#000" d="M152.248 51.853l.752 2.164s-1.782 6.686-2.617 8.092c-.835 1.405-2.058 3.203-2.058 3.203s-2.059 1.04-4.453.562c-2.394-.479-9.38-1.741-9.38-1.741s-.586.112-.891-.338c-.306-.45-1.896-.677-1.896-.677s-1.836-2.698.418-3.822c0 0 .278.618 1.475.198 1.196-.421 1.557.335 1.557.335s1.956.394 3.034.254c1.077-.14 3.784-.197 4.063-.422a.356.356 0 0 1 .5.029s.667-.253.89-.506c.223-.254.53.28.53.28s.39-.224.278-.505c-.111-.281.361-1.348.361-1.348s.223-.704.084-1.266c-.138-.562.696-2.583.696-2.583a3.61 3.61 0 0 0-.112-1.012c-.14-.505 1.054-1.52 1.054-1.52s1.167-5.733 3.644-3.85c2.477 1.882 2.07 4.473 2.07 4.473z" opacity=".1"/>
        <path fill="#4C4981" d="M152.247 51.853l.753 2.164s-1.782 6.686-2.618 8.092c-.835 1.405-2.057 3.203-2.057 3.203s-2.06 1.04-4.454.562c-2.395-.479-9.381-1.741-9.381-1.741s-.584.112-.89-.338c-.305-.45-1.895-.677-1.895-.677s-1.836-2.698.418-3.822c0 0 .279.618 1.476.198 1.196-.421 1.558.335 1.558.335s1.956.394 3.034.254c1.078-.14 3.786-.197 4.064-.422a.356.356 0 0 1 .502.029s.667-.253.89-.506c.222-.254.53.28.53.28s.389-.224.278-.505c-.112-.281.36-1.348.36-1.348s.224-.704.084-1.266.697-2.583.697-2.583a3.608 3.608 0 0 0-.112-1.012c-.14-.505 1.054-1.52 1.054-1.52s1.168-5.733 3.646-3.85c2.477 1.882 2.063 4.473 2.063 4.473z"/>
        <path fill="#000" d="M134.418 61c.034.221.8 1.102.521 1.26-.278.159-.73.063-.312.567s.376 1.259.103 1.165c-.273-.094-.73-1.228-.73-1.669 0-.44.418-1.323.418-1.323zM143 60s.176 2.272 1.615 2.921C146.054 63.571 143 60 143 60zM146 60c.062.033 1.467 1.203.839 1.885C146.21 62.566 146 60 146 60zM146 58s2.733.497 1.81.918C146.887 59.339 146 58 146 58z" opacity=".1"/>
        <g fill="#000" opacity=".1">
            <path d="M141.008 33.876c.136-.396.452-.756.848-.82.587-.093 1.08.438 1.424.934.362.525.692 1.074.987 1.643.09.172.244.723.4.818.213.129.302-.212.392-.406.43-.99.337-2.123.524-3.17.11-.612.313-1.245.358-1.851.065.752-.221 1.544-.358 2.31-.187 1.046-.093 2.177-.524 3.171-.084.195-.179.535-.391.406-.15-.095-.31-.645-.4-.818a15.38 15.38 0 0 0-.988-1.643c-.345-.499-.837-1.03-1.424-.933-.402.064-.712.423-.848.82a2.35 2.35 0 0 0-.111.647c-.03-.373.008-.749.111-1.108zM132.306 31.142c.067.261.2.5.385.69.509.44 1.311.025 1.93.27.13.05.248.129.38.166.394.107.777-.165 1.124-.383.346-.217.83-.378 1.129-.096.394.369.108 1.156.513 1.512.256.225.662.155.947.334.284.18.37.59.443.934.072.343.215.75.548.852.332.103.64-.121.966-.109.068 0 .15.011.193-.04a.148.148 0 0 0 .022-.044c0 .117 0 .232.01.347a.225.225 0 0 1-.032.156c-.047.05-.125.042-.193.039-.327-.011-.652.206-.966.11-.315-.096-.476-.5-.548-.852-.073-.352-.151-.75-.443-.934-.292-.183-.691-.109-.947-.334-.405-.356-.119-1.145-.513-1.512-.301-.283-.782-.122-1.13.096-.347.218-.73.49-1.122.383-.133-.037-.252-.117-.381-.167-.619-.244-1.421.17-1.93-.269a1.56 1.56 0 0 1-.385-.69 4.507 4.507 0 0 1-.282-1.099 1.837 1.837 0 0 1 .01-.385c.052.351.143.695.272 1.025z"/>
        </g>
        <path fill="#7CBE35" d="M35.876 118.01s-6.589-.44-5.812 4.674c0 0-.156.905.585 1.316 0 0 .011-.38.677-.252.236.044.476.057.715.04.323-.025.63-.166.874-.401 0 0 1.853-.848 2.573-4.203 0 0 .533-.73.511-.919l-1.11.518s.38.89.08 1.629c0 0-.036-1.596-.25-1.555-.043 0-.577.308-.577.308s.654 1.554.156 2.675c0 0 .187-1.908-.365-2.563l-.78.506s.764 1.6.247 2.905c0 0 .132-2.002-.411-2.78l-.71.612s.719 1.575.281 2.658c0 0-.058-2.33-.433-2.506 0 0-.624.606-.715.864 0 0 .49 1.145.185 1.75 0 0-.187-1.555-.34-1.555 0 0-.623 1.027-.682 1.727 0 0 .026-1.048.533-1.832a1.802 1.802 0 0 0-.946.544s.095-.727 1.098-.791c0 0 .512-.78.647-.828 0 0-.997-.093-1.602.204 0 0 .533-.69 1.786-.373l.7-.634s-1.314-.198-1.87.021c0 0 .64-.606 2.058-.164l.762-.506s-1.119-.268-1.786-.173c0 0 .703-.42 2.01.037l.545-.271s-.82-.173-1.06-.208c-.24-.034-.254-.101-.254-.101a2.59 2.59 0 0 1 1.541.19s1.158-.484 1.14-.563z"/>
        <ellipse cx="31" cy="123" fill="#7CBE35" opacity=".1" rx="5" ry="1"/>
        <path fill="#7CBE35" d="M47.932 106.005s-3.292-.22-2.9 2.338a.647.647 0 0 0 .293.657s0-.19.338-.126c.119.022.239.028.358.02a.718.718 0 0 0 .436-.2s.923-.418 1.287-2.103c0 0 .267-.366.256-.46l-.553.263s.19.445.04.814c0 0-.018-.797-.124-.78a3.43 3.43 0 0 0-.288.154s.325.766.08 1.337c0 0 .092-.954-.183-1.282l-.393.26s.381.8.123 1.452c0 0 .066-1.001-.206-1.39l-.353.306s.357.789.138 1.33c0 0-.03-1.166-.217-1.253-.134.126-.254.27-.358.427 0 0 .246.573.094.874 0 0-.094-.776-.17-.78 0 0-.309.514-.34.867.014-.326.105-.643.264-.918a.909.909 0 0 0-.472.272s.048-.364.552-.395c0 0 .255-.39.324-.413 0 0-.499-.048-.801.1 0 0 .266-.342.892-.186l.349-.317s-.656-.1-.933.01c0 0 .32-.306 1.028-.082l.38-.251a3.087 3.087 0 0 0-.892-.086s.352-.211 1.004.017l.276-.135s-.414-.09-.529-.104c-.114-.014-.127-.05-.127-.05.26-.048.527-.015.77.095 0 0 .572-.242.557-.282z"/>
        <ellipse cx="45.5" cy="109.5" fill="#7CBE35" opacity=".1" rx="2.5" ry="1"/>
        <path fill="#7CBE35" d="M26.911 108.006s-4.391-.294-3.868 3.118c-.054.355.103.708.39.876 0 0 0-.254.451-.17.158.03.318.039.478.026a.938.938 0 0 0 .582-.267s1.235-.565 1.715-2.801c0 0 .354-.487.34-.612l-.752.351s.252.592.054 1.085c0 0-.025-1.063-.166-1.037-.03 0-.385.204-.385.204s.435 1.032.107 1.783c0 0 .123-1.272-.244-1.708l-.52.338s.507 1.066.163 1.935c0 0 .088-1.334-.273-1.86l-.473.409s.477 1.05.186 1.773c0 0-.038-1.555-.289-1.672 0 0-.413.405-.477.57 0 0 .328.763.125 1.166 0 0-.125-1.035-.227-1.04 0 0-.412.686-.458 1.157.02-.435.143-.856.355-1.222-.238.05-.457.176-.631.362 0 0 .064-.485.734-.527 0 0 .34-.52.43-.552 0 0-.664-.062-1.068.135 0 0 .355-.456 1.19-.248l.467-.423s-.876-.132-1.247.015c0 0 .427-.406 1.373-.11l.508-.338s-.746-.18-1.19-.115c0 0 .469-.28 1.34.024l.363-.181s-.546-.119-.706-.137c-.16-.02-.17-.068-.17-.068a1.715 1.715 0 0 1 1.027.125s.78-.308.766-.364z"/>
        <ellipse cx="24" cy="112.5" fill="#7CBE35" opacity=".1" rx="3" ry="1"/>
        <ellipse cx="113" cy="131" fill="#7CBE35" opacity=".1" rx="5" ry="1"/>
        <path fill="#A8A8A8" d="M109 127.428s2.688-.082 3.497-.65c.81-.568 4.134-1.24 4.335-.335.202.906 4.039 4.531 1.005 4.556-3.035.025-7.05-.465-7.86-.95-.809-.486-.977-2.62-.977-2.62z"/>
        <path fill="#000" d="M117.892 130.646c-3.034.028-7.05-.52-7.857-1.063-.616-.415-.862-1.899-.945-2.583H109s.17 2.39.978 2.934c.808.544 4.825 1.091 7.86 1.065.875 0 1.177-.347 1.161-.869-.12.318-.455.511-1.107.516z" opacity=".2"/>
    </g>
</svg>
