<svg xmlns="http://www.w3.org/2000/svg" width="320" height="244" viewBox="0 0 320 244">
    <g fill="none" fill-rule="evenodd">
        <path fill="#7CBE35" d="M313 66.531a78.39 78.39 0 0 0-12.67-20.324l-175.824-1.744 144.76-20.464a81.773 81.773 0 0 0-29.372-5.863c-28.438-22.879-68.43-24.24-98.338-3.349a81.541 81.541 0 0 0-37.636-9.133C64.853 5.654 32.302 32.89 25 69l288-2.469zM320 96.313A75.465 75.465 0 0 0 314.514 68L9.304 99.886a76.075 76.075 0 0 0-7.14 17.974l94.52 14.021L0 142.106c2.908 40.492 37.784 72.466 80.388 72.466 21.446 0 40.934-8.102 55.373-21.315C150.245 206.72 169.921 215 191.598 215c32.164 0 59.923-18.227 72.85-44.58 25.936-8.193 46.082-28.763 52.977-54.498l-119.526-18.45h122.089c.006-.387.012-.773.012-1.159z" opacity=".1"/>
        <ellipse cx="9" cy="223" fill="#7CBE35" opacity=".1" rx="8" ry="1"/>
        <ellipse cx="39" cy="226" fill="#7CBE35" opacity=".1" rx="8" ry="1"/>
        <ellipse cx="73" cy="221" fill="#7CBE35" opacity=".1" rx="8" ry="1"/>
        <ellipse cx="26.5" cy="235" fill="#7CBE35" opacity=".1" rx="5.5" ry="1"/>
        <ellipse cx="57.5" cy="234" fill="#7CBE35" opacity=".1" rx="5.5" ry="1"/>
        <path fill="#7CBE35" d="M38.44 226s-11.057-35.724 1.727-50.032c9.567-10.706 20.422-9.424 25.284-8.1a8.957 8.957 0 0 1 5.8 4.751c1.7 3.61 1.392 9.482-10.607 16.33-20.092 11.468-21.34 27.196-21.34 27.196L38.438 226z"/>
        <path stroke="#565987" d="M64 173s-32.157 10.032-24.946 53M45 176s4.036 2.795 2.745 7M61 179s-2.71-3.255-6-1.46M48 193.205s-4.767-3.181-6 .795M36 197.024s3.927-.392 4 1.976"/>
        <path fill="#7CBE35" d="M38 226s13.255-25.55 16.896-24.99c1.728.266 2.525 1.876 2.887 3.496a9.81 9.81 0 0 1-.722 6.236C55.186 214.813 50.118 222.586 38 226z"/>
        <path stroke="#565987" d="M55 205s-13.41 20.118-16 21M55 208h-3M52 215.894l-5 .212M49 210l1 2M42.952 218l.096 2"/>
        <path fill="#7CBE35" d="M39 226s-13.257-25.55-16.898-24.99c-1.728.266-2.525 1.876-2.888 3.496a9.789 9.789 0 0 0 .725 6.218C21.818 214.814 26.871 222.586 39 226z"/>
        <path stroke="#565987" d="M22 205s13.41 20.118 16 21M21 208h3M25 215.894l5 .212M28 210l-1 2M33.048 218l-.096 2"/>
        <path fill="#7CBE35" d="M61.224 231.738c.355-.302.615-.708.744-1.167a1.053 1.053 0 0 0-.52-1.188c-.477-.193-.988.153-1.372.5-.385.345-.83.746-1.336.672a2.172 2.172 0 0 0 .616-1.98.843.843 0 0 0-.172-.404c-.265-.294-.745-.166-1.062.064-1.01.737-1.29 2.163-1.295 3.448a6.832 6.832 0 0 1-.019-1.42c0-.474-.13-1.002-.514-1.255a1.454 1.454 0 0 0-.778-.193c-.456 0-.957.03-1.268.375-.384.43-.286 1.147.05 1.622.374.439.817.808 1.31 1.092.37.235.685.552.923.93.028.053.05.108.068.166h2.84a7.866 7.866 0 0 0 1.785-1.262zM12.224 221.75c.356-.302.616-.71.745-1.17.116-.477-.1-.974-.52-1.196-.477-.19-.985.158-1.372.505-.388.347-.828.746-1.335.672a2.173 2.173 0 0 0 .615-1.986.857.857 0 0 0-.176-.402c-.264-.296-.744-.17-1.06.064-1.01.74-1.29 2.17-1.296 3.458a6.905 6.905 0 0 1-.018-1.427c0-.475-.127-1.002-.511-1.256a1.461 1.461 0 0 0-.781-.193c-.453-.02-.957.029-1.268.376-.384.43-.283 1.15.05 1.607A4.92 4.92 0 0 0 6.61 221.9c.37.234.686.553.923.932.028.054.051.11.07.167h2.84a7.912 7.912 0 0 0 1.781-1.25zM27.224 231.738c.355-.302.615-.708.744-1.167a1.053 1.053 0 0 0-.52-1.188c-.477-.193-.988.153-1.372.5-.385.345-.83.746-1.336.672a2.172 2.172 0 0 0 .616-1.98.843.843 0 0 0-.172-.404c-.265-.294-.745-.166-1.062.064-1.01.737-1.29 2.163-1.295 3.448a6.832 6.832 0 0 1-.019-1.42c0-.474-.126-1.002-.51-1.255a1.471 1.471 0 0 0-.782-.193c-.452 0-.957.03-1.268.375-.384.43-.286 1.147.05 1.622.374.439.817.808 1.31 1.092.37.235.685.552.923.93.028.053.05.108.068.166h2.84a7.866 7.866 0 0 0 1.785-1.262zM74.305 211s1.201 1.445-.556 3.623c-1.756 2.178-3.2 4.018-2.618 5.377 0 0 2.65-4.047 4.806-4.105 2.156-.057.74-2.462-1.632-4.895z"/>
        <path fill="#000" d="M74.273 211c.106.14.19.292.25.453 2.128 2.27 3.26 4.388 1.215 4.442-1.907.051-4.19 3.145-4.738 3.926.018.061.039.118.063.179 0 0 2.68-4.047 4.861-4.105 2.181-.057.748-2.462-1.65-4.895z" opacity=".1"/>
        <path fill="#FFD037" d="M76.121 212.26c0 .409-.054.74-.121.74s-.121-.331-.121-.74c0-.407.07-.215.136-.215.067 0 .106-.192.106.216z"/>
        <path fill="#FFD037" d="M76.762 212.512c-.391.351-.732.564-.76.463-.028-.102.262-.463.654-.8.39-.339.234-.098.265 0 .03.096.232-.015-.16.337z"/>
        <path fill="#7CBE35" d="M68.693 211s-1.202 1.445.556 3.623c1.757 2.178 3.205 4.018 2.618 5.377 0 0-2.65-4.047-4.807-4.105-2.156-.057-.725-2.462 1.633-4.895z"/>
        <path fill="#000" d="M68.723 211a1.71 1.71 0 0 0-.246.453c-2.128 2.27-3.263 4.388-1.218 4.442 1.907.051 4.193 3.145 4.741 3.926-.021.061-.042.118-.067.179 0 0-2.68-4.047-4.86-4.105-2.182-.057-.735-2.462 1.65-4.895z" opacity=".1"/>
        <path fill="#FFD037" d="M66.879 212.26c0 .409.054.74.121.74s.121-.331.121-.74c0-.407-.067-.215-.133-.215-.067 0-.11-.192-.11.216zM65.244 212.512c.386.351.723.564.754.463.03-.102-.263-.463-.647-.8-.383-.339-.234-.098-.276 0-.041.096-.215-.015.169.337z"/>
        <path fill="#A8A8A8" d="M67 218.716s2.958-.095 3.847-.778c.89-.683 4.547-1.497 4.77-.404.223 1.093 4.44 5.435 1.103 5.465-3.337.03-7.752-.558-8.641-1.139-.89-.58-1.079-3.144-1.079-3.144z"/>
        <path fill="#000" d="M76.783 222.647c-3.337.027-7.757-.521-8.646-1.064-.679-.413-.948-1.897-1.036-2.583H67s.19 2.393 1.079 2.936c.89.542 5.305 1.09 8.643 1.063.966 0 1.296-.352 1.277-.861-.137.312-.5.502-1.216.509z" opacity=".2"/>
        <ellipse cx="185.5" cy="239.5" fill="#7CBE35" opacity=".1" rx="99.5" ry="4.5"/>
        <path fill="#EFB7B9" d="M175.035 104.227s6.428 12.186 6.927 13.926a2.346 2.346 0 0 0 2.167 1.736s6.404 1.533 7.935 1.739c1.53.205 14.797 1.328 14.797 1.328s3.367.104 3.775-1.123c.373-1.122 6.878-7.02 10.643-1.874.704.966.907 2.21.545 3.35-.692 2.208-2.112 5.714-3.637 3.533-2.142-3.067-4.634-2.205-4.634-.57 0 1.635-3.429 1.027-4.549 1.257-.612.126-2.718.687-4.54 1.178a33 33 0 0 1-6.465 1.077c-3.615.236-8.944.432-10.833-.282-2.28-.868-6.257-1.068-7.959-1.114a2.614 2.614 0 0 1-1.552-.558 24.244 24.244 0 0 1-5.893-6.714c-2.654-4.601-8.112-14.128-7.744-16.89.367-2.76 11.017 0 11.017 0z"/>
        <path fill="#000" d="M175.035 104.227s6.428 12.186 6.927 13.926a2.346 2.346 0 0 0 2.167 1.736s6.404 1.533 7.935 1.739c1.53.205 14.797 1.328 14.797 1.328s3.367.104 3.775-1.123c.373-1.122 6.878-7.02 10.643-1.874.704.966.907 2.21.545 3.35-.692 2.208-2.112 5.714-3.637 3.533-2.142-3.067-4.634-2.205-4.634-.57 0 1.635-3.429 1.027-4.549 1.257-.612.126-2.718.687-4.54 1.178a33 33 0 0 1-6.465 1.077c-3.615.236-8.944.432-10.833-.282-2.28-.868-6.257-1.068-7.959-1.114a2.614 2.614 0 0 1-1.552-.558 24.244 24.244 0 0 1-5.893-6.714c-2.654-4.601-8.112-14.128-7.744-16.89.367-2.76 11.017 0 11.017 0z" opacity=".05"/>
        <path d="M248 194.957c-2.859 3.157-4.963 4.4-4.864 1.069.3-10.076-17.136-55.63-17.136-55.63l5.156-.396c11.252 19.69 15.437 39.939 16.844 54.957z"/>
        <path fill="#65617D" d="M273 217.032c-.023 13.383-10.573 24.377-23.938 24.945-13.366.568-24.81-9.49-25.968-22.823a20.665 20.665 0 0 1-.076-1.212v-.022a22.613 22.613 0 0 1-.018-.909C223 203.198 234.193 192 248 192s25 11.198 25 25.011v.021z"/>
        <circle cx="248.5" cy="217.5" r="13.5" fill="#DCE0ED"/>
        <circle cx="247.5" cy="216.5" r="8.5" fill="#65617D"/>
        <path fill="#65617D" d="M182 169.761L122 171v-9.067c.538-7.298 7.853-9.859 14.497-10.66A40.624 40.624 0 0 1 152 152.463c12.73 3.456 20.84 4.125 24.835 4.19 1.809.028 3.348 1.355 3.685 3.177.19 1.037.378 2.168.553 3.282.133.873.26 1.734.374 2.536.333 2.31.553 4.112.553 4.112z"/>
        <path fill="#7CBE35" d="M229.813 219H104.874a4.923 4.923 0 0 1-4.556-2.912c-.942-2.224.375-3.642 1.78-4.474a14.026 14.026 0 0 0 6.152-7.44c1.332-3.89 2.633-9.977 3.145-19.487.527-9.837 4.13-14.7 8.023-17.058 5.028-3.04 10.541-1.9 10.541-1.9l50.658.4a9.748 9.748 0 0 1 2.474 1.595c4.513 4.154-2.068 9.577-2.068 9.577-14.13 14.762-3.433 29.725-3.433 29.725h25.92a24.05 24.05 0 0 0 13.578-4.109c3.503-2.394 4.844-4.707 5.383-6.107.4-1.072.806-2.14 1.29-3.176 6.8-14.577-1.402-38.29-4.94-47.157a81.996 81.996 0 0 0-1.47-3.492l8.13-.599 5.146-.386h.052c11.328 19.314 15.54 39.161 16.953 53.867.133 1.385.242 2.73.33 4.019a17.833 17.833 0 0 1-4.882 13.447A18.265 18.265 0 0 1 229.813 219z"/>
        <path fill="#000" d="M182 166h-59v-2h58.628c.132.676.258 1.355.372 2z" opacity=".1"/>
        <path fill="#000" d="M184 166h-63.52c-.164 0-.328-.03-.48-.087 5.054-2.757 10.596-1.723 10.596-1.723l50.918.364A9.977 9.977 0 0 1 184 166z" opacity=".1"/>
        <rect width="88" height="2" x="97" y="164" fill="#DCE0ED" rx="1"/>
        <path fill="#000" d="M248 194.957c-2.859 3.157-4.963 4.4-4.864 1.069.3-10.076-17.136-55.63-17.136-55.63l5.156-.396c11.252 19.69 15.437 39.939 16.844 54.957z" opacity=".1"/>
        <path fill="#000" d="M272.997 214.127c-2.995.712-6.69 1.435-11.25 2.11a191.85 191.85 0 0 1-5.473.713c-4.662.548-10.053 1.028-16.28 1.396-1.764.104-3.595.2-5.494.286-3.558.16-7.366.284-11.424.368l-.076-1.206v-.021c5.67-2.27 14.595-8.329 16.03-24.108a25.281 25.281 0 0 1 22.065 1.959c6.651 4.01 11.049 10.855 11.905 18.527l-.003-.024z" opacity=".1"/>
        <path fill="#7CBE35" d="M218 219s28.542-3.126 18.71-47c0 0 14.103 13.045 22.877 20.294C268.36 199.543 284 209.537 284 209.537s-9.337 8.803-66 9.463z"/>
        <path fill="#FFF" d="M218 219s28.542-3.126 18.71-47c0 0 14.103 13.045 22.877 20.294C268.36 199.543 284 209.537 284 209.537s-9.337 8.803-66 9.463z" opacity=".1"/>
        <circle cx="142" cy="217" r="25" fill="#65617D"/>
        <circle cx="141.5" cy="217.5" r="13.5" fill="#DCE0ED"/>
        <circle cx="141.5" cy="216.5" r="8.5" fill="#65617D"/>
        <path fill="#000" d="M170 209.99c0-16.01-12.76-28.99-28.5-28.99S113 193.98 113 209.99c0 .677.023 1.347.07 2.01h56.86c.047-.663.07-1.333.07-2.01z" opacity=".1"/>
        <path fill="#7CBE35" d="M169 209.055C169 193.561 156.688 181 141.5 181S114 193.561 114 209.055c0 .655.024 1.302.066 1.945h54.868c.042-.643.066-1.29.066-1.945z"/>
        <path fill="#FFF" d="M169 209.055c0 .45 0 .906-.033 1.341 0 .202-.021.402-.033.604h-54.868c0-.202-.024-.402-.033-.604a28.67 28.67 0 0 1-.033-1.341C114 193.561 126.312 181 141.5 181s27.5 12.561 27.5 28.055z" opacity=".1"/>
        <path fill="#000" d="M169 210c0 .335-.021.665-.033 1h-54.934c0-.335-.024-.665-.033-1h55z" opacity=".1"/>
        <rect width="74" height="6" x="101" y="212" fill="#000" opacity=".1" rx="3"/>
        <rect width="74" height="6" x="101" y="211" fill="#DCE0ED" rx="3"/>
        <ellipse cx="239.482" cy="160.697" fill="#000" opacity=".1" rx="3.625" ry="9.102" transform="rotate(-24.33 239.482 160.697)"/>
        <ellipse cx="239.784" cy="160.394" fill="#DCE0ED" rx="3.625" ry="9.102" transform="rotate(-24.33 239.784 160.394)"/>
        <path fill="#000" d="M231 141v5h-9.046c-.843 0-1.684-.072-2.515-.217a91.769 91.769 0 0 0-1.439-3.724l7.964-.638L231 141z" opacity=".1"/>
        <path fill="#7CBE35" d="M231 145h-9.266c-8.139 0-14.734-5.978-14.734-13.381v-1.24c0-7.39 6.595-13.379 14.734-13.379l9.266.828V145z"/>
        <path fill="#7CBE35" d="M215.73 125.301s5.422 2.935 2.302 7.903c0 0-3.826 6.358-9.842 5.756L206 125.3s7.205-.677 9.73 0z"/>
        <path fill="#000" d="M213.642 125.04a5.743 5.743 0 0 1 4.409 2.354c.965 1.354 1.542 3.328-.018 5.811 0 0-3.827 6.357-9.843 5.755L206 125.305s4.507-.437 7.642-.265zM231 117h1.68c2.938 0 5.32 2.567 5.32 5.734v16.532c0 1.52-.56 2.98-1.558 4.054-.998 1.076-2.351 1.68-3.762 1.68H231v-28z" opacity=".1"/>
        <path fill="#DCE0ED" d="M232 117h1.68c2.938 0 5.32 2.567 5.32 5.734v16.532c0 1.52-.56 2.98-1.558 4.054-.998 1.076-2.351 1.68-3.762 1.68H232v-28z"/>
        <path fill="#EFB7B9" d="M166 152.702s1.417.516 3.309 1.237c3.008 1.157 7.25 2.844 8.724 3.77 1.473.925 6.97 2.444 11.084 3.514a36.15 36.15 0 0 0 9.344 1.15c3.2-.03 7.078-.06 8.149-.06.187-.002.374.012.56.042 1.124.186 1.08.94 1.052 1.12v.04c-6.618 4.003-14.64 21.925-15.14 24.928-.376 2.253-3.682 8.497-5.312 11.482-.548 1-.903 1.634-.903 1.634l2.007 2.3 5.814 2.605 5.514 2.403s5.818.3 5.917 0c.1-.3.1-3.403.1-3.403a16.422 16.422 0 0 1-2.01-1.526 33.215 33.215 0 0 1-3.706-3.782c-3.206-3.805 3.21-11.112 3.21-11.112l12.333-16.018s1.002-1.802 5.815-9.01c4.813-7.208 0-11.113 0-11.113l-8.471-3.511c-14.692-5.49-32.413-9.89-32.413-9.89l-.252-.033-3.757-.469L166 152.702z"/>
        <path fill="#444053" d="M204.004 206.293s1.063 1.27.267 1.383c-.796.114-2.886-.344-2.886-.344l-13.254-7.067s-1.443-1.039-1.784.998c-.34 2.038-.57 1.844-.57 1.844s-1.747 3.8 0 4.588c1.746.786 12.239 3.899 12.239 3.899s15.229 3.496 16.672-.538c1.443-4.034-2.583-3.34-2.583-3.34s-5.012-1.23-6.722-3.687c-.012 0-2.48.691-1.38 2.264z"/>
        <path fill="#000" d="M221.852 152.9l-8.471-3.51c-14.693-5.49-32.415-9.889-32.415-9.889l-.252-.033-3.758-.468L166 152.698s1.417.517 3.31 1.237c3.007 1.156 7.25 2.844 8.723 3.769 1.474.925 6.97 2.444 11.086 3.513a36.163 36.163 0 0 0 9.343 1.15c3.201-.03 7.079-.06 8.15-.06.187-.002.374.012.56.042 1.125.186 1.08.94 1.052 1.12v.039c-6.618 4.002-14.641 21.92-15.14 24.922-.376 2.252-3.683 8.495-5.313 11.48l-.22.402c-.436-.072-.98.084-1.173 1.219-.34 1.988-.565 1.801-.565 1.801s-1.73 3.715 0 4.483c1.73.77 12.11 3.81 12.11 3.81s15.081 3.418 16.51-.525c1.43-3.942-2.557-3.264-2.557-3.264s-4.963-1.2-6.657-3.603c-.15.044-.297.098-.44.162-.177-.144-.366-.3-.568-.474a33.212 33.212 0 0 1-3.706-3.78c-3.207-3.805 3.21-11.11 3.21-11.11l12.334-16.014s1.002-1.801 5.815-9.008c4.813-7.206-.012-11.11-.012-11.11z" opacity=".05"/>
        <path fill="#EFB7B9" d="M156 86.344l.45.586.253.326 1.571 2.035s3.75 1.239 7.038 2.041c3.425.833 6.345 1.196 4.024-.796-1.441-1.236-1.536-3.304-1.011-5.522a23.247 23.247 0 0 1 1.885-4.912 40.924 40.924 0 0 1 2.79-4.738 69.834 69.834 0 0 0-6.55-4.14c-2.715-1.446-4.944-2.078-3.53.784.907 1.83.61 3.887-.237 5.855-.066.155-.137.305-.21.466a21.025 21.025 0 0 1-2.8 4.238A32.988 32.988 0 0 1 156 86.344z"/>
        <path fill="#444053" d="M174.943 132l2.064 1.775L179 141h-3.327L172 136.499z"/>
        <path fill="#000" d="M172 136.499l2.222 2.72 1.451 1.781H179l-.34-1.236-1.453-5.264-.2-.725-2.064-1.775-2.818 4.306z" opacity=".1"/>
        <path fill="#000" d="M172 136.499l2.222 2.72 1.451 1.781H179l-.34-1.236-1.453-5.264-.2-.725-2.064-1.775-2.818 4.306z" opacity=".1"/>
        <path fill="#EFB7B9" d="M161 156.327s1.417.52 3.31 1.245c3.007 1.164 7.25 2.864 8.723 3.795 1.474.931 6.97 2.461 11.086 3.537a35.928 35.928 0 0 0 9.343 1.161c3.201-.03 7.079-.06 8.15-.06.187-.002.374.012.56.042 1.124.188 1.08.947 1.052 1.128v.04c-6.618 4.03-14.641 22.07-15.14 25.094-.376 2.268-3.683 8.553-5.313 11.559-.548 1.007-.903 1.645-.903 1.645l2.007 2.316 5.812 2.618 5.514 2.419s5.818.302 5.917 0c.1-.303.1-3.426.1-3.426-.708-.46-1.38-.973-2.01-1.536a33.334 33.334 0 0 1-3.706-3.806c-3.207-3.831 3.21-11.187 3.21-11.187l12.334-16.124s1.002-1.815 5.815-9.07c4.813-7.257 0-11.188 0-11.188l-7.72-4.435c-12.033-7.356-28.981-11.59-28.981-11.59l-.253-.032-3.757-.472L161 156.327z"/>
        <path fill="#000" d="M182 205.625l2.074 2.28 6.01 2.581 5.698 2.382s6.013.297 6.115 0c.103-.298.103-3.373.103-3.373a16.923 16.923 0 0 1-2.077-1.512c-.643.33-1.374.95-.668 1.908 0 0 1.088 1.226.273 1.34-.814.113-2.953-.334-2.953-.334l-13.565-6.846-.077-.051-.933 1.625z" opacity=".1"/>
        <path fill="#444053" d="M199.013 210.3s1.064 1.268.265 1.385c-.8.117-2.888-.348-2.888-.348l-13.258-7.073s-1.443-1.037-1.787 1c-.343 2.035-.568 1.845-.568 1.845s-1.748 3.807 0 4.594c1.747.788 12.233 3.89 12.233 3.89s15.234 3.498 16.678-.537c1.443-4.035-2.584-3.346-2.584-3.346s-5.015-1.23-6.723-3.691c.009.012-2.471.704-1.368 2.282z"/>
        <path fill="#000" d="M162 76.923c1.703 1.192 4.301 3.077 6.52 3.077.572 0 1.143-.046 1.708-.137A40.348 40.348 0 0 1 173 75.237s-12.962-9.135-10.016-3.276c.972 1.948.015 2.904-.984 4.962z" opacity=".1"/>
        <path fill="#EFB7B9" d="M157 68.005a10.98 10.98 0 0 0 6.09 9.838 11 11 0 1 0-6.09-9.845v.007z"/>
        <path fill="#000" d="M161 155.795s1.424.503 3.325 1.205c1.194-1.018 2.418-2 2.929-2.18 1.109-.391 4.736-2.439 4.636-3.024-.1-.585 1.511-2.825 2.92-3.217 1.408-.392.604-2.437.604-2.437s2.72-.974 3.398-2.34c.677-1.365 2.75-3.12 2.043-3.021a2.238 2.238 0 0 1-.858-.325L176.22 140 161 155.795z" opacity=".1"/>
        <path fill="#444053" d="M151.93 151.993s4.707 3.75 4.925 5.426c.218 1.675 3.36 1.58 3.36 1.58s4.707-4.342 5.83-4.736c1.123-.393 4.808-2.468 4.707-3.06-.101-.592 1.534-2.86 2.964-3.256 1.43-.396.614-2.465.614-2.465s2.761-.986 3.448-2.368c.688-1.382 2.793-3.158 2.075-3.057-.203.026-.85-.296-1.673-.767a93.184 93.184 0 0 1-3.332-2.072c-1.104-.722-1.948-1.296-1.948-1.296s-.482-.083-1.307-.199c-4.453-.621-18.954-2.207-22.32 2.96a7.695 7.695 0 0 0-.997 2.211c-1.507 5.505 3.654 11.1 3.654 11.1z"/>
        <path fill="#000" d="M157 141s-4.912 2-6.743 2c-1.832 0 6.743-2 6.743-2zM160 142.063s-6.986 2.57-6.986 4.588c0 2.018-.653-5.407 6.986-4.588zM177.05 131.932l-.1.136a.302.302 0 0 0 .1-.136zM156 85.605l.445.56.25.31 1.552 1.941s3.706 1.182 6.955 1.947c3.384.795 6.27 1.14 3.976-.76-1.424-1.178-1.518-3.15-1-5.266l-.102-.131s.103 1.961-1.066 1.999c-1.577.05-1.597-.477-3.05-1.086-1.872-.785-3.791-2.098-4.33-3.119a32.008 32.008 0 0 1-3.63 3.605z" opacity=".1"/>
        <path fill="#000" d="M149 141.722c.824.349 1.752.37 2.591.06 3.12-1 8.054-3.408 10.367-2.354 1.854.845 9.322.82 12.08.111.685-.177 1.078-.395 1.017-.653a1.782 1.782 0 0 1 .106-.877c.32-1.015 1.19-2.425 1.839-3.398l-.2-.758-2.047-1.853-2.796 4.491c-4.382-.629-18.654-2.233-21.966 2.994a7.891 7.891 0 0 0-.991 2.237z" opacity=".1"/>
        <path fill="#A36468" d="M146.403 138.973s1.228 2.815 4.399 1.81c3.17-1.004 8.187-3.433 10.538-2.371 2.352 1.062 13.612.76 13.305-.546-.307-1.307 2.762-5.432 2.762-5.432s-1.676-.301-2.713-5.681a34.766 34.766 0 0 1-.409-2.691 33.67 33.67 0 0 1-.178-6.258c.415-5.824 2.49-8.201 2.49-8.201s2.864-3.217.408-7.643c-1.286-2.32-6.477-8.75-6.548-11.617-.064-2.6-2.594-5.624-2.594-5.624s.108 2.034-1.117 2.073c-1.651.051-1.673-.495-3.195-1.125-2.238-.93-4.538-2.568-4.688-3.663 0 0-9.381-.462-11.429 8.892-2.047 9.353-1.329 14.483-1.022 15.59.307 1.107 2.966 15.388.817 21.423-2.15 6.034-.826 11.064-.826 11.064z"/>
        <path fill="#000" d="M162.612 122.67a23.02 23.02 0 0 0 6.299 6.985c1.701.014 3.4.13 5.089.345-.145-.767-.29-1.64-.387-2.632a33.983 33.983 0 0 1-.168-6.12 2.221 2.221 0 0 1-1.14-1.428c-.486-1.673-4.81-9.64-4.81-9.64s-10.118-2.655-10.47 0c-.352 2.656 3.065 8.064 5.587 12.49z" opacity=".1"/>
        <path fill="#EFB7B9" d="M165.035 104.227s6.427 12.186 6.926 13.926a2.345 2.345 0 0 0 2.167 1.736s6.403 1.533 7.933 1.739c1.53.205 14.803 1.328 14.803 1.328s3.367.104 3.774-1.123c.373-1.122 6.877-7.02 10.641-1.874.704.966.907 2.21.545 3.35-.692 2.208-2.112 5.714-3.636 3.533-2.142-3.067-4.633-2.205-4.633-.57 0 1.635-3.428 1.027-4.548 1.257-.612.126-2.718.687-4.539 1.178-2.119.574-4.289.934-6.479 1.077-3.614.236-8.943.432-10.831-.282-2.277-.868-6.253-1.068-7.957-1.114a2.613 2.613 0 0 1-1.552-.558 24.243 24.243 0 0 1-5.888-6.714c-2.654-4.601-8.11-14.128-7.743-16.89.367-2.76 11.017 0 11.017 0z"/>
        <path fill="#000" d="M162.597 88.464s3.376 5.585 4.94 9.573c1.563 3.988 3.463 10.97 3.463 10.97l-9.406-1.098-.798-1.295s-6.717 4.188-5.915 5.983c.801 1.795-1.8-2.692-1.6-7.778.201-5.086-.723-14.162 0-16.355.723-2.193 7.104-1.696 9.316 0z" opacity=".1"/>
        <path fill="#A36468" d="M153.291 103.818c-.201 5.086 2.401 9.574 1.6 7.779-.802-1.795 5.916-5.984 5.916-5.984l.79 1.296 9.403 1.098s-1.9-6.983-3.464-10.971a60.931 60.931 0 0 0-3.217-6.582c-.964-1.744-1.723-2.992-1.723-2.992-1.294-.996-4.04-1.58-6.231-1.442-.342.02-.682.06-1.018.123-.9.176-1.627.517-1.948 1.056-.049.083-.09.171-.12.263-.72 2.193.204 11.27.012 16.356z"/>
        <path fill="#000" d="M149 118s4.609 5.84 6 6c-.01.013-5.923-1.2-6-6zM149 126s7.345 7.921 9.696 8c2.35.078-9.696-8-9.696-8zM149.001 129s5.633 6 5.985 6c.352 0-6.083-2.08-5.985-6zM154 88a7.056 7.056 0 0 0 2.284-.741c.267-.136.532-.286.79-.446a18.577 18.577 0 0 0 2.837-2.26c1.431-1.347 2.86-2.817 3.45-4.664.134-.426.231-.861.293-1.302.355-2.317.056-4.875 1.767-6.45a4.08 4.08 0 0 1 1.092-.715c2.427-1.118 5.946-.395 7.757-2.41 1.15-1.278 1.123-3.053 2.006-4.442.386-.602 1.096-1.123 1.724-1.678-2.504-3.692-7.07-5.545-11.545-4.683-4.474.86-7.962 4.264-8.818 8.603-.856 4.34 1.09 8.748 4.922 11.145-.068.154-.143.302-.22.461-2.138 4.219-6.793 7.919-6.793 7.919l.473.578c-.943.208-1.686.543-2.019 1.085z" opacity=".1"/>
        <path fill="#965D7B" d="M173.095 68.1c-2.063 2.364-6.398.987-8.668 3.153-1.993 1.898-1.2 5.21-2.014 7.839-.579 1.867-1.977 3.35-3.379 4.715-2.041 1.987-4.652 4.003-7.443 3.434-1.654-.338-3.275-1.575-4.875-1.006-.795.287-1.365.975-1.959 1.581a13.5 13.5 0 0 1-7.485 3.872c-.563.127-1.15.1-1.697-.079-.853-.347-1.314-1.28-2.09-1.776-1.524-.975-3.48.024-5.061.896a35.415 35.415 0 0 1-29.09 2.093l2.465-1.219c-.524-1.07-1.94-1.304-2.843-2.087-1.858-1.611-.764-4.834 1.2-6.312 1.966-1.477 4.51-1.992 6.545-3.372.414-.28.835-.652.875-1.149a1.828 1.828 0 0 0-.333-1.017c-1.084-1.91-2.285-3.96-2.04-6.145.37-3.35 4.03-5.41 7.39-5.645 3.36-.234 6.688.777 10.054.835 1.22.022 2.496-.097 3.54-.728 1.46-.877 2.194-2.55 3.081-4.003a16.35 16.35 0 0 1 6.55-6.038c3.047-1.538 6.496-2.077 9.664-3.35 3.236-1.298 6.18-3.352 9.564-4.177 4.914-1.219 10.179.374 14.423 3.128 2.044 1.325 8.573 5.578 8.53 8.299-.033 1.614-2.132 2.489-2.927 3.756-.878 1.416-.85 3.21-1.977 4.502z"/>
        <g fill="#000" opacity=".1">
            <path d="M106.973 76.325c.208.295.324.643.332 1.002-.012.127-.048.25-.107.363-.894-1.554-1.825-3.201-1.974-4.935.396 1.239 1.092 2.43 1.75 3.57zM98.7 87.995c.897.771 2.311 1.002 2.838 2.055l-.87.426a9.815 9.815 0 0 1-1.664-.981 2.803 2.803 0 0 1-.95-2.331c.156.318.375.6.646.831zM128.12 89.192c1.579-.858 3.535-1.842 5.053-.882.772.489 1.235 1.407 2.086 1.749.547.176 1.131.203 1.692.078a13.552 13.552 0 0 0 7.476-3.813c.59-.6 1.16-1.275 1.956-1.557 1.588-.561 3.206.657 4.867.99 2.787.561 5.39-1.425 7.431-3.381 1.4-1.341 2.793-2.805 3.37-4.644.816-2.589.025-5.85 2.014-7.719 2.273-2.133 6.592-.777 8.654-3.105 1.123-1.272 1.098-3.039 1.962-4.422.73-1.167 2.622-1.995 2.89-3.402.21.367.325.779.338 1.2-.034 1.59-2.13 2.451-2.923 3.699-.864 1.383-.84 3.15-1.962 4.422-2.063 2.328-6.388.972-8.654 3.105-1.99 1.869-1.199 5.13-2.014 7.719-.578 1.839-1.971 3.3-3.37 4.644-2.042 1.956-4.645 3.942-7.432 3.381-1.654-.333-3.273-1.551-4.867-.99-.797.282-1.365.96-1.955 1.557a13.552 13.552 0 0 1-7.477 3.813 3.227 3.227 0 0 1-1.692-.078c-.851-.342-1.314-1.26-2.086-1.749-1.521-.96-3.474.024-5.053.882a35.797 35.797 0 0 1-29.043 2.061l1.7-.831a35.864 35.864 0 0 0 27.04-2.727z"/>
        </g>
        <path fill="#000" d="M203.175 168l2.825-1.4v-.548c0-.21-2.254.255-4 .65 1.256.228 1.206 1.092 1.175 1.298z" opacity=".1"/>
        <ellipse cx="205.5" cy="132.5" fill="#7CBE35" rx="6.5" ry="7.5"/>
        <path fill="#DDA2A6" d="M146 123l-10.03 9-32.97-.524 9.066-8.476z"/>
        <path fill="#B77B7F" d="M146 155.049V122l-9 9.66V164z"/>
        <path fill="#DDA2A6" d="M104 131v33h32v-32.436z"/>
        <path fill="#FFF" d="M104 131v33h32v-32.436z" opacity=".3"/>
        <path fill="#DCE0ED" d="M134 140.263L110.114 136 107 152.304 131.591 157z"/>
        <path fill="#7CBE35" d="M129 144.618L112.415 142l-.415 2.173L128.585 147zM125 149.448L116.38 148l-.38 2.539 9 1.461z"/>
        <path fill="#65617D" d="M142 139.409L141.557 126 139 128.56l.446 13.44z"/>
        <path fill="#65617D" d="M109.049 126l30.912.36 1.039.504-2.515 2.136-.868-.44-30.617-.747z"/>
    </g>
</svg>
